<svg width="88" height="41" viewBox="0 0 88 41" fill="none" xmlns="http://www.w3.org/2000/svg">
<line x1="14" y1="39.5176" x2="70" y2="39.5176" stroke="#E87F23" stroke-width="2"/>
<path d="M10.534 22.4451C10.3934 22.0047 10.208 21.6102 9.97785 21.2614C9.752 20.9082 9.4814 20.6073 9.16606 20.3587C8.85498 20.1103 8.50129 19.9206 8.10498 19.7898C7.70868 19.659 7.27402 19.5936 6.80101 19.5936C6.02544 19.5936 5.32018 19.7986 4.68524 20.2083C4.0503 20.6182 3.54532 21.2221 3.17032 22.02C2.79532 22.8179 2.60782 23.7967 2.60782 24.9566C2.60782 26.1164 2.79746 27.0952 3.17672 27.8931C3.55598 28.691 4.06947 29.2948 4.7172 29.7047C5.36493 30.1146 6.09362 30.3195 6.90328 30.3195C7.65328 30.3195 8.31379 30.156 8.88481 29.8289C9.4601 29.4976 9.90754 29.0311 10.2272 28.4293C10.551 27.8233 10.713 27.1105 10.713 26.2907L11.1988 26.3954H7.26123V24.9566H12.2471V26.3954C12.2471 27.4985 12.0169 28.4577 11.5567 29.2731C11.1008 30.0884 10.4701 30.7206 9.66464 31.1697C8.86351 31.6145 7.94305 31.8368 6.90328 31.8368C5.74419 31.8368 4.72572 31.5578 3.84788 30.9997C2.9743 30.4416 2.29248 29.648 1.80243 28.619C1.31663 27.59 1.07373 26.3692 1.07373 24.9566C1.07373 23.897 1.21223 22.9443 1.48922 22.0985C1.77047 21.2483 2.16677 20.5245 2.67814 19.9272C3.1895 19.3298 3.79461 18.872 4.49348 18.5537C5.19234 18.2355 5.96152 18.0763 6.80101 18.0763C7.49135 18.0763 8.13481 18.1831 8.7314 18.3967C9.33226 18.6061 9.86706 18.9047 10.3358 19.2927C10.8088 19.6764 11.203 20.1364 11.5184 20.6728C11.8337 21.2047 12.051 21.7955 12.1704 22.4451H10.534ZM14.7575 31.6537V21.6079H16.2149V23.1253H16.3172C16.4962 22.6283 16.82 22.2249 17.2888 21.9154C17.7575 21.6058 18.2859 21.451 18.874 21.451C18.9848 21.451 19.1233 21.4532 19.2895 21.4575C19.4557 21.4619 19.5814 21.4685 19.6666 21.4772V23.0468C19.6155 23.0337 19.4983 23.0141 19.3151 22.988C19.1361 22.9574 18.9465 22.9422 18.7462 22.9422C18.2689 22.9422 17.8428 23.0446 17.4678 23.2495C17.097 23.4502 16.803 23.7292 16.5857 24.0867C16.3726 24.4399 16.2661 24.8432 16.2661 25.2966V31.6537H14.7575ZM25.2725 31.863C24.3264 31.863 23.5104 31.6494 22.8243 31.222C22.1425 30.7904 21.6162 30.1887 21.2455 29.4169C20.879 28.6408 20.6957 27.7383 20.6957 26.7093C20.6957 25.6803 20.879 24.7734 21.2455 23.9886C21.6162 23.1994 22.1318 22.5847 22.7923 22.1443C23.4571 21.6995 24.2327 21.4772 25.119 21.4772C25.6304 21.4772 26.1354 21.5644 26.634 21.7388C27.1325 21.9132 27.5864 22.1966 27.9955 22.589C28.4046 22.9771 28.7305 23.4915 28.9734 24.1325C29.2163 24.7734 29.3378 25.5626 29.3378 26.5V27.1541H21.7696V25.8198H27.8037C27.8037 25.253 27.6929 24.7472 27.4713 24.3026C27.254 23.8578 26.9429 23.5069 26.5381 23.2495C26.1375 22.9923 25.6645 22.8637 25.119 22.8637C24.5182 22.8637 23.9983 23.0163 23.5594 23.3215C23.1247 23.6224 22.7902 24.0148 22.5558 24.4987C22.3215 24.9827 22.2043 25.5015 22.2043 26.0553V26.9447C22.2043 27.7034 22.3321 28.3466 22.5878 28.8741C22.8477 29.3974 23.2078 29.7963 23.668 30.0709C24.1283 30.3412 24.6631 30.4764 25.2725 30.4764C25.6688 30.4764 26.0267 30.4197 26.3463 30.3065C26.6702 30.1887 26.9493 30.0142 27.1837 29.7832C27.418 29.5478 27.5992 29.2557 27.727 28.9069L29.1844 29.3253C29.031 29.8312 28.7732 30.2759 28.4109 30.6596C28.0487 31.039 27.6013 31.3354 27.0686 31.549C26.5359 31.7583 25.9372 31.863 25.2725 31.863ZM34.5217 31.8891C33.8996 31.8891 33.3349 31.7692 32.8278 31.5295C32.3207 31.2852 31.918 30.9343 31.6198 30.4764C31.3215 30.0142 31.1723 29.4562 31.1723 28.8022C31.1723 28.2267 31.2831 27.7601 31.5047 27.4026C31.7263 27.0407 32.0224 26.7573 32.3932 26.5523C32.7639 26.3474 33.173 26.1948 33.6205 26.0946C34.0722 25.9899 34.526 25.907 34.982 25.846C35.5786 25.7676 36.0622 25.7086 36.433 25.6694C36.808 25.6258 37.0807 25.5539 37.2511 25.4536C37.4259 25.3533 37.5132 25.1789 37.5132 24.9304V24.8781C37.5132 24.2328 37.3406 23.7313 36.9955 23.3738C36.6546 23.0163 36.1368 22.8375 35.4422 22.8375C34.722 22.8375 34.1574 22.9988 33.7483 23.3215C33.3392 23.6442 33.0516 23.9886 32.8854 24.3549L31.4536 23.8316C31.7092 23.2212 32.0501 22.7459 32.4763 22.4059C32.9067 22.0614 33.3754 21.8216 33.8825 21.6864C34.3939 21.547 34.8967 21.4772 35.3911 21.4772C35.7064 21.4772 36.0686 21.5164 36.4777 21.5948C36.8911 21.669 37.2895 21.8238 37.673 22.0593C38.0608 22.2947 38.3825 22.65 38.6382 23.1253C38.8939 23.6006 39.0217 24.2371 39.0217 25.0351V31.6537H37.5132V30.2934H37.4365C37.3342 30.5113 37.1638 30.7446 36.9251 30.9931C36.6865 31.2416 36.369 31.4531 35.9727 31.6275C35.5764 31.8019 35.0928 31.8891 34.5217 31.8891ZM34.7519 30.5026C35.3484 30.5026 35.8513 30.3827 36.2604 30.1429C36.6737 29.9031 36.9848 29.5935 37.1936 29.2142C37.4067 28.8348 37.5132 28.4359 37.5132 28.0173V26.6047C37.4493 26.6832 37.3087 26.7551 37.0913 26.8205C36.8783 26.8815 36.6311 26.936 36.3499 26.984C36.0729 27.0276 35.8023 27.0669 35.5381 27.1017C35.2781 27.1323 35.0672 27.1584 34.9053 27.1803C34.5132 27.2325 34.1467 27.3176 33.8058 27.4352C33.4692 27.5486 33.1965 27.7209 32.9876 27.9519C32.7831 28.1787 32.6808 28.4883 32.6808 28.8807C32.6808 29.4169 32.8747 29.8224 33.2625 30.0971C33.6546 30.3674 34.151 30.5026 34.7519 30.5026ZM46.045 21.6079V22.916H40.9569V21.6079H46.045ZM42.4399 19.2012H43.9484V28.776C43.9484 29.212 44.0102 29.5391 44.1338 29.757C44.2616 29.9707 44.4236 30.1146 44.6196 30.1887C44.8199 30.2585 45.0308 30.2934 45.2524 30.2934C45.4186 30.2934 45.5549 30.2846 45.6615 30.2672C45.768 30.2454 45.8532 30.2279 45.9172 30.2149L46.224 31.6014C46.1217 31.6406 45.9789 31.6799 45.7957 31.7191C45.6125 31.7626 45.3802 31.7845 45.099 31.7845C44.6728 31.7845 44.2552 31.6907 43.8461 31.5033C43.4413 31.3158 43.1047 31.0302 42.8362 30.6465C42.572 30.2628 42.4399 29.7788 42.4399 29.1946V19.2012ZM48.3142 31.6537V21.6079H49.8227V31.6537H48.3142ZM49.0812 19.9337C48.7872 19.9337 48.5336 19.8312 48.3206 19.6263C48.1118 19.4214 48.0074 19.175 48.0074 18.8872C48.0074 18.5995 48.1118 18.3531 48.3206 18.1482C48.5336 17.9433 48.7872 17.8408 49.0812 17.8408C49.3753 17.8408 49.6267 17.9433 49.8355 18.1482C50.0486 18.3531 50.1551 18.5995 50.1551 18.8872C50.1551 19.175 50.0486 19.4214 49.8355 19.6263C49.6267 19.8312 49.3753 19.9337 49.0812 19.9337ZM54.0942 25.6106V31.6537H52.5857V21.6079H54.043V23.1776H54.1709C54.401 22.6674 54.7504 22.2577 55.2192 21.948C55.6879 21.6341 56.293 21.4772 57.0345 21.4772C57.6993 21.4772 58.281 21.6167 58.7796 21.8958C59.2781 22.1704 59.6659 22.589 59.9429 23.1515C60.2199 23.7095 60.3584 24.4158 60.3584 25.2705V31.6537H58.8499V25.3751C58.8499 24.5859 58.6496 23.9712 58.249 23.5308C57.8484 23.086 57.2987 22.8637 56.5999 22.8637C56.1183 22.8637 55.6879 22.9705 55.3087 23.1841C54.9337 23.3978 54.6375 23.7095 54.4202 24.1194C54.2028 24.5292 54.0942 25.0263 54.0942 25.6106ZM67.078 35.6301C66.3493 35.6301 65.7229 35.5342 65.1988 35.3423C64.6746 35.1549 64.2378 34.9063 63.8884 34.5967C63.5432 34.2915 63.2684 33.9645 63.0638 33.6157L64.2655 32.7525C64.4019 32.9356 64.5745 33.1448 64.7833 33.3803C64.9921 33.6201 65.2776 33.8272 65.6398 34.0017C66.0063 34.1804 66.4857 34.2697 67.078 34.2697C67.8706 34.2697 68.5248 34.0736 69.0404 33.6811C69.556 33.2887 69.8138 32.674 69.8138 31.8368V29.7963H69.686C69.5752 29.9794 69.4175 30.2061 69.213 30.4764C69.0127 30.7424 68.7229 30.98 68.3437 31.1894C67.9687 31.3943 67.4615 31.4967 66.8223 31.4967C66.0297 31.4967 65.3181 31.3049 64.6874 30.9212C64.061 30.5375 63.5645 29.9794 63.1981 29.2469C62.8358 28.5144 62.6547 27.6249 62.6547 26.5785C62.6547 25.5495 62.8316 24.6535 63.1853 23.8905C63.539 23.1232 64.0312 22.5301 64.6618 22.1115C65.2925 21.6887 66.0212 21.4772 66.8479 21.4772C67.4871 21.4772 67.9942 21.5861 68.3692 21.8042C68.7485 22.0178 69.0383 22.262 69.2385 22.5367C69.4431 22.807 69.6008 23.0293 69.7115 23.2038H69.865V21.6079H71.3223V31.9415C71.3223 32.8047 71.1306 33.5067 70.7471 34.0474C70.3678 34.5924 69.8564 34.9914 69.213 35.2442C68.5738 35.5015 67.8621 35.6301 67.078 35.6301ZM67.0269 30.1102C67.632 30.1102 68.1434 29.9685 68.561 29.6851C68.9786 29.4017 69.2961 28.994 69.5134 28.4621C69.7307 27.9301 69.8394 27.2935 69.8394 26.5523C69.8394 25.8285 69.7329 25.1898 69.5198 24.636C69.3067 24.0824 68.9914 23.6485 68.5738 23.3345C68.1562 23.0206 67.6405 22.8637 67.0269 22.8637C66.3877 22.8637 65.855 23.0293 65.4289 23.3607C65.007 23.6921 64.6895 24.1368 64.4765 24.695C64.2677 25.253 64.1633 25.8721 64.1633 26.5523C64.1633 27.2499 64.2698 27.8669 64.4829 28.4033C64.7002 28.9352 65.0198 29.3537 65.4417 29.6589C65.8678 29.9598 66.3962 30.1102 67.0269 30.1102Z" fill="#E87F23"/>
<mask id="mask0_86_4628" style="mask-type:luminance" maskUnits="userSpaceOnUse" x="0" y="16" width="73" height="21">
<path d="M73 16.3066H0V36.7701H73V16.3066Z" fill="white"/>
<path d="M10.534 22.4461C10.3934 22.0057 10.208 21.6112 9.97785 21.2624C9.752 20.9092 9.4814 20.6083 9.16606 20.3597C8.85498 20.1113 8.50129 19.9216 8.10498 19.7907C7.70868 19.66 7.27402 19.5946 6.80101 19.5946C6.02544 19.5946 5.32018 19.7995 4.68524 20.2093C4.0503 20.6192 3.54532 21.2231 3.17032 22.021C2.79532 22.8189 2.60782 23.7977 2.60782 24.9576C2.60782 26.1173 2.79746 27.0962 3.17672 27.8941C3.55598 28.6919 4.06947 29.2958 4.7172 29.7057C5.36493 30.1156 6.09362 30.3204 6.90328 30.3204C7.65328 30.3204 8.31379 30.1569 8.88481 29.8299C9.4601 29.4986 9.90754 29.032 10.2272 28.4303C10.551 27.8243 10.713 27.1114 10.713 26.2917L11.1988 26.3964H7.26123V24.9576H12.2471V26.3964C12.2471 27.4994 12.0169 28.4587 11.5567 29.274C11.1008 30.0894 10.4701 30.7216 9.66464 31.1707C8.86351 31.6155 7.94305 31.8378 6.90328 31.8378C5.74419 31.8378 4.72572 31.5588 3.84788 31.0006C2.9743 30.4426 2.29248 29.649 1.80243 28.62C1.31663 27.591 1.07373 26.3702 1.07373 24.9576C1.07373 23.898 1.21223 22.9453 1.48922 22.0994C1.77047 21.2493 2.16677 20.5255 2.67814 19.9282C3.1895 19.3308 3.79461 18.873 4.49348 18.5546C5.19234 18.2364 5.96152 18.0772 6.80101 18.0772C7.49135 18.0772 8.13481 18.184 8.7314 18.3977C9.33226 18.607 9.86706 18.9057 10.3358 19.2937C10.8088 19.6774 11.203 20.1374 11.5184 20.6737C11.8337 21.2057 12.051 21.7965 12.1704 22.4461H10.534ZM14.7575 31.6546V21.6089H16.2149V23.1263H16.3172C16.4962 22.6292 16.82 22.2259 17.2888 21.9164C17.7575 21.6068 18.2859 21.452 18.874 21.452C18.9848 21.452 19.1233 21.4542 19.2895 21.4585C19.4557 21.4629 19.5814 21.4695 19.6666 21.4782V23.0478C19.6155 23.0347 19.4983 23.0151 19.3151 22.989C19.1361 22.9584 18.9465 22.9431 18.7462 22.9431C18.2689 22.9431 17.8428 23.0456 17.4678 23.2505C17.097 23.4511 16.803 23.7302 16.5857 24.0877C16.3726 24.4409 16.2661 24.8442 16.2661 25.2976V31.6546H14.7575ZM25.2725 31.864C24.3264 31.864 23.5104 31.6504 22.8243 31.223C22.1425 30.7914 21.6162 30.1897 21.2455 29.4179C20.879 28.6418 20.6957 27.7393 20.6957 26.7103C20.6957 25.6813 20.879 24.7744 21.2455 23.9895C21.6162 23.2004 22.1318 22.5856 22.7923 22.1453C23.4571 21.7005 24.2327 21.4782 25.119 21.4782C25.6304 21.4782 26.1354 21.5653 26.634 21.7398C27.1325 21.9141 27.5864 22.1976 27.9955 22.5899C28.4046 22.978 28.7305 23.4925 28.9734 24.1335C29.2163 24.7744 29.3378 25.5636 29.3378 26.501V27.155H21.7696V25.8208H27.8037C27.8037 25.254 27.6929 24.7482 27.4713 24.3036C27.254 23.8588 26.9429 23.5078 26.5381 23.2505C26.1375 22.9933 25.6645 22.8647 25.119 22.8647C24.5182 22.8647 23.9983 23.0173 23.5594 23.3224C23.1247 23.6233 22.7902 24.0157 22.5558 24.4997C22.3215 24.9837 22.2043 25.5025 22.2043 26.0562V26.9457C22.2043 27.7044 22.3321 28.3475 22.5878 28.8751C22.8477 29.3983 23.2078 29.7973 23.668 30.0719C24.1283 30.3422 24.6631 30.4774 25.2725 30.4774C25.6688 30.4774 26.0267 30.4207 26.3463 30.3074C26.6702 30.1897 26.9493 30.0152 27.1837 29.7842C27.418 29.5488 27.5992 29.2566 27.727 28.9078L29.1844 29.3263C29.031 29.8322 28.7732 30.2768 28.4109 30.6605C28.0487 31.0399 27.6013 31.3363 27.0686 31.55C26.5359 31.7593 25.9372 31.864 25.2725 31.864ZM34.5217 31.8901C33.8996 31.8901 33.3349 31.7702 32.8278 31.5304C32.3207 31.2862 31.918 30.9353 31.6198 30.4774C31.3215 30.0152 31.1723 29.4572 31.1723 28.8032C31.1723 28.2276 31.2831 27.7611 31.5047 27.4036C31.7263 27.0417 32.0224 26.7582 32.3932 26.5533C32.7639 26.3484 33.173 26.1958 33.6205 26.0955C34.0722 25.9909 34.526 25.908 34.982 25.847C35.5786 25.7685 36.0622 25.7096 36.433 25.6704C36.808 25.6268 37.0807 25.5549 37.2511 25.4546C37.4259 25.3542 37.5132 25.1799 37.5132 24.9314V24.8791C37.5132 24.2338 37.3406 23.7323 36.9955 23.3748C36.6546 23.0173 36.1368 22.8385 35.4422 22.8385C34.722 22.8385 34.1574 22.9998 33.7483 23.3224C33.3392 23.6451 33.0516 23.9895 32.8854 24.3558L31.4536 23.8326C31.7092 23.2222 32.0501 22.7469 32.4763 22.4069C32.9067 22.0624 33.3754 21.8226 33.8825 21.6874C34.3939 21.5479 34.8967 21.4782 35.3911 21.4782C35.7064 21.4782 36.0686 21.5173 36.4777 21.5958C36.8911 21.67 37.2895 21.8248 37.673 22.0602C38.0608 22.2957 38.3825 22.651 38.6382 23.1263C38.8939 23.6016 39.0217 24.2381 39.0217 25.036V31.6546H37.5132V30.2943H37.4365C37.3342 30.5123 37.1638 30.7456 36.9251 30.9941C36.6865 31.2426 36.369 31.4541 35.9727 31.6285C35.5764 31.8029 35.0928 31.8901 34.5217 31.8901ZM34.7519 30.5036C35.3484 30.5036 35.8513 30.3837 36.2604 30.1438C36.6737 29.9041 36.9848 29.5945 37.1936 29.2152C37.4067 28.8358 37.5132 28.4369 37.5132 28.0183V26.6057C37.4493 26.6842 37.3087 26.7561 37.0913 26.8215C36.8783 26.8825 36.6311 26.937 36.3499 26.985C36.0729 27.0286 35.8023 27.0679 35.5381 27.1026C35.2781 27.1332 35.0672 27.1593 34.9053 27.1812C34.5132 27.2335 34.1467 27.3185 33.8058 27.4362C33.4692 27.5496 33.1965 27.7219 32.9876 27.9529C32.7831 28.1796 32.6808 28.4893 32.6808 28.8816C32.6808 29.4179 32.8747 29.8234 33.2625 30.0981C33.6546 30.3684 34.151 30.5036 34.7519 30.5036ZM46.045 21.6089V22.9169H40.9569V21.6089H46.045ZM42.4399 19.2022H43.9484V28.777C43.9484 29.2129 44.0102 29.5401 44.1338 29.758C44.2616 29.9716 44.4236 30.1156 44.6196 30.1897C44.8199 30.2594 45.0308 30.2943 45.2524 30.2943C45.4186 30.2943 45.5549 30.2855 45.6615 30.2681C45.768 30.2464 45.8532 30.2289 45.9172 30.2159L46.224 31.6024C46.1217 31.6416 45.9789 31.6808 45.7957 31.72C45.6125 31.7636 45.3802 31.7855 45.099 31.7855C44.6728 31.7855 44.2552 31.6917 43.8461 31.5042C43.4413 31.3168 43.1047 31.0311 42.8362 30.6474C42.572 30.2637 42.4399 29.7798 42.4399 29.1956V19.2022ZM48.3142 31.6546V21.6089H49.8227V31.6546H48.3142ZM49.0812 19.9347C48.7872 19.9347 48.5336 19.8322 48.3206 19.6272C48.1118 19.4224 48.0074 19.176 48.0074 18.8882C48.0074 18.6005 48.1118 18.3541 48.3206 18.1492C48.5336 17.9443 48.7872 17.8418 49.0812 17.8418C49.3753 17.8418 49.6267 17.9443 49.8355 18.1492C50.0486 18.3541 50.1551 18.6005 50.1551 18.8882C50.1551 19.176 50.0486 19.4224 49.8355 19.6272C49.6267 19.8322 49.3753 19.9347 49.0812 19.9347ZM54.0942 25.6116V31.6546H52.5857V21.6089H54.043V23.1786H54.1709C54.401 22.6684 54.7504 22.2586 55.2192 21.949C55.6879 21.6351 56.293 21.4782 57.0345 21.4782C57.6993 21.4782 58.281 21.6177 58.7796 21.8967C59.2781 22.1714 59.6659 22.5899 59.9429 23.1525C60.2199 23.7105 60.3584 24.4168 60.3584 25.2715V31.6546H58.8499V25.376C58.8499 24.5869 58.6496 23.9721 58.249 23.5318C57.8484 23.087 57.2987 22.8647 56.5999 22.8647C56.1183 22.8647 55.6879 22.9715 55.3087 23.1851C54.9337 23.3988 54.6375 23.7105 54.4202 24.1204C54.2028 24.5302 54.0942 25.0272 54.0942 25.6116ZM67.078 35.6311C66.3493 35.6311 65.7229 35.5351 65.1988 35.3433C64.6746 35.1558 64.2378 34.9073 63.8884 34.5977C63.5432 34.2925 63.2684 33.9655 63.0638 33.6167L64.2655 32.7534C64.4019 32.9366 64.5745 33.1458 64.7833 33.3813C64.9921 33.6211 65.2776 33.8282 65.6398 34.0026C66.0063 34.1814 66.4857 34.2707 67.078 34.2707C67.8706 34.2707 68.5248 34.0746 69.0404 33.6821C69.556 33.2897 69.8138 32.675 69.8138 31.8378V29.7973H69.686C69.5752 29.9803 69.4175 30.2071 69.213 30.4774C69.0127 30.7434 68.7229 30.981 68.3437 31.1903C67.9687 31.3953 67.4615 31.4977 66.8223 31.4977C66.0297 31.4977 65.3181 31.3058 64.6874 30.9222C64.061 30.5385 63.5645 29.9803 63.1981 29.2478C62.8358 28.5153 62.6547 27.6259 62.6547 26.5795C62.6547 25.5505 62.8316 24.6545 63.1853 23.8915C63.539 23.1241 64.0312 22.5311 64.6618 22.1125C65.2925 21.6896 66.0212 21.4782 66.8479 21.4782C67.4871 21.4782 67.9942 21.5871 68.3692 21.8052C68.7485 22.0188 69.0383 22.2629 69.2385 22.5377C69.4431 22.808 69.6008 23.0303 69.7115 23.2048H69.865V21.6089H71.3223V31.9425C71.3223 32.8057 71.1306 33.5077 70.7471 34.0484C70.3678 34.5934 69.8564 34.9923 69.213 35.2452C68.5738 35.5025 67.8621 35.6311 67.078 35.6311ZM67.0269 30.1112C67.632 30.1112 68.1434 29.9695 68.561 29.6861C68.9786 29.4026 69.2961 28.995 69.5134 28.4631C69.7307 27.9311 69.8394 27.2945 69.8394 26.5533C69.8394 25.8295 69.7329 25.1907 69.5198 24.637C69.3067 24.0834 68.9914 23.6494 68.5738 23.3355C68.1562 23.0216 67.6405 22.8647 67.0269 22.8647C66.3877 22.8647 65.855 23.0303 65.4289 23.3617C65.007 23.6931 64.6895 24.1378 64.4765 24.6959C64.2677 25.254 64.1633 25.8731 64.1633 26.5533C64.1633 27.2509 64.2698 27.8679 64.4829 28.4042C64.7002 28.9362 65.0198 29.3547 65.4417 29.6599C65.8678 29.9608 66.3962 30.1112 67.0269 30.1112Z" fill="black"/>
</mask>
<g mask="url(#mask0_86_4628)">
<path d="M10.534 22.4458L9.58341 22.7636L9.80867 23.469H10.534V22.4458ZM9.97785 21.2621L9.14106 21.8223L9.14499 21.8284L9.149 21.8345L9.97785 21.2621ZM9.16606 20.3595L8.55062 21.166L8.55584 21.1701L9.16606 20.3595ZM8.88481 29.8297L9.37322 30.7226L9.37538 30.7213L8.88481 29.8297ZM10.2272 28.4301L9.34973 27.9392L9.34852 27.9415L10.2272 28.4301ZM10.713 26.2914L10.919 25.2902L9.71294 25.0305V26.2914H10.713ZM11.1988 26.3961V27.4193L11.4048 25.3949L11.1988 26.3961ZM7.26123 26.3961H6.26123V27.4193H7.26123V26.3961ZM7.26123 24.9573V23.9341H6.26123V24.9573H7.26123ZM12.2471 24.9573H13.2471V23.9341H12.2471V24.9573ZM11.5567 29.2738L10.6908 28.7621L10.6888 28.7657L11.5567 29.2738ZM9.66464 31.1704L10.1416 32.0698L10.1432 32.0689L9.66464 31.1704ZM3.84788 31.0004L3.31825 31.8682L3.32011 31.8695L3.84788 31.0004ZM1.80243 28.6198L0.90197 29.0648L0.903472 29.068L1.80243 28.6198ZM1.48922 22.0992L0.541993 21.7711L0.54102 21.7741L1.48922 22.0992ZM8.7314 18.3974L8.40104 19.3632L8.40914 19.3661L8.7314 18.3974ZM10.3358 19.2934L9.70678 20.0889L9.71456 20.0953L10.3358 19.2934ZM11.5184 20.6735L10.6615 21.2009L10.6634 21.2041L11.5184 20.6735ZM12.1704 22.4458V23.469H13.3758L13.1532 22.2568L12.1704 22.4458ZM11.4845 22.128C11.318 21.6064 11.0937 21.1246 10.8067 20.6896L9.149 21.8345C9.32226 22.0971 9.46873 22.4045 9.58341 22.7636L11.4845 22.128ZM10.8147 20.7018C10.5298 20.2563 10.1835 19.8699 9.77629 19.5489L8.55584 21.1701C8.77929 21.3462 8.97425 21.5614 9.14106 21.8223L10.8147 20.7018ZM9.7815 19.5531C9.37299 19.2267 8.91369 18.9824 8.41199 18.8167L7.79798 20.7642C8.08889 20.8603 8.33697 20.9954 8.55062 21.166L9.7815 19.5531ZM8.41199 18.8167C7.90404 18.6491 7.3643 18.5712 6.80101 18.5712V20.6175C7.18373 20.6175 7.51331 20.6703 7.79798 20.7642L8.41199 18.8167ZM6.80101 18.5712C5.84317 18.5712 4.95182 18.8273 4.15167 19.3438L5.21881 21.0745C5.68855 20.7712 6.20771 20.6175 6.80101 20.6175V18.5712ZM4.15167 19.3438C3.33483 19.871 2.71282 20.6332 2.26911 21.5773L4.07154 22.4641C4.37783 21.8125 4.76576 21.3669 5.21881 21.0745L4.15167 19.3438ZM2.26911 21.5773C1.81218 22.5496 1.60782 23.6896 1.60782 24.9573H3.60782C3.60782 23.9054 3.77847 23.0878 4.07154 22.4641L2.26911 21.5773ZM1.60782 24.9573C1.60782 26.2263 1.81478 27.3679 2.27743 28.3412L4.076 27.4463C3.78013 26.8239 3.60782 26.0078 3.60782 24.9573H1.60782ZM2.27743 28.3412C2.72773 29.2886 3.36099 30.0504 4.19123 30.5757L5.24317 28.8352C4.77795 28.5409 4.38423 28.0948 4.076 27.4463L2.27743 28.3412ZM4.19123 30.5757C5.00708 31.0918 5.92005 31.3433 6.90328 31.3433V29.297C6.26719 29.297 5.72277 29.1387 5.24317 28.8352L4.19123 30.5757ZM6.90328 31.3433C7.799 31.3433 8.63234 31.1469 9.37322 30.7226L8.39641 28.9368C7.99524 29.1665 7.50756 29.297 6.90328 29.297V31.3433ZM9.37538 30.7213C10.1169 30.2942 10.6977 29.6869 11.1058 28.9186L9.34852 27.9415C9.11736 28.3766 8.80335 28.7024 8.39425 28.9381L9.37538 30.7213ZM11.1046 28.921C11.5227 28.1386 11.713 27.2506 11.713 26.2914H9.71294C9.71294 26.9716 9.57937 27.5095 9.34973 27.9392L11.1046 28.921ZM10.507 27.2927L10.9928 27.3974L11.4048 25.3949L10.919 25.2902L10.507 27.2927ZM11.1988 25.3729H7.26123V27.4193H11.1988V25.3729ZM8.26123 26.3961V24.9573H6.26123V26.3961H8.26123ZM7.26123 25.9805H12.2471V23.9341H7.26123V25.9805ZM11.2471 24.9573V26.3961H13.2471V24.9573H11.2471ZM11.2471 26.3961C11.2471 27.3506 11.0491 28.1272 10.6908 28.7621L12.4227 29.7855C12.9848 28.7897 13.2471 27.6477 13.2471 26.3961H11.2471ZM10.6888 28.7657C10.3247 29.4167 9.82872 29.9137 9.18612 30.272L10.1432 32.0689C11.1114 31.5289 11.8768 30.7616 12.4247 29.7819L10.6888 28.7657ZM9.18776 30.2711C8.55254 30.6237 7.8002 30.8144 6.90328 30.8144V32.8607C8.0859 32.8607 9.17448 32.6066 10.1416 32.0698L9.18776 30.2711ZM6.90328 30.8144C5.90741 30.8144 5.07636 30.5768 4.37565 30.1313L3.32011 31.8695C4.37508 32.5401 5.58097 32.8607 6.90328 32.8607V30.8144ZM4.37751 30.1325C3.67676 29.6848 3.11661 29.0435 2.70138 28.1716L0.903472 29.068C1.46836 30.2541 2.27184 31.1998 3.31825 31.8682L4.37751 30.1325ZM2.70288 28.1747C2.29622 27.3134 2.07373 26.2514 2.07373 24.9573H0.0737305C0.0737305 26.4885 0.337035 27.8681 0.90197 29.0648L2.70288 28.1747ZM2.07373 24.9573C2.07373 23.988 2.20048 23.1478 2.43741 22.4242L0.54102 21.7741C0.223974 22.7423 0.0737305 23.8075 0.0737305 24.9573H2.07373ZM2.43643 22.4272C2.68102 21.6879 3.01618 21.0858 3.43037 20.6021L1.9259 19.2537C1.31737 19.9645 0.859904 20.8102 0.541993 21.7711L2.43643 22.4272ZM3.43037 20.6021C3.84777 20.1144 4.33551 19.7464 4.90013 19.4892L4.08682 17.6197C3.25371 17.9991 2.53123 18.5466 1.9259 19.2537L3.43037 20.6021ZM4.90013 19.4892C5.45899 19.2347 6.08786 19.1001 6.80101 19.1001V17.0538C5.83517 17.0538 4.92569 17.2377 4.08682 17.6197L4.90013 19.4892ZM6.80101 19.1001C7.38921 19.1001 7.91998 19.1909 8.40104 19.3632L9.06175 17.4318C8.34964 17.1767 7.59349 17.0538 6.80101 17.0538V19.1001ZM8.40914 19.3661C8.90451 19.5386 9.33426 19.7806 9.70678 20.0889L10.9648 18.498C10.3999 18.0303 9.76 17.6749 9.05367 17.4289L8.40914 19.3661ZM9.71456 20.0953C10.0923 20.4016 10.4071 20.7683 10.6615 21.2009L12.3752 20.1459C11.9989 19.5059 11.5254 18.9527 10.9571 18.4917L9.71456 20.0953ZM10.6634 21.2041C10.9126 21.6245 11.089 22.0983 11.1876 22.6348L13.1532 22.2568C13.013 21.494 12.7548 20.7863 12.3734 20.1429L10.6634 21.2041ZM12.1704 21.4226H10.534V23.469H12.1704V21.4226ZM14.7575 31.6544H13.7575V32.6776H14.7575V31.6544ZM14.7575 21.6087V20.5855H13.7575V21.6087H14.7575ZM16.2149 21.6087H17.2149V20.5855H16.2149V21.6087ZM16.2149 23.126H15.2149V24.1492H16.2149V23.126ZM16.3172 23.126V24.1492H17.0145L17.2555 23.4797L16.3172 23.126ZM19.6666 21.4779H20.6666V20.5519L19.7661 20.4598L19.6666 21.4779ZM19.6666 23.0475L19.4241 24.0401L20.6666 24.358V23.0475H19.6666ZM19.3151 22.9887L19.1507 23.9979L19.1637 24.0001L19.1769 24.0021L19.3151 22.9887ZM17.4678 23.2502L17.9352 24.1548L17.9389 24.1528L17.4678 23.2502ZM16.5857 24.0874L15.7365 23.5471L15.7347 23.5499L16.5857 24.0874ZM16.2661 31.6544V32.6776H17.2661V31.6544H16.2661ZM15.7575 31.6544V21.6087H13.7575V31.6544H15.7575ZM14.7575 22.6318H16.2149V20.5855H14.7575V22.6318ZM15.2149 21.6087V23.126H17.2149V21.6087H15.2149ZM16.2149 24.1492H16.3172V22.1029H16.2149V24.1492ZM17.2555 23.4797C17.3536 23.2073 17.5294 22.9749 17.8311 22.7757L16.7465 21.0564C16.1106 21.4764 15.6387 22.0506 15.3789 22.7723L17.2555 23.4797ZM17.8311 22.7757C18.1293 22.5788 18.4674 22.4749 18.874 22.4749V20.4285C18.1045 20.4285 17.3858 20.6342 16.7465 21.0564L17.8311 22.7757ZM18.874 22.4749C18.9732 22.4749 19.1024 22.4768 19.2639 22.4811L19.3151 20.4354C19.1442 20.431 18.9964 20.4285 18.874 20.4285V22.4749ZM19.2639 22.4811C19.4237 22.4853 19.5197 22.4911 19.5671 22.496L19.7661 20.4598C19.6431 20.4473 19.4877 20.44 19.3151 20.4354L19.2639 22.4811ZM18.6666 21.4779V23.0475H20.6666V21.4779H18.6666ZM19.9092 22.0549C19.7959 22.0259 19.6216 21.9993 19.4533 21.9753L19.1769 24.0021C19.2645 24.0145 19.3311 24.0248 19.3789 24.0328C19.4028 24.0368 19.4191 24.0397 19.4293 24.0417C19.4416 24.0441 19.4376 24.0436 19.4241 24.0401L19.9092 22.0549ZM19.4795 21.9795C19.2409 21.9387 18.9959 21.9197 18.7462 21.9197V23.9661C18.897 23.9661 19.0313 23.9775 19.1507 23.9979L19.4795 21.9795ZM18.7462 21.9197C18.125 21.9197 17.5336 22.0544 16.9967 22.3478L17.9389 24.1528C18.1519 24.0363 18.4128 23.9661 18.7462 23.9661V21.9197ZM17.0003 22.3458C16.4762 22.6293 16.0492 23.0326 15.7365 23.5471L17.4348 24.6278C17.5568 24.4271 17.7178 24.2724 17.9352 24.1548L17.0003 22.3458ZM15.7347 23.5499C15.4153 24.0795 15.2661 24.6722 15.2661 25.2973H17.2661C17.2661 25.0155 17.3299 24.8017 17.4366 24.6249L15.7347 23.5499ZM15.2661 25.2973V31.6544H17.2661V25.2973H15.2661ZM16.2661 30.6312H14.7575V32.6776H16.2661V30.6312ZM22.8243 31.2227L22.2981 32.0928L22.3043 32.0967L22.8243 31.2227ZM21.2455 29.4176L20.345 29.8628L20.348 29.8691L21.2455 29.4176ZM21.2455 23.9893L20.3442 23.546L20.3432 23.5482L21.2455 23.9893ZM22.7923 22.145L23.3383 23.0022L23.3396 23.0013L22.7923 22.145ZM27.9955 22.5897L27.3115 23.3362L27.3156 23.3401L27.9955 22.5897ZM29.3378 27.1548V28.1779H30.3378V27.1548H29.3378ZM21.7696 27.1548H20.7696V28.1779H21.7696V27.1548ZM21.7696 25.8206V24.7974H20.7696V25.8206H21.7696ZM27.8037 25.8206V26.8437H28.8037V25.8206H27.8037ZM27.4713 24.3033L26.5769 24.7609L26.5804 24.7679L27.4713 24.3033ZM26.5381 23.2502L26.0065 24.1169L26.0105 24.1194L26.5381 23.2502ZM23.5594 23.3222L24.1197 24.1697L24.1215 24.1684L23.5594 23.3222ZM22.5878 28.8748L21.6918 29.3294L21.6964 29.3384L22.5878 28.8748ZM23.668 30.0716L23.1642 30.9555L23.1702 30.959L23.668 30.0716ZM26.3463 30.3072L26.6739 31.2739L26.6811 31.2713L26.3463 30.3072ZM27.1837 29.7839L27.8776 30.5207L27.8843 30.5141L27.1837 29.7839ZM27.727 28.9076L27.9973 27.9225L27.1131 27.6685L26.7907 28.5482L27.727 28.9076ZM29.1844 29.3261L30.1394 29.6293L30.444 28.6252L29.4546 28.341L29.1844 29.3261ZM28.4109 30.6603L29.1262 31.3754L29.1302 31.3712L28.4109 30.6603ZM27.0686 31.5497L27.4271 32.505L27.4336 32.5024L27.0686 31.5497ZM25.2725 30.8406C24.4768 30.8406 23.8477 30.6623 23.3442 30.3487L22.3043 32.0967C23.1731 32.6378 24.176 32.8869 25.2725 32.8869V30.8406ZM23.3505 30.3527C22.8363 30.0271 22.435 29.5743 22.1429 28.9663L20.348 29.8691C20.7974 30.8045 21.4487 31.555 22.2981 32.0928L23.3505 30.3527ZM22.1459 28.9725C21.8564 28.3596 21.6957 27.6144 21.6957 26.71H19.6957C19.6957 27.8636 19.9015 28.9235 20.345 29.8628L22.1459 28.9725ZM21.6957 26.71C21.6957 25.806 21.8563 25.0545 22.1478 24.4304L20.3432 23.5482C19.9016 24.4937 19.6957 25.5561 19.6957 26.71H21.6957ZM22.1468 24.4326C22.4453 23.7971 22.844 23.3318 23.3383 23.0022L22.2464 21.2878C21.4196 21.839 20.7871 22.6032 20.3442 23.546L22.1468 24.4326ZM23.3396 23.0013C23.8232 22.6779 24.4037 22.5011 25.119 22.5011V20.4547C24.0616 20.4547 23.091 20.7227 22.2451 21.2886L23.3396 23.0013ZM25.119 22.5011C25.517 22.5011 25.9128 22.5686 26.3105 22.7076L26.9575 20.7713C26.3579 20.5616 25.7438 20.4547 25.119 20.4547V22.5011ZM26.3105 22.7076C26.6664 22.8322 26.9991 23.0365 27.3115 23.3362L28.6794 21.8433C28.1736 21.3582 27.5987 20.9957 26.9575 20.7713L26.3105 22.7076ZM27.3156 23.3401C27.5929 23.6031 27.842 23.9777 28.0411 24.5031L29.9058 23.7633C29.6191 23.0068 29.2162 22.3524 28.6753 21.8394L27.3156 23.3401ZM28.0411 24.5031C28.2263 24.9917 28.3378 25.6468 28.3378 26.5008H30.3378C30.3378 25.4798 30.2064 24.5565 29.9058 23.7633L28.0411 24.5031ZM28.3378 26.5008V27.1548H30.3378V26.5008H28.3378ZM29.3378 26.1316H21.7696V28.1779H29.3378V26.1316ZM22.7696 27.1548V25.8206H20.7696V27.1548H22.7696ZM21.7696 26.8437H27.8037V24.7974H21.7696V26.8437ZM28.8037 25.8206C28.8037 25.1143 28.6647 24.4456 28.3622 23.8386L26.5804 24.7679C26.7211 25.0503 26.8037 25.3933 26.8037 25.8206H28.8037ZM28.3657 23.8456C28.0674 23.2352 27.6309 22.7403 27.0657 22.3811L26.0105 24.1194C26.2549 24.2748 26.4406 24.4818 26.5769 24.7609L28.3657 23.8456ZM27.0697 22.3836C26.4866 22.0092 25.8231 21.8412 25.119 21.8412V23.8876C25.5059 23.8876 25.7884 23.9769 26.0065 24.1169L27.0697 22.3836ZM25.119 21.8412C24.3452 21.8412 23.6233 22.0406 22.9973 22.476L24.1215 24.1684C24.3733 23.9934 24.6912 23.8876 25.119 23.8876V21.8412ZM22.9991 22.4748C22.4203 22.8753 21.9705 23.4036 21.6598 24.0451L23.4519 24.9537C23.6099 24.6273 23.8292 24.3707 24.1197 24.1697L22.9991 22.4748ZM21.6598 24.0451C21.3553 24.674 21.2043 25.3488 21.2043 26.056H23.2043C23.2043 25.6557 23.2876 25.2928 23.4519 24.9537L21.6598 24.0451ZM21.2043 26.056V26.9454H23.2043V26.056H21.2043ZM21.2043 26.9454C21.2043 27.8179 21.3508 28.6259 21.6918 29.3294L23.4837 28.4202C23.3133 28.0687 23.2043 27.5903 23.2043 26.9454H21.2043ZM21.6964 29.3384C22.0364 30.0229 22.5252 30.5741 23.1642 30.9555L24.1719 29.1879C23.8904 29.0199 23.6591 28.7731 23.4792 28.4111L21.6964 29.3384ZM23.1702 30.959C23.8032 31.3309 24.5146 31.5003 25.2725 31.5003V29.4539C24.8115 29.4539 24.4534 29.3532 24.1659 29.1843L23.1702 30.959ZM25.2725 31.5003C25.7615 31.5003 26.2326 31.4304 26.6739 31.2739L26.0188 29.3404C25.8208 29.4106 25.576 29.4539 25.2725 29.4539V31.5003ZM26.6811 31.2713C27.1314 31.1076 27.535 30.8585 27.8776 30.5207L26.4898 29.0471C26.3636 29.1716 26.2089 29.2712 26.0115 29.3429L26.6811 31.2713ZM27.8843 30.5141C28.2335 30.1631 28.4899 29.74 28.6633 29.2668L26.7907 28.5482C26.7084 28.7726 26.6026 28.9338 26.4831 29.0538L27.8843 30.5141ZM27.4567 29.8926L28.9141 30.3112L29.4546 28.341L27.9973 27.9225L27.4567 29.8926ZM28.2293 29.0228C28.1226 29.3745 27.9461 29.68 27.6917 29.9495L29.1302 31.3712C29.6003 30.8732 29.9393 30.2892 30.1394 29.6293L28.2293 29.0228ZM27.6957 29.9453C27.4423 30.2106 27.1182 30.4309 26.7037 30.5971L27.4336 32.5024C28.0843 32.2414 28.6551 31.8686 29.1262 31.3754L27.6957 29.9453ZM26.7101 30.5946C26.3091 30.7522 25.8346 30.8406 25.2725 30.8406V32.8869C26.0399 32.8869 26.7628 32.766 27.4271 32.505L26.7101 30.5946ZM32.8278 31.5302L32.402 32.4559L32.4083 32.4589L32.8278 31.5302ZM31.6198 30.4771L30.7853 31.041L30.7877 31.0447L31.6198 30.4771ZM31.5047 27.4033L32.3492 27.9512L32.3521 27.9465L31.5047 27.4033ZM33.6205 26.0953L33.8344 27.0947L33.8413 27.0932L33.6205 26.0953ZM34.982 25.8467L34.8544 24.8319L34.8522 24.8322L34.982 25.8467ZM36.433 25.6701L36.5359 26.6879L36.5459 26.6868L36.433 25.6701ZM37.2511 25.4544L36.7619 24.5619L36.7527 24.5673L37.2511 25.4544ZM36.9955 23.3746L36.2797 24.089L36.284 24.0935L36.9955 23.3746ZM32.8854 24.3556L32.549 25.3191L33.4082 25.6331L33.7924 24.7864L32.8854 24.3556ZM31.4536 23.8323L30.5344 23.4293L30.1153 24.4299L31.1172 24.7959L31.4536 23.8323ZM32.4763 22.4066L33.0913 23.2134L33.0924 23.2125L32.4763 22.4066ZM33.8825 21.6871L34.1346 22.6774L34.1402 22.6758L33.8825 21.6871ZM36.4777 21.5956L36.2934 22.6013L36.3051 22.6034L36.4777 21.5956ZM37.673 22.06L37.1585 22.9374L37.1627 22.9399L37.673 22.06ZM39.0217 31.6544V32.6776H40.0217V31.6544H39.0217ZM37.5132 31.6544H36.5132V32.6776H37.5132V31.6544ZM37.5132 30.2941H38.5132V29.2709H37.5132V30.2941ZM37.4365 30.2941V29.2709H36.8073L36.535 29.8512L37.4365 30.2941ZM36.2604 30.1436L35.7671 29.2535L35.7633 29.2559L36.2604 30.1436ZM37.1936 29.2149L36.3266 28.7051L36.3223 28.7128L37.1936 29.2149ZM37.5132 26.6054H38.5132V23.7793L36.745 25.9504L37.5132 26.6054ZM37.0913 26.8212L37.361 27.8065L37.3735 27.8029L37.0913 26.8212ZM36.3499 26.9847L36.5019 27.996L36.5143 27.994L36.3499 26.9847ZM35.5381 27.1024L35.6521 28.119L35.666 28.1172L35.5381 27.1024ZM34.9053 27.181L35.0346 28.1955L35.0357 28.1953L34.9053 27.181ZM33.8058 27.4359L34.1185 28.4079L34.1256 28.4054L33.8058 27.4359ZM33.2625 30.0978L32.6933 30.9392L32.7037 30.9464L33.2625 30.0978ZM34.5217 30.8666C34.0279 30.8666 33.6087 30.7722 33.2474 30.6013L32.4083 32.4589C33.0612 32.7676 33.7713 32.913 34.5217 32.913V30.8666ZM33.2536 30.6043C32.904 30.436 32.6447 30.2057 32.4518 29.9096L30.7877 31.0447C31.1914 31.6643 31.7375 32.1359 32.402 32.4559L33.2536 30.6043ZM32.4542 29.9134C32.2822 29.6468 32.1723 29.2934 32.1723 28.8029H30.1723C30.1723 29.6204 30.3607 30.3832 30.7853 31.041L32.4542 29.9134ZM32.1723 28.8029C32.1723 28.3538 32.2595 28.0959 32.3492 27.9512L30.6602 26.8553C30.3067 27.4257 30.1723 28.1009 30.1723 28.8029H32.1723ZM32.3521 27.9465C32.481 27.736 32.6483 27.575 32.8685 27.4532L31.9179 25.6529C31.3966 25.941 30.9716 26.3468 30.6573 26.8601L32.3521 27.9465ZM32.8685 27.4532C33.1503 27.2975 33.4703 27.1764 33.8344 27.0947L33.4065 25.0957C32.8757 25.2147 32.3776 25.3988 31.9179 25.6529L32.8685 27.4532ZM33.8413 27.0932C34.2631 26.9955 34.6866 26.9182 35.1117 26.8612L34.8522 24.8322C34.3655 24.8973 33.8812 24.9857 33.3996 25.0974L33.8413 27.0932ZM35.1095 26.8615C35.7022 26.7836 36.1767 26.7259 36.5359 26.6879L36.3301 24.6524C35.9477 24.6929 35.4549 24.7529 34.8544 24.8319L35.1095 26.8615ZM36.5459 26.6868C36.9547 26.6392 37.3959 26.5495 37.7496 26.3413L36.7527 24.5673C36.7711 24.5565 36.7525 24.5707 36.6691 24.5927C36.5898 24.6136 36.4759 24.6354 36.3201 24.6535L36.5459 26.6868ZM37.7404 26.3467C38.3026 26.024 38.5132 25.4566 38.5132 24.9311H36.5132C36.5132 24.9355 36.5123 24.8724 36.5578 24.7816C36.6081 24.6812 36.686 24.6055 36.7619 24.5619L37.7404 26.3467ZM38.5132 24.9311V24.8788H36.5132V24.9311H38.5132ZM38.5132 24.8788C38.5132 24.0442 38.2854 23.2547 37.7069 22.6555L36.284 24.0935C36.3959 24.2095 36.5132 24.4228 36.5132 24.8788H38.5132ZM37.7112 22.6601C37.1145 22.0342 36.2909 21.815 35.4422 21.815V23.8614C35.9827 23.8614 36.1946 23.9998 36.2797 24.089L37.7112 22.6601ZM35.4422 21.815C34.5865 21.815 33.7792 22.006 33.1378 22.5118L34.3588 24.1326C34.5356 23.9932 34.8575 23.8614 35.4422 23.8614V21.815ZM33.1378 22.5118C32.6394 22.9049 32.2298 23.3706 31.9784 23.9247L33.7924 24.7864C33.8733 24.608 34.039 24.3848 34.3588 24.1326L33.1378 22.5118ZM33.2217 23.3919L31.7899 22.8688L31.1172 24.7959L32.549 25.3191L33.2217 23.3919ZM32.3727 24.2354C32.5752 23.7519 32.8225 23.4279 33.0913 23.2134L31.8613 21.5999C31.2778 22.0655 30.8432 22.692 30.5344 23.4293L32.3727 24.2354ZM33.0924 23.2125C33.4197 22.9505 33.7656 22.7758 34.1346 22.6774L33.6304 20.697C32.9853 20.869 32.3936 21.1737 31.8602 21.6007L33.0924 23.2125ZM34.1402 22.6758C34.5734 22.5575 34.9896 22.5011 35.3911 22.5011V20.4547C34.8038 20.4547 34.2144 20.5377 33.6249 20.6985L34.1402 22.6758ZM35.3911 22.5011C35.6286 22.5011 35.9271 22.531 36.2934 22.6013L36.662 20.59C36.2102 20.5033 35.7842 20.4547 35.3911 20.4547V22.5011ZM36.3051 22.6034C36.5899 22.6544 36.8732 22.7622 37.1585 22.9374L38.1875 21.1826C37.7058 20.8869 37.1923 20.6849 36.6503 20.5878L36.3051 22.6034ZM37.1627 22.9399C37.372 23.0669 37.5773 23.2757 37.7622 23.6194L39.5143 22.6326C39.1878 22.0258 38.7497 21.5239 38.1833 21.18L37.1627 22.9399ZM37.7622 23.6194C37.9072 23.8889 38.0217 24.3349 38.0217 25.0358H40.0217C40.0217 24.1408 39.8806 23.3136 39.5143 22.6326L37.7622 23.6194ZM38.0217 25.0358V31.6544H40.0217V25.0358H38.0217ZM39.0217 30.6312H37.5132V32.6776H39.0217V30.6312ZM38.5132 31.6544V30.2941H36.5132V31.6544H38.5132ZM37.5132 29.2709H37.4365V31.3173H37.5132V29.2709ZM36.535 29.8512C36.4962 29.9339 36.4044 30.0762 36.2118 30.2768L37.6385 31.7109C37.9232 31.4144 38.1723 31.0902 38.338 30.7368L36.535 29.8512ZM36.2118 30.2768C36.0848 30.409 35.8853 30.5529 35.5776 30.6883L36.3678 32.5682C36.8528 32.3547 37.2882 32.0757 37.6385 31.7109L36.2118 30.2768ZM35.5776 30.6883C35.3395 30.7931 34.9986 30.8666 34.5217 30.8666V32.913C35.1869 32.913 35.8134 32.8122 36.3678 32.5682L35.5776 30.6883ZM34.7519 31.5265C35.4773 31.5265 36.1619 31.3805 36.7575 31.0314L35.7633 29.2559C35.5406 29.3863 35.2196 29.4801 34.7519 29.4801V31.5265ZM36.7536 31.0336C37.3062 30.7131 37.7568 30.2768 38.0649 29.717L36.3223 28.7128C36.2128 28.9117 36.0413 29.0944 35.7671 29.2535L36.7536 31.0336ZM38.0606 29.7248C38.3567 29.1976 38.5132 28.6237 38.5132 28.018H36.5132C36.5132 28.2495 36.4566 28.4735 36.3266 28.7051L38.0606 29.7248ZM38.5132 28.018V26.6054H36.5132V28.018H38.5132ZM36.745 25.9504C36.795 25.889 36.8413 25.8514 36.8673 25.8322C36.894 25.8126 36.9113 25.8037 36.9126 25.8031C36.9145 25.802 36.9075 25.8057 36.8888 25.8129C36.8705 25.8199 36.8444 25.829 36.8092 25.8396L37.3735 27.8029C37.5165 27.7598 37.6662 27.7053 37.807 27.6333C37.9376 27.5666 38.125 27.4524 38.2814 27.2604L36.745 25.9504ZM36.8217 25.8359C36.6515 25.8847 36.4408 25.9319 36.1855 25.9755L36.5143 27.994C36.8215 27.9416 37.1051 27.8798 37.361 27.8065L36.8217 25.8359ZM36.1978 25.9734C35.9284 26.0159 35.6659 26.0539 35.4101 26.0877L35.666 28.1172C35.9387 28.0812 36.2173 28.0407 36.5019 27.996L36.1978 25.9734ZM35.4241 26.086C35.1615 26.1168 34.9445 26.1437 34.7748 26.1665L35.0357 28.1953C35.1899 28.1746 35.3948 28.1493 35.6521 28.119L35.4241 26.086ZM34.7759 26.1664C34.3254 26.2264 33.8946 26.3255 33.4861 26.4666L34.1256 28.4054C34.3989 28.3111 34.701 28.2401 35.0346 28.1955L34.7759 26.1664ZM33.4932 26.4641C33.0201 26.6234 32.594 26.8812 32.2534 27.2581L33.7219 28.6473C33.799 28.5619 33.9184 28.4753 34.1185 28.4079L33.4932 26.4641ZM32.2534 27.2581C31.8357 27.7212 31.6808 28.3043 31.6808 28.8814H33.6808C33.6808 28.7749 33.6948 28.713 33.7049 28.6826C33.7138 28.6556 33.7203 28.6489 33.7219 28.6473L32.2534 27.2581ZM31.6808 28.8814C31.6808 29.7097 32.0024 30.4498 32.6933 30.9392L33.8317 29.2566C33.747 29.1966 33.6808 29.1255 33.6808 28.8814H31.6808ZM32.7037 30.9464C33.3004 31.3578 34.0057 31.5265 34.7519 31.5265V29.4801C34.2963 29.4801 34.0087 29.3785 33.8214 29.2493L32.7037 30.9464ZM46.045 21.6087H47.045V20.5855H46.045V21.6087ZM46.045 22.9167V23.9399H47.045V22.9167H46.045ZM40.9569 22.9167H39.9569V23.9399H40.9569V22.9167ZM40.9569 21.6087V20.5855H39.9569V21.6087H40.9569ZM42.4399 19.2019V18.1788H41.4399V19.2019H42.4399ZM43.9484 19.2019H44.9484V18.1788H43.9484V19.2019ZM44.1338 29.7577L43.2687 30.2711L43.2747 30.2816L43.2809 30.292L44.1338 29.7577ZM44.6196 30.1894L44.2729 31.1491L44.2851 31.1537L44.2973 31.1579L44.6196 30.1894ZM45.6615 30.2679L45.8195 31.2782L45.8386 31.2751L45.8576 31.2712L45.6615 30.2679ZM45.9172 30.2156L46.8925 29.9896L46.6772 29.0166L45.721 29.2123L45.9172 30.2156ZM46.224 31.6021L46.5751 32.5601L47.3919 32.2467L47.1993 31.3761L46.224 31.6021ZM45.7957 31.7198L45.5908 30.7183L45.58 30.7206L45.5692 30.7232L45.7957 31.7198ZM43.8461 31.504L43.4338 32.4361L43.4374 32.4377L43.8461 31.504ZM42.8362 30.6472L42.0187 31.2365L42.0231 31.2428L42.8362 30.6472ZM45.045 21.6087V22.9167H47.045V21.6087H45.045ZM46.045 21.8935H40.9569V23.9399H46.045V21.8935ZM41.9569 22.9167V21.6087H39.9569V22.9167H41.9569ZM40.9569 22.6318H46.045V20.5855H40.9569V22.6318ZM42.4399 20.2251H43.9484V18.1788H42.4399V20.2251ZM42.9484 19.2019V28.7767H44.9484V19.2019H42.9484ZM42.9484 28.7767C42.9484 29.2782 43.0137 29.8212 43.2687 30.2711L44.9988 29.2444C45.0079 29.2604 44.9927 29.2399 44.9766 29.1548C44.9608 29.0714 44.9484 28.9483 44.9484 28.7767H42.9484ZM43.2809 30.292C43.5051 30.6665 43.8315 30.9822 44.2729 31.1491L44.9662 29.2297C44.9743 29.2327 44.9826 29.2367 44.9904 29.2415C44.9983 29.2462 45.0037 29.2506 45.0068 29.2534C45.0131 29.259 45.0046 29.2534 44.9866 29.2235L43.2809 30.292ZM44.2973 31.1579C44.6062 31.2656 44.9264 31.3173 45.2524 31.3173V29.2709C45.1352 29.2709 45.0335 29.2528 44.9418 29.2208L44.2973 31.1579ZM45.2524 31.3173C45.4465 31.3173 45.6407 31.3074 45.8195 31.2782L45.5035 29.2576C45.4692 29.2631 45.3907 29.2709 45.2524 29.2709V31.3173ZM45.8576 31.2712C45.9641 31.2494 46.0494 31.2319 46.1133 31.2188L45.721 29.2123C45.6571 29.2254 45.5719 29.2428 45.4654 29.2646L45.8576 31.2712ZM44.9418 30.4415L45.2487 31.828L47.1993 31.3761L46.8925 29.9896L44.9418 30.4415ZM45.8729 30.644C45.84 30.6567 45.7541 30.6834 45.5908 30.7183L46.0006 32.7213C46.2038 32.6778 46.4034 32.626 46.5751 32.5601L45.8729 30.644ZM45.5692 30.7232C45.487 30.7427 45.3376 30.7621 45.099 30.7621V32.8084C45.4229 32.8084 45.7379 32.7841 46.0222 32.7163L45.5692 30.7232ZM45.099 30.7621C44.821 30.7621 44.5422 30.7019 44.2549 30.5702L43.4374 32.4377C43.9682 32.681 44.5247 32.8084 45.099 32.8084V30.7621ZM44.2585 30.5719C44.0201 30.4614 43.8195 30.2948 43.6493 30.0516L42.0231 31.2428C42.3899 31.767 42.8626 32.1716 43.4338 32.4361L44.2585 30.5719ZM43.6537 30.0579C43.5345 29.8849 43.4399 29.6207 43.4399 29.1953H41.4399C41.4399 29.9384 41.6094 30.6422 42.0187 31.2365L43.6537 30.0579ZM43.4399 29.1953V19.2019H41.4399V29.1953H43.4399ZM48.3142 31.6544H47.3142V32.6776H48.3142V31.6544ZM48.3142 21.6087V20.5855H47.3142V21.6087H48.3142ZM49.8227 21.6087H50.8227V20.5855H49.8227V21.6087ZM49.8227 31.6544V32.6776H50.8227V31.6544H49.8227ZM48.3206 19.627L47.6283 20.3655L47.6357 20.3726L48.3206 19.627ZM48.3206 18.1489L47.6356 17.4034L47.6283 17.4106L48.3206 18.1489ZM49.8355 18.1489L49.1432 18.8874L49.1506 18.8945L49.8355 18.1489ZM49.8355 19.627L49.1505 18.8815L49.1433 18.8886L49.8355 19.627ZM49.3142 31.6544V21.6087H47.3142V31.6544H49.3142ZM48.3142 22.6318H49.8227V20.5855H48.3142V22.6318ZM48.8227 21.6087V31.6544H50.8227V21.6087H48.8227ZM49.8227 30.6312H48.3142V32.6776H49.8227V30.6312ZM49.0812 18.9113C49.05 18.9113 49.0388 18.9062 49.0379 18.9059C49.0371 18.9056 49.0266 18.9018 49.0055 18.8815L47.6357 20.3726C48.0353 20.7569 48.5342 20.9576 49.0812 20.9576V18.9113ZM49.0128 18.8886C49.0029 18.8789 48.9991 18.8735 48.9989 18.8731C48.9987 18.8729 49.0007 18.8759 49.0031 18.8815C49.0055 18.8872 49.0069 18.8922 49.0075 18.8954C49.0081 18.8983 49.0074 18.8963 49.0074 18.8879H47.0074C47.0074 19.4634 47.2293 19.9739 47.6283 20.3655L49.0128 18.8886ZM49.0074 18.8879C49.0074 18.8796 49.0081 18.8777 49.0075 18.8806C49.0069 18.8836 49.0055 18.8888 49.0031 18.8945C49.0007 18.9001 48.9987 18.903 48.9989 18.9028C48.9991 18.9025 49.0029 18.897 49.0128 18.8873L47.6283 17.4106C47.2293 17.8021 47.0074 18.3126 47.0074 18.8879H49.0074ZM49.0055 18.8945C49.0266 18.8741 49.0371 18.8703 49.0379 18.87C49.0388 18.8696 49.05 18.8647 49.0812 18.8647V16.8184C48.5342 16.8184 48.0352 17.019 47.6356 17.4034L49.0055 18.8945ZM49.0812 18.8647C49.0978 18.8647 49.108 18.8661 49.1132 18.8671C49.1182 18.8681 49.1201 18.8689 49.1203 18.8689C49.1204 18.869 49.1215 18.8694 49.1243 18.8713C49.1271 18.8731 49.1334 18.8779 49.1432 18.8874L50.5277 17.4106C50.1294 17.0196 49.6286 16.8184 49.0812 16.8184V18.8647ZM49.1506 18.8945C49.1612 18.9046 49.1653 18.9103 49.1656 18.9108C49.1657 18.911 49.1635 18.9078 49.1607 18.9014C49.1579 18.895 49.1562 18.8889 49.1553 18.8846C49.1545 18.8803 49.1551 18.881 49.1551 18.8879H51.1551C51.1551 18.3054 50.9255 17.793 50.5204 17.4034L49.1506 18.8945ZM49.1551 18.8879C49.1551 18.895 49.1545 18.8956 49.1553 18.8914C49.1562 18.887 49.1579 18.881 49.1607 18.8745C49.1635 18.8682 49.1657 18.8649 49.1656 18.8652C49.1653 18.8656 49.1611 18.8713 49.1505 18.8815L50.5204 20.3726C50.9255 19.9828 51.1551 19.4705 51.1551 18.8879H49.1551ZM49.1433 18.8886C49.1335 18.8982 49.1271 18.9028 49.1243 18.9047C49.1215 18.9066 49.1204 18.907 49.1203 18.907C49.1201 18.9071 49.1182 18.9079 49.1132 18.9088C49.108 18.9098 49.0978 18.9113 49.0812 18.9113V20.9576C49.6286 20.9576 50.1294 20.7564 50.5277 20.3654L49.1433 18.8886ZM54.0942 31.6544V32.6776H55.0942V31.6544H54.0942ZM52.5857 31.6544H51.5857V32.6776H52.5857V31.6544ZM52.5857 21.6087V20.5855H51.5857V21.6087H52.5857ZM54.043 21.6087H55.043V20.5855H54.043V21.6087ZM54.043 23.1783H53.043V24.2015H54.043V23.1783ZM54.1709 23.1783V24.2015H54.8107L55.0788 23.6071L54.1709 23.1783ZM55.2192 21.9488L55.7615 22.8084L55.7668 22.8049L55.2192 21.9488ZM58.7796 21.8965L58.2996 22.7941L58.3055 22.7974L58.7796 21.8965ZM59.9429 23.1522L59.0499 23.6125L59.0513 23.6154L59.9429 23.1522ZM60.3584 31.6544V32.6776H61.3584V31.6544H60.3584ZM58.8499 31.6544H57.8499V32.6776H58.8499V31.6544ZM58.249 23.5315L57.5136 24.2249L57.517 24.2286L58.249 23.5315ZM55.3087 23.1849L54.8264 22.2886L54.8222 22.2909L55.3087 23.1849ZM53.0942 25.6113V31.6544H55.0942V25.6113H53.0942ZM54.0942 30.6312H52.5857V32.6776H54.0942V30.6312ZM53.5857 31.6544V21.6087H51.5857V31.6544H53.5857ZM52.5857 22.6318H54.043V20.5855H52.5857V22.6318ZM53.043 21.6087V23.1783H55.043V21.6087H53.043ZM54.043 24.2015H54.1709V22.1551H54.043V24.2015ZM55.0788 23.6071C55.2281 23.2761 55.4494 23.0145 55.7615 22.8084L54.6769 21.0891C54.0515 21.5021 53.5739 22.0603 53.2629 22.7496L55.0788 23.6071ZM55.7668 22.8049C56.0279 22.6301 56.4259 22.5011 57.0345 22.5011V20.4547C56.1602 20.4547 55.348 20.6396 54.6715 21.0927L55.7668 22.8049ZM57.0345 22.5011C57.5602 22.5011 57.9713 22.6104 58.2996 22.7941L59.2595 20.9988C58.5905 20.6244 57.8384 20.4547 57.0345 20.4547V22.5011ZM58.3055 22.7974C58.6077 22.9639 58.8567 23.2203 59.0499 23.6125L60.8359 22.6918C60.4752 21.9592 59.9485 21.3784 59.2537 20.9956L58.3055 22.7974ZM59.0513 23.6154C59.2359 23.9873 59.3584 24.5217 59.3584 25.2712H61.3584C61.3584 24.3115 61.2039 23.4332 60.8345 22.6889L59.0513 23.6154ZM59.3584 25.2712V31.6544H61.3584V25.2712H59.3584ZM60.3584 30.6312H58.8499V32.6776H60.3584V30.6312ZM59.8499 31.6544V25.3758H57.8499V31.6544H59.8499ZM59.8499 25.3758C59.8499 24.4109 59.6021 23.5172 58.981 22.8344L57.517 24.2286C57.6971 24.4266 57.8499 24.7624 57.8499 25.3758H59.8499ZM58.9844 22.8381C58.3599 22.1448 57.5226 21.8412 56.5999 21.8412V23.8876C57.0749 23.8876 57.3369 24.0288 57.5136 24.2249L58.9844 22.8381ZM56.5999 21.8412C55.969 21.8412 55.3694 21.9826 54.8264 22.2886L55.791 24.0812C56.0065 23.9598 56.2677 23.8876 56.5999 23.8876V21.8412ZM54.8222 22.2909C54.2709 22.605 53.8432 23.0627 53.5412 23.6322L55.2991 24.6081C55.4318 24.3578 55.5964 24.1921 55.7952 24.0788L54.8222 22.2909ZM53.5412 23.6322C53.2268 24.2251 53.0942 24.899 53.0942 25.6113H55.0942C55.0942 25.1551 55.1789 24.8348 55.2991 24.6081L53.5412 23.6322ZM65.1988 35.343L65.5356 34.3796L65.5288 34.3772L65.1988 35.343ZM63.0638 33.6164L62.4892 32.7791L61.7275 33.3263L62.2063 34.1428L63.0638 33.6164ZM64.2655 32.7532L65.061 32.133L64.4781 31.3503L63.6909 31.9158L64.2655 32.7532ZM64.7833 33.381L65.53 32.7004L65.5238 32.6934L64.7833 33.381ZM65.6398 34.0024L66.0702 33.0787L66.0656 33.0765L65.6398 34.0024ZM69.8138 29.797H70.8138V28.7738H69.8138V29.797ZM69.686 29.797V28.7738H69.1289L68.8357 29.2584L69.686 29.797ZM69.213 30.4771L68.4222 29.8508L68.4208 29.8527L69.213 30.4771ZM68.3437 31.1901L68.8148 32.0926L68.8183 32.0906L68.3437 31.1901ZM64.6874 30.9219L64.1738 31.7998L64.1763 31.8013L64.6874 30.9219ZM63.1981 29.2476L62.3058 29.7095L62.3079 29.7138L63.1981 29.2476ZM63.1853 23.8913L64.0888 24.3297L64.0897 24.3276L63.1853 23.8913ZM64.6618 22.1123L65.206 22.9707L65.21 22.968L64.6618 22.1123ZM68.3692 21.8049L67.8752 22.6946L67.8869 22.7012L68.3692 21.8049ZM69.2385 22.5374L68.437 23.1493L68.4424 23.1565L68.4478 23.1638L69.2385 22.5374ZM69.7115 23.2045L68.8731 23.7621L69.1689 24.2277H69.7115V23.2045ZM69.865 23.2045V24.2277H70.865V23.2045H69.865ZM69.865 21.6087V20.5855H68.865V21.6087H69.865ZM71.3223 21.6087H72.3223V20.5855H71.3223V21.6087ZM70.7471 34.0481L69.9377 33.4471L69.9324 33.4547L70.7471 34.0481ZM69.213 35.2449L68.8544 34.2898L68.8469 34.2927L69.213 35.2449ZM65.4289 23.3615L64.8238 22.5468L64.8199 22.5499L65.4289 23.3615ZM64.4765 24.6957L63.545 24.3233L63.5426 24.3299L64.4765 24.6957ZM64.4829 28.404L63.5564 28.7893L63.5602 28.7986L64.4829 28.404ZM65.4417 29.6596L64.8643 30.4951L64.8737 30.5018L65.4417 29.6596ZM67.078 34.6077C66.4306 34.6077 65.924 34.5217 65.5356 34.3796L64.8619 36.3065C65.5218 36.5479 66.2681 36.654 67.078 36.654V34.6077ZM65.5288 34.3772C65.1003 34.224 64.7799 34.0339 64.543 33.8239L63.2338 35.371C63.6957 35.7802 64.2489 36.0872 64.8688 36.3089L65.5288 34.3772ZM64.543 33.8239C64.2665 33.5795 64.0639 33.3331 63.9213 33.09L62.2063 34.1428C62.4729 34.5973 62.82 35.0051 63.2338 35.371L64.543 33.8239ZM63.6384 34.4538L64.8402 33.5905L63.6909 31.9158L62.4892 32.7791L63.6384 34.4538ZM63.4701 33.3732C63.6289 33.5865 63.8213 33.8189 64.0427 34.0686L65.5238 32.6934C65.3276 32.4722 65.1749 32.286 65.061 32.133L63.4701 33.3732ZM64.0366 34.0616C64.3562 34.4286 64.7621 34.7105 65.214 34.9281L66.0656 33.0765C65.7931 32.9453 65.6281 32.813 65.53 32.7004L64.0366 34.0616ZM65.2095 34.9259C65.7576 35.1932 66.3998 35.2936 67.078 35.2936V33.2473C66.5716 33.2473 66.255 33.1689 66.0702 33.0787L65.2095 34.9259ZM67.078 35.2936C68.0345 35.2936 68.9121 35.0546 69.6372 34.5028L68.4436 32.8609C68.1374 33.0939 67.7067 33.2473 67.078 33.2473V35.2936ZM69.6372 34.5028C70.4743 33.8658 70.8138 32.9006 70.8138 31.8375H68.8138C68.8138 32.4488 68.6377 32.7132 68.4436 32.8609L69.6372 34.5028ZM70.8138 31.8375V29.797H68.8138V31.8375H70.8138ZM69.8138 28.7738H69.686V30.8202H69.8138V28.7738ZM68.8357 29.2584C68.7507 29.399 68.6163 29.5944 68.4222 29.8508L70.0037 31.1035C70.2188 30.8193 70.3997 30.5612 70.5362 30.3355L68.8357 29.2584ZM68.4208 29.8527C68.3286 29.9752 68.1616 30.128 67.869 30.2895L68.8183 32.0906C69.2843 31.8334 69.6968 31.5111 70.0051 31.1017L68.4208 29.8527ZM67.8725 30.2875C67.6973 30.3833 67.3733 30.4743 66.8223 30.4743V32.5206C67.5498 32.5206 68.24 32.4066 68.8148 32.0926L67.8725 30.2875ZM66.8223 30.4743C66.1947 30.4743 65.6622 30.3246 65.1985 30.0425L64.1763 31.8013C64.974 32.2866 65.8648 32.5206 66.8223 32.5206V30.4743ZM65.201 30.044C64.7514 29.7686 64.3783 29.3612 64.0882 28.7814L62.3079 29.7138C62.7508 30.599 63.3705 31.3078 64.1738 31.7998L65.201 30.044ZM64.0903 28.7857C63.8157 28.2302 63.6547 27.508 63.6547 26.5792H61.6547C61.6547 27.7433 61.856 28.7999 62.3058 29.7095L64.0903 28.7857ZM63.6547 26.5792C63.6547 25.6693 63.811 24.9291 64.0888 24.3297L62.2817 23.4527C61.8522 24.3794 61.6547 25.4311 61.6547 26.5792H63.6547ZM64.0897 24.3276C64.3725 23.7141 64.7473 23.2751 65.206 22.9707L64.1176 21.2539C63.315 21.7866 62.7054 22.5335 62.2808 23.4548L64.0897 24.3276ZM65.21 22.968C65.6622 22.6648 66.1964 22.5011 66.8479 22.5011V20.4547C65.846 20.4547 64.9228 20.7139 64.1137 21.2565L65.21 22.968ZM66.8479 22.5011C67.3915 22.5011 67.7063 22.5964 67.8752 22.6946L68.8632 20.9153C68.2821 20.5775 67.5828 20.4547 66.8479 20.4547V22.5011ZM67.8869 22.7012C68.1763 22.8642 68.3432 23.0205 68.437 23.1493L70.0401 21.9255C69.7333 21.5049 69.3207 21.1729 68.8515 20.9086L67.8869 22.7012ZM68.4478 23.1638C68.6447 23.424 68.7837 23.6213 68.8731 23.7621L70.55 22.6469C70.4178 22.4388 70.2414 22.1915 70.0293 21.911L68.4478 23.1638ZM69.7115 24.2277H69.865V22.1813H69.7115V24.2277ZM70.865 23.2045V21.6087H68.865V23.2045H70.865ZM69.865 22.6318H71.3223V20.5855H69.865V22.6318ZM70.3223 21.6087V31.9422H72.3223V21.6087H70.3223ZM70.3223 31.9422C70.3223 32.6527 70.1654 33.1261 69.9377 33.4471L71.5564 34.6491C72.0957 33.8888 72.3223 32.9583 72.3223 31.9422H70.3223ZM69.9324 33.4547C69.6735 33.8268 69.3249 34.1049 68.8544 34.2898L69.5715 36.2C70.388 35.8792 71.0621 35.3595 71.5617 34.6415L69.9324 33.4547ZM68.8469 34.2927C68.3396 34.497 67.7544 34.6077 67.078 34.6077V36.654C67.9698 36.654 68.8079 36.5074 69.579 36.1971L68.8469 34.2927ZM67.0269 31.1341C67.7873 31.1341 68.5009 30.9543 69.1137 30.5385L68.0082 28.8331C67.7858 28.9841 67.4767 29.0878 67.0269 29.0878V31.1341ZM69.1137 30.5385C69.7162 30.1295 70.1522 29.5521 70.436 28.8574L68.5908 28.0682C68.4399 28.4374 68.241 28.6752 68.0082 28.8331L69.1137 30.5385ZM70.436 28.8574C70.7168 28.1703 70.8394 27.3928 70.8394 26.553H68.8394C68.8394 27.1958 68.7447 27.6914 68.5908 28.0682L70.436 28.8574ZM70.8394 26.553C70.8394 25.728 70.718 24.9578 70.4503 24.262L68.5893 25.0116C68.7477 25.4233 68.8394 25.9306 68.8394 26.553H70.8394ZM70.4503 24.262C70.1768 23.5513 69.7535 22.9525 69.1658 22.5107L67.9817 24.1598C68.2292 24.346 68.4366 24.6148 68.5893 25.0116L70.4503 24.262ZM69.1658 22.5107C68.5466 22.0452 67.8131 21.8412 67.0269 21.8412V23.8876C67.4679 23.8876 67.7657 23.9975 67.9817 24.1598L69.1658 22.5107ZM67.0269 21.8412C66.2129 21.8412 65.4558 22.0554 64.8238 22.5468L66.034 24.1761C66.2542 24.0048 66.5624 23.8876 67.0269 23.8876V21.8412ZM64.8199 22.5499C64.2391 23.0061 63.8175 23.6096 63.545 24.3233L65.4079 25.0679C65.5616 24.6655 65.7749 24.3795 66.0378 24.173L64.8199 22.5499ZM63.5426 24.3299C63.2845 25.0197 63.1633 25.765 63.1633 26.553H65.1633C65.1633 25.9808 65.2509 25.4878 65.4104 25.0615L63.5426 24.3299ZM63.1633 26.553C63.1633 27.3563 63.2858 28.1084 63.5564 28.7893L65.4092 28.0186C65.2537 27.627 65.1633 27.1451 65.1633 26.553H63.1633ZM63.5602 28.7986C63.8431 29.491 64.2754 30.0691 64.8643 30.4951L66.019 28.8242C65.7642 28.6398 65.5572 28.3807 65.4055 28.0093L63.5602 28.7986ZM64.8737 30.5018C65.5003 30.9442 66.2382 31.1341 67.0269 31.1341V29.0878C66.5542 29.0878 66.2353 28.9768 66.0096 28.8175L64.8737 30.5018Z" fill="#E87F23"/>
</g>
<mask id="mask1_86_4628" style="mask-type:luminance" maskUnits="userSpaceOnUse" x="66" y="0" width="22" height="24">
<path d="M87.5 0H66V23.9581H87.5V0Z" fill="white"/>
</mask>
<g mask="url(#mask1_86_4628)">
<g opacity="0.96">
<path d="M87.4998 19.7039L87.0998 22.2788L82.7998 21.2713L83.1998 18.6963L87.4998 19.7039Z" fill="#E87F23"/>
<path d="M86.2998 8.28516L87.0998 10.6362L83.0998 13.2112L82.2998 10.8601L86.2998 8.28516Z" fill="#E87F23"/>
<path d="M77.3999 0L79.1999 0.895632L77.6999 6.38137L75.8999 5.48575L77.3999 0Z" fill="#E87F23"/>
<path d="M66.7998 0.895632L68.5998 0L70.0998 5.48575L68.2998 6.38137L66.7998 0.895632Z" fill="#E87F23"/>
<path d="M79.1 23.9582L77.1 22.1669C77.9 20.9354 78.4 19.5919 78.4 18.0246C78.4 14.4421 75.8 11.4193 72.5 11.4193C70.7 11.4193 69 12.315 67.9 13.8823L66 12.315C67.6 10.0759 70 8.73242 72.5 8.73242C77.1 8.73242 80.9 12.9867 80.9 18.1365C80.9 20.2637 80.3 22.2789 79.1 23.9582Z" fill="#E87F23"/>
</g>
</g>
</svg>
