<svg width="81" height="40" viewBox="0 0 81 40" fill="none" xmlns="http://www.w3.org/2000/svg">
<mask id="path-1-outside-1_282_1573" maskUnits="userSpaceOnUse" x="0" y="16" width="67" height="20" fill="black">
<rect fill="white" y="16" width="67" height="20"/>
<path d="M1.58523 31V17.9091H9.4858V19.3153H3.17045V23.7386H9.0767V25.1449H3.17045V29.5938H9.58807V31H1.58523ZM13.2635 21.1818L15.6158 25.196L17.968 21.1818H19.7067L16.5362 26.0909L19.7067 31H17.968L15.6158 27.1903L13.2635 31H11.5249L14.6442 26.0909L11.5249 21.1818H13.2635ZM25.4435 31.2045C24.5231 31.2045 23.7305 30.9872 23.0657 30.5526C22.4009 30.1179 21.8896 29.5192 21.5316 28.7564C21.1737 27.9936 20.9947 27.1222 20.9947 26.142C20.9947 25.1449 21.1779 24.2649 21.5444 23.5021C21.9151 22.7351 22.4308 22.1364 23.0913 21.706C23.756 21.2713 24.5316 21.054 25.418 21.054C26.1083 21.054 26.7305 21.1818 27.2844 21.4375C27.8384 21.6932 28.2923 22.0511 28.646 22.5114C28.9996 22.9716 29.2191 23.5085 29.3043 24.1222H27.7958C27.6808 23.6747 27.4251 23.2784 27.0288 22.9332C26.6367 22.5838 26.1083 22.4091 25.4435 22.4091C24.8555 22.4091 24.3398 22.5625 23.8967 22.8693C23.4577 23.1719 23.1147 23.6001 22.8675 24.1541C22.6246 24.7038 22.5032 25.3494 22.5032 26.0909C22.5032 26.8494 22.6225 27.5099 22.8612 28.0724C23.104 28.6349 23.445 29.0717 23.8839 29.3828C24.3271 29.6939 24.8469 29.8494 25.4435 29.8494C25.8356 29.8494 26.1914 29.7812 26.511 29.6449C26.8306 29.5085 27.1012 29.3125 27.3228 29.0568C27.5444 28.8011 27.7021 28.4943 27.7958 28.1364H29.3043C29.2191 28.7159 29.0082 29.2379 28.6715 29.7024C28.3391 30.1626 27.8981 30.5291 27.3484 30.8018C26.8029 31.0703 26.168 31.2045 25.4435 31.2045ZM31.5096 31V21.1818H33.0181V31H31.5096ZM32.2766 19.5455C31.9826 19.5455 31.729 19.4453 31.516 19.245C31.3072 19.0447 31.2028 18.804 31.2028 18.5227C31.2028 18.2415 31.3072 18.0007 31.516 17.8004C31.729 17.6001 31.9826 17.5 32.2766 17.5C32.5707 17.5 32.8221 17.6001 33.0309 17.8004C33.244 18.0007 33.3505 18.2415 33.3505 18.5227C33.3505 18.804 33.244 19.0447 33.0309 19.245C32.8221 19.4453 32.5707 19.5455 32.2766 19.5455ZM40.051 21.1818V22.4602H34.9629V21.1818H40.051ZM36.4458 18.8295H37.9544V28.1875C37.9544 28.6136 38.0162 28.9332 38.1397 29.1463C38.2676 29.3551 38.4295 29.4957 38.6255 29.5682C38.8258 29.6364 39.0368 29.6705 39.2583 29.6705C39.4245 29.6705 39.5609 29.6619 39.6674 29.6449C39.774 29.6236 39.8592 29.6065 39.9231 29.5938L40.2299 30.9489C40.1277 30.9872 39.9849 31.0256 39.8017 31.0639C39.6184 31.1065 39.3862 31.1278 39.1049 31.1278C38.6788 31.1278 38.2612 31.0362 37.8521 30.853C37.4473 30.6697 37.1106 30.3906 36.8422 30.0156C36.5779 29.6406 36.4458 29.1676 36.4458 28.5966V18.8295ZM42.3201 31V21.1818H43.8287V31H42.3201ZM43.0872 19.5455C42.7931 19.5455 42.5396 19.4453 42.3265 19.245C42.1177 19.0447 42.0133 18.804 42.0133 18.5227C42.0133 18.2415 42.1177 18.0007 42.3265 17.8004C42.5396 17.6001 42.7931 17.5 43.0872 17.5C43.3812 17.5 43.6326 17.6001 43.8414 17.8004C44.0545 18.0007 44.161 18.2415 44.161 18.5227C44.161 18.804 44.0545 19.0447 43.8414 19.245C43.6326 19.4453 43.3812 19.5455 43.0872 19.5455ZM48.1001 25.0938V31H46.5916V21.1818H48.049V22.7159H48.1768C48.407 22.2173 48.7564 21.8168 49.2251 21.5142C49.6939 21.2074 50.299 21.054 51.0405 21.054C51.7053 21.054 52.2869 21.1903 52.7855 21.4631C53.2841 21.7315 53.6719 22.1406 53.9489 22.6903C54.2259 23.2358 54.3643 23.9261 54.3643 24.7614V31H52.8558V24.8636C52.8558 24.0923 52.6555 23.4915 52.255 23.0611C51.8544 22.6264 51.3047 22.4091 50.6058 22.4091C50.1243 22.4091 49.6939 22.5135 49.3146 22.7223C48.9396 22.9311 48.6435 23.2358 48.4261 23.6364C48.2088 24.0369 48.1001 24.5227 48.1001 25.0938ZM61.084 34.8864C60.3553 34.8864 59.7289 34.7926 59.2047 34.6051C58.6806 34.4219 58.2438 34.179 57.8944 33.8764C57.5492 33.5781 57.2743 33.2585 57.0698 32.9176L58.2715 32.0739C58.4078 32.2528 58.5804 32.4574 58.7892 32.6875C58.998 32.9219 59.2836 33.1243 59.6458 33.2947C60.0123 33.4695 60.4917 33.5568 61.084 33.5568C61.8766 33.5568 62.5307 33.3651 63.0463 32.9815C63.562 32.598 63.8198 31.9972 63.8198 31.179V29.1847H63.6919C63.5811 29.3636 63.4235 29.5852 63.2189 29.8494C63.0186 30.1094 62.7289 30.3416 62.3496 30.5462C61.9746 30.7464 61.4675 30.8466 60.8283 30.8466C60.0357 30.8466 59.324 30.6591 58.6934 30.2841C58.0669 29.9091 57.5705 29.3636 57.204 28.6477C56.8418 27.9318 56.6607 27.0625 56.6607 26.0398C56.6607 25.0341 56.8375 24.1584 57.1912 23.4126C57.5449 22.6626 58.0371 22.0831 58.6678 21.674C59.2985 21.2607 60.0272 21.054 60.8539 21.054C61.4931 21.054 62.0002 21.1605 62.3752 21.3736C62.7544 21.5824 63.0442 21.821 63.2445 22.0895C63.449 22.3537 63.6067 22.571 63.7175 22.7415H63.8709V21.1818H65.3283V31.2812C65.3283 32.125 65.1365 32.8111 64.753 33.3395C64.3738 33.8722 63.8624 34.2621 63.2189 34.5092C62.5797 34.7607 61.8681 34.8864 61.084 34.8864ZM61.0328 29.4915C61.638 29.4915 62.1493 29.353 62.5669 29.076C62.9846 28.799 63.302 28.4006 63.5194 27.8807C63.7367 27.3608 63.8453 26.7386 63.8453 26.0142C63.8453 25.3068 63.7388 24.6825 63.5257 24.1413C63.3127 23.6001 62.9973 23.1761 62.5797 22.8693C62.1621 22.5625 61.6465 22.4091 61.0328 22.4091C60.3936 22.4091 59.861 22.571 59.4348 22.8949C59.013 23.2187 58.6955 23.6534 58.4824 24.1989C58.2736 24.7443 58.1692 25.3494 58.1692 26.0142C58.1692 26.696 58.2757 27.299 58.4888 27.8232C58.7061 28.343 59.0257 28.7521 59.4476 29.0504C59.8738 29.3445 60.4022 29.4915 61.0328 29.4915Z"/>
</mask>
<path d="M1.58523 31V17.9091H9.4858V19.3153H3.17045V23.7386H9.0767V25.1449H3.17045V29.5938H9.58807V31H1.58523ZM13.2635 21.1818L15.6158 25.196L17.968 21.1818H19.7067L16.5362 26.0909L19.7067 31H17.968L15.6158 27.1903L13.2635 31H11.5249L14.6442 26.0909L11.5249 21.1818H13.2635ZM25.4435 31.2045C24.5231 31.2045 23.7305 30.9872 23.0657 30.5526C22.4009 30.1179 21.8896 29.5192 21.5316 28.7564C21.1737 27.9936 20.9947 27.1222 20.9947 26.142C20.9947 25.1449 21.1779 24.2649 21.5444 23.5021C21.9151 22.7351 22.4308 22.1364 23.0913 21.706C23.756 21.2713 24.5316 21.054 25.418 21.054C26.1083 21.054 26.7305 21.1818 27.2844 21.4375C27.8384 21.6932 28.2923 22.0511 28.646 22.5114C28.9996 22.9716 29.2191 23.5085 29.3043 24.1222H27.7958C27.6808 23.6747 27.4251 23.2784 27.0288 22.9332C26.6367 22.5838 26.1083 22.4091 25.4435 22.4091C24.8555 22.4091 24.3398 22.5625 23.8967 22.8693C23.4577 23.1719 23.1147 23.6001 22.8675 24.1541C22.6246 24.7038 22.5032 25.3494 22.5032 26.0909C22.5032 26.8494 22.6225 27.5099 22.8612 28.0724C23.104 28.6349 23.445 29.0717 23.8839 29.3828C24.3271 29.6939 24.8469 29.8494 25.4435 29.8494C25.8356 29.8494 26.1914 29.7812 26.511 29.6449C26.8306 29.5085 27.1012 29.3125 27.3228 29.0568C27.5444 28.8011 27.7021 28.4943 27.7958 28.1364H29.3043C29.2191 28.7159 29.0082 29.2379 28.6715 29.7024C28.3391 30.1626 27.8981 30.5291 27.3484 30.8018C26.8029 31.0703 26.168 31.2045 25.4435 31.2045ZM31.5096 31V21.1818H33.0181V31H31.5096ZM32.2766 19.5455C31.9826 19.5455 31.729 19.4453 31.516 19.245C31.3072 19.0447 31.2028 18.804 31.2028 18.5227C31.2028 18.2415 31.3072 18.0007 31.516 17.8004C31.729 17.6001 31.9826 17.5 32.2766 17.5C32.5707 17.5 32.8221 17.6001 33.0309 17.8004C33.244 18.0007 33.3505 18.2415 33.3505 18.5227C33.3505 18.804 33.244 19.0447 33.0309 19.245C32.8221 19.4453 32.5707 19.5455 32.2766 19.5455ZM40.051 21.1818V22.4602H34.9629V21.1818H40.051ZM36.4458 18.8295H37.9544V28.1875C37.9544 28.6136 38.0162 28.9332 38.1397 29.1463C38.2676 29.3551 38.4295 29.4957 38.6255 29.5682C38.8258 29.6364 39.0368 29.6705 39.2583 29.6705C39.4245 29.6705 39.5609 29.6619 39.6674 29.6449C39.774 29.6236 39.8592 29.6065 39.9231 29.5938L40.2299 30.9489C40.1277 30.9872 39.9849 31.0256 39.8017 31.0639C39.6184 31.1065 39.3862 31.1278 39.1049 31.1278C38.6788 31.1278 38.2612 31.0362 37.8521 30.853C37.4473 30.6697 37.1106 30.3906 36.8422 30.0156C36.5779 29.6406 36.4458 29.1676 36.4458 28.5966V18.8295ZM42.3201 31V21.1818H43.8287V31H42.3201ZM43.0872 19.5455C42.7931 19.5455 42.5396 19.4453 42.3265 19.245C42.1177 19.0447 42.0133 18.804 42.0133 18.5227C42.0133 18.2415 42.1177 18.0007 42.3265 17.8004C42.5396 17.6001 42.7931 17.5 43.0872 17.5C43.3812 17.5 43.6326 17.6001 43.8414 17.8004C44.0545 18.0007 44.161 18.2415 44.161 18.5227C44.161 18.804 44.0545 19.0447 43.8414 19.245C43.6326 19.4453 43.3812 19.5455 43.0872 19.5455ZM48.1001 25.0938V31H46.5916V21.1818H48.049V22.7159H48.1768C48.407 22.2173 48.7564 21.8168 49.2251 21.5142C49.6939 21.2074 50.299 21.054 51.0405 21.054C51.7053 21.054 52.2869 21.1903 52.7855 21.4631C53.2841 21.7315 53.6719 22.1406 53.9489 22.6903C54.2259 23.2358 54.3643 23.9261 54.3643 24.7614V31H52.8558V24.8636C52.8558 24.0923 52.6555 23.4915 52.255 23.0611C51.8544 22.6264 51.3047 22.4091 50.6058 22.4091C50.1243 22.4091 49.6939 22.5135 49.3146 22.7223C48.9396 22.9311 48.6435 23.2358 48.4261 23.6364C48.2088 24.0369 48.1001 24.5227 48.1001 25.0938ZM61.084 34.8864C60.3553 34.8864 59.7289 34.7926 59.2047 34.6051C58.6806 34.4219 58.2438 34.179 57.8944 33.8764C57.5492 33.5781 57.2743 33.2585 57.0698 32.9176L58.2715 32.0739C58.4078 32.2528 58.5804 32.4574 58.7892 32.6875C58.998 32.9219 59.2836 33.1243 59.6458 33.2947C60.0123 33.4695 60.4917 33.5568 61.084 33.5568C61.8766 33.5568 62.5307 33.3651 63.0463 32.9815C63.562 32.598 63.8198 31.9972 63.8198 31.179V29.1847H63.6919C63.5811 29.3636 63.4235 29.5852 63.2189 29.8494C63.0186 30.1094 62.7289 30.3416 62.3496 30.5462C61.9746 30.7464 61.4675 30.8466 60.8283 30.8466C60.0357 30.8466 59.324 30.6591 58.6934 30.2841C58.0669 29.9091 57.5705 29.3636 57.204 28.6477C56.8418 27.9318 56.6607 27.0625 56.6607 26.0398C56.6607 25.0341 56.8375 24.1584 57.1912 23.4126C57.5449 22.6626 58.0371 22.0831 58.6678 21.674C59.2985 21.2607 60.0272 21.054 60.8539 21.054C61.4931 21.054 62.0002 21.1605 62.3752 21.3736C62.7544 21.5824 63.0442 21.821 63.2445 22.0895C63.449 22.3537 63.6067 22.571 63.7175 22.7415H63.8709V21.1818H65.3283V31.2812C65.3283 32.125 65.1365 32.8111 64.753 33.3395C64.3738 33.8722 63.8624 34.2621 63.2189 34.5092C62.5797 34.7607 61.8681 34.8864 61.084 34.8864ZM61.0328 29.4915C61.638 29.4915 62.1493 29.353 62.5669 29.076C62.9846 28.799 63.302 28.4006 63.5194 27.8807C63.7367 27.3608 63.8453 26.7386 63.8453 26.0142C63.8453 25.3068 63.7388 24.6825 63.5257 24.1413C63.3127 23.6001 62.9973 23.1761 62.5797 22.8693C62.1621 22.5625 61.6465 22.4091 61.0328 22.4091C60.3936 22.4091 59.861 22.571 59.4348 22.8949C59.013 23.2187 58.6955 23.6534 58.4824 24.1989C58.2736 24.7443 58.1692 25.3494 58.1692 26.0142C58.1692 26.696 58.2757 27.299 58.4888 27.8232C58.7061 28.343 59.0257 28.7521 59.4476 29.0504C59.8738 29.3445 60.4022 29.4915 61.0328 29.4915Z" fill="#E87F23"/>
<path d="M1.58523 31H0.585227V32H1.58523V31ZM1.58523 17.9091V16.9091H0.585227V17.9091H1.58523ZM9.4858 17.9091H10.4858V16.9091H9.4858V17.9091ZM9.4858 19.3153V20.3153H10.4858V19.3153H9.4858ZM3.17045 19.3153V18.3153H2.17045V19.3153H3.17045ZM3.17045 23.7386H2.17045V24.7386H3.17045V23.7386ZM9.0767 23.7386H10.0767V22.7386H9.0767V23.7386ZM9.0767 25.1449V26.1449H10.0767V25.1449H9.0767ZM3.17045 25.1449V24.1449H2.17045V25.1449H3.17045ZM3.17045 29.5938H2.17045V30.5938H3.17045V29.5938ZM9.58807 29.5938H10.5881V28.5938H9.58807V29.5938ZM9.58807 31V32H10.5881V31H9.58807ZM2.58523 31V17.9091H0.585227V31H2.58523ZM1.58523 18.9091H9.4858V16.9091H1.58523V18.9091ZM8.4858 17.9091V19.3153H10.4858V17.9091H8.4858ZM9.4858 18.3153H3.17045V20.3153H9.4858V18.3153ZM2.17045 19.3153V23.7386H4.17045V19.3153H2.17045ZM3.17045 24.7386H9.0767V22.7386H3.17045V24.7386ZM8.0767 23.7386V25.1449H10.0767V23.7386H8.0767ZM9.0767 24.1449H3.17045V26.1449H9.0767V24.1449ZM2.17045 25.1449V29.5938H4.17045V25.1449H2.17045ZM3.17045 30.5938H9.58807V28.5938H3.17045V30.5938ZM8.58807 29.5938V31H10.5881V29.5938H8.58807ZM9.58807 30H1.58523V32H9.58807V30ZM13.2635 21.1818L14.1263 20.6762L13.8366 20.1818H13.2635V21.1818ZM15.6158 25.196L14.753 25.7016L15.6158 27.174L16.4785 25.7016L15.6158 25.196ZM17.968 21.1818V20.1818H17.395L17.1053 20.6762L17.968 21.1818ZM19.7067 21.1818L20.5467 21.7243L21.5429 20.1818H19.7067V21.1818ZM16.5362 26.0909L15.6962 25.5484L15.3458 26.0909L15.6962 26.6334L16.5362 26.0909ZM19.7067 31V32H21.5429L20.5467 30.4575L19.7067 31ZM17.968 31L17.1172 31.5254L17.4102 32H17.968V31ZM15.6158 27.1903L16.4666 26.665L15.6158 25.2869L14.7649 26.665L15.6158 27.1903ZM13.2635 31V32H13.8213L14.1144 31.5254L13.2635 31ZM11.5249 31L10.6808 30.4637L9.70464 32H11.5249V31ZM14.6442 26.0909L15.4882 26.6272L15.829 26.0909L15.4882 25.5546L14.6442 26.0909ZM11.5249 21.1818V20.1818H9.70464L10.6808 21.7181L11.5249 21.1818ZM12.4007 21.6874L14.753 25.7016L16.4785 24.6904L14.1263 20.6762L12.4007 21.6874ZM16.4785 25.7016L18.8308 21.6874L17.1053 20.6762L14.753 24.6904L16.4785 25.7016ZM17.968 22.1818H19.7067V20.1818H17.968V22.1818ZM18.8666 20.6393L15.6962 25.5484L17.3763 26.6334L20.5467 21.7243L18.8666 20.6393ZM15.6962 26.6334L18.8666 31.5425L20.5467 30.4575L17.3763 25.5484L15.6962 26.6334ZM19.7067 30H17.968V32H19.7067V30ZM18.8189 30.4746L16.4666 26.665L14.7649 27.7157L17.1172 31.5254L18.8189 30.4746ZM14.7649 26.665L12.4126 30.4746L14.1144 31.5254L16.4666 27.7157L14.7649 26.665ZM13.2635 30H11.5249V32H13.2635V30ZM12.3689 31.5363L15.4882 26.6272L13.8002 25.5546L10.6808 30.4637L12.3689 31.5363ZM15.4882 25.5546L12.3689 20.6455L10.6808 21.7181L13.8002 26.6272L15.4882 25.5546ZM11.5249 22.1818H13.2635V20.1818H11.5249V22.1818ZM23.0657 30.5526L22.5184 31.3895L23.0657 30.5526ZM21.5444 23.5021L20.644 23.067L20.643 23.0691L21.5444 23.5021ZM23.0913 21.706L23.6372 22.5438L23.6385 22.5429L23.0913 21.706ZM28.646 22.5114L29.4388 21.902V21.902L28.646 22.5114ZM29.3043 24.1222V25.1222H30.4528L30.2948 23.9846L29.3043 24.1222ZM27.7958 24.1222L26.8273 24.3712L27.0204 25.1222H27.7958V24.1222ZM27.0288 22.9332L26.3633 23.6798L26.372 23.6873L27.0288 22.9332ZM23.8967 22.8693L24.4642 23.6927L24.4659 23.6915L23.8967 22.8693ZM22.8675 24.1541L21.9543 23.7467L21.9529 23.75L22.8675 24.1541ZM22.8612 28.0724L21.9405 28.463L21.9431 28.4689L22.8612 28.0724ZM23.8839 29.3828L23.3056 30.1987L23.3094 30.2013L23.8839 29.3828ZM26.511 29.6449L26.1186 28.7251L26.511 29.6449ZM27.3228 29.0568L28.0785 29.7117L27.3228 29.0568ZM27.7958 28.1364V27.1364H27.024L26.8284 27.883L27.7958 28.1364ZM29.3043 28.1364L30.2937 28.2819L30.4621 27.1364H29.3043V28.1364ZM28.6715 29.7024L27.8618 29.1156L27.8608 29.1169L28.6715 29.7024ZM27.3484 30.8018L27.79 31.6991L27.7928 31.6977L27.3484 30.8018ZM25.4435 30.2045C24.6859 30.2045 24.0904 30.0278 23.6129 29.7156L22.5184 31.3895C23.3705 31.9466 24.3603 32.2045 25.4435 32.2045V30.2045ZM23.6129 29.7156C23.113 29.3887 22.721 28.9371 22.4369 28.3316L20.6263 29.1812C21.0581 30.1013 21.6888 30.8471 22.5184 31.3895L23.6129 29.7156ZM22.4369 28.3316C22.1507 27.7217 21.9947 26.9992 21.9947 26.142H19.9947C19.9947 27.2452 20.1966 28.2655 20.6263 29.1812L22.4369 28.3316ZM21.9947 26.142C21.9947 25.2683 22.1548 24.5408 22.4458 23.9352L20.643 23.0691C20.201 23.989 19.9947 25.0215 19.9947 26.142H21.9947ZM22.4447 23.9373C22.7428 23.3205 23.1416 22.8668 23.6372 22.5438L22.5453 20.8681C21.7199 21.406 21.0874 22.1496 20.644 23.067L22.4447 23.9373ZM23.6385 22.5429C24.1221 22.2267 24.7027 22.054 25.418 22.054V20.054C24.3606 20.054 23.39 20.3159 22.544 20.869L23.6385 22.5429ZM25.418 22.054C25.9827 22.054 26.4591 22.1579 26.8654 22.3455L27.7035 20.5295C27.0019 20.2057 26.2339 20.054 25.418 20.054V22.054ZM26.8654 22.3455C27.2802 22.5369 27.6031 22.7954 27.8531 23.1207L29.4388 21.902C28.9815 21.3069 28.3967 20.8495 27.7035 20.5295L26.8654 22.3455ZM27.8531 23.1207C28.094 23.4342 28.2508 23.8059 28.3138 24.2597L30.2948 23.9846C30.1874 23.2112 29.9053 22.509 29.4388 21.902L27.8531 23.1207ZM29.3043 23.1222H27.7958V25.1222H29.3043V23.1222ZM28.7643 23.8731C28.5921 23.2035 28.2127 22.6383 27.6855 22.1792L26.372 23.6873C26.6374 23.9185 26.7694 24.1459 26.8273 24.3712L28.7643 23.8731ZM27.6941 22.1867C27.0741 21.6341 26.2862 21.4091 25.4435 21.4091V23.4091C25.9304 23.4091 26.1993 23.5335 26.3634 23.6798L27.6941 22.1867ZM25.4435 21.4091C24.6715 21.4091 23.9531 21.614 23.3275 22.0471L24.4659 23.6915C24.7265 23.511 25.0395 23.4091 25.4435 23.4091V21.4091ZM23.3291 22.046C22.719 22.4666 22.2658 23.0486 21.9543 23.7467L23.7808 24.5616C23.9636 24.1517 24.1965 23.8772 24.4642 23.6927L23.3291 22.046ZM21.9529 23.75C21.6422 24.4531 21.5032 25.2419 21.5032 26.0909H23.5032C23.5032 25.457 23.6071 24.9546 23.7822 24.5583L21.9529 23.75ZM21.5032 26.0909C21.5032 26.9522 21.6385 27.751 21.9406 28.463L23.7817 27.6819C23.6065 27.2689 23.5032 26.7466 23.5032 26.0909H21.5032ZM21.9431 28.4689C22.2484 29.1758 22.6972 29.7675 23.3056 30.1987L24.4621 28.5669C24.1927 28.376 23.9597 28.0941 23.7792 27.676L21.9431 28.4689ZM23.3094 30.2013C23.9379 30.6425 24.6632 30.8494 25.4435 30.8494V28.8494C25.0306 28.8494 24.7162 28.7453 24.4584 28.5643L23.3094 30.2013ZM25.4435 30.8494C25.9532 30.8494 26.4448 30.7603 26.9034 30.5647L26.1186 28.7251C25.938 28.8022 25.718 28.8494 25.4435 28.8494V30.8494ZM26.9034 30.5647C27.3588 30.3704 27.7547 30.0853 28.0785 29.7117L26.5671 28.4019C26.4477 28.5397 26.3025 28.6467 26.1186 28.7251L26.9034 30.5647ZM28.0785 29.7117C28.4096 29.3297 28.6343 28.8819 28.7632 28.3897L26.8284 27.883C26.7698 28.1068 26.6792 28.2726 26.5671 28.4019L28.0785 29.7117ZM27.7958 29.1364H29.3043V27.1364H27.7958V29.1364ZM28.315 27.9909C28.2527 28.4145 28.1018 28.7844 27.8618 29.1156L29.4812 30.2893C29.9145 29.6914 30.1855 29.0173 30.2937 28.2819L28.315 27.9909ZM27.8608 29.1169C27.6311 29.435 27.3202 29.6995 26.9039 29.906L27.7928 31.6977C28.4759 31.3587 29.0472 30.8903 29.4822 30.2879L27.8608 29.1169ZM26.9068 29.9046C26.5226 30.0937 26.0439 30.2045 25.4435 30.2045V32.2045C26.292 32.2045 27.0832 32.0469 27.79 31.6991L26.9068 29.9046ZM31.5096 31H30.5096V32H31.5096V31ZM31.5096 21.1818V20.1818H30.5096V21.1818H31.5096ZM33.0181 21.1818H34.0181V20.1818H33.0181V21.1818ZM33.0181 31V32H34.0181V31H33.0181ZM31.516 19.245L30.8237 19.9667L30.8311 19.9737L31.516 19.245ZM31.516 17.8004L30.831 17.0718L30.8238 17.0787L31.516 17.8004ZM33.0309 17.8004L32.3386 18.5221L32.346 18.5291L33.0309 17.8004ZM33.0309 19.245L32.346 18.5164L32.3387 18.5233L33.0309 19.245ZM32.5096 31V21.1818H30.5096V31H32.5096ZM31.5096 22.1818H33.0181V20.1818H31.5096V22.1818ZM32.0181 21.1818V31H34.0181V21.1818H32.0181ZM33.0181 30H31.5096V32H33.0181V30ZM32.2766 18.5455C32.2454 18.5455 32.2342 18.5406 32.2333 18.5403C32.2325 18.5399 32.222 18.5363 32.2009 18.5164L30.8311 19.9737C31.2307 20.3493 31.7296 20.5455 32.2766 20.5455V18.5455ZM32.2082 18.5233C32.1983 18.5138 32.1945 18.5086 32.1943 18.5082C32.1941 18.508 32.1961 18.5109 32.1985 18.5164C32.2009 18.522 32.2023 18.5269 32.2029 18.53C32.2035 18.5328 32.2028 18.5309 32.2028 18.5227H30.2028C30.2028 19.0851 30.4247 19.5839 30.8238 19.9667L32.2082 18.5233ZM32.2028 18.5227C32.2028 18.5146 32.2035 18.5126 32.2029 18.5155C32.2023 18.5185 32.2009 18.5235 32.1985 18.529C32.1961 18.5346 32.1941 18.5374 32.1943 18.5372C32.1945 18.5369 32.1983 18.5316 32.2082 18.5221L30.8238 17.0787C30.4247 17.4615 30.2028 17.9603 30.2028 18.5227H32.2028ZM32.2009 18.5291C32.222 18.5092 32.2325 18.5055 32.2333 18.5052C32.2342 18.5048 32.2454 18.5 32.2766 18.5V16.5C31.7296 16.5 31.2307 16.6961 30.8311 17.0718L32.2009 18.5291ZM32.2766 18.5C32.2932 18.5 32.3034 18.5014 32.3086 18.5023C32.3136 18.5033 32.3155 18.5041 32.3157 18.5041C32.3158 18.5042 32.317 18.5046 32.3197 18.5064C32.3225 18.5082 32.3289 18.5128 32.3387 18.5221L33.7231 17.0787C33.3248 16.6967 32.824 16.5 32.2766 16.5V18.5ZM32.346 18.5291C32.3566 18.539 32.3607 18.5446 32.361 18.545C32.3611 18.5452 32.3589 18.5421 32.3561 18.5359C32.3533 18.5296 32.3516 18.5236 32.3507 18.5193C32.3499 18.5152 32.3505 18.5159 32.3505 18.5227H34.3505C34.3505 17.9534 34.1209 17.4526 33.7158 17.0718L32.346 18.5291ZM32.3505 18.5227C32.3505 18.5296 32.3499 18.5302 32.3507 18.5261C32.3516 18.5218 32.3533 18.5159 32.3561 18.5096C32.3589 18.5034 32.3611 18.5002 32.361 18.5004C32.3607 18.5009 32.3566 18.5064 32.346 18.5164L33.7158 19.9737C34.1209 19.5928 34.3505 19.092 34.3505 18.5227H32.3505ZM32.3387 18.5233C32.3289 18.5327 32.3225 18.5372 32.3197 18.5391C32.317 18.5409 32.3158 18.5413 32.3157 18.5413C32.3155 18.5414 32.3136 18.5422 32.3086 18.5431C32.3034 18.5441 32.2932 18.5455 32.2766 18.5455V20.5455C32.824 20.5455 33.3248 20.3488 33.7231 19.9667L32.3387 18.5233ZM40.051 21.1818H41.051V20.1818H40.051V21.1818ZM40.051 22.4602V23.4602H41.051V22.4602H40.051ZM34.9629 22.4602H33.9629V23.4602H34.9629V22.4602ZM34.9629 21.1818V20.1818H33.9629V21.1818H34.9629ZM36.4458 18.8295V17.8295H35.4458V18.8295H36.4458ZM37.9544 18.8295H38.9544V17.8295H37.9544V18.8295ZM38.1397 29.1463L37.2747 29.648L37.2807 29.6583L37.2869 29.6685L38.1397 29.1463ZM38.6255 29.5682L38.2789 30.5062L38.291 30.5107L38.3033 30.5148L38.6255 29.5682ZM39.6674 29.6449L39.8254 30.6323L39.8446 30.6293L39.8636 30.6255L39.6674 29.6449ZM39.9231 29.5938L40.8984 29.3729L40.6831 28.4219L39.727 28.6132L39.9231 29.5938ZM40.2299 30.9489L40.5811 31.8852L41.3979 31.5789L41.2052 30.728L40.2299 30.9489ZM39.8017 31.0639L39.5968 30.0851L39.586 30.0874L39.5752 30.0899L39.8017 31.0639ZM37.8521 30.853L37.4397 31.764L37.4433 31.7656L37.8521 30.853ZM36.8422 30.0156L36.0246 30.5916L36.029 30.5977L36.8422 30.0156ZM39.051 21.1818V22.4602H41.051V21.1818H39.051ZM40.051 21.4602H34.9629V23.4602H40.051V21.4602ZM35.9629 22.4602V21.1818H33.9629V22.4602H35.9629ZM34.9629 22.1818H40.051V20.1818H34.9629V22.1818ZM36.4458 19.8295H37.9544V17.8295H36.4458V19.8295ZM36.9544 18.8295V28.1875H38.9544V18.8295H36.9544ZM36.9544 28.1875C36.9544 28.6775 37.0196 29.2083 37.2747 29.648L39.0048 28.6446C39.0138 28.6602 38.9986 28.6402 38.9825 28.557C38.9668 28.4755 38.9544 28.3552 38.9544 28.1875H36.9544ZM37.2869 29.6685C37.511 30.0345 37.8374 30.343 38.2789 30.5062L38.9722 28.6302C38.9802 28.6332 38.9885 28.6371 38.9964 28.6418C39.0042 28.6464 39.0097 28.6507 39.0128 28.6533C39.0191 28.6588 39.0105 28.6534 38.9926 28.6242L37.2869 29.6685ZM38.3033 30.5148C38.6122 30.62 38.9324 30.6705 39.2583 30.6705V28.6705C39.1411 28.6705 39.0395 28.6527 38.9478 28.6215L38.3033 30.5148ZM39.2583 30.6705C39.4524 30.6705 39.6467 30.6609 39.8254 30.6323L39.5094 28.6574C39.4751 28.6629 39.3966 28.6705 39.2583 28.6705V30.6705ZM39.8636 30.6255C39.9701 30.6042 40.0553 30.5871 40.1192 30.5743L39.727 28.6132C39.6631 28.626 39.5779 28.643 39.4713 28.6643L39.8636 30.6255ZM38.9478 29.8146L39.2546 31.1697L41.2052 30.728L40.8984 29.3729L38.9478 29.8146ZM39.8788 30.0125C39.846 30.0248 39.76 30.051 39.5968 30.0851L40.0065 32.0427C40.2098 32.0002 40.4093 31.9496 40.5811 31.8852L39.8788 30.0125ZM39.5752 30.0899C39.493 30.109 39.3435 30.1278 39.1049 30.1278V32.1278C39.4289 32.1278 39.7439 32.104 40.0282 32.0379L39.5752 30.0899ZM39.1049 30.1278C38.827 30.1278 38.5482 30.069 38.2609 29.9404L37.4433 31.7656C37.9742 32.0034 38.5306 32.1278 39.1049 32.1278V30.1278ZM38.2645 29.942C38.026 29.834 37.8254 29.6712 37.6553 29.4335L36.029 30.5977C36.3958 31.11 36.8685 31.5055 37.4397 31.764L38.2645 29.942ZM37.6596 29.4397C37.5405 29.2706 37.4458 29.0123 37.4458 28.5966H35.4458C35.4458 29.3229 35.6154 30.0107 36.0247 30.5916L37.6596 29.4397ZM37.4458 28.5966V18.8295H35.4458V28.5966H37.4458ZM42.3201 31H41.3201V32H42.3201V31ZM42.3201 21.1818V20.1818H41.3201V21.1818H42.3201ZM43.8287 21.1818H44.8287V20.1818H43.8287V21.1818ZM43.8287 31V32H44.8287V31H43.8287ZM42.3265 19.245L41.6343 19.9667L41.6416 19.9737L42.3265 19.245ZM42.3265 17.8004L41.6416 17.0718L41.6343 17.0787L42.3265 17.8004ZM43.8414 17.8004L43.1492 18.5221L43.1565 18.5291L43.8414 17.8004ZM43.8414 19.245L43.1565 18.5164L43.1492 18.5233L43.8414 19.245ZM43.3201 31V21.1818H41.3201V31H43.3201ZM42.3201 22.1818H43.8287V20.1818H42.3201V22.1818ZM42.8287 21.1818V31H44.8287V21.1818H42.8287ZM43.8287 30H42.3201V32H43.8287V30ZM43.0872 18.5455C43.056 18.5455 43.0447 18.5406 43.0438 18.5403C43.043 18.5399 43.0326 18.5363 43.0114 18.5164L41.6416 19.9737C42.0413 20.3493 42.5402 20.5455 43.0872 20.5455V18.5455ZM43.0188 18.5233C43.0089 18.5138 43.0051 18.5086 43.0048 18.5082C43.0047 18.508 43.0067 18.5109 43.0091 18.5164C43.0115 18.522 43.0129 18.5269 43.0135 18.53C43.014 18.5328 43.0133 18.5309 43.0133 18.5227H41.0133C41.0133 19.0851 41.2352 19.5839 41.6343 19.9667L43.0188 18.5233ZM43.0133 18.5227C43.0133 18.5146 43.014 18.5126 43.0135 18.5155C43.0129 18.5185 43.0115 18.5235 43.0091 18.529C43.0067 18.5346 43.0047 18.5374 43.0048 18.5372C43.0051 18.5369 43.0089 18.5316 43.0188 18.5221L41.6343 17.0787C41.2352 17.4615 41.0133 17.9603 41.0133 18.5227H43.0133ZM43.0114 18.5291C43.0326 18.5092 43.043 18.5055 43.0438 18.5052C43.0447 18.5048 43.056 18.5 43.0872 18.5V16.5C42.5402 16.5 42.0413 16.6961 41.6416 17.0718L43.0114 18.5291ZM43.0872 18.5C43.1037 18.5 43.114 18.5014 43.1191 18.5023C43.1241 18.5033 43.1261 18.5041 43.1262 18.5041C43.1264 18.5042 43.1275 18.5046 43.1302 18.5064C43.1331 18.5082 43.1395 18.5128 43.1492 18.5221L44.5337 17.0787C44.1353 16.6967 43.6345 16.5 43.0872 16.5V18.5ZM43.1565 18.5291C43.1672 18.539 43.1712 18.5446 43.1715 18.545C43.1717 18.5452 43.1694 18.5421 43.1667 18.5359C43.1639 18.5296 43.1621 18.5236 43.1613 18.5193C43.1604 18.5152 43.161 18.5159 43.161 18.5227H45.161C45.161 17.9534 44.9315 17.4526 44.5264 17.0718L43.1565 18.5291ZM43.161 18.5227C43.161 18.5296 43.1604 18.5302 43.1613 18.5261C43.1621 18.5218 43.1639 18.5159 43.1667 18.5096C43.1694 18.5034 43.1717 18.5002 43.1715 18.5004C43.1712 18.5009 43.1672 18.5064 43.1565 18.5164L44.5264 19.9737C44.9315 19.5928 45.161 19.092 45.161 18.5227H43.161ZM43.1492 18.5233C43.1395 18.5327 43.1331 18.5372 43.1302 18.5391C43.1275 18.5409 43.1264 18.5413 43.1262 18.5413C43.1261 18.5414 43.1241 18.5422 43.1191 18.5431C43.114 18.5441 43.1037 18.5455 43.0872 18.5455V20.5455C43.6345 20.5455 44.1353 20.3488 44.5337 19.9667L43.1492 18.5233ZM48.1001 31V32H49.1001V31H48.1001ZM46.5916 31H45.5916V32H46.5916V31ZM46.5916 21.1818V20.1818H45.5916V21.1818H46.5916ZM48.049 21.1818H49.049V20.1818H48.049V21.1818ZM48.049 22.7159H47.049V23.7159H48.049V22.7159ZM48.1768 22.7159V23.7159H48.8167L49.0848 23.135L48.1768 22.7159ZM49.2251 21.5142L49.7675 22.3544L49.7728 22.3509L49.2251 21.5142ZM52.7855 21.4631L52.3056 22.3404L52.3114 22.3435L52.7855 21.4631ZM53.9489 22.6903L53.0558 23.1403L53.0572 23.1431L53.9489 22.6903ZM54.3643 31V32H55.3643V31H54.3643ZM52.8558 31H51.8558V32H52.8558V31ZM52.255 23.0611L51.5196 23.7388L51.523 23.7424L52.255 23.0611ZM49.3146 22.7223L48.8323 21.8463L48.8281 21.8486L49.3146 22.7223ZM48.4261 23.6364L47.5472 23.1595L48.4261 23.6364ZM47.1001 25.0938V31H49.1001V25.0938H47.1001ZM48.1001 30H46.5916V32H48.1001V30ZM47.5916 31V21.1818H45.5916V31H47.5916ZM46.5916 22.1818H48.049V20.1818H46.5916V22.1818ZM47.049 21.1818V22.7159H49.049V21.1818H47.049ZM48.049 23.7159H48.1768V21.7159H48.049V23.7159ZM49.0848 23.135C49.2341 22.8115 49.4553 22.5558 49.7674 22.3544L48.6828 20.674C48.0574 21.0777 47.5798 21.6232 47.2689 22.2969L49.0848 23.135ZM49.7728 22.3509C50.0338 22.18 50.4318 22.054 51.0405 22.054V20.054C50.1662 20.054 49.3539 20.2347 48.6775 20.6775L49.7728 22.3509ZM51.0405 22.054C51.5661 22.054 51.9774 22.1608 52.3056 22.3404L53.2654 20.5857C52.5965 20.2198 51.8444 20.054 51.0405 20.054V22.054ZM52.3114 22.3435C52.6137 22.5063 52.8626 22.7569 53.0558 23.1403L54.8419 22.2404C54.4811 21.5243 53.9545 20.9568 53.2596 20.5826L52.3114 22.3435ZM53.0572 23.1431C53.2418 23.5066 53.3643 24.0289 53.3643 24.7614H55.3643C55.3643 23.8233 55.2099 22.965 54.8405 22.2376L53.0572 23.1431ZM53.3643 24.7614V31H55.3643V24.7614H53.3643ZM54.3643 30H52.8558V32H54.3643V30ZM53.8558 31V24.8636H51.8558V31H53.8558ZM53.8558 24.8636C53.8558 23.9206 53.608 23.0471 52.987 22.3798L51.523 23.7424C51.7031 23.9359 51.8558 24.2641 51.8558 24.8636H53.8558ZM52.9903 22.3834C52.3658 21.7058 51.5286 21.4091 50.6058 21.4091V23.4091C51.0808 23.4091 51.343 23.5471 51.5196 23.7388L52.9903 22.3834ZM50.6058 21.4091C49.9749 21.4091 49.3754 21.5473 48.8323 21.8463L49.7969 23.5983C50.0124 23.4797 50.2736 23.4091 50.6058 23.4091V21.4091ZM48.8281 21.8486C48.2769 22.1556 47.8492 22.6029 47.5472 23.1595L49.3051 24.1132C49.4378 23.8687 49.6024 23.7067 49.8011 23.596L48.8281 21.8486ZM47.5472 23.1595C47.2328 23.739 47.1001 24.3976 47.1001 25.0938H49.1001C49.1001 24.6479 49.1848 24.3349 49.3051 24.1132L47.5472 23.1595ZM59.2047 34.6051L59.5416 33.6635L59.5347 33.6611L59.2047 34.6051ZM57.8944 33.8764L58.5489 33.1204L58.5482 33.1198L57.8944 33.8764ZM57.0698 32.9176L56.4951 32.0992L55.7334 32.634L56.2123 33.4321L57.0698 32.9176ZM58.2715 32.0739L59.0669 31.4678L58.484 30.7028L57.6969 31.2555L58.2715 32.0739ZM58.7892 32.6875L59.5359 32.0223L59.5298 32.0155L58.7892 32.6875ZM59.6458 33.2947L60.0761 32.3921L60.0716 32.3899L59.6458 33.2947ZM63.0463 32.9815L63.6432 33.7839L63.0463 32.9815ZM63.8198 29.1847H64.8198V28.1847H63.8198V29.1847ZM63.6919 29.1847V28.1847H63.1349L62.8417 28.6583L63.6919 29.1847ZM63.2189 29.8494L62.4282 29.2373L62.4268 29.2391L63.2189 29.8494ZM62.3496 30.5462L62.8207 31.4282L62.8243 31.4263L62.3496 30.5462ZM58.6934 30.2841L58.1797 31.1421L58.1823 31.1436L58.6934 30.2841ZM57.204 28.6477L56.3117 29.0992L56.3139 29.1034L57.204 28.6477ZM57.1912 23.4126L58.0948 23.8412L58.0957 23.8392L57.1912 23.4126ZM58.6678 21.674L59.212 22.513L59.216 22.5104L58.6678 21.674ZM62.3752 21.3736L61.8811 22.2431L61.8929 22.2496L62.3752 21.3736ZM63.2445 22.0895L62.443 22.6875L62.4483 22.6946L62.4538 22.7017L63.2445 22.0895ZM63.7175 22.7415L62.8791 23.2865L63.1748 23.7415H63.7175V22.7415ZM63.8709 22.7415V23.7415H64.8709V22.7415H63.8709ZM63.8709 21.1818V20.1818H62.8709V21.1818H63.8709ZM65.3283 21.1818H66.3283V20.1818H65.3283V21.1818ZM64.753 33.3395L63.9437 32.7521L63.9384 32.7595L64.753 33.3395ZM63.2189 34.5092L62.8604 33.5757L62.8529 33.5786L63.2189 34.5092ZM62.5669 29.076L62.0142 28.2426L62.5669 29.076ZM63.5194 27.8807L64.442 28.2664V28.2664L63.5194 27.8807ZM63.5257 24.1413L64.4562 23.775V23.775L63.5257 24.1413ZM62.5797 22.8693L61.9876 23.6752L62.5797 22.8693ZM59.4348 22.8949L58.8297 22.0987L58.8259 22.1017L59.4348 22.8949ZM58.4824 24.1989L57.5509 23.835L57.5485 23.8414L58.4824 24.1989ZM58.4888 27.8232L57.5624 28.1998L57.5662 28.2088L58.4888 27.8232ZM59.4476 29.0504L58.8703 29.867L58.8797 29.8735L59.4476 29.0504ZM61.084 33.8864C60.4366 33.8864 59.93 33.8025 59.5415 33.6635L58.8679 35.5467C59.5277 35.7827 60.274 35.8864 61.084 35.8864V33.8864ZM59.5347 33.6611C59.1063 33.5113 58.7859 33.3256 58.5489 33.1204L57.2398 34.6324C57.7017 35.0323 58.2549 35.3324 58.8747 35.5491L59.5347 33.6611ZM58.5482 33.1198C58.2717 32.8809 58.0698 32.6407 57.9273 32.4031L56.2123 33.4321C56.4788 33.8763 56.8267 34.2754 57.2405 34.633L58.5482 33.1198ZM57.6444 33.736L58.8461 32.8923L57.6969 31.2555L56.4951 32.0992L57.6444 33.736ZM57.4761 32.6799C57.6349 32.8883 57.8273 33.1155 58.0487 33.3595L59.5298 32.0155C59.3336 31.7993 59.1808 31.6173 59.0669 31.4678L57.4761 32.6799ZM58.0426 33.3527C58.3621 33.7114 58.768 33.9869 59.22 34.1996L60.0716 32.3899C59.7991 32.2617 59.634 32.1324 59.5359 32.0223L58.0426 33.3527ZM59.2154 34.1974C59.7635 34.4587 60.4058 34.5568 61.084 34.5568V32.5568C60.5775 32.5568 60.261 32.4802 60.0761 32.3921L59.2154 34.1974ZM61.084 34.5568C62.0405 34.5568 62.9181 34.3232 63.6432 33.7839L62.4495 32.1792C62.1434 32.4069 61.7127 32.5568 61.084 32.5568V34.5568ZM63.6432 33.7839C64.4803 33.1612 64.8198 32.218 64.8198 31.179H62.8198C62.8198 31.7764 62.6436 32.0348 62.4495 32.1792L63.6432 33.7839ZM64.8198 31.179V29.1847H62.8198V31.179H64.8198ZM63.8198 28.1847H63.6919V30.1847H63.8198V28.1847ZM62.8417 28.6583C62.7566 28.7957 62.6222 28.9866 62.4282 29.2373L64.0097 30.4616C64.2247 30.1838 64.4057 29.9316 64.5422 29.711L62.8417 28.6583ZM62.4268 29.2391C62.3346 29.3588 62.1675 29.5082 61.8749 29.666L62.8243 31.4263C63.2902 31.175 63.7027 30.86 64.0111 30.4598L62.4268 29.2391ZM61.8785 29.6641C61.7033 29.7577 61.3792 29.8466 60.8283 29.8466V31.8466C61.5558 31.8466 62.2459 31.7352 62.8207 31.4282L61.8785 29.6641ZM60.8283 29.8466C60.2006 29.8466 59.6681 29.7003 59.2044 29.4246L58.1823 31.1436C58.9799 31.6179 59.8707 31.8466 60.8283 31.8466V29.8466ZM59.207 29.4261C58.7574 29.1569 58.3843 28.7588 58.0942 28.1921L56.3139 29.1034C56.7567 29.9685 57.3765 30.6613 58.1797 31.1421L59.207 29.4261ZM58.0963 28.1963C57.8216 27.6534 57.6607 26.9475 57.6607 26.0398H55.6607C55.6607 27.1775 55.8619 28.2102 56.3117 29.0992L58.0963 28.1963ZM57.6607 26.0398C57.6607 25.1505 57.8169 24.427 58.0948 23.8412L56.2877 22.9841C55.8581 23.8898 55.6607 24.9176 55.6607 26.0398H57.6607ZM58.0957 23.8392C58.3785 23.2396 58.7533 22.8105 59.212 22.513L58.1236 20.835C57.321 21.3557 56.7114 22.0857 56.2868 22.9861L58.0957 23.8392ZM59.216 22.5104C59.6682 22.214 60.2024 22.054 60.8539 22.054V20.054C59.8519 20.054 58.9288 20.3073 58.1196 20.8376L59.216 22.5104ZM60.8539 22.054C61.3974 22.054 61.7122 22.1471 61.8812 22.243L62.8692 20.5041C62.2881 20.174 61.5887 20.054 60.8539 20.054V22.054ZM61.8929 22.2496C62.1822 22.4089 62.3491 22.5617 62.443 22.6875L64.046 21.4915C63.7393 21.0804 63.3266 20.7559 62.8575 20.4976L61.8929 22.2496ZM62.4538 22.7017C62.6507 22.956 62.7897 23.1489 62.8791 23.2865L64.556 22.1965C64.4238 21.9931 64.2474 21.7514 64.0352 21.4773L62.4538 22.7017ZM63.7175 23.7415H63.8709V21.7415H63.7175V23.7415ZM64.8709 22.7415V21.1818H62.8709V22.7415H64.8709ZM63.8709 22.1818H65.3283V20.1818H63.8709V22.1818ZM64.3283 21.1818V31.2812H66.3283V21.1818H64.3283ZM64.3283 31.2812C64.3283 31.9757 64.1714 32.4384 63.9437 32.7521L65.5623 33.9269C66.1017 33.1838 66.3283 32.2743 66.3283 31.2812H64.3283ZM63.9384 32.7595C63.6795 33.1232 63.3308 33.395 62.8604 33.5757L63.5775 35.4427C64.3939 35.1291 65.0681 34.6211 65.5676 33.9195L63.9384 32.7595ZM62.8529 33.5786C62.3456 33.7782 61.7604 33.8864 61.084 33.8864V35.8864C61.9758 35.8864 62.8139 35.7431 63.585 35.4398L62.8529 33.5786ZM61.0328 30.4915C61.7933 30.4915 62.5069 30.3158 63.1197 29.9093L62.0142 28.2426C61.7918 28.3902 61.4826 28.4915 61.0328 28.4915V30.4915ZM63.1197 29.9094C63.7222 29.5097 64.1582 28.9453 64.442 28.2664L62.5967 27.495C62.4459 27.8559 62.2469 28.0883 62.0142 28.2426L63.1197 29.9094ZM64.442 28.2664C64.7227 27.5948 64.8453 26.8348 64.8453 26.0142H62.8453C62.8453 26.6424 62.7507 27.1268 62.5967 27.495L64.442 28.2664ZM64.8453 26.0142C64.8453 25.2078 64.724 24.4551 64.4562 23.775L62.5953 24.5077C62.7536 24.91 62.8453 25.4059 62.8453 26.0142H64.8453ZM64.4562 23.775C64.1828 23.0804 63.7595 22.4952 63.1718 22.0634L61.9876 23.6752C62.2352 23.8571 62.4426 24.1199 62.5953 24.5077L64.4562 23.775ZM63.1718 22.0634C62.5526 21.6085 61.8191 21.4091 61.0328 21.4091V23.4091C61.4739 23.4091 61.7716 23.5165 61.9876 23.6752L63.1718 22.0634ZM61.0328 21.4091C60.2189 21.4091 59.4618 21.6184 58.8298 22.0987L60.0399 23.691C60.2601 23.5237 60.5684 23.4091 61.0328 23.4091V21.4091ZM58.8259 22.1017C58.245 22.5476 57.8235 23.1374 57.551 23.835L59.4139 24.5627C59.5675 24.1694 59.7809 23.8899 60.0438 23.6881L58.8259 22.1017ZM57.5485 23.8414C57.2904 24.5156 57.1692 25.2439 57.1692 26.0142H59.1692C59.1692 25.4549 59.2568 24.9731 59.4163 24.5564L57.5485 23.8414ZM57.1692 26.0142C57.1692 26.7993 57.2919 27.5342 57.5624 28.1997L59.4152 27.4466C59.2596 27.0638 59.1692 26.5928 59.1692 26.0142H57.1692ZM57.5662 28.2088C57.8491 28.8856 58.2814 29.4505 58.8703 29.8669L60.025 28.2339C59.7701 28.0537 59.5632 27.8005 59.4114 27.4375L57.5662 28.2088ZM58.8797 29.8735C59.5063 30.3059 60.2442 30.4915 61.0328 30.4915V28.4915C60.5602 28.4915 60.2412 28.3831 60.0155 28.2273L58.8797 29.8735Z" fill="#E87F23" mask="url(#path-1-outside-1_282_1573)"/>
<line x1="11" y1="39" x2="67" y2="39" stroke="#E87F23" stroke-width="2"/>
<mask id="mask0_282_1573" style="mask-type:luminance" maskUnits="userSpaceOnUse" x="59" y="0" width="22" height="27">
<path d="M80.5 0.496094H59V26.2431H80.5V0.496094Z" fill="white"/>
</mask>
<g mask="url(#mask0_282_1573)">
<g opacity="0.96">
<path d="M80.5 21.6717L80.1 24.4389L75.8 23.3562L76.2 20.5889L80.5 21.6717Z" fill="#E87F23"/>
<path d="M79.3 9.39941L80.1 11.926L76.1 14.6932L75.3 12.1666L79.3 9.39941Z" fill="#E87F23"/>
<path d="M70.3999 0.496094L72.1999 1.4586L70.6999 7.35395L68.8999 6.39145L70.3999 0.496094Z" fill="#E87F23"/>
<path d="M59.8 1.4586L61.6 0.496094L63.1 6.39145L61.3 7.35395L59.8 1.4586Z" fill="#E87F23"/>
<path d="M72.1 26.2435L70.1 24.3185C70.9 22.9951 71.4 21.5512 71.4 19.8669C71.4 16.0168 68.8 12.7684 65.5 12.7684C63.7 12.7684 62 13.7309 60.9 15.4153L59 13.7309C60.6 11.3246 63 9.88086 65.5 9.88086C70.1 9.88086 73.9 14.4528 73.9 19.9872C73.9 22.2732 73.3 24.4388 72.1 26.2435Z" fill="#E87F23"/>
</g>
</g>
</svg>
