<svg width="30" height="28" viewBox="0 0 30 28" fill="none" xmlns="http://www.w3.org/2000/svg">
<g clip-path="url(#clip0_363_1591)">
<path d="M25.7581 26.2183L22.1581 23.316C23.7106 21.3977 24.5534 19.0023 24.5442 16.5346C24.542 14.2817 23.8399 12.0853 22.5349 10.2489C21.23 8.41246 19.3867 7.02689 17.26 6.28376C15.1332 5.54063 12.8282 5.47666 10.6635 6.10069C8.49882 6.72473 6.58152 8.00593 5.17674 9.76713L1.54883 6.87875C4.11341 3.6684 7.84826 1.60831 11.9318 1.15168C16.0153 0.695054 20.1129 1.87929 23.3232 4.44387C26.5336 7.00845 28.5937 10.7433 29.0503 14.8268C29.5069 18.9103 28.3227 23.0079 25.7581 26.2183Z" fill="#EE7225"/>
</g>
<defs>
<clipPath id="clip0_363_1591">
<rect width="30" height="27.3209" fill="white"/>
</clipPath>
</defs>
</svg>
