<svg id="Layer_1" data-name="Layer 1" xmlns="http://www.w3.org/2000/svg" viewBox="0 0 174 174"><defs><style>.cls-1{fill:#0ea8b5;}.cls-2{fill:#fff;}</style></defs><title>section3_if01</title><circle class="cls-1" cx="87" cy="87" r="87"/><path class="cls-2" d="M110.35,88.72c-3.39-.92-7.07.63-9.79,2.6a19.3,19.3,0,0,0-3.89,3.77c-1,1.34-1.47,3-2.43,4.35-.4.55-.23.47-.53.57,0,0-1.52-.35-1.77-.4a9.28,9.28,0,0,1-2.81-1.23,52.21,52.21,0,0,1-5.95-4.64L70.6,83.37c-1.76-1.45-4.13-2.94-4.91-5.19a3.77,3.77,0,0,1-.24-1.8l.15-.08a16.76,16.76,0,0,0,2.07-1.5C70,73,72.74,70.32,73.2,67.22c1.11-7.33-6.31-12.78-12.66-13.77-4.21-.66-7.17.15-10.28,3a28.09,28.09,0,0,0-7,9.75,20.1,20.1,0,0,0-.68,13.63c1.59,5,4.91,8.82,8.33,12.7,7.85,8.91,16,17.91,26.27,24,7,4,16.64,7.86,24.74,5,6.49-2.33,11.9-9,14.19-15.35C118.25,100.38,117.56,90.69,110.35,88.72Zm-45-12.25c-.27.26-.71.41,0,0Zm42,39.13c-7.44,4.6-18.6-.3-25.31-4.07C74.33,107,68,101,62,94.56c-5.45-5.85-12.65-12.2-14.77-20.19a18.35,18.35,0,0,1,.47-11c.71-1.93,1.8-4.36,4-5,1.56-.44,3.95,0,5.52.36a14.17,14.17,0,0,1,8.24,4.67,14.72,14.72,0,0,1,2,3.38,10.74,10.74,0,0,1,.81,2.77c0,.31,0,1.35,0,1.87-.29.22-.73.67-.83.74-.59.43-1.18.84-1.75,1.3a19.89,19.89,0,0,0-2.88,2.85C61,78.59,59.66,81.23,61.25,84c1.88,3.23,6,5.58,8.82,7.9q5.36,4.42,10.71,8.84c2.37,1.93,5.26,4.48,8.55,4.3,2.81-.16,5.18-2.33,6.88-4.38,1.57-1.88,2.39-5.44,4.09-6.12,3.76-1.52,7.26-.89,9.69,2.49C113.76,102.23,113.18,112,107.26,115.6Z" transform="translate(0)"/><path class="cls-2" d="M82.26,70.69c7.23-1.51,13.13,4.72,14.8,11.26.27,1.06,5.34-2.88,4.92-4.52-1.77-6.91-7.83-13.54-15.52-11.93-1.37.28-2.55,1.61-3.38,2.65C82.92,68.34,81.27,70.9,82.26,70.69Z" transform="translate(0)"/><path class="cls-2" d="M87.81,53.87c-1.35.23-2.57,1.64-3.38,2.66-.16.2-1.83,2.71-.81,2.54,12.68-2.13,21.88,8.6,23.72,20.2.14.91,5.19-2.76,4.92-4.52C110.37,62.8,100.9,51.68,87.81,53.87Z" transform="translate(0)"/><path class="cls-2" d="M110.12,48.24A22.35,22.35,0,0,0,91.25,43c-1.36.29-2.54,1.61-3.38,2.66-.15.19-1.8,2.75-.81,2.54C103,44.88,113.3,60,116.29,73.52c.23,1,5.3-2.84,4.92-4.52C119.5,61.27,116.29,53.49,110.12,48.24Z" transform="translate(0)"/></svg>