<svg width="72" height="37" viewBox="0 0 72 37" fill="none" xmlns="http://www.w3.org/2000/svg">
<mask id="path-1-outside-1_282_1576" maskUnits="userSpaceOnUse" x="0" y="15" width="56" height="17" fill="black">
<rect fill="white" y="15" width="56" height="17"/>
<path d="M11.9659 16.9091V30H10.4318L3.2983 19.7216H3.17045V30H1.58523V16.9091H3.11932L10.2784 27.2131H10.4062V16.9091H11.9659ZM18.9221 30.2045C18.0357 30.2045 17.258 29.9936 16.589 29.5717C15.9242 29.1499 15.4043 28.5597 15.0293 27.8011C14.6586 27.0426 14.4732 26.1562 14.4732 25.142C14.4732 24.1193 14.6586 23.2266 15.0293 22.4638C15.4043 21.701 15.9242 21.1087 16.589 20.6868C17.258 20.2649 18.0357 20.054 18.9221 20.054C19.8084 20.054 20.584 20.2649 21.2488 20.6868C21.9178 21.1087 22.4377 21.701 22.8084 22.4638C23.1834 23.2266 23.3709 24.1193 23.3709 25.142C23.3709 26.1562 23.1834 27.0426 22.8084 27.8011C22.4377 28.5597 21.9178 29.1499 21.2488 29.5717C20.584 29.9936 19.8084 30.2045 18.9221 30.2045ZM18.9221 28.8494C19.5953 28.8494 20.1493 28.6768 20.584 28.3317C21.0186 27.9865 21.3404 27.5327 21.5492 26.9702C21.758 26.4077 21.8624 25.7983 21.8624 25.142C21.8624 24.4858 21.758 23.8743 21.5492 23.3075C21.3404 22.7408 21.0186 22.2827 20.584 21.9332C20.1493 21.5838 19.5953 21.4091 18.9221 21.4091C18.2488 21.4091 17.6948 21.5838 17.2601 21.9332C16.8255 22.2827 16.5037 22.7408 16.2949 23.3075C16.0861 23.8743 15.9817 24.4858 15.9817 25.142C15.9817 25.7983 16.0861 26.4077 16.2949 26.9702C16.5037 27.5327 16.8255 27.9865 17.2601 28.3317C17.6948 28.6768 18.2488 28.8494 18.9221 28.8494ZM29.9435 20.1818V21.4602H24.8555V20.1818H29.9435ZM26.3384 17.8295H27.8469V27.1875C27.8469 27.6136 27.9087 27.9332 28.0323 28.1463C28.1602 28.3551 28.3221 28.4957 28.5181 28.5682C28.7184 28.6364 28.9293 28.6705 29.1509 28.6705C29.3171 28.6705 29.4535 28.6619 29.56 28.6449C29.6665 28.6236 29.7518 28.6065 29.8157 28.5938L30.1225 29.9489C30.0202 29.9872 29.8775 30.0256 29.6942 30.0639C29.511 30.1065 29.2788 30.1278 28.9975 30.1278C28.5714 30.1278 28.1538 30.0362 27.7447 29.853C27.3398 29.6697 27.0032 29.3906 26.7347 29.0156C26.4705 28.6406 26.3384 28.1676 26.3384 27.5966V17.8295ZM32.2127 30V20.1818H33.7212V30H32.2127ZM32.9798 18.5455C32.6857 18.5455 32.4322 18.4453 32.2191 18.245C32.0103 18.0447 31.9059 17.804 31.9059 17.5227C31.9059 17.2415 32.0103 17.0007 32.2191 16.8004C32.4322 16.6001 32.6857 16.5 32.9798 16.5C33.2738 16.5 33.5252 16.6001 33.734 16.8004C33.9471 17.0007 34.0536 17.2415 34.0536 17.5227C34.0536 17.804 33.9471 18.0447 33.734 18.245C33.5252 18.4453 33.2738 18.5455 32.9798 18.5455ZM40.4728 30.2045C39.5524 30.2045 38.7598 29.9872 38.095 29.5526C37.4302 29.1179 36.9189 28.5192 36.5609 27.7564C36.2029 26.9936 36.024 26.1222 36.024 25.142C36.024 24.1449 36.2072 23.2649 36.5737 22.5021C36.9444 21.7351 37.46 21.1364 38.1206 20.706C38.7853 20.2713 39.5609 20.054 40.4473 20.054C41.1376 20.054 41.7598 20.1818 42.3137 20.4375C42.8677 20.6932 43.3216 21.0511 43.6752 21.5114C44.0289 21.9716 44.2484 22.5085 44.3336 23.1222H42.8251C42.71 22.6747 42.4544 22.2784 42.0581 21.9332C41.666 21.5838 41.1376 21.4091 40.4728 21.4091C39.8848 21.4091 39.3691 21.5625 38.926 21.8693C38.487 22.1719 38.144 22.6001 37.8968 23.1541C37.6539 23.7038 37.5325 24.3494 37.5325 25.0909C37.5325 25.8494 37.6518 26.5099 37.8904 27.0724C38.1333 27.6349 38.4743 28.0717 38.9132 28.3828C39.3564 28.6939 39.8762 28.8494 40.4728 28.8494C40.8649 28.8494 41.2207 28.7812 41.5403 28.6449C41.8599 28.5085 42.1305 28.3125 42.3521 28.0568C42.5737 27.8011 42.7314 27.4943 42.8251 27.1364H44.3336C44.2484 27.7159 44.0375 28.2379 43.7008 28.7024C43.3684 29.1626 42.9274 29.5291 42.3777 29.8018C41.8322 30.0703 41.1973 30.2045 40.4728 30.2045ZM50.6554 30.2045C49.7093 30.2045 48.8933 29.9957 48.2072 29.5781C47.5254 29.1562 46.9991 28.5682 46.6284 27.8139C46.2619 27.0554 46.0787 26.1733 46.0787 25.1676C46.0787 24.1619 46.2619 23.2756 46.6284 22.5085C46.9991 21.7372 47.5147 21.1364 48.1752 20.706C48.84 20.2713 49.6156 20.054 50.502 20.054C51.0133 20.054 51.5183 20.1392 52.0169 20.3097C52.5154 20.4801 52.9693 20.7571 53.3784 21.1406C53.7875 21.5199 54.1135 22.0227 54.3564 22.6491C54.5993 23.2756 54.7207 24.0469 54.7207 24.9631V25.6023H47.1525V24.2983H53.1866C53.1866 23.7443 53.0758 23.25 52.8542 22.8153C52.6369 22.3807 52.3258 22.0376 51.921 21.7862C51.5204 21.5348 51.0474 21.4091 50.502 21.4091C49.9011 21.4091 49.3812 21.5582 48.9423 21.8565C48.5076 22.1506 48.1731 22.5341 47.9387 23.0071C47.7044 23.4801 47.5872 23.9872 47.5872 24.5284V25.3977C47.5872 26.1392 47.715 26.7678 47.9707 27.2834C48.2306 27.7947 48.5907 28.1847 49.051 28.4531C49.5112 28.7173 50.046 28.8494 50.6554 28.8494C51.0517 28.8494 51.4096 28.794 51.7292 28.6832C52.0531 28.5682 52.3322 28.3977 52.5666 28.1719C52.801 27.9418 52.9821 27.6562 53.1099 27.3153L54.5673 27.7244C54.4139 28.2188 54.1561 28.6534 53.7939 29.0284C53.4316 29.3991 52.9842 29.6889 52.4515 29.8977C51.9189 30.1023 51.3201 30.2045 50.6554 30.2045Z"/>
</mask>
<path d="M11.9659 16.9091V30H10.4318L3.2983 19.7216H3.17045V30H1.58523V16.9091H3.11932L10.2784 27.2131H10.4062V16.9091H11.9659ZM18.9221 30.2045C18.0357 30.2045 17.258 29.9936 16.589 29.5717C15.9242 29.1499 15.4043 28.5597 15.0293 27.8011C14.6586 27.0426 14.4732 26.1562 14.4732 25.142C14.4732 24.1193 14.6586 23.2266 15.0293 22.4638C15.4043 21.701 15.9242 21.1087 16.589 20.6868C17.258 20.2649 18.0357 20.054 18.9221 20.054C19.8084 20.054 20.584 20.2649 21.2488 20.6868C21.9178 21.1087 22.4377 21.701 22.8084 22.4638C23.1834 23.2266 23.3709 24.1193 23.3709 25.142C23.3709 26.1562 23.1834 27.0426 22.8084 27.8011C22.4377 28.5597 21.9178 29.1499 21.2488 29.5717C20.584 29.9936 19.8084 30.2045 18.9221 30.2045ZM18.9221 28.8494C19.5953 28.8494 20.1493 28.6768 20.584 28.3317C21.0186 27.9865 21.3404 27.5327 21.5492 26.9702C21.758 26.4077 21.8624 25.7983 21.8624 25.142C21.8624 24.4858 21.758 23.8743 21.5492 23.3075C21.3404 22.7408 21.0186 22.2827 20.584 21.9332C20.1493 21.5838 19.5953 21.4091 18.9221 21.4091C18.2488 21.4091 17.6948 21.5838 17.2601 21.9332C16.8255 22.2827 16.5037 22.7408 16.2949 23.3075C16.0861 23.8743 15.9817 24.4858 15.9817 25.142C15.9817 25.7983 16.0861 26.4077 16.2949 26.9702C16.5037 27.5327 16.8255 27.9865 17.2601 28.3317C17.6948 28.6768 18.2488 28.8494 18.9221 28.8494ZM29.9435 20.1818V21.4602H24.8555V20.1818H29.9435ZM26.3384 17.8295H27.8469V27.1875C27.8469 27.6136 27.9087 27.9332 28.0323 28.1463C28.1602 28.3551 28.3221 28.4957 28.5181 28.5682C28.7184 28.6364 28.9293 28.6705 29.1509 28.6705C29.3171 28.6705 29.4535 28.6619 29.56 28.6449C29.6665 28.6236 29.7518 28.6065 29.8157 28.5938L30.1225 29.9489C30.0202 29.9872 29.8775 30.0256 29.6942 30.0639C29.511 30.1065 29.2788 30.1278 28.9975 30.1278C28.5714 30.1278 28.1538 30.0362 27.7447 29.853C27.3398 29.6697 27.0032 29.3906 26.7347 29.0156C26.4705 28.6406 26.3384 28.1676 26.3384 27.5966V17.8295ZM32.2127 30V20.1818H33.7212V30H32.2127ZM32.9798 18.5455C32.6857 18.5455 32.4322 18.4453 32.2191 18.245C32.0103 18.0447 31.9059 17.804 31.9059 17.5227C31.9059 17.2415 32.0103 17.0007 32.2191 16.8004C32.4322 16.6001 32.6857 16.5 32.9798 16.5C33.2738 16.5 33.5252 16.6001 33.734 16.8004C33.9471 17.0007 34.0536 17.2415 34.0536 17.5227C34.0536 17.804 33.9471 18.0447 33.734 18.245C33.5252 18.4453 33.2738 18.5455 32.9798 18.5455ZM40.4728 30.2045C39.5524 30.2045 38.7598 29.9872 38.095 29.5526C37.4302 29.1179 36.9189 28.5192 36.5609 27.7564C36.2029 26.9936 36.024 26.1222 36.024 25.142C36.024 24.1449 36.2072 23.2649 36.5737 22.5021C36.9444 21.7351 37.46 21.1364 38.1206 20.706C38.7853 20.2713 39.5609 20.054 40.4473 20.054C41.1376 20.054 41.7598 20.1818 42.3137 20.4375C42.8677 20.6932 43.3216 21.0511 43.6752 21.5114C44.0289 21.9716 44.2484 22.5085 44.3336 23.1222H42.8251C42.71 22.6747 42.4544 22.2784 42.0581 21.9332C41.666 21.5838 41.1376 21.4091 40.4728 21.4091C39.8848 21.4091 39.3691 21.5625 38.926 21.8693C38.487 22.1719 38.144 22.6001 37.8968 23.1541C37.6539 23.7038 37.5325 24.3494 37.5325 25.0909C37.5325 25.8494 37.6518 26.5099 37.8904 27.0724C38.1333 27.6349 38.4743 28.0717 38.9132 28.3828C39.3564 28.6939 39.8762 28.8494 40.4728 28.8494C40.8649 28.8494 41.2207 28.7812 41.5403 28.6449C41.8599 28.5085 42.1305 28.3125 42.3521 28.0568C42.5737 27.8011 42.7314 27.4943 42.8251 27.1364H44.3336C44.2484 27.7159 44.0375 28.2379 43.7008 28.7024C43.3684 29.1626 42.9274 29.5291 42.3777 29.8018C41.8322 30.0703 41.1973 30.2045 40.4728 30.2045ZM50.6554 30.2045C49.7093 30.2045 48.8933 29.9957 48.2072 29.5781C47.5254 29.1562 46.9991 28.5682 46.6284 27.8139C46.2619 27.0554 46.0787 26.1733 46.0787 25.1676C46.0787 24.1619 46.2619 23.2756 46.6284 22.5085C46.9991 21.7372 47.5147 21.1364 48.1752 20.706C48.84 20.2713 49.6156 20.054 50.502 20.054C51.0133 20.054 51.5183 20.1392 52.0169 20.3097C52.5154 20.4801 52.9693 20.7571 53.3784 21.1406C53.7875 21.5199 54.1135 22.0227 54.3564 22.6491C54.5993 23.2756 54.7207 24.0469 54.7207 24.9631V25.6023H47.1525V24.2983H53.1866C53.1866 23.7443 53.0758 23.25 52.8542 22.8153C52.6369 22.3807 52.3258 22.0376 51.921 21.7862C51.5204 21.5348 51.0474 21.4091 50.502 21.4091C49.9011 21.4091 49.3812 21.5582 48.9423 21.8565C48.5076 22.1506 48.1731 22.5341 47.9387 23.0071C47.7044 23.4801 47.5872 23.9872 47.5872 24.5284V25.3977C47.5872 26.1392 47.715 26.7678 47.9707 27.2834C48.2306 27.7947 48.5907 28.1847 49.051 28.4531C49.5112 28.7173 50.046 28.8494 50.6554 28.8494C51.0517 28.8494 51.4096 28.794 51.7292 28.6832C52.0531 28.5682 52.3322 28.3977 52.5666 28.1719C52.801 27.9418 52.9821 27.6562 53.1099 27.3153L54.5673 27.7244C54.4139 28.2188 54.1561 28.6534 53.7939 29.0284C53.4316 29.3991 52.9842 29.6889 52.4515 29.8977C51.9189 30.1023 51.3201 30.2045 50.6554 30.2045Z" fill="#E87F23"/>
<path d="M11.9659 16.9091H12.9659V15.9091H11.9659V16.9091ZM11.9659 30V31H12.9659V30H11.9659ZM10.4318 30L9.61029 30.5702L9.90861 31H10.4318V30ZM3.2983 19.7216L4.11982 19.1514L3.82151 18.7216H3.2983V19.7216ZM3.17045 19.7216V18.7216H2.17045V19.7216H3.17045ZM3.17045 30V31H4.17045V30H3.17045ZM1.58523 30H0.585227V31H1.58523V30ZM1.58523 16.9091V15.9091H0.585227V16.9091H1.58523ZM3.11932 16.9091L3.94056 16.3385L3.6422 15.9091H3.11932V16.9091ZM10.2784 27.2131L9.45717 27.7837L9.75552 28.2131H10.2784V27.2131ZM10.4062 27.2131V28.2131H11.4062V27.2131H10.4062ZM10.4062 16.9091V15.9091H9.40625V16.9091H10.4062ZM10.9659 16.9091V30H12.9659V16.9091H10.9659ZM11.9659 29H10.4318V31H11.9659V29ZM11.2533 29.4298L4.11982 19.1514L2.47677 20.2918L9.61029 30.5702L11.2533 29.4298ZM3.2983 18.7216H3.17045V20.7216H3.2983V18.7216ZM2.17045 19.7216V30H4.17045V19.7216H2.17045ZM3.17045 29H1.58523V31H3.17045V29ZM2.58523 30V16.9091H0.585227V30H2.58523ZM1.58523 17.9091H3.11932V15.9091H1.58523V17.9091ZM2.29808 17.4797L9.45717 27.7837L11.0996 26.6425L3.94056 16.3385L2.29808 17.4797ZM10.2784 28.2131H10.4062V26.2131H10.2784V28.2131ZM11.4062 27.2131V16.9091H9.40625V27.2131H11.4062ZM10.4062 17.9091H11.9659V15.9091H10.4062V17.9091ZM16.589 29.5717L16.0531 30.4161L16.0556 30.4176L16.589 29.5717ZM15.0293 27.8011L14.1309 28.2403L14.1329 28.2443L15.0293 27.8011ZM15.0293 22.4638L14.1319 22.0226L14.1299 22.0266L15.0293 22.4638ZM16.589 20.6868L16.0556 19.8409L16.0531 19.8425L16.589 20.6868ZM21.2488 20.6868L20.7129 21.5311L20.7154 21.5327L21.2488 20.6868ZM22.8084 22.4638L21.909 22.9009L21.911 22.905L22.8084 22.4638ZM22.8084 27.8011L21.912 27.358L21.91 27.362L22.8084 27.8011ZM21.2488 29.5717L20.7154 28.7259L20.7129 28.7274L21.2488 29.5717ZM20.584 28.3317L19.9621 27.5486L20.584 28.3317ZM21.5492 26.9702L22.4867 27.3182V27.3182L21.5492 26.9702ZM21.5492 23.3075L22.4875 22.9618H22.4875L21.5492 23.3075ZM20.584 21.9332L21.2105 21.1539V21.1539L20.584 21.9332ZM17.2601 21.9332L16.6336 21.1539L17.2601 21.9332ZM16.2949 23.3075L15.3566 22.9618L16.2949 23.3075ZM16.2949 26.9702L15.3574 27.3182L16.2949 26.9702ZM17.2601 28.3317L17.882 27.5486L17.2601 28.3317ZM18.9221 29.2045C18.201 29.2045 17.6129 29.0352 17.1223 28.7259L16.0556 30.4176C16.903 30.952 17.8704 31.2045 18.9221 31.2045V29.2045ZM17.1248 28.7274C16.6263 28.411 16.2258 27.965 15.9257 27.358L14.1329 28.2443C14.5828 29.1543 15.2221 29.8887 16.0531 30.4161L17.1248 28.7274ZM15.9277 27.362C15.6359 26.765 15.4732 26.0343 15.4732 25.142H13.4732C13.4732 26.2782 13.6812 27.3202 14.1309 28.2403L15.9277 27.362ZM15.4732 25.142C15.4732 24.24 15.6364 23.5023 15.9287 22.9009L14.1299 22.0266C13.6807 22.9508 13.4732 23.9986 13.4732 25.142H15.4732ZM15.9267 22.905C16.2273 22.2936 16.6277 21.8466 17.1248 21.5311L16.0531 19.8425C15.2207 20.3707 14.5813 21.1084 14.1319 22.0226L15.9267 22.905ZM17.1223 21.5327C17.6129 21.2233 18.201 21.054 18.9221 21.054V19.054C17.8704 19.054 16.903 19.3065 16.0556 19.8409L17.1223 21.5327ZM18.9221 21.054C19.6432 21.054 20.2279 21.2233 20.7129 21.5311L21.7846 19.8425C20.94 19.3065 19.9736 19.054 18.9221 19.054V21.054ZM20.7154 21.5327C21.2152 21.8479 21.6137 22.2932 21.909 22.9009L23.7078 22.0266C23.2617 21.1088 22.6204 20.3695 21.7821 19.8409L20.7154 21.5327ZM21.911 22.905C22.2062 23.5053 22.3709 24.2416 22.3709 25.142H24.3709C24.3709 23.9971 24.1607 22.9478 23.7058 22.0226L21.911 22.905ZM22.3709 25.142C22.3709 26.0327 22.2066 26.762 21.912 27.358L23.7048 28.2443C24.1602 27.3233 24.3709 26.2798 24.3709 25.142H22.3709ZM21.91 27.362C21.6151 27.9654 21.2166 28.4098 20.7154 28.7259L21.7821 30.4176C22.619 29.8899 23.2603 29.1539 23.7068 28.2403L21.91 27.362ZM20.7129 28.7274C20.2279 29.0352 19.6432 29.2045 18.9221 29.2045V31.2045C19.9736 31.2045 20.94 30.952 21.7846 30.4161L20.7129 28.7274ZM18.9221 29.8494C19.7715 29.8494 20.559 29.6285 21.2059 29.1148L19.9621 27.5486C19.7396 27.7252 19.4192 27.8494 18.9221 27.8494V29.8494ZM21.2059 29.1148C21.795 28.6469 22.2197 28.0374 22.4867 27.3182L20.6117 26.6222C20.4611 27.0279 20.2423 27.3261 19.9621 27.5486L21.2059 29.1148ZM22.4867 27.3182C22.7405 26.6343 22.8624 25.906 22.8624 25.142H20.8624C20.8624 25.6906 20.7755 26.181 20.6117 26.6222L22.4867 27.3182ZM22.8624 25.142C22.8624 24.378 22.7405 23.6485 22.4875 22.9618L20.6108 23.6532C20.7755 24.1001 20.8624 24.5935 20.8624 25.142H22.8624ZM22.4875 22.9618C22.2214 22.2395 21.7982 21.6263 21.2105 21.1539L19.9574 22.7126C20.2391 22.939 20.4593 23.242 20.6108 23.6532L22.4875 22.9618ZM21.2105 21.1539C20.5636 20.6337 19.7743 20.4091 18.9221 20.4091V22.4091C19.4164 22.4091 19.7351 22.5339 19.9574 22.7126L21.2105 21.1539ZM18.9221 20.4091C18.0698 20.4091 17.2805 20.6337 16.6336 21.1539L17.8867 22.7126C18.109 22.5339 18.4277 22.4091 18.9221 22.4091V20.4091ZM16.6336 21.1539C16.0459 21.6263 15.6227 22.2395 15.3566 22.9618L17.2333 23.6532C17.3848 23.242 17.605 22.939 17.8867 22.7126L16.6336 21.1539ZM15.3566 22.9618C15.1036 23.6485 14.9817 24.378 14.9817 25.142H16.9817C16.9817 24.5935 17.0686 24.1001 17.2333 23.6532L15.3566 22.9618ZM14.9817 25.142C14.9817 25.906 15.1036 26.6343 15.3574 27.3182L17.2324 26.6222C17.0687 26.181 16.9817 25.6906 16.9817 25.142H14.9817ZM15.3574 27.3182C15.6244 28.0374 16.0491 28.6469 16.6382 29.1148L17.882 27.5486C17.6018 27.3261 17.383 27.0279 17.2324 26.6222L15.3574 27.3182ZM16.6382 29.1148C17.2851 29.6285 18.0726 29.8494 18.9221 29.8494V27.8494C18.4249 27.8494 18.1045 27.7252 17.882 27.5486L16.6382 29.1148ZM29.9435 20.1818H30.9435V19.1818H29.9435V20.1818ZM29.9435 21.4602V22.4602H30.9435V21.4602H29.9435ZM24.8555 21.4602H23.8555V22.4602H24.8555V21.4602ZM24.8555 20.1818V19.1818H23.8555V20.1818H24.8555ZM26.3384 17.8295V16.8295H25.3384V17.8295H26.3384ZM27.8469 17.8295H28.8469V16.8295H27.8469V17.8295ZM28.0323 28.1463L27.1673 28.648L27.1733 28.6583L27.1795 28.6685L28.0323 28.1463ZM28.5181 28.5682L28.1715 29.5062L28.1836 29.5107L28.1958 29.5148L28.5181 28.5682ZM29.56 28.6449L29.718 29.6323L29.7371 29.6293L29.7561 29.6255L29.56 28.6449ZM29.8157 28.5938L30.791 28.3729L30.5757 27.4219L29.6196 27.6132L29.8157 28.5938ZM30.1225 29.9489L30.4736 30.8852L31.2905 30.5789L31.0978 29.728L30.1225 29.9489ZM29.6942 30.0639L29.4894 29.0851L29.4785 29.0874L29.4677 29.0899L29.6942 30.0639ZM27.7447 29.853L27.3323 30.764L27.3359 30.7656L27.7447 29.853ZM26.7347 29.0156L25.9172 29.5916L25.9216 29.5977L26.7347 29.0156ZM28.9435 20.1818V21.4602H30.9435V20.1818H28.9435ZM29.9435 20.4602H24.8555V22.4602H29.9435V20.4602ZM25.8555 21.4602V20.1818H23.8555V21.4602H25.8555ZM24.8555 21.1818H29.9435V19.1818H24.8555V21.1818ZM26.3384 18.8295H27.8469V16.8295H26.3384V18.8295ZM26.8469 17.8295V27.1875H28.8469V17.8295H26.8469ZM26.8469 27.1875C26.8469 27.6775 26.9122 28.2083 27.1673 28.648L28.8973 27.6446C28.9064 27.6602 28.8912 27.6402 28.8751 27.557C28.8593 27.4755 28.8469 27.3552 28.8469 27.1875H26.8469ZM27.1795 28.6685C27.4036 29.0345 27.73 29.343 28.1715 29.5062L28.8648 27.6302C28.8728 27.6332 28.8811 27.6371 28.889 27.6418C28.8968 27.6464 28.9023 27.6507 28.9053 27.6533C28.9117 27.6588 28.9031 27.6534 28.8852 27.6242L27.1795 28.6685ZM28.1958 29.5148C28.5047 29.62 28.8249 29.6705 29.1509 29.6705V27.6705C29.0337 27.6705 28.932 27.6527 28.8404 27.6215L28.1958 29.5148ZM29.1509 29.6705C29.345 29.6705 29.5393 29.6609 29.718 29.6323L29.402 27.6574C29.3677 27.6629 29.2892 27.6705 29.1509 27.6705V29.6705ZM29.7561 29.6255C29.8627 29.6042 29.9479 29.5871 30.0118 29.5743L29.6196 27.6132C29.5557 27.626 29.4704 27.643 29.3639 27.6643L29.7561 29.6255ZM28.8404 28.8146L29.1472 30.1697L31.0978 29.728L30.791 28.3729L28.8404 28.8146ZM29.7714 29.0125C29.7386 29.0248 29.6526 29.051 29.4894 29.0851L29.8991 31.0427C30.1024 31.0002 30.3019 30.9496 30.4736 30.8852L29.7714 29.0125ZM29.4677 29.0899C29.3856 29.109 29.2361 29.1278 28.9975 29.1278V31.1278C29.3214 31.1278 29.6365 31.104 29.9208 31.0379L29.4677 29.0899ZM28.9975 29.1278C28.7196 29.1278 28.4408 29.069 28.1535 28.9404L27.3359 30.7656C27.8668 31.0034 28.4232 31.1278 28.9975 31.1278V29.1278ZM28.157 28.942C27.9186 28.834 27.718 28.6712 27.5478 28.4335L25.9216 29.5977C26.2884 30.11 26.7611 30.5055 27.3323 30.764L28.157 28.942ZM27.5522 28.4397C27.4331 28.2706 27.3384 28.0123 27.3384 27.5966H25.3384C25.3384 28.3229 25.508 29.0107 25.9172 29.5916L27.5522 28.4397ZM27.3384 27.5966V17.8295H25.3384V27.5966H27.3384ZM32.2127 30H31.2127V31H32.2127V30ZM32.2127 20.1818V19.1818H31.2127V20.1818H32.2127ZM33.7212 20.1818H34.7212V19.1818H33.7212V20.1818ZM33.7212 30V31H34.7212V30H33.7212ZM32.2191 18.245L31.5268 18.9667L31.5342 18.9737L32.2191 18.245ZM32.2191 16.8004L31.5342 16.0718L31.5269 16.0787L32.2191 16.8004ZM33.734 16.8004L33.0418 17.5221L33.0491 17.5291L33.734 16.8004ZM33.734 18.245L33.0491 17.5164L33.0418 17.5233L33.734 18.245ZM33.2127 30V20.1818H31.2127V30H33.2127ZM32.2127 21.1818H33.7212V19.1818H32.2127V21.1818ZM32.7212 20.1818V30H34.7212V20.1818H32.7212ZM33.7212 29H32.2127V31H33.7212V29ZM32.9798 17.5455C32.9485 17.5455 32.9373 17.5406 32.9364 17.5403C32.9356 17.5399 32.9251 17.5363 32.904 17.5164L31.5342 18.9737C31.9338 19.3493 32.4328 19.5455 32.9798 19.5455V17.5455ZM32.9113 17.5233C32.9014 17.5138 32.8977 17.5086 32.8974 17.5082C32.8973 17.508 32.8993 17.5109 32.9017 17.5164C32.9041 17.522 32.9054 17.5269 32.9061 17.53C32.9066 17.5328 32.9059 17.5309 32.9059 17.5227H30.9059C30.9059 18.0851 31.1278 18.5839 31.5269 18.9667L32.9113 17.5233ZM32.9059 17.5227C32.9059 17.5146 32.9066 17.5126 32.9061 17.5155C32.9054 17.5185 32.9041 17.5235 32.9017 17.529C32.8993 17.5346 32.8973 17.5374 32.8974 17.5372C32.8977 17.5369 32.9014 17.5316 32.9113 17.5221L31.5269 16.0787C31.1278 16.4615 30.9059 16.9603 30.9059 17.5227H32.9059ZM32.904 17.5291C32.9251 17.5092 32.9356 17.5055 32.9364 17.5052C32.9373 17.5048 32.9485 17.5 32.9798 17.5V15.5C32.4328 15.5 31.9338 15.6961 31.5342 16.0718L32.904 17.5291ZM32.9798 17.5C32.9963 17.5 33.0066 17.5014 33.0117 17.5023C33.0167 17.5033 33.0187 17.5041 33.0188 17.5041C33.019 17.5042 33.0201 17.5046 33.0228 17.5064C33.0256 17.5082 33.0321 17.5128 33.0418 17.5221L34.4262 16.0787C34.0279 15.6967 33.5271 15.5 32.9798 15.5V17.5ZM33.0491 17.5291C33.0597 17.539 33.0638 17.5446 33.0641 17.545C33.0643 17.5452 33.062 17.5421 33.0592 17.5359C33.0565 17.5296 33.0547 17.5236 33.0538 17.5193C33.053 17.5152 33.0536 17.5159 33.0536 17.5227H35.0536C35.0536 16.9534 34.8241 16.4526 34.4189 16.0718L33.0491 17.5291ZM33.0536 17.5227C33.0536 17.5296 33.053 17.5302 33.0538 17.5261C33.0547 17.5218 33.0565 17.5159 33.0592 17.5096C33.062 17.5034 33.0643 17.5002 33.0641 17.5004C33.0638 17.5009 33.0597 17.5064 33.0491 17.5164L34.4189 18.9737C34.8241 18.5928 35.0536 18.092 35.0536 17.5227H33.0536ZM33.0418 17.5233C33.0321 17.5327 33.0256 17.5372 33.0228 17.5391C33.0201 17.5409 33.019 17.5413 33.0188 17.5413C33.0187 17.5414 33.0167 17.5422 33.0117 17.5431C33.0066 17.5441 32.9963 17.5455 32.9798 17.5455V19.5455C33.5271 19.5455 34.0279 19.3488 34.4262 18.9667L33.0418 17.5233ZM38.095 29.5526L37.5477 30.3895L38.095 29.5526ZM36.5737 22.5021L35.6733 22.067L35.6723 22.0691L36.5737 22.5021ZM38.1206 20.706L38.6665 21.5438L38.6678 21.5429L38.1206 20.706ZM43.6752 21.5114L44.4681 20.902V20.902L43.6752 21.5114ZM44.3336 23.1222V24.1222H45.4821L45.3241 22.9846L44.3336 23.1222ZM42.8251 23.1222L41.8566 23.3712L42.0497 24.1222H42.8251V23.1222ZM42.0581 21.9332L41.3926 22.6798L41.4013 22.6873L42.0581 21.9332ZM38.926 21.8693L39.4935 22.6927L39.4952 22.6915L38.926 21.8693ZM37.8968 23.1541L36.9836 22.7467L36.9822 22.75L37.8968 23.1541ZM37.8904 27.0724L36.9698 27.463L36.9724 27.4689L37.8904 27.0724ZM38.9132 28.3828L38.3349 29.1987L38.3387 29.2013L38.9132 28.3828ZM41.5403 28.6449L41.1479 27.7251L41.5403 28.6449ZM42.3521 28.0568L43.1078 28.7117L42.3521 28.0568ZM42.8251 27.1364V26.1364H42.0533L41.8577 26.883L42.8251 27.1364ZM44.3336 27.1364L45.323 27.2819L45.4914 26.1364H44.3336V27.1364ZM43.7008 28.7024L42.8911 28.1156L42.8901 28.1169L43.7008 28.7024ZM42.3777 29.8018L42.8193 30.6991L42.8221 30.6977L42.3777 29.8018ZM40.4728 29.2045C39.7151 29.2045 39.1197 29.0278 38.6422 28.7156L37.5477 30.3895C38.3998 30.9466 39.3896 31.2045 40.4728 31.2045V29.2045ZM38.6422 28.7156C38.1423 28.3887 37.7503 27.9371 37.4662 27.3316L35.6556 28.1812C36.0874 29.1013 36.7181 29.8471 37.5477 30.3895L38.6422 28.7156ZM37.4662 27.3316C37.18 26.7217 37.024 25.9992 37.024 25.142H35.024C35.024 26.2452 35.2259 27.2655 35.6556 28.1812L37.4662 27.3316ZM37.024 25.142C37.024 24.2683 37.1841 23.5408 37.4751 22.9352L35.6723 22.0691C35.2303 22.989 35.024 24.0215 35.024 25.142H37.024ZM37.474 22.9373C37.7721 22.3205 38.1709 21.8668 38.6665 21.5438L37.5746 19.8681C36.7492 20.406 36.1167 21.1496 35.6733 22.067L37.474 22.9373ZM38.6678 21.5429C39.1514 21.2267 39.732 21.054 40.4473 21.054V19.054C39.3899 19.054 38.4193 19.3159 37.5733 19.869L38.6678 21.5429ZM40.4473 21.054C41.012 21.054 41.4884 21.1579 41.8947 21.3455L42.7328 19.5295C42.0312 19.2057 41.2632 19.054 40.4473 19.054V21.054ZM41.8947 21.3455C42.3095 21.5369 42.6324 21.7954 42.8824 22.1207L44.4681 20.902C44.0108 20.3069 43.426 19.8495 42.7328 19.5295L41.8947 21.3455ZM42.8824 22.1207C43.1233 22.4342 43.2801 22.8059 43.3431 23.2597L45.3241 22.9846C45.2167 22.2112 44.9346 21.509 44.4681 20.902L42.8824 22.1207ZM44.3336 22.1222H42.8251V24.1222H44.3336V22.1222ZM43.7936 22.8731C43.6214 22.2035 43.242 21.6383 42.7148 21.1792L41.4013 22.6873C41.6667 22.9185 41.7987 23.1459 41.8566 23.3712L43.7936 22.8731ZM42.7234 21.1867C42.1034 20.6341 41.3155 20.4091 40.4728 20.4091V22.4091C40.9597 22.4091 41.2286 22.5335 41.3927 22.6798L42.7234 21.1867ZM40.4728 20.4091C39.7008 20.4091 38.9824 20.614 38.3568 21.0471L39.4952 22.6915C39.7558 22.511 40.0688 22.4091 40.4728 22.4091V20.4091ZM38.3584 21.046C37.7483 21.4666 37.2951 22.0486 36.9836 22.7467L38.8101 23.5616C38.9929 23.1517 39.2258 22.8772 39.4935 22.6927L38.3584 21.046ZM36.9822 22.75C36.6715 23.4531 36.5325 24.2419 36.5325 25.0909H38.5325C38.5325 24.457 38.6364 23.9546 38.8115 23.5583L36.9822 22.75ZM36.5325 25.0909C36.5325 25.9522 36.6678 26.751 36.9699 27.463L38.811 26.6819C38.6358 26.2689 38.5325 25.7466 38.5325 25.0909H36.5325ZM36.9724 27.4689C37.2777 28.1758 37.7265 28.7675 38.3349 29.1987L39.4914 27.5669C39.222 27.376 38.989 27.0941 38.8085 26.676L36.9724 27.4689ZM38.3387 29.2013C38.9672 29.6425 39.6925 29.8494 40.4728 29.8494V27.8494C40.0599 27.8494 39.7455 27.7453 39.4877 27.5643L38.3387 29.2013ZM40.4728 29.8494C40.9825 29.8494 41.4741 29.7603 41.9327 29.5647L41.1479 27.7251C40.9673 27.8022 40.7473 27.8494 40.4728 27.8494V29.8494ZM41.9327 29.5647C42.3881 29.3704 42.784 29.0853 43.1078 28.7117L41.5964 27.4019C41.477 27.5397 41.3317 27.6467 41.1479 27.7251L41.9327 29.5647ZM43.1078 28.7117C43.4389 28.3297 43.6636 27.8819 43.7925 27.3897L41.8577 26.883C41.7991 27.1068 41.7084 27.2726 41.5964 27.4019L43.1078 28.7117ZM42.8251 28.1364H44.3336V26.1364H42.8251V28.1364ZM43.3443 26.9909C43.282 27.4145 43.1311 27.7844 42.8911 28.1156L44.5105 29.2893C44.9438 28.6914 45.2148 28.0173 45.323 27.2819L43.3443 26.9909ZM42.8901 28.1169C42.6604 28.435 42.3495 28.6995 41.9332 28.906L42.8221 30.6977C43.5052 30.3587 44.0765 29.8903 44.5115 29.2879L42.8901 28.1169ZM41.9361 28.9046C41.5519 29.0937 41.0732 29.2045 40.4728 29.2045V31.2045C41.3213 31.2045 42.1125 31.0469 42.8193 30.6991L41.9361 28.9046ZM48.2072 29.5781L47.681 30.4285L47.6873 30.4323L48.2072 29.5781ZM46.6284 27.8139L45.7279 28.249L45.7309 28.255L46.6284 27.8139ZM46.6284 22.5085L45.7271 22.0753L45.7261 22.0774L46.6284 22.5085ZM48.1752 20.706L48.7212 21.5438L48.7225 21.5429L48.1752 20.706ZM52.0169 20.3097L52.3404 19.3634L52.3404 19.3634L52.0169 20.3097ZM53.3784 21.1406L52.6944 21.8702L52.6985 21.874L53.3784 21.1406ZM54.3564 22.6491L55.2887 22.2876V22.2876L54.3564 22.6491ZM54.7207 25.6023V26.6023H55.7207V25.6023H54.7207ZM47.1525 25.6023H46.1525V26.6023H47.1525V25.6023ZM47.1525 24.2983V23.2983H46.1525V24.2983H47.1525ZM53.1866 24.2983V25.2983H54.1866V24.2983H53.1866ZM52.8542 22.8153L51.9598 23.2626L51.9633 23.2695L52.8542 22.8153ZM51.921 21.7862L51.3894 22.6332L51.3934 22.6357L51.921 21.7862ZM48.9423 21.8565L49.5026 22.6848L49.5044 22.6836L48.9423 21.8565ZM47.9387 23.0071L47.0427 22.5631L47.9387 23.0071ZM47.9707 27.2834L47.0748 27.7277L47.0793 27.7365L47.9707 27.2834ZM49.051 28.4531L48.5471 29.3169L48.5531 29.3204L49.051 28.4531ZM51.7292 28.6832L52.0568 29.6281L52.064 29.6255L51.7292 28.6832ZM52.5666 28.1719L53.2605 28.892L53.2672 28.8854L52.5666 28.1719ZM53.1099 27.3153L53.3802 26.3526L52.496 26.1044L52.1736 26.9642L53.1099 27.3153ZM54.5673 27.7244L55.5224 28.0208L55.827 27.0394L54.8376 26.7616L54.5673 27.7244ZM53.7939 29.0284L54.5091 29.7273L54.5131 29.7232L53.7939 29.0284ZM52.4515 29.8977L52.81 30.8313L52.8165 30.8288L52.4515 29.8977ZM50.6554 29.2045C49.8598 29.2045 49.2306 29.0304 48.7272 28.7239L47.6873 30.4323C48.556 30.9611 49.5589 31.2045 50.6554 31.2045V29.2045ZM48.7334 28.7277C48.2192 28.4096 47.8179 27.967 47.5258 27.3728L45.7309 28.255C46.1803 29.1694 46.8316 29.9029 47.681 30.4285L48.7334 28.7277ZM47.5288 27.3789C47.2394 26.7798 47.0787 26.0515 47.0787 25.1676H45.0787C45.0787 26.2951 45.2844 27.331 45.728 28.249L47.5288 27.3789ZM47.0787 25.1676C47.0787 24.2841 47.2392 23.5496 47.5307 22.9396L45.7261 22.0774C45.2845 23.0015 45.0787 24.0398 45.0787 25.1676H47.0787ZM47.5297 22.9417C47.8282 22.3207 48.2269 21.8659 48.7212 21.5438L47.6293 19.8681C46.8026 20.4069 46.17 21.1538 45.7271 22.0753L47.5297 22.9417ZM48.7225 21.5429C49.2061 21.2267 49.7866 21.054 50.502 21.054V19.054C49.4445 19.054 48.474 19.3159 47.628 19.869L48.7225 21.5429ZM50.502 21.054C50.8999 21.054 51.2957 21.1199 51.6934 21.2559L52.3404 19.3634C51.7409 19.1585 51.1267 19.054 50.502 19.054V21.054ZM51.6934 21.2559C52.0493 21.3776 52.382 21.5773 52.6944 21.8702L54.0623 20.4111C53.5566 19.9369 52.9816 19.5827 52.3404 19.3634L51.6934 21.2559ZM52.6985 21.874C52.9759 22.1311 53.2249 22.4972 53.424 23.0107L55.2887 22.2876C55.002 21.5482 54.5991 20.9087 54.0582 20.4073L52.6985 21.874ZM53.424 23.0107C53.6092 23.4882 53.7207 24.1285 53.7207 24.9631H55.7207C55.7207 23.9653 55.5893 23.0629 55.2887 22.2876L53.424 23.0107ZM53.7207 24.9631V25.6023H55.7207V24.9631H53.7207ZM54.7207 24.6023H47.1525V26.6023H54.7207V24.6023ZM48.1525 25.6023V24.2983H46.1525V25.6023H48.1525ZM47.1525 25.2983H53.1866V23.2983H47.1525V25.2983ZM54.1866 24.2983C54.1866 23.608 54.0476 22.9545 53.7451 22.3612L51.9633 23.2695C52.104 23.5455 52.1866 23.8806 52.1866 24.2983H54.1866ZM53.7487 22.3681C53.4503 21.7715 53.0138 21.2877 52.4486 20.9367L51.3934 22.6357C51.6379 22.7875 51.8235 22.9899 51.9598 23.2626L53.7487 22.3681ZM52.4526 20.9392C51.8695 20.5733 51.206 20.4091 50.502 20.4091V22.4091C50.8888 22.4091 51.1713 22.4963 51.3894 22.6332L52.4526 20.9392ZM50.502 20.4091C49.7281 20.4091 49.0062 20.604 48.3802 21.0295L49.5044 22.6836C49.7562 22.5125 50.0741 22.4091 50.502 22.4091V20.4091ZM48.382 21.0283C47.8032 21.4198 47.3534 21.9361 47.0427 22.5631L48.8348 23.4511C48.9928 23.1321 49.2121 22.8813 49.5026 22.6848L48.382 21.0283ZM47.0427 22.5631C46.7382 23.1777 46.5872 23.8372 46.5872 24.5284H48.5872C48.5872 24.1372 48.6705 23.7825 48.8348 23.4511L47.0427 22.5631ZM46.5872 24.5284V25.3977H48.5872V24.5284H46.5872ZM46.5872 25.3977C46.5872 26.2504 46.7338 27.04 47.0748 27.7276L48.8666 26.8391C48.6962 26.4955 48.5872 26.028 48.5872 25.3977H46.5872ZM47.0793 27.7365C47.4193 28.4055 47.9081 28.9442 48.5471 29.3169L49.5548 27.5893C49.2734 27.4252 49.042 27.184 48.8621 26.8302L47.0793 27.7365ZM48.5531 29.3204C49.1861 29.6838 49.8976 29.8494 50.6554 29.8494V27.8494C50.1944 27.8494 49.8363 27.7509 49.5488 27.5859L48.5531 29.3204ZM50.6554 29.8494C51.1445 29.8494 51.6155 29.781 52.0568 29.6281L51.4017 27.7384C51.2038 27.807 50.9589 27.8494 50.6554 27.8494V29.8494ZM52.064 29.6255C52.5144 29.4655 52.9179 29.2221 53.2605 28.892L51.8727 27.4518C51.7465 27.5734 51.5918 27.6708 51.3945 27.7409L52.064 29.6255ZM53.2672 28.8854C53.6164 28.5425 53.8728 28.129 54.0462 27.6665L52.1736 26.9642C52.0913 27.1835 51.9855 27.341 51.866 27.4583L53.2672 28.8854ZM52.8397 28.2781L54.297 28.6872L54.8376 26.7616L53.3802 26.3526L52.8397 28.2781ZM53.6122 27.428C53.5055 27.7718 53.329 28.0703 53.0746 28.3337L54.5131 29.7232C54.9832 29.2365 55.3222 28.6657 55.5224 28.0208L53.6122 27.428ZM53.0786 28.3296C52.8252 28.5889 52.5011 28.8042 52.0866 28.9667L52.8165 30.8288C53.4673 30.5736 54.0381 30.2094 54.5091 29.7272L53.0786 28.3296ZM52.093 28.9642C51.692 29.1182 51.2175 29.2045 50.6554 29.2045V31.2045C51.4228 31.2045 52.1457 31.0864 52.81 30.8313L52.093 28.9642Z" fill="#E87F23" mask="url(#path-1-outside-1_282_1576)"/>
<g clip-path="url(#clip0_282_1576)">
<g opacity="0.96">
<path d="M71.4998 17.6002L71.0998 19.9002L66.7998 19.0002L67.1998 16.7002L71.4998 17.6002Z" fill="#EE7225"/>
<path d="M70.2998 7.40039L71.0998 9.50039L67.0998 11.8004L66.2998 9.70039L70.2998 7.40039Z" fill="#EE7225"/>
<path d="M61.3999 0L63.1999 0.8L61.6999 5.7L59.8999 4.9L61.3999 0Z" fill="#EE7225"/>
<path d="M50.7998 0.8L52.5998 0L54.0998 4.9L52.2998 5.7L50.7998 0.8Z" fill="#EE7225"/>
<path d="M63.1 21.3998L61.1 19.7998C61.9 18.6998 62.4 17.4998 62.4 16.0998C62.4 12.8998 59.8 10.1998 56.5 10.1998C54.7 10.1998 53 10.9998 51.9 12.3998L50 10.9998C51.6 8.9998 54 7.7998 56.5 7.7998C61.1 7.7998 64.9 11.5998 64.9 16.1998C64.9 18.0998 64.3 19.8998 63.1 21.3998Z" fill="#EE7225"/>
</g>
</g>
<line x1="13" y1="36" x2="56" y2="36" stroke="#E87F23" stroke-width="2"/>
<defs>
<clipPath id="clip0_282_1576">
<rect width="21.5" height="21.4" fill="white" transform="translate(50)"/>
</clipPath>
</defs>
</svg>
