<?xml version="1.0" encoding="UTF-8"?>
<svg id="_레이어_1" data-name="레이어 1" xmlns="http://www.w3.org/2000/svg" viewBox="0 0 173.21 173.21">
  <defs>
    <style>
      .cls-1 {
        fill: #231815;
        stroke-width: 0px;
      }

      .cls-2 {
        fill: #fff;
        stroke: #000;
        stroke-width: 4px;
      }
    </style>
  </defs>
  <circle class="cls-2" cx="86.61" cy="86.61" r="84.61"/>
  <path class="cls-1" d="M96.01,57.32c7.76,1.78,14.34,5.24,19.58,10.31-3.75,1.87-8.23,3.36-13.35,4.46-.35-.95-.69-2.15-1.11-3.74-1.03-4.12-2.77-7.82-5.13-11.03ZM123.45,85.6c.02,4.8-1.44,9.44-4.38,13.79-4.82-2.44-10.19-4.19-15.94-5.27.29-3.26.42-6.07.42-8.54s-.16-5.37-.45-8.53c5.79-1.05,11.15-2.82,15.94-5.26,2.93,4.35,4.4,8.99,4.4,13.81h0ZM115.52,103.57c-5,4.94-11.53,8.41-19.48,10.3.7-.93,1.28-1.81,1.73-2.64,1.96-3.43,3.42-7.5,4.43-12.03,4.41.86,8.9,2.32,13.32,4.37ZM102.05,99.17h0s0,0,0,0ZM78.05,108.26c-1.72-3.51-2.83-7.52-3.2-9.91,3.44-.42,6.97-.63,10.5-.61,3.55.02,7.08.23,10.5.67-.38,2.38-1.51,6.39-3.26,9.89-.94,1.88-2.05,3.58-3.29,4.81-1.24,1.23-2.59,1.94-4.01,1.94-1.42,0-2.75-.72-3.98-1.95-1.23-1.23-2.32-2.94-3.25-4.82ZM68.5,99.06c1.18,5.75,3.23,10.72,6.15,14.82-8.04-1.85-14.66-5.42-19.71-10.61,4.3-1.98,8.86-3.38,13.56-4.21ZM67.2,85.6c0,2.59.13,5.34.43,8.41-5.52.88-10.94,2.6-16.15,5.1-2.83-4.54-4.26-9.09-4.26-13.53.02-4.46,1.45-9.01,4.3-13.52,5.2,2.51,10.62,4.24,16.15,5.13-.3,2.94-.46,5.77-.48,8.4h0ZM54.85,67.92c5.52-5.3,12.24-8.91,20.02-10.73-3.12,4.31-5.2,9.36-6.25,15.03-5.32-.97-9.95-2.41-13.77-4.3ZM68.55,72.69s0,0,0,0h0ZM85.35,120.11c24.27,0,44.27-15.36,44.24-34.51,0-19.13-19.97-34.49-44.24-34.49s-44.24,15.38-44.24,34.51,19.97,34.49,44.24,34.49ZM95.94,72.89c-3.39.33-6.96.52-10.6.53-3.62.02-7.17-.15-10.62-.48.39-2.64,1.61-6.71,3.41-10.19.96-1.86,2.08-3.52,3.3-4.72,1.23-1.2,2.52-1.88,3.84-1.89,1.32,0,2.62.68,3.86,1.88,1.23,1.19,2.36,2.86,3.33,4.71,1.83,3.48,3.07,7.53,3.48,10.17ZM73.48,78.24l23.69.04-.02,14.69-23.69-.04.02-14.69ZM73.15,92.92h0,0Z"/>
</svg>