<svg width="174" height="174" viewBox="0 0 174 174" fill="none" xmlns="http://www.w3.org/2000/svg">
<circle cx="87" cy="87" r="87" fill="#00C192"/>
<path d="M129.517 116.82H130.017V116.32V63.0133C130.017 59.9775 127.627 57.4996 124.653 57.4996H49.8644C46.8903 57.4996 44.5001 59.9775 44.5001 63.0133V116.32V116.82H45.0001H129.517ZM83.2657 75.2309L48.8221 109.42V63.0133C48.8221 62.4047 49.2962 61.9284 49.8644 61.9284H124.653C125.213 61.9284 125.695 62.3958 125.695 63.0133V109.755L90.9107 75.2308L90.9099 75.2301C88.7737 73.1188 85.4508 73.086 83.2677 75.2289L83.2657 75.2309ZM87.88 78.4267L122.105 112.391H52.042L86.2667 78.4267C86.267 78.4264 86.2673 78.4261 86.2676 78.4258C86.7255 77.9775 87.4216 77.9776 87.8794 78.4261C87.8796 78.4263 87.8798 78.4265 87.88 78.4267Z" fill="white" stroke="white"/>
<path d="M99.7534 75.4964L99.7507 75.4982C98.7384 76.1459 98.4111 77.5001 99.0604 78.5435C99.6931 79.5842 101.025 79.9054 102.049 79.2702L102.049 79.2702L102.052 79.2681L120.204 67.8081L120.204 67.8081L120.207 67.8065C121.226 67.1544 121.523 65.8022 120.917 64.77L120.917 64.7699L120.912 64.762C120.261 63.6989 118.928 63.4193 117.926 64.033L117.926 64.033L117.92 64.0365L99.7534 75.4964Z" fill="white" stroke="white"/>
<path d="M54.1668 64.7655L54.1668 64.7655L54.1642 64.77C53.5577 65.8022 53.8552 67.1544 54.8745 67.8065L54.8771 67.8081L73.0292 79.2681L73.0292 79.2681L73.0325 79.2702C74.0575 79.906 75.3904 79.5836 76.0225 78.5405C76.6501 77.5046 76.3492 76.1476 75.3126 75.4962C75.3124 75.4961 75.3122 75.496 75.312 75.4959L57.1609 64.0366L57.1609 64.0366L57.1551 64.033C56.1588 63.4227 54.8212 63.6778 54.1668 64.7655Z" fill="white" stroke="white"/>
</svg>
