<?xml version="1.0" encoding="utf-8"?>
<!-- Generator: Adobe Illustrator 28.1.0, SVG Export Plug-In . SVG Version: 6.00 Build 0)  -->
<svg version="1.1" id="레이어_1" xmlns="http://www.w3.org/2000/svg" xmlns:xlink="http://www.w3.org/1999/xlink" x="0px"
	 y="0px" viewBox="0 0 174 174" style="enable-background:new 0 0 174 174;" xml:space="preserve">
<style type="text/css">
	.st0{fill:#FFFFFF;stroke:#000000;stroke-width:4;}
	.st1{stroke:#231815;}
	.st2{fill:#231815;stroke:#231815;}
</style>
<circle class="st0" cx="87" cy="87" r="84.6"/>
<path class="st1" d="M129.5,116.8h0.5v-0.5V63c0-3-2.4-5.5-5.4-5.5H49.9c-3,0-5.4,2.5-5.4,5.5v53.3v0.5H45H129.5z M83.3,75.2
	l-34.4,34.2V63c0-0.6,0.5-1.1,1-1.1h74.8c0.6,0,1,0.5,1,1.1v46.7L90.9,75.2l0,0C88.8,73.1,85.5,73.1,83.3,75.2L83.3,75.2z
	 M87.9,78.4l34.2,34H52l34.2-34l0,0C86.7,78,87.4,78,87.9,78.4L87.9,78.4z"/>
<path class="st2" d="M99.8,75.5L99.8,75.5c-1,0.6-1.3,2-0.7,3c0.6,1,2,1.4,3,0.7l0,0l0,0l18.2-11.5l0,0l0,0c1-0.7,1.3-2,0.7-3l0,0
	l0,0c-0.7-1.1-2-1.3-3-0.7l0,0l0,0L99.8,75.5z"/>
<path class="st2" d="M54.2,64.8L54.2,64.8L54.2,64.8c-0.6,1-0.3,2.4,0.7,3l0,0L73,79.3l0,0l0,0c1,0.6,2.4,0.3,3-0.7s0.3-2.4-0.7-3
	l0,0L57.2,64l0,0l0,0C56.2,63.4,54.8,63.7,54.2,64.8z"/>
</svg>
