<svg width="174" height="174" viewBox="0 0 174 174" fill="none" xmlns="http://www.w3.org/2000/svg">
<circle cx="87" cy="87" r="87" fill="#80C614"/>
<path d="M96.405 57.7121C104.164 59.4951 110.742 62.9545 115.985 68.0237C112.24 69.89 107.753 71.3875 102.639 72.4796C102.294 71.5296 101.953 70.3277 101.533 68.7416C100.498 64.6227 98.7665 60.918 96.405 57.7121ZM123.841 85.9931C123.863 90.7932 122.396 95.4316 119.462 99.7814C114.637 97.3405 109.272 95.5866 103.518 94.5161C103.807 91.2544 103.942 88.4507 103.942 85.9724C103.942 83.4766 103.785 80.6053 103.495 77.4439C109.285 76.3893 114.642 74.6204 119.438 72.1825C122.372 76.5319 123.841 81.1713 123.841 85.9908L123.841 85.9931ZM115.913 103.965C110.913 108.908 104.382 112.378 96.4352 114.269C97.1336 113.34 97.7117 112.457 98.1674 111.627C100.126 108.196 101.592 104.131 102.594 99.5969C107.008 100.452 111.492 101.913 115.913 103.965ZM102.438 99.5671C102.438 99.567 102.438 99.567 102.438 99.567L102.438 99.5671ZM78.4448 108.653C76.7205 105.144 75.6188 101.129 75.2426 98.7428C78.6876 98.326 82.2137 98.1105 85.7389 98.1279C89.2898 98.1454 92.8175 98.3627 96.2402 98.7952C95.8611 101.178 94.7324 105.184 92.9776 108.684C92.0369 110.56 90.9301 112.263 89.6852 113.49C88.4403 114.717 87.0976 115.431 85.6705 115.431C84.251 115.426 82.9208 114.708 81.6904 113.477C80.4596 112.244 79.3694 110.535 78.4448 108.653ZM68.8927 99.4533C70.0695 105.202 72.1276 110.178 75.0424 114.276C67.0014 112.424 60.3825 108.852 55.3362 103.662C59.6405 101.686 64.2004 100.278 68.8927 99.4533ZM67.5884 85.9908C67.5884 88.5791 67.7194 91.3349 68.0224 94.403C62.5059 95.2784 57.0826 97.0067 51.8753 99.5059C49.0412 94.9627 47.6184 90.4145 47.6182 85.9737C47.6409 81.5129 49.0652 76.964 51.9195 72.4565C57.1192 74.9631 62.5362 76.6945 68.0672 77.5845C67.7639 80.5219 67.6112 83.3545 67.5884 85.9865V85.9908ZM55.2425 68.3134C60.7612 63.0092 67.4804 59.4032 75.2614 57.5841C72.1367 61.8976 70.0565 66.9434 69.0147 72.6167C63.6968 71.6497 59.0631 70.2027 55.2425 68.3134ZM68.9391 73.0831C68.9391 73.0866 68.9387 73.0827 68.9391 73.0733V73.0831ZM85.7414 120.5C110.014 120.5 130.007 105.14 129.983 85.9902C129.982 66.8596 110.014 51.5 85.7414 51.5C61.4678 51.5 41.5 66.8787 41.5 86.0092C41.5 105.14 61.4682 120.5 85.7414 120.5ZM96.3358 73.2822C92.9502 73.6158 89.3771 73.7994 85.739 73.8168C82.1213 73.8343 78.5683 73.6688 75.1207 73.3362C75.5124 70.6961 76.7274 66.6304 78.5319 63.1418C79.4929 61.2839 80.6073 59.6171 81.831 58.4203C83.0565 57.2218 84.3465 56.5368 85.671 56.5325C86.9959 56.5327 88.2918 57.2138 89.5267 58.4084C90.7596 59.6011 91.8863 61.2637 92.8605 63.1171C94.6891 66.5961 95.931 70.6514 96.3358 73.2822ZM73.8719 78.6288L97.5623 78.6647L97.5397 93.3528L73.8493 93.3169L73.8719 78.6288ZM73.5383 93.3164C73.5386 93.3164 73.5388 93.3164 73.5391 93.3164H73.5383Z" fill="white" stroke="white"/>
</svg>
