<svg width="33" height="29" viewBox="0 0 33 29" fill="none" xmlns="http://www.w3.org/2000/svg">
<path d="M32.214 21.6626C32.214 23.5766 31.62 25.1276 30.432 26.3156C29.244 27.5036 27.693 28.0976 25.779 28.0976C23.931 28.0976 22.38 27.4376 21.126 26.1176C19.872 24.7316 19.245 22.7846 19.245 20.2766C19.245 17.7686 20.07 14.7326 21.72 11.1686C23.436 7.60462 25.977 3.90862 29.343 0.0806193L31.62 2.06062C29.376 4.70062 27.825 7.10962 26.967 9.28762C26.109 11.3996 25.614 13.3466 25.482 15.1286H25.779C27.693 15.1286 29.244 15.7226 30.432 16.9106C31.62 18.0986 32.214 19.6826 32.214 21.6626ZM13.107 21.6626C13.107 23.5766 12.513 25.1276 11.325 26.3156C10.137 27.5036 8.586 28.0976 6.672 28.0976C4.824 28.0976 3.273 27.4376 2.019 26.1176C0.765 24.7316 0.138 22.7846 0.138 20.2766C0.138 17.7686 0.963 14.7326 2.613 11.1686C4.329 7.60462 6.87 3.90862 10.236 0.0806193L12.513 2.06062C10.269 4.70062 8.718 7.10962 7.86 9.28762C7.002 11.3996 6.507 13.3466 6.375 15.1286H6.672C8.586 15.1286 10.137 15.7226 11.325 16.9106C12.513 18.0986 13.107 19.6826 13.107 21.6626Z" fill="#ED6B06"/>
</svg>
