<svg width="271" height="182" viewBox="0 0 271 182" fill="none" xmlns="http://www.w3.org/2000/svg">
<path d="M28.9125 38.2427C35.8362 38.2427 41.449 32.9448 41.449 26.4094C41.449 19.8741 35.8362 14.5762 28.9125 14.5762C21.9888 14.5762 16.376 19.8741 16.376 26.4094C16.376 32.9448 21.9888 38.2427 28.9125 38.2427Z" fill="url(#paint0_linear_121_4915)"/>
<path d="M30.7701 45.2607H27.0555V53.1496H30.7701V45.2607Z" fill="url(#paint1_linear_121_4915)"/>
<path d="M48.646 45.9151L45.8601 48.1064L40.2883 41.9706L43.3064 39.7793L48.646 45.9151Z" fill="url(#paint2_linear_121_4915)"/>
<path d="M57.2364 29.2514L56.7721 32.7448L48.4144 31.4348L49.1109 27.9414L57.2364 29.2514Z" fill="url(#paint3_linear_121_4915)"/>
<path d="M52.5931 11.5195L54.4504 14.5874L47.2535 18.5318L45.3962 15.4639L52.5931 11.5195Z" fill="url(#paint4_linear_121_4915)"/>
<path d="M36.8059 0.555664L40.5204 1.87047L37.5024 9.32105L34.02 8.00624L36.8059 0.555664Z" fill="url(#paint5_linear_121_4915)"/>
<path d="M17.5371 1.87047L21.0195 0.555664L23.8054 8.00624L20.323 9.32105L17.5371 1.87047Z" fill="url(#paint6_linear_121_4915)"/>
<path d="M3.37524 14.5874L5.23251 11.5195L12.4294 15.4639L10.5721 18.5318L3.37524 14.5874Z" fill="url(#paint7_linear_121_4915)"/>
<path d="M1.28595 32.7448L0.589478 29.2514L8.94717 27.9414L9.64364 31.4348L1.28595 32.7448Z" fill="url(#paint8_linear_121_4915)"/>
<path d="M12.1971 48.1064L9.17908 45.9151L14.5187 39.7793L17.5368 41.9706L12.1971 48.1064Z" fill="url(#paint9_linear_121_4915)"/>
<path d="M105.293 145.188V169.512H93.4529V115.167H105.293V135.766H127.58V115.167H139.188V169.512H127.58V145.188H105.293Z" fill="#ED6B06"/>
<path d="M160.315 131.378H151.028V122.832H160.315V131.378ZM160.315 135.542V169.508H151.028V135.542H160.315Z" fill="#ED6B06"/>
<path d="M181.209 169.508H171.923V122.832H181.209V169.508Z" fill="#ED6B06"/>
<path d="M202.103 169.508H192.816V122.832H202.103V169.508Z" fill="#ED6B06"/>
<path d="M249.463 108.584H267.571L243.891 69.5782H257.821L220.675 8.87793H209.764L241.57 60.8128H227.64L251.553 99.8187H233.444L254.338 134.223H221.836V174.982H93.4529V181.556H221.836H228.105H231.123V142.988H270.589L249.463 108.584Z" fill="#678F6D"/>
<path d="M99.0245 73.958H85.5593V86.6678H99.0245V73.958Z" fill="#678F6D"/>
<path d="M115.044 73.958H101.579V86.6678H115.044V73.958Z" fill="#678F6D"/>
<path d="M99.0245 89.9678H85.5593V102.678H99.0245V89.9678Z" fill="#678F6D"/>
<path d="M115.044 89.9678H101.579V102.678H115.044V89.9678Z" fill="#678F6D"/>
<path d="M165.886 16.3463L149.403 16.5655L146.153 11.0871L182.834 10.4297L186.316 16.1272L172.387 16.3463L178.423 26.6456L192.352 26.4265L195.602 31.9049L158.921 32.5623L155.671 26.8648L172.154 26.6456L165.886 16.3463Z" fill="#987B6A"/>
<path d="M173.315 52.0679C169.833 50.3148 167.511 48.1235 165.886 45.4939C164.261 42.8643 164.029 40.4538 165.422 38.7007C166.815 36.7285 169.833 35.6328 174.476 35.6328C179.119 35.6328 183.298 36.5093 187.012 38.4816C190.263 40.2346 192.816 42.426 194.441 45.0556C196.066 47.6852 196.066 49.8766 194.906 51.6296C193.513 53.6018 190.495 54.6975 185.852 54.6975C181.208 54.9167 177.03 54.0401 173.315 52.0679ZM187.709 48.7809C189.102 47.9044 189.334 46.8087 188.405 45.2747C187.477 43.5217 185.852 42.426 183.53 41.7686C181.905 41.3303 179.815 41.1112 177.494 41.1112C175.404 41.1112 173.779 41.3303 172.618 41.9877C171.226 42.8643 170.993 43.9599 171.922 45.713C172.851 47.2469 174.476 48.5618 176.797 49.2192C178.422 49.6574 180.512 49.8766 182.601 49.8766C184.923 49.6574 186.78 49.2192 187.709 48.7809Z" fill="#987B6A"/>
<path d="M184.459 75.286L181.673 70.4651H185.388C183.53 69.8077 182.137 69.1503 180.744 68.0546C179.351 66.9589 178.191 65.8632 177.494 64.5484C176.333 62.5762 176.101 61.0423 177.03 59.7275C177.959 58.4127 180.28 57.7553 183.53 57.7553L202.103 57.5361L205.121 62.5762L187.477 62.7954C185.62 62.7954 184.459 63.2336 183.995 63.891C183.763 64.5484 183.762 65.2058 184.459 66.3015C185.155 67.3972 186.084 68.0546 187.245 68.712C188.87 69.5885 190.727 70.0268 193.049 70.0268L209.3 69.8077L212.318 74.8477L184.459 75.286Z" fill="#987B6A"/>
<path d="M212.318 90.1786C213.479 89.9594 214.175 89.7403 214.407 89.302C214.872 88.6446 214.639 87.7681 213.943 86.6724C213.246 85.3576 212.318 84.4811 211.621 84.0428C210.925 83.6045 210.228 83.6045 209.532 83.6045C208.835 83.6045 208.371 84.0428 208.371 84.9194C208.371 85.3576 208.603 86.4533 209.068 87.7681C209.764 90.1786 210.228 91.9317 209.996 93.0273C209.764 94.7804 208.139 95.6569 205.585 95.8761C202.103 95.8761 198.853 94.9995 196.067 93.0273C193.977 91.4934 192.352 89.7403 191.191 87.7681C189.798 85.1385 189.102 83.1663 189.566 81.6323C190.031 79.6601 191.888 78.5645 195.138 78.5645L198.156 83.8237C196.995 83.8237 196.067 84.262 195.835 84.7002C195.37 85.3576 195.835 86.4533 196.531 87.9872C197.228 89.0829 198.156 89.9594 199.085 90.6168C199.781 91.0551 200.71 91.2743 201.406 91.2743C202.335 91.2743 202.567 90.836 202.567 89.9594C202.567 89.5212 202.335 88.4255 201.871 86.8916C201.174 84.4811 200.942 82.728 200.942 81.8515C201.174 80.0984 202.799 79.2219 205.353 79.2219C207.675 79.2219 210.228 79.6601 212.318 80.7558C215.104 82.0706 217.425 84.0428 219.05 86.8916C220.443 89.0829 220.908 91.0551 220.676 92.3699C220.211 94.3421 218.354 95.2187 215.104 95.4378L212.318 90.1786Z" fill="#987B6A"/>
<path d="M216.496 115.818C213.246 115.161 210.228 114.065 207.674 112.531C205.585 111.216 203.96 109.463 202.799 107.71C201.174 104.862 200.942 102.67 202.103 100.917C203.496 99.164 206.978 98.0684 212.085 98.0684C215.103 98.0684 218.121 98.5066 221.14 99.3832C225.783 100.917 229.265 103.328 231.354 106.834C232.747 109.244 232.98 111.216 232.051 112.75C230.658 114.723 227.408 115.818 221.836 116.037H220.443L212.782 103.108H212.55C210.925 103.328 209.764 103.547 209.067 103.985C207.907 104.642 207.674 105.957 208.835 107.491C209.299 108.149 209.996 108.806 210.692 109.463C211.621 110.121 212.55 110.559 213.71 110.778L216.496 115.818ZM222.068 110.778C223.925 110.559 225.086 110.121 225.551 109.244C226.015 108.587 225.783 107.71 225.318 106.834C224.622 105.738 223.693 104.862 222.3 104.204C220.907 103.547 219.282 103.328 217.425 103.108L222.068 110.778Z" fill="#987B6A"/>
<path d="M137.099 8.87793H102.275L43.3069 105.297H33.0919L28.9131 117.349H35.8778H44.0034H64.4333L61.6474 105.297H51.4324L102.275 22.026L160.547 117.349H168.672H203.496L137.099 8.87793Z" fill="#678F6D"/>
<defs>
<linearGradient id="paint0_linear_121_4915" x1="16.3128" y1="26.4099" x2="41.5893" y2="26.4099" gradientUnits="userSpaceOnUse">
<stop stop-color="#FFEF26"/>
<stop offset="0.0594872" stop-color="#FFE000"/>
<stop offset="0.1303" stop-color="#FFD300"/>
<stop offset="0.2032" stop-color="#FECB00"/>
<stop offset="0.2809" stop-color="#FDC800"/>
<stop offset="0.6685" stop-color="#F18F34"/>
<stop offset="0.8876" stop-color="#E95F32"/>
<stop offset="1" stop-color="#E3312D"/>
</linearGradient>
<linearGradient id="paint1_linear_121_4915" x1="27.0651" y1="49.3136" x2="30.8376" y2="49.3136" gradientUnits="userSpaceOnUse">
<stop stop-color="#FFEF26"/>
<stop offset="0.0594872" stop-color="#FFE000"/>
<stop offset="0.1303" stop-color="#FFD300"/>
<stop offset="0.2032" stop-color="#FECB00"/>
<stop offset="0.2809" stop-color="#FDC800"/>
<stop offset="0.6685" stop-color="#F18F34"/>
<stop offset="0.8876" stop-color="#E95F32"/>
<stop offset="1" stop-color="#E3312D"/>
</linearGradient>
<linearGradient id="paint2_linear_121_4915" x1="40.3947" y1="43.9536" x2="48.6943" y2="43.9536" gradientUnits="userSpaceOnUse">
<stop stop-color="#FFEF26"/>
<stop offset="0.0594872" stop-color="#FFE000"/>
<stop offset="0.1303" stop-color="#FFD300"/>
<stop offset="0.2032" stop-color="#FECB00"/>
<stop offset="0.2809" stop-color="#FDC800"/>
<stop offset="0.6685" stop-color="#F18F34"/>
<stop offset="0.8876" stop-color="#E95F32"/>
<stop offset="1" stop-color="#E3312D"/>
</linearGradient>
<linearGradient id="paint3_linear_121_4915" x1="48.3706" y1="30.3752" x2="57.3135" y2="30.3752" gradientUnits="userSpaceOnUse">
<stop stop-color="#FFEF26"/>
<stop offset="0.0594872" stop-color="#FFE000"/>
<stop offset="0.1303" stop-color="#FFD300"/>
<stop offset="0.2032" stop-color="#FECB00"/>
<stop offset="0.2809" stop-color="#FDC800"/>
<stop offset="0.6685" stop-color="#F18F34"/>
<stop offset="0.8876" stop-color="#E95F32"/>
<stop offset="1" stop-color="#E3312D"/>
</linearGradient>
<linearGradient id="paint4_linear_121_4915" x1="45.3733" y1="14.9722" x2="54.5477" y2="14.9722" gradientUnits="userSpaceOnUse">
<stop stop-color="#FFEF26"/>
<stop offset="0.0594872" stop-color="#FFE000"/>
<stop offset="0.1303" stop-color="#FFD300"/>
<stop offset="0.2032" stop-color="#FECB00"/>
<stop offset="0.2809" stop-color="#FDC800"/>
<stop offset="0.6685" stop-color="#F18F34"/>
<stop offset="0.8876" stop-color="#E95F32"/>
<stop offset="1" stop-color="#E3312D"/>
</linearGradient>
<linearGradient id="paint5_linear_121_4915" x1="34.0365" y1="4.89694" x2="40.4599" y2="4.89694" gradientUnits="userSpaceOnUse">
<stop stop-color="#FFEF26"/>
<stop offset="0.0594872" stop-color="#FFE000"/>
<stop offset="0.1303" stop-color="#FFD300"/>
<stop offset="0.2032" stop-color="#FECB00"/>
<stop offset="0.2809" stop-color="#FDC800"/>
<stop offset="0.6685" stop-color="#F18F34"/>
<stop offset="0.8876" stop-color="#E95F32"/>
<stop offset="1" stop-color="#E3312D"/>
</linearGradient>
<linearGradient id="paint6_linear_121_4915" x1="17.4426" y1="4.89694" x2="23.8662" y2="4.89694" gradientUnits="userSpaceOnUse">
<stop stop-color="#FFEF26"/>
<stop offset="0.0594872" stop-color="#FFE000"/>
<stop offset="0.1303" stop-color="#FFD300"/>
<stop offset="0.2032" stop-color="#FECB00"/>
<stop offset="0.2809" stop-color="#FDC800"/>
<stop offset="0.6685" stop-color="#F18F34"/>
<stop offset="0.8876" stop-color="#E95F32"/>
<stop offset="1" stop-color="#E3312D"/>
</linearGradient>
<linearGradient id="paint7_linear_121_4915" x1="3.35505" y1="14.9722" x2="12.5297" y2="14.9722" gradientUnits="userSpaceOnUse">
<stop stop-color="#FFEF26"/>
<stop offset="0.0594872" stop-color="#FFE000"/>
<stop offset="0.1303" stop-color="#FFD300"/>
<stop offset="0.2032" stop-color="#FECB00"/>
<stop offset="0.2809" stop-color="#FDC800"/>
<stop offset="0.6685" stop-color="#F18F34"/>
<stop offset="0.8876" stop-color="#E95F32"/>
<stop offset="1" stop-color="#E3312D"/>
</linearGradient>
<linearGradient id="paint8_linear_121_4915" x1="0.589478" y1="30.3752" x2="9.53244" y2="30.3752" gradientUnits="userSpaceOnUse">
<stop stop-color="#FFEF26"/>
<stop offset="0.0594872" stop-color="#FFE000"/>
<stop offset="0.1303" stop-color="#FFD300"/>
<stop offset="0.2032" stop-color="#FECB00"/>
<stop offset="0.2809" stop-color="#FDC800"/>
<stop offset="0.6685" stop-color="#F18F34"/>
<stop offset="0.8876" stop-color="#E95F32"/>
<stop offset="1" stop-color="#E3312D"/>
</linearGradient>
<linearGradient id="paint9_linear_121_4915" x1="9.2081" y1="43.9536" x2="17.5075" y2="43.9536" gradientUnits="userSpaceOnUse">
<stop stop-color="#FFEF26"/>
<stop offset="0.0594872" stop-color="#FFE000"/>
<stop offset="0.1303" stop-color="#FFD300"/>
<stop offset="0.2032" stop-color="#FECB00"/>
<stop offset="0.2809" stop-color="#FDC800"/>
<stop offset="0.6685" stop-color="#F18F34"/>
<stop offset="0.8876" stop-color="#E95F32"/>
<stop offset="1" stop-color="#E3312D"/>
</linearGradient>
</defs>
</svg>
