<svg width="33" height="29" viewBox="0 0 33 29" fill="none" xmlns="http://www.w3.org/2000/svg">
<path d="M0.786004 7.16257C0.786004 5.24857 1.38 3.69757 2.568 2.50957C3.756 1.32157 5.307 0.727568 7.221 0.727568C9.069 0.727568 10.62 1.38757 11.874 2.70757C13.128 4.09357 13.755 6.04057 13.755 8.54857C13.755 11.0566 12.93 14.0926 11.28 17.6566C9.564 21.2206 7.023 24.9166 3.657 28.7446L1.38 26.7646C3.624 24.1246 5.175 21.7156 6.033 19.5376C6.891 17.4256 7.386 15.4786 7.518 13.6966L7.221 13.6966C5.307 13.6966 3.756 13.1026 2.568 11.9146C1.38 10.7266 0.786003 9.14257 0.786004 7.16257ZM19.893 7.16257C19.893 5.24857 20.487 3.69757 21.675 2.50957C22.863 1.32157 24.414 0.72757 26.328 0.72757C28.176 0.72757 29.727 1.38757 30.981 2.70757C32.235 4.09357 32.862 6.04057 32.862 8.54857C32.862 11.0566 32.037 14.0926 30.387 17.6566C28.671 21.2206 26.13 24.9166 22.764 28.7446L20.487 26.7646C22.731 24.1246 24.282 21.7156 25.14 19.5376C25.998 17.4256 26.493 15.4786 26.625 13.6966L26.328 13.6966C24.414 13.6966 22.863 13.1026 21.675 11.9146C20.487 10.7266 19.893 9.14257 19.893 7.16257Z" fill="#ED6B06"/>
</svg>
