<svg width="48" height="45" viewBox="0 0 48 45" fill="none" xmlns="http://www.w3.org/2000/svg">
<g opacity="0.9">
<g style="mix-blend-mode:multiply" clip-path="url(#clip0_74_3261)">
<path d="M34.5724 28.5579C33.3071 28.2132 31.0285 28.5026 29.4552 28.0621C28.1221 27.6713 27.3669 27.4382 27.2019 27.3334C27.0961 27.2537 26.4866 26.8383 25.3947 26.0789C24.2264 25.2522 22.8087 25.3137 21.4652 25.1974C21.0104 25.1615 20.2209 24.8442 19.0965 24.2454C18.4328 23.8768 17.7491 23.6392 17.0788 23.4944C16.2273 23.3252 15.5436 23.0876 15.0029 22.8409C14.7369 22.7281 14.629 22.4034 14.749 22.1578C14.7862 22.069 14.8405 22.0222 14.9158 21.967C15.0121 21.9032 15.0702 21.8057 15.0778 21.7043C15.0977 21.5733 15.0043 21.4639 14.8736 21.4434C14.8736 21.4434 14.8736 21.4434 14.8527 21.4519C13.7705 21.3767 12.9802 21.4776 12.1906 21.1602C9.57681 20.0868 7.7468 19.1365 6.73011 18.3217C4.58709 16.6632 2.79222 15.3791 1.31215 14.5074C1.07945 14.3564 1.00973 14.0652 1.12976 13.8197C1.15453 13.7604 1.18788 13.7223 1.2422 13.6756C1.53481 13.4334 1.93327 13.2711 2.42901 13.1674C5.15936 12.5464 7.90689 11.9677 10.6888 11.4732C12.6889 11.1006 16.0506 11.009 20.774 11.1982C25.4468 11.3834 30.3699 12.8432 34.282 15.7226C37.1441 17.8255 39.2644 19.7882 40.6305 21.6404C42.6986 24.4355 44.8183 27.3571 46.9982 30.4262C47.1002 30.5567 47.106 30.751 46.9936 30.8951C46.9688 30.9544 46.885 30.9885 46.7505 31.0187C44.8543 31.2261 43.3585 31.516 42.225 31.855C42.183 31.8721 37.6625 33.3208 28.6633 36.2012C24.2477 37.6072 19.8371 37.5854 15.4021 36.1234C10.9796 34.6318 7.67181 31.5553 5.43699 26.9109C3.68975 23.223 2.23913 19.783 1.09752 16.5612C0.619295 15.2075 0.96243 14.9694 2.09736 15.8343C4.81164 17.8745 7.36373 19.6367 9.76221 21.1419C10.6758 21.7037 11.8191 22.049 12.7097 22.3743C13.1446 22.5412 13.4831 22.772 13.776 23.0705C14.7307 24.0334 15.8551 24.6322 17.1232 24.8037C18.1892 24.9592 18.9378 25.4162 19.9229 25.9734C20.2062 26.1283 20.4694 26.4143 20.7423 26.8439C21.2241 27.6062 21.9555 28.021 22.9834 28.1429C23.5478 28.2079 23.5887 28.0683 23.1024 27.7749L21.5879 26.8189C20.928 26.3995 20.9975 26.15 21.7497 26.0155C21.8631 25.9939 22.1034 26.0435 22.4743 26.1136C24.2832 26.5318 26.739 28.3578 28.4801 28.7298C30.2212 29.1019 32.2453 29.0883 34.54 28.7185C34.7965 28.6878 34.8003 28.6371 34.5724 28.5579ZM21.5369 23.1527C21.5434 22.9288 20.793 22.7675 19.8882 22.7675C18.9834 22.7675 18.257 22.9652 18.2504 23.1891C18.2438 23.413 18.9943 23.5742 19.8991 23.5743C20.8248 23.5657 21.5513 23.368 21.5369 23.1527ZM29.3939 25.2112C29.3919 24.9663 28.3888 24.7851 27.1685 24.7907C25.9567 24.8175 24.9652 25.0249 24.9672 25.2698C24.9692 25.5148 25.9723 25.696 27.1927 25.6903C28.4045 25.6636 29.3959 25.4562 29.3939 25.2112Z" fill="#666A3B"/>
</g>
</g>
<defs>
<clipPath id="clip0_74_3261">
<rect width="33.3246" height="37.3886" fill="white" transform="translate(12.575 44.9688) rotate(-112.17)"/>
</clipPath>
</defs>
</svg>
