<svg width="25" height="26" viewBox="0 0 25 26" fill="none" xmlns="http://www.w3.org/2000/svg">
<g style="mix-blend-mode:multiply" clip-path="url(#clip0_74_3250)">
<path d="M18.3584 14.0508C17.744 13.8038 16.9151 12.9926 16.1475 12.6902C15.4918 12.4411 15.1168 12.3047 15.0184 12.2966C14.9515 12.2964 14.5795 12.2778 13.9085 12.2506C13.1862 12.2271 12.6343 11.7701 12.0581 11.4073C11.8641 11.2831 11.4495 11.1701 10.8144 11.0684C10.4349 11.0144 10.0872 10.9016 9.7733 10.7555C9.37898 10.564 9.03134 10.4512 8.73849 10.3856C8.59701 10.3499 8.45458 10.4477 8.42804 10.5832C8.41589 10.6303 8.42351 10.6656 8.43697 10.7108C8.45627 10.7659 8.44996 10.8228 8.4221 10.8659C8.39018 10.9248 8.31921 10.9403 8.26037 10.9087C8.26037 10.9087 8.26037 10.9087 8.25454 10.8989C7.79602 10.5992 7.50864 10.3177 7.09407 10.2047C5.71474 9.83986 4.6884 9.66445 4.03078 9.68241C2.66255 9.69661 1.54857 9.66629 0.687057 9.56591C0.547363 9.55574 0.43054 9.65166 0.403991 9.78709C0.395895 9.81849 0.397683 9.84402 0.405305 9.87939C0.449261 10.0661 0.560148 10.2529 0.728077 10.4458C1.63776 11.5281 2.56721 12.5988 3.53619 13.646C4.22768 14.4057 5.55287 15.4675 7.51176 16.8314C9.44909 18.1815 11.8757 19.0949 14.3283 19.1287C16.1215 19.1548 17.5733 19.0112 18.6878 18.6822C20.3725 18.1877 22.1164 17.658 23.9295 17.0872C24.0104 17.0658 24.072 16.9894 24.0707 16.8971C24.0788 16.8657 24.0554 16.8263 24.0105 16.7732C23.3105 16.1116 22.7968 15.5389 22.4439 15.0568C22.4322 15.0372 21.0543 13.0758 18.3102 9.17278C16.9615 7.2606 15.1796 5.92465 12.9488 5.16098C10.7139 4.413 8.44448 4.64288 6.12894 5.83095C4.30131 6.78265 2.66862 7.72503 1.22684 8.67378C0.621646 9.07284 0.68716 9.27331 1.40766 9.27121C3.12221 9.27754 4.68672 9.34632 6.11105 9.47169C6.65006 9.52411 7.21552 9.73371 7.67319 9.8743C7.89911 9.93967 8.10574 9.95002 8.31462 9.91913C8.99248 9.82266 9.6276 9.92443 10.1903 10.242C10.6668 10.5044 11.1075 10.5487 11.6739 10.6248C11.8351 10.6488 12.0283 10.6139 12.2691 10.5242C12.6954 10.3642 13.1163 10.4203 13.5672 10.6846C13.8142 10.8305 13.7881 10.8992 13.5029 10.869L12.6018 10.7921C12.2084 10.7597 12.1602 10.8813 12.422 11.1648C12.4611 11.2081 12.5729 11.2614 12.7436 11.3462C13.5992 11.7294 15.1444 11.7431 15.9586 12.1242C16.7729 12.5053 17.5834 13.1279 18.3944 13.9763C18.4882 14.0669 18.4743 14.0884 18.3584 14.0508ZM11.4635 12.2522C11.3979 12.3443 11.0467 12.1804 10.6825 11.9046C10.3183 11.6287 10.0862 11.3277 10.1518 11.2356C10.2174 11.1434 10.5686 11.3073 10.9328 11.5832C11.3028 11.8689 11.535 12.1699 11.4635 12.2522ZM15.2537 13.8191C15.1782 13.9171 14.7192 13.6842 14.2297 13.3098C13.7501 12.9296 13.4143 12.5439 13.4898 12.4459C13.5652 12.3479 14.0242 12.5808 14.5137 12.9551C14.9933 13.3353 15.3292 13.7211 15.2537 13.8191Z" fill="#666A3B"/>
</g>
<defs>
<clipPath id="clip0_74_3250">
<rect width="16.827" height="18.8791" fill="white" transform="matrix(-0.859956 0.510369 0.510369 0.859956 14.5078 0.738281)"/>
</clipPath>
</defs>
</svg>
