<svg width="42" height="46" viewBox="0 0 42 46" fill="none" xmlns="http://www.w3.org/2000/svg">
<g opacity="0.9">
<g style="mix-blend-mode:multiply" clip-path="url(#clip0_74_3254)">
<path d="M32.3779 17.8094C31.3494 18.6044 30.2171 20.5796 28.9288 21.5611C27.8233 22.382 27.1878 22.8402 27.0063 22.9081C26.88 22.9442 26.1874 23.1781 24.9343 23.5882C23.5824 24.0185 22.7841 25.1766 21.8896 26.1699C21.5895 26.5082 20.8668 26.9431 19.7215 27.4748C19.0334 27.7796 18.437 28.1785 17.9221 28.6223C17.2796 29.1947 16.6832 29.5936 16.1651 29.8739C15.9169 30.017 15.5956 29.9083 15.473 29.6667C15.4249 29.5842 15.4204 29.5133 15.4217 29.4207C15.4287 29.3065 15.3864 29.2023 15.3107 29.1357C15.219 29.0416 15.0766 29.0502 14.9823 29.1413C14.9823 29.1413 14.9823 29.1413 14.9766 29.163C14.2706 29.9741 13.8782 30.6595 13.1555 31.0945C10.745 32.5208 8.89999 33.4006 7.64817 33.7181C5.05604 34.4225 2.96798 35.0751 1.39426 35.7251C1.13582 35.819 0.863883 35.7003 0.741356 35.4586C0.709282 35.4036 0.699012 35.3544 0.694512 35.2836C0.677784 34.9075 0.787394 34.4953 1.00153 34.0412C2.14145 31.5105 3.32497 28.9914 4.59572 26.4955C5.49589 24.6908 7.43166 21.9768 10.403 18.3536C13.3411 14.768 17.4368 11.7458 22.0516 10.3714C25.4248 9.36365 28.244 8.859 30.5252 8.88491C33.9717 8.91872 37.549 8.98733 41.2789 9.09652C41.4431 9.09372 41.6002 9.20519 41.6471 9.38024C41.6792 9.43523 41.6561 9.522 41.5997 9.64637C40.6309 11.2702 39.9666 12.6267 39.5576 13.7257C39.5461 13.7691 37.9915 18.2104 34.8939 27.0496C33.3682 31.3824 30.7161 34.8583 26.9102 37.493C23.0883 40.1003 18.6787 40.8789 13.6698 39.8721C9.70886 39.0511 6.12117 38.1435 2.89067 37.1219C1.53421 36.6915 1.55082 36.2778 2.91294 35.8967C6.14829 34.9685 9.06682 34.0025 11.6903 33.0044C12.6805 32.6174 13.6366 31.9193 14.426 31.4091C14.8178 31.1649 15.2026 31.0349 15.6137 30.9816C16.9457 30.8016 18.091 30.2699 18.9842 29.3693C19.7441 28.619 20.5528 28.2998 21.582 27.8534C21.8738 27.7219 22.2573 27.6846 22.7601 27.7253C23.6509 27.7996 24.416 27.4688 25.1265 26.7286C25.5151 26.3209 25.4291 26.2052 24.9065 26.4146L23.2455 27.0414C22.5196 27.313 22.3637 27.1089 22.7067 26.4336C22.7574 26.3309 22.9401 26.1705 23.2171 25.9189C24.6285 24.738 27.54 23.8862 28.8744 22.7312C30.2089 21.5763 31.4073 19.967 32.4857 17.931C32.6146 17.7097 32.5767 17.6764 32.3779 17.8094ZM20.315 24.8917C20.1418 24.7527 19.566 25.25 19.0254 25.9657C18.4849 26.6814 18.2073 27.3741 18.3805 27.5131C18.5537 27.652 19.1295 27.1548 19.67 26.4391C20.2163 25.7017 20.4939 25.009 20.315 24.8917ZM26.6371 19.9064C26.4421 19.7616 25.6996 20.4468 24.975 21.4156C24.2723 22.3901 23.844 23.2983 24.039 23.443C24.2339 23.5878 24.9765 22.9026 25.7011 21.9338C26.4038 20.9593 26.8321 20.0512 26.6371 19.9064Z" fill="#666A3B"/>
</g>
</g>
<defs>
<clipPath id="clip0_74_3254">
<rect width="33.0332" height="37.0616" fill="white" transform="translate(32.2183 45.0137) rotate(-165.109)"/>
</clipPath>
</defs>
</svg>
