<svg width="42" height="39" viewBox="0 0 42 39" fill="none" xmlns="http://www.w3.org/2000/svg">
<g opacity="0.9">
<g style="mix-blend-mode:multiply" clip-path="url(#clip0_74_3259)">
<path d="M30.1936 26.2896C29.0676 25.8288 26.9369 25.837 25.5382 25.2532C24.3552 24.7423 23.6863 24.4422 23.5462 24.3269C23.4578 24.2415 22.9438 23.79 22.0244 22.967C21.0425 22.0735 19.7302 21.9695 18.5064 21.7102C18.0918 21.6256 17.4008 21.2439 16.4334 20.5652C15.8641 20.1506 15.2615 19.8543 14.6608 19.6451C13.896 19.3928 13.2934 19.0966 12.8235 18.8082C12.5914 18.6742 12.5289 18.3629 12.6672 18.1505C12.7115 18.0728 12.7668 18.036 12.8424 17.9936C12.9382 17.9458 13.0028 17.8627 13.0213 17.7702C13.0545 17.6518 12.9808 17.5405 12.8629 17.5068C12.8629 17.5068 12.8629 17.5068 12.8426 17.5123C11.8548 17.3204 11.1156 17.3237 10.4246 16.942C8.13975 15.6575 6.56252 14.5751 5.71878 13.7098C3.93361 11.9399 2.42658 10.5541 1.16264 9.5838C0.965498 9.41841 0.9343 9.14247 1.07264 8.92999C1.10216 8.87824 1.13719 8.84688 1.1925 8.81002C1.48935 8.62025 1.87462 8.51592 2.3428 8.47664C4.92705 8.21434 7.52233 7.99281 10.1397 7.85281C12.0235 7.73645 15.1291 8.03303 19.4565 8.74253C23.7378 9.44264 28.1052 11.3445 31.3808 14.439C33.7777 16.6996 35.5074 18.747 36.5553 20.6071C38.1427 23.415 39.7633 26.3451 41.4225 29.418C41.5017 29.5497 41.485 29.7292 41.3651 29.8492C41.3356 29.9009 41.2545 29.9229 41.1273 29.9354C39.3579 29.9114 37.9478 30.0089 36.8658 30.1925C36.8252 30.2035 32.4989 31.0251 23.8868 32.6572C19.6619 33.4513 15.6035 32.9315 11.6859 31.0828C7.78294 29.2083 5.08611 26.0008 3.55481 21.4713C2.36403 17.8779 1.41826 14.5462 0.73227 11.4505C0.445369 10.1499 0.788287 9.96957 1.73522 10.8945C4.0031 13.0805 6.15314 14.9922 8.19087 16.65C8.96839 17.2707 9.98191 17.7182 10.7651 18.1186C11.1465 18.3216 11.4321 18.5724 11.6678 18.8805C12.4378 19.8752 13.4051 20.5539 14.5533 20.8556C15.5171 21.1196 16.1546 21.6251 16.9985 22.2498C17.2417 22.4246 17.4517 22.7178 17.6542 23.1442C18.0114 23.9006 18.6379 24.3654 19.5704 24.5942C20.0827 24.718 20.1362 24.5941 19.7217 24.2688L18.4357 23.217C17.8756 22.7561 17.9678 22.5342 18.6756 22.4957C18.7825 22.4886 18.9982 22.5615 19.3317 22.668C20.9497 23.2581 23.0039 25.2176 24.5648 25.7575C26.1257 26.2974 27.9909 26.5142 30.1456 26.4338C30.3852 26.4346 30.3944 26.3883 30.1936 26.2896ZM18.8041 19.8357C18.8355 19.6303 18.1629 19.3968 17.3298 19.2942C16.4968 19.1917 15.8055 19.2914 15.7741 19.4968C15.7427 19.7022 16.4153 19.9357 17.2484 20.0382C18.1017 20.1353 18.793 20.0356 18.8041 19.8357ZM25.8049 22.6214C25.8309 22.3956 24.9278 22.1151 23.8036 21.9821C22.6848 21.8694 21.7485 21.9479 21.7225 22.1737C21.6966 22.3995 22.5996 22.68 23.7239 22.8131C24.8427 22.9258 25.779 22.8472 25.8049 22.6214Z" fill="#666A3B"/>
</g>
</g>
<defs>
<clipPath id="clip0_74_3259">
<rect width="30.914" height="34.684" fill="white" transform="translate(8.08057 38.9062) rotate(-105.153)"/>
</clipPath>
</defs>
</svg>
