<svg width="40" height="41" viewBox="0 0 40 41" fill="none" xmlns="http://www.w3.org/2000/svg">
<g opacity="0.9">
<g style="mix-blend-mode:multiply" clip-path="url(#clip0_74_3256)">
<path d="M30.0447 18.5191C29.0432 18.9563 27.7248 20.3329 26.4733 20.8688C25.4034 21.3115 24.7911 21.5548 24.6286 21.573C24.5177 21.5766 23.9025 21.6257 22.792 21.7039C21.5964 21.7783 20.7129 22.5581 19.7827 23.184C19.4697 23.3981 18.7903 23.6047 17.7445 23.8038C17.1191 23.9115 16.5506 24.1145 16.0402 24.3706C15.3997 24.7054 14.8313 24.9084 14.3503 25.0309C14.1183 25.0967 13.8755 24.9427 13.8222 24.7211C13.7988 24.6441 13.8091 24.5855 13.8283 24.5104C13.8565 24.4189 13.8421 24.3255 13.793 24.2558C13.736 24.1606 13.6173 24.1385 13.522 24.1934C13.522 24.1934 13.522 24.1934 13.513 24.2099C12.7735 24.726 12.3164 25.2038 11.637 25.4104C9.3757 26.0795 7.68652 26.4193 6.59525 26.4223C4.32635 26.4669 2.48194 26.5721 1.06082 26.7801C0.829967 26.8038 0.629754 26.6517 0.576465 26.43C0.560893 26.3788 0.562105 26.3366 0.572318 26.278C0.632383 25.9685 0.803377 25.6554 1.06851 25.3295C2.50217 23.5024 3.96941 21.6936 5.50379 19.9215C6.5979 18.6363 8.72169 16.8224 11.8752 14.4797C14.9939 12.1608 18.9536 10.5365 23.0165 10.3593C25.987 10.2272 28.4033 10.3915 30.2733 10.8779C33.0996 11.6084 36.0266 12.3939 39.071 13.2436C39.2065 13.2748 39.3138 13.3975 39.318 13.5496C39.3335 13.6009 39.2975 13.6668 39.2268 13.7565C38.1117 14.8805 37.2995 15.8489 36.7476 16.66C36.7296 16.693 34.5801 19.9904 30.2992 26.5524C28.1947 29.7675 25.3326 32.0554 21.6872 33.4235C18.034 34.7658 14.2566 34.5 10.337 32.659C7.24239 31.1829 4.47154 29.7125 2.01669 28.2221C0.986193 27.5951 1.08104 27.2619 2.27546 27.2295C5.11699 27.134 7.70553 26.9431 10.0578 26.666C10.9477 26.5529 11.8706 26.1798 12.6196 25.9256C12.9896 25.8067 13.3314 25.7794 13.6797 25.8199C14.8099 25.9451 15.8557 25.746 16.7667 25.1952C17.5385 24.7396 18.2659 24.6447 19.1995 24.4914C19.4651 24.4439 19.7877 24.4917 20.193 24.6275C20.9106 24.8696 21.6044 24.7564 22.3337 24.2989C22.7331 24.0464 22.6851 23.9347 22.2144 23.9985L20.7262 24.1699C20.0762 24.2428 19.9881 24.0449 20.4026 23.5653C20.4644 23.492 20.6461 23.3987 20.9232 23.2505C22.3151 22.5773 24.8754 22.4779 26.1989 21.8101C27.5225 21.1423 28.8234 20.0771 30.1094 18.64C30.2587 18.4862 30.2342 18.4514 30.0447 18.5191ZM18.7393 21.8225C18.6242 21.6741 18.0533 21.9614 17.4685 22.4336C16.8838 22.9058 16.5196 23.413 16.6347 23.5614C16.7498 23.7098 17.3207 23.4226 17.9055 22.9503C18.4992 22.4616 18.8634 21.9545 18.7393 21.8225ZM24.9143 19.0547C24.7825 18.8972 24.0376 19.3034 23.2519 19.944C22.483 20.5938 21.9527 21.2455 22.0846 21.4031C22.2165 21.5607 22.9613 21.1545 23.747 20.5139C24.5159 19.8641 25.0462 19.2123 24.9143 19.0547Z" fill="#666A3B"/>
</g>
</g>
<defs>
<clipPath id="clip0_74_3256">
<rect width="28" height="31" fill="white" transform="translate(24.5742 40.627) rotate(-151.36)"/>
</clipPath>
</defs>
</svg>
