<svg width="59" height="56" viewBox="0 0 59 56" fill="none" xmlns="http://www.w3.org/2000/svg">
<g opacity="0.77">
<g style="mix-blend-mode:multiply" clip-path="url(#clip0_74_3262)">
<path d="M42.8605 34.864C41.3002 34.5008 38.5319 34.9578 36.5913 34.4919C34.9462 34.0754 34.0137 33.8254 33.8076 33.7049C33.6747 33.6124 32.9119 33.1331 31.5443 32.2558C30.0805 31.2998 28.3527 31.4395 26.7075 31.3587C26.1507 31.3356 25.1724 30.9842 23.7727 30.3044C22.9457 29.8847 22.1003 29.6258 21.2754 29.4797C20.2283 29.3119 19.3829 29.053 18.7116 28.7764C18.3817 28.6509 18.2353 28.2593 18.3706 27.9541C18.4119 27.844 18.4761 27.7845 18.5655 27.7136C18.6801 27.6313 18.7466 27.5097 18.7513 27.3856C18.7697 27.2247 18.6506 27.0955 18.4902 27.0764C18.4902 27.0764 18.4902 27.0764 18.465 27.0877C17.1405 27.0452 16.1804 27.2043 15.2021 26.8528C11.9626 25.6616 9.68539 24.5848 8.40722 23.6366C5.7157 21.7096 3.46621 20.2238 1.61979 19.2271C1.32886 19.0534 1.2305 18.7012 1.36584 18.3959C1.39337 18.3225 1.43235 18.2744 1.49653 18.2149C1.84269 17.906 2.3217 17.6896 2.92213 17.5405C6.2268 16.6582 9.55436 15.8265 12.9277 15.0963C15.3523 14.5504 19.4518 14.2854 25.2262 14.3013C30.9387 14.3147 37.0149 15.8724 41.9216 19.2092C45.5111 21.6458 48.1887 23.9452 49.9406 26.144C52.5925 29.4618 55.3131 32.9316 58.1137 36.5789C58.2443 36.7335 58.2602 36.9704 58.1295 37.1514C58.102 37.2249 58.0011 37.2704 57.8384 37.3134C55.5331 37.6529 53.7204 38.0749 52.3521 38.5403C52.3017 38.5631 46.8495 40.5374 35.9954 44.4633C30.6691 46.3806 25.2842 46.5549 19.8038 44.9723C14.3372 43.3528 10.1594 39.7479 7.21982 34.1802C4.91903 29.758 2.99161 25.6248 1.45132 21.744C0.805909 20.1133 1.21393 19.807 2.63873 20.8111C6.04496 23.178 9.24055 25.2129 12.2369 26.9411C13.3778 27.5853 14.7891 27.9547 15.8911 28.3112C16.4295 28.4952 16.8533 28.7615 17.2243 29.1126C18.4337 30.2444 19.8334 30.9242 21.3892 31.0758C22.6976 31.2171 23.6322 31.7408 24.8601 32.3762C25.2129 32.5524 25.5473 32.8896 25.9 33.4015C26.5228 34.3101 27.4346 34.7831 28.6948 34.8852C29.3868 34.9388 29.4304 34.7665 28.8233 34.4305L26.9311 33.3324C26.1065 32.8506 26.1799 32.5428 27.092 32.3445C27.2295 32.3129 27.5251 32.3624 27.9811 32.4311C30.2081 32.8592 33.2891 34.9764 35.4314 35.3513C37.5737 35.7262 40.0439 35.6174 42.8283 35.0616C43.14 35.0124 43.1423 34.9503 42.8605 34.864ZM26.7018 28.8595C26.6997 28.5859 25.7763 28.4232 24.6718 28.4644C23.5673 28.5056 22.6896 28.7799 22.6917 29.0536C22.6939 29.3272 23.6173 29.4898 24.7218 29.4487C25.8515 29.3961 26.7292 29.1217 26.7018 28.8595ZM36.3867 31.0146C36.3731 30.7156 35.1404 30.5401 33.6509 30.6026C32.1729 30.6904 30.9721 30.9887 30.9857 31.2877C30.9993 31.5866 32.232 31.7621 33.7214 31.6996C35.1995 31.6118 36.4003 31.3135 36.3867 31.0146Z" fill="#666A3B"/>
</g>
</g>
<defs>
<clipPath id="clip0_74_3262">
<rect width="40.7077" height="45.672" fill="white" transform="translate(16.7556 55.8984) rotate(-114.306)"/>
</clipPath>
</defs>
</svg>
