<svg width="37" height="38" viewBox="0 0 37 38" fill="none" xmlns="http://www.w3.org/2000/svg">
<g opacity="0.9">
<g style="mix-blend-mode:multiply" clip-path="url(#clip0_74_3257)">
<path d="M21.2527 9.70048C21.165 10.6878 21.6841 12.3443 21.5663 13.5735C21.4533 14.6173 21.3806 15.2102 21.3246 15.347C21.2794 15.4364 21.0517 15.9451 20.6323 16.8588C20.1731 17.8381 20.408 18.8846 20.5006 19.8996C20.5346 20.2427 20.4038 20.8724 20.1083 21.7887C19.9225 22.3316 19.837 22.8719 19.8187 23.3899C19.8064 24.0459 19.7208 24.5863 19.6094 25.0214C19.5609 25.2344 19.3337 25.3579 19.135 25.3014C19.064 25.2856 19.022 25.2514 18.9708 25.2028C18.9105 25.1397 18.8303 25.1094 18.7538 25.1173C18.6537 25.1199 18.5848 25.204 18.5869 25.304C18.5869 25.304 18.5869 25.304 18.5961 25.3184C18.6844 26.1335 18.8649 26.708 18.7341 27.3378C18.2841 29.4254 17.8211 30.9136 17.3506 31.7786C16.4026 33.594 15.6866 35.1006 15.2355 36.3179C15.1542 36.5111 14.9469 36.6018 14.7482 36.5453C14.7009 36.5348 14.668 36.515 14.626 36.4808C14.4069 36.2955 14.2329 36.0207 14.0897 35.6657C13.2636 33.7173 12.4666 31.7505 11.7278 29.7469C11.1839 28.3086 10.6674 25.8199 10.1782 22.2808C9.69289 18.7798 10.1223 14.9226 11.7427 11.6282C12.9254 9.21853 14.1028 7.37943 15.2986 6.11615C17.1021 4.2048 18.9929 2.23824 20.9855 0.207274C21.0689 0.113941 21.2127 0.0837173 21.3349 0.148147C21.3823 0.158669 21.4189 0.216517 21.4593 0.312491C21.8664 1.69555 22.2816 2.76967 22.685 3.56771C22.7033 3.59663 24.3839 6.76645 27.7268 13.0771C29.3617 16.1746 29.9337 19.4587 29.4375 22.953C28.9176 26.4421 27.07 29.3132 23.9129 31.5951C21.4023 33.3868 19.0366 34.9247 16.7921 36.2037C15.8488 36.74 15.6259 36.5164 16.1179 35.5568C17.2737 33.2654 18.2444 31.1318 19.0443 29.1468C19.3404 28.3922 19.4448 27.4956 19.568 26.7896C19.6342 26.4439 19.7607 26.1612 19.9438 25.9036C20.5328 25.0649 20.8283 24.1486 20.7868 23.1823C20.7603 22.3685 21.0004 21.7507 21.2836 20.9435C21.3611 20.7121 21.5388 20.4781 21.8219 20.2178C22.3248 19.7577 22.5358 19.1583 22.4895 18.3774C22.4625 17.9488 22.3532 17.9369 22.1998 18.3379L21.6905 19.592C21.4666 20.1389 21.2717 20.1205 21.0713 19.5788C21.0401 19.4973 21.0449 19.312 21.0476 19.0267C21.1175 17.6253 22.1484 15.5548 22.193 14.2099C22.2376 12.865 21.9576 11.361 21.3765 9.70312C21.3194 9.51643 21.2812 9.52037 21.2527 9.70048ZM18.9699 20.119C18.8025 20.1439 18.7826 20.7237 18.9033 21.3968C19.0239 22.0699 19.2678 22.584 19.4353 22.559C19.6027 22.5341 19.6226 21.9543 19.502 21.2812C19.3722 20.5936 19.1282 20.0795 18.9699 20.119ZM19.4536 13.9993C19.2716 14.0334 19.2705 14.8038 19.4375 15.7109C19.619 16.6089 19.9055 17.3188 20.0875 17.2847C20.2695 17.2505 20.2705 16.4801 20.1035 15.573C19.922 14.675 19.6355 13.9651 19.4536 13.9993Z" fill="#666A3B"/>
</g>
</g>
<defs>
<clipPath id="clip0_74_3257">
<rect width="25.1867" height="28.2582" fill="white" transform="translate(36.395 23.877) rotate(147.667)"/>
</clipPath>
</defs>
</svg>
