<svg width="37" height="38" viewBox="0 0 37 38" fill="none" xmlns="http://www.w3.org/2000/svg">
<g opacity="0.9">
<g style="mix-blend-mode:multiply" clip-path="url(#clip0_74_3252)">
<path d="M27.6226 17.7576C26.6901 18.0824 25.3984 19.2324 24.2338 19.629C23.2395 19.954 22.6713 20.1309 22.5242 20.1361C22.4245 20.1316 21.8692 20.1332 20.8676 20.1266C19.7901 20.1108 18.9359 20.7528 18.0522 21.2527C17.7544 21.4241 17.129 21.5633 16.1758 21.6703C15.6066 21.724 15.0809 21.8677 14.603 22.0633C14.0022 22.3208 13.4764 22.4644 13.0356 22.5415C12.8223 22.5847 12.617 22.429 12.587 22.2254C12.5722 22.1544 12.5861 22.1023 12.6093 22.0359C12.6419 21.9553 12.6365 21.87 12.598 21.8038C12.5546 21.7139 12.45 21.6858 12.3601 21.7287C12.3601 21.7287 12.3601 21.7287 12.3507 21.7429C11.6467 22.1571 11.1988 22.5563 10.5734 22.6955C8.49312 23.142 6.95199 23.3312 5.97367 23.2583C3.93657 23.141 2.27508 23.108 0.984745 23.197C0.775944 23.2023 0.608666 23.0512 0.578632 22.8476C0.568777 22.8003 0.573233 22.7624 0.587074 22.7102C0.66566 22.4352 0.843957 22.1647 1.10765 21.8892C2.53872 20.3408 3.99841 18.8113 5.51534 17.3195C6.59874 16.2364 8.64729 14.7478 11.661 12.8538C14.6417 10.9788 18.3205 9.78863 21.9762 9.91067C24.649 9.99766 26.8016 10.3135 28.4387 10.8819C30.9133 11.7369 33.4739 12.6484 36.1346 13.626C36.2535 13.6635 36.3399 13.7817 36.3314 13.9191C36.3413 13.9664 36.3037 14.0234 36.2331 14.0994C35.1439 15.0357 34.3385 15.8528 33.7789 16.546C33.7602 16.5745 31.57 19.3993 27.2083 25.0204C25.065 27.774 22.3168 29.6389 18.9401 30.6197C15.5585 31.5769 12.1942 31.0751 8.82851 29.1427C6.17296 27.5967 3.80714 26.0783 1.72614 24.5638C0.852677 23.9268 0.964345 23.6328 2.03744 23.6865C4.59185 23.7976 6.92713 23.805 9.0576 23.7183C9.86418 23.6781 10.7212 23.4056 11.4128 23.2283C11.7539 23.1468 12.0624 23.1459 12.3714 23.2066C13.3744 23.3979 14.3276 23.2909 15.1881 22.8574C15.9163 22.5 16.5758 22.4649 17.4248 22.3914C17.6667 22.367 17.952 22.4325 18.3044 22.5831C18.9282 22.8512 19.5591 22.7973 20.2493 22.4353C20.6275 22.2353 20.5934 22.1311 20.1665 22.1561L18.8189 22.2073C18.2305 22.228 18.1674 22.0434 18.5772 21.6396C18.6384 21.5779 18.8088 21.5063 19.0689 21.3919C20.3703 20.8813 22.673 20.9693 23.9126 20.4589C25.1523 19.9484 26.4034 19.0779 27.671 17.8711C27.8171 17.7428 27.7979 17.7097 27.6226 17.7576ZM17.2258 19.9525C17.1346 19.8106 16.5999 20.0301 16.038 20.4154C15.4762 20.8007 15.1092 21.2328 15.2005 21.3747C15.2918 21.5165 15.8264 21.2971 16.3883 20.9117C16.9596 20.5122 17.3265 20.0801 17.2258 19.9525ZM22.9816 17.8847C22.8761 17.7334 22.176 18.0481 21.4206 18.5713C20.6795 19.104 20.1521 19.655 20.2577 19.8063C20.3632 19.9576 21.0633 19.6429 21.8187 19.1197C22.5598 18.587 23.0872 18.036 22.9816 17.8847Z" fill="#666A3B"/>
</g>
</g>
<defs>
<clipPath id="clip0_74_3252">
<rect width="25.093" height="28.1531" fill="white" transform="translate(20.9517 37.3164) rotate(-146.612)"/>
</clipPath>
</defs>
</svg>
