<svg width="44" height="42" viewBox="0 0 44 42" fill="none" xmlns="http://www.w3.org/2000/svg">
<g opacity="0.9">
<g style="mix-blend-mode:multiply" clip-path="url(#clip0_74_3258)">
<path d="M31.9737 26.492C30.8022 26.1638 28.6866 26.417 27.2301 25.9979C25.9961 25.6263 25.2971 25.4051 25.1448 25.3068C25.0471 25.2321 24.4846 24.8427 23.4767 24.1309C22.3985 23.3562 21.083 23.4037 19.8375 23.2869C19.4159 23.2505 18.6856 22.9509 17.6466 22.3879C17.0334 22.0415 16.4007 21.8165 15.7799 21.6777C14.9912 21.5151 14.3585 21.2901 13.8586 21.0576C13.6126 20.9512 13.5147 20.6492 13.6277 20.4222C13.6627 20.34 13.7134 20.2971 13.7837 20.2463C13.8734 20.1878 13.9279 20.0978 13.9357 20.0038C13.9551 19.8823 13.8691 19.7802 13.748 19.7603C13.748 19.7603 13.748 19.7603 13.7285 19.7681C12.7252 19.6911 11.9913 19.7793 11.261 19.4796C8.84359 18.4664 7.15237 17.5726 6.21471 16.81C4.23787 15.2571 2.58148 14.0538 1.21435 13.2353C0.999504 13.0937 0.936781 12.8232 1.04977 12.5962C1.07314 12.5414 1.10434 12.5062 1.15504 12.4632C1.4281 12.2406 1.79882 12.0926 2.25938 11.9998C4.79632 11.4421 7.34892 10.9236 9.93282 10.4835C11.7907 10.1513 14.9098 10.0888 19.2901 10.296C23.6235 10.4992 28.1806 11.8863 31.7904 14.5836C34.4313 16.5535 36.385 18.3884 37.6398 20.1157C39.5396 22.7224 41.4863 25.4468 43.4878 28.3085C43.5816 28.4302 43.5857 28.6104 43.4805 28.7434C43.4571 28.7982 43.379 28.8293 43.2541 28.8564C41.4937 29.0361 40.1042 29.295 39.0504 29.6019C39.0114 29.6174 34.8083 30.931 26.441 33.5426C22.3354 34.8173 18.2442 34.7676 14.1399 33.3817C10.0474 31.9683 6.99958 29.0922 4.95759 24.7689C3.3615 21.3362 2.03891 18.1354 1.00149 15.1391C0.566942 13.8802 0.886844 13.6616 1.93385 14.4714C4.43806 16.3822 6.79366 18.034 9.0085 19.4464C9.85224 19.9737 10.9105 20.3016 11.7345 20.6094C12.1367 20.7671 12.4493 20.9834 12.7189 21.2623C13.5981 22.1619 14.6371 22.7249 15.8123 22.8925C16.8001 23.044 17.4915 23.4729 18.4016 23.9963C18.6633 24.142 18.9056 24.4091 19.1558 24.8094C19.5977 25.5198 20.2734 25.9094 21.226 26.0294C21.7492 26.0935 21.7881 25.9643 21.3389 25.6888L19.9405 24.7918C19.3311 24.3984 19.3972 24.1674 20.0959 24.0477C20.2013 24.0284 20.4239 24.076 20.7675 24.1435C22.4426 24.5436 24.7085 26.2539 26.3211 26.6107C27.9337 26.9675 29.8115 26.9684 31.9426 26.6408C32.1807 26.614 32.1846 26.567 31.9737 26.492ZM19.9177 21.3906C19.9253 21.1829 19.2302 21.0283 18.3909 21.0223C17.5516 21.0162 16.8764 21.1947 16.8688 21.4023C16.8612 21.61 17.5562 21.7646 18.3955 21.7707C19.2544 21.769 19.9296 21.5905 19.9177 21.3906ZM27.1924 23.3528C27.1922 23.1256 26.2629 22.9508 25.1308 22.9479C24.0065 22.9646 23.0854 23.1503 23.0856 23.3775C23.0858 23.6048 24.0151 23.7796 25.1472 23.7825C26.2715 23.7658 27.1926 23.5801 27.1924 23.3528Z" fill="#666A3B"/>
</g>
</g>
<defs>
<clipPath id="clip0_74_3258">
<rect width="30.914" height="34.684" fill="white" transform="translate(11.4583 41.5684) rotate(-111.756)"/>
</clipPath>
</defs>
</svg>
