<svg width="25" height="24" viewBox="0 0 25 24" fill="none" xmlns="http://www.w3.org/2000/svg">
<g style="mix-blend-mode:multiply" clip-path="url(#clip0_74_3249)">
<path d="M13.8943 6.07917C13.5604 6.65102 12.6371 7.35288 12.2261 8.06817C11.8841 8.6806 11.6944 9.03174 11.6721 9.12788C11.6622 9.19407 11.5895 9.55931 11.4648 10.2193C11.3364 10.9304 10.8038 11.4098 10.3609 11.927C10.2098 12.1008 10.0376 12.4945 9.84435 13.108C9.73563 13.4756 9.57335 13.8031 9.38305 14.0924C9.13615 14.4546 8.97387 14.7821 8.86635 15.0623C8.8104 15.197 8.88643 15.3522 9.01655 15.3982C9.06137 15.4171 9.09747 15.4147 9.14415 15.408C9.20141 15.3969 9.25682 15.4114 9.29543 15.4453C9.34898 15.4854 9.354 15.5579 9.31419 15.6115C9.31419 15.6115 9.31419 15.6115 9.30361 15.6158C8.94034 16.0258 8.61992 16.2691 8.44772 16.6628C7.88578 17.9742 7.56267 18.964 7.48461 19.6172C7.29926 20.9729 7.10692 22.0706 6.88207 22.9083C6.85165 23.045 6.92952 23.1746 7.05964 23.2206C7.08952 23.2331 7.11505 23.2351 7.15115 23.2327C7.34223 23.2164 7.54323 23.134 7.75851 22.9959C8.9619 22.2537 10.1566 21.4902 11.3338 20.6841C12.1862 20.1108 13.4298 18.9545 15.0646 17.2152C16.6826 15.4953 17.9399 13.2277 18.3307 10.8062C18.6178 9.03603 18.6874 7.57877 18.5243 6.42817C18.2805 4.68945 18.0106 2.88694 17.7102 1.00999C17.7008 0.926874 17.6341 0.854828 17.5426 0.842679C17.5127 0.830093 17.4704 0.847455 17.4113 0.884133C16.6548 1.4803 16.0133 1.90502 15.485 2.18391C15.4638 2.19259 13.3226 3.26994 9.06134 5.41594C6.97303 6.47158 5.39167 8.03979 4.31104 10.1355C3.24536 12.2376 3.14208 14.5163 3.98003 16.9802C4.65522 18.927 5.34961 20.6796 6.07812 22.2443C6.38474 22.9011 6.59261 22.8655 6.69553 22.1524C6.95165 20.4571 7.24769 18.9193 7.57929 17.5285C7.7097 17.0028 7.99946 16.474 8.20525 16.0417C8.30285 15.8277 8.34319 15.6248 8.34307 15.4136C8.34642 14.7289 8.53966 14.1154 8.93586 13.605C9.26489 13.1718 9.37295 12.7423 9.53074 12.1931C9.57796 12.037 9.57163 11.8409 9.51796 11.5896C9.42185 11.1445 9.53864 10.7363 9.86581 10.3287C10.0462 10.1056 10.1103 10.1414 10.0389 10.4192L9.8315 11.2994C9.74209 11.684 9.85541 11.7493 10.174 11.5316C10.2225 11.4993 10.2915 11.3964 10.4004 11.2399C10.9041 10.4493 11.1429 8.9226 11.6386 8.17258C12.1342 7.42256 12.8683 6.71137 13.8258 6.03273C13.9291 5.95308 13.9484 5.97001 13.8943 6.07917ZM11.1101 12.6383C11.1917 12.7167 10.9784 13.0402 10.6524 13.3604C10.3264 13.6805 9.99478 13.8662 9.9132 13.7879C9.83161 13.7096 10.0449 13.386 10.3709 13.0659C10.7075 12.7414 11.0391 12.5557 11.1101 12.6383ZM13.2126 9.11697C13.2986 9.20594 13.0013 9.62609 12.5596 10.0558C12.1135 10.4749 11.683 10.7509 11.597 10.662C11.5111 10.573 11.8083 10.1528 12.25 9.72313C12.6961 9.30406 13.1267 9.028 13.2126 9.11697Z" fill="#666A3B"/>
</g>
<defs>
<clipPath id="clip0_74_3249">
<rect width="16.827" height="18.8791" fill="white" transform="matrix(0.3796 0.925151 0.925151 -0.3796 0.163086 7.94922)"/>
</clipPath>
</defs>
</svg>
