<svg width="70" height="66" viewBox="0 0 70 66" fill="none" xmlns="http://www.w3.org/2000/svg">
<g opacity="0.8">
<g style="mix-blend-mode:multiply" clip-path="url(#clip0_74_3246)">
<path d="M50.9274 40.9136C49.1065 40.5202 45.8963 41.1026 43.6314 40.5965C41.711 40.1427 40.6222 39.8692 40.3802 39.7329C40.2241 39.6278 39.3283 39.0846 37.7221 38.0897C36.0025 37.0052 33.9962 37.1995 32.0818 37.1359C31.434 37.1193 30.2901 36.7288 28.6501 35.9642C27.6808 35.4914 26.693 35.206 25.7313 35.0513C24.5108 34.8755 23.523 34.5901 22.7375 34.2809C22.3516 34.141 22.174 33.6885 22.3258 33.3312C22.3718 33.2023 22.4453 33.1319 22.5479 33.0478C22.6797 32.9501 22.7548 32.8075 22.7579 32.6631C22.7763 32.4757 22.6355 32.3276 22.4486 32.3084C22.4486 32.3084 22.4486 32.3084 22.4195 32.3221C20.8788 32.297 19.7654 32.4997 18.6214 32.1091C14.8329 30.7837 12.1654 29.5738 10.6618 28.4949C7.49686 26.304 4.85401 24.6179 2.68881 23.4931C2.34734 23.2965 2.22648 22.8888 2.37821 22.5314C2.40887 22.4455 2.4533 22.3889 2.52683 22.3185C2.92361 21.953 3.47657 21.6926 4.17193 21.5081C7.99797 20.4213 11.8516 19.393 15.7603 18.4818C18.5693 17.8024 23.3308 17.4187 30.045 17.3307C36.6872 17.2409 43.7806 18.94 49.5471 22.7292C53.7655 25.4961 56.9211 28.1202 58.9986 30.6444C62.1431 34.4531 65.3703 38.4373 68.6939 42.6262C68.8485 42.8036 68.8714 43.0787 68.7227 43.2917C68.6921 43.3776 68.5757 43.4324 68.3873 43.4854C65.7131 43.9226 63.6133 44.4467 62.031 45.0131C61.9728 45.0405 55.6699 47.4365 43.1223 52.2012C36.9649 54.5287 30.7071 54.8307 24.306 53.0916C17.9201 51.3095 12.9961 47.1951 9.47563 40.7758C6.71898 35.6765 4.40177 30.9065 2.53933 26.4226C1.75885 24.5385 2.22761 24.1749 3.90272 25.316C7.90677 28.0052 11.6598 30.3122 15.1755 32.2664C16.5138 32.9943 18.1616 33.3978 19.4495 33.7921C20.0788 33.996 20.5765 34.2978 21.0144 34.6992C22.4413 35.9929 24.0813 36.7574 25.8931 36.905C27.4169 37.0452 28.5133 37.6369 29.9526 38.3529C30.3661 38.5514 30.7611 38.9372 31.1805 39.526C31.9215 40.5709 32.9903 41.104 34.4574 41.1995C35.263 41.249 35.3105 41.0479 34.5985 40.6684L32.3782 39.4266C31.4105 38.8816 31.4902 38.5224 32.547 38.2749C32.7063 38.2357 33.0509 38.2879 33.5823 38.3593C36.1796 38.816 39.8009 41.2208 42.2986 41.6172C44.7964 42.0136 47.6665 41.8415 50.8936 41.144C51.2551 41.081 51.2566 41.0088 50.9274 40.9136ZM32.0291 34.2302C32.0216 33.9121 30.945 33.74 29.6615 33.8082C28.3781 33.8765 27.3626 34.2117 27.3702 34.5298C27.3777 34.8479 28.4543 35.02 29.7378 34.9517C31.0503 34.8698 32.0658 34.5345 32.0291 34.2302ZM43.3294 36.5573C43.3081 36.2099 41.8716 36.0286 40.1409 36.1287C38.4241 36.2581 37.0333 36.6271 37.0547 36.9744C37.076 37.3218 38.5125 37.5031 40.2431 37.403C41.96 37.2736 43.3507 36.9046 43.3294 36.5573Z" fill="#666A3B"/>
</g>
</g>
<defs>
<clipPath id="clip0_74_3246">
<rect width="47.3365" height="53.1092" fill="white" transform="translate(20.9634 65.8516) rotate(-115.214)"/>
</clipPath>
</defs>
</svg>
