<svg width="48" height="50" viewBox="0 0 48 50" fill="none" xmlns="http://www.w3.org/2000/svg">
<g opacity="0.9">
<g style="mix-blend-mode:multiply" clip-path="url(#clip0_74_3260)">
<path d="M36.1688 22.5877C34.958 23.0915 33.3358 24.7175 31.823 25.3346C30.5304 25.8435 29.791 26.1227 29.5964 26.1411C29.4638 26.143 28.7278 26.1887 27.3995 26.2586C25.9697 26.3222 24.8877 27.2403 23.7553 27.9724C23.3741 28.223 22.5558 28.4566 21.3005 28.6733C20.5502 28.7892 19.8645 29.0209 19.2463 29.3177C18.47 29.7063 17.7842 29.938 17.2059 30.0747C16.9266 30.1488 16.6422 29.9585 16.5864 29.6909C16.5612 29.5979 16.5755 29.5277 16.6011 29.4379C16.638 29.3285 16.6241 29.2159 16.5679 29.1311C16.5033 29.0154 16.3624 28.9863 16.2466 29.0502C16.2466 29.0502 16.2466 29.0502 16.2353 29.0698C15.3344 29.6741 14.772 30.2385 13.9538 30.4721C11.231 31.2274 9.20274 31.5992 7.90004 31.5793C5.19021 31.5837 2.98494 31.6703 1.2813 31.8896C1.00491 31.913 0.771287 31.7258 0.71549 31.4583C0.698709 31.3963 0.701641 31.3457 0.715897 31.2755C0.798499 30.9048 1.01364 30.5321 1.3416 30.1462C3.11726 27.9812 4.93236 25.8389 6.8263 23.7421C8.17756 22.2211 10.7765 20.0869 14.6232 17.3394C18.4276 14.6198 23.2113 12.7532 28.0672 12.6281C31.6176 12.5336 34.496 12.7834 36.711 13.4085C40.0588 14.3477 43.5249 15.3551 47.1289 16.4423C47.2896 16.4827 47.4133 16.6326 47.4129 16.8154C47.4297 16.8774 47.3844 16.9559 47.2967 17.0621C45.9262 18.389 44.9226 19.5354 44.2352 20.4983C44.2126 20.5375 41.5307 24.4543 36.1895 32.2487C33.5642 36.0675 30.0673 38.7554 25.6677 40.3208C21.2598 41.8552 16.7603 41.4539 12.1466 39.1563C8.50475 37.3152 5.24916 35.4879 2.37146 33.6434C1.1635 32.8675 1.28847 32.469 2.71531 32.456C6.11045 32.4027 9.20697 32.2292 12.0246 31.9471C13.0907 31.8304 14.2055 31.4019 15.1085 31.1126C15.5543 30.9778 15.9632 30.9524 16.3776 31.0086C17.7222 31.1835 18.9775 30.9669 20.0843 30.3245C21.0217 29.7936 21.8932 29.6953 23.013 29.5312C23.3318 29.4799 23.7151 29.5444 24.1941 29.7163C25.0422 30.0229 25.8743 29.9019 26.7609 29.3678C27.2466 29.0729 27.1933 28.9375 26.6292 29.0041L24.8467 29.1778C24.0683 29.2514 23.9701 29.0117 24.4818 28.4442C24.5581 28.3575 24.7783 28.2493 25.1142 28.0771C26.7994 27.298 29.859 27.2341 31.4624 26.4601C33.0657 25.6861 34.6561 24.4338 36.2418 22.7344C36.4255 22.5528 36.3974 22.5104 36.1688 22.5877ZM22.5578 26.3135C22.4257 26.1327 21.7341 26.4655 21.0194 27.0205C20.3048 27.5754 19.8523 28.1771 19.9844 28.3579C20.1165 28.5388 20.8081 28.2059 21.5228 27.651C22.2487 27.0765 22.7012 26.4748 22.5578 26.3135ZM30.0261 23.1205C29.8743 22.9282 28.9709 23.4003 28.0105 24.1533C27.0698 24.9177 26.4138 25.6895 26.5657 25.8818C26.7175 26.0741 27.6209 25.602 28.5813 24.849C29.522 24.0846 30.1779 23.3128 30.0261 23.1205Z" fill="#666A3B"/>
</g>
</g>
<defs>
<clipPath id="clip0_74_3260">
<rect width="33.3246" height="37.3886" fill="white" transform="translate(28.8599 49.041) rotate(-150)"/>
</clipPath>
</defs>
</svg>
