<svg width="27" height="30" viewBox="0 0 27 30" fill="none" xmlns="http://www.w3.org/2000/svg">
<g opacity="0.9">
<g style="mix-blend-mode:multiply" clip-path="url(#clip0_74_3251)">
<path d="M21.038 9.30376C20.3932 10.0516 19.8503 11.6938 19.0405 12.6199C18.3423 13.3988 17.9389 13.8363 17.8141 13.9144C17.7256 13.9604 17.2456 14.2397 16.3752 14.7352C15.4343 15.2607 15.016 16.244 14.5011 17.119C14.3291 17.4164 13.8572 17.8499 13.0855 18.4195C12.6196 18.7509 12.2363 19.1383 11.9204 19.5468C11.5291 20.0704 11.1458 20.4579 10.8027 20.7452C10.6397 20.8894 10.3841 20.8573 10.2562 20.696C10.2078 20.6419 10.1937 20.5899 10.1806 20.5208C10.1685 20.4347 10.1212 20.3635 10.0547 20.3255C9.97217 20.2694 9.86751 20.2974 9.81118 20.3795C9.81118 20.3795 9.81118 20.3795 9.81018 20.3965C9.40787 21.1074 9.21989 21.6771 8.74802 22.1106C7.17043 23.5383 5.93083 24.4733 5.04731 24.8997C3.22494 25.8176 1.76989 26.6203 0.697277 27.3431C0.519174 27.4522 0.298736 27.4051 0.17085 27.2439C0.138627 27.2078 0.123514 27.1728 0.109403 27.1207C0.0398441 26.8433 0.0588391 26.5199 0.149273 26.1494C0.61344 24.0927 1.11183 22.038 1.67866 19.9873C2.07462 18.5074 3.10332 16.1935 4.76476 13.0456C6.40709 9.93067 8.99661 7.0593 12.2227 5.33562C14.5804 4.07338 16.6021 3.2697 18.3039 2.9426C20.8742 2.44443 23.5473 1.95231 26.34 1.46721C26.4618 1.4402 26.5957 1.4993 26.6571 1.62248C26.6894 1.65854 26.6854 1.72663 26.6623 1.82776C26.1877 3.1835 25.8993 4.29395 25.7618 5.17411C25.7598 5.20816 25.2771 8.74986 24.3137 15.7992C23.836 19.2558 22.3899 22.2456 19.9573 24.7845C17.5085 27.3054 14.3446 28.5545 10.4636 28.5657C7.39086 28.5561 4.58272 28.4254 2.02314 28.1555C0.94817 28.0411 0.897724 27.7307 1.85368 27.2402C4.12081 26.0581 6.14638 24.8959 7.94752 23.7547C8.62572 23.3162 9.23135 22.6515 9.74144 22.1519C9.99598 21.9106 10.2626 21.7555 10.5605 21.6534C11.5246 21.3171 12.2963 20.7475 12.8244 19.9415C13.276 19.2677 13.8295 18.9073 14.5278 18.4188C14.725 18.2766 15.0047 18.1906 15.3852 18.1446C16.0595 18.0646 16.5787 17.7022 16.9951 17.0434C17.2224 16.681 17.1409 16.6079 16.7837 16.8431L15.6426 17.5619C15.1435 17.8742 14.9965 17.746 15.1493 17.1913C15.1714 17.1072 15.283 16.96 15.451 16.7307C16.3222 15.6374 18.3599 14.5613 19.1777 13.4991C19.9956 12.4368 20.6432 11.0571 21.1367 9.37788C21.199 9.19364 21.1658 9.17461 21.038 9.30376ZM13.135 16.4068C12.985 16.3297 12.6319 16.7872 12.3383 17.402C12.0446 18.0168 11.9432 18.5745 12.0932 18.6516C12.2432 18.7288 12.5963 18.2712 12.8899 17.6564C13.1846 17.0246 13.286 16.4669 13.135 16.4068ZM17.0835 11.7363C16.9164 11.6581 16.4678 12.2809 16.0756 13.1119C15.7005 13.944 15.5197 14.6849 15.6868 14.7631C15.8539 14.8412 16.3025 14.2185 16.6947 13.3874C17.0698 12.5554 17.2507 11.8144 17.0835 11.7363Z" fill="#666A3B"/>
</g>
</g>
<defs>
<clipPath id="clip0_74_3251">
<rect width="25.093" height="28.1531" fill="white" transform="translate(25.0498 29.5762) rotate(-176.639)"/>
</clipPath>
</defs>
</svg>
