<svg width="56" height="57" viewBox="0 0 56 57" fill="none" xmlns="http://www.w3.org/2000/svg">
<g opacity="0.88">
<g style="mix-blend-mode:multiply" clip-path="url(#clip0_74_3245)">
<path d="M41.7936 28.1122C40.3633 28.456 38.2788 29.9699 36.494 30.3857C34.9723 30.7206 34.1039 30.899 33.8851 30.8849C33.7379 30.8636 32.9146 30.784 31.431 30.6263C29.8361 30.4437 28.4752 31.2692 27.0914 31.8797C26.6248 32.0898 25.6771 32.2037 24.2484 32.2215C23.3968 32.2172 22.5963 32.3524 21.8591 32.5718C20.9305 32.8648 20.1299 33.0001 19.4651 33.0492C19.1427 33.0818 18.8614 32.8207 18.8469 32.5144C18.8355 32.407 18.8637 32.3318 18.9079 32.2368C18.9682 32.1221 18.9728 31.9949 18.9255 31.8911C18.8744 31.7515 18.7235 31.6944 18.584 31.7447C18.584 31.7447 18.584 31.7447 18.568 31.7644C17.4632 32.2743 16.7404 32.7999 15.7928 32.9138C12.6433 33.2686 10.331 33.3214 8.89165 33.0688C5.88944 32.5942 3.43154 32.2998 1.50577 32.2412C1.19548 32.2183 0.969844 31.9696 0.955391 31.6634C0.947774 31.5918 0.959977 31.5362 0.988193 31.461C1.14528 31.065 1.44952 30.6904 1.88106 30.3209C4.23095 28.2371 6.62047 26.1855 9.08927 24.1983C10.8551 22.7528 14.1114 20.8488 18.8583 18.4864C23.5533 16.1473 29.1821 14.9265 34.5827 15.6472C38.5318 16.1708 41.6758 16.9569 44.0185 18.0412C47.5604 19.6739 51.2211 21.4032 55.0207 23.2451C55.1914 23.3183 55.302 23.5062 55.2691 23.7086C55.2768 23.7803 55.2127 23.8591 55.0968 23.9614C53.344 25.1884 52.0295 26.2806 51.0978 27.2255C51.0658 27.2649 47.4021 31.1286 40.1068 38.8166C36.5232 42.5817 32.1744 44.94 27.0244 45.8953C21.8706 46.8147 16.9579 45.574 12.2543 42.2127C8.54638 39.529 5.26383 36.9289 2.40287 34.3767C1.20223 33.3036 1.41117 32.8842 2.99385 33.1224C6.76378 33.6641 10.2242 34.02 13.3949 34.2061C14.5964 34.2656 15.907 33.9882 16.9583 33.8276C17.476 33.7571 17.9334 33.8014 18.3825 33.937C19.8409 34.3686 21.2696 34.3508 22.6091 33.8353C23.7413 33.4131 24.724 33.4585 25.9934 33.4749C26.3555 33.4745 26.7687 33.6137 27.2688 33.8889C28.1539 34.3785 29.0969 34.3917 30.1735 33.9571C30.7636 33.7164 30.7285 33.557 30.0919 33.5309L28.0869 33.4079C27.2117 33.3517 27.1454 33.0688 27.8125 32.5307C27.9124 32.4482 28.1754 32.3673 28.578 32.2361C30.5824 31.6714 33.9825 32.142 35.8954 31.5684C37.8083 30.9949 39.7914 29.8894 41.8484 28.2877C42.084 28.119 42.0604 28.0671 41.7936 28.1122ZM26.0586 29.8303C25.9442 29.6066 25.1193 29.8529 24.2296 30.3411C23.3398 30.8293 22.7321 31.4156 22.8465 31.6394C22.9608 31.8631 23.7857 31.6168 24.6755 31.1286C25.5812 30.6207 26.1889 30.0344 26.0586 29.8303ZM34.8956 27.6153C34.7614 27.3755 33.6773 27.7385 32.4803 28.4026C31.3031 29.0827 30.44 29.8216 30.5741 30.0614C30.7083 30.3012 31.7924 29.9382 32.9894 29.2742C34.1666 28.594 35.0297 27.8552 34.8956 27.6153Z" fill="#666A3B"/>
</g>
</g>
<defs>
<clipPath id="clip0_74_3245">
<rect width="37.3788" height="41.9371" fill="white" transform="translate(29.0168 56.1191) rotate(-140.922)"/>
</clipPath>
</defs>
</svg>
