<svg width="41" height="43" viewBox="0 0 41 43" fill="none" xmlns="http://www.w3.org/2000/svg">
<g opacity="0.9">
<g style="mix-blend-mode:multiply" clip-path="url(#clip0_74_3253)">
<path d="M30.9155 18.3283C29.8957 18.8752 28.6115 20.4429 27.3363 21.1153C26.2452 21.6737 25.62 21.9826 25.4507 22.0155C25.3345 22.0286 24.6921 22.1323 23.5317 22.3082C22.2817 22.4874 21.4108 23.3869 20.4796 24.1275C20.1665 24.3804 19.4681 24.6562 18.3845 24.9547C17.7356 25.1212 17.1535 25.3838 16.6362 25.6978C15.9881 26.1059 15.4059 26.3685 14.9099 26.5385C14.671 26.6277 14.4048 26.4851 14.3328 26.2549C14.3026 26.1754 14.3091 26.1126 14.3238 26.0315C14.3468 25.9322 14.3249 25.8345 14.2682 25.7649C14.2015 25.6689 14.0753 25.6555 13.9792 25.7216C13.9792 25.7216 13.9792 25.7216 13.9709 25.7398C13.232 26.3482 12.7868 26.8923 12.0884 27.168C9.7627 28.0661 8.01374 28.5675 6.86812 28.6624C4.48898 28.9 2.55999 29.1663 1.08292 29.5058C0.842248 29.5502 0.620956 29.406 0.54888 29.1759C0.528798 29.1229 0.527007 29.0782 0.533468 29.0153C0.574025 28.6827 0.730797 28.3369 0.985488 27.9697C2.35795 25.9154 3.76701 23.8777 5.24922 21.8732C6.30457 20.421 8.40265 18.3227 11.5435 15.5783C14.6495 12.862 18.6891 10.8103 22.9423 10.2816C26.0517 9.89237 28.6009 9.86342 30.5998 10.2212C33.6205 10.7572 36.751 11.3428 40.0095 11.9866C40.1541 12.0082 40.2757 12.1292 40.2911 12.2897C40.3112 12.3427 40.2782 12.4155 40.2104 12.5164C39.1213 13.7997 38.3389 14.893 37.8184 15.7978C37.8019 15.8342 35.7848 19.5049 31.767 26.81C29.7911 30.3897 26.9523 33.0516 23.2241 34.8057C19.4858 36.5333 15.5002 36.5691 11.2507 34.9495C7.8939 33.647 4.87752 32.3232 2.19149 30.9518C1.06385 30.3747 1.1392 30.014 2.391 29.8795C5.3677 29.5398 8.07181 29.1204 10.5216 28.6296C11.4477 28.4352 12.3897 27.9627 13.1576 27.6308C13.5375 27.474 13.8944 27.4164 14.2631 27.43C15.4589 27.4676 16.5425 27.1691 17.459 26.5096C18.2363 25.9625 18.9931 25.801 19.9623 25.5603C20.2378 25.4878 20.5799 25.5113 21.0154 25.621C21.7865 25.817 22.5067 25.639 23.2392 25.0935C23.6402 24.7927 23.5818 24.6784 23.0922 24.7855L21.5419 25.0918C20.8647 25.2236 20.7579 25.0216 21.1582 24.4791C21.2177 24.3964 21.4018 24.2823 21.6819 24.1022C23.0944 23.2727 25.7756 22.9526 27.1168 22.1347C28.4579 21.3167 29.7464 20.0799 30.9922 18.4509C31.1378 18.2756 31.1095 18.2408 30.9155 18.3283ZM19.285 22.7741C19.1533 22.6267 18.5748 22.9786 17.9951 23.5276C17.4154 24.0765 17.07 24.6439 17.2016 24.7913C17.3332 24.9387 17.9118 24.5868 18.4915 24.0378C19.0794 23.4707 19.4248 22.9033 19.285 22.7741ZM25.5675 19.3261C25.4176 19.1703 24.665 19.6628 23.8866 20.4069C23.1265 21.1592 22.6172 21.8936 22.7671 22.0493C22.917 22.205 23.6695 21.7125 24.4479 20.9685C25.208 20.2162 25.7174 19.4818 25.5675 19.3261Z" fill="#666A3B"/>
</g>
</g>
<defs>
<clipPath id="clip0_74_3253">
<rect width="29.4034" height="32.9892" fill="white" transform="translate(26.7793 42.1875) rotate(-155.61)"/>
</clipPath>
</defs>
</svg>
