<svg width="73" height="76" viewBox="0 0 73 76" fill="none" xmlns="http://www.w3.org/2000/svg">
<g opacity="0.9">
<g style="mix-blend-mode:multiply" clip-path="url(#clip0_74_3247)">
<path d="M56.1115 31.1449C54.2916 32.269 52.1698 35.2838 49.8919 36.6686C47.9395 37.8227 46.8187 38.4638 46.5053 38.5452C46.2884 38.5839 45.0954 38.8539 42.9384 39.3211C40.6127 39.8056 39.142 41.5523 37.5269 43.0176C36.9844 43.5174 35.719 44.1075 33.7306 44.788C32.5376 45.1732 31.4891 45.7247 30.5731 46.3614C29.4281 47.1861 28.3796 47.7376 27.4757 48.1098C27.0419 48.3022 26.5118 48.0766 26.3312 47.6671C26.2589 47.5263 26.259 47.4111 26.2711 47.2618C26.2953 47.0783 26.2351 46.9034 26.1146 46.784C25.9701 46.6177 25.7291 46.6094 25.5604 46.7419C25.5604 46.7419 25.5604 46.7419 25.5483 46.776C24.2706 47.9764 23.5352 49.0226 22.2698 49.6127C18.0518 51.5414 14.8462 52.6753 12.7013 52.9932C8.25476 53.7273 4.66374 54.4563 1.94026 55.2612C1.49439 55.3726 1.04865 55.1383 0.868053 54.7288C0.819889 54.635 0.807866 54.5539 0.807907 54.4387C0.820177 53.8285 1.04936 53.1796 1.45929 52.4794C3.65371 48.5685 5.92042 44.683 8.3317 40.8487C10.0437 38.0733 13.5998 33.9903 18.9999 28.5998C24.3398 23.2647 31.571 19.0202 39.5001 17.5189C45.2963 16.4165 50.1042 16.0405 53.9479 16.4379C59.7555 17.0296 65.78 17.6979 72.0575 18.4555C72.3347 18.4766 72.5876 18.6812 72.6478 18.9713C72.6959 19.0651 72.6477 19.2017 72.5392 19.3939C70.7308 21.8664 69.4649 23.9543 68.657 25.6662C68.6328 25.7345 65.5336 32.6676 59.3593 46.4654C56.3204 53.2277 51.4746 58.4299 44.7738 62.0936C38.0488 65.7103 30.5297 66.2809 22.1924 63.8739C15.602 61.9302 9.65026 59.9049 4.31311 57.7509C2.07224 56.8442 2.14478 56.1784 4.48253 55.775C10.0377 54.7795 15.0627 53.6737 19.5938 52.4701C21.305 51.999 22.9923 51.0202 24.3782 50.319C25.0652 49.9855 25.7279 49.8354 26.4268 49.8134C28.6921 49.7301 30.6806 49.0497 32.2836 47.7338C33.6456 46.64 35.0435 46.2503 36.827 45.6896C37.3332 45.5227 37.9838 45.522 38.8272 45.6663C40.3213 45.9251 41.6469 45.5099 42.9245 44.4247C43.6236 43.8266 43.4911 43.6262 42.5873 43.8831L39.7193 44.637C38.466 44.9625 38.2251 44.6086 38.8762 43.571C38.9726 43.413 39.2981 43.1823 39.7922 42.8191C42.2991 41.131 47.3 40.2087 49.6744 38.5506C52.0487 36.8926 54.2426 34.4795 56.2801 31.3581C56.5212 31.0208 56.461 30.9611 56.1115 31.1449ZM35.0093 40.7072C34.7323 40.4557 33.7078 41.1694 32.7194 42.2414C31.7309 43.3135 31.1883 44.3893 31.4654 44.6408C31.7424 44.8923 32.7669 44.1787 33.7553 43.1067C34.7558 42.0005 35.2984 40.9246 35.0093 40.7072ZM46.2059 33.6382C45.8927 33.3739 44.5669 34.3652 43.2409 35.8174C41.9511 37.2823 41.1312 38.6828 41.4444 38.9471C41.7576 39.2113 43.0834 38.22 44.4094 36.7679C45.6992 35.3029 46.5191 33.9025 46.2059 33.6382Z" fill="#666A3B"/>
</g>
</g>
<defs>
<clipPath id="clip0_74_3247">
<rect width="56.1183" height="59.7948" fill="white" transform="translate(52.9146 75.0703) rotate(-160.547)"/>
</clipPath>
</defs>
</svg>
