<svg width="21" height="19" viewBox="0 0 21 19" fill="none" xmlns="http://www.w3.org/2000/svg">
<g style="mix-blend-mode:multiply" clip-path="url(#clip0_74_3248)">
<path d="M14.7033 4.67493C14.1464 5.03329 13.0052 5.24038 12.3146 5.69165C11.7322 6.08253 11.404 6.30955 11.3405 6.38511C11.3016 6.43962 11.0713 6.73226 10.661 7.26397C10.2241 7.83965 9.53214 8.02558 8.90295 8.28581C8.68942 8.37224 8.35748 8.64509 7.90714 9.10436C7.64359 9.38277 7.35051 9.60112 7.04975 9.77272C6.66548 9.98366 6.37239 10.202 6.14955 10.403C6.0386 10.4978 6.03603 10.6705 6.13116 10.7705C6.16256 10.8077 6.19582 10.8219 6.24048 10.8371C6.29653 10.8532 6.33933 10.8912 6.3584 10.9389C6.38794 10.999 6.35956 11.0658 6.29978 11.0956C6.29978 11.0956 6.29978 11.0956 6.28838 11.0947C5.77874 11.2954 5.38285 11.367 5.05092 11.6399C3.95556 12.5541 3.21888 13.2899 2.8532 13.8368C2.07347 14.9612 1.40446 15.8525 0.824327 16.4972C0.735236 16.6053 0.745928 16.7561 0.841056 16.8561C0.861989 16.8808 0.883853 16.8941 0.917114 16.9084C1.09482 16.9805 1.31137 16.9981 1.56583 16.9726C2.97493 16.8565 4.38589 16.7175 5.80058 16.5326C6.8203 16.4079 8.45295 15.9409 10.6985 15.1317C12.9204 14.332 15.069 12.8807 16.5149 10.8994C17.5733 9.45167 18.2958 8.18424 18.672 7.08469C19.2429 5.42439 19.8193 3.69534 20.4023 1.88611C20.4316 1.80777 20.4049 1.71334 20.3288 1.66103C20.3079 1.63627 20.2623 1.63256 20.193 1.63846C19.2484 1.82693 18.4841 1.91473 17.8868 1.92385C17.864 1.92199 15.467 1.91172 10.6959 1.89301C8.35596 1.88736 6.23554 2.5684 4.32233 3.94665C2.41959 5.33728 1.29464 7.32157 0.924675 9.89768C0.644057 11.9391 0.468583 13.816 0.408718 15.5409C0.384259 16.2654 0.585688 16.3279 1.00068 15.7389C1.99744 14.3439 2.95837 13.1073 3.88441 12.0179C4.23891 11.6085 4.73693 11.2684 5.11631 10.9763C5.30031 10.8299 5.42825 10.6673 5.52385 10.479C5.8372 9.87022 6.28753 9.41095 6.87207 9.13557C7.36171 8.89859 7.65271 8.56476 8.04233 8.14668C8.15515 8.029 8.23843 7.85126 8.3045 7.60293C8.42059 7.16263 8.70973 6.8517 9.1861 6.63672C9.44802 6.51962 9.48895 6.58061 9.29937 6.79583L8.71551 7.48642C8.4615 7.78867 8.5329 7.89825 8.91553 7.84863C8.97345 7.8418 9.08161 7.7814 9.24955 7.69126C10.0569 7.21488 10.9618 5.96226 11.7436 5.5184C12.5254 5.07453 13.5021 4.77336 14.6632 4.60249C14.7914 4.57831 14.8009 4.60215 14.7033 4.67493ZM9.24831 9.25948C9.28552 9.36629 8.94871 9.55802 8.51304 9.69559C8.07737 9.83316 7.69754 9.84842 7.66032 9.74161C7.62311 9.63481 7.95993 9.44307 8.3956 9.3055C8.84266 9.16886 9.2225 9.1536 9.24831 9.25948ZM12.7186 7.0737C12.7549 7.19196 12.2994 7.43171 11.7109 7.61452C11.1234 7.78588 10.6144 7.83677 10.5782 7.71851C10.5419 7.60024 10.9973 7.36049 11.5858 7.17768C12.1734 7.00633 12.6823 6.95543 12.7186 7.0737Z" fill="#666A3B"/>
</g>
<defs>
<clipPath id="clip0_74_3248">
<rect width="16.827" height="18.8791" fill="white" transform="matrix(-0.0809975 0.996714 0.996714 0.0809975 1.61621 0.117188)"/>
</clipPath>
</defs>
</svg>
