<svg width="39" height="37" viewBox="0 0 39 37" fill="none" xmlns="http://www.w3.org/2000/svg">
<g opacity="0.77">
<g style="mix-blend-mode:multiply" clip-path="url(#clip0_74_3255)">
<path d="M28.2715 24.347C27.2213 23.9473 25.2542 24.0036 23.9495 23.4965C22.8455 23.0518 22.221 22.79 22.0891 22.6868C22.0055 22.6099 21.5206 22.2048 20.6529 21.466C19.7259 20.6634 18.5118 20.5973 17.376 20.3859C16.9912 20.3173 16.3445 19.9807 15.4359 19.3761C14.9007 19.0063 14.3376 18.7466 13.7781 18.5671C13.0662 18.3517 12.5031 18.0919 12.0627 17.8364C11.8452 17.718 11.7804 17.432 11.9033 17.2327C11.9424 17.16 11.9926 17.1247 12.0614 17.0839C12.1489 17.0375 12.2066 16.9593 12.2215 16.8735C12.2495 16.7634 12.1789 16.6623 12.0692 16.6339C12.0692 16.6339 12.0692 16.6339 12.0506 16.6395C11.1342 16.4849 10.4518 16.5048 9.80511 16.1682C7.6661 15.0344 6.18511 14.0711 5.38629 13.2914C3.69759 11.6981 2.27447 10.453 1.0853 9.58601C0.899499 9.43782 0.864386 9.18375 0.98726 8.98441C1.01333 8.93596 1.04496 8.9062 1.09519 8.8709C1.36493 8.68891 1.71826 8.58377 2.14964 8.5368C4.52969 8.23556 6.92086 7.9717 9.33428 7.78261C11.0709 7.63212 13.9451 7.83497 17.9568 8.39116C21.9258 8.93972 26.0017 10.5959 29.0968 13.3782C31.3615 15.4106 33.0053 17.2614 34.0153 18.9549C35.5452 21.5112 37.1084 24.1796 38.7106 26.9788C38.7867 27.0986 38.7754 27.2647 38.6675 27.3782C38.6415 27.4267 38.5671 27.4488 38.4499 27.4633C36.8157 27.4816 35.516 27.6038 34.5211 27.7981C34.4839 27.8092 30.5082 28.6666 22.594 30.3704C18.7112 31.2002 14.9522 30.8129 11.2928 29.1956C7.64638 27.554 5.08308 24.6542 3.56569 20.5071C2.38411 17.2165 1.43474 14.162 0.730603 11.3194C0.435982 10.1251 0.748476 9.95076 1.64392 10.7831C3.78782 12.7496 5.81665 14.4656 7.73599 15.9496C8.46805 16.505 9.41407 16.8949 10.1463 17.2468C10.5031 17.4255 10.7725 17.6505 10.9973 17.9296C11.7309 18.8304 12.6396 19.435 13.7065 19.6872C14.6025 19.909 15.2026 20.3612 15.9961 20.9186C16.2246 21.0744 16.4252 21.3403 16.6219 21.7294C16.969 22.4197 17.5581 22.8345 18.4243 23.0244C18.9002 23.127 18.9467 23.0114 18.5566 22.7205L17.3451 21.7788C16.8175 21.366 16.8976 21.1591 17.5502 21.1073C17.6487 21.0983 17.8495 21.1607 18.1599 21.2515C19.6673 21.7593 21.6087 23.5216 23.0622 23.9843C24.5158 24.4471 26.2428 24.6047 28.2304 24.4813C28.4517 24.4765 28.4592 24.4336 28.2715 24.347ZM17.608 18.6484C17.6324 18.458 17.006 18.2578 16.2345 18.1822C15.4629 18.1065 14.827 18.2144 14.8027 18.4047C14.7783 18.5951 15.4047 18.7953 16.1762 18.871C16.9664 18.9411 17.6023 18.8332 17.608 18.6484ZM24.1356 21.0605C24.1543 20.8514 23.3142 20.6131 22.2731 20.5159C21.2376 20.4374 20.3748 20.5313 20.3561 20.7404C20.3373 20.9495 21.1775 21.1878 22.2185 21.285C23.2541 21.3635 24.1168 21.2695 24.1356 21.0605Z" fill="#666A3B"/>
</g>
</g>
<defs>
<clipPath id="clip0_74_3255">
<rect width="28.5517" height="32.0336" fill="white" transform="translate(8.14282 36.502) rotate(-106.571)"/>
</clipPath>
</defs>
</svg>
