<svg width="100" height="101" viewBox="0 0 100 101" fill="none" xmlns="http://www.w3.org/2000/svg">
<g clip-path="url(#clip0_138_1017)">
<path d="M95.9302 55.2051C95.8996 55.427 95.869 55.6806 95.869 55.9025C95.8996 55.6806 95.8996 55.427 95.9302 55.2051Z" fill="#9A89B5"/>
<path d="M95.2876 59.8506C93.9106 67.1684 90.9731 73.9454 86.7809 79.927C90.9119 74.0727 93.88 67.2321 95.2876 59.8506Z" fill="#9A89B5"/>
<path d="M96.0526 53.9961C96.0526 54.218 96.0221 54.4082 95.9915 54.6301C95.9915 54.4082 96.022 54.1863 96.0526 53.9961Z" fill="#9A89B5"/>
<path d="M86.5361 80.2444C86.5667 80.181 86.6279 80.1493 86.6585 80.0859C86.5973 80.1176 86.5667 80.181 86.5361 80.2444Z" fill="#9A89B5"/>
<path d="M95.6548 57.5918C95.6242 57.9088 95.563 58.1941 95.5018 58.5111C95.563 58.1941 95.6242 57.8771 95.6548 57.5918Z" fill="#9A89B5"/>
<path d="M95.8079 56.4141C95.7773 56.6677 95.7467 56.953 95.7161 57.2066C95.7467 56.9213 95.7773 56.6677 95.8079 56.4141Z" fill="#9A89B5"/>
<path d="M28.7026 81.295L12.2399 25.2658H22.8886L33.1089 60.6141L44.4614 25.2658H52.3256L63.9535 60.646L73.8372 25.2658H83.9045L94.1861 35.9562C88.2497 15.3708 69.798 0.257812 48.0722 0.257812C21.6034 0.257812 0 22.7204 0 50.2419C0 77.3816 20.9608 99.5896 46.9094 100.226L28.7026 81.295Z" fill="#9A89B5"/>
<path d="M94.1555 35.9883C95.4713 40.5063 96.1751 45.3106 96.1751 50.274Z" fill="#5A4F6B"/>
<path d="M95.9914 54.6006C95.9608 54.7908 95.9608 54.981 95.9302 55.2029C95.9608 55.0127 95.9608 54.8225 95.9914 54.6006Z" fill="#5A4F6B"/>
<path d="M96.175 50.2422C96.175 50.6543 96.175 51.0664 96.1444 51.4785C96.175 51.0981 96.175 50.686 96.175 50.2422Z" fill="#5A4F6B"/>
<path d="M96.1445 51.9287C96.1445 52.214 96.1139 52.4676 96.1139 52.7529C96.1139 52.4993 96.1445 52.214 96.1445 51.9287Z" fill="#5A4F6B"/>
<path d="M96.0832 53.2959C96.0832 53.5178 96.0526 53.7397 96.0526 53.9933C96.0526 53.7714 96.0526 53.5178 96.0832 53.2959Z" fill="#5A4F6B"/>
<path d="M86.7503 79.8955C86.7197 79.9589 86.6891 79.9906 86.6279 80.054C86.6891 80.0223 86.7197 79.9589 86.7503 79.8955Z" fill="#5A4F6B"/>
<path d="M95.5018 58.4824C95.5018 58.5775 95.4712 58.6409 95.4712 58.736C95.5018 58.6409 95.5018 58.5775 95.5018 58.4824Z" fill="#5A4F6B"/>
<path d="M86.7502 79.8953C90.9424 73.9456 93.88 67.1368 95.257 59.8189C95.257 59.7871 95.257 59.7553 95.257 59.7235C95.3182 59.3735 95.3794 59.0235 95.4406 58.6735C95.4406 58.5781 95.4712 58.5144 95.4712 58.419C95.5324 58.1008 95.563 57.8145 95.6242 57.4963C95.6548 57.369 95.6548 57.2418 95.6854 57.1145C95.716 56.86 95.7466 56.5736 95.7772 56.3191C95.8078 56.16 95.8078 56.0009 95.8384 55.81C95.869 55.5873 95.8996 55.3328 95.8996 55.1101C95.9302 54.9192 95.9302 54.7283 95.9608 54.5055C95.9914 54.2828 95.9914 54.0919 96.022 53.8692C96.0526 53.6465 96.0526 53.4238 96.0526 53.1692C96.0526 52.9783 96.0832 52.8193 96.0832 52.6284C96.0832 52.3738 96.1138 52.0875 96.1138 51.8011C96.1138 51.642 96.1138 51.5148 96.1138 51.3557C96.1138 50.9421 96.1444 50.5284 96.1444 50.1148C96.1444 45.1514 95.4406 40.3789 94.1248 35.8291L83.8433 25.1387L68.1456 81.1362H60.4039L48.2864 44.6742L36.4137 81.1362H28.7025L46.9094 100.067C47.3072 100.067 47.6744 100.067 48.0722 100.067C63.7698 100.067 77.7233 92.1766 86.5055 80.0544C86.5361 79.9908 86.5973 79.9589 86.6279 79.8953C86.6891 80.0226 86.7196 79.9589 86.7502 79.8953Z" fill="#5A4F6B"/>
<path d="M73.8372 25.2656L63.9535 60.6776L52.3256 25.2656H44.4614L33.1089 60.6458L22.858 25.2656H12.2399L28.7025 81.2948L30.5691 76.745L16.3708 28.4473H20.5936L32.9253 71.0499L33.2313 70.2863L46.6646 28.4473H50.1224L64.1983 71.2408L76.1322 28.4473H79.8041L73.5312 50.8463L83.8739 25.2974V25.2656H73.8372Z" fill="#FAF5DC"/>
<path d="M33.2313 70.2861L32.9253 71.047L32.9559 71.1421L33.2313 70.2861Z" fill="#FAF5DC"/>
<path d="M73.5312 50.8467L65.8812 78.1137H62.607L48.2864 35.002L34.2411 78.1137H30.9669L30.5691 76.7456L28.7025 81.2954H36.4443L48.317 44.8334L60.4345 81.2954H68.1762L83.8739 25.2979L73.5312 50.8467Z" fill="#FAF5DC"/>
<path d="M20.5936 28.4473H16.3708L30.5691 76.7451L32.9253 71.0499L20.5936 28.4473Z" fill="#FAF5DC"/>
<path d="M64.2289 73.8498L73.5312 50.8463L79.8041 28.4473H76.1322L64.1983 71.2408L50.1224 28.4473H46.6646L33.2313 70.2863L48.7454 32.5516L64.2289 73.8498Z" fill="#FAF5DC"/>
<path d="M34.2412 78.1134L48.2865 35.0016L62.6072 78.1134H65.8813L73.5313 50.8464L64.2289 73.8499L48.7455 32.5518L33.2314 70.2864L32.956 71.1455L32.9254 71.05L30.5692 76.7452L30.967 78.1134H34.2412Z" fill="#FAF5DC"/>
</g>
<defs>
<clipPath id="clip0_138_1017">
<rect width="100" height="100" fill="white" transform="translate(0 0.257812)"/>
</clipPath>
</defs>
</svg>
