<svg width="100" height="101" viewBox="0 0 100 101" fill="none" xmlns="http://www.w3.org/2000/svg">
<g clip-path="url(#clip0_138_1031)">
<path d="M44.8616 35.6636H26.5033V25.6095H73.4967L99.9682 52.1128C99.9682 51.6038 100 51.0947 100 50.5856C100 23.0642 77.5374 0.601562 49.9841 0.601562C22.4626 0.601562 0 23.0642 0 50.5856C0 78.1389 22.4626 100.57 49.9841 100.57C54.2157 100.57 58.3519 100.029 62.2972 99.0425L44.8616 81.6388V35.6636Z" fill="#0087BF"/>
<path d="M99.9682 52.1445L73.4966 25.6094V35.6635H55.1384V81.6386H44.8616L62.2971 99.0742C83.4553 93.6653 99.3 74.7344 99.9682 52.1445Z" fill="#00587D"/>
<path d="M26.5034 35.6635H44.8616V81.6386L48.0433 57.0443V32.4818H29.685V28.791H61.7563L73.4967 25.6094H26.5034V35.6635Z" fill="#FAF5DC"/>
<path d="M70.315 28.791V32.4818H51.9567V78.4569H48.0432V57.0443L44.8616 81.6386H55.1384V35.6635H73.4966V25.6094L61.7563 28.791H70.315Z" fill="#FAF5DC"/>
<path d="M61.7563 28.791H29.685V32.4818H48.0433V57.0443L51.3204 31.6227L61.7563 28.791Z" fill="#FAF5DC"/>
<path d="M51.9567 78.4569V32.4818H70.315V28.791H61.7563L51.3204 31.6227L48.0433 57.0443V78.4569H51.9567Z" fill="#FAF5DC"/>
</g>
<defs>
<clipPath id="clip0_138_1031">
<rect width="100" height="100" fill="white" transform="translate(0 0.601562)"/>
</clipPath>
</defs>
</svg>
