<?xml version="1.0" encoding="UTF-8"?>
<svg xmlns="http://www.w3.org/2000/svg" xmlns:xlink="http://www.w3.org/1999/xlink" viewBox="0 0 711.31 517.42">
  <defs>
    <style>
      .cls-1 {
        fill: #5d5d5a;
        mix-blend-mode: multiply;
        opacity: .25;
      }

      .cls-1, .cls-2, .cls-3, .cls-4, .cls-5, .cls-6, .cls-7 {
        stroke-width: 0px;
      }

      .cls-8 {
        isolation: isolate;
      }

      .cls-2 {
        fill: none;
      }

      .cls-3 {
        fill: #fff;
      }

      .cls-9 {
        clip-path: url(#clippath);
      }

      .cls-4 {
        fill: #fcf9e2;
      }

      .cls-5 {
        fill: #aa5415;
      }

      .cls-6 {
        fill: #689268;
      }

      .cls-7 {
        fill: #e8872a;
      }
    </style>
    <clipPath id="clippath">
      <rect class="cls-2" x="127.71" y="100.85" width="104.2" height="104.58"/>
    </clipPath>
  </defs>
  <g class="cls-8">
    <g id="_레이어_1" data-name="레이어 1">
      <g>
        <g>
          <path class="cls-6" d="M265.75,81.07h0s0,0,0,0h0V0l-132.88,76.72L0,153.43l.64.37,132.23,76.34,50.84,29.35,82.04,47.36v-57.01c15.54.02,31.07.86,46.53,2.51,30.52,4.95,60.43,13.12,89.22,24.38,27.52,12.48,53.68,27.78,78.05,45.63,23.28,18.96,44.57,40.26,63.54,63.54,17.85,24.38,33.15,50.54,45.63,78.05,6.82,17.44,12.5,35.3,17.03,53.45l28.95-50.15,76.6-132.67V81.07h-445.56Z"/>
          <polygon class="cls-1" points="265.75 81.07 265.75 249.85 288.52 249.85 265.75 81.07"/>
          <g>
            <path class="cls-3" d="M484,167.02v-4.91c3.17,1.23,6.42,1.84,9.76,1.84,2.76,0,4.76-.32,6.01-.97,1.24-.65,1.87-1.86,1.87-3.63,0-1.12-.26-2.02-.79-2.68-.53-.66-1.39-1.23-2.58-1.71-1.19-.48-2.98-1.02-5.37-1.64-3.55-.92-6.03-2.09-7.46-3.5-1.43-1.41-2.15-3.37-2.15-5.85,0-2.93,1.07-5.21,3.22-6.82,2.15-1.62,5.28-2.43,9.41-2.43,1.81,0,3.55.13,5.24.38,1.69.26,3.06.57,4.12.95v4.91c-2.59-.99-5.45-1.48-8.59-1.48-2.59,0-4.53.34-5.83,1.02-1.3.68-1.94,1.84-1.94,3.48,0,.99.24,1.78.72,2.38.48.6,1.27,1.12,2.38,1.59,1.11.46,2.77.96,4.98,1.51,3.85.99,6.53,2.27,8.03,3.83,1.5,1.57,2.25,3.6,2.25,6.08,0,2.93-1.1,5.21-3.3,6.85-2.2,1.64-5.43,2.45-9.69,2.45s-7.69-.54-10.28-1.64Z"/>
            <path class="cls-3" d="M514.37,166.64c-1.3-1.35-1.94-3.25-1.94-5.7v-12.68h-3.58v-4.35h3.58v-5.57l5.52-1.69v7.26h6.44l-.36,4.35h-6.08v12.37c0,1.4.32,2.38.95,2.94.63.56,1.7.84,3.2.84.92,0,1.89-.17,2.91-.51v3.94c-1.33.54-2.95.82-4.86.82-2.56,0-4.48-.67-5.78-2.02Z"/>
            <path class="cls-3" d="M529.45,143.92h5.11l.31,2.81c1.16-.75,2.54-1.43,4.14-2.05,1.6-.61,3.19-1.04,4.75-1.28v4.24c-1.47.27-3.05.69-4.75,1.25-1.7.56-3.03,1.15-3.99,1.76v17.49h-5.57v-24.23Z"/>
            <path class="cls-3" d="M549.08,165.49c-2.28-2.11-3.43-5.28-3.43-9.51,0-3.99,1.01-7.08,3.02-9.28,2.01-2.2,4.99-3.3,8.95-3.3,3.58,0,6.32.94,8.23,2.81,1.91,1.87,2.86,4.38,2.86,7.52v4.5h-17.74c.27,2.32,1.11,3.93,2.51,4.83,1.4.9,3.6,1.35,6.6,1.35,1.23,0,2.48-.12,3.76-.36,1.28-.24,2.41-.54,3.4-.92v4.09c-2.15.95-4.91,1.43-8.28,1.43-4.29,0-7.58-1.06-9.87-3.17ZM563.81,154.6v-1.69c0-1.74-.48-3.06-1.43-3.96-.95-.9-2.49-1.35-4.6-1.35-2.52,0-4.29.55-5.29,1.64-1.01,1.09-1.51,2.88-1.51,5.37h12.83Z"/>
            <path class="cls-3" d="M574.13,143.92h5.11l.26,2.56c1.16-.92,2.51-1.66,4.04-2.22s3.17-.84,4.91-.84c3.14,0,5.42.73,6.85,2.2,1.43,1.47,2.15,3.75,2.15,6.85v15.7h-5.52v-15.44c0-1.87-.39-3.19-1.18-3.94-.78-.75-2.22-1.12-4.29-1.12-1.26,0-2.5.26-3.71.77-1.21.51-2.22,1.18-3.04,1.99v17.74h-5.57v-24.23Z"/>
            <path class="cls-3" d="M608,176.79c-1.79-.24-3.3-.56-4.52-.97v-4.29c1.29.44,2.83.78,4.6,1.02,1.77.24,3.49.36,5.16.36,2.59,0,4.41-.15,5.47-.43,1.06-.29,1.59-.89,1.59-1.81,0-.72-.28-1.22-.84-1.51-.56-.29-1.59-.43-3.09-.43h-6.54c-2.15,0-3.78-.4-4.91-1.2-1.12-.8-1.69-1.95-1.69-3.45,0-1.06.31-2,.92-2.84.61-.83,1.52-1.46,2.71-1.87-2.73-1.33-4.09-3.7-4.09-7.11,0-3.07.92-5.31,2.76-6.72,1.84-1.41,4.63-2.12,8.38-2.12,1.36,0,2.85.17,4.45.51h8.9l-.15,3.63h-4.09c1.26,1.12,1.89,2.69,1.89,4.7,0,2.66-.79,4.71-2.38,6.16-1.59,1.45-3.95,2.17-7.08,2.17-.82,0-1.82-.08-3.02-.26-1.09.1-2.03.38-2.81.84-.78.46-1.18,1.05-1.18,1.76,0,.51.2.88.61,1.1.41.22,1.09.33,2.04.33h6.8c2.42,0,4.29.52,5.6,1.56,1.31,1.04,1.97,2.55,1.97,4.52,0,2.35-1,4.06-2.99,5.11-1.99,1.06-4.98,1.58-8.97,1.58-1.87,0-3.71-.12-5.5-.36ZM618.53,155.96c.87-.73,1.3-2.02,1.3-3.86s-.44-3.16-1.33-3.96c-.89-.8-2.42-1.2-4.6-1.2s-3.64.4-4.58,1.2c-.94.8-1.41,2.12-1.41,3.96s.45,3.04,1.35,3.81c.9.77,2.45,1.15,4.63,1.15s3.76-.37,4.63-1.1Z"/>
            <path class="cls-3" d="M633.18,166.64c-1.3-1.35-1.94-3.25-1.94-5.7v-12.68h-3.58v-4.35h3.58v-5.57l5.52-1.69v7.26h6.44l-.36,4.35h-6.08v12.37c0,1.4.32,2.38.95,2.94.63.56,1.7.84,3.2.84.92,0,1.89-.17,2.91-.51v3.94c-1.33.54-2.95.82-4.86.82-2.56,0-4.48-.67-5.78-2.02Z"/>
            <path class="cls-3" d="M648.26,133.69h5.57v12.58c1.09-.89,2.38-1.59,3.86-2.1,1.48-.51,3.11-.77,4.88-.77,3.07,0,5.33.73,6.8,2.2,1.46,1.47,2.2,3.75,2.2,6.85v15.7h-5.52v-15.44c0-1.87-.4-3.19-1.2-3.94-.8-.75-2.19-1.12-4.17-1.12-1.23,0-2.47.26-3.73.79-1.26.53-2.3,1.22-3.12,2.07v17.64h-5.57v-34.46Z"/>
          </g>
          <g class="cls-9">
            <g>
              <path class="cls-7" d="M220.64,185.53c-1.23,1.49-2.49,2.95-3.81,4.31,1.36-1.36,2.62-2.78,3.81-4.31Z"/>
              <path class="cls-7" d="M164.25,178.01c-1.46-1.2-2.65-2.56-3.51-4.09l-1.16-2.06,6.7-7.72,2.45,3.36c.56.8,1.26,1.5,2.06,2.1.86.67,1.76,1.2,2.72,1.63,1.03.47,2.02.8,3.05,1.03.99.23,1.96.33,2.88.33,1.29,0,2.52-.17,3.71-.5,1.09-.33,2.06-.77,2.92-1.36.76-.53,1.33-1.2,1.76-1.96.4-.7.6-1.6.6-2.6,0-1.2-.23-2.2-.7-2.96-.53-.9-1.19-1.63-2.09-2.26-1.09-.77-2.32-1.46-3.68-2.06-1.43-.63-2.98-1.26-4.81-1.96-1.76-.7-3.51-1.43-5.17-2.26-1.79-.9-3.45-1.96-4.94-3.19l-.03-.03c-1.62-1.36-2.92-3.06-3.88-4.99-.96-2.03-1.46-4.36-1.49-6.99,0-2.3.43-4.43,1.29-6.42.83-2,2.12-3.76,3.78-5.26,1.59-1.46,3.58-2.6,5.87-3.43,2.22-.77,4.74-1.16,7.53-1.2,2.19,0,4.31.27,6.33.77,2.06.5,3.91,1.23,5.57,2.16,1.72.93,3.22,2.1,4.44,3.46l.07.07,34.25,34.37c.73-3.49,1.13-7.12,1.13-10.85.03-28.78-23.37-52.27-52.08-52.27s-52.08,23.49-52.08,52.27,23.41,52.27,52.08,52.27c3.68,0,7.26-.4,10.74-1.13l-25.89-25.99c-.13-.07-.27-.17-.4-.27Z"/>
              <path class="cls-5" d="M216.83,189.86c1.33-1.4,2.62-2.83,3.81-4.33,4.91-6.19,8.42-13.54,10.11-21.56l-34.25-34.37,1.76,1.93-6.1,8.35-2.75-2.73c-2.32-2.33-5.34-3.46-9.18-3.46-1.79,0-3.28.3-4.51.83-1.06.5-1.82,1.13-2.39,1.96-.53.8-.8,1.8-.8,2.99s.23,2.13.66,2.86c.5.83,1.19,1.56,2.06,2.16,1.09.73,2.35,1.4,3.71,2,1.46.6,3.02,1.23,4.77,1.9,1.79.67,3.55,1.43,5.2,2.23,1.79.87,3.48,1.96,4.97,3.26,1.62,1.4,2.92,3.09,3.88,5.09.96,2.03,1.46,4.43,1.46,7.15v.03c0,2.6-.56,4.99-1.62,7.12-1.06,2.1-2.55,3.93-4.41,5.42-1.82,1.43-3.91,2.53-6.27,3.29-2.32.73-4.81,1.1-7.46,1.13-1.79,0-3.61-.2-5.4-.6-1.76-.37-3.55-.93-5.2-1.66-1.59-.73-3.02-1.56-4.24-2.5l25.89,25.99c10.14-2.2,19.23-7.35,26.29-14.51Z"/>
              <path class="cls-4" d="M191.99,126.07c-1.66-.93-3.55-1.63-5.57-2.16-2.02-.5-4.14-.77-6.33-.77-2.75,0-5.27.4-7.53,1.2-2.29.83-4.28,1.96-5.87,3.43-1.66,1.5-2.92,3.29-3.78,5.26-.86,2-1.29,4.16-1.29,6.42,0,2.63.5,4.96,1.49,6.99.96,1.93,2.25,3.59,3.88,4.99l.03.03c1.49,1.23,3.15,2.3,4.94,3.19,1.66.83,3.41,1.56,5.17,2.26,1.79.7,3.35,1.33,4.81,1.96,1.36.6,2.59,1.3,3.68,2.06.9.63,1.59,1.36,2.09,2.26.43.73.66,1.73.7,2.96,0,1-.23,1.9-.6,2.6-.43.77-.99,1.4-1.76,1.96-.83.6-1.79,1.03-2.92,1.36-1.16.33-2.42.5-3.71.5-.96,0-1.89-.1-2.88-.33-.99-.23-2.02-.57-3.05-1.03-.96-.43-1.86-1-2.72-1.63-.8-.6-1.46-1.3-2.06-2.1l-2.45-3.36-6.7,7.72,1.16,2.06c.86,1.53,2.06,2.89,3.51,4.09.13.1.27.2.4.3l-1.16-1.16,9.51-.2,11.11.6,9.12-5.59-.73-11.85-7.89-5.72-10.81-4.09-6.4-6.65.66-10.48,8.12-4.86h9.58l10.34.87.43.43-.07-.07c-1.23-1.33-2.75-2.53-4.48-3.46Z"/>
              <path class="cls-4" d="M185.76,128.33h-9.58l-8.12,4.86-.66,10.48,6.4,6.65,10.84,4.09,7.89,5.72.73,11.85-9.12,5.59-11.11-.6-9.51.2,1.16,1.16c1.23.96,2.65,1.8,4.24,2.5,1.66.73,3.41,1.3,5.2,1.66,1.82.4,3.61.6,5.4.6,2.62,0,5.14-.4,7.46-1.13,2.35-.77,4.48-1.86,6.27-3.29,1.89-1.5,3.35-3.33,4.41-5.42,1.06-2.13,1.62-4.53,1.62-7.12v-.03c0-2.73-.5-5.12-1.46-7.15-.96-2-2.25-3.69-3.88-5.09-1.49-1.3-3.18-2.36-4.97-3.26-1.69-.83-3.41-1.56-5.2-2.23-1.76-.67-3.32-1.26-4.77-1.9-1.36-.57-2.62-1.23-3.71-2-.86-.6-1.56-1.33-2.06-2.16-.43-.73-.66-1.66-.66-2.86s.27-2.16.8-2.99c.53-.83,1.33-1.5,2.39-1.96,1.23-.57,2.75-.83,4.51-.83,3.85,0,6.86,1.13,9.18,3.46l2.75,2.73,6.1-8.35-1.76-1.93-.43-.43-10.34-.8Z"/>
            </g>
          </g>
        </g>
        <path class="cls-3" d="M352.91,210.48h11.18v1.22h-11.18v-1.22ZM351.05,215.86h14.74v1.26h-14.74v-1.26ZM357.64,211h1.49v5.36h-1.49v-5.36ZM352.91,204.18h11.02v1.22h-9.52v5.62h-1.49v-6.84ZM379.44,202.9h1.51v9.23h-1.51v-9.23ZM370.44,213.07h10.51v5.87h-10.51v-5.87ZM379.48,214.26h-7.58v3.47h7.58v-3.47ZM371.84,203.52h1.24v1.58c0,3.02-1.87,5.62-4.63,6.64l-.74-1.19c2.45-.88,4.12-3.08,4.12-5.45v-1.58ZM372.11,203.52h1.22v1.58c0,2.3,1.69,4.34,4.1,5.15l-.74,1.17c-2.72-.94-4.59-3.37-4.59-6.32v-1.58ZM384.89,204.67h7.36v1.21h-7.36v-1.21ZM387.43,209.31h1.48v5.51h-1.48v-5.51ZM391.64,204.67h1.46v.86c0,1.33,0,3.46-.47,6.48l-1.48-.14c.49-2.93.49-5.02.49-6.34v-.86ZM395.15,202.89h1.48v16.27h-1.48v-16.27ZM396.23,209.69h3.01v1.26h-3.01v-1.26ZM384.17,215.61l-.18-1.26c2.95,0,6.88-.05,10.17-.47l.07,1.1c-3.37.54-7.18.61-10.06.63ZM416.79,202.87h1.51v16.29h-1.51v-16.29ZM417.89,209.47h3.01v1.24h-3.01v-1.24ZM412.63,204.63h1.46c0,4.63-2.12,8.8-7.38,11.45l-.83-1.15c4.5-2.29,6.75-5.76,6.75-10.06v-.23ZM406.64,204.63h6.77v1.22h-6.77v-1.22ZM433.64,202.89h1.48v16.27h-1.48v-16.27ZM434.65,209.58h2.9v1.26h-2.9v-1.26ZM425.84,204.63h1.37c0,3.92-.83,7.72-3.74,10.87l-1.21-.85c2.68-2.79,3.58-6.17,3.58-9.86v-.16ZM422.78,204.63h3.62v1.24h-3.62v-1.24ZM430.27,204.63h1.39c0,3.94-.56,8.41-3.55,11.95l-1.21-.83c2.75-3.19,3.37-7.22,3.37-10.98v-.14ZM427.73,204.63h3.15v1.24h-3.15v-1.24ZM438.89,211.13h14.76v1.22h-14.76v-1.22ZM445.62,211.9h1.51v3.74h-1.51v-3.74ZM440.76,217.56h11.25v1.24h-11.25v-1.24ZM440.76,214.05h1.49v3.85h-1.49v-3.85ZM446.25,203.28c3.44,0,5.71,1.26,5.71,3.28s-2.27,3.28-5.71,3.28-5.71-1.26-5.71-3.28,2.25-3.28,5.71-3.28ZM446.25,204.51c-2.48,0-4.12.79-4.12,2.05s1.64,2.05,4.12,2.05,4.12-.77,4.12-2.05-1.64-2.05-4.12-2.05ZM464.55,205.21h1.19v2.65c0,3.38-2.07,6.88-4.61,8.17l-.86-1.19c2.32-1.13,4.28-4.23,4.28-6.98v-2.65ZM464.82,205.21h1.19v2.65c0,2.57,1.84,5.47,4.19,6.59l-.85,1.19c-2.57-1.28-4.54-4.55-4.54-7.78v-2.65ZM460.84,204.54h8.77v1.26h-8.77v-1.26ZM471.53,202.89h1.51v16.27h-1.51v-16.27ZM472.68,209.46h3.02v1.26h-3.02v-1.26ZM484.61,205.42h4.9v1.22h-4.9v-1.22ZM484.61,209.33h4.9v1.22h-4.9v-1.22ZM488.97,202.9h1.49v12.02h-1.49v-12.02ZM480.08,217.57h10.84v1.22h-10.84v-1.22ZM480.08,213.69h1.49v4.43h-1.49v-4.43ZM481.52,203.93c2.39,0,4.19,1.67,4.19,4.07s-1.8,4.07-4.19,4.07-4.19-1.67-4.19-4.07,1.8-4.07,4.19-4.07ZM481.52,205.24c-1.58,0-2.75,1.15-2.75,2.75s1.17,2.77,2.75,2.77,2.77-1.15,2.77-2.77-1.19-2.75-2.77-2.75ZM500.24,209.2h3.08v1.24h-3.08v-1.24ZM506.03,202.89h1.44v16.27h-1.44v-16.27ZM502.81,203.23h1.42v15.12h-1.42v-15.12ZM497.3,204.24c2.11,0,3.47,2.18,3.47,5.67s-1.37,5.67-3.47,5.67-3.46-2.18-3.46-5.67,1.35-5.67,3.46-5.67ZM497.3,205.62c-1.28,0-2.09,1.66-2.09,4.28s.81,4.28,2.09,4.28,2.11-1.66,2.11-4.28-.81-4.28-2.11-4.28ZM519.91,211.49h1.51v3.53h-1.51v-3.53ZM519.91,205.77h1.21v.36c0,2.84-1.85,5.04-4.59,5.9l-.68-1.17c2.41-.72,4.07-2.54,4.07-4.73v-.36ZM520.2,205.77h1.21v.36c0,2.11,1.71,3.87,4.1,4.57l-.68,1.15c-2.74-.81-4.63-2.97-4.63-5.72v-.36ZM516.22,205.01h8.95v1.21h-8.95v-1.21ZM519.91,202.99h1.51v2.54h-1.51v-2.54ZM527.02,202.87h1.49v16.31h-1.49v-16.31ZM515.56,215.83l-.22-1.26c2.97,0,7.07-.02,10.62-.56l.13,1.1c-3.65.68-7.63.7-10.53.72ZM533.38,204.51h10.48v1.24h-10.48v-1.24ZM531.83,215.65h14.71v1.24h-14.71v-1.24ZM537.53,209.83h1.49v6.43h-1.49v-6.43ZM543.29,204.51h1.48v1.62c0,2.02,0,4.25-.59,7.54l-1.49-.2c.61-3.11.61-5.4.61-7.34v-1.62ZM550.29,212.19h1.48v2.14h7.96v-2.14h1.49v6.75h-10.93v-6.75ZM551.77,215.52v2.21h7.96v-2.21h-7.96ZM550.26,203.62h10.48v1.22h-10.48v-1.22ZM548.39,209.51h14.74v1.24h-14.74v-1.24ZM559.76,203.62h1.46v1.19c0,1.33,0,2.86-.5,5.04l-1.49.02c.54-2.18.54-3.73.54-5.06v-1.19ZM570.73,205.26h13.21v1.22h-13.21v-1.22ZM570.01,216.03h14.74v1.24h-14.74v-1.24ZM576.61,213.45h1.48v3.06h-1.48v-3.06ZM577.33,207.58c3.29,0,5.33,1.13,5.33,3.1s-2.03,3.1-5.33,3.1-5.31-1.13-5.31-3.1,2.03-3.1,5.31-3.1ZM577.33,208.75c-2.36,0-3.82.72-3.82,1.93s1.46,1.91,3.82,1.91,3.82-.7,3.82-1.91-1.44-1.93-3.82-1.93ZM576.61,203.16h1.48v2.86h-1.48v-2.86ZM593.55,206.54h2.77v1.21h-2.77v-1.21ZM587.3,209.83h1.01c2.34,0,3.92-.07,5.87-.43l.14,1.15c-2,.38-3.62.45-6.01.45h-1.01v-1.17ZM587.3,203.86h6.14v1.19h-4.72v5.54h-1.42v-6.73ZM588.29,206.77h4.5v1.15h-4.5v-1.15ZM598.84,202.9h1.42v8.78h-1.42v-8.78ZM595.71,203.17h1.4v8.35h-1.4v-8.35ZM589.54,212.43h10.73v3.76h-9.22v2.39h-1.48v-3.51h9.25v-1.48h-9.29v-1.17ZM589.57,217.81h11.32v1.17h-11.32v-1.17ZM607.36,203.66h1.24v1.58c0,3.08-1.84,5.72-4.59,6.77l-.76-1.19c2.47-.9,4.1-3.15,4.1-5.58v-1.58ZM607.63,203.66h1.22v1.58c0,2.34,1.67,4.45,4.09,5.29l-.76,1.17c-2.72-.99-4.55-3.47-4.55-6.46v-1.58ZM605.59,213.51h10.87v5.65h-1.51v-4.43h-9.36v-1.22ZM614.95,202.89h1.51v9.79h-1.51v-9.79ZM635.85,202.89h1.49v12.74h-1.49v-12.74ZM636.72,208.56h3.01v1.24h-3.01v-1.24ZM627.05,217.57h10.87v1.22h-10.87v-1.22ZM627.05,214.78h1.49v3.17h-1.49v-3.17ZM628.99,210.84h1.49v2.21h-1.49v-2.21ZM624.84,213.76l-.2-1.21c2.88,0,6.89-.05,10.24-.58l.13,1.06c-3.44.63-7.34.7-10.17.72ZM625.05,204.47h9.34v1.13h-9.34v-1.13ZM629.73,206.27c2.29,0,3.78.95,3.78,2.5s-1.49,2.52-3.78,2.52-3.8-.95-3.8-2.52,1.51-2.5,3.8-2.5ZM629.73,207.33c-1.46,0-2.39.56-2.39,1.44s.94,1.44,2.39,1.44,2.38-.54,2.38-1.44-.94-1.44-2.38-1.44ZM628.99,202.81h1.49v2.16h-1.49v-2.16ZM649.08,205.87h4.36v1.22h-4.36v-1.22ZM648.94,209.26h4.39v1.22h-4.39v-1.22ZM653.18,202.89h1.49v9.76h-1.49v-9.76ZM648.09,204.11h1.6c0,4.19-2.9,7.13-7.58,8.53l-.61-1.21c4.16-1.21,6.59-3.6,6.59-6.68v-.65ZM642.35,204.11h6.77v1.22h-6.77v-1.22ZM649.39,212.82c3.29,0,5.38,1.17,5.38,3.13s-2.09,3.13-5.38,3.13-5.38-1.17-5.38-3.13,2.09-3.13,5.38-3.13ZM649.39,213.99c-2.38,0-3.91.74-3.91,1.96s1.53,1.94,3.91,1.94,3.92-.72,3.92-1.94-1.53-1.96-3.92-1.96ZM658.58,204.67h7.36v1.21h-7.36v-1.21ZM661.12,209.31h1.48v5.51h-1.48v-5.51ZM665.33,204.67h1.46v.86c0,1.33,0,3.46-.47,6.48l-1.48-.14c.49-2.93.49-5.02.49-6.34v-.86ZM668.84,202.89h1.48v16.27h-1.48v-16.27ZM669.92,209.69h3.01v1.26h-3.01v-1.26ZM657.86,215.61l-.18-1.26c2.95,0,6.88-.05,10.17-.47l.07,1.1c-3.37.54-7.18.61-10.06.63ZM378.35,234.06c2.54,0,4.36,1.57,4.36,3.83s-1.82,3.85-4.36,3.85-4.37-1.57-4.37-3.85,1.84-3.83,4.37-3.83ZM378.35,235.35c-1.69,0-2.92,1.03-2.92,2.54s1.22,2.56,2.92,2.56,2.9-1.04,2.9-2.56-1.22-2.54-2.9-2.54ZM384.83,232.87h1.49v16.31h-1.49v-16.31ZM373.37,245.61l-.22-1.24c2.97,0,7.07-.02,10.62-.58l.13,1.1c-3.65.7-7.63.72-10.53.72ZM393.74,242.43h1.48v4h-1.48v-4ZM398.94,242.39h1.46v4.01h-1.46v-4.01ZM389.64,245.92h14.74v1.24h-14.74v-1.24ZM391.42,234.09h11.14v4.91h-9.61v3.28h-1.48v-4.46h9.61v-2.52h-9.67v-1.21ZM391.47,241.62h11.47v1.22h-11.47v-1.22ZM414.32,238.39h4.54v1.22h-4.54v-1.22ZM410.39,234.29h1.22v2.9c0,3.65-1.93,7.15-4.5,8.53l-.95-1.19c2.39-1.19,4.23-4.32,4.23-7.34v-2.9ZM410.68,234.29h1.21v2.9c0,2.97,1.84,5.92,4.19,7.04l-.88,1.21c-2.63-1.33-4.52-4.68-4.52-8.24v-2.9ZM418.11,232.87h1.48v16.31h-1.48v-16.31ZM434.56,232.87h1.49v16.31h-1.49v-16.31ZM423.67,234.25h1.48v4.3h4.7v-4.3h1.49v11h-7.67v-11ZM425.15,239.74v4.28h4.7v-4.28h-4.7ZM445.83,234h1.3v1.24c0,3.55-3.29,6.3-6.55,7.04l-.67-1.24c2.86-.54,5.92-3.02,5.92-5.8v-1.24ZM446.1,234h1.3v1.24c0,2.79,3.08,5.26,5.92,5.8l-.67,1.24c-3.24-.74-6.55-3.47-6.55-7.04v-1.24ZM439.31,245.74h14.74v1.22h-14.74v-1.22ZM458.6,245.96l-.1.69c-.07.49-.18,1.01-.33,1.56-.14.55-.3,1.08-.45,1.57-.16.49-.29.88-.39,1.17h-1.15c.06-.27.13-.63.22-1.08.09-.45.18-.95.27-1.5.09-.55.17-1.11.23-1.69l.08-.72h1.64ZM473.31,236.5h4.91v1.24h-4.91v-1.24ZM473.31,241.65h4.91v1.24h-4.91v-1.24ZM470.32,234.13c2.36,0,4.05,2.21,4.05,5.67s-1.69,5.69-4.05,5.69-4.05-2.21-4.05-5.69,1.67-5.67,4.05-5.67ZM470.32,235.48c-1.57,0-2.65,1.69-2.65,4.32s1.08,4.37,2.65,4.37,2.65-1.73,2.65-4.37-1.08-4.32-2.65-4.32ZM477.9,232.87h1.48v16.31h-1.48v-16.31ZM493.54,232.87h1.51v16.29h-1.51v-16.29ZM494.64,239.47h3.01v1.24h-3.01v-1.24ZM489.38,234.63h1.46c0,4.63-2.12,8.8-7.38,11.45l-.83-1.15c4.5-2.29,6.75-5.76,6.75-10.06v-.23ZM483.39,234.63h6.77v1.22h-6.77v-1.22ZM510.2,232.89h1.49v9.59h-1.49v-9.59ZM511.07,237.04h3.01v1.24h-3.01v-1.24ZM501.17,243.22h10.53v3.29h-9.04v1.73h-1.46v-2.72h9.04v-1.24h-9.07v-1.06ZM501.2,247.92h11.12v1.06h-11.12v-1.06ZM503.35,239.56h1.49v2.07h-1.49v-2.07ZM499.17,242.12l-.18-1.1c2.9,0,6.89-.02,10.24-.49l.13.95c-3.47.61-7.34.63-10.19.63ZM499.4,234.13h9.34v1.06h-9.34v-1.06ZM504.08,235.69c2.3,0,3.78.79,3.78,2.14s-1.48,2.14-3.78,2.14-3.8-.79-3.8-2.14,1.48-2.14,3.8-2.14ZM504.08,236.68c-1.46,0-2.39.43-2.39,1.15s.94,1.17,2.39,1.17,2.38-.45,2.38-1.17-.92-1.15-2.38-1.15ZM503.35,232.72h1.49v1.96h-1.49v-1.96ZM515.66,240.9h14.71v1.22h-14.71v-1.22ZM522.26,238.29h1.48v3.11h-1.48v-3.11ZM517.51,237.82h11.14v1.22h-11.14v-1.22ZM517.51,233.62h11.02v1.21h-9.54v3.71h-1.48v-4.91ZM522.98,243.29c3.47,0,5.58,1.06,5.58,2.92s-2.11,2.93-5.58,2.93-5.58-1.04-5.58-2.93,2.11-2.92,5.58-2.92ZM522.98,244.44c-2.54,0-4.07.65-4.07,1.76s1.53,1.76,4.07,1.76,4.07-.63,4.07-1.76-1.51-1.76-4.07-1.76ZM532.21,240.63h14.71v1.24h-14.71v-1.24ZM534.07,237.87h11.14v1.21h-11.14v-1.21ZM534.07,233.53h11.02v1.22h-9.54v3.69h-1.48v-4.91ZM539.54,243.27c3.47,0,5.58,1.06,5.58,2.93s-2.11,2.92-5.58,2.92-5.58-1.04-5.58-2.92,2.11-2.93,5.58-2.93ZM539.54,244.42c-2.54,0-4.07.65-4.07,1.78s1.53,1.75,4.07,1.75,4.07-.63,4.07-1.75-1.51-1.78-4.07-1.78ZM549.49,234.67h7.36v1.21h-7.36v-1.21ZM552.03,239.31h1.48v5.51h-1.48v-5.51ZM556.24,234.67h1.46v.86c0,1.33,0,3.46-.47,6.48l-1.48-.14c.49-2.93.49-5.02.49-6.34v-.86ZM559.75,232.89h1.48v16.27h-1.48v-16.27ZM560.83,239.69h3.01v1.26h-3.01v-1.26ZM548.77,245.61l-.18-1.26c2.95,0,6.88-.05,10.17-.47l.07,1.1c-3.37.54-7.18.61-10.06.63ZM571.52,234.51h10.48v1.24h-10.48v-1.24ZM570.01,245.65h14.71v1.24h-14.71v-1.24ZM573.61,240.27h1.48v5.83h-1.48v-5.83ZM581.51,234.51h1.48v1.8c0,2.07,0,4.19-.56,7.24l-1.49-.18c.58-2.88.58-5.04.58-7.06v-1.8ZM577.62,240.27h1.48v5.83h-1.48v-5.83ZM598.93,232.89h1.44v16.27h-1.44v-16.27ZM593.01,238.72h3.11v1.24h-3.11v-1.24ZM595.67,233.26h1.4v15.07h-1.4v-15.07ZM589.88,235.41h1.15v2.07c0,3.56-1.37,6.93-3.76,8.44l-.92-1.12c2.27-1.37,3.53-4.34,3.53-7.33v-2.07ZM590.18,235.41h1.15v2.07c0,2.83,1.22,5.65,3.46,6.95l-.92,1.1c-2.38-1.44-3.69-4.64-3.69-8.05v-2.07ZM586.8,234.78h7.43v1.24h-7.43v-1.24ZM607.23,241.09h1.49v3.89h-1.49v-3.89ZM607.97,233.93c2.5,0,4.3,1.57,4.3,3.83s-1.8,3.83-4.3,3.83-4.3-1.57-4.3-3.83,1.8-3.83,4.3-3.83ZM607.97,235.21c-1.66,0-2.84,1.04-2.84,2.56s1.19,2.56,2.84,2.56,2.84-1.04,2.84-2.56-1.19-2.56-2.84-2.56ZM614.12,232.89h1.49v16.27h-1.49v-16.27ZM615.19,239.58h3.01v1.26h-3.01v-1.26ZM603.14,245.65l-.22-1.24c2.93-.02,6.86-.04,10.17-.49l.13,1.12c-3.44.58-7.24.61-10.08.61ZM626.26,234.51h10.48v1.24h-10.48v-1.24ZM624.75,245.65h14.71v1.24h-14.71v-1.24ZM628.35,240.27h1.48v5.83h-1.48v-5.83ZM636.25,234.51h1.48v1.8c0,2.07,0,4.19-.56,7.24l-1.49-.18c.58-2.88.58-5.04.58-7.06v-1.8ZM632.36,240.27h1.48v5.83h-1.48v-5.83ZM641.29,242.57h14.76v1.22h-14.76v-1.22ZM645.1,243.24h1.51v5.92h-1.51v-5.92ZM650.7,243.24h1.49v5.92h-1.49v-5.92ZM643.05,233.52h11.2v4.19h-9.65v2.79h-1.51v-3.94h9.67v-1.84h-9.7v-1.21ZM643.09,239.71h11.54v1.21h-11.54v-1.21ZM657.85,240.45h14.76v1.13h-14.76v-1.13ZM659.59,242.89h11.16v3.47h-9.63v1.91h-1.48v-2.93h9.65v-1.39h-9.7v-1.06ZM659.65,247.88h11.63v1.08h-11.63v-1.08ZM659.72,233.35h10.98v3.38h-9.47v1.76h-1.48v-2.77h9.49v-1.31h-9.52v-1.06ZM659.75,238.14h11.25v1.08h-11.25v-1.08ZM482.13,271.51h14.71v1.21h-14.71v-1.21ZM488.74,269.4h1.48v2.61h-1.48v-2.61ZM484.08,268.74h11.03v1.17h-11.03v-1.17ZM484.08,263.35h10.96v1.17h-9.49v4.84h-1.48v-6.01ZM485.12,266.02h9.49v1.15h-9.49v-1.15ZM489.48,273.92c3.55,0,5.58.9,5.58,2.61s-2.03,2.59-5.58,2.59-5.58-.9-5.58-2.59,2.03-2.61,5.58-2.61ZM489.48,275.05c-2.61,0-4.07.52-4.07,1.48s1.46,1.48,4.07,1.48,4.07-.5,4.07-1.48-1.46-1.48-4.07-1.48ZM509.84,262.9h1.49v12.2h-1.49v-12.2ZM510.86,268.23h2.88v1.26h-2.88v-1.26ZM498.75,264.87h9.61v1.21h-9.61v-1.21ZM503.55,266.97c2.3,0,3.89,1.21,3.89,3.04s-1.58,3.02-3.89,3.02-3.91-1.21-3.91-3.02,1.58-3.04,3.91-3.04ZM503.55,268.14c-1.48,0-2.48.74-2.48,1.87s1.01,1.85,2.48,1.85,2.47-.74,2.47-1.85-1.01-1.87-2.47-1.87ZM502.8,262.89h1.49v2.61h-1.49v-2.61ZM501.2,277.57h10.87v1.22h-10.87v-1.22ZM501.2,274.14h1.49v3.96h-1.49v-3.96ZM522.13,270.27h11.27v1.22h-11.27v-1.22ZM520.33,275.83h14.74v1.24h-14.74v-1.24ZM526.94,271.02h1.48v5.2h-1.48v-5.2ZM522.13,264.25h1.49v6.55h-1.49v-6.55ZM537.65,264.74h13.09v1.21h-13.09v-1.21ZM536.89,273.43h14.74v1.22h-14.74v-1.22ZM543.48,274.42h1.49v4.75h-1.49v-4.75ZM544.23,266.88c3.31,0,5.27.97,5.27,2.72s-1.96,2.72-5.27,2.72-5.29-.99-5.29-2.72,1.96-2.72,5.29-2.72ZM544.23,268.03c-2.38,0-3.74.56-3.74,1.57s1.37,1.57,3.74,1.57,3.74-.56,3.74-1.57-1.37-1.57-3.74-1.57ZM543.48,262.8h1.49v2.75h-1.49v-2.75ZM558.72,264.06c2.54,0,4.36,1.57,4.36,3.83s-1.82,3.85-4.36,3.85-4.37-1.57-4.37-3.85,1.84-3.83,4.37-3.83ZM558.72,265.35c-1.69,0-2.92,1.03-2.92,2.54s1.22,2.56,2.92,2.56,2.9-1.04,2.9-2.56-1.22-2.54-2.9-2.54ZM565.2,262.87h1.49v16.31h-1.49v-16.31ZM553.74,275.61l-.22-1.24c2.97,0,7.07-.02,10.62-.58l.13,1.1c-3.65.7-7.63.72-10.53.72ZM579.71,271.49h1.51v3.53h-1.51v-3.53ZM579.71,265.77h1.21v.36c0,2.84-1.85,5.04-4.59,5.9l-.68-1.17c2.41-.72,4.07-2.54,4.07-4.73v-.36ZM580,265.77h1.21v.36c0,2.11,1.71,3.87,4.1,4.57l-.68,1.15c-2.74-.81-4.63-2.97-4.63-5.72v-.36ZM576.02,265.01h8.95v1.21h-8.95v-1.21ZM579.71,262.99h1.51v2.54h-1.51v-2.54ZM586.82,262.87h1.49v16.31h-1.49v-16.31ZM575.36,275.83l-.22-1.26c2.97,0,7.07-.02,10.62-.56l.13,1.1c-3.65.68-7.63.7-10.53.72ZM593.18,264.51h10.48v1.24h-10.48v-1.24ZM591.63,275.65h14.71v1.24h-14.71v-1.24ZM597.34,269.83h1.49v6.43h-1.49v-6.43ZM603.1,264.51h1.48v1.62c0,2.02,0,4.25-.59,7.54l-1.49-.2c.61-3.11.61-5.4.61-7.34v-1.62ZM613.46,264.06c2.54,0,4.36,1.57,4.36,3.83s-1.82,3.85-4.36,3.85-4.37-1.57-4.37-3.85,1.84-3.83,4.37-3.83ZM613.46,265.35c-1.69,0-2.92,1.03-2.92,2.54s1.22,2.56,2.92,2.56,2.9-1.04,2.9-2.56-1.22-2.54-2.9-2.54ZM619.94,262.87h1.49v16.31h-1.49v-16.31ZM608.48,275.61l-.22-1.24c2.97,0,7.07-.02,10.62-.58l.13,1.1c-3.65.7-7.63.72-10.53.72ZM640.93,262.87h1.49v11.99h-1.49v-11.99ZM641.96,267.82h2.88v1.24h-2.88v-1.24ZM632.29,277.57h10.87v1.22h-10.87v-1.22ZM632.29,273.63h1.49v4.43h-1.49v-4.43ZM634.34,264.02c2.43,0,4.25,1.67,4.25,4.01s-1.82,4.01-4.25,4.01-4.25-1.66-4.25-4.01,1.82-4.01,4.25-4.01ZM634.34,265.33c-1.58,0-2.79,1.12-2.79,2.7s1.21,2.7,2.79,2.7,2.79-1.1,2.79-2.7-1.21-2.7-2.79-2.7ZM650.6,263.66h1.24v1.58c0,3.08-1.84,5.72-4.59,6.77l-.76-1.19c2.47-.9,4.1-3.15,4.1-5.58v-1.58ZM650.87,263.66h1.22v1.58c0,2.34,1.67,4.45,4.09,5.29l-.76,1.17c-2.72-.99-4.55-3.47-4.55-6.46v-1.58ZM648.83,273.51h10.87v5.65h-1.51v-4.43h-9.36v-1.22ZM658.19,262.89h1.51v9.79h-1.51v-9.79ZM674.82,262.87h1.48v16.31h-1.48v-16.31ZM671.31,269.4h3.94v1.24h-3.94v-1.24ZM667.07,266.76h1.19v1.39c0,3.44-1.89,6.61-4.46,7.88l-.85-1.15c2.39-1.15,4.12-3.92,4.12-6.73v-1.39ZM667.35,266.76h1.17v1.39c0,2.68,1.78,5.33,4.18,6.43l-.83,1.15c-2.61-1.21-4.52-4.25-4.52-7.58v-1.39ZM663.39,265.71h8.75v1.21h-8.75v-1.21ZM667.05,263.17h1.49v3.2h-1.49v-3.2Z"/>
      </g>
    </g>
  </g>
</svg>