<svg width="100" height="101" viewBox="0 0 100 101" fill="none" xmlns="http://www.w3.org/2000/svg">
<g clip-path="url(#clip0_138_1018)">
<path d="M30.0032 71.1314C27.4578 68.5861 25.4852 65.4999 24.0535 62.0318C22.6535 58.5638 21.9535 54.7458 21.9217 50.6096V50.5778C21.9217 47.3643 22.399 44.3099 23.2898 41.4464C24.1807 38.6147 25.4534 35.9739 27.1397 33.5559C28.826 31.1696 30.8304 29.1015 33.153 27.3516C35.4757 25.6335 38.0846 24.2654 40.9163 23.3427C43.7162 22.42 46.7706 21.9428 49.9841 21.911C53.9294 21.911 57.6519 22.6427 61.0563 24.0427C64.0153 25.2835 66.6879 26.9698 68.9787 29.0379V29.0061L69.5832 29.6106C69.7423 29.7379 69.8696 29.897 70.0286 30.0242C70.1241 30.1197 70.1877 30.1833 70.2832 30.2788L99.2682 59.2638C99.7773 56.4321 100.032 53.505 100.032 50.546C100 23.0564 77.5374 0.59375 49.9841 0.59375C22.4626 0.59375 0 23.0564 0 50.5778C0 78.1311 22.4626 100.562 49.9841 100.562C52.9749 100.562 55.9338 100.307 58.7973 99.7665L31.594 72.5632C31.0531 72.1496 30.5123 71.6405 30.0032 71.1314Z" fill="#D93A37"/>
<path d="M56.9202 33.3652C54.8203 32.4743 52.4976 31.9971 49.9841 31.9971C47.4706 31.9971 45.1162 32.4743 43.0163 33.3652C40.8845 34.2879 39.071 35.5287 37.4801 37.1832C35.8893 38.8377 34.6485 40.8103 33.7576 43.0375C32.8667 45.2965 32.3895 47.8418 32.3895 50.5781C32.3895 53.2189 32.8667 55.7324 33.7576 58.055C34.6485 60.2822 35.9211 62.2548 37.512 63.9093C39.1028 65.5638 40.9482 66.8682 43.0799 67.7591C45.1798 68.6818 47.5342 69.1272 50.0159 69.159C52.5931 69.159 54.9793 68.6818 57.1111 67.7591C59.2746 66.8364 61.0563 65.5638 62.6472 63.9093C64.2062 62.2548 65.4152 60.2822 66.3061 58.0232C67.1652 55.7642 67.6106 53.2507 67.6424 50.5462C67.6424 47.8418 67.1652 45.2965 66.2743 43.0375C65.3834 40.7467 64.1426 38.8377 62.5517 37.1832C60.8973 35.5287 59.0837 34.2879 56.9202 33.3652Z" fill="#D93A37"/>
<path d="M70.2514 30.3428C72.6694 32.8563 74.5784 35.8153 75.9466 39.1878C77.3465 42.624 78.0465 46.4739 78.0783 50.61V50.6419C78.0465 54.7144 77.3465 58.5324 75.9466 61.9686C74.5466 65.4366 72.5422 68.4911 70.0287 71.0682C67.5151 73.6454 64.4925 75.6816 61.0882 77.1134C57.7156 78.5451 53.993 79.2769 50.0477 79.2769H50.0159H49.9841C46.0707 79.2769 42.3481 78.5451 38.9437 77.1452C36.2393 76.0316 33.7894 74.5044 31.6259 72.659L58.8292 99.8624C60.9609 99.4806 63.0608 98.9715 65.0971 98.3033C80.6236 92.5127 91.664 81.5677 97.582 66.073C98.2819 63.8776 98.8546 61.6505 99.2682 59.3278L70.2514 30.3428Z" fill="#962826"/>
<path d="M68.9787 29.0381V29.0698C69.1696 29.26 69.3605 29.4502 69.5832 29.6404L68.9787 29.0381Z" fill="#962826"/>
<path d="M58.1928 30.4381C55.6793 29.3563 52.9431 28.8154 50.0159 28.8154C47.057 28.8154 44.3207 29.3563 41.8072 30.4381C39.2937 31.5199 37.0983 33.0152 35.2212 34.9879C33.344 36.9287 31.8804 39.2195 30.8623 41.8921C29.8123 44.5329 29.2714 47.4282 29.2714 50.5781C29.2714 53.6961 29.8123 56.5596 30.8623 59.2322C31.9122 61.873 33.3758 64.1638 35.2848 66.1365C37.162 68.1091 39.3573 69.6363 41.8709 70.7181C44.3844 71.7999 47.1206 72.3726 50.0478 72.3726C53.1022 72.3726 55.902 71.7999 58.4156 70.7181C60.9609 69.6045 63.1244 68.1091 65.0016 66.1365C66.847 64.1638 68.2787 61.873 69.2969 59.2322C70.315 56.5915 70.8241 53.7279 70.8241 50.6417C70.8241 47.4919 70.2832 44.5965 69.2332 41.9557C68.1833 39.315 66.7197 37.0242 64.8107 35.0515C62.9017 33.0471 60.7064 31.5199 58.1928 30.4381ZM67.6106 50.5781C67.6106 53.2825 67.1652 55.796 66.2743 58.055C65.4152 60.2822 64.1744 62.2867 62.6154 63.9411C61.0563 65.5956 59.2428 66.8683 57.0793 67.791C54.9475 68.7136 52.5613 69.1909 49.9841 69.1909C47.5024 69.1909 45.148 68.7136 43.0481 67.791C40.9482 66.8683 39.071 65.5956 37.4801 63.9411C35.8893 62.2867 34.6485 60.314 33.7258 58.0868C32.8349 55.796 32.3576 53.2825 32.3576 50.6099C32.3576 47.8737 32.8349 45.3283 33.7258 43.0693C34.6166 40.8422 35.8575 38.8695 37.4483 37.2151C39.0392 35.5606 40.8527 34.3197 42.9844 33.397C45.0843 32.5062 47.4388 32.0289 49.9523 32.0289C52.4658 32.0289 54.7884 32.5062 56.8884 33.397C59.0201 34.3197 60.8654 35.5606 62.4563 37.2469C64.0789 38.9013 65.288 40.8103 66.1788 43.1012C67.1333 45.3283 67.5788 47.8737 67.6106 50.5781Z" fill="#FAF5DC"/>
<path d="M69.5832 29.6426L70.2513 30.3083C70.1559 30.2132 70.0923 30.1498 69.9968 30.0547C69.8695 29.9279 69.7105 29.8011 69.5832 29.6426Z" fill="#FAF5DC"/>
<path d="M36.3029 72.1492C34.8393 71.2265 33.503 70.1448 32.2621 68.9039C30.0032 66.6449 28.2532 63.9405 27.0124 60.8543C25.7715 57.7362 25.1352 54.3318 25.1034 50.6093C25.1034 47.714 25.517 45.0095 26.3124 42.4324C27.1078 39.8552 28.2532 37.5326 29.7168 35.4327C31.2122 33.301 32.9621 31.4874 35.0302 29.9602C37.0983 28.433 39.3573 27.2558 41.9026 26.4285C44.4161 25.6013 47.1206 25.1877 49.9841 25.1559C53.5157 25.1559 56.8247 25.7922 59.8154 27.0331C62.838 28.2739 65.4788 30.0238 67.706 32.3146C68.6923 33.301 69.5514 34.3827 70.3468 35.4963L68.9468 29.0693C66.656 26.9694 63.9834 25.315 61.0245 24.0741C57.6201 22.6742 53.8975 21.9424 49.9523 21.9424C46.7388 21.9424 43.6844 22.4515 40.8845 23.3741C38.0528 24.2968 35.4438 25.6649 33.1212 27.383C30.7986 29.1012 28.7941 31.2011 27.1078 33.5873C25.4215 35.9736 24.1489 38.6144 23.258 41.4779C22.3671 44.3096 21.9217 47.3958 21.8899 50.6093V50.6411C21.9217 54.7455 22.6217 58.5953 24.0216 62.0633C25.4215 65.5313 27.426 68.5857 29.9713 71.1629C30.4804 71.672 31.0213 72.181 31.594 72.6583L29.2396 70.3038L36.3029 72.1492Z" fill="#FAF5DC"/>
<path d="M68.9787 29.1016L70.3786 35.5285C71.3968 37.0239 72.2877 38.6148 72.9876 40.3965C74.2285 43.4827 74.8648 46.9189 74.8966 50.6415C74.8648 54.3322 74.2603 57.7048 72.9876 60.791C71.7468 63.8773 69.9968 66.5817 67.7379 68.8407C65.4789 71.1315 62.8699 72.9132 59.8473 74.1859C56.8247 75.4586 53.5476 76.0949 50.0159 76.1267C46.4843 76.1267 43.1753 75.4904 40.1527 74.2495C38.7846 73.6768 37.512 73.0087 36.3029 72.2133L29.2714 70.3043L31.6259 72.6587C33.7894 74.5041 36.2393 76.0313 38.9437 77.1449C42.3481 78.5448 46.0707 79.2766 49.9841 79.2766H50.0159H50.0478C53.993 79.2448 57.7156 78.513 61.0882 77.113C64.4926 75.6813 67.5151 73.645 70.0287 71.0679C72.5422 68.4907 74.5466 65.4363 75.9466 61.9683C77.3465 58.5321 78.0465 54.7459 78.0783 50.6415V50.6097C78.0465 46.4735 77.3465 42.6237 75.9466 39.1875C74.5785 35.8149 72.6695 32.8559 70.2514 30.3424L69.5832 29.6743C69.3605 29.4515 69.1696 29.2606 68.9787 29.1016Z" fill="#FAF5DC"/>
<path d="M59.8473 27.0334C56.8247 25.7926 53.5475 25.1562 50.0159 25.1562C47.1524 25.1562 44.448 25.5699 41.9344 26.4289C39.4209 27.2562 37.1301 28.4652 35.062 29.9606C32.9939 31.4878 31.244 33.3013 29.7486 35.4331C28.285 37.533 27.1396 39.8556 26.3442 42.4327C25.5488 45.0099 25.1352 47.7143 25.1352 50.6096C25.167 54.3322 25.7715 57.7366 27.0442 60.8546C28.285 63.9409 30.035 66.6453 32.294 68.9043C33.5348 70.1451 34.8711 71.2269 36.3347 72.1496L43.7798 74.154L59.5927 72.7859L70.8877 61.9046L72.8921 46.7916L70.4422 35.5285C69.6468 34.3831 68.7878 33.3013 67.8014 32.3468C65.5106 30.0242 62.8698 28.2743 59.8473 27.0334ZM70.7922 50.5778C70.7922 53.6641 70.2831 56.5594 69.265 59.1683C68.2469 61.8091 66.8151 64.0999 64.9697 66.0726C63.1244 68.0452 60.929 69.5724 58.3837 70.6542C55.8702 71.7678 53.0703 72.3087 50.0159 72.3087C47.0569 72.3087 44.3525 71.736 41.839 70.6542C39.3255 69.5724 37.1301 68.0452 35.2529 66.0726C33.3757 64.0999 31.8803 61.8091 30.8304 59.1683C29.7804 56.5276 29.2396 53.6322 29.2396 50.5142C29.2396 47.3643 29.7804 44.469 30.8304 41.8282C31.8803 39.1874 33.3439 36.8966 35.1893 34.924C37.0665 32.9514 39.2618 31.456 41.7753 30.3742C44.2889 29.2924 47.0251 28.7515 49.9841 28.7515C52.9112 28.7515 55.6474 29.2924 58.161 30.3742C60.6745 31.456 62.8698 32.9514 64.747 34.924C66.6242 36.8648 68.1196 39.1556 69.1695 41.8282C70.2513 44.5326 70.7604 47.428 70.7922 50.5778Z" fill="#FAF5DC"/>
<path d="M70.8559 61.8723L59.5609 72.7536L43.748 74.1218L36.3029 72.1173C37.512 72.8809 38.7846 73.5809 40.1527 74.1536C43.1753 75.3944 46.4525 76.0308 50.0159 76.0308C53.5476 75.999 56.8565 75.3626 59.8473 74.09C62.8699 72.8173 65.5107 71.0674 67.7378 68.7447C69.9968 66.4539 71.7468 63.7813 72.9876 60.6951C74.2285 57.6089 74.8648 54.2363 74.8966 50.5456C74.8648 46.823 74.2603 43.4186 72.9876 40.3006C72.2876 38.5507 71.3968 36.928 70.3786 35.4326L72.8285 46.6957L70.8559 61.8723Z" fill="#FAF5DC"/>
</g>
<defs>
<clipPath id="clip0_138_1018">
<rect width="100" height="100" fill="white" transform="translate(0 0.59375)"/>
</clipPath>
</defs>
</svg>
