<svg width="153" height="34" viewBox="0 0 153 34" fill="none" xmlns="http://www.w3.org/2000/svg">
<mask id="path-1-outside-1_282_1578" maskUnits="userSpaceOnUse" x="-1" y="13" width="140" height="17" fill="black">
<rect fill="white" x="-1" y="13" width="140" height="17"/>
<path d="M2.12216 28H0.460227L5.26705 14.9091H6.90341L11.7102 28H10.0483L6.13636 16.9801H6.03409L2.12216 28ZM2.7358 22.8864H9.43466V24.2926H2.7358V22.8864ZM17.5334 28.2045C16.6129 28.2045 15.8203 27.9872 15.1555 27.5526C14.4908 27.1179 13.9794 26.5192 13.6214 25.7564C13.2635 24.9936 13.0845 24.1222 13.0845 23.142C13.0845 22.1449 13.2678 21.2649 13.6342 20.5021C14.005 19.7351 14.5206 19.1364 15.1811 18.706C15.8459 18.2713 16.6214 18.054 17.5078 18.054C18.1982 18.054 18.8203 18.1818 19.3743 18.4375C19.9283 18.6932 20.3821 19.0511 20.7358 19.5114C21.0895 19.9716 21.3089 20.5085 21.3942 21.1222H19.8857C19.7706 20.6747 19.5149 20.2784 19.1186 19.9332C18.7266 19.5838 18.1982 19.4091 17.5334 19.4091C16.9453 19.4091 16.4297 19.5625 15.9865 19.8693C15.5476 20.1719 15.2045 20.6001 14.9574 21.1541C14.7145 21.7038 14.593 22.3494 14.593 23.0909C14.593 23.8494 14.7124 24.5099 14.951 25.0724C15.1939 25.6349 15.5348 26.0717 15.9737 26.3828C16.4169 26.6939 16.9368 26.8494 17.5334 26.8494C17.9254 26.8494 18.2812 26.7812 18.6009 26.6449C18.9205 26.5085 19.1911 26.3125 19.4126 26.0568C19.6342 25.8011 19.7919 25.4943 19.8857 25.1364H21.3942C21.3089 25.7159 21.098 26.2379 20.7614 26.7024C20.429 27.1626 19.9879 27.5291 19.4382 27.8018C18.8928 28.0703 18.2578 28.2045 17.5334 28.2045ZM27.5881 28.2045C26.6676 28.2045 25.875 27.9872 25.2102 27.5526C24.5455 27.1179 24.0341 26.5192 23.6761 25.7564C23.3182 24.9936 23.1392 24.1222 23.1392 23.142C23.1392 22.1449 23.3224 21.2649 23.6889 20.5021C24.0597 19.7351 24.5753 19.1364 25.2358 18.706C25.9006 18.2713 26.6761 18.054 27.5625 18.054C28.2528 18.054 28.875 18.1818 29.429 18.4375C29.983 18.6932 30.4368 19.0511 30.7905 19.5114C31.1442 19.9716 31.3636 20.5085 31.4489 21.1222H29.9403C29.8253 20.6747 29.5696 20.2784 29.1733 19.9332C28.7813 19.5838 28.2528 19.4091 27.5881 19.4091C27 19.4091 26.4844 19.5625 26.0412 19.8693C25.6023 20.1719 25.2592 20.6001 25.0121 21.1541C24.7692 21.7038 24.6477 22.3494 24.6477 23.0909C24.6477 23.8494 24.767 24.5099 25.0057 25.0724C25.2486 25.6349 25.5895 26.0717 26.0284 26.3828C26.4716 26.6939 26.9915 26.8494 27.5881 26.8494C27.9801 26.8494 28.3359 26.7812 28.6555 26.6449C28.9751 26.5085 29.2457 26.3125 29.4673 26.0568C29.6889 25.8011 29.8466 25.4943 29.9403 25.1364H31.4489C31.3636 25.7159 31.1527 26.2379 30.8161 26.7024C30.4837 27.1626 30.0426 27.5291 29.4929 27.8018C28.9474 28.0703 28.3125 28.2045 27.5881 28.2045ZM37.6428 28.2045C36.7564 28.2045 35.9787 27.9936 35.3097 27.5717C34.6449 27.1499 34.125 26.5597 33.75 25.8011C33.3793 25.0426 33.1939 24.1562 33.1939 23.142C33.1939 22.1193 33.3793 21.2266 33.75 20.4638C34.125 19.701 34.6449 19.1087 35.3097 18.6868C35.9787 18.2649 36.7564 18.054 37.6428 18.054C38.5291 18.054 39.3047 18.2649 39.9695 18.6868C40.6385 19.1087 41.1584 19.701 41.5291 20.4638C41.9041 21.2266 42.0916 22.1193 42.0916 23.142C42.0916 24.1562 41.9041 25.0426 41.5291 25.8011C41.1584 26.5597 40.6385 27.1499 39.9695 27.5717C39.3047 27.9936 38.5291 28.2045 37.6428 28.2045ZM37.6428 26.8494C38.3161 26.8494 38.87 26.6768 39.3047 26.3317C39.7393 25.9865 40.0611 25.5327 40.2699 24.9702C40.4787 24.4077 40.5831 23.7983 40.5831 23.142C40.5831 22.4858 40.4787 21.8743 40.2699 21.3075C40.0611 20.7408 39.7393 20.2827 39.3047 19.9332C38.87 19.5838 38.3161 19.4091 37.6428 19.4091C36.9695 19.4091 36.4155 19.5838 35.9808 19.9332C35.5462 20.2827 35.2244 20.7408 35.0156 21.3075C34.8068 21.8743 34.7024 22.4858 34.7024 23.142C34.7024 23.7983 34.8068 24.4077 35.0156 24.9702C35.2244 25.5327 35.5462 25.9865 35.9808 26.3317C36.4155 26.6768 36.9695 26.8494 37.6428 26.8494ZM44.3944 28V18.1818H45.8517V19.7159H45.9796C46.1841 19.1918 46.5144 18.7848 46.9703 18.495C47.4263 18.201 47.9739 18.054 48.6131 18.054C49.2608 18.054 49.7999 18.201 50.2303 18.495C50.665 18.7848 51.0037 19.1918 51.2466 19.7159H51.3489C51.6003 19.2088 51.9775 18.8061 52.4803 18.5078C52.9831 18.2053 53.5861 18.054 54.2892 18.054C55.1671 18.054 55.8851 18.3288 56.4434 18.8786C57.0016 19.424 57.2807 20.2741 57.2807 21.429V28H55.7722V21.429C55.7722 20.7045 55.574 20.1868 55.1777 19.8757C54.7814 19.5646 54.3148 19.4091 53.7779 19.4091C53.0875 19.4091 52.5527 19.6179 52.1735 20.0355C51.7942 20.4489 51.6046 20.973 51.6046 21.608V28H50.0705V21.2756C50.0705 20.7173 49.8894 20.2678 49.5272 19.9268C49.165 19.5817 48.6983 19.4091 48.1273 19.4091C47.7353 19.4091 47.3688 19.5135 47.0279 19.7223C46.6912 19.9311 46.4185 20.2209 46.2097 20.5916C46.0051 20.9581 45.9029 21.3821 45.9029 21.8636V28H44.3944ZM60.0389 28V18.1818H61.4963V19.7159H61.6241C61.8287 19.1918 62.1589 18.7848 62.6149 18.495C63.0708 18.201 63.6184 18.054 64.2576 18.054C64.9054 18.054 65.4444 18.201 65.8748 18.495C66.3095 18.7848 66.6483 19.1918 66.8912 19.7159H66.9934C67.2449 19.2088 67.622 18.8061 68.1248 18.5078C68.6277 18.2053 69.2306 18.054 69.9338 18.054C70.8116 18.054 71.5297 18.3288 72.0879 18.8786C72.6461 19.424 72.9252 20.2741 72.9252 21.429V28H71.4167V21.429C71.4167 20.7045 71.2186 20.1868 70.8223 19.8757C70.426 19.5646 69.9593 19.4091 69.4224 19.4091C68.7321 19.4091 68.1973 19.6179 67.818 20.0355C67.4387 20.4489 67.2491 20.973 67.2491 21.608V28H65.715V21.2756C65.715 20.7173 65.5339 20.2678 65.1717 19.9268C64.8095 19.5817 64.3429 19.4091 63.7718 19.4091C63.3798 19.4091 63.0133 19.5135 62.6724 19.7223C62.3358 19.9311 62.063 20.2209 61.8542 20.5916C61.6497 20.9581 61.5474 21.3821 61.5474 21.8636V28H60.0389ZM79.6721 28.2045C78.7857 28.2045 78.008 27.9936 77.339 27.5717C76.6742 27.1499 76.1543 26.5597 75.7793 25.8011C75.4086 25.0426 75.2232 24.1562 75.2232 23.142C75.2232 22.1193 75.4086 21.2266 75.7793 20.4638C76.1543 19.701 76.6742 19.1087 77.339 18.6868C78.008 18.2649 78.7857 18.054 79.6721 18.054C80.5584 18.054 81.334 18.2649 81.9988 18.6868C82.6678 19.1087 83.1877 19.701 83.5584 20.4638C83.9334 21.2266 84.1209 22.1193 84.1209 23.142C84.1209 24.1562 83.9334 25.0426 83.5584 25.8011C83.1877 26.5597 82.6678 27.1499 81.9988 27.5717C81.334 27.9936 80.5584 28.2045 79.6721 28.2045ZM79.6721 26.8494C80.3453 26.8494 80.8993 26.6768 81.334 26.3317C81.7686 25.9865 82.0904 25.5327 82.2992 24.9702C82.508 24.4077 82.6124 23.7983 82.6124 23.142C82.6124 22.4858 82.508 21.8743 82.2992 21.3075C82.0904 20.7408 81.7686 20.2827 81.334 19.9332C80.8993 19.5838 80.3453 19.4091 79.6721 19.4091C78.9988 19.4091 78.4448 19.5838 78.0101 19.9332C77.5755 20.2827 77.2537 20.7408 77.0449 21.3075C76.8361 21.8743 76.7317 22.4858 76.7317 23.142C76.7317 23.7983 76.8361 24.4077 77.0449 24.9702C77.2537 25.5327 77.5755 25.9865 78.0101 26.3317C78.4448 26.6768 78.9988 26.8494 79.6721 26.8494ZM90.131 28.2045C89.3129 28.2045 88.5906 27.9979 87.9641 27.5845C87.3377 27.1669 86.8477 26.5788 86.494 25.8203C86.1403 25.0575 85.9634 24.1562 85.9634 23.1165C85.9634 22.0852 86.1403 21.1903 86.494 20.4318C86.8477 19.6733 87.3398 19.0874 87.9705 18.674C88.6012 18.2607 89.3299 18.054 90.1566 18.054C90.7958 18.054 91.3008 18.1605 91.6715 18.3736C92.0465 18.5824 92.332 18.821 92.5281 19.0895C92.7283 19.3537 92.8839 19.571 92.9947 19.7415H93.1225V14.9091H94.631V28H93.1737V26.4915H92.9947C92.8839 26.6705 92.7262 26.8963 92.5217 27.169C92.3171 27.4375 92.0252 27.6783 91.646 27.8913C91.2667 28.1001 90.7617 28.2045 90.131 28.2045ZM90.3356 26.8494C90.9407 26.8494 91.4521 26.6918 91.8697 26.3764C92.2873 26.0568 92.6048 25.6158 92.8221 25.0533C93.0394 24.4865 93.1481 23.8324 93.1481 23.0909C93.1481 22.358 93.0415 21.7166 92.8285 21.1669C92.6154 20.6129 92.3001 20.1825 91.8825 19.8757C91.4648 19.5646 90.9492 19.4091 90.3356 19.4091C89.6964 19.4091 89.1637 19.5732 88.7376 19.9013C88.3157 20.2251 87.9982 20.6662 87.7852 21.2244C87.5763 21.7784 87.4719 22.4006 87.4719 23.0909C87.4719 23.7898 87.5785 24.4247 87.7915 24.9957C88.0089 25.5625 88.3285 26.0142 88.7504 26.3509C89.1765 26.6832 89.7049 26.8494 90.3356 26.8494ZM100.493 28.2301C99.8704 28.2301 99.3058 28.1129 98.7987 27.8786C98.2915 27.6399 97.8888 27.2969 97.5906 26.8494C97.2923 26.3977 97.1431 25.8523 97.1431 25.2131C97.1431 24.6506 97.2539 24.1946 97.4755 23.8452C97.6971 23.4915 97.9933 23.2145 98.364 23.0142C98.7347 22.8139 99.1438 22.6648 99.5913 22.5668C100.043 22.4645 100.497 22.3835 100.953 22.3239C101.549 22.2472 102.033 22.1896 102.404 22.1513C102.779 22.1087 103.051 22.0384 103.222 21.9403C103.397 21.8423 103.484 21.6719 103.484 21.429V21.3778C103.484 20.7472 103.311 20.2571 102.966 19.9077C102.625 19.5582 102.108 19.3835 101.413 19.3835C100.693 19.3835 100.128 19.5412 99.7191 19.8565C99.31 20.1719 99.0224 20.5085 98.8562 20.8665L97.4244 20.3551C97.68 19.7585 98.021 19.294 98.4471 18.9616C98.8775 18.625 99.3462 18.3906 99.8533 18.2585C100.365 18.1222 100.868 18.054 101.362 18.054C101.677 18.054 102.039 18.0923 102.449 18.169C102.862 18.2415 103.26 18.3928 103.644 18.6229C104.032 18.853 104.353 19.2003 104.609 19.6648C104.865 20.1293 104.993 20.7514 104.993 21.5312V28H103.484V26.6705H103.407C103.305 26.8835 103.135 27.1115 102.896 27.3544C102.657 27.5973 102.34 27.804 101.944 27.9744C101.547 28.1449 101.064 28.2301 100.493 28.2301ZM100.723 26.875C101.319 26.875 101.822 26.7578 102.231 26.5234C102.645 26.2891 102.956 25.9865 103.164 25.6158C103.377 25.245 103.484 24.8551 103.484 24.446V23.0653C103.42 23.142 103.279 23.2124 103.062 23.2763C102.849 23.3359 102.602 23.3892 102.321 23.4361C102.044 23.4787 101.773 23.517 101.509 23.5511C101.249 23.581 101.038 23.6065 100.876 23.6278C100.484 23.679 100.118 23.7621 99.7766 23.8771C99.44 23.9879 99.1673 24.1562 98.9585 24.3821C98.7539 24.6037 98.6516 24.9062 98.6516 25.2898C98.6516 25.8139 98.8455 26.2102 99.2333 26.4787C99.6254 26.7429 100.122 26.875 100.723 26.875ZM112.016 18.1818V19.4602H106.928V18.1818H112.016ZM108.411 15.8295H109.919V25.1875C109.919 25.6136 109.981 25.9332 110.105 26.1463C110.232 26.3551 110.394 26.4957 110.59 26.5682C110.791 26.6364 111.002 26.6705 111.223 26.6705C111.389 26.6705 111.526 26.6619 111.632 26.6449C111.739 26.6236 111.824 26.6065 111.888 26.5938L112.195 27.9489C112.093 27.9872 111.95 28.0256 111.767 28.0639C111.583 28.1065 111.351 28.1278 111.07 28.1278C110.644 28.1278 110.226 28.0362 109.817 27.853C109.412 27.6697 109.075 27.3906 108.807 27.0156C108.543 26.6406 108.411 26.1676 108.411 25.5966V15.8295ZM114.285 28V18.1818H115.794V28H114.285ZM115.052 16.5455C114.758 16.5455 114.504 16.4453 114.291 16.245C114.083 16.0447 113.978 15.804 113.978 15.5227C113.978 15.2415 114.083 15.0007 114.291 14.8004C114.504 14.6001 114.758 14.5 115.052 14.5C115.346 14.5 115.597 14.6001 115.806 14.8004C116.019 15.0007 116.126 15.2415 116.126 15.5227C116.126 15.804 116.019 16.0447 115.806 16.245C115.597 16.4453 115.346 16.5455 115.052 16.5455ZM122.545 28.2045C121.659 28.2045 120.881 27.9936 120.212 27.5717C119.547 27.1499 119.027 26.5597 118.652 25.8011C118.282 25.0426 118.096 24.1562 118.096 23.142C118.096 22.1193 118.282 21.2266 118.652 20.4638C119.027 19.701 119.547 19.1087 120.212 18.6868C120.881 18.2649 121.659 18.054 122.545 18.054C123.431 18.054 124.207 18.2649 124.872 18.6868C125.541 19.1087 126.061 19.701 126.431 20.4638C126.806 21.2266 126.994 22.1193 126.994 23.142C126.994 24.1562 126.806 25.0426 126.431 25.8011C126.061 26.5597 125.541 27.1499 124.872 27.5717C124.207 27.9936 123.431 28.2045 122.545 28.2045ZM122.545 26.8494C123.218 26.8494 123.772 26.6768 124.207 26.3317C124.642 25.9865 124.963 25.5327 125.172 24.9702C125.381 24.4077 125.485 23.7983 125.485 23.142C125.485 22.4858 125.381 21.8743 125.172 21.3075C124.963 20.7408 124.642 20.2827 124.207 19.9332C123.772 19.5838 123.218 19.4091 122.545 19.4091C121.872 19.4091 121.318 19.5838 120.883 19.9332C120.449 20.2827 120.127 20.7408 119.918 21.3075C119.709 21.8743 119.605 22.4858 119.605 23.142C119.605 23.7983 119.709 24.4077 119.918 24.9702C120.127 25.5327 120.449 25.9865 120.883 26.3317C121.318 26.6768 121.872 26.8494 122.545 26.8494ZM130.805 22.0938V28H129.297V18.1818H130.754V19.7159H130.882C131.112 19.2173 131.461 18.8168 131.93 18.5142C132.399 18.2074 133.004 18.054 133.746 18.054C134.41 18.054 134.992 18.1903 135.491 18.4631C135.989 18.7315 136.377 19.1406 136.654 19.6903C136.931 20.2358 137.069 20.9261 137.069 21.7614V28H135.561V21.8636C135.561 21.0923 135.361 20.4915 134.96 20.0611C134.559 19.6264 134.01 19.4091 133.311 19.4091C132.829 19.4091 132.399 19.5135 132.02 19.7223C131.645 19.9311 131.349 20.2358 131.131 20.6364C130.914 21.0369 130.805 21.5227 130.805 22.0938Z"/>
</mask>
<path d="M2.12216 28H0.460227L5.26705 14.9091H6.90341L11.7102 28H10.0483L6.13636 16.9801H6.03409L2.12216 28ZM2.7358 22.8864H9.43466V24.2926H2.7358V22.8864ZM17.5334 28.2045C16.6129 28.2045 15.8203 27.9872 15.1555 27.5526C14.4908 27.1179 13.9794 26.5192 13.6214 25.7564C13.2635 24.9936 13.0845 24.1222 13.0845 23.142C13.0845 22.1449 13.2678 21.2649 13.6342 20.5021C14.005 19.7351 14.5206 19.1364 15.1811 18.706C15.8459 18.2713 16.6214 18.054 17.5078 18.054C18.1982 18.054 18.8203 18.1818 19.3743 18.4375C19.9283 18.6932 20.3821 19.0511 20.7358 19.5114C21.0895 19.9716 21.3089 20.5085 21.3942 21.1222H19.8857C19.7706 20.6747 19.5149 20.2784 19.1186 19.9332C18.7266 19.5838 18.1982 19.4091 17.5334 19.4091C16.9453 19.4091 16.4297 19.5625 15.9865 19.8693C15.5476 20.1719 15.2045 20.6001 14.9574 21.1541C14.7145 21.7038 14.593 22.3494 14.593 23.0909C14.593 23.8494 14.7124 24.5099 14.951 25.0724C15.1939 25.6349 15.5348 26.0717 15.9737 26.3828C16.4169 26.6939 16.9368 26.8494 17.5334 26.8494C17.9254 26.8494 18.2812 26.7812 18.6009 26.6449C18.9205 26.5085 19.1911 26.3125 19.4126 26.0568C19.6342 25.8011 19.7919 25.4943 19.8857 25.1364H21.3942C21.3089 25.7159 21.098 26.2379 20.7614 26.7024C20.429 27.1626 19.9879 27.5291 19.4382 27.8018C18.8928 28.0703 18.2578 28.2045 17.5334 28.2045ZM27.5881 28.2045C26.6676 28.2045 25.875 27.9872 25.2102 27.5526C24.5455 27.1179 24.0341 26.5192 23.6761 25.7564C23.3182 24.9936 23.1392 24.1222 23.1392 23.142C23.1392 22.1449 23.3224 21.2649 23.6889 20.5021C24.0597 19.7351 24.5753 19.1364 25.2358 18.706C25.9006 18.2713 26.6761 18.054 27.5625 18.054C28.2528 18.054 28.875 18.1818 29.429 18.4375C29.983 18.6932 30.4368 19.0511 30.7905 19.5114C31.1442 19.9716 31.3636 20.5085 31.4489 21.1222H29.9403C29.8253 20.6747 29.5696 20.2784 29.1733 19.9332C28.7813 19.5838 28.2528 19.4091 27.5881 19.4091C27 19.4091 26.4844 19.5625 26.0412 19.8693C25.6023 20.1719 25.2592 20.6001 25.0121 21.1541C24.7692 21.7038 24.6477 22.3494 24.6477 23.0909C24.6477 23.8494 24.767 24.5099 25.0057 25.0724C25.2486 25.6349 25.5895 26.0717 26.0284 26.3828C26.4716 26.6939 26.9915 26.8494 27.5881 26.8494C27.9801 26.8494 28.3359 26.7812 28.6555 26.6449C28.9751 26.5085 29.2457 26.3125 29.4673 26.0568C29.6889 25.8011 29.8466 25.4943 29.9403 25.1364H31.4489C31.3636 25.7159 31.1527 26.2379 30.8161 26.7024C30.4837 27.1626 30.0426 27.5291 29.4929 27.8018C28.9474 28.0703 28.3125 28.2045 27.5881 28.2045ZM37.6428 28.2045C36.7564 28.2045 35.9787 27.9936 35.3097 27.5717C34.6449 27.1499 34.125 26.5597 33.75 25.8011C33.3793 25.0426 33.1939 24.1562 33.1939 23.142C33.1939 22.1193 33.3793 21.2266 33.75 20.4638C34.125 19.701 34.6449 19.1087 35.3097 18.6868C35.9787 18.2649 36.7564 18.054 37.6428 18.054C38.5291 18.054 39.3047 18.2649 39.9695 18.6868C40.6385 19.1087 41.1584 19.701 41.5291 20.4638C41.9041 21.2266 42.0916 22.1193 42.0916 23.142C42.0916 24.1562 41.9041 25.0426 41.5291 25.8011C41.1584 26.5597 40.6385 27.1499 39.9695 27.5717C39.3047 27.9936 38.5291 28.2045 37.6428 28.2045ZM37.6428 26.8494C38.3161 26.8494 38.87 26.6768 39.3047 26.3317C39.7393 25.9865 40.0611 25.5327 40.2699 24.9702C40.4787 24.4077 40.5831 23.7983 40.5831 23.142C40.5831 22.4858 40.4787 21.8743 40.2699 21.3075C40.0611 20.7408 39.7393 20.2827 39.3047 19.9332C38.87 19.5838 38.3161 19.4091 37.6428 19.4091C36.9695 19.4091 36.4155 19.5838 35.9808 19.9332C35.5462 20.2827 35.2244 20.7408 35.0156 21.3075C34.8068 21.8743 34.7024 22.4858 34.7024 23.142C34.7024 23.7983 34.8068 24.4077 35.0156 24.9702C35.2244 25.5327 35.5462 25.9865 35.9808 26.3317C36.4155 26.6768 36.9695 26.8494 37.6428 26.8494ZM44.3944 28V18.1818H45.8517V19.7159H45.9796C46.1841 19.1918 46.5144 18.7848 46.9703 18.495C47.4263 18.201 47.9739 18.054 48.6131 18.054C49.2608 18.054 49.7999 18.201 50.2303 18.495C50.665 18.7848 51.0037 19.1918 51.2466 19.7159H51.3489C51.6003 19.2088 51.9775 18.8061 52.4803 18.5078C52.9831 18.2053 53.5861 18.054 54.2892 18.054C55.1671 18.054 55.8851 18.3288 56.4434 18.8786C57.0016 19.424 57.2807 20.2741 57.2807 21.429V28H55.7722V21.429C55.7722 20.7045 55.574 20.1868 55.1777 19.8757C54.7814 19.5646 54.3148 19.4091 53.7779 19.4091C53.0875 19.4091 52.5527 19.6179 52.1735 20.0355C51.7942 20.4489 51.6046 20.973 51.6046 21.608V28H50.0705V21.2756C50.0705 20.7173 49.8894 20.2678 49.5272 19.9268C49.165 19.5817 48.6983 19.4091 48.1273 19.4091C47.7353 19.4091 47.3688 19.5135 47.0279 19.7223C46.6912 19.9311 46.4185 20.2209 46.2097 20.5916C46.0051 20.9581 45.9029 21.3821 45.9029 21.8636V28H44.3944ZM60.0389 28V18.1818H61.4963V19.7159H61.6241C61.8287 19.1918 62.1589 18.7848 62.6149 18.495C63.0708 18.201 63.6184 18.054 64.2576 18.054C64.9054 18.054 65.4444 18.201 65.8748 18.495C66.3095 18.7848 66.6483 19.1918 66.8912 19.7159H66.9934C67.2449 19.2088 67.622 18.8061 68.1248 18.5078C68.6277 18.2053 69.2306 18.054 69.9338 18.054C70.8116 18.054 71.5297 18.3288 72.0879 18.8786C72.6461 19.424 72.9252 20.2741 72.9252 21.429V28H71.4167V21.429C71.4167 20.7045 71.2186 20.1868 70.8223 19.8757C70.426 19.5646 69.9593 19.4091 69.4224 19.4091C68.7321 19.4091 68.1973 19.6179 67.818 20.0355C67.4387 20.4489 67.2491 20.973 67.2491 21.608V28H65.715V21.2756C65.715 20.7173 65.5339 20.2678 65.1717 19.9268C64.8095 19.5817 64.3429 19.4091 63.7718 19.4091C63.3798 19.4091 63.0133 19.5135 62.6724 19.7223C62.3358 19.9311 62.063 20.2209 61.8542 20.5916C61.6497 20.9581 61.5474 21.3821 61.5474 21.8636V28H60.0389ZM79.6721 28.2045C78.7857 28.2045 78.008 27.9936 77.339 27.5717C76.6742 27.1499 76.1543 26.5597 75.7793 25.8011C75.4086 25.0426 75.2232 24.1562 75.2232 23.142C75.2232 22.1193 75.4086 21.2266 75.7793 20.4638C76.1543 19.701 76.6742 19.1087 77.339 18.6868C78.008 18.2649 78.7857 18.054 79.6721 18.054C80.5584 18.054 81.334 18.2649 81.9988 18.6868C82.6678 19.1087 83.1877 19.701 83.5584 20.4638C83.9334 21.2266 84.1209 22.1193 84.1209 23.142C84.1209 24.1562 83.9334 25.0426 83.5584 25.8011C83.1877 26.5597 82.6678 27.1499 81.9988 27.5717C81.334 27.9936 80.5584 28.2045 79.6721 28.2045ZM79.6721 26.8494C80.3453 26.8494 80.8993 26.6768 81.334 26.3317C81.7686 25.9865 82.0904 25.5327 82.2992 24.9702C82.508 24.4077 82.6124 23.7983 82.6124 23.142C82.6124 22.4858 82.508 21.8743 82.2992 21.3075C82.0904 20.7408 81.7686 20.2827 81.334 19.9332C80.8993 19.5838 80.3453 19.4091 79.6721 19.4091C78.9988 19.4091 78.4448 19.5838 78.0101 19.9332C77.5755 20.2827 77.2537 20.7408 77.0449 21.3075C76.8361 21.8743 76.7317 22.4858 76.7317 23.142C76.7317 23.7983 76.8361 24.4077 77.0449 24.9702C77.2537 25.5327 77.5755 25.9865 78.0101 26.3317C78.4448 26.6768 78.9988 26.8494 79.6721 26.8494ZM90.131 28.2045C89.3129 28.2045 88.5906 27.9979 87.9641 27.5845C87.3377 27.1669 86.8477 26.5788 86.494 25.8203C86.1403 25.0575 85.9634 24.1562 85.9634 23.1165C85.9634 22.0852 86.1403 21.1903 86.494 20.4318C86.8477 19.6733 87.3398 19.0874 87.9705 18.674C88.6012 18.2607 89.3299 18.054 90.1566 18.054C90.7958 18.054 91.3008 18.1605 91.6715 18.3736C92.0465 18.5824 92.332 18.821 92.5281 19.0895C92.7283 19.3537 92.8839 19.571 92.9947 19.7415H93.1225V14.9091H94.631V28H93.1737V26.4915H92.9947C92.8839 26.6705 92.7262 26.8963 92.5217 27.169C92.3171 27.4375 92.0252 27.6783 91.646 27.8913C91.2667 28.1001 90.7617 28.2045 90.131 28.2045ZM90.3356 26.8494C90.9407 26.8494 91.4521 26.6918 91.8697 26.3764C92.2873 26.0568 92.6048 25.6158 92.8221 25.0533C93.0394 24.4865 93.1481 23.8324 93.1481 23.0909C93.1481 22.358 93.0415 21.7166 92.8285 21.1669C92.6154 20.6129 92.3001 20.1825 91.8825 19.8757C91.4648 19.5646 90.9492 19.4091 90.3356 19.4091C89.6964 19.4091 89.1637 19.5732 88.7376 19.9013C88.3157 20.2251 87.9982 20.6662 87.7852 21.2244C87.5763 21.7784 87.4719 22.4006 87.4719 23.0909C87.4719 23.7898 87.5785 24.4247 87.7915 24.9957C88.0089 25.5625 88.3285 26.0142 88.7504 26.3509C89.1765 26.6832 89.7049 26.8494 90.3356 26.8494ZM100.493 28.2301C99.8704 28.2301 99.3058 28.1129 98.7987 27.8786C98.2915 27.6399 97.8888 27.2969 97.5906 26.8494C97.2923 26.3977 97.1431 25.8523 97.1431 25.2131C97.1431 24.6506 97.2539 24.1946 97.4755 23.8452C97.6971 23.4915 97.9933 23.2145 98.364 23.0142C98.7347 22.8139 99.1438 22.6648 99.5913 22.5668C100.043 22.4645 100.497 22.3835 100.953 22.3239C101.549 22.2472 102.033 22.1896 102.404 22.1513C102.779 22.1087 103.051 22.0384 103.222 21.9403C103.397 21.8423 103.484 21.6719 103.484 21.429V21.3778C103.484 20.7472 103.311 20.2571 102.966 19.9077C102.625 19.5582 102.108 19.3835 101.413 19.3835C100.693 19.3835 100.128 19.5412 99.7191 19.8565C99.31 20.1719 99.0224 20.5085 98.8562 20.8665L97.4244 20.3551C97.68 19.7585 98.021 19.294 98.4471 18.9616C98.8775 18.625 99.3462 18.3906 99.8533 18.2585C100.365 18.1222 100.868 18.054 101.362 18.054C101.677 18.054 102.039 18.0923 102.449 18.169C102.862 18.2415 103.26 18.3928 103.644 18.6229C104.032 18.853 104.353 19.2003 104.609 19.6648C104.865 20.1293 104.993 20.7514 104.993 21.5312V28H103.484V26.6705H103.407C103.305 26.8835 103.135 27.1115 102.896 27.3544C102.657 27.5973 102.34 27.804 101.944 27.9744C101.547 28.1449 101.064 28.2301 100.493 28.2301ZM100.723 26.875C101.319 26.875 101.822 26.7578 102.231 26.5234C102.645 26.2891 102.956 25.9865 103.164 25.6158C103.377 25.245 103.484 24.8551 103.484 24.446V23.0653C103.42 23.142 103.279 23.2124 103.062 23.2763C102.849 23.3359 102.602 23.3892 102.321 23.4361C102.044 23.4787 101.773 23.517 101.509 23.5511C101.249 23.581 101.038 23.6065 100.876 23.6278C100.484 23.679 100.118 23.7621 99.7766 23.8771C99.44 23.9879 99.1673 24.1562 98.9585 24.3821C98.7539 24.6037 98.6516 24.9062 98.6516 25.2898C98.6516 25.8139 98.8455 26.2102 99.2333 26.4787C99.6254 26.7429 100.122 26.875 100.723 26.875ZM112.016 18.1818V19.4602H106.928V18.1818H112.016ZM108.411 15.8295H109.919V25.1875C109.919 25.6136 109.981 25.9332 110.105 26.1463C110.232 26.3551 110.394 26.4957 110.59 26.5682C110.791 26.6364 111.002 26.6705 111.223 26.6705C111.389 26.6705 111.526 26.6619 111.632 26.6449C111.739 26.6236 111.824 26.6065 111.888 26.5938L112.195 27.9489C112.093 27.9872 111.95 28.0256 111.767 28.0639C111.583 28.1065 111.351 28.1278 111.07 28.1278C110.644 28.1278 110.226 28.0362 109.817 27.853C109.412 27.6697 109.075 27.3906 108.807 27.0156C108.543 26.6406 108.411 26.1676 108.411 25.5966V15.8295ZM114.285 28V18.1818H115.794V28H114.285ZM115.052 16.5455C114.758 16.5455 114.504 16.4453 114.291 16.245C114.083 16.0447 113.978 15.804 113.978 15.5227C113.978 15.2415 114.083 15.0007 114.291 14.8004C114.504 14.6001 114.758 14.5 115.052 14.5C115.346 14.5 115.597 14.6001 115.806 14.8004C116.019 15.0007 116.126 15.2415 116.126 15.5227C116.126 15.804 116.019 16.0447 115.806 16.245C115.597 16.4453 115.346 16.5455 115.052 16.5455ZM122.545 28.2045C121.659 28.2045 120.881 27.9936 120.212 27.5717C119.547 27.1499 119.027 26.5597 118.652 25.8011C118.282 25.0426 118.096 24.1562 118.096 23.142C118.096 22.1193 118.282 21.2266 118.652 20.4638C119.027 19.701 119.547 19.1087 120.212 18.6868C120.881 18.2649 121.659 18.054 122.545 18.054C123.431 18.054 124.207 18.2649 124.872 18.6868C125.541 19.1087 126.061 19.701 126.431 20.4638C126.806 21.2266 126.994 22.1193 126.994 23.142C126.994 24.1562 126.806 25.0426 126.431 25.8011C126.061 26.5597 125.541 27.1499 124.872 27.5717C124.207 27.9936 123.431 28.2045 122.545 28.2045ZM122.545 26.8494C123.218 26.8494 123.772 26.6768 124.207 26.3317C124.642 25.9865 124.963 25.5327 125.172 24.9702C125.381 24.4077 125.485 23.7983 125.485 23.142C125.485 22.4858 125.381 21.8743 125.172 21.3075C124.963 20.7408 124.642 20.2827 124.207 19.9332C123.772 19.5838 123.218 19.4091 122.545 19.4091C121.872 19.4091 121.318 19.5838 120.883 19.9332C120.449 20.2827 120.127 20.7408 119.918 21.3075C119.709 21.8743 119.605 22.4858 119.605 23.142C119.605 23.7983 119.709 24.4077 119.918 24.9702C120.127 25.5327 120.449 25.9865 120.883 26.3317C121.318 26.6768 121.872 26.8494 122.545 26.8494ZM130.805 22.0938V28H129.297V18.1818H130.754V19.7159H130.882C131.112 19.2173 131.461 18.8168 131.93 18.5142C132.399 18.2074 133.004 18.054 133.746 18.054C134.41 18.054 134.992 18.1903 135.491 18.4631C135.989 18.7315 136.377 19.1406 136.654 19.6903C136.931 20.2358 137.069 20.9261 137.069 21.7614V28H135.561V21.8636C135.561 21.0923 135.361 20.4915 134.96 20.0611C134.559 19.6264 134.01 19.4091 133.311 19.4091C132.829 19.4091 132.399 19.5135 132.02 19.7223C131.645 19.9311 131.349 20.2358 131.131 20.6364C130.914 21.0369 130.805 21.5227 130.805 22.0938Z" fill="#E87F23"/>
<path d="M2.12216 28V29H2.82831L3.06454 28.3345L2.12216 28ZM0.460227 28L-0.478491 27.6553L-0.972243 29H0.460227V28ZM5.26705 14.9091V13.9091H4.56895L4.32833 14.5644L5.26705 14.9091ZM6.90341 14.9091L7.84213 14.5644L7.6015 13.9091H6.90341V14.9091ZM11.7102 28V29H13.1427L12.6489 27.6553L11.7102 28ZM10.0483 28L9.10591 28.3345L9.34214 29H10.0483V28ZM6.13636 16.9801L7.07875 16.6456L6.84251 15.9801H6.13636V16.9801ZM6.03409 16.9801V15.9801H5.32794L5.09171 16.6456L6.03409 16.9801ZM2.7358 22.8864V21.8864H1.7358V22.8864H2.7358ZM9.43466 22.8864H10.4347V21.8864H9.43466V22.8864ZM9.43466 24.2926V25.2926H10.4347V24.2926H9.43466ZM2.7358 24.2926H1.7358V25.2926H2.7358V24.2926ZM2.12216 27H0.460227V29H2.12216V27ZM1.39895 28.3447L6.20576 15.2538L4.32833 14.5644L-0.478491 27.6553L1.39895 28.3447ZM5.26705 15.9091H6.90341V13.9091H5.26705V15.9091ZM5.96469 15.2538L10.7715 28.3447L12.6489 27.6553L7.84213 14.5644L5.96469 15.2538ZM11.7102 27H10.0483V29H11.7102V27ZM10.9907 27.6655L7.07875 16.6456L5.19398 17.3146L9.10591 28.3345L10.9907 27.6655ZM6.13636 15.9801H6.03409V17.9801H6.13636V15.9801ZM5.09171 16.6456L1.17978 27.6655L3.06454 28.3345L6.97647 17.3146L5.09171 16.6456ZM2.7358 23.8864H9.43466V21.8864H2.7358V23.8864ZM8.43466 22.8864V24.2926H10.4347V22.8864H8.43466ZM9.43466 23.2926H2.7358V25.2926H9.43466V23.2926ZM3.7358 24.2926V22.8864H1.7358V24.2926H3.7358ZM15.1555 27.5526L14.6083 28.3895L15.1555 27.5526ZM13.6342 20.5021L12.7339 20.067L12.7329 20.0691L13.6342 20.5021ZM15.1811 18.706L15.727 19.5438L15.7284 19.5429L15.1811 18.706ZM20.7358 19.5114L21.5287 18.902V18.902L20.7358 19.5114ZM21.3942 21.1222V22.1222H22.5427L22.3847 20.9846L21.3942 21.1222ZM19.8857 21.1222L18.9172 21.3712L19.1103 22.1222H19.8857V21.1222ZM19.1186 19.9332L18.4532 20.6798L18.4618 20.6873L19.1186 19.9332ZM15.9865 19.8693L16.5541 20.6927L16.5557 20.6915L15.9865 19.8693ZM14.9574 21.1541L14.0441 20.7467L14.0427 20.75L14.9574 21.1541ZM14.951 25.0724L14.0304 25.463L14.0329 25.4689L14.951 25.0724ZM15.9737 26.3828L15.3955 27.1987L15.3992 27.2013L15.9737 26.3828ZM18.6009 26.6449L18.2084 25.7251L18.6009 26.6449ZM19.4126 26.0568L20.1683 26.7117L19.4126 26.0568ZM19.8857 25.1364V24.1364H19.1138L18.9183 24.883L19.8857 25.1364ZM21.3942 25.1364L22.3835 25.2819L22.552 24.1364H21.3942V25.1364ZM20.7614 26.7024L19.9517 26.1156L19.9507 26.1169L20.7614 26.7024ZM19.4382 27.8018L19.8798 28.6991L19.8826 28.6977L19.4382 27.8018ZM17.5334 27.2045C16.7757 27.2045 16.1803 27.0278 15.7028 26.7156L14.6083 28.3895C15.4603 28.9466 16.4502 29.2045 17.5334 29.2045V27.2045ZM15.7028 26.7156C15.2029 26.3887 14.8109 25.9371 14.5267 25.3316L12.7162 26.1812C13.1479 27.1013 13.7787 27.8471 14.6083 28.3895L15.7028 26.7156ZM14.5267 25.3316C14.2405 24.7217 14.0845 23.9992 14.0845 23.142H12.0845C12.0845 24.2452 12.2864 25.2655 12.7162 26.1812L14.5267 25.3316ZM14.0845 23.142C14.0845 22.2683 14.2446 21.5408 14.5356 20.9352L12.7329 20.0691C12.2909 20.989 12.0845 22.0215 12.0845 23.142H14.0845ZM14.5346 20.9373C14.8327 20.3205 15.2314 19.8668 15.727 19.5438L14.6352 17.8681C13.8098 18.406 13.1773 19.1496 12.7339 20.067L14.5346 20.9373ZM15.7284 19.5429C16.2119 19.2267 16.7925 19.054 17.5078 19.054V17.054C16.4504 17.054 15.4798 17.3159 14.6339 17.869L15.7284 19.5429ZM17.5078 19.054C18.0725 19.054 18.5489 19.1579 18.9552 19.3455L19.7933 17.5295C19.0917 17.2057 18.3238 17.054 17.5078 17.054V19.054ZM18.9552 19.3455C19.37 19.5369 19.6929 19.7954 19.9429 20.1207L21.5287 18.902C21.0713 18.3069 20.4865 17.8495 19.7933 17.5295L18.9552 19.3455ZM19.9429 20.1207C20.1838 20.4342 20.3406 20.8059 20.4037 21.2597L22.3847 20.9846C22.2773 20.2112 21.9952 19.509 21.5287 18.902L19.9429 20.1207ZM21.3942 20.1222H19.8857V22.1222H21.3942V20.1222ZM20.8541 20.8731C20.682 20.2035 20.3026 19.6383 19.7754 19.1792L18.4618 20.6873C18.7272 20.9185 18.8592 21.1459 18.9172 21.3712L20.8541 20.8731ZM19.784 19.1867C19.164 18.6341 18.3761 18.4091 17.5334 18.4091V20.4091C18.0202 20.4091 18.2891 20.5335 18.4532 20.6798L19.784 19.1867ZM17.5334 18.4091C16.7613 18.4091 16.043 18.614 15.4173 19.0471L16.5557 20.6915C16.8164 20.511 17.1293 20.4091 17.5334 20.4091V18.4091ZM15.419 19.046C14.8088 19.4666 14.3556 20.0486 14.0442 20.7467L15.8706 21.5616C16.0535 21.1517 16.2864 20.8772 16.5541 20.6927L15.419 19.046ZM14.0427 20.75C13.732 21.4531 13.593 22.2419 13.593 23.0909H15.593C15.593 22.457 15.697 21.9546 15.8721 21.5583L14.0427 20.75ZM13.593 23.0909C13.593 23.9522 13.7284 24.751 14.0304 25.463L15.8716 24.6819C15.6964 24.2689 15.593 23.7466 15.593 23.0909H13.593ZM14.0329 25.4689C14.3382 26.1758 14.7871 26.7675 15.3955 27.1987L16.552 25.5669C16.2825 25.376 16.0496 25.0941 15.8691 24.676L14.0329 25.4689ZM15.3992 27.2013C16.0278 27.6425 16.7531 27.8494 17.5334 27.8494V25.8494C17.1205 25.8494 16.806 25.7453 16.5482 25.5643L15.3992 27.2013ZM17.5334 27.8494C18.043 27.8494 18.5347 27.7603 18.9933 27.5647L18.2084 25.7251C18.0278 25.8022 17.8078 25.8494 17.5334 25.8494V27.8494ZM18.9933 27.5647C19.4486 27.3704 19.8446 27.0853 20.1683 26.7117L18.657 25.4019C18.5375 25.5397 18.3923 25.6467 18.2084 25.7251L18.9933 27.5647ZM20.1683 26.7117C20.4995 26.3297 20.7241 25.8819 20.853 25.3897L18.9183 24.883C18.8597 25.1068 18.769 25.2726 18.657 25.4019L20.1683 26.7117ZM19.8857 26.1364H21.3942V24.1364H19.8857V26.1364ZM20.4048 24.9909C20.3425 25.4145 20.1917 25.7844 19.9517 26.1156L21.5711 27.2893C22.0043 26.6914 22.2754 26.0173 22.3835 25.2819L20.4048 24.9909ZM19.9507 26.1169C19.721 26.435 19.4101 26.6995 18.9938 26.906L19.8826 28.6977C20.5658 28.3587 21.137 27.8903 21.572 27.2879L19.9507 26.1169ZM18.9966 26.9046C18.6124 27.0937 18.1338 27.2045 17.5334 27.2045V29.2045C18.3819 29.2045 19.1731 29.0469 19.8798 28.6991L18.9966 26.9046ZM25.2102 27.5526L24.663 28.3895L25.2102 27.5526ZM23.6889 20.5021L22.7886 20.067L22.7876 20.0691L23.6889 20.5021ZM25.2358 18.706L25.7817 19.5438L25.783 19.5429L25.2358 18.706ZM30.7905 19.5114L31.5834 18.902V18.902L30.7905 19.5114ZM31.4489 21.1222V22.1222H32.5974L32.4394 20.9846L31.4489 21.1222ZM29.9403 21.1222L28.9718 21.3712L29.165 22.1222H29.9403V21.1222ZM29.1733 19.9332L28.5079 20.6798L28.5165 20.6873L29.1733 19.9332ZM26.0412 19.8693L26.6087 20.6927L26.6104 20.6915L26.0412 19.8693ZM25.0121 21.1541L24.0988 20.7467L24.0974 20.75L25.0121 21.1541ZM25.0057 25.0724L24.0851 25.463L24.0876 25.4689L25.0057 25.0724ZM26.0284 26.3828L25.4502 27.1987L25.4539 27.2013L26.0284 26.3828ZM28.6555 26.6449L28.2631 25.7251L28.6555 26.6449ZM29.4673 26.0568L30.223 26.7117L29.4673 26.0568ZM29.9403 25.1364V24.1364H29.1685L28.973 24.883L29.9403 25.1364ZM31.4489 25.1364L32.4382 25.2819L32.6067 24.1364H31.4489V25.1364ZM30.8161 26.7024L30.0064 26.1156L30.0054 26.1169L30.8161 26.7024ZM29.4929 27.8018L29.9345 28.6991L29.9373 28.6977L29.4929 27.8018ZM27.5881 27.2045C26.8304 27.2045 26.235 27.0278 25.7575 26.7156L24.663 28.3895C25.515 28.9466 26.5048 29.2045 27.5881 29.2045V27.2045ZM25.7575 26.7156C25.2575 26.3887 24.8656 25.9371 24.5814 25.3316L22.7709 26.1812C23.2026 27.1013 23.8334 27.8471 24.663 28.3895L25.7575 26.7156ZM24.5814 25.3316C24.2952 24.7217 24.1392 23.9992 24.1392 23.142H22.1392C22.1392 24.2452 22.3411 25.2655 22.7709 26.1812L24.5814 25.3316ZM24.1392 23.142C24.1392 22.2683 24.2993 21.5408 24.5903 20.9352L22.7876 20.0691C22.3456 20.989 22.1392 22.0215 22.1392 23.142H24.1392ZM24.5893 20.9373C24.8874 20.3205 25.2861 19.8668 25.7817 19.5438L24.6899 17.8681C23.8645 18.406 23.2319 19.1496 22.7886 20.067L24.5893 20.9373ZM25.783 19.5429C26.2666 19.2267 26.8472 19.054 27.5625 19.054V17.054C26.5051 17.054 25.5345 17.3159 24.6885 17.869L25.783 19.5429ZM27.5625 19.054C28.1272 19.054 28.6036 19.1579 29.0099 19.3455L29.848 17.5295C29.1464 17.2057 28.3785 17.054 27.5625 17.054V19.054ZM29.0099 19.3455C29.4247 19.5369 29.7476 19.7954 29.9976 20.1207L31.5834 18.902C31.126 18.3069 30.5412 17.8495 29.848 17.5295L29.0099 19.3455ZM29.9976 20.1207C30.2385 20.4342 30.3953 20.8059 30.4584 21.2597L32.4394 20.9846C32.3319 20.2112 32.0498 19.509 31.5834 18.902L29.9976 20.1207ZM31.4489 20.1222H29.9403V22.1222H31.4489V20.1222ZM30.9088 20.8731C30.7366 20.2035 30.3573 19.6383 29.8301 19.1792L28.5165 20.6873C28.7819 20.9185 28.9139 21.1459 28.9718 21.3712L30.9088 20.8731ZM29.8387 19.1867C29.2187 18.6341 28.4308 18.4091 27.5881 18.4091V20.4091C28.0749 20.4091 28.3438 20.5335 28.5079 20.6798L29.8387 19.1867ZM27.5881 18.4091C26.816 18.4091 26.0977 18.614 25.472 19.0471L26.6104 20.6915C26.8711 20.511 27.184 20.4091 27.5881 20.4091V18.4091ZM25.4736 19.046C24.8635 19.4666 24.4103 20.0486 24.0988 20.7467L25.9253 21.5616C26.1082 21.1517 26.341 20.8772 26.6087 20.6927L25.4736 19.046ZM24.0974 20.75C23.7867 21.4531 23.6477 22.2419 23.6477 23.0909H25.6477C25.6477 22.457 25.7516 21.9546 25.9268 21.5583L24.0974 20.75ZM23.6477 23.0909C23.6477 23.9522 23.783 24.751 24.0851 25.463L25.9263 24.6819C25.751 24.2689 25.6477 23.7466 25.6477 23.0909H23.6477ZM24.0876 25.4689C24.3929 26.1758 24.8418 26.7675 25.4502 27.1987L26.6066 25.5669C26.3372 25.376 26.1043 25.0941 25.9237 24.676L24.0876 25.4689ZM25.4539 27.2013C26.0825 27.6425 26.8078 27.8494 27.5881 27.8494V25.8494C27.1752 25.8494 26.8607 25.7453 26.6029 25.5643L25.4539 27.2013ZM27.5881 27.8494C28.0977 27.8494 28.5894 27.7603 29.048 27.5647L28.2631 25.7251C28.0825 25.8022 27.8625 25.8494 27.5881 25.8494V27.8494ZM29.048 27.5647C29.5033 27.3704 29.8993 27.0853 30.223 26.7117L28.7116 25.4019C28.5922 25.5397 28.447 25.6467 28.2631 25.7251L29.048 27.5647ZM30.223 26.7117C30.5542 26.3297 30.7788 25.8819 30.9077 25.3897L28.973 24.883C28.9144 25.1068 28.8237 25.2726 28.7116 25.4019L30.223 26.7117ZM29.9403 26.1364H31.4489V24.1364H29.9403V26.1364ZM30.4595 24.9909C30.3972 25.4145 30.2464 25.7844 30.0064 26.1156L31.6257 27.2893C32.059 26.6914 32.3301 26.0173 32.4382 25.2819L30.4595 24.9909ZM30.0054 26.1169C29.7756 26.435 29.4648 26.6995 29.0485 26.906L29.9373 28.6977C30.6205 28.3587 31.1917 27.8903 31.6267 27.2879L30.0054 26.1169ZM29.0513 26.9046C28.6671 27.0937 28.1884 27.2045 27.5881 27.2045V29.2045C28.4366 29.2045 29.2278 29.0469 29.9345 28.6991L29.0513 26.9046ZM35.3097 27.5717L34.7738 28.4161L34.7763 28.4176L35.3097 27.5717ZM33.75 25.8011L32.8516 26.2403L32.8536 26.2443L33.75 25.8011ZM33.75 20.4638L32.8526 20.0226L32.8506 20.0266L33.75 20.4638ZM35.3097 18.6868L34.7763 17.8409L34.7738 17.8425L35.3097 18.6868ZM39.9695 18.6868L39.4336 19.5311L39.4361 19.5327L39.9695 18.6868ZM41.5291 20.4638L40.6297 20.9009L40.6317 20.905L41.5291 20.4638ZM41.5291 25.8011L40.6327 25.358L40.6307 25.362L41.5291 25.8011ZM39.9695 27.5717L39.4361 26.7259L39.4336 26.7274L39.9695 27.5717ZM39.3047 26.3317L38.6828 25.5486L39.3047 26.3317ZM40.2699 24.9702L41.2074 25.3182V25.3182L40.2699 24.9702ZM40.2699 21.3075L41.2082 20.9618L40.2699 21.3075ZM39.3047 19.9332L39.9312 19.1539V19.1539L39.3047 19.9332ZM35.9808 19.9332L35.3543 19.1539L35.9808 19.9332ZM35.0156 21.3075L34.0773 20.9618L35.0156 21.3075ZM35.0156 24.9702L34.0781 25.3182L35.0156 24.9702ZM35.9808 26.3317L36.6027 25.5486L35.9808 26.3317ZM37.6428 27.2045C36.9217 27.2045 36.3336 27.0352 35.843 26.7259L34.7763 28.4176C35.6237 28.952 36.5911 29.2045 37.6428 29.2045V27.2045ZM35.8455 26.7274C35.347 26.411 34.9465 25.965 34.6464 25.358L32.8536 26.2443C33.3035 27.1543 33.9428 27.8887 34.7738 28.4161L35.8455 26.7274ZM34.6484 25.362C34.3566 24.765 34.1939 24.0343 34.1939 23.142H32.1939C32.1939 24.2782 32.4019 25.3202 32.8516 26.2403L34.6484 25.362ZM34.1939 23.142C34.1939 22.24 34.3571 21.5023 34.6494 20.9009L32.8506 20.0266C32.4014 20.9508 32.1939 21.9986 32.1939 23.142H34.1939ZM34.6474 20.905C34.948 20.2936 35.3484 19.8466 35.8455 19.5311L34.7738 17.8425C33.9414 18.3707 33.302 19.1084 32.8526 20.0226L34.6474 20.905ZM35.843 19.5327C36.3336 19.2233 36.9217 19.054 37.6428 19.054V17.054C36.5911 17.054 35.6237 17.3065 34.7763 17.8409L35.843 19.5327ZM37.6428 19.054C38.3639 19.054 38.9486 19.2233 39.4336 19.5311L40.5053 17.8425C39.6607 17.3065 38.6943 17.054 37.6428 17.054V19.054ZM39.4361 19.5327C39.9359 19.8479 40.3344 20.2932 40.6297 20.9009L42.4285 20.0266C41.9824 19.1088 41.3411 18.3695 40.5028 17.8409L39.4361 19.5327ZM40.6317 20.905C40.9269 21.5053 41.0916 22.2416 41.0916 23.142H43.0916C43.0916 21.9971 42.8814 20.9478 42.4265 20.0226L40.6317 20.905ZM41.0916 23.142C41.0916 24.0327 40.9273 24.762 40.6327 25.358L42.4256 26.2443C42.8809 25.3233 43.0916 24.2798 43.0916 23.142H41.0916ZM40.6307 25.362C40.3358 25.9654 39.9373 26.4098 39.4361 26.7259L40.5028 28.4176C41.3397 27.8899 41.981 27.1539 42.4275 26.2403L40.6307 25.362ZM39.4336 26.7274C38.9486 27.0352 38.3639 27.2045 37.6428 27.2045V29.2045C38.6943 29.2045 39.6607 28.952 40.5053 28.4161L39.4336 26.7274ZM37.6428 27.8494C38.4922 27.8494 39.2797 27.6285 39.9266 27.1148L38.6828 25.5486C38.4603 25.7252 38.1399 25.8494 37.6428 25.8494V27.8494ZM39.9266 27.1148C40.5157 26.6469 40.9404 26.0374 41.2074 25.3182L39.3324 24.6222C39.1818 25.0279 38.963 25.3261 38.6828 25.5486L39.9266 27.1148ZM41.2074 25.3182C41.4612 24.6343 41.5831 23.906 41.5831 23.142H39.5831C39.5831 23.6906 39.4962 24.181 39.3324 24.6222L41.2074 25.3182ZM41.5831 23.142C41.5831 22.378 41.4612 21.6485 41.2082 20.9618L39.3315 21.6532C39.4962 22.1001 39.5831 22.5935 39.5831 23.142H41.5831ZM41.2082 20.9618C40.9421 20.2395 40.5189 19.6263 39.9312 19.1539L38.6781 20.7126C38.9598 20.939 39.18 21.242 39.3315 21.6532L41.2082 20.9618ZM39.9312 19.1539C39.2843 18.6337 38.495 18.4091 37.6428 18.4091V20.4091C38.1371 20.4091 38.4558 20.5339 38.6781 20.7126L39.9312 19.1539ZM37.6428 18.4091C36.7905 18.4091 36.0012 18.6337 35.3543 19.1539L36.6074 20.7126C36.8297 20.5339 37.1484 20.4091 37.6428 20.4091V18.4091ZM35.3543 19.1539C34.7666 19.6263 34.3434 20.2395 34.0773 20.9618L35.954 21.6532C36.1055 21.242 36.3257 20.939 36.6074 20.7126L35.3543 19.1539ZM34.0773 20.9618C33.8243 21.6485 33.7024 22.378 33.7024 23.142H35.7024C35.7024 22.5935 35.7893 22.1001 35.954 21.6532L34.0773 20.9618ZM33.7024 23.142C33.7024 23.906 33.8243 24.6343 34.0781 25.3182L35.9531 24.6222C35.7894 24.181 35.7024 23.6906 35.7024 23.142H33.7024ZM34.0781 25.3182C34.3451 26.0374 34.7698 26.6469 35.3589 27.1148L36.6027 25.5486C36.3225 25.3261 36.1037 25.0279 35.9531 24.6222L34.0781 25.3182ZM35.3589 27.1148C36.0058 27.6285 36.7933 27.8494 37.6428 27.8494V25.8494C37.1456 25.8494 36.8252 25.7252 36.6027 25.5486L35.3589 27.1148ZM44.3944 28H43.3944V29H44.3944V28ZM44.3944 18.1818V17.1818H43.3944V18.1818H44.3944ZM45.8517 18.1818H46.8517V17.1818H45.8517V18.1818ZM45.8517 19.7159H44.8517V20.7159H45.8517V19.7159ZM45.9796 19.7159V20.7159H46.6628L46.9112 20.0795L45.9796 19.7159ZM46.9703 18.495L47.5067 19.339L47.5123 19.3354L46.9703 18.495ZM50.2303 18.495L49.6662 19.3208L49.6756 19.3271L50.2303 18.495ZM51.2466 19.7159L50.3393 20.1364L50.6079 20.7159H51.2466V19.7159ZM51.3489 19.7159V20.7159H51.9693L52.2448 20.1601L51.3489 19.7159ZM52.4803 18.5078L52.9905 19.3679L52.9959 19.3647L52.4803 18.5078ZM56.4434 18.8786L55.7417 19.5911L55.7445 19.5938L56.4434 18.8786ZM57.2807 28V29H58.2807V28H57.2807ZM55.7722 28H54.7722V29H55.7722V28ZM55.1777 19.8757L54.5603 20.6623L55.1777 19.8757ZM52.1735 20.0355L52.9103 20.7116L52.9138 20.7078L52.1735 20.0355ZM51.6046 28V29H52.6046V28H51.6046ZM50.0705 28H49.0705V29H50.0705V28ZM49.5272 19.9268L48.8373 20.6508L48.8418 20.655L49.5272 19.9268ZM47.0279 19.7223L46.5056 18.8695L46.5008 18.8725L47.0279 19.7223ZM46.2097 20.5916L45.3384 20.1009L45.3365 20.1043L46.2097 20.5916ZM45.9029 28V29H46.9029V28H45.9029ZM45.3944 28V18.1818H43.3944V28H45.3944ZM44.3944 19.1818H45.8517V17.1818H44.3944V19.1818ZM44.8517 18.1818V19.7159H46.8517V18.1818H44.8517ZM45.8517 20.7159H45.9796V18.7159H45.8517V20.7159ZM46.9112 20.0795C47.0418 19.7446 47.238 19.5098 47.5067 19.339L46.434 17.651C45.7908 18.0598 45.3264 18.6389 45.048 19.3524L46.9112 20.0795ZM47.5123 19.3354C47.7797 19.163 48.1313 19.054 48.6131 19.054V17.054C47.8165 17.054 47.0729 17.239 46.4284 17.6546L47.5123 19.3354ZM48.6131 19.054C49.1087 19.054 49.4384 19.1651 49.6662 19.3207L50.7944 17.6693C50.1614 17.2369 49.413 17.054 48.6131 17.054V19.054ZM49.6756 19.3271C49.9412 19.5041 50.1654 19.761 50.3393 20.1364L52.1539 19.2954C51.8421 18.6225 51.3887 18.0655 50.785 17.663L49.6756 19.3271ZM51.2466 20.7159H51.3489V18.7159H51.2466V20.7159ZM52.2448 20.1601C52.4076 19.8319 52.6479 19.5711 52.9905 19.3679L51.9701 17.6478C51.307 18.0411 50.7931 18.5857 50.453 19.2717L52.2448 20.1601ZM52.9959 19.3647C53.3147 19.1728 53.7316 19.054 54.2892 19.054V17.054C53.4406 17.054 52.6516 17.2377 51.9647 17.651L52.9959 19.3647ZM54.2892 19.054C54.939 19.054 55.3938 19.2484 55.7417 19.5911L57.145 18.166C56.3765 17.4092 55.3952 17.054 54.2892 17.054V19.054ZM55.7445 19.5938C56.0343 19.877 56.2807 20.4146 56.2807 21.429H58.2807C58.2807 20.1337 57.9689 18.9711 57.1422 18.1633L55.7445 19.5938ZM56.2807 21.429V28H58.2807V21.429H56.2807ZM57.2807 27H55.7722V29H57.2807V27ZM56.7722 28V21.429H54.7722V28H56.7722ZM56.7722 21.429C56.7722 20.5381 56.5254 19.6623 55.7952 19.0891L54.5603 20.6623C54.6227 20.7113 54.7722 20.871 54.7722 21.429H56.7722ZM55.7952 19.0891C55.2107 18.6303 54.5229 18.4091 53.7779 18.4091V20.4091C54.1067 20.4091 54.3521 20.4989 54.5603 20.6623L55.7952 19.0891ZM53.7779 18.4091C52.8738 18.4091 52.0434 18.6913 51.4332 19.3632L52.9138 20.7078C53.0621 20.5445 53.3013 20.4091 53.7779 20.4091V18.4091ZM51.4366 19.3594C50.8656 19.9819 50.6046 20.7582 50.6046 21.608H52.6046C52.6046 21.1879 52.7229 20.9159 52.9103 20.7116L51.4366 19.3594ZM50.6046 21.608V28H52.6046V21.608H50.6046ZM51.6046 27H50.0705V29H51.6046V27ZM51.0705 28V21.2756H49.0705V28H51.0705ZM51.0705 21.2756C51.0705 20.4788 50.8011 19.7526 50.2125 19.1986L48.8418 20.655C48.9777 20.7829 49.0705 20.9559 49.0705 21.2756H51.0705ZM50.217 19.2029C49.6423 18.6552 48.9161 18.4091 48.1273 18.4091V20.4091C48.4806 20.4091 48.6876 20.5081 48.8373 20.6508L50.217 19.2029ZM48.1273 18.4091C47.5471 18.4091 47.0004 18.5665 46.5056 18.8695L47.5502 20.5751C47.7372 20.4605 47.9234 20.4091 48.1273 20.4091V18.4091ZM46.5008 18.8725C46.0104 19.1766 45.6236 19.5946 45.3384 20.1009L47.081 21.0824C47.2135 20.8472 47.372 20.6856 47.555 20.5721L46.5008 18.8725ZM45.3365 20.1043C45.0372 20.6404 44.9029 21.2369 44.9029 21.8636H46.9029C46.9029 21.5273 46.9731 21.2757 47.0829 21.079L45.3365 20.1043ZM44.9029 21.8636V28H46.9029V21.8636H44.9029ZM45.9029 27H44.3944V29H45.9029V27ZM60.0389 28H59.0389V29H60.0389V28ZM60.0389 18.1818V17.1818H59.0389V18.1818H60.0389ZM61.4963 18.1818H62.4963V17.1818H61.4963V18.1818ZM61.4963 19.7159H60.4963V20.7159H61.4963V19.7159ZM61.6241 19.7159V20.7159H62.3073L62.5557 20.0795L61.6241 19.7159ZM62.6149 18.495L63.1513 19.339L63.1568 19.3354L62.6149 18.495ZM65.8748 18.495L65.3107 19.3208L65.3201 19.3271L65.8748 18.495ZM66.8912 19.7159L65.9838 20.1364L66.2524 20.7159H66.8912V19.7159ZM66.9934 19.7159V20.7159H67.6138L67.8894 20.1601L66.9934 19.7159ZM68.1248 18.5078L68.635 19.3679L68.6404 19.3647L68.1248 18.5078ZM72.0879 18.8786L71.3862 19.5911L71.389 19.5938L72.0879 18.8786ZM72.9252 28V29H73.9252V28H72.9252ZM71.4167 28H70.4167V29H71.4167V28ZM70.8223 19.8757L70.2048 20.6623L70.8223 19.8757ZM67.818 20.0355L68.5549 20.7116L68.5583 20.7078L67.818 20.0355ZM67.2491 28V29H68.2491V28H67.2491ZM65.715 28H64.715V29H65.715V28ZM65.1717 19.9268L64.4818 20.6508L64.4863 20.655L65.1717 19.9268ZM62.6724 19.7223L62.1501 18.8695L62.1453 18.8725L62.6724 19.7223ZM61.8542 20.5916L60.9829 20.1009L60.981 20.1043L61.8542 20.5916ZM61.5474 28V29H62.5474V28H61.5474ZM61.0389 28V18.1818H59.0389V28H61.0389ZM60.0389 19.1818H61.4963V17.1818H60.0389V19.1818ZM60.4963 18.1818V19.7159H62.4963V18.1818H60.4963ZM61.4963 20.7159H61.6241V18.7159H61.4963V20.7159ZM62.5557 20.0795C62.6864 19.7446 62.8825 19.5098 63.1512 19.339L62.0785 17.651C61.4353 18.0598 60.971 18.6389 60.6925 19.3524L62.5557 20.0795ZM63.1568 19.3354C63.4243 19.163 63.7758 19.054 64.2576 19.054V17.054C63.461 17.054 62.7174 17.239 62.0729 17.6546L63.1568 19.3354ZM64.2576 19.054C64.7532 19.054 65.083 19.1651 65.3107 19.3207L66.4389 17.6693C65.8059 17.2369 65.0575 17.054 64.2576 17.054V19.054ZM65.3201 19.3271C65.5857 19.5041 65.8099 19.761 65.9838 20.1364L67.7985 19.2954C67.4866 18.6225 67.0333 18.0655 66.4295 17.663L65.3201 19.3271ZM66.8912 20.7159H66.9934V18.7159H66.8912V20.7159ZM67.8894 20.1601C68.0521 19.8319 68.2924 19.5711 68.635 19.3679L67.6146 17.6478C66.9515 18.0411 66.4376 18.5857 66.0975 19.2717L67.8894 20.1601ZM68.6404 19.3647C68.9592 19.1728 69.3761 19.054 69.9338 19.054V17.054C69.0852 17.054 68.2961 17.2377 67.6093 17.651L68.6404 19.3647ZM69.9338 19.054C70.5835 19.054 71.0383 19.2484 71.3862 19.5911L72.7895 18.166C72.021 17.4092 71.0397 17.054 69.9338 17.054V19.054ZM71.389 19.5938C71.6788 19.877 71.9252 20.4146 71.9252 21.429H73.9252C73.9252 20.1337 73.6134 18.9711 72.7868 18.1633L71.389 19.5938ZM71.9252 21.429V28H73.9252V21.429H71.9252ZM72.9252 27H71.4167V29H72.9252V27ZM72.4167 28V21.429H70.4167V28H72.4167ZM72.4167 21.429C72.4167 20.5381 72.1699 19.6623 71.4397 19.0891L70.2048 20.6623C70.2672 20.7113 70.4167 20.871 70.4167 21.429H72.4167ZM71.4397 19.0891C70.8553 18.6303 70.1675 18.4091 69.4224 18.4091V20.4091C69.7512 20.4091 69.9966 20.4989 70.2048 20.6623L71.4397 19.0891ZM69.4224 18.4091C68.5183 18.4091 67.6879 18.6913 67.0777 19.3632L68.5583 20.7078C68.7066 20.5445 68.9458 20.4091 69.4224 20.4091V18.4091ZM67.0812 19.3594C66.5101 19.9819 66.2491 20.7582 66.2491 21.608H68.2491C68.2491 21.1879 68.3674 20.9159 68.5548 20.7116L67.0812 19.3594ZM66.2491 21.608V28H68.2491V21.608H66.2491ZM67.2491 27H65.715V29H67.2491V27ZM66.715 28V21.2756H64.715V28H66.715ZM66.715 21.2756C66.715 20.4788 66.4456 19.7526 65.8571 19.1986L64.4863 20.655C64.6222 20.7829 64.715 20.9559 64.715 21.2756H66.715ZM65.8616 19.2029C65.2869 18.6552 64.5606 18.4091 63.7718 18.4091V20.4091C64.1251 20.4091 64.3321 20.5081 64.4818 20.6508L65.8616 19.2029ZM63.7718 18.4091C63.1917 18.4091 62.6449 18.5665 62.1501 18.8695L63.1947 20.5751C63.3817 20.4605 63.5679 20.4091 63.7718 20.4091V18.4091ZM62.1453 18.8725C61.655 19.1766 61.2681 19.5946 60.9829 20.1009L62.7255 21.0824C62.858 20.8472 63.0165 20.6856 63.1995 20.5721L62.1453 18.8725ZM60.981 20.1043C60.6818 20.6404 60.5474 21.2369 60.5474 21.8636H62.5474C62.5474 21.5273 62.6176 21.2757 62.7274 21.079L60.981 20.1043ZM60.5474 21.8636V28H62.5474V21.8636H60.5474ZM61.5474 27H60.0389V29H61.5474V27ZM77.339 27.5717L76.8031 28.4161L76.8056 28.4176L77.339 27.5717ZM75.7793 25.8011L74.8809 26.2403L74.8829 26.2443L75.7793 25.8011ZM75.7793 20.4638L74.8819 20.0226L74.8799 20.0266L75.7793 20.4638ZM77.339 18.6868L76.8056 17.8409L76.8031 17.8425L77.339 18.6868ZM81.9988 18.6868L81.4629 19.5311L81.4654 19.5327L81.9988 18.6868ZM83.5584 20.4638L82.659 20.9009L82.661 20.905L83.5584 20.4638ZM83.5584 25.8011L82.662 25.358L82.66 25.362L83.5584 25.8011ZM81.9988 27.5717L81.4654 26.7259L81.4629 26.7274L81.9988 27.5717ZM81.334 26.3317L80.7121 25.5486L81.334 26.3317ZM82.2992 24.9702L83.2367 25.3182V25.3182L82.2992 24.9702ZM82.2992 21.3075L83.2375 20.9618L82.2992 21.3075ZM81.334 19.9332L81.9605 19.1539V19.1539L81.334 19.9332ZM78.0101 19.9332L77.3836 19.1539L78.0101 19.9332ZM77.0449 21.3075L76.1066 20.9618H76.1066L77.0449 21.3075ZM77.0449 24.9702L76.1074 25.3182L77.0449 24.9702ZM78.0101 26.3317L78.632 25.5486L78.0101 26.3317ZM79.6721 27.2045C78.951 27.2045 78.3629 27.0352 77.8723 26.7259L76.8056 28.4176C77.653 28.952 78.6204 29.2045 79.6721 29.2045V27.2045ZM77.8748 26.7274C77.3763 26.411 76.9758 25.965 76.6757 25.358L74.8829 26.2443C75.3328 27.1543 75.9721 27.8887 76.8031 28.4161L77.8748 26.7274ZM76.6777 25.362C76.3859 24.765 76.2232 24.0343 76.2232 23.142H74.2232C74.2232 24.2782 74.4312 25.3202 74.8809 26.2403L76.6777 25.362ZM76.2232 23.142C76.2232 22.24 76.3864 21.5023 76.6787 20.9009L74.8799 20.0266C74.4307 20.9508 74.2232 21.9986 74.2232 23.142H76.2232ZM76.6767 20.905C76.9773 20.2936 77.3777 19.8466 77.8748 19.5311L76.8031 17.8425C75.9707 18.3707 75.3313 19.1084 74.8819 20.0226L76.6767 20.905ZM77.8723 19.5327C78.3629 19.2233 78.951 19.054 79.6721 19.054V17.054C78.6204 17.054 77.653 17.3065 76.8056 17.8409L77.8723 19.5327ZM79.6721 19.054C80.3932 19.054 80.9779 19.2233 81.4629 19.5311L82.5346 17.8425C81.69 17.3065 80.7236 17.054 79.6721 17.054V19.054ZM81.4654 19.5327C81.9652 19.8479 82.3637 20.2932 82.659 20.9009L84.4578 20.0266C84.0117 19.1088 83.3704 18.3695 82.5321 17.8409L81.4654 19.5327ZM82.661 20.905C82.9562 21.5053 83.1209 22.2416 83.1209 23.142H85.1209C85.1209 21.9971 84.9107 20.9478 84.4558 20.0226L82.661 20.905ZM83.1209 23.142C83.1209 24.0327 82.9566 24.762 82.662 25.358L84.4548 26.2443C84.9102 25.3233 85.1209 24.2798 85.1209 23.142H83.1209ZM82.66 25.362C82.3651 25.9654 81.9666 26.4098 81.4654 26.7259L82.5321 28.4176C83.3689 27.8899 84.0103 27.1539 84.4568 26.2403L82.66 25.362ZM81.4629 26.7274C80.9779 27.0352 80.3932 27.2045 79.6721 27.2045V29.2045C80.7236 29.2045 81.69 28.952 82.5346 28.4161L81.4629 26.7274ZM79.6721 27.8494C80.5215 27.8494 81.309 27.6285 81.9559 27.1148L80.7121 25.5486C80.4896 25.7252 80.1692 25.8494 79.6721 25.8494V27.8494ZM81.9559 27.1148C82.545 26.6469 82.9697 26.0374 83.2367 25.3182L81.3617 24.6222C81.2111 25.0279 80.9923 25.3261 80.7121 25.5486L81.9559 27.1148ZM83.2367 25.3182C83.4905 24.6343 83.6124 23.906 83.6124 23.142H81.6124C81.6124 23.6906 81.5255 24.181 81.3617 24.6222L83.2367 25.3182ZM83.6124 23.142C83.6124 22.378 83.4905 21.6485 83.2375 20.9618L81.3608 21.6532C81.5255 22.1001 81.6124 22.5935 81.6124 23.142H83.6124ZM83.2375 20.9618C82.9714 20.2395 82.5482 19.6263 81.9605 19.1539L80.7074 20.7126C80.9891 20.939 81.2093 21.242 81.3608 21.6532L83.2375 20.9618ZM81.9605 19.1539C81.3136 18.6337 80.5243 18.4091 79.6721 18.4091V20.4091C80.1664 20.4091 80.4851 20.5339 80.7074 20.7126L81.9605 19.1539ZM79.6721 18.4091C78.8198 18.4091 78.0305 18.6337 77.3836 19.1539L78.6367 20.7126C78.859 20.5339 79.1777 20.4091 79.6721 20.4091V18.4091ZM77.3836 19.1539C76.7959 19.6263 76.3727 20.2395 76.1066 20.9618L77.9833 21.6532C78.1348 21.242 78.355 20.939 78.6367 20.7126L77.3836 19.1539ZM76.1066 20.9618C75.8536 21.6485 75.7317 22.378 75.7317 23.142H77.7317C77.7317 22.5935 77.8186 22.1001 77.9833 21.6532L76.1066 20.9618ZM75.7317 23.142C75.7317 23.906 75.8536 24.6343 76.1074 25.3182L77.9824 24.6222C77.8187 24.181 77.7317 23.6906 77.7317 23.142H75.7317ZM76.1074 25.3182C76.3744 26.0374 76.7991 26.6469 77.3882 27.1148L78.632 25.5486C78.3518 25.3261 78.133 25.0279 77.9824 24.6222L76.1074 25.3182ZM77.3882 27.1148C78.0351 27.6285 78.8226 27.8494 79.6721 27.8494V25.8494C79.1749 25.8494 78.8545 25.7252 78.632 25.5486L77.3882 27.1148ZM87.9641 27.5845L87.4094 28.4166L87.4134 28.4192L87.9641 27.5845ZM86.494 25.8203L85.5867 26.241L85.5876 26.2429L86.494 25.8203ZM86.494 20.4318L85.5876 20.0092L86.494 20.4318ZM87.9705 18.674L87.4224 17.8376L87.9705 18.674ZM91.6715 18.3736L91.1732 19.2407L91.185 19.2473L91.6715 18.3736ZM92.5281 19.0895L91.7204 19.6792L91.7257 19.6864L91.7311 19.6936L92.5281 19.0895ZM92.9947 19.7415L92.1562 20.2865L92.452 20.7415H92.9947V19.7415ZM93.1225 19.7415V20.7415H94.1225V19.7415H93.1225ZM93.1225 14.9091V13.9091H92.1225V14.9091H93.1225ZM94.631 14.9091H95.631V13.9091H94.631V14.9091ZM94.631 28V29H95.631V28H94.631ZM93.1737 28H92.1737V29H93.1737V28ZM93.1737 26.4915H94.1737V25.4915H93.1737V26.4915ZM92.9947 26.4915V25.4915H92.4376L92.1444 25.9651L92.9947 26.4915ZM92.5217 27.169L93.3171 27.7751L93.3217 27.769L92.5217 27.169ZM91.646 27.8913L92.1283 28.7674L92.1357 28.7632L91.646 27.8913ZM91.8697 26.3764L92.4723 27.1745L92.4774 27.1705L91.8697 26.3764ZM92.8221 25.0533L93.7549 25.4137L93.7558 25.4113L92.8221 25.0533ZM92.8285 21.1669L91.8951 21.5259L91.8961 21.5283L92.8285 21.1669ZM91.8825 19.8757L91.2851 20.6777L91.2904 20.6816L91.8825 19.8757ZM88.7376 19.9013L89.3465 20.6945L89.3477 20.6936L88.7376 19.9013ZM87.7852 21.2244L86.8509 20.8678L86.8494 20.8717L87.7852 21.2244ZM87.7915 24.9957L86.8546 25.3453L86.8578 25.3538L87.7915 24.9957ZM88.7504 26.3509L88.1266 27.1325L88.1353 27.1394L88.7504 26.3509ZM90.131 27.2045C89.4903 27.2045 88.9632 27.0456 88.5149 26.7499L87.4134 28.4192C88.218 28.9501 89.1355 29.2045 90.131 29.2045V27.2045ZM88.5188 26.7525C88.0615 26.4476 87.6854 26.0092 87.4003 25.3977L85.5876 26.2429C86.0099 27.1485 86.6139 27.8862 87.4094 28.4166L88.5188 26.7525ZM87.4012 25.3996C87.1213 24.7961 86.9634 24.0445 86.9634 23.1165H84.9634C84.9634 24.268 85.1592 25.319 85.5867 26.241L87.4012 25.3996ZM86.9634 23.1165C86.9634 22.1981 87.1209 21.4536 87.4003 20.8544L85.5876 20.0092C85.1596 20.9271 84.9634 21.9723 84.9634 23.1165H86.9634ZM87.4003 20.8544C87.6843 20.2453 88.0603 19.8108 88.5187 19.5104L87.4224 17.8376C86.6194 18.3639 86.011 19.1012 85.5876 20.0092L87.4003 20.8544ZM88.5187 19.5104C88.9709 19.214 89.5051 19.054 90.1566 19.054V17.054C89.1547 17.054 88.2315 17.3073 87.4224 17.8376L88.5187 19.5104ZM90.1566 19.054C90.7011 19.054 91.0111 19.1474 91.1732 19.2406L92.1698 17.5066C91.5905 17.1736 90.8905 17.054 90.1566 17.054V19.054ZM91.185 19.2473C91.4691 19.4054 91.6307 19.5563 91.7204 19.6792L93.3357 18.4998C93.0334 18.0858 92.624 17.7593 92.158 17.4999L91.185 19.2473ZM91.7311 19.6936C91.9247 19.9489 92.0641 20.1447 92.1562 20.2865L93.8331 19.1965C93.7036 18.9973 93.532 18.7585 93.325 18.4854L91.7311 19.6936ZM92.9947 20.7415H93.1225V18.7415H92.9947V20.7415ZM94.1225 19.7415V14.9091H92.1225V19.7415H94.1225ZM93.1225 15.9091H94.631V13.9091H93.1225V15.9091ZM93.631 14.9091V28H95.631V14.9091H93.631ZM94.631 27H93.1737V29H94.631V27ZM94.1737 28V26.4915H92.1737V28H94.1737ZM93.1737 25.4915H92.9947V27.4915H93.1737V25.4915ZM92.1444 25.9651C92.0558 26.1083 91.9178 26.3075 91.7217 26.569L93.3217 27.769C93.5346 27.4851 93.712 27.2327 93.8449 27.0178L92.1444 25.9651ZM91.7262 26.563C91.6245 26.6965 91.4494 26.8548 91.1562 27.0195L92.1357 28.7632C92.601 28.5018 93.0097 28.1785 93.3171 27.7751L91.7262 26.563ZM91.1637 27.0153C90.9844 27.114 90.6649 27.2045 90.131 27.2045V29.2045C90.8585 29.2045 91.549 29.0862 92.1283 28.7673L91.1637 27.0153ZM90.3356 27.8494C91.1228 27.8494 91.8548 27.6407 92.4723 27.1745L91.2671 25.5784C91.0493 25.7428 90.7586 25.8494 90.3356 25.8494V27.8494ZM92.4774 27.1705C93.0617 26.7234 93.4811 26.1222 93.7549 25.4137L91.8893 24.6929C91.7284 25.1093 91.5129 25.3902 91.2619 25.5823L92.4774 27.1705ZM93.7558 25.4113C94.0255 24.7081 94.1481 23.9285 94.1481 23.0909H92.1481C92.1481 23.7363 92.0534 24.265 91.8884 24.6952L93.7558 25.4113ZM94.1481 23.0909C94.1481 22.2633 94.028 21.4947 93.7609 20.8055L91.8961 21.5283C92.0551 21.9385 92.1481 22.4526 92.1481 23.0909H94.1481ZM93.7618 20.8079C93.4903 20.102 93.0678 19.5057 92.4745 19.0698L91.2904 20.6816C91.5324 20.8594 91.7405 21.1238 91.8951 21.5259L93.7618 20.8079ZM92.4798 19.0738C91.8603 18.6122 91.1248 18.4091 90.3356 18.4091V20.4091C90.7737 20.4091 91.0694 20.517 91.2851 20.6777L92.4798 19.0738ZM90.3356 18.4091C89.5187 18.4091 88.7598 18.6221 88.1275 19.1089L89.3477 20.6936C89.5676 20.5242 89.874 20.4091 90.3356 20.4091V18.4091ZM88.1286 19.1081C87.5425 19.558 87.1216 20.1587 86.8509 20.8678L88.7194 21.581C88.8749 21.1737 89.0889 20.8922 89.3465 20.6945L88.1286 19.1081ZM86.8494 20.8717C86.5917 21.5555 86.4719 22.2997 86.4719 23.0909H88.4719C88.4719 22.5014 88.561 22.0013 88.7209 21.5771L86.8494 20.8717ZM86.4719 23.0909C86.4719 23.8919 86.5942 24.6474 86.8546 25.3453L88.7285 24.6461C88.5628 24.2021 88.4719 23.6877 88.4719 23.0909H86.4719ZM86.8578 25.3538C87.1308 26.0656 87.5488 26.6714 88.1266 27.1325L89.3741 25.5692C89.1081 25.357 88.8869 25.0594 88.7253 24.6377L86.8578 25.3538ZM88.1353 27.1394C88.7655 27.6309 89.5208 27.8494 90.3356 27.8494V25.8494C89.889 25.8494 89.5875 25.7356 89.3654 25.5624L88.1353 27.1394ZM98.7987 27.8786L98.3728 28.7834L98.3791 28.7863L98.7987 27.8786ZM97.5906 26.8494L96.7561 27.4005L96.7585 27.4041L97.5906 26.8494ZM97.4755 23.8452L98.32 24.3807L98.3229 24.3761L97.4755 23.8452ZM99.5913 22.5668L99.8052 23.5436L99.8121 23.5421L99.5913 22.5668ZM100.953 22.3239L100.825 21.332L100.823 21.3323L100.953 22.3239ZM102.404 22.1513L102.507 23.146L102.517 23.1449L102.404 22.1513ZM103.222 21.9403L102.733 21.0681L102.723 21.0734L103.222 21.9403ZM102.966 19.9077L102.25 20.606L102.255 20.6104L102.966 19.9077ZM99.7191 19.8565L100.33 20.6485L99.7191 19.8565ZM98.8562 20.8665L98.5198 21.8082L99.379 22.1151L99.7632 21.2876L98.8562 20.8665ZM97.4244 20.3551L96.5052 19.9612L96.0861 20.939L97.088 21.2969L97.4244 20.3551ZM98.4471 18.9616L99.0621 19.7502L99.0632 19.7493L98.4471 18.9616ZM99.8533 18.2585L100.105 19.2262L100.111 19.2248L99.8533 18.2585ZM102.449 18.169L102.264 19.152L102.276 19.154L102.449 18.169ZM103.644 18.6229L103.129 19.4804L103.133 19.4829L103.644 18.6229ZM104.609 19.6648L103.733 20.147L104.609 19.6648ZM104.993 28V29H105.993V28H104.993ZM103.484 28H102.484V29H103.484V28ZM103.484 26.6705H104.484V25.6705H103.484V26.6705ZM103.407 26.6705V25.6705H102.778L102.506 26.2377L103.407 26.6705ZM102.896 27.3544L103.609 28.0552L102.896 27.3544ZM101.944 27.9744L101.548 27.0558L101.944 27.9744ZM102.231 26.5234L101.738 25.6535L101.734 25.6558L102.231 26.5234ZM103.164 25.6158L102.297 25.1175L102.293 25.125L103.164 25.6158ZM103.484 23.0653H104.484V20.3033L102.716 22.4252L103.484 23.0653ZM103.062 23.2763L103.332 24.2393L103.344 24.2356L103.062 23.2763ZM102.321 23.4361L102.473 24.4245L102.485 24.4225L102.321 23.4361ZM101.509 23.5511L101.623 24.5447L101.637 24.5429L101.509 23.5511ZM100.876 23.6278L101.005 24.6194L101.007 24.6193L100.876 23.6278ZM99.7766 23.8771L100.089 24.827L100.096 24.8246L99.7766 23.8771ZM98.9585 24.3821L98.2242 23.7032L98.2236 23.7038L98.9585 24.3821ZM99.2333 26.4787L98.6641 27.3009L98.6745 27.308L99.2333 26.4787ZM100.493 27.2301C99.9987 27.2301 99.5795 27.1378 99.2182 26.9708L98.3791 28.7863C99.032 29.088 99.7421 29.2301 100.493 29.2301V27.2301ZM99.2244 26.9737C98.8748 26.8092 98.6155 26.5841 98.4226 26.2947L96.7585 27.4041C97.1622 28.0096 97.7083 28.4706 98.3729 28.7834L99.2244 26.9737ZM98.425 26.2984C98.253 26.0379 98.1431 25.6924 98.1431 25.2131H96.1431C96.1431 26.0121 96.3315 26.7576 96.7561 27.4005L98.425 26.2984ZM98.1431 25.2131C98.1431 24.7742 98.2303 24.5221 98.32 24.3807L96.631 23.3096C96.2775 23.8671 96.1431 24.5269 96.1431 25.2131H98.1431ZM98.3229 24.3761C98.4518 24.1704 98.6191 24.013 98.8393 23.894L97.8887 22.1344C97.3674 22.416 96.9424 22.8126 96.6281 23.3143L98.3229 24.3761ZM98.8393 23.894C99.1211 23.7418 99.4411 23.6234 99.8052 23.5436L99.3773 21.5899C98.8465 21.7062 98.3484 21.886 97.8887 22.1344L98.8393 23.894ZM99.8121 23.5421C100.234 23.4466 100.657 23.371 101.083 23.3154L100.823 21.3323C100.336 21.396 99.852 21.4824 99.3704 21.5914L99.8121 23.5421ZM101.08 23.3157C101.673 23.2395 102.148 23.1831 102.507 23.146L102.301 21.1566C101.919 21.1961 101.426 21.2548 100.825 21.332L101.08 23.3157ZM102.517 23.1449C102.926 23.0984 103.367 23.0107 103.72 22.8072L102.723 21.0734C102.742 21.0629 102.723 21.0767 102.64 21.0982C102.561 21.1187 102.447 21.14 102.291 21.1577L102.517 23.1449ZM103.711 22.8125C104.273 22.4971 104.484 21.9426 104.484 21.429H102.484C102.484 21.4332 102.483 21.3716 102.529 21.2829C102.579 21.1848 102.657 21.1108 102.733 21.0682L103.711 22.8125ZM104.484 21.429V21.3778H102.484V21.429H104.484ZM104.484 21.3778C104.484 20.5621 104.256 19.7906 103.678 19.2049L102.255 20.6104C102.367 20.7236 102.484 20.9322 102.484 21.3778H104.484ZM103.682 19.2093C103.085 18.5977 102.262 18.3835 101.413 18.3835V20.3835C101.953 20.3835 102.165 20.5188 102.25 20.606L103.682 19.2093ZM101.413 18.3835C100.557 18.3835 99.75 18.5701 99.1086 19.0645L100.33 20.6485C100.506 20.5123 100.828 20.3835 101.413 20.3835V18.3835ZM99.1086 19.0645C98.6102 19.4487 98.2006 19.9038 97.9492 20.4454L99.7632 21.2876C99.8441 21.1132 100.01 20.8951 100.33 20.6485L99.1086 19.0645ZM99.1925 19.9247L97.7607 19.4134L97.088 21.2969L98.5198 21.8082L99.1925 19.9247ZM98.3435 20.749C98.546 20.2764 98.7933 19.9598 99.0621 19.7501L97.8321 18.1731C97.2486 18.6283 96.814 19.2406 96.5052 19.9612L98.3435 20.749ZM99.0632 19.7493C99.3905 19.4933 99.7364 19.3224 100.105 19.2262L99.6012 17.2908C98.9561 17.4589 98.3644 17.7567 97.831 18.174L99.0632 19.7493ZM100.111 19.2248C100.544 19.1092 100.96 19.054 101.362 19.054V17.054C100.775 17.054 100.185 17.1351 99.5957 17.2923L100.111 19.2248ZM101.362 19.054C101.599 19.054 101.898 19.0832 102.264 19.1519L102.633 17.1862C102.181 17.1014 101.755 17.054 101.362 17.054V19.054ZM102.276 19.154C102.561 19.2039 102.844 19.3092 103.129 19.4804L104.158 17.7654C103.677 17.4763 103.163 17.279 102.621 17.184L102.276 19.154ZM103.133 19.4829C103.343 19.607 103.548 19.8111 103.733 20.147L105.485 19.1825C105.159 18.5895 104.72 18.0989 104.154 17.7629L103.133 19.4829ZM103.733 20.147C103.878 20.4104 103.993 20.8463 103.993 21.5312H105.993C105.993 20.6566 105.851 19.8481 105.485 19.1825L103.733 20.147ZM103.993 21.5312V28H105.993V21.5312H103.993ZM104.993 27H103.484V29H104.993V27ZM104.484 28V26.6705H102.484V28H104.484ZM103.484 25.6705H103.407V27.6705H103.484V25.6705ZM102.506 26.2377C102.467 26.3185 102.375 26.4576 102.183 26.6536L103.609 28.0552C103.894 27.7654 104.143 27.4486 104.309 27.1032L102.506 26.2377ZM102.183 26.6536C102.056 26.7828 101.856 26.9235 101.548 27.0558L102.339 28.8931C102.824 28.6845 103.259 28.4118 103.609 28.0552L102.183 26.6536ZM101.548 27.0558C101.31 27.1582 100.969 27.2301 100.493 27.2301V29.2301C101.158 29.2301 101.784 29.1315 102.339 28.8931L101.548 27.0558ZM100.723 27.875C101.448 27.875 102.133 27.7323 102.728 27.3911L101.734 25.6558C101.511 25.7833 101.19 25.875 100.723 25.875V27.875ZM102.724 27.3933C103.277 27.08 103.728 26.6536 104.036 26.1065L102.293 25.125C102.184 25.3194 102.012 25.4981 101.738 25.6535L102.724 27.3933ZM104.031 26.1141C104.328 25.5988 104.484 25.038 104.484 24.446H102.484C102.484 24.6722 102.427 24.8912 102.297 25.1175L104.031 26.1141ZM104.484 24.446V23.0653H102.484V24.446H104.484ZM102.716 22.4252C102.766 22.3652 102.812 22.3283 102.838 22.3097C102.865 22.2905 102.882 22.2818 102.883 22.2812C102.885 22.2802 102.878 22.2838 102.86 22.2908C102.841 22.2977 102.815 22.3066 102.78 22.3169L103.344 24.2356C103.487 24.1936 103.637 24.1404 103.778 24.07C103.908 24.0048 104.096 23.8932 104.252 23.7055L102.716 22.4252ZM102.793 22.3133C102.622 22.361 102.412 22.4071 102.156 22.4497L102.485 24.4225C102.792 24.3713 103.076 24.3109 103.332 24.2392L102.793 22.3133ZM102.169 22.4477C101.899 22.4892 101.637 22.5264 101.381 22.5594L101.637 24.5429C101.91 24.5077 102.188 24.4682 102.473 24.4245L102.169 22.4477ZM101.395 22.5577C101.132 22.5878 100.915 22.6141 100.746 22.6364L101.007 24.6193C101.161 24.599 101.366 24.5741 101.623 24.5446L101.395 22.5577ZM100.747 22.6362C100.296 22.695 99.8654 22.7918 99.4569 22.9296L100.096 24.8246C100.37 24.7324 100.672 24.6629 101.005 24.6194L100.747 22.6362ZM99.464 22.9273C98.9909 23.083 98.5648 23.3349 98.2242 23.7032L99.6927 25.061C99.7698 24.9776 99.8891 24.8929 100.089 24.827L99.464 22.9273ZM98.2236 23.7038C97.8059 24.1563 97.6516 24.7257 97.6516 25.2898H99.6516C99.6516 25.1857 99.6656 25.1252 99.6757 25.0954C99.6846 25.0691 99.6917 25.062 99.6933 25.0604L98.2236 23.7038ZM97.6516 25.2898C97.6516 26.0994 97.9732 26.8226 98.6641 27.3009L99.8025 25.6565C99.7178 25.5979 99.6516 25.5284 99.6516 25.2898H97.6516ZM98.6745 27.308C99.2712 27.7101 99.9765 27.875 100.723 27.875V25.875C100.267 25.875 99.9795 25.7757 99.7922 25.6494L98.6745 27.308ZM112.016 18.1818H113.016V17.1818H112.016V18.1818ZM112.016 19.4602V20.4602H113.016V19.4602H112.016ZM106.928 19.4602H105.928V20.4602H106.928V19.4602ZM106.928 18.1818V17.1818H105.928V18.1818H106.928ZM108.411 15.8295V14.8295H107.411V15.8295H108.411ZM109.919 15.8295H110.919V14.8295H109.919V15.8295ZM110.105 26.1463L109.24 26.648L109.246 26.6583L109.252 26.6685L110.105 26.1463ZM110.59 26.5682L110.244 27.5062L110.256 27.5107L110.268 27.5148L110.59 26.5682ZM111.632 26.6449L111.79 27.6323L111.809 27.6293L111.828 27.6255L111.632 26.6449ZM111.888 26.5938L112.863 26.3729L112.648 25.4219L111.692 25.6132L111.888 26.5938ZM112.195 27.9489L112.546 28.8852L113.363 28.5789L113.17 27.728L112.195 27.9489ZM111.767 28.0639L111.562 27.0851L111.551 27.0874L111.54 27.0899L111.767 28.0639ZM109.817 27.853L109.405 28.764L109.408 28.7656L109.817 27.853ZM108.807 27.0156L107.989 27.5916L107.994 27.5977L108.807 27.0156ZM111.016 18.1818V19.4602H113.016V18.1818H111.016ZM112.016 18.4602H106.928V20.4602H112.016V18.4602ZM107.928 19.4602V18.1818H105.928V19.4602H107.928ZM106.928 19.1818H112.016V17.1818H106.928V19.1818ZM108.411 16.8295H109.919V14.8295H108.411V16.8295ZM108.919 15.8295V25.1875H110.919V15.8295H108.919ZM108.919 25.1875C108.919 25.6775 108.984 26.2083 109.24 26.648L110.97 25.6446C110.979 25.6602 110.963 25.6402 110.947 25.557C110.932 25.4755 110.919 25.3552 110.919 25.1875H108.919ZM109.252 26.6685C109.476 27.0345 109.802 27.343 110.244 27.5062L110.937 25.6302C110.945 25.6332 110.953 25.6371 110.961 25.6418C110.969 25.6464 110.975 25.6507 110.978 25.6533C110.984 25.6588 110.975 25.6534 110.957 25.6242L109.252 26.6685ZM110.268 27.5148C110.577 27.62 110.897 27.6705 111.223 27.6705V25.6705C111.106 25.6705 111.004 25.6527 110.913 25.6215L110.268 27.5148ZM111.223 27.6705C111.417 27.6705 111.612 27.6609 111.79 27.6323L111.474 25.6574C111.44 25.6629 111.361 25.6705 111.223 25.6705V27.6705ZM111.828 27.6255C111.935 27.6042 112.02 27.5871 112.084 27.5743L111.692 25.6132C111.628 25.626 111.543 25.643 111.436 25.6643L111.828 27.6255ZM110.913 26.8146L111.219 28.1697L113.17 27.728L112.863 26.3729L110.913 26.8146ZM111.844 27.0125C111.811 27.0248 111.725 27.051 111.562 27.0851L111.971 29.0427C112.175 29.0002 112.374 28.9496 112.546 28.8852L111.844 27.0125ZM111.54 27.0899C111.458 27.109 111.308 27.1278 111.07 27.1278V29.1278C111.394 29.1278 111.709 29.104 111.993 29.0379L111.54 27.0899ZM111.07 27.1278C110.792 27.1278 110.513 27.069 110.226 26.9404L109.408 28.7656C109.939 29.0034 110.495 29.1278 111.07 29.1278V27.1278ZM110.229 26.942C109.991 26.834 109.79 26.6712 109.62 26.4335L107.994 27.5977C108.361 28.11 108.833 28.5055 109.405 28.764L110.229 26.942ZM109.624 26.4397C109.505 26.2706 109.411 26.0123 109.411 25.5966H107.411C107.411 26.3229 107.58 27.0107 107.99 27.5916L109.624 26.4397ZM109.411 25.5966V15.8295H107.411V25.5966H109.411ZM114.285 28H113.285V29H114.285V28ZM114.285 18.1818V17.1818H113.285V18.1818H114.285ZM115.794 18.1818H116.794V17.1818H115.794V18.1818ZM115.794 28V29H116.794V28H115.794ZM114.291 16.245L113.599 16.9667L113.606 16.9737L114.291 16.245ZM114.291 14.8004L113.606 14.0718L113.599 14.0787L114.291 14.8004ZM115.806 14.8004L115.114 15.5221L115.121 15.5291L115.806 14.8004ZM115.806 16.245L115.121 15.5164L115.114 15.5233L115.806 16.245ZM115.285 28V18.1818H113.285V28H115.285ZM114.285 19.1818H115.794V17.1818H114.285V19.1818ZM114.794 18.1818V28H116.794V18.1818H114.794ZM115.794 27H114.285V29H115.794V27ZM115.052 15.5455C115.021 15.5455 115.01 15.5406 115.009 15.5403C115.008 15.5399 114.997 15.5363 114.976 15.5164L113.606 16.9737C114.006 17.3493 114.505 17.5455 115.052 17.5455V15.5455ZM114.984 15.5233C114.974 15.5138 114.97 15.5086 114.97 15.5082C114.97 15.508 114.972 15.5109 114.974 15.5164C114.976 15.522 114.978 15.5269 114.978 15.53C114.979 15.5328 114.978 15.5309 114.978 15.5227H112.978C112.978 16.0851 113.2 16.5839 113.599 16.9667L114.984 15.5233ZM114.978 15.5227C114.978 15.5146 114.979 15.5126 114.978 15.5155C114.978 15.5185 114.976 15.5235 114.974 15.529C114.972 15.5346 114.97 15.5374 114.97 15.5372C114.97 15.5369 114.974 15.5316 114.984 15.5221L113.599 14.0787C113.2 14.4615 112.978 14.9603 112.978 15.5227H114.978ZM114.976 15.5291C114.997 15.5092 115.008 15.5055 115.009 15.5052C115.01 15.5048 115.021 15.5 115.052 15.5V13.5C114.505 13.5 114.006 13.6961 113.606 14.0718L114.976 15.5291ZM115.052 15.5C115.069 15.5 115.079 15.5014 115.084 15.5023C115.089 15.5033 115.091 15.5041 115.091 15.5041C115.091 15.5042 115.092 15.5046 115.095 15.5064C115.098 15.5082 115.104 15.5128 115.114 15.5221L116.499 14.0787C116.1 13.6967 115.599 13.5 115.052 13.5V15.5ZM115.121 15.5291C115.132 15.539 115.136 15.5446 115.136 15.545C115.137 15.5452 115.134 15.5421 115.132 15.5359C115.129 15.5296 115.127 15.5236 115.126 15.5193C115.125 15.5152 115.126 15.5159 115.126 15.5227H117.126C117.126 14.9534 116.896 14.4526 116.491 14.0718L115.121 15.5291ZM115.126 15.5227C115.126 15.5296 115.125 15.5302 115.126 15.5261C115.127 15.5218 115.129 15.5159 115.132 15.5096C115.134 15.5034 115.137 15.5002 115.136 15.5004C115.136 15.5009 115.132 15.5064 115.121 15.5164L116.491 16.9737C116.896 16.5928 117.126 16.092 117.126 15.5227H115.126ZM115.114 15.5233C115.104 15.5327 115.098 15.5372 115.095 15.5391C115.092 15.5409 115.091 15.5413 115.091 15.5413C115.091 15.5414 115.089 15.5422 115.084 15.5431C115.079 15.5441 115.069 15.5455 115.052 15.5455V17.5455C115.599 17.5455 116.1 17.3488 116.499 16.9667L115.114 15.5233ZM120.212 27.5717L119.676 28.4161L119.679 28.4176L120.212 27.5717ZM118.652 25.8011L117.754 26.2403L117.756 26.2443L118.652 25.8011ZM118.652 20.4638L117.755 20.0226L117.753 20.0266L118.652 20.4638ZM120.212 18.6868L119.679 17.8409L119.676 17.8425L120.212 18.6868ZM124.872 18.6868L124.336 19.5311L124.338 19.5327L124.872 18.6868ZM126.431 20.4638L125.532 20.9009L125.534 20.905L126.431 20.4638ZM126.431 25.8011L125.535 25.358L125.533 25.362L126.431 25.8011ZM124.872 27.5717L124.338 26.7259L124.336 26.7274L124.872 27.5717ZM124.207 26.3317L123.585 25.5486L124.207 26.3317ZM125.172 24.9702L126.11 25.3182V25.3182L125.172 24.9702ZM125.172 21.3075L126.111 20.9618L125.172 21.3075ZM124.207 19.9332L124.834 19.1539V19.1539L124.207 19.9332ZM120.883 19.9332L120.257 19.1539L120.883 19.9332ZM119.918 21.3075L118.98 20.9618H118.98L119.918 21.3075ZM119.918 24.9702L118.98 25.3182L119.918 24.9702ZM120.883 26.3317L121.505 25.5486L120.883 26.3317ZM122.545 27.2045C121.824 27.2045 121.236 27.0352 120.745 26.7259L119.679 28.4176C120.526 28.952 121.493 29.2045 122.545 29.2045V27.2045ZM120.748 26.7274C120.249 26.411 119.849 25.965 119.549 25.358L117.756 26.2443C118.206 27.1543 118.845 27.8887 119.676 28.4161L120.748 26.7274ZM119.551 25.362C119.259 24.765 119.096 24.0343 119.096 23.142H117.096C117.096 24.2782 117.304 25.3202 117.754 26.2403L119.551 25.362ZM119.096 23.142C119.096 22.24 119.259 21.5023 119.552 20.9009L117.753 20.0266C117.304 20.9508 117.096 21.9986 117.096 23.142H119.096ZM119.55 20.905C119.85 20.2936 120.251 19.8466 120.748 19.5311L119.676 17.8425C118.844 18.3707 118.204 19.1084 117.755 20.0226L119.55 20.905ZM120.745 19.5327C121.236 19.2233 121.824 19.054 122.545 19.054V17.054C121.493 17.054 120.526 17.3065 119.679 17.8409L120.745 19.5327ZM122.545 19.054C123.266 19.054 123.851 19.2233 124.336 19.5311L125.408 17.8425C124.563 17.3065 123.597 17.054 122.545 17.054V19.054ZM124.338 19.5327C124.838 19.8479 125.237 20.2932 125.532 20.9009L127.331 20.0266C126.885 19.1088 126.243 18.3695 125.405 17.8409L124.338 19.5327ZM125.534 20.905C125.829 21.5053 125.994 22.2416 125.994 23.142H127.994C127.994 21.9971 127.784 20.9478 127.329 20.0226L125.534 20.905ZM125.994 23.142C125.994 24.0327 125.83 24.762 125.535 25.358L127.328 26.2443C127.783 25.3233 127.994 24.2798 127.994 23.142H125.994ZM125.533 25.362C125.238 25.9654 124.84 26.4098 124.338 26.7259L125.405 28.4176C126.242 27.8899 126.883 27.1539 127.33 26.2403L125.533 25.362ZM124.336 26.7274C123.851 27.0352 123.266 27.2045 122.545 27.2045V29.2045C123.597 29.2045 124.563 28.952 125.408 28.4161L124.336 26.7274ZM122.545 27.8494C123.395 27.8494 124.182 27.6285 124.829 27.1148L123.585 25.5486C123.363 25.7252 123.042 25.8494 122.545 25.8494V27.8494ZM124.829 27.1148C125.418 26.6469 125.843 26.0374 126.11 25.3182L124.235 24.6222C124.084 25.0279 123.865 25.3261 123.585 25.5486L124.829 27.1148ZM126.11 25.3182C126.364 24.6343 126.485 23.906 126.485 23.142H124.485C124.485 23.6906 124.398 24.181 124.235 24.6222L126.11 25.3182ZM126.485 23.142C126.485 22.378 126.364 21.6485 126.111 20.9618L124.234 21.6532C124.399 22.1001 124.485 22.5935 124.485 23.142H126.485ZM126.111 20.9618C125.844 20.2395 125.421 19.6263 124.834 19.1539L123.58 20.7126C123.862 20.939 124.082 21.242 124.234 21.6532L126.111 20.9618ZM124.834 19.1539C124.187 18.6337 123.397 18.4091 122.545 18.4091V20.4091C123.039 20.4091 123.358 20.5339 123.58 20.7126L124.834 19.1539ZM122.545 18.4091C121.693 18.4091 120.904 18.6337 120.257 19.1539L121.51 20.7126C121.732 20.5339 122.051 20.4091 122.545 20.4091V18.4091ZM120.257 19.1539C119.669 19.6263 119.246 20.2395 118.98 20.9618L120.856 21.6532C121.008 21.242 121.228 20.939 121.51 20.7126L120.257 19.1539ZM118.98 20.9618C118.727 21.6485 118.605 22.378 118.605 23.142H120.605C120.605 22.5935 120.692 22.1001 120.856 21.6532L118.98 20.9618ZM118.605 23.142C118.605 23.906 118.727 24.6343 118.98 25.3182L120.855 24.6222C120.692 24.181 120.605 23.6906 120.605 23.142H118.605ZM118.98 25.3182C119.247 26.0374 119.672 26.6469 120.261 27.1148L121.505 25.5486C121.225 25.3261 121.006 25.0279 120.855 24.6222L118.98 25.3182ZM120.261 27.1148C120.908 27.6285 121.696 27.8494 122.545 27.8494V25.8494C122.048 25.8494 121.728 25.7252 121.505 25.5486L120.261 27.1148ZM130.805 28V29H131.805V28H130.805ZM129.297 28H128.297V29H129.297V28ZM129.297 18.1818V17.1818H128.297V18.1818H129.297ZM130.754 18.1818H131.754V17.1818H130.754V18.1818ZM130.754 19.7159H129.754V20.7159H130.754V19.7159ZM130.882 19.7159V20.7159H131.522L131.79 20.135L130.882 19.7159ZM131.93 18.5142L132.473 19.3544L132.478 19.3509L131.93 18.5142ZM135.491 18.4631L135.011 19.3404L135.016 19.3435L135.491 18.4631ZM136.654 19.6903L135.761 20.1403L135.762 20.1431L136.654 19.6903ZM137.069 28V29H138.069V28H137.069ZM135.561 28H134.561V29H135.561V28ZM134.96 20.0611L134.225 20.7388L134.228 20.7424L134.96 20.0611ZM132.02 19.7223L131.537 18.8463L131.533 18.8486L132.02 19.7223ZM131.131 20.6364L130.252 20.1595L131.131 20.6364ZM129.805 22.0938V28H131.805V22.0938H129.805ZM130.805 27H129.297V29H130.805V27ZM130.297 28V18.1818H128.297V28H130.297ZM129.297 19.1818H130.754V17.1818H129.297V19.1818ZM129.754 18.1818V19.7159H131.754V18.1818H129.754ZM130.754 20.7159H130.882V18.7159H130.754V20.7159ZM131.79 20.135C131.939 19.8115 132.16 19.5558 132.473 19.3544L131.388 17.674C130.763 18.0777 130.285 18.6232 129.974 19.2969L131.79 20.135ZM132.478 19.3509C132.739 19.18 133.137 19.054 133.746 19.054V17.054C132.871 17.054 132.059 17.2347 131.383 17.6775L132.478 19.3509ZM133.746 19.054C134.271 19.054 134.682 19.1608 135.011 19.3404L135.97 17.5857C135.302 17.2198 134.549 17.054 133.746 17.054V19.054ZM135.016 19.3435C135.319 19.5063 135.568 19.7569 135.761 20.1403L137.547 19.2404C137.186 18.5243 136.66 17.9568 135.965 17.5826L135.016 19.3435ZM135.762 20.1431C135.947 20.5066 136.069 21.0289 136.069 21.7614H138.069C138.069 20.8233 137.915 19.965 137.546 19.2376L135.762 20.1431ZM136.069 21.7614V28H138.069V21.7614H136.069ZM137.069 27H135.561V29H137.069V27ZM136.561 28V21.8636H134.561V28H136.561ZM136.561 21.8636C136.561 20.9206 136.313 20.0471 135.692 19.3798L134.228 20.7424C134.408 20.9359 134.561 21.2641 134.561 21.8636H136.561ZM135.695 19.3834C135.071 18.7058 134.234 18.4091 133.311 18.4091V20.4091C133.786 20.4091 134.048 20.5471 134.225 20.7388L135.695 19.3834ZM133.311 18.4091C132.68 18.4091 132.08 18.5473 131.537 18.8463L132.502 20.5983C132.717 20.4797 132.979 20.4091 133.311 20.4091V18.4091ZM131.533 18.8486C130.982 19.1556 130.554 19.6029 130.252 20.1595L132.01 21.1132C132.143 20.8687 132.307 20.7067 132.506 20.596L131.533 18.8486ZM130.252 20.1595C129.938 20.739 129.805 21.3976 129.805 22.0938H131.805C131.805 21.6479 131.89 21.3349 132.01 21.1132L130.252 20.1595Z" fill="#E87F23" mask="url(#path-1-outside-1_282_1578)"/>
<g clip-path="url(#clip0_282_1578)">
<g opacity="0.96">
<path d="M152.5 17.6002L152.1 19.9002L147.8 19.0002L148.2 16.7002L152.5 17.6002Z" fill="#EE7225"/>
<path d="M151.3 7.40039L152.1 9.50039L148.1 11.8004L147.3 9.70039L151.3 7.40039Z" fill="#EE7225"/>
<path d="M142.4 0L144.2 0.8L142.7 5.7L140.9 4.9L142.4 0Z" fill="#EE7225"/>
<path d="M131.8 0.8L133.6 0L135.1 4.9L133.3 5.7L131.8 0.8Z" fill="#EE7225"/>
<path d="M144.1 21.3998L142.1 19.7998C142.9 18.6998 143.4 17.4998 143.4 16.0998C143.4 12.8998 140.8 10.1998 137.5 10.1998C135.7 10.1998 134 10.9998 132.9 12.3998L131 10.9998C132.6 8.9998 135 7.7998 137.5 7.7998C142.1 7.7998 145.9 11.5998 145.9 16.1998C145.9 18.0998 145.3 19.8998 144.1 21.3998Z" fill="#EE7225"/>
</g>
</g>
<line x1="15" y1="33" x2="138" y2="33" stroke="#E87F23" stroke-width="2"/>
<defs>
<clipPath id="clip0_282_1578">
<rect width="21.5" height="21.4" fill="white" transform="translate(131)"/>
</clipPath>
</defs>
</svg>
