<svg width="64" height="54" viewBox="0 0 64 54" fill="none" xmlns="http://www.w3.org/2000/svg">
<g clip-path="url(#clip0_74_2084)">
<path fill-rule="evenodd" clip-rule="evenodd" d="M45.5485 31.1584C49.1984 30.7761 53.1656 29.1199 56.4981 26.1896C56.9742 25.8074 56.9742 25.2978 56.9742 24.6608C61.4175 20.4564 63.9565 14.5959 63.9565 10.2641C63.9565 3.12951 59.8306 2.49249 52.6895 1.21845C52.5308 0.58143 51.7374 0.199219 50.6266 0.199219C49.0397 0.199219 47.7701 1.09105 47.7701 2.11028C47.7701 3.12951 49.0397 4.14874 50.6266 4.14874C51.1026 4.14874 51.7374 3.89393 51.8961 3.76653H52.2135C58.7198 4.78576 60.624 5.29537 60.624 10.2641C60.624 13.9588 58.2437 19.4372 54.4351 23.2593C53.6417 23.2593 53.1656 23.5141 52.5308 23.8963C50.6266 25.5526 47.6115 27.7185 43.9616 27.7185C39.9943 27.7185 36.9792 25.68 35.0749 23.8963C34.5989 23.5141 33.9641 23.2593 33.1706 23.2593C29.5208 19.4372 26.9817 14.0862 26.9817 10.2641C26.9817 5.29537 28.886 4.78576 35.3923 3.76653C35.8684 4.02133 36.5031 4.14874 37.2966 4.14874C38.5661 4.14874 39.8356 3.12951 39.8356 2.11028C39.8356 1.09105 38.5661 0.199219 37.2966 0.199219C36.1858 0.199219 35.2336 0.58143 34.9162 1.21845C27.9339 2.49249 23.8079 3.12951 23.8079 10.2641C23.8079 14.5959 26.347 20.4564 30.7903 24.9156C30.7903 25.2978 31.1077 25.9348 31.2664 26.4444C34.5989 29.1199 38.2487 30.7761 41.8986 31.2858V40.0766C41.8986 46.0646 35.3923 50.906 27.2991 50.906C19.2059 50.906 12.6996 46.0646 12.6996 40.0766V32.305C17.4603 31.668 20.7928 28.7377 20.7928 25.043C20.7928 21.0935 16.3495 17.781 10.954 17.781C5.71725 17.5261 0.956543 20.8386 0.956543 24.7882C0.956543 28.4829 4.60642 31.4132 9.20843 32.0502V39.8218C9.20843 47.0838 17.3016 53.1992 27.1404 53.1992C36.9792 53.1992 45.0724 47.0838 45.0724 39.8218V31.031H45.5485V31.1584ZM10.7953 29.8843C14.4452 29.8843 17.619 27.591 17.619 24.9156C17.619 22.2401 14.4452 20.0742 10.7953 20.0742C7.46284 20.0742 4.28904 22.1127 4.28904 24.9156C4.28904 27.591 7.46284 29.8843 10.7953 29.8843Z" fill="#FFFDFD"/>
</g>
<defs>
<clipPath id="clip0_74_2084">
<rect width="63" height="53" fill="white" transform="translate(0.956543 0.199219)"/>
</clipPath>
</defs>
</svg>
