<svg width="46" height="46" viewBox="0 0 46 46" fill="none" xmlns="http://www.w3.org/2000/svg">
<g clip-path="url(#clip0_100_959)">
<path d="M14.7676 4.42046C14.5311 4.5908 14.2946 4.77736 14.065 4.97204L3.58929 14.2515C1.27295 16.2875 3.16474e-07 19.4591 2.76138e-07 22.8415C2.2555e-07 27.0838 1.27295 29.8174 3.58929 31.8453L14.065 41.1247C14.2946 41.3275 14.5311 41.506 14.7676 41.6763C20.0333 46.0727 23.6573 46.9406 26.0919 45.0669C28.8604 42.9336 28.9091 39.4943 28.9091 32.3806L28.9091 31.391L40.9152 31.391C43.795 31.391 46 28.9089 46 25.5508L46 20.2216C46 16.8634 43.795 13.5458 40.9152 13.5458L28.9022 13.5458L28.9022 13.3025C28.9022 6.18875 28.8535 3.02529 26.085 0.89198C23.6504 -0.981764 20.0263 0.04028 14.7606 4.42046L14.7676 4.42046Z" fill="#52D8B4"/>
<g style="mix-blend-mode:multiply" opacity="0.16">
<path d="M21.5705 24.375C18.176 28.1874 12.3956 32.8596 6.70557 34.6117L14.065 41.1414C14.2946 41.3442 14.5311 41.5226 14.7676 41.693C20.0333 46.0731 23.6573 46.9411 26.0919 45.0673C28.8604 42.934 28.9091 39.4948 28.9091 32.381L28.9091 31.3914L40.9152 31.3914C43.7949 31.3914 46 28.9093 46 25.5512L46 20.222C46 16.8638 43.7949 13.5462 40.9152 13.5462L28.9021 13.5462L28.9021 13.3029C28.9021 12.8649 28.9021 12.4431 28.9021 12.0294C27.1979 16.6773 24.6103 20.952 21.5636 24.3669L21.5705 24.375Z" fill="#52D8B4"/>
</g>
<g opacity="0.6">
<path d="M19.5882 8.82537C19.1917 8.02234 19.4282 6.99219 20.1238 6.52984L22.635 4.85077C23.3236 4.38841 24.207 4.6642 24.6035 5.47535C24.7357 5.74303 24.7983 6.02693 24.7983 6.31083C24.7983 6.89485 24.5409 7.46265 24.0748 7.77089L21.5637 9.44995C20.8751 9.91231 19.9917 9.63652 19.5952 8.82537L19.5882 8.82537Z" fill="#7AE5C4"/>
<path d="M3.31805 21.8764C2.85896 21.122 3.00503 20.0675 3.6589 19.5322L15.7693 9.47401C16.4162 8.93865 17.3205 9.10899 17.7796 9.87146C17.9604 10.1635 18.0439 10.5042 18.0439 10.8448C18.0439 11.3721 17.8352 11.8912 17.4387 12.2157L5.32834 22.2739C4.68143 22.8092 3.77715 22.6389 3.31805 21.8764Z" fill="#7AE5C4"/>
</g>
</g>
<defs>
<clipPath id="clip0_100_959">
<rect width="46" height="46" fill="white" transform="translate(0 46) rotate(-90)"/>
</clipPath>
</defs>
</svg>
