<svg width="46" height="46" viewBox="0 0 46 46" fill="none" xmlns="http://www.w3.org/2000/svg">
<g clip-path="url(#clip0_100_957)">
<path d="M31.2324 41.5795C31.4689 41.4092 31.7054 41.2226 31.935 41.028L42.4107 31.7485C44.7271 29.7125 46 26.5409 46 23.1585C46 18.9162 44.7271 16.1826 42.4107 14.1547L31.935 4.87526C31.7054 4.67247 31.4689 4.49402 31.2324 4.32368C25.9667 -0.0727245 22.3427 -0.940649 19.9081 0.933095C17.1396 3.0664 17.0909 6.50566 17.0909 13.6194L17.0909 14.609L5.08483 14.609C2.20505 14.609 -1.41437e-06 17.0911 -1.56116e-06 20.4492L-1.79411e-06 25.7784C-1.94089e-06 29.1366 2.20505 32.4542 5.08483 32.4542L17.0978 32.4542L17.0978 32.6975C17.0978 39.8112 17.1465 42.9747 19.915 45.108C22.3496 46.9818 25.9737 45.9597 31.2394 41.5795L31.2324 41.5795Z" fill="#52D8B4"/>
<g style="mix-blend-mode:multiply" opacity="0.16">
<path d="M24.4295 21.625C27.824 17.8126 33.6044 13.1404 39.2944 11.3883L31.935 4.85862C31.7054 4.65584 31.4689 4.47739 31.2324 4.30704C25.9667 -0.0731357 22.3427 -0.94106 19.9081 0.932683C17.1396 3.06599 17.0909 6.50525 17.0909 13.619L17.0909 14.6086L5.08485 14.6086C2.20506 14.6086 1.5416e-05 17.0907 1.52692e-05 20.4488L1.50363e-05 25.778C1.48895e-05 29.1362 2.20506 32.4538 5.08485 32.4538L17.0979 32.4538L17.0979 32.6971C17.0979 33.1351 17.0979 33.5569 17.0979 33.9706C18.8021 29.3227 21.3897 25.048 24.4364 21.6331L24.4295 21.625Z" fill="#52D8B4"/>
</g>
<g opacity="0.6">
<path d="M26.4118 37.1746C26.8083 37.9777 26.5718 39.0078 25.8762 39.4702L23.365 41.1492C22.6764 41.6116 21.793 41.3358 21.3965 40.5247C21.2643 40.257 21.2017 39.9731 21.2017 39.6892C21.2017 39.1051 21.4591 38.5373 21.9252 38.2291L24.4363 36.55C25.1249 36.0877 26.0083 36.3635 26.4048 37.1746L26.4118 37.1746Z" fill="#7AE5C4"/>
<path d="M42.6819 24.1236C43.141 24.878 42.995 25.9325 42.3411 26.4678L30.2307 36.526C29.5838 37.0613 28.6795 36.891 28.2204 36.1285C28.0396 35.8365 27.9561 35.4958 27.9561 35.1552C27.9561 34.6279 28.1648 34.1088 28.5613 33.7843L40.6717 23.7261C41.3186 23.1908 42.2229 23.3611 42.6819 24.1236Z" fill="#7AE5C4"/>
</g>
</g>
<defs>
<clipPath id="clip0_100_957">
<rect width="46" height="46" fill="white" transform="translate(46) rotate(90)"/>
</clipPath>
</defs>
</svg>
