<svg width="81" height="35" viewBox="0 0 81 35" fill="none" xmlns="http://www.w3.org/2000/svg">
<mask id="path-1-outside-1_282_1577" maskUnits="userSpaceOnUse" x="-1" y="14" width="65" height="17" fill="black">
<rect fill="white" x="-1" y="14" width="65" height="17"/>
<path d="M8.74432 19.1818C8.66761 18.5341 8.35653 18.0312 7.81108 17.6733C7.26563 17.3153 6.59659 17.1364 5.80398 17.1364C5.22443 17.1364 4.71733 17.2301 4.28267 17.4176C3.85227 17.6051 3.51563 17.8629 3.27273 18.1911C3.03409 18.5192 2.91477 18.892 2.91477 19.3097C2.91477 19.6591 2.99787 19.9595 3.16406 20.2109C3.33452 20.4581 3.55185 20.6648 3.81605 20.831C4.08026 20.9929 4.35724 21.1271 4.64702 21.2337C4.93679 21.3359 5.20312 21.419 5.44602 21.483L6.77557 21.8409C7.11648 21.9304 7.49574 22.054 7.91335 22.2116C8.33523 22.3693 8.73793 22.5845 9.12145 22.8572C9.50923 23.1257 9.82884 23.4709 10.0803 23.8928C10.3317 24.3146 10.4574 24.8324 10.4574 25.446C10.4574 26.1534 10.272 26.7926 9.90128 27.3636C9.5348 27.9347 8.99787 28.3885 8.29048 28.7251C7.58736 29.0618 6.73295 29.2301 5.72727 29.2301C4.78977 29.2301 3.97798 29.0788 3.2919 28.7763C2.61009 28.4737 2.07315 28.0518 1.68111 27.5107C1.29332 26.9695 1.07386 26.3409 1.02273 25.625H2.65909C2.7017 26.1193 2.8679 26.5284 3.15767 26.8523C3.4517 27.1719 3.82244 27.4105 4.26989 27.5682C4.72159 27.7216 5.20739 27.7983 5.72727 27.7983C6.33239 27.7983 6.87571 27.7003 7.35724 27.5043C7.83878 27.304 8.22017 27.027 8.50142 26.6733C8.78267 26.3153 8.9233 25.8977 8.9233 25.4205C8.9233 24.9858 8.80185 24.6321 8.55895 24.3594C8.31605 24.0866 7.99645 23.8651 7.60014 23.6946C7.20384 23.5241 6.77557 23.375 6.31534 23.2472L4.70455 22.7869C3.68182 22.4929 2.87216 22.0732 2.27557 21.5277C1.67898 20.9822 1.38068 20.2685 1.38068 19.3864C1.38068 18.6534 1.57884 18.0142 1.97514 17.4688C2.37571 16.919 2.91264 16.4929 3.58594 16.1903C4.26349 15.8835 5.01989 15.7301 5.85511 15.7301C6.69886 15.7301 7.44886 15.8814 8.10511 16.1839C8.76136 16.4822 9.28125 16.8913 9.66477 17.4112C10.0526 17.9311 10.2571 18.5213 10.2784 19.1818H8.74432ZM16.9757 29.2045C16.0297 29.2045 15.2136 28.9957 14.5275 28.5781C13.8457 28.1562 13.3194 27.5682 12.9487 26.8139C12.5822 26.0554 12.399 25.1733 12.399 24.1676C12.399 23.1619 12.5822 22.2756 12.9487 21.5085C13.3194 20.7372 13.835 20.1364 14.4956 19.706C15.1603 19.2713 15.9359 19.054 16.8223 19.054C17.3336 19.054 17.8386 19.1392 18.3372 19.3097C18.8358 19.4801 19.2896 19.7571 19.6987 20.1406C20.1078 20.5199 20.4338 21.0227 20.6767 21.6491C20.9196 22.2756 21.041 23.0469 21.041 23.9631V24.6023H13.4728V23.2983H19.5069C19.5069 22.7443 19.3961 22.25 19.1745 21.8153C18.9572 21.3807 18.6461 21.0376 18.2413 20.7862C17.8407 20.5348 17.3677 20.4091 16.8223 20.4091C16.2214 20.4091 15.7015 20.5582 15.2626 20.8565C14.8279 21.1506 14.4934 21.5341 14.2591 22.0071C14.0247 22.4801 13.9075 22.9872 13.9075 23.5284V24.3977C13.9075 25.1392 14.0353 25.7678 14.291 26.2834C14.551 26.7947 14.911 27.1847 15.3713 27.4531C15.8315 27.7173 16.3663 27.8494 16.9757 27.8494C17.372 27.8494 17.7299 27.794 18.0495 27.6832C18.3734 27.5682 18.6525 27.3977 18.8869 27.1719C19.1213 26.9418 19.3024 26.6562 19.4302 26.3153L20.8876 26.7244C20.7342 27.2188 20.4764 27.6534 20.1142 28.0284C19.752 28.3991 19.3045 28.6889 18.7718 28.8977C18.2392 29.1023 17.6404 29.2045 16.9757 29.2045ZM23.3358 29V19.1818H24.7931V20.6648H24.8954C25.0744 20.179 25.3983 19.7848 25.867 19.4822C26.3358 19.1797 26.8642 19.0284 27.4522 19.0284C27.563 19.0284 27.7015 19.0305 27.8677 19.0348C28.0339 19.0391 28.1596 19.0455 28.2449 19.054V20.5881C28.1937 20.5753 28.0765 20.5561 27.8933 20.5305C27.7143 20.5007 27.5247 20.4858 27.3244 20.4858C26.8471 20.4858 26.421 20.5859 26.046 20.7862C25.6752 20.9822 25.3812 21.255 25.1639 21.6044C24.9508 21.9496 24.8443 22.3437 24.8443 22.7869V29H23.3358ZM38.3603 19.1818L34.7296 29H33.1955L29.5648 19.1818H31.2012L33.9114 27.0057H34.0137L36.7239 19.1818H38.3603ZM40.3514 29V19.1818H41.8599V29H40.3514ZM41.1184 17.5455C40.8244 17.5455 40.5708 17.4453 40.3578 17.245C40.149 17.0447 40.0446 16.804 40.0446 16.5227C40.0446 16.2415 40.149 16.0007 40.3578 15.8004C40.5708 15.6001 40.8244 15.5 41.1184 15.5C41.4125 15.5 41.6639 15.6001 41.8727 15.8004C42.0858 16.0007 42.1923 16.2415 42.1923 16.5227C42.1923 16.804 42.0858 17.0447 41.8727 17.245C41.6639 17.4453 41.4125 17.5455 41.1184 17.5455ZM48.6115 29.2045C47.6911 29.2045 46.8984 28.9872 46.2337 28.5526C45.5689 28.1179 45.0575 27.5192 44.6996 26.7564C44.3416 25.9936 44.1626 25.1222 44.1626 24.142C44.1626 23.1449 44.3459 22.2649 44.7124 21.5021C45.0831 20.7351 45.5987 20.1364 46.2592 19.706C46.924 19.2713 47.6996 19.054 48.5859 19.054C49.2763 19.054 49.8984 19.1818 50.4524 19.4375C51.0064 19.6932 51.4602 20.0511 51.8139 20.5114C52.1676 20.9716 52.3871 21.5085 52.4723 22.1222H50.9638C50.8487 21.6747 50.593 21.2784 50.1967 20.9332C49.8047 20.5838 49.2763 20.4091 48.6115 20.4091C48.0234 20.4091 47.5078 20.5625 47.0646 20.8693C46.6257 21.1719 46.2827 21.6001 46.0355 22.1541C45.7926 22.7038 45.6712 23.3494 45.6712 24.0909C45.6712 24.8494 45.7905 25.5099 46.0291 26.0724C46.272 26.6349 46.6129 27.0717 47.0518 27.3828C47.495 27.6939 48.0149 27.8494 48.6115 27.8494C49.0036 27.8494 49.3594 27.7812 49.679 27.6449C49.9986 27.5085 50.2692 27.3125 50.4908 27.0568C50.7124 26.8011 50.87 26.4943 50.9638 26.1364H52.4723C52.3871 26.7159 52.1761 27.2379 51.8395 27.7024C51.5071 28.1626 51.0661 28.5291 50.5163 28.8018C49.9709 29.0703 49.3359 29.2045 48.6115 29.2045ZM58.794 29.2045C57.848 29.2045 57.032 28.9957 56.3459 28.5781C55.6641 28.1562 55.1378 27.5682 54.767 26.8139C54.4006 26.0554 54.2173 25.1733 54.2173 24.1676C54.2173 23.1619 54.4006 22.2756 54.767 21.5085C55.1378 20.7372 55.6534 20.1364 56.3139 19.706C56.9787 19.2713 57.7543 19.054 58.6406 19.054C59.152 19.054 59.657 19.1392 60.1555 19.3097C60.6541 19.4801 61.108 19.7571 61.517 20.1406C61.9261 20.5199 62.2521 21.0227 62.495 21.6491C62.7379 22.2756 62.8594 23.0469 62.8594 23.9631V24.6023H55.2912V23.2983H61.3253C61.3253 22.7443 61.2145 22.25 60.9929 21.8153C60.7756 21.3807 60.4645 21.0376 60.0597 20.7862C59.6591 20.5348 59.1861 20.4091 58.6406 20.4091C58.0398 20.4091 57.5199 20.5582 57.081 20.8565C56.6463 21.1506 56.3118 21.5341 56.0774 22.0071C55.843 22.4801 55.7259 22.9872 55.7259 23.5284V24.3977C55.7259 25.1392 55.8537 25.7678 56.1094 26.2834C56.3693 26.7947 56.7294 27.1847 57.1896 27.4531C57.6499 27.7173 58.1847 27.8494 58.794 27.8494C59.1903 27.8494 59.5483 27.794 59.8679 27.6832C60.1918 27.5682 60.4709 27.3977 60.7053 27.1719C60.9396 26.9418 61.1207 26.6562 61.2486 26.3153L62.706 26.7244C62.5526 27.2188 62.2947 27.6534 61.9325 28.0284C61.5703 28.3991 61.1229 28.6889 60.5902 28.8977C60.0575 29.1023 59.4588 29.2045 58.794 29.2045Z"/>
</mask>
<path d="M8.74432 19.1818C8.66761 18.5341 8.35653 18.0312 7.81108 17.6733C7.26563 17.3153 6.59659 17.1364 5.80398 17.1364C5.22443 17.1364 4.71733 17.2301 4.28267 17.4176C3.85227 17.6051 3.51563 17.8629 3.27273 18.1911C3.03409 18.5192 2.91477 18.892 2.91477 19.3097C2.91477 19.6591 2.99787 19.9595 3.16406 20.2109C3.33452 20.4581 3.55185 20.6648 3.81605 20.831C4.08026 20.9929 4.35724 21.1271 4.64702 21.2337C4.93679 21.3359 5.20312 21.419 5.44602 21.483L6.77557 21.8409C7.11648 21.9304 7.49574 22.054 7.91335 22.2116C8.33523 22.3693 8.73793 22.5845 9.12145 22.8572C9.50923 23.1257 9.82884 23.4709 10.0803 23.8928C10.3317 24.3146 10.4574 24.8324 10.4574 25.446C10.4574 26.1534 10.272 26.7926 9.90128 27.3636C9.5348 27.9347 8.99787 28.3885 8.29048 28.7251C7.58736 29.0618 6.73295 29.2301 5.72727 29.2301C4.78977 29.2301 3.97798 29.0788 3.2919 28.7763C2.61009 28.4737 2.07315 28.0518 1.68111 27.5107C1.29332 26.9695 1.07386 26.3409 1.02273 25.625H2.65909C2.7017 26.1193 2.8679 26.5284 3.15767 26.8523C3.4517 27.1719 3.82244 27.4105 4.26989 27.5682C4.72159 27.7216 5.20739 27.7983 5.72727 27.7983C6.33239 27.7983 6.87571 27.7003 7.35724 27.5043C7.83878 27.304 8.22017 27.027 8.50142 26.6733C8.78267 26.3153 8.9233 25.8977 8.9233 25.4205C8.9233 24.9858 8.80185 24.6321 8.55895 24.3594C8.31605 24.0866 7.99645 23.8651 7.60014 23.6946C7.20384 23.5241 6.77557 23.375 6.31534 23.2472L4.70455 22.7869C3.68182 22.4929 2.87216 22.0732 2.27557 21.5277C1.67898 20.9822 1.38068 20.2685 1.38068 19.3864C1.38068 18.6534 1.57884 18.0142 1.97514 17.4688C2.37571 16.919 2.91264 16.4929 3.58594 16.1903C4.26349 15.8835 5.01989 15.7301 5.85511 15.7301C6.69886 15.7301 7.44886 15.8814 8.10511 16.1839C8.76136 16.4822 9.28125 16.8913 9.66477 17.4112C10.0526 17.9311 10.2571 18.5213 10.2784 19.1818H8.74432ZM16.9757 29.2045C16.0297 29.2045 15.2136 28.9957 14.5275 28.5781C13.8457 28.1562 13.3194 27.5682 12.9487 26.8139C12.5822 26.0554 12.399 25.1733 12.399 24.1676C12.399 23.1619 12.5822 22.2756 12.9487 21.5085C13.3194 20.7372 13.835 20.1364 14.4956 19.706C15.1603 19.2713 15.9359 19.054 16.8223 19.054C17.3336 19.054 17.8386 19.1392 18.3372 19.3097C18.8358 19.4801 19.2896 19.7571 19.6987 20.1406C20.1078 20.5199 20.4338 21.0227 20.6767 21.6491C20.9196 22.2756 21.041 23.0469 21.041 23.9631V24.6023H13.4728V23.2983H19.5069C19.5069 22.7443 19.3961 22.25 19.1745 21.8153C18.9572 21.3807 18.6461 21.0376 18.2413 20.7862C17.8407 20.5348 17.3677 20.4091 16.8223 20.4091C16.2214 20.4091 15.7015 20.5582 15.2626 20.8565C14.8279 21.1506 14.4934 21.5341 14.2591 22.0071C14.0247 22.4801 13.9075 22.9872 13.9075 23.5284V24.3977C13.9075 25.1392 14.0353 25.7678 14.291 26.2834C14.551 26.7947 14.911 27.1847 15.3713 27.4531C15.8315 27.7173 16.3663 27.8494 16.9757 27.8494C17.372 27.8494 17.7299 27.794 18.0495 27.6832C18.3734 27.5682 18.6525 27.3977 18.8869 27.1719C19.1213 26.9418 19.3024 26.6562 19.4302 26.3153L20.8876 26.7244C20.7342 27.2188 20.4764 27.6534 20.1142 28.0284C19.752 28.3991 19.3045 28.6889 18.7718 28.8977C18.2392 29.1023 17.6404 29.2045 16.9757 29.2045ZM23.3358 29V19.1818H24.7931V20.6648H24.8954C25.0744 20.179 25.3983 19.7848 25.867 19.4822C26.3358 19.1797 26.8642 19.0284 27.4522 19.0284C27.563 19.0284 27.7015 19.0305 27.8677 19.0348C28.0339 19.0391 28.1596 19.0455 28.2449 19.054V20.5881C28.1937 20.5753 28.0765 20.5561 27.8933 20.5305C27.7143 20.5007 27.5247 20.4858 27.3244 20.4858C26.8471 20.4858 26.421 20.5859 26.046 20.7862C25.6752 20.9822 25.3812 21.255 25.1639 21.6044C24.9508 21.9496 24.8443 22.3437 24.8443 22.7869V29H23.3358ZM38.3603 19.1818L34.7296 29H33.1955L29.5648 19.1818H31.2012L33.9114 27.0057H34.0137L36.7239 19.1818H38.3603ZM40.3514 29V19.1818H41.8599V29H40.3514ZM41.1184 17.5455C40.8244 17.5455 40.5708 17.4453 40.3578 17.245C40.149 17.0447 40.0446 16.804 40.0446 16.5227C40.0446 16.2415 40.149 16.0007 40.3578 15.8004C40.5708 15.6001 40.8244 15.5 41.1184 15.5C41.4125 15.5 41.6639 15.6001 41.8727 15.8004C42.0858 16.0007 42.1923 16.2415 42.1923 16.5227C42.1923 16.804 42.0858 17.0447 41.8727 17.245C41.6639 17.4453 41.4125 17.5455 41.1184 17.5455ZM48.6115 29.2045C47.6911 29.2045 46.8984 28.9872 46.2337 28.5526C45.5689 28.1179 45.0575 27.5192 44.6996 26.7564C44.3416 25.9936 44.1626 25.1222 44.1626 24.142C44.1626 23.1449 44.3459 22.2649 44.7124 21.5021C45.0831 20.7351 45.5987 20.1364 46.2592 19.706C46.924 19.2713 47.6996 19.054 48.5859 19.054C49.2763 19.054 49.8984 19.1818 50.4524 19.4375C51.0064 19.6932 51.4602 20.0511 51.8139 20.5114C52.1676 20.9716 52.3871 21.5085 52.4723 22.1222H50.9638C50.8487 21.6747 50.593 21.2784 50.1967 20.9332C49.8047 20.5838 49.2763 20.4091 48.6115 20.4091C48.0234 20.4091 47.5078 20.5625 47.0646 20.8693C46.6257 21.1719 46.2827 21.6001 46.0355 22.1541C45.7926 22.7038 45.6712 23.3494 45.6712 24.0909C45.6712 24.8494 45.7905 25.5099 46.0291 26.0724C46.272 26.6349 46.6129 27.0717 47.0518 27.3828C47.495 27.6939 48.0149 27.8494 48.6115 27.8494C49.0036 27.8494 49.3594 27.7812 49.679 27.6449C49.9986 27.5085 50.2692 27.3125 50.4908 27.0568C50.7124 26.8011 50.87 26.4943 50.9638 26.1364H52.4723C52.3871 26.7159 52.1761 27.2379 51.8395 27.7024C51.5071 28.1626 51.0661 28.5291 50.5163 28.8018C49.9709 29.0703 49.3359 29.2045 48.6115 29.2045ZM58.794 29.2045C57.848 29.2045 57.032 28.9957 56.3459 28.5781C55.6641 28.1562 55.1378 27.5682 54.767 26.8139C54.4006 26.0554 54.2173 25.1733 54.2173 24.1676C54.2173 23.1619 54.4006 22.2756 54.767 21.5085C55.1378 20.7372 55.6534 20.1364 56.3139 19.706C56.9787 19.2713 57.7543 19.054 58.6406 19.054C59.152 19.054 59.657 19.1392 60.1555 19.3097C60.6541 19.4801 61.108 19.7571 61.517 20.1406C61.9261 20.5199 62.2521 21.0227 62.495 21.6491C62.7379 22.2756 62.8594 23.0469 62.8594 23.9631V24.6023H55.2912V23.2983H61.3253C61.3253 22.7443 61.2145 22.25 60.9929 21.8153C60.7756 21.3807 60.4645 21.0376 60.0597 20.7862C59.6591 20.5348 59.1861 20.4091 58.6406 20.4091C58.0398 20.4091 57.5199 20.5582 57.081 20.8565C56.6463 21.1506 56.3118 21.5341 56.0774 22.0071C55.843 22.4801 55.7259 22.9872 55.7259 23.5284V24.3977C55.7259 25.1392 55.8537 25.7678 56.1094 26.2834C56.3693 26.7947 56.7294 27.1847 57.1896 27.4531C57.6499 27.7173 58.1847 27.8494 58.794 27.8494C59.1903 27.8494 59.5483 27.794 59.8679 27.6832C60.1918 27.5682 60.4709 27.3977 60.7053 27.1719C60.9396 26.9418 61.1207 26.6562 61.2486 26.3153L62.706 26.7244C62.5526 27.2188 62.2947 27.6534 61.9325 28.0284C61.5703 28.3991 61.1229 28.6889 60.5902 28.8977C60.0575 29.1023 59.4588 29.2045 58.794 29.2045Z" fill="#E87F23"/>
<path d="M8.74432 19.1818L7.75126 19.2994L7.85575 20.1818H8.74432V19.1818ZM7.81108 17.6733L7.26242 18.5093L7.81108 17.6733ZM4.28267 17.4176L3.88658 16.4994L3.88328 16.5008L4.28267 17.4176ZM3.27273 18.1911L2.46896 17.5961L2.46399 17.6029L3.27273 18.1911ZM3.16406 20.2109L2.32984 20.7624L2.33527 20.7706L2.34085 20.7787L3.16406 20.2109ZM3.81605 20.831L3.28356 21.6775L3.29349 21.6836L3.81605 20.831ZM4.64702 21.2337L4.30192 22.1723L4.3142 22.1767L4.64702 21.2337ZM5.44602 21.483L5.706 20.5173L5.70052 20.5159L5.44602 21.483ZM6.77557 21.8409L6.51559 22.8065L6.52167 22.8081L6.77557 21.8409ZM7.91335 22.2116L7.56013 23.1472L7.56327 23.1484L7.91335 22.2116ZM9.12145 22.8572L8.54188 23.6723L8.55224 23.6794L9.12145 22.8572ZM10.0803 23.8928L10.9393 23.3808V23.3808L10.0803 23.8928ZM9.90128 27.3636L9.06254 26.8191L9.05969 26.8235L9.90128 27.3636ZM8.29048 28.7251L7.86076 27.8222L7.85864 27.8232L8.29048 28.7251ZM3.2919 28.7763L2.88629 29.6903L2.8884 29.6913L3.2919 28.7763ZM1.68111 27.5107L0.86823 28.0931L0.87127 28.0973L1.68111 27.5107ZM1.02273 25.625V24.625H-0.051249L0.0252686 25.6962L1.02273 25.625ZM2.65909 25.625L3.6554 25.5391L3.57659 24.625H2.65909V25.625ZM3.15767 26.8523L2.41236 27.5191L2.42174 27.5293L3.15767 26.8523ZM4.26989 27.5682L3.93751 28.5114L3.9483 28.5151L4.26989 27.5682ZM7.35724 27.5043L7.73429 28.4305L7.74128 28.4276L7.35724 27.5043ZM8.50142 26.6733L9.28414 27.2957L9.28774 27.2911L8.50142 26.6733ZM8.55895 24.3594L9.30571 23.6943L8.55895 24.3594ZM7.60014 23.6946L7.20503 24.6132H7.20503L7.60014 23.6946ZM6.31534 23.2472L6.04061 24.2087L6.0477 24.2107L6.31534 23.2472ZM4.70455 22.7869L4.42824 23.748L4.42982 23.7485L4.70455 22.7869ZM2.27557 21.5277L1.6008 22.2657L1.6008 22.2657L2.27557 21.5277ZM1.97514 17.4688L1.16695 16.8798L1.16613 16.881L1.97514 17.4688ZM3.58594 16.1903L3.99582 17.1025L3.99845 17.1013L3.58594 16.1903ZM8.10511 16.1839L7.68642 17.0921L7.69131 17.0943L8.10511 16.1839ZM9.66477 17.4112L8.86004 18.0049L8.8632 18.0091L9.66477 17.4112ZM10.2784 19.1818V20.1818H11.3112L11.2779 19.1496L10.2784 19.1818ZM9.73738 19.0642C9.62592 18.123 9.1521 17.3572 8.35974 16.8372L7.26242 18.5093C7.56097 18.7053 7.7093 18.9451 7.75126 19.2994L9.73738 19.0642ZM8.35974 16.8372C7.61921 16.3513 6.74927 16.1364 5.80398 16.1364V18.1364C6.44392 18.1364 6.91204 18.2794 7.26242 18.5093L8.35974 16.8372ZM5.80398 16.1364C5.11798 16.1364 4.47103 16.2473 3.88658 16.4994L4.67876 18.3358C4.96363 18.2129 5.33089 18.1364 5.80398 18.1364V16.1364ZM3.88328 16.5008C3.31666 16.7477 2.83093 17.1071 2.46899 17.5961L4.07647 18.786C4.20032 18.6187 4.38789 18.4625 4.68206 18.3344L3.88328 16.5008ZM2.46399 17.6029C2.09721 18.1072 1.91477 18.6873 1.91477 19.3097H3.91477C3.91477 19.0968 3.97098 18.9311 4.08146 18.7792L2.46399 17.6029ZM1.91477 19.3097C1.91477 19.8231 2.03911 20.3225 2.32984 20.7624L3.99828 19.6595C3.95663 19.5965 3.91477 19.495 3.91477 19.3097H1.91477ZM2.34085 20.7787C2.59137 21.1419 2.90922 21.4419 3.2836 21.6774L4.3485 19.9845C4.19447 19.8876 4.07766 19.7743 3.98727 19.6432L2.34085 20.7787ZM3.29349 21.6836C3.61367 21.8798 3.95009 22.0429 4.30195 22.1722L4.99208 20.2951C4.76439 20.2114 4.54684 20.106 4.33861 19.9784L3.29349 21.6836ZM4.3142 22.1767C4.62429 22.2861 4.91715 22.3778 5.19153 22.45L5.70052 20.5159C5.4891 20.4602 5.24929 20.3858 4.97984 20.2907L4.3142 22.1767ZM5.18605 22.4486L6.51559 22.8065L7.03554 20.8753L5.706 20.5173L5.18605 22.4486ZM6.52167 22.8081C6.82149 22.8868 7.16694 22.9987 7.56014 23.1472L8.26657 21.2761C7.82454 21.1092 7.41147 20.974 7.02947 20.8737L6.52167 22.8081ZM7.56327 23.1484C7.90011 23.2743 8.22608 23.4476 8.54193 23.6722L9.70097 22.0423C9.24978 21.7214 8.77035 21.4644 8.26344 21.2749L7.56327 23.1484ZM8.55224 23.6794C8.81745 23.863 9.04 24.1006 9.22124 24.4047L10.9393 23.3808C10.6177 22.8412 10.201 22.3884 9.69066 22.0351L8.55224 23.6794ZM9.22124 24.4047C9.35997 24.6375 9.45739 24.9681 9.45739 25.446H11.4574C11.4574 24.6967 11.3034 23.9918 10.9393 23.3808L9.22124 24.4047ZM9.45739 25.446C9.45739 25.9681 9.32378 26.4167 9.06255 26.8191L10.74 27.9082C11.2203 27.1685 11.4574 26.3387 11.4574 25.446H9.45739ZM9.05969 26.8235C8.80876 27.2145 8.42626 27.5531 7.86076 27.8222L8.72021 29.6281C9.56948 29.2239 10.2608 28.6548 10.7429 27.9038L9.05969 26.8235ZM7.85864 27.8232C7.32353 28.0794 6.62528 28.2301 5.72727 28.2301V30.2301C6.84063 30.2301 7.85118 30.0442 8.72233 29.6271L7.85864 27.8232ZM5.72727 28.2301C4.89502 28.2301 4.22676 28.0956 3.6954 27.8613L2.8884 29.6913C3.7292 30.062 4.68453 30.2301 5.72727 30.2301V28.2301ZM3.69751 27.8622C3.15778 27.6227 2.76784 27.3062 2.49095 26.924L0.87127 28.0973C1.37847 28.7975 2.06239 29.3247 2.8863 29.6903L3.69751 27.8622ZM2.49398 26.9282C2.22213 26.5488 2.05923 26.1004 2.02019 25.5538L0.0252686 25.6962C0.088494 26.5814 0.364515 27.3901 0.86824 28.0931L2.49398 26.9282ZM1.02273 26.625H2.65909V24.625H1.02273V26.625ZM1.66279 25.7109C1.72124 26.389 1.9583 27.0115 2.41243 27.5191L3.90291 26.1855C3.7775 26.0453 3.68217 25.8496 3.6554 25.5391L1.66279 25.7109ZM2.42174 27.5293C2.83652 27.9802 3.3504 28.3044 3.93754 28.5113L4.60224 26.625C4.29449 26.5166 4.06689 26.3636 3.8936 26.1752L2.42174 27.5293ZM3.9483 28.5151C4.51246 28.7067 5.10781 28.7983 5.72727 28.7983V26.7983C5.30697 26.7983 4.93072 26.7365 4.59147 26.6213L3.9483 28.5151ZM5.72727 28.7983C6.44075 28.7983 7.11507 28.6825 7.73428 28.4305L6.98021 26.5781C6.63635 26.718 6.22402 26.7983 5.72727 26.7983V28.7983ZM7.74128 28.4276C8.35472 28.1724 8.88234 27.801 9.28413 27.2957L7.71872 26.0509C7.55801 26.253 7.32283 26.4355 6.97321 26.5809L7.74128 28.4276ZM9.28774 27.2911C9.71446 26.748 9.9233 26.1101 9.9233 25.4205H7.9233C7.9233 25.6853 7.85088 25.8827 7.7151 26.0555L9.28774 27.2911ZM9.9233 25.4205C9.9233 24.7897 9.74171 24.1838 9.30571 23.6943L7.81218 25.0245C7.86198 25.0804 7.9233 25.1819 7.9233 25.4205H9.9233ZM9.30571 23.6943C8.94949 23.2943 8.5018 22.9938 7.99525 22.776L7.20503 24.6132C7.4911 24.7363 7.68262 24.879 7.81218 25.0245L9.30571 23.6943ZM7.99525 22.776C7.5534 22.5859 7.08212 22.4223 6.58298 22.2836L6.0477 24.2107C6.46902 24.3277 6.85427 24.4624 7.20503 24.6132L7.99525 22.776ZM6.59006 22.2856L4.97927 21.8254L4.42982 23.7485L6.04062 24.2087L6.59006 22.2856ZM4.98085 21.8259C4.06135 21.5615 3.40293 21.2035 2.95034 20.7897L1.6008 22.2657C2.34138 22.9428 3.30229 23.4243 4.42824 23.748L4.98085 21.8259ZM2.95034 20.7897C2.58117 20.4521 2.38068 20.0163 2.38068 19.3864H0.380682C0.380682 20.5206 0.776783 21.5123 1.6008 22.2657L2.95034 20.7897ZM2.38068 19.3864C2.38068 18.8452 2.52292 18.4161 2.78415 18.0565L1.16613 16.881C0.634752 17.6123 0.380682 18.4616 0.380682 19.3864H2.38068ZM2.78334 18.0577C3.07287 17.6603 3.46722 17.34 3.99582 17.1025L3.17605 15.2782C2.35807 15.6458 1.67856 16.1777 1.16695 16.8798L2.78334 18.0577ZM3.99845 17.1013C4.53132 16.86 5.14461 16.7301 5.85511 16.7301V14.7301C4.89516 14.7301 3.99567 14.9071 3.17343 15.2794L3.99845 17.1013ZM5.85511 16.7301C6.57835 16.7301 7.18168 16.8594 7.68643 17.0921L8.5238 15.2758C7.71605 14.9034 6.81937 14.7301 5.85511 14.7301V16.7301ZM7.69131 17.0943C8.21072 17.3304 8.58903 17.6375 8.86005 18.0049L10.4695 16.8176C9.97347 16.1452 9.31201 15.6341 8.51892 15.2736L7.69131 17.0943ZM8.8632 18.0091C9.12629 18.3618 9.26408 18.7538 9.27893 19.2141L11.2779 19.1496C11.2501 18.2888 10.9788 17.5004 10.4663 16.8133L8.8632 18.0091ZM10.2784 18.1818H8.74432V20.1818H10.2784V18.1818ZM14.5275 28.5781L14.0013 29.4285L14.0076 29.4323L14.5275 28.5781ZM12.9487 26.8139L12.0483 27.249L12.0512 27.255L12.9487 26.8139ZM12.9487 21.5085L12.0474 21.0753L12.0464 21.0774L12.9487 21.5085ZM14.4956 19.706L15.0415 20.5438L15.0428 20.5429L14.4956 19.706ZM18.3372 19.3097L18.6607 18.3634V18.3634L18.3372 19.3097ZM19.6987 20.1406L19.0147 20.8702L19.0188 20.874L19.6987 20.1406ZM20.6767 21.6491L21.609 21.2876V21.2876L20.6767 21.6491ZM21.041 24.6023V25.6023H22.041V24.6023H21.041ZM13.4728 24.6023H12.4728V25.6023H13.4728V24.6023ZM13.4728 23.2983V22.2983H12.4728V23.2983H13.4728ZM19.5069 23.2983V24.2983H20.5069V23.2983H19.5069ZM19.1745 21.8153L18.2801 22.2626L18.2836 22.2695L19.1745 21.8153ZM18.2413 20.7862L17.7097 21.6332L17.7137 21.6357L18.2413 20.7862ZM15.2626 20.8565L15.8229 21.6848L15.8247 21.6836L15.2626 20.8565ZM14.2591 22.0071L13.363 21.5631L14.2591 22.0071ZM14.291 26.2834L13.3951 26.7277L13.3996 26.7365L14.291 26.2834ZM15.3713 27.4531L14.8674 28.3169L14.8734 28.3204L15.3713 27.4531ZM18.0495 27.6832L18.3771 28.6281L18.3843 28.6255L18.0495 27.6832ZM18.8869 27.1719L19.5808 27.892L19.5875 27.8854L18.8869 27.1719ZM19.4302 26.3153L19.7005 25.3526L18.8163 25.1044L18.4939 25.9642L19.4302 26.3153ZM20.8876 26.7244L21.8427 27.0208L22.1473 26.0394L21.1579 25.7616L20.8876 26.7244ZM20.1142 28.0284L20.8295 28.7273L20.8334 28.7232L20.1142 28.0284ZM18.7718 28.8977L19.1303 29.8313L19.1368 29.8288L18.7718 28.8977ZM16.9757 28.2045C16.1801 28.2045 15.5509 28.0304 15.0475 27.7239L14.0076 29.4323C14.8763 29.9611 15.8792 30.2045 16.9757 30.2045V28.2045ZM15.0537 27.7277C14.5395 27.4096 14.1382 26.967 13.8461 26.3728L12.0512 27.255C12.5006 28.1694 13.1519 28.9029 14.0013 29.4285L15.0537 27.7277ZM13.8491 26.3789C13.5597 25.7798 13.399 25.0515 13.399 24.1676H11.399C11.399 25.2951 11.6048 26.331 12.0483 27.249L13.8491 26.3789ZM13.399 24.1676C13.399 23.2841 13.5596 22.5496 13.851 21.9396L12.0464 21.0774C11.6049 22.0015 11.399 23.0398 11.399 24.1676H13.399ZM13.85 21.9417C14.1485 21.3207 14.5472 20.8659 15.0415 20.5438L13.9496 18.8681C13.1229 19.4069 12.4903 20.1538 12.0474 21.0753L13.85 21.9417ZM15.0428 20.5429C15.5264 20.2267 16.107 20.054 16.8223 20.054V18.054C15.7649 18.054 14.7943 18.3159 13.9483 18.869L15.0428 20.5429ZM16.8223 20.054C17.2202 20.054 17.616 20.1199 18.0137 20.2559L18.6607 18.3634C18.0612 18.1585 17.447 18.054 16.8223 18.054V20.054ZM18.0137 20.2559C18.3696 20.3776 18.7023 20.5773 19.0147 20.8702L20.3826 19.4111C19.8769 18.9369 19.3019 18.5827 18.6607 18.3634L18.0137 20.2559ZM19.0188 20.874C19.2962 21.1311 19.5452 21.4972 19.7443 22.0107L21.609 21.2876C21.3223 20.5482 20.9194 19.9087 20.3786 19.4073L19.0188 20.874ZM19.7443 22.0107C19.9295 22.4882 20.041 23.1285 20.041 23.9631H22.041C22.041 22.9653 21.9097 22.0629 21.609 21.2876L19.7443 22.0107ZM20.041 23.9631V24.6023H22.041V23.9631H20.041ZM21.041 23.6023H13.4728V25.6023H21.041V23.6023ZM14.4728 24.6023V23.2983H12.4728V24.6023H14.4728ZM13.4728 24.2983H19.5069V22.2983H13.4728V24.2983ZM20.5069 23.2983C20.5069 22.608 20.3679 21.9545 20.0654 21.3612L18.2836 22.2695C18.4243 22.5455 18.5069 22.8806 18.5069 23.2983H20.5069ZM20.069 21.3681C19.7706 20.7715 19.3341 20.2877 18.7689 19.9367L17.7137 21.6357C17.9582 21.7875 18.1438 21.9899 18.2801 22.2626L20.069 21.3681ZM18.7729 19.9392C18.1898 19.5733 17.5263 19.4091 16.8223 19.4091V21.4091C17.2091 21.4091 17.4916 21.4963 17.7097 21.6332L18.7729 19.9392ZM16.8223 19.4091C16.0484 19.4091 15.3266 19.604 14.7005 20.0295L15.8247 21.6836C16.0765 21.5125 16.3944 21.4091 16.8223 21.4091V19.4091ZM14.7023 20.0283C14.1235 20.4198 13.6737 20.9361 13.363 21.5631L15.1551 22.4511C15.3132 22.1321 15.5324 21.8813 15.8229 21.6848L14.7023 20.0283ZM13.363 21.5631C13.0585 22.1777 12.9075 22.8372 12.9075 23.5284H14.9075C14.9075 23.1372 14.9909 22.7825 15.1551 22.4511L13.363 21.5631ZM12.9075 23.5284V24.3977H14.9075V23.5284H12.9075ZM12.9075 24.3977C12.9075 25.2504 13.0541 26.04 13.3951 26.7276L15.1869 25.8391C15.0165 25.4955 14.9075 25.028 14.9075 24.3977H12.9075ZM13.3996 26.7365C13.7396 27.4055 14.2284 27.9442 14.8674 28.3169L15.8751 26.5893C15.5937 26.4252 15.3623 26.184 15.1825 25.8302L13.3996 26.7365ZM14.8734 28.3204C15.5064 28.6838 16.2179 28.8494 16.9757 28.8494V26.8494C16.5147 26.8494 16.1566 26.7509 15.8691 26.5859L14.8734 28.3204ZM16.9757 28.8494C17.4648 28.8494 17.9358 28.781 18.3771 28.6281L17.722 26.7384C17.5241 26.807 17.2792 26.8494 16.9757 26.8494V28.8494ZM18.3843 28.6255C18.8347 28.4655 19.2382 28.2221 19.5808 27.892L18.193 26.4518C18.0668 26.5734 17.9121 26.6708 17.7148 26.7409L18.3843 28.6255ZM19.5875 27.8854C19.9367 27.5425 20.1931 27.129 20.3666 26.6665L18.4939 25.9642C18.4117 26.1835 18.3058 26.341 18.1863 26.4583L19.5875 27.8854ZM19.16 27.2781L20.6174 27.6872L21.1579 25.7616L19.7005 25.3526L19.16 27.2781ZM19.9325 26.428C19.8258 26.7718 19.6493 27.0703 19.3949 27.3337L20.8334 28.7232C21.3035 28.2365 21.6425 27.6657 21.8427 27.0208L19.9325 26.428ZM19.3989 27.3296C19.1455 27.5889 18.8214 27.8042 18.4069 27.9667L19.1368 29.8288C19.7876 29.5736 20.3584 29.2094 20.8295 28.7272L19.3989 27.3296ZM18.4134 27.9642C18.0123 28.1182 17.5378 28.2045 16.9757 28.2045V30.2045C17.7431 30.2045 18.466 30.0864 19.1303 29.8313L18.4134 27.9642ZM23.3358 29H22.3358V30H23.3358V29ZM23.3358 19.1818V18.1818H22.3358V19.1818H23.3358ZM24.7931 19.1818H25.7931V18.1818H24.7931V19.1818ZM24.7931 20.6648H23.7931V21.6648H24.7931V20.6648ZM24.8954 20.6648V21.6648H25.5927L25.8338 21.0105L24.8954 20.6648ZM25.867 19.4822L25.3247 18.6421V18.6421L25.867 19.4822ZM28.2449 19.054H29.2449V18.149L28.3444 18.0589L28.2449 19.054ZM28.2449 20.5881L28.0023 21.5582L29.2449 21.8688V20.5881H28.2449ZM27.8933 20.5305L27.7289 21.5169L27.742 21.5191L27.7551 21.5209L27.8933 20.5305ZM26.046 20.7862L26.5134 21.6703L26.5171 21.6683L26.046 20.7862ZM25.1639 21.6044L24.3147 21.0763L24.3129 21.0791L25.1639 21.6044ZM24.8443 29V30H25.8443V29H24.8443ZM24.3358 29V19.1818H22.3358V29H24.3358ZM23.3358 20.1818H24.7931V18.1818H23.3358V20.1818ZM23.7931 19.1818V20.6648H25.7931V19.1818H23.7931ZM24.7931 21.6648H24.8954V19.6648H24.7931V21.6648ZM25.8338 21.0105C25.9319 20.7442 26.1077 20.5171 26.4093 20.3224L25.3247 18.6421C24.6889 19.0525 24.2169 19.6137 23.9571 20.3191L25.8338 21.0105ZM26.4093 20.3224C26.7075 20.13 27.0456 20.0284 27.4522 20.0284V18.0284C26.6827 18.0284 25.964 18.2294 25.3247 18.6421L26.4093 20.3224ZM27.4522 20.0284C27.5514 20.0284 27.6807 20.0303 27.8421 20.0345L27.8934 18.0351C27.7224 18.0307 27.5747 18.0284 27.4522 18.0284V20.0284ZM27.8421 20.0345C28.0019 20.0386 28.0979 20.0443 28.1453 20.049L28.3444 18.0589C28.2214 18.0466 28.0659 18.0396 27.8934 18.0351L27.8421 20.0345ZM27.2449 19.054V20.5881H29.2449V19.054H27.2449ZM28.4874 19.6179C28.3742 19.5896 28.1998 19.5636 28.0315 19.5401L27.7551 21.5209C27.8427 21.5332 27.9093 21.5431 27.9571 21.551C27.981 21.5549 27.9973 21.5578 28.0076 21.5597C28.0199 21.5621 28.0159 21.5616 28.0023 21.5582L28.4874 19.6179ZM28.0577 19.5441C27.8191 19.5044 27.5742 19.4858 27.3244 19.4858V21.4858C27.4752 21.4858 27.6095 21.497 27.7289 21.5169L28.0577 19.5441ZM27.3244 19.4858C26.7032 19.4858 26.1119 19.6173 25.5749 19.9041L26.5171 21.6683C26.7301 21.5545 26.991 21.4858 27.3244 21.4858V19.4858ZM25.5786 19.9022C25.0545 20.1793 24.6274 20.5735 24.3147 21.0763L26.013 22.1325C26.135 21.9364 26.296 21.7852 26.5134 21.6703L25.5786 19.9022ZM24.3129 21.0791C23.9935 21.5967 23.8443 22.176 23.8443 22.7869H25.8443C25.8443 22.5115 25.9081 22.3025 26.0148 22.1297L24.3129 21.0791ZM23.8443 22.7869V29H25.8443V22.7869H23.8443ZM24.8443 28H23.3358V30H24.8443V28ZM38.3603 19.1818L39.2982 19.5287L39.7962 18.1818H38.3603V19.1818ZM34.7296 29V30H35.426L35.6675 29.3468L34.7296 29ZM33.1955 29L32.2576 29.3468L32.4991 30H33.1955V29ZM29.5648 19.1818V18.1818H28.1288L28.6269 19.5287L29.5648 19.1818ZM31.2012 19.1818L32.1461 18.8545L31.9131 18.1818H31.2012V19.1818ZM33.9114 27.0057L32.9665 27.333L33.1995 28.0057H33.9114V27.0057ZM34.0137 27.0057V28.0057H34.7256L34.9586 27.333L34.0137 27.0057ZM36.7239 19.1818V18.1818H36.012L35.779 18.8545L36.7239 19.1818ZM37.4223 18.835L33.7917 28.6532L35.6675 29.3468L39.2982 19.5287L37.4223 18.835ZM34.7296 28H33.1955V30H34.7296V28ZM34.1334 28.6532L30.5027 18.835L28.6269 19.5287L32.2576 29.3468L34.1334 28.6532ZM29.5648 20.1818H31.2012V18.1818H29.5648V20.1818ZM30.2563 19.5091L32.9665 27.333L34.8563 26.6784L32.1461 18.8545L30.2563 19.5091ZM33.9114 28.0057H34.0137V26.0057H33.9114V28.0057ZM34.9586 27.333L37.6688 19.5091L35.779 18.8545L33.0688 26.6784L34.9586 27.333ZM36.7239 20.1818H38.3603V18.1818H36.7239V20.1818ZM40.3514 29H39.3514V30H40.3514V29ZM40.3514 19.1818V18.1818H39.3514V19.1818H40.3514ZM41.8599 19.1818H42.8599V18.1818H41.8599V19.1818ZM41.8599 29V30H42.8599V29H41.8599ZM40.3578 17.245L39.6655 17.9667L39.6729 17.9737L40.3578 17.245ZM40.3578 15.8004L39.6728 15.0718L39.6656 15.0787L40.3578 15.8004ZM41.8727 15.8004L41.1804 16.5221L41.1878 16.5291L41.8727 15.8004ZM41.8727 17.245L41.1877 16.5164L41.1805 16.5233L41.8727 17.245ZM41.3514 29V19.1818H39.3514V29H41.3514ZM40.3514 20.1818H41.8599V18.1818H40.3514V20.1818ZM40.8599 19.1818V29H42.8599V19.1818H40.8599ZM41.8599 28H40.3514V30H41.8599V28ZM41.1184 16.5455C41.0872 16.5455 41.076 16.5406 41.0751 16.5403C41.0743 16.5399 41.0638 16.5363 41.0427 16.5164L39.6729 17.9737C40.0725 18.3493 40.5714 18.5455 41.1184 18.5455V16.5455ZM41.05 16.5233C41.0401 16.5138 41.0363 16.5086 41.0361 16.5082C41.0359 16.508 41.0379 16.5109 41.0403 16.5164C41.0427 16.522 41.0441 16.5269 41.0447 16.53C41.0453 16.5328 41.0446 16.5309 41.0446 16.5227H39.0446C39.0446 17.0851 39.2665 17.5839 39.6656 17.9667L41.05 16.5233ZM41.0446 16.5227C41.0446 16.5146 41.0453 16.5126 41.0447 16.5155C41.0441 16.5185 41.0427 16.5235 41.0403 16.529C41.0379 16.5346 41.0359 16.5374 41.0361 16.5372C41.0363 16.5369 41.0401 16.5316 41.05 16.5221L39.6656 15.0787C39.2665 15.4615 39.0446 15.9603 39.0446 16.5227H41.0446ZM41.0427 16.5291C41.0638 16.5092 41.0743 16.5055 41.0751 16.5052C41.076 16.5048 41.0872 16.5 41.1184 16.5V14.5C40.5714 14.5 40.0725 14.6961 39.6729 15.0718L41.0427 16.5291ZM41.1184 16.5C41.135 16.5 41.1452 16.5014 41.1504 16.5023C41.1554 16.5033 41.1573 16.5041 41.1575 16.5041C41.1576 16.5042 41.1588 16.5046 41.1615 16.5064C41.1643 16.5082 41.1707 16.5128 41.1805 16.5221L42.5649 15.0787C42.1666 14.6967 41.6658 14.5 41.1184 14.5V16.5ZM41.1878 16.5291C41.1984 16.539 41.2025 16.5446 41.2028 16.545C41.2029 16.5452 41.2007 16.5421 41.1979 16.5359C41.1951 16.5296 41.1934 16.5236 41.1925 16.5193C41.1917 16.5152 41.1923 16.5159 41.1923 16.5227H43.1923C43.1923 15.9534 42.9627 15.4526 42.5576 15.0718L41.1878 16.5291ZM41.1923 16.5227C41.1923 16.5296 41.1917 16.5302 41.1925 16.5261C41.1934 16.5218 41.1951 16.5159 41.1979 16.5096C41.2007 16.5034 41.2029 16.5002 41.2028 16.5004C41.2025 16.5009 41.1984 16.5064 41.1878 16.5164L42.5576 17.9737C42.9627 17.5928 43.1923 17.092 43.1923 16.5227H41.1923ZM41.1805 16.5233C41.1707 16.5327 41.1643 16.5372 41.1615 16.5391C41.1588 16.5409 41.1576 16.5413 41.1575 16.5413C41.1573 16.5414 41.1554 16.5422 41.1504 16.5431C41.1452 16.5441 41.135 16.5455 41.1184 16.5455V18.5455C41.6658 18.5455 42.1666 18.3488 42.5649 17.9667L41.1805 16.5233ZM46.2337 28.5526L45.6864 29.3895L46.2337 28.5526ZM44.7124 21.5021L43.812 21.067L43.811 21.0691L44.7124 21.5021ZM46.2592 19.706L46.8052 20.5438L46.8065 20.5429L46.2592 19.706ZM51.8139 20.5114L52.6068 19.902V19.902L51.8139 20.5114ZM52.4723 22.1222V23.1222H53.6208L53.4628 21.9846L52.4723 22.1222ZM50.9638 22.1222L49.9953 22.3712L50.1884 23.1222H50.9638V22.1222ZM50.1967 20.9332L49.5313 21.6798L49.54 21.6873L50.1967 20.9332ZM47.0646 20.8693L47.6322 21.6927L47.6338 21.6915L47.0646 20.8693ZM46.0355 22.1541L45.1223 21.7467L45.1208 21.75L46.0355 22.1541ZM46.0291 26.0724L45.1085 26.463L45.1111 26.4689L46.0291 26.0724ZM47.0518 27.3828L46.4736 28.1987L46.4773 28.2013L47.0518 27.3828ZM49.679 27.6449L49.2865 26.7251L49.679 27.6449ZM50.4908 27.0568L51.2465 27.7117L50.4908 27.0568ZM50.9638 26.1364V25.1364H50.192L49.9964 25.883L50.9638 26.1364ZM52.4723 26.1364L53.4617 26.2819L53.6301 25.1364H52.4723V26.1364ZM51.8395 27.7024L51.0298 27.1156L51.0288 27.1169L51.8395 27.7024ZM50.5163 28.8018L50.9579 29.6991L50.9608 29.6977L50.5163 28.8018ZM48.6115 28.2045C47.8538 28.2045 47.2584 28.0278 46.7809 27.7156L45.6864 29.3895C46.5385 29.9466 47.5283 30.2045 48.6115 30.2045V28.2045ZM46.7809 27.7156C46.281 27.3887 45.889 26.9371 45.6049 26.3316L43.7943 27.1812C44.2261 28.1013 44.8568 28.8471 45.6864 29.3895L46.7809 27.7156ZM45.6049 26.3316C45.3187 25.7217 45.1626 24.9992 45.1626 24.142H43.1626C43.1626 25.2452 43.3646 26.2655 43.7943 27.1812L45.6049 26.3316ZM45.1626 24.142C45.1626 23.2683 45.3228 22.5408 45.6137 21.9352L43.811 21.0691C43.369 21.989 43.1626 23.0215 43.1626 24.142H45.1626ZM45.6127 21.9373C45.9108 21.3205 46.3095 20.8668 46.8052 20.5438L45.7133 18.8681C44.8879 19.406 44.2554 20.1496 43.812 21.067L45.6127 21.9373ZM46.8065 20.5429C47.2901 20.2267 47.8706 20.054 48.5859 20.054V18.054C47.5285 18.054 46.5579 18.3159 45.712 18.869L46.8065 20.5429ZM48.5859 20.054C49.1506 20.054 49.627 20.1579 50.0334 20.3455L50.8715 18.5295C50.1698 18.2057 49.4019 18.054 48.5859 18.054V20.054ZM50.0334 20.3455C50.4482 20.5369 50.771 20.7954 51.021 21.1207L52.6068 19.902C52.1494 19.3069 51.5646 18.8495 50.8715 18.5295L50.0334 20.3455ZM51.021 21.1207C51.2619 21.4342 51.4188 21.8059 51.4818 22.2597L53.4628 21.9846C53.3554 21.2112 53.0733 20.509 52.6068 19.902L51.021 21.1207ZM52.4723 21.1222H50.9638V23.1222H52.4723V21.1222ZM51.9323 21.8731C51.7601 21.2035 51.3807 20.6383 50.8535 20.1792L49.54 21.6873C49.8054 21.9185 49.9374 22.1459 49.9953 22.3712L51.9323 21.8731ZM50.8621 20.1867C50.2421 19.6341 49.4542 19.4091 48.6115 19.4091V21.4091C49.0983 21.4091 49.3673 21.5335 49.5314 21.6798L50.8621 20.1867ZM48.6115 19.4091C47.8394 19.4091 47.1211 19.614 46.4954 20.0471L47.6338 21.6915C47.8945 21.511 48.2074 21.4091 48.6115 21.4091V19.4091ZM46.4971 20.046C45.8869 20.4666 45.4337 21.0486 45.1223 21.7467L46.9487 22.5616C47.1316 22.1517 47.3645 21.8772 47.6322 21.6927L46.4971 20.046ZM45.1208 21.75C44.8101 22.4531 44.6712 23.2419 44.6712 24.0909H46.6712C46.6712 23.457 46.7751 22.9546 46.9502 22.5583L45.1208 21.75ZM44.6712 24.0909C44.6712 24.9522 44.8065 25.751 45.1085 26.463L46.9497 25.6819C46.7745 25.2689 46.6712 24.7466 46.6712 24.0909H44.6712ZM45.1111 26.4689C45.4163 27.1758 45.8652 27.7675 46.4736 28.1987L47.6301 26.5669C47.3606 26.376 47.1277 26.0941 46.9472 25.676L45.1111 26.4689ZM46.4773 28.2013C47.1059 28.6425 47.8312 28.8494 48.6115 28.8494V26.8494C48.1986 26.8494 47.8842 26.7453 47.6264 26.5643L46.4773 28.2013ZM48.6115 28.8494C49.1212 28.8494 49.6128 28.7603 50.0714 28.5647L49.2865 26.7251C49.106 26.8022 48.8859 26.8494 48.6115 26.8494V28.8494ZM50.0714 28.5647C50.5267 28.3704 50.9227 28.0853 51.2465 27.7117L49.7351 26.4019C49.6156 26.5397 49.4704 26.6467 49.2865 26.7251L50.0714 28.5647ZM51.2465 27.7117C51.5776 27.3297 51.8023 26.8819 51.9312 26.3897L49.9964 25.883C49.9378 26.1068 49.8471 26.2726 49.7351 26.4019L51.2465 27.7117ZM50.9638 27.1364H52.4723V25.1364H50.9638V27.1364ZM51.4829 25.9909C51.4206 26.4145 51.2698 26.7844 51.0298 27.1156L52.6492 28.2893C53.0825 27.6914 53.3535 27.0173 53.4617 26.2819L51.4829 25.9909ZM51.0288 27.1169C50.7991 27.435 50.4882 27.6995 50.0719 27.906L50.9608 29.6977C51.6439 29.3587 52.2151 28.8903 52.6502 28.2879L51.0288 27.1169ZM50.0747 27.9046C49.6906 28.0937 49.2119 28.2045 48.6115 28.2045V30.2045C49.46 30.2045 50.2512 30.0469 50.9579 29.6991L50.0747 27.9046ZM56.3459 28.5781L55.8197 29.4285L55.8259 29.4323L56.3459 28.5781ZM54.767 26.8139L53.8666 27.249L53.8696 27.255L54.767 26.8139ZM54.767 21.5085L53.8658 21.0753L53.8647 21.0774L54.767 21.5085ZM56.3139 19.706L56.8599 20.5438L56.8612 20.5429L56.3139 19.706ZM60.1555 19.3097L60.479 18.3634L60.479 18.3634L60.1555 19.3097ZM61.517 20.1406L60.8331 20.8702L60.8372 20.874L61.517 20.1406ZM62.495 21.6491L63.4274 21.2876V21.2876L62.495 21.6491ZM62.8594 24.6023V25.6023H63.8594V24.6023H62.8594ZM55.2912 24.6023H54.2912V25.6023H55.2912V24.6023ZM55.2912 23.2983V22.2983H54.2912V23.2983H55.2912ZM61.3253 23.2983V24.2983H62.3253V23.2983H61.3253ZM60.9929 21.8153L60.0984 22.2626L60.102 22.2695L60.9929 21.8153ZM60.0597 20.7862L59.528 21.6332L59.5321 21.6357L60.0597 20.7862ZM57.081 20.8565L57.6413 21.6848L57.6431 21.6836L57.081 20.8565ZM56.0774 22.0071L55.1814 21.5631L56.0774 22.0071ZM56.1094 26.2834L55.2134 26.7277L55.2179 26.7365L56.1094 26.2834ZM57.1896 27.4531L56.6857 28.3169L56.6918 28.3204L57.1896 27.4531ZM59.8679 27.6832L60.1954 28.6281L60.2027 28.6255L59.8679 27.6832ZM60.7053 27.1719L61.3992 27.892L61.4058 27.8854L60.7053 27.1719ZM61.2486 26.3153L61.5188 25.3526L60.6347 25.1044L60.3123 25.9642L61.2486 26.3153ZM62.706 26.7244L63.661 27.0208L63.9656 26.0394L62.9762 25.7616L62.706 26.7244ZM61.9325 28.0284L62.6478 28.7273L62.6518 28.7232L61.9325 28.0284ZM60.5902 28.8977L60.9487 29.8313L60.9552 29.8288L60.5902 28.8977ZM58.794 28.2045C57.9984 28.2045 57.3693 28.0304 56.8658 27.7239L55.8259 29.4323C56.6947 29.9611 57.6976 30.2045 58.794 30.2045V28.2045ZM56.8721 27.7277C56.3579 27.4096 55.9566 26.967 55.6645 26.3728L53.8696 27.255C54.319 28.1694 54.9703 28.9029 55.8197 29.4285L56.8721 27.7277ZM55.6675 26.3789C55.378 25.7798 55.2173 25.0515 55.2173 24.1676H53.2173C53.2173 25.2951 53.4231 26.331 53.8666 27.249L55.6675 26.3789ZM55.2173 24.1676C55.2173 23.2841 55.3779 22.5496 55.6693 21.9396L53.8647 21.0774C53.4232 22.0015 53.2173 23.0398 53.2173 24.1676H55.2173ZM55.6683 21.9417C55.9669 21.3207 56.3656 20.8659 56.8599 20.5438L55.768 18.8681C54.9412 19.4069 54.3087 20.1538 53.8658 21.0753L55.6683 21.9417ZM56.8612 20.5429C57.3448 20.2267 57.9253 20.054 58.6406 20.054V18.054C57.5832 18.054 56.6126 18.3159 55.7667 18.869L56.8612 20.5429ZM58.6406 20.054C59.0386 20.054 59.4344 20.1199 59.832 20.2559L60.479 18.3634C59.8795 18.1585 59.2654 18.054 58.6406 18.054V20.054ZM59.832 20.2559C60.188 20.3776 60.5207 20.5773 60.8331 20.8702L62.201 19.4111C61.6952 18.9369 61.1203 18.5827 60.479 18.3634L59.832 20.2559ZM60.8372 20.874C61.1145 21.1311 61.3636 21.4972 61.5627 22.0107L63.4274 21.2876C63.1407 20.5482 62.7377 19.9087 62.1969 19.4073L60.8372 20.874ZM61.5627 22.0107C61.7478 22.4882 61.8594 23.1285 61.8594 23.9631H63.8594C63.8594 22.9653 63.728 22.0629 63.4274 21.2876L61.5627 22.0107ZM61.8594 23.9631V24.6023H63.8594V23.9631H61.8594ZM62.8594 23.6023H55.2912V25.6023H62.8594V23.6023ZM56.2912 24.6023V23.2983H54.2912V24.6023H56.2912ZM55.2912 24.2983H61.3253V22.2983H55.2912V24.2983ZM62.3253 23.2983C62.3253 22.608 62.1863 21.9545 61.8838 21.3612L60.102 22.2695C60.2427 22.5455 60.3253 22.8806 60.3253 23.2983H62.3253ZM61.8873 21.3681C61.589 20.7715 61.1524 20.2877 60.5872 19.9367L59.5321 21.6357C59.7765 21.7875 59.9621 21.9899 60.0985 22.2626L61.8873 21.3681ZM60.5913 19.9392C60.0082 19.5733 59.3447 19.4091 58.6406 19.4091V21.4091C59.0275 21.4091 59.31 21.4963 59.528 21.6332L60.5913 19.9392ZM58.6406 19.4091C57.8667 19.4091 57.1449 19.604 56.5189 20.0295L57.6431 21.6836C57.8949 21.5125 58.2128 21.4091 58.6406 21.4091V19.4091ZM56.5207 20.0283C55.9418 20.4198 55.4921 20.9361 55.1814 21.5631L56.9734 22.4511C57.1315 22.1321 57.3508 21.8813 57.6413 21.6848L56.5207 20.0283ZM55.1814 21.5631C54.8769 22.1777 54.7259 22.8372 54.7259 23.5284H56.7259C56.7259 23.1372 56.8092 22.7825 56.9734 22.4511L55.1814 21.5631ZM54.7259 23.5284V24.3977H56.7259V23.5284H54.7259ZM54.7259 24.3977C54.7259 25.2504 54.8725 26.04 55.2135 26.7276L57.0053 25.8391C56.8349 25.4955 56.7259 25.028 56.7259 24.3977H54.7259ZM55.2179 26.7365C55.558 27.4055 56.0468 27.9442 56.6858 28.3169L57.6935 26.5893C57.412 26.4252 57.1807 26.184 57.0008 25.8302L55.2179 26.7365ZM56.6918 28.3204C57.3248 28.6838 58.0362 28.8494 58.794 28.8494V26.8494C58.3331 26.8494 57.9749 26.7509 57.6875 26.5859L56.6918 28.3204ZM58.794 28.8494C59.2831 28.8494 59.7542 28.781 60.1954 28.6281L59.5404 26.7384C59.3424 26.807 59.0976 26.8494 58.794 26.8494V28.8494ZM60.2027 28.6255C60.653 28.4655 61.0566 28.2221 61.3992 27.892L60.0114 26.4518C59.8852 26.5734 59.7305 26.6708 59.5331 26.7409L60.2027 28.6255ZM61.4058 27.8854C61.7551 27.5425 62.0115 27.129 62.1849 26.6665L60.3123 25.9642C60.23 26.1835 60.1242 26.341 60.0047 26.4583L61.4058 27.8854ZM60.9783 27.2781L62.4357 27.6872L62.9762 25.7616L61.5188 25.3526L60.9783 27.2781ZM61.7509 26.428C61.6442 26.7718 61.4676 27.0703 61.2133 27.3337L62.6518 28.7232C63.1218 28.2365 63.4609 27.6657 63.661 27.0208L61.7509 26.428ZM61.2172 27.3296C60.9639 27.5889 60.6398 27.8042 60.2252 27.9667L60.9552 29.8288C61.6059 29.5736 62.1767 29.2094 62.6478 28.7272L61.2172 27.3296ZM60.2317 27.9642C59.8307 28.1182 59.3561 28.2045 58.794 28.2045V30.2045C59.5615 30.2045 60.2844 30.0864 60.9487 29.8313L60.2317 27.9642Z" fill="#E87F23" mask="url(#path-1-outside-1_282_1577)"/>
<g clip-path="url(#clip0_282_1577)">
<g opacity="0.96">
<path d="M80.4998 17.6002L80.0998 19.9002L75.7998 19.0002L76.1998 16.7002L80.4998 17.6002Z" fill="#EE7225"/>
<path d="M79.2998 7.40039L80.0998 9.50039L76.0998 11.8004L75.2998 9.70039L79.2998 7.40039Z" fill="#EE7225"/>
<path d="M70.3999 0L72.1999 0.8L70.6999 5.7L68.8999 4.9L70.3999 0Z" fill="#EE7225"/>
<path d="M59.7998 0.8L61.5998 0L63.0998 4.9L61.2998 5.7L59.7998 0.8Z" fill="#EE7225"/>
<path d="M72.1 21.3998L70.1 19.7998C70.9 18.6998 71.4 17.4998 71.4 16.0998C71.4 12.8998 68.8 10.1998 65.5 10.1998C63.7 10.1998 62 10.9998 60.9 12.3998L59 10.9998C60.6 8.9998 63 7.7998 65.5 7.7998C70.1 7.7998 73.9 11.5998 73.9 16.1998C73.9 18.0998 73.3 19.8998 72.1 21.3998Z" fill="#EE7225"/>
</g>
</g>
<line x1="11" y1="34" x2="64" y2="34" stroke="#E87F23" stroke-width="2"/>
<defs>
<clipPath id="clip0_282_1577">
<rect width="21.5" height="21.4" fill="white" transform="translate(59)"/>
</clipPath>
</defs>
</svg>
