<svg width="64" height="54" viewBox="0 0 64 54" fill="none" xmlns="http://www.w3.org/2000/svg">
<g clip-path="url(#clip0_74_2069)">
<path d="M59.8382 51.6876V13.8304H48.9182V0.958984H15.3182V13.8304H4.39824V51.6876H0.198242V53.959H63.1982V51.6876H59.8382ZM15.3182 39.5733H11.9582V33.5161H15.3182V39.5733ZM15.3182 26.7018H11.9582V20.6447H15.3182V26.7018ZM15.3182 18.3733H9.43824V28.9733H15.3182V31.2447H9.43824V41.8447H15.3182V51.6876H6.91824V16.1018H15.3182V18.3733ZM48.9182 19.8876H52.2782V25.9447H48.9182V19.8876ZM48.9182 32.759H52.2782V38.8161H48.9182V32.759ZM46.3982 51.6876H17.8382V3.23041H46.3982V51.6876ZM57.3182 51.6876H48.9182V41.0876H54.7982V30.4876H48.9182V28.2161H54.7982V17.6161H48.9182V16.1018H57.3182V51.6876Z" fill="#FFFFFD"/>
<path d="M29.1784 18.1741H21.6184C20.922 18.1741 20.3252 17.8653 20.3252 17.2377V8.15195C20.3252 7.52432 20.922 6.83691 21.6184 6.83691H29.1784C29.8747 6.83691 30.4936 7.52432 30.4936 8.15195V17.2377C30.4936 17.8653 29.8747 18.1741 29.1784 18.1741ZM22.9999 16.0023H28.0841V9.25778H22.9999V16.0023Z" fill="#FFFFFD"/>
<path d="M41.7783 18.1741H34.2183C33.522 18.1741 32.9031 17.8653 32.9031 17.2377V8.15195C32.9031 7.52432 33.522 6.83691 34.2183 6.83691H41.7783C42.4747 6.83691 43.0715 7.52432 43.0715 8.15195V17.2377C43.0715 17.8653 42.4747 18.1741 41.7783 18.1741ZM35.5778 16.0023H40.662V9.25778H35.5778V16.0023Z" fill="#FFFFFD"/>
<path d="M29.1784 31.9222H21.6184C20.922 31.9222 20.3252 31.4938 20.3252 30.8662V21.7804C20.3252 21.1528 20.922 20.585 21.6184 20.585H29.1784C29.8747 20.585 30.4936 21.1528 30.4936 21.7804V30.8662C30.4936 31.4938 29.8747 31.9222 29.1784 31.9222ZM22.9999 29.7504H28.0841V22.7568H22.9999V29.7504Z" fill="#FFFFFD"/>
<path d="M41.7783 31.9222H34.2183C33.522 31.9222 32.9031 31.4938 32.9031 30.8662V21.7804C32.9031 21.1528 33.522 20.585 34.2183 20.585H41.7783C42.4747 20.585 43.0715 21.1528 43.0715 21.7804V30.8662C43.0715 31.4938 42.4747 31.9222 41.7783 31.9222ZM35.5778 29.7504H40.662V22.7568H35.5778V29.7504Z" fill="#FFFFFD"/>
<path d="M29.1784 47.1146H21.6184C20.922 47.1146 20.3252 46.6364 20.3252 46.0087V36.923C20.3252 36.2954 20.922 35.7773 21.6184 35.7773H29.1784C29.8747 35.7773 30.4936 36.2954 30.4936 36.923V46.0087C30.4936 46.6364 29.8747 47.1146 29.1784 47.1146ZM22.9999 44.7037H28.0841V37.9491H22.9999V44.7037Z" fill="#FFFFFD"/>
<path d="M41.7783 47.1146H34.2183C33.522 47.1146 32.9031 46.6364 32.9031 46.0087V36.923C32.9031 36.2954 33.522 35.7773 34.2183 35.7773H41.7783C42.4747 35.7773 43.0715 36.2954 43.0715 36.923V46.0087C43.0715 46.6364 42.4747 47.1146 41.7783 47.1146ZM35.5778 44.7037H40.662V37.9491H35.5778V44.7037Z" fill="#FFFFFD"/>
</g>
<defs>
<clipPath id="clip0_74_2069">
<rect width="63" height="53" fill="white" transform="translate(0.198242 0.958984)"/>
</clipPath>
</defs>
</svg>
