<svg width="64" height="54" viewBox="0 0 64 54" fill="none" xmlns="http://www.w3.org/2000/svg">
<g clip-path="url(#clip0_74_2062)">
<path d="M51.2404 2.62793C49.9826 3.1606 48.739 3.72741 47.4953 4.29194C47.2282 4.40803 46.9113 4.51502 46.63 4.37616C46.1926 4.23503 45.9869 3.70464 46.1548 3.30401C46.2564 3.0354 46.533 2.88744 46.786 2.76907C48.0557 2.22047 49.3135 1.64228 50.5831 1.08913C50.7936 0.998075 51.0276 0.925233 51.2593 0.975312C51.666 1.06181 51.9686 1.4579 51.9048 1.86081C51.893 2.23185 51.5762 2.49818 51.2404 2.62793Z" fill="white"/>
<path d="M24.9586 4.40584C24.4054 4.2465 23.8947 3.97789 23.3651 3.75709C22.443 3.34962 21.5185 2.95354 20.5941 2.5529C20.204 2.39584 19.977 1.93829 20.1401 1.55359C20.2867 1.08239 20.8943 0.82744 21.353 1.05052C22.651 1.59229 23.923 2.18869 25.2163 2.73729C25.5426 2.87614 25.9256 3.07191 25.9753 3.44978C26.129 3.99838 25.5308 4.58795 24.9586 4.40584Z" fill="white"/>
<path d="M0.889543 19.5231C1.14962 18.7127 1.71706 17.9866 2.47838 17.5541C3.35081 17.0442 4.44077 16.8848 5.42669 17.1443C6.31096 17.3583 7.05099 17.8978 7.83122 18.3257C8.84788 18.9017 9.85982 19.4844 10.8954 20.0284C11.1791 20.1787 11.399 20.4177 11.5669 20.6795C12.1627 21.5968 12.7727 22.5051 13.385 23.4111C13.5434 23.6592 13.8674 23.7093 14.1133 23.8481C14.6736 24.1008 15.1134 24.531 15.6335 24.8497C16.5982 25.4188 17.5628 25.9925 18.5275 26.5615C18.901 26.17 19.3337 25.8422 19.738 25.4848C21.7524 23.7685 23.7668 22.0521 25.7812 20.3358C26.0744 20.0945 26.37 19.8372 26.7388 19.7143C27.1053 19.5891 27.4977 19.6324 27.8784 19.6255C28.9187 19.6233 29.9566 19.6324 30.9969 19.621C30.7014 19.3296 30.3728 19.0701 30.0867 18.7719C29.193 17.8705 28.5428 16.7596 28.1787 15.5645C27.6774 13.962 27.6774 12.2297 28.1148 10.6112C27.3133 10.3973 26.5142 10.0194 26.0035 9.36608C25.6417 8.89943 25.4171 8.26433 25.637 7.69297C25.7883 7.29233 26.1879 7.02145 26.6158 6.95771C27.1596 6.87576 27.7318 6.80975 28.1952 6.50244C28.5286 6.30212 28.6846 5.94246 28.8761 5.6306C29.8857 3.88693 31.6282 2.55527 33.6072 1.9748C35.1629 1.53319 36.851 1.53774 38.3973 2.00895C40.7782 2.75103 42.8493 4.563 43.5988 6.89169C43.8069 7.44257 43.8258 8.06173 44.1757 8.55797C44.4973 9.03828 45.0884 9.31827 45.6771 9.3251C46.0081 9.32965 46.3391 9.20673 46.6677 9.29323C47.0555 9.38884 47.422 9.65745 47.526 10.0421C47.6773 10.5179 47.4834 11.021 47.2257 11.4284C46.5779 12.405 45.4809 13.0902 44.2845 13.2472C44.275 14.0872 44.1166 14.9181 43.8755 15.7239C43.3908 17.249 42.3788 18.5852 41.1116 19.6028C42.4261 19.6187 43.7407 19.5959 45.0553 19.6142C45.7031 19.6483 46.176 20.1218 46.6417 20.5019C49.6799 22.9626 52.7346 25.4052 55.7846 27.8545C56.4112 28.3598 57.0637 28.8493 57.572 29.473C59.3666 31.5991 59.7732 34.6516 58.8062 37.2011C58.3334 38.4509 57.4538 39.5253 56.4064 40.3789C55.255 41.3828 54.0634 42.3434 52.919 43.3541C53.0491 45.0158 52.7985 46.7231 52.075 48.2459C50.9874 50.5883 48.8571 52.4321 46.3769 53.3358C44.0386 54.2145 41.3622 54.1462 39.031 53.2767C36.9622 52.4845 35.1014 51.0686 34.0328 49.1656C33.7065 48.5464 33.3778 47.9045 32.8506 47.4174C31.964 46.6047 30.8267 46.0493 29.6185 45.8467C29.0629 45.7579 28.4979 45.7329 27.9446 45.635C25.3155 45.1183 22.9819 43.3473 21.8754 40.9913C21.2323 39.6733 20.9887 38.2027 21.0266 36.755C21.0478 35.8058 21.2559 34.8725 21.4805 33.9505C20.8138 33.6 20.1801 33.1948 19.5299 32.8169C18.8135 32.3844 18.0853 31.9678 17.3784 31.5217C17.1207 31.936 16.863 32.3503 16.6289 32.7759C16.5698 33.2198 16.5934 33.6774 16.584 34.1258C17.6716 34.8201 18.8065 35.4484 19.9248 36.0971C20.3102 36.3111 20.374 36.8233 20.1589 37.1738C19.9201 37.5858 19.3148 37.6974 18.9081 37.4584C17.7283 36.8005 16.5816 36.0926 15.4089 35.4256C15.0259 35.2139 14.8462 34.786 14.8557 34.3762C14.8462 32.4254 14.8557 30.4723 14.8486 28.5215C14.8391 27.9706 14.8958 27.4015 14.7043 26.8711C14.371 25.931 13.4678 25.1798 12.4346 25.0637C11.7371 24.9636 11.0183 25.2117 10.4793 25.6373C10.0088 25.9993 9.71323 26.5297 9.55718 27.0828C9.46498 27.4265 9.49335 27.7862 9.49335 28.139C9.49571 30.552 9.49335 32.9626 9.49572 35.3755C9.50517 36.7755 9.84327 38.1845 10.5573 39.4092C12.0941 42.1362 15.3238 43.9027 18.5464 43.7479C19.0051 43.732 19.5016 43.5703 19.9319 43.7934C20.27 43.9505 20.4615 44.3102 20.4402 44.6653C20.4686 47.0258 20.4615 49.3864 20.4662 51.7492C20.4804 52.0201 20.3669 52.2956 20.1376 52.464C19.8397 52.7167 19.3786 52.6643 19.0689 52.4617C18.823 52.2773 18.7213 51.97 18.7261 51.6787C18.719 49.5867 18.7308 47.497 18.7261 45.4051C17.7283 45.4165 16.7211 45.3709 15.747 45.141C14.0518 44.7609 12.4819 43.9368 11.1791 42.8305C8.97319 40.9935 7.71301 38.1777 7.77921 35.3755C7.77684 33.0901 7.77684 30.8069 7.77921 28.5237C7.78866 27.7999 7.72246 27.0601 7.93998 26.3567C7.65626 26.4045 7.35599 26.4887 7.06991 26.3954C6.63724 26.2679 6.2684 25.9993 5.88065 25.783C4.93492 25.2162 3.96791 24.6858 3.02926 24.1099C2.51148 23.8094 1.99841 23.4794 1.62485 23.0127C0.816248 22.0521 0.534895 20.7114 0.889543 19.5231ZM44.1734 11.6014C44.6415 11.524 45.0482 11.2668 45.4217 10.9937C44.9016 10.9208 44.3673 10.832 43.9109 10.568C43.282 10.2288 42.769 9.69387 42.4616 9.0656C42.1684 8.49424 42.1164 7.84548 41.8705 7.25818C41.0052 4.95681 38.551 3.3702 36.033 3.30874C34.028 3.26549 32.0585 4.25342 30.8622 5.78995C30.4366 6.29529 30.1907 6.91446 29.7604 7.41525C29.1977 8.04352 28.3371 8.31668 27.5143 8.45099C27.9233 8.83796 28.4955 9.04511 29.0629 9.06787C30.0559 9.04056 30.9946 8.62399 31.9947 8.65813C32.782 8.66724 33.5622 8.89032 34.2195 9.30689C35.4017 10.0376 36.4491 10.9595 37.6809 11.6151C38.1018 11.8131 38.5557 11.9793 39.0286 11.993C39.5558 11.9657 40.0878 11.8109 40.5205 11.5127C40.913 11.2623 41.2321 10.8525 41.7287 10.7979C42.0786 10.7751 42.3788 10.9846 42.6366 11.1894C43.0527 11.5331 43.6296 11.7062 44.1734 11.6014ZM42.2441 14.7997C42.4025 14.2465 42.4616 13.6752 42.49 13.1061C42.2275 12.9968 41.9745 12.8671 41.7334 12.7191C40.6954 13.5045 39.2745 13.8231 37.9883 13.5136C37.0142 13.2677 36.1725 12.7146 35.352 12.1728C34.7562 11.7562 34.1675 11.3328 33.5764 10.9117C33.1201 10.6135 32.6236 10.329 32.0609 10.2857C31.38 10.2265 30.7416 10.5042 30.0796 10.5999C29.0724 13.0242 29.7131 16.0244 31.7252 17.7976C32.8648 18.8129 34.3969 19.4025 35.9479 19.4298C37.3168 19.4798 38.6858 19.0496 39.7946 18.2848C40.9933 17.438 41.8776 16.186 42.2441 14.7997ZM33.4795 20.9162C33.7372 21.4307 33.9831 21.9679 34.4087 22.3799C34.8532 22.8147 35.4561 23.1493 36.1039 23.1425C36.7919 23.1561 37.4232 22.7805 37.8795 22.3093C38.2791 21.911 38.5203 21.3988 38.7047 20.8821C37.0165 21.3851 35.1771 21.376 33.4795 20.9162ZM54.8271 39.4638C55.4796 38.9221 56.1393 38.3689 56.6121 37.6701C57.9669 35.6464 57.9031 32.842 56.4608 30.8752C56.1133 30.3744 55.664 29.9533 55.1793 29.5754C52.8599 27.7498 50.5642 25.8968 48.2802 24.0325C47.1122 23.1243 45.9986 22.1477 44.8047 21.2759C43.3577 21.2873 41.9083 21.2235 40.459 21.2782C40.0382 22.5028 39.2437 23.6547 38.0592 24.308C37.104 24.8452 35.9148 24.9112 34.8697 24.5993C34.0588 24.3649 33.3731 23.8368 32.8317 23.2222C32.3281 22.6553 32.0183 21.9633 31.7323 21.2782C30.2687 21.2804 28.8052 21.2622 27.3417 21.285C26.3203 22.1022 25.3557 22.9877 24.3437 23.8163C22.9298 25.0364 21.4923 26.2315 20.0761 27.4516C21.3741 28.2529 22.7147 28.9927 24.008 29.7985C24.6842 29.0792 25.4668 28.4509 26.325 27.9433C27.7507 27.1056 29.4483 26.6913 31.1175 26.8165C33.2478 26.9645 35.2882 28.0116 36.6335 29.6027C37.3523 30.4154 38.2578 31.1165 39.3336 31.4284C40.102 31.6719 40.9224 31.6309 41.7216 31.6355C42.9085 31.6401 44.0954 31.5991 45.2799 31.6537C46.8711 31.7835 48.4103 32.4026 49.6373 33.3837C49.7839 33.5066 49.9305 33.625 50.0937 33.7252C50.6115 33.0127 50.8337 32.1067 50.654 31.2485C50.6067 30.8502 50.3679 30.4518 50.5216 30.0512C50.6682 29.6073 51.2522 29.3614 51.6849 29.5777C52.0419 29.7302 52.2097 30.099 52.283 30.445C52.5266 31.5376 52.562 32.7236 52.0773 33.7616C51.8054 34.4308 51.3066 34.9885 50.7439 35.4529C49.6563 36.3589 48.5829 37.2854 47.4834 38.1777C48.0036 38.3712 48.2022 39.0882 47.8381 39.498C47.5851 39.7984 47.1524 39.7962 46.7907 39.8622C45.7953 40.0101 44.7385 40.2742 44.0244 41.0072C42.9912 42.0793 43.0621 43.9118 44.1119 44.9498C44.599 45.446 45.2917 45.7283 45.9892 45.8034C46.8049 45.8854 47.6324 45.5872 48.2353 45.0591C50.4247 43.1902 52.633 41.3327 54.8271 39.4638ZM24.2208 41.4784C25.3958 42.9876 27.2566 44.0006 29.219 44.1212C30.491 44.1963 31.7346 44.5947 32.8104 45.2503C33.5339 45.6714 34.1793 46.22 34.6853 46.871C35.2031 47.497 35.4774 48.2687 35.9597 48.9175C37.2979 50.7431 39.4778 51.9313 41.7641 52.225C42.8872 52.3456 44.041 52.2864 45.1262 51.9769C47.7293 51.2507 49.9353 49.268 50.7959 46.7845C51.0228 46.1494 51.1292 45.4802 51.1694 44.8109C50.4909 45.3322 49.8714 45.9218 49.1976 46.4476C47.5473 47.8203 44.9181 47.7315 43.2466 46.4385C42.8399 47.1533 42.3978 47.8476 41.9675 48.5487C41.8516 48.7376 41.6861 48.9106 41.4568 48.9653C40.9863 49.1178 40.4425 48.7854 40.355 48.3233C40.2793 47.9751 40.4803 47.6541 40.6458 47.3604C41.1234 46.591 41.575 45.808 42.0478 45.0363C41.2629 43.4975 41.3977 41.5216 42.49 40.149C42.9723 39.5412 43.6934 39.1793 44.2703 38.6671C45.7575 37.3901 47.2777 36.1449 48.7578 34.8588C47.6584 33.9505 46.2729 33.3268 44.8094 33.2858C43.3577 33.2858 41.906 33.2881 40.4519 33.2858C39.1917 33.2676 37.9599 32.8442 36.9291 32.15C36.2174 31.6765 35.5979 31.0823 35.0565 30.4381C34.2668 29.5253 33.1343 28.9358 31.9569 28.6262C30.3893 28.1982 28.6704 28.5192 27.292 29.325C26.63 29.6733 26.0839 30.1741 25.5401 30.6681C27.24 31.7425 29.0062 32.7168 30.7203 33.7684C31.4864 33.1971 32.4463 32.892 33.4038 32.801C34.8603 32.6621 36.3664 33.1265 37.4705 34.0507C38.4541 34.8429 39.1184 35.9833 39.3147 37.2011C39.4896 38.2779 39.4211 39.4115 38.9789 40.4244C38.402 41.747 37.2553 42.8465 35.8604 43.3586C34.9123 43.7456 33.8483 43.7661 32.8435 43.6113C31.5124 43.3791 30.2995 42.6393 29.4696 41.6172C28.635 40.5997 28.2945 39.2794 28.2969 38.0001C26.5496 36.9576 24.7788 35.9492 23.0433 34.8907C22.431 37.1078 22.7738 39.6209 24.2208 41.4784ZM16.5863 29.0951C20.244 31.2326 23.8756 33.4133 27.5308 35.5554C29.8786 36.9553 32.2524 38.3166 34.6002 39.7188C35.0707 39.9419 35.1747 40.6179 34.7988 40.9662C34.5529 41.2257 34.1344 41.3236 33.7963 41.1779C33.4582 41.0368 33.1579 40.8274 32.8411 40.6475C31.9332 40.1217 31.0395 39.5754 30.1411 39.0382C30.3349 39.9669 30.9024 40.8205 31.7062 41.3668C32.6165 42.0019 33.8365 42.2319 34.917 41.9109C35.9337 41.6286 36.7943 40.9025 37.2577 39.9897C37.7046 39.1315 37.7897 38.114 37.532 37.1898C37.2459 36.2292 36.565 35.3732 35.6452 34.8998C34.8012 34.4286 33.7419 34.2829 32.8104 34.5856C32.6662 34.6266 32.5243 34.6699 32.3777 34.7131C33.4298 35.3755 34.5127 35.9947 35.5861 36.623C35.9313 36.8028 36.3309 37.0668 36.3167 37.4925C36.3924 38.073 35.6831 38.5419 35.144 38.2801C34.4867 37.9683 33.8791 37.5699 33.2525 37.2057C27.668 33.9392 22.1142 30.6248 16.5414 27.3423C16.6171 27.9273 16.5769 28.5124 16.5863 29.0951ZM3.04581 22.0339C3.46903 22.4869 4.06248 22.735 4.585 23.0628C5.49763 23.5727 6.3748 24.135 7.28979 24.6403C7.4151 24.7018 7.54514 24.7883 7.69173 24.745C8.20006 24.6358 8.72021 24.5925 9.21909 24.4491C8.23553 23.7867 7.18103 23.2267 6.16673 22.6121C5.71278 22.3344 5.23282 22.0954 4.80251 21.7858C4.32492 21.4284 4.5117 20.6112 5.06495 20.4223C5.45979 20.2379 5.87119 20.4587 6.2022 20.659C7.78157 21.606 9.37277 22.5438 10.9663 23.4725C11.0822 23.5522 11.2288 23.534 11.3612 23.5386C10.9852 22.9194 10.5573 22.3344 10.1554 21.7312C10.0017 21.4944 9.7416 21.3578 9.50517 21.2121C8.68002 20.7409 7.8525 20.2697 7.03208 19.7917C6.47883 19.489 5.95394 19.1384 5.37941 18.8743C4.82379 18.6217 4.15232 18.5739 3.59434 18.847C3.05291 19.0678 2.67225 19.555 2.52329 20.0945C2.32469 20.7728 2.58004 21.5126 3.04581 22.0339Z" fill="white"/>
<path d="M22.1638 13.9827C22.911 14.941 22.7998 16.4343 21.8683 17.2447C20.8776 18.1848 19.0807 18.0664 18.1917 17.0534C17.7733 16.5822 17.5297 15.9654 17.5297 15.3439C17.4659 14.0327 17.447 12.717 17.3382 11.4081C17.0356 11.2101 16.6975 11.0348 16.3192 11.0416C15.7139 11.0303 15.1938 11.4081 14.7989 11.8156C14.5058 12.1001 14.3568 12.4962 14.0494 12.7717C13.7208 13.079 13.1699 13.1199 12.7869 12.8855C12.4984 12.7307 12.3117 12.4507 12.184 12.1639C11.9334 11.5789 11.7915 10.9506 11.7489 10.3178C11.6733 9.32755 12.0681 8.31003 12.8247 7.63168C13.7113 6.87594 14.9006 6.47303 16.0828 6.47758C16.9032 6.48441 17.7543 6.67562 18.4235 7.1491C18.7663 7.37901 18.9105 7.78647 18.92 8.17573C19.0004 9.85566 19.0547 11.5356 19.1517 13.2155C20.1802 12.7671 21.5065 13.0949 22.1638 13.9827ZM17.2082 8.40336C16.4918 7.98224 15.5792 8.02776 14.8297 8.34418C14.3308 8.55815 13.813 8.86318 13.6049 9.37536C13.4016 9.78738 13.4867 10.254 13.5529 10.6865C14.1416 10.0856 14.903 9.6212 15.7494 9.45958C16.2625 9.35715 16.7944 9.41406 17.2909 9.55519C17.2484 9.17049 17.2673 8.78351 17.2082 8.40336ZM19.2746 15.4145C19.2462 15.9494 19.8822 16.4252 20.4071 16.1998C20.8351 16.0541 21.0739 15.5442 20.8894 15.139C20.7807 14.9205 20.5726 14.7566 20.3362 14.6792C19.8444 14.4948 19.2604 14.9114 19.2746 15.4145Z" fill="white"/>
<path d="M58.5745 16.7046C58.5674 15.5619 58.5366 14.4192 58.5627 13.2765C57.3166 12.2726 55.6001 11.9334 54.0137 12.1383C54.0113 12.5685 54.0113 13.001 54.016 13.4335C55.1249 13.0033 56.5128 13.4722 57.0897 14.4806C57.7115 15.5255 57.4065 17.0074 56.352 17.6857C55.3188 18.4073 53.7441 18.2093 52.9332 17.2623C52.4603 16.7661 52.2877 16.0718 52.3114 15.4117C52.3421 13.3038 52.3043 11.1959 52.3043 9.08571C52.3019 8.79206 52.3563 8.48021 52.5714 8.25713C52.9899 7.7882 53.659 7.67438 54.2596 7.58333C55.8791 7.38756 57.5436 7.65162 59.0497 8.24802C59.3996 8.39826 59.7826 8.53484 60.0309 8.82849C60.2531 9.09254 60.2744 9.44765 60.2886 9.77317C60.2933 11.3461 60.2957 12.9191 60.2697 14.492C61.362 14.1005 62.7546 14.451 63.3528 15.4549C64.0361 16.4724 63.7973 17.9612 62.7853 18.6987C61.7758 19.5159 60.1089 19.3725 59.2483 18.4164C58.8156 17.9521 58.5697 17.3329 58.5745 16.7046ZM54.9476 16.4793C55.3992 16.4451 55.7586 15.999 55.6853 15.571C55.6522 15.2751 55.4275 15.027 55.1415 14.9268C54.7206 14.7583 54.2052 14.9996 54.061 15.4117C53.8505 15.9329 54.3754 16.5498 54.9476 16.4793ZM58.5154 9.85511C57.4278 9.36115 56.222 9.1153 55.0209 9.14717C54.6804 9.16538 54.34 9.21546 54.0137 9.3179C54.0137 9.7026 53.9971 10.0896 54.0397 10.4743C54.775 10.3901 55.515 10.4606 56.2456 10.554C57.0495 10.6541 57.825 10.9159 58.5485 11.2596C58.5508 10.7907 58.5556 10.324 58.5154 9.85511ZM61.2651 17.5765C61.8136 17.5491 62.1706 16.9118 61.9342 16.4451C61.8112 16.2425 61.6245 16.065 61.3904 15.9876C60.9554 15.8646 60.4518 16.1264 60.343 16.5544C60.1869 17.0779 60.7047 17.6652 61.2651 17.5765Z" fill="white"/>
<path d="M13.4465 16.2058C13.813 16.3788 13.8839 16.9183 13.5482 17.1573C13.2219 17.4624 12.6214 17.2211 12.5765 16.7954C12.5079 16.3629 13.0493 15.9896 13.4465 16.2058Z" fill="white"/>
<path d="M57.4304 22.698C57.707 22.8415 57.863 23.2057 57.6834 23.4766C57.4824 23.843 56.8724 23.8726 56.662 23.4993C56.3404 23.0645 56.9528 22.4067 57.4304 22.698Z" fill="white"/>
<path d="M62.8139 29.8487C63.2371 29.9124 63.4499 30.4815 63.1354 30.7752C62.8896 31.0552 62.3789 31.0005 62.1826 30.6955C61.8918 30.3108 62.3552 29.7258 62.8139 29.8487Z" fill="white"/>
<path d="M62.9745 35.8579C63.3174 36.0263 63.4119 36.5135 63.1069 36.7616C62.7736 37.119 62.0855 36.8253 62.095 36.361C62.1044 35.958 62.5962 35.6257 62.9745 35.8579Z" fill="white"/>
<path d="M57.364 43.2473C57.669 43.3702 57.8747 43.7504 57.6832 44.0395C57.4846 44.4059 56.8722 44.4401 56.6618 44.0645C56.3544 43.6616 56.8912 43.0242 57.364 43.2473Z" fill="white"/>
<path d="M13.3616 48.9078C13.7588 49.0125 13.9172 49.552 13.6217 49.8343C13.364 50.1621 12.7776 50.0369 12.631 49.6658C12.4229 49.2606 12.9218 48.7416 13.3616 48.9078Z" fill="white"/>
</g>
<defs>
<clipPath id="clip0_74_2062">
<rect width="63" height="53" fill="white" transform="matrix(-1 8.79713e-08 8.68776e-08 1 63.7383 0.958984)"/>
</clipPath>
</defs>
</svg>
