<svg width="63" height="56" viewBox="0 0 63 56" fill="none" xmlns="http://www.w3.org/2000/svg">
<g clip-path="url(#clip0_74_2061)">
<path d="M3.81331 19.9438C4.31068 20.6198 4.97384 20.9579 5.637 20.9579C6.38305 20.9579 7.04621 20.6198 7.54358 19.8311L8.7041 18.141C9.61594 18.479 10.5278 18.0283 11.1909 17.1269L13.7607 13.5212L15.5844 11.0424L14.0923 10.9297L10.4449 16.0001C10.0304 16.5635 9.36726 16.7888 8.787 16.4508C8.62121 16.3381 8.37252 16.4508 8.20673 16.6762L6.79752 18.7043C6.21726 19.4931 5.22252 19.6057 4.55937 18.7043C4.39358 18.479 4.31068 18.2536 4.22779 18.0283C4.14489 17.8029 3.9791 17.5776 3.73042 17.5776H3.64752C3.06726 17.5776 2.56989 17.2395 2.23831 16.5635C2.15542 16.4508 2.07252 16.3381 2.07252 16.1128C1.65805 16.0001 1.24358 15.7748 0.829102 15.4367C0.911996 16.1128 1.07779 16.9015 1.40936 17.4649C1.82384 18.5917 2.56989 19.155 3.39884 19.155C3.48173 19.4931 3.64752 19.7184 3.81331 19.9438Z" fill="white"/>
<path d="M21.2211 0C21.0554 0 20.8896 0 20.6409 0C20.2264 0 19.8948 0 19.5632 0C17.5738 0.225352 11.108 1.80282 10.7764 1.80282C10.5277 1.91549 9.2843 2.70423 1.57509 7.66197C0.16588 8.56338 -0.414383 10.9296 0.33167 12.8451C0.829038 14.1972 1.82378 14.9859 2.90141 14.9859C3.31588 14.9859 3.73035 14.8732 4.14483 14.5352L11.5225 9.57746L19.6461 9.69014L22.7961 11.1549L16.9935 12.2817C15.4185 12.507 14.3409 14.4225 14.5067 16.6761C14.6725 18.5915 15.9159 20.0563 17.3251 20.0563C17.408 20.0563 17.5738 20.0563 17.6567 20.0563L28.2672 18.1408C28.6817 18.0282 29.0133 18.1408 29.4277 18.2535L32.9093 19.2676C34.3185 19.7183 35.8106 19.7183 37.2198 19.493L38.2146 19.2676V17.8028L37.054 18.0282C35.7277 18.2535 34.4014 18.2535 33.158 17.8028L29.6764 16.7887C29.179 16.6761 28.6817 16.5634 28.1843 16.6761L17.5738 18.5915C16.579 18.7042 15.7501 17.8028 15.6672 16.4507C15.5843 15.0986 16.2475 13.9718 17.2422 13.8592L25.2001 12.2817C25.4488 12.2817 25.6146 11.9437 25.6975 11.6056C25.6975 11.2676 25.6146 10.9296 25.3659 10.8169L19.8948 8.22535C19.8119 8.22535 19.8119 8.22535 19.729 8.22535L11.3567 8.11268C11.2738 8.11268 11.1909 8.11268 11.108 8.22535L3.56456 13.2958C2.73562 13.8592 1.65799 13.4085 1.24351 12.169C0.829038 10.9296 1.16062 9.57746 2.07246 9.01408C4.39351 7.5493 10.4448 3.71831 11.108 3.26761C11.7711 3.15493 17.8225 1.69014 19.8119 1.46479C20.0606 1.46479 20.3922 1.46479 20.7238 1.46479C20.8896 1.46479 21.1383 1.46479 21.304 1.46479C23.2106 1.57746 29.9251 2.02817 35.2304 4.50704H35.3133L38.2975 5.1831V3.71831L35.5619 3.04225C30.2567 0.56338 23.7909 0.112676 21.2211 0Z" fill="white"/>
<path d="M62.42 0.789062H45.841C45.5094 0.789062 45.2607 1.12709 45.2607 1.57779V21.2961C45.2607 21.7468 45.5094 22.0848 45.841 22.0848H62.42C62.7515 22.0848 63.0002 21.7468 63.0002 21.2961V1.57779C63.0002 1.12709 62.7515 0.789062 62.42 0.789062ZM61.9226 20.62H46.4213V2.36653H61.9226V20.62Z" fill="white"/>
<path d="M40.0382 1.91504C39.7066 1.91504 39.4579 2.25307 39.4579 2.70377L39.375 20.2812C39.375 20.5066 39.4579 20.6193 39.5408 20.8446C39.6237 20.9573 39.7895 21.07 39.9553 21.07H44.2658V19.6052H40.5355V3.37983H44.1829V1.91504H40.0382Z" fill="white"/>
<path d="M32.3292 50.366V47.7745C32.3292 47.3238 32.0805 46.873 31.666 46.873H5.96866C5.63708 46.873 5.3055 47.2111 5.3055 47.7745V50.366C4.39366 51.0421 2.32129 52.7322 2.32129 55.0984C2.32129 55.5491 2.56997 55.9998 2.98445 55.9998H34.6502C34.9818 55.9998 35.3134 55.5491 35.3134 55.0984C35.3134 52.7322 33.241 51.0421 32.3292 50.366ZM3.81339 54.3097C4.31076 53.1829 5.71997 52.0561 6.21734 51.7181C6.46603 51.6054 6.63182 51.2674 6.63182 50.9294V48.6759H31.0858V50.9294C31.0858 51.2674 31.2516 51.6054 31.4173 51.7181C32.0805 52.1688 33.4068 53.1829 33.8213 54.3097H3.81339Z" fill="white"/>
<path d="M21.7185 28.0567C22.0501 28.0567 22.3816 27.606 22.3816 27.1552C22.3816 24.5637 20.8066 22.4229 18.9001 22.4229H18.7343C16.8277 22.4229 15.2527 24.5637 15.2527 27.1552C15.2527 27.606 15.5014 28.0567 15.9158 28.0567H21.7185ZM18.7343 24.113H18.9001C19.8948 24.113 20.8066 25.0144 21.0553 26.3665H16.6619C16.9106 25.1271 17.7395 24.113 18.7343 24.113Z" fill="white"/>
<path d="M5.80273 44.7327C5.80273 45.1834 6.05142 45.6341 6.46589 45.6341H31.2514C31.583 45.6341 31.9146 45.296 31.9146 44.7327C31.9146 33.127 24.9514 28.958 18.983 28.958H18.8172C12.3514 29.0707 5.80273 33.9158 5.80273 44.7327ZM18.7343 30.6481H18.8172C24.0396 30.6481 30.1738 34.1411 30.5054 43.8312H7.12905C7.46063 34.2538 13.5119 30.7608 18.7343 30.6481Z" fill="white"/>
<path d="M8.53827 43.0418H8.62117C8.95274 43.0418 9.20143 42.8165 9.20143 42.3658C9.86459 37.9714 12.1856 35.6052 14.0093 34.4785C14.3409 34.2531 14.4238 33.8024 14.3409 33.3517C14.1751 32.901 13.8435 32.7883 13.512 32.901C10.4448 34.8165 8.53827 37.9714 7.95801 42.0278C7.95801 42.5911 8.20669 43.0418 8.53827 43.0418Z" fill="white"/>
<path d="M29.9251 50.1406H7.7093C7.37772 50.1406 7.04614 50.4787 7.04614 51.042C7.04614 51.4927 7.29483 51.9434 7.7093 51.9434H29.9251C30.2567 51.9434 30.5882 51.6054 30.5882 51.042C30.5882 50.5913 30.2567 50.1406 29.9251 50.1406Z" fill="white"/>
</g>
<defs>
<clipPath id="clip0_74_2061">
<rect width="63" height="56" fill="white"/>
</clipPath>
</defs>
</svg>
