<?xml version="1.0" encoding="UTF-8"?>
<svg id="_레이어_1" data-name="레이어 1" xmlns="http://www.w3.org/2000/svg" xmlns:xlink="http://www.w3.org/1999/xlink" viewBox="0 0 123.68 159.94">
  <defs>
    <style>
      .cls-1 {
        fill: url(#linear-gradient);
      }

      .cls-1, .cls-2, .cls-3, .cls-4, .cls-5, .cls-6 {
        stroke-width: 0px;
      }

      .cls-7 {
        font-family: Pretendard-ExtraBold-KSCpc-EUC-H, Pretendard;
        font-size: 29.53px;
        font-weight: 700;
        letter-spacing: .05em;
      }

      .cls-7, .cls-4 {
        fill: #fff;
      }

      .cls-2 {
        fill: #66686b;
      }

      .cls-3 {
        fill: none;
      }

      .cls-8 {
        clip-path: url(#clippath);
      }

      .cls-5 {
        fill: #f2c28f;
      }

      .cls-6 {
        fill: #221e1f;
      }
    </style>
    <linearGradient id="linear-gradient" x1="61.84" y1="158.63" x2="61.84" y2="37.93" gradientUnits="userSpaceOnUse">
      <stop offset="0" stop-color="#d2dade"/>
      <stop offset="1" stop-color="#f2f4f5"/>
    </linearGradient>
    <clipPath id="clippath">
      <rect class="cls-3" x="84.51" y="55.33" width="23.83" height="23.83"/>
    </clipPath>
  </defs>
  <g>
    <g>
      <rect class="cls-1" y="36.26" width="123.68" height="123.68" rx="9.54" ry="9.54"/>
      <path class="cls-4" d="M114.14,36.26H9.54c-2.92,0-5.53,1.32-7.28,3.39,1.66-1.4,3.8-2.25,6.15-2.25h104.61c5.27,0,9.54,4.27,9.54,9.54v104.61c0,2.34-.85,4.49-2.25,6.15,2.07-1.75,3.39-4.36,3.39-7.28V45.79c0-5.27-4.27-9.54-9.54-9.54Z"/>
    </g>
    <rect class="cls-6" x="14.84" y="86.8" width="93.5" height=".28"/>
    <path class="cls-5" d="M91.33,29.76c0,16.44-13.33,29.76-29.77,29.76s-29.76-13.33-29.76-29.76S45.12,0,61.56,0s29.77,13.33,29.77,29.76Z"/>
    <text class="cls-7" transform="translate(42.84 39.27)"><tspan x="0" y="0">01</tspan></text>
  </g>
  <g class="cls-8">
    <g>
      <path class="cls-2" d="M106.61,62.89h-8.84v-7.12c0-.26-.26-.44-.43-.44h-1.82c-.26,0-.43.18-.43.44v7.21h-8.84c-.95,0-1.73.79-1.73,1.76v12.75c0,.97.78,1.76,1.73,1.76h20.36c.95,0,1.73-.79,1.73-1.76v-12.84c0-.97-.78-1.76-1.73-1.76ZM95.52,66.23h1.82c.26,0,.43-.18.43-.44v-.26c.26.18.43.44.43.7,0,.62-.78,1.06-1.73,1.06s-1.73-.53-1.73-1.06c0-.26.17-.53.43-.7v.35c-.09.18.09.35.35.35ZM95.95,56.12h1.04v9.32h-1.04v-9.32ZM107.56,77.4c0,.53-.43.97-.95.97h-20.36c-.52,0-.95-.44-.95-.97v-12.75c0-.53.43-.88.95-.88h8.92v.97c-.78.35-1.21.97-1.21,1.58,0,1.06,1.13,1.85,2.51,1.85s2.51-.79,2.51-1.85c0-.7-.43-1.32-1.21-1.58v-.97h8.92c.52,0,.95.44.95.97v12.66h-.09Z"/>
      <path class="cls-2" d="M90.58,68.96c-2.34,0-4.25,1.93-4.25,4.31,0,1.32.52,2.46,1.47,3.34.78.7,1.73,1.06,2.77,1.06h.35c.87-.09,1.73-.44,2.43-1.06.95-.79,1.47-2.02,1.47-3.34,0-2.37-1.91-4.31-4.25-4.31ZM90.32,76.78h-.61q-.09,0-.17-.09s-.09,0-.09-.09q-.09,0-.17-.09s-.09,0-.09-.09h-.26s-.09,0-.09-.09c-.09,0-.09-.09-.17-.09l-.09-.09h-.09c.17-1.06,1.04-1.85,2.08-1.85.61,0,1.13.26,1.47.62.35.35.52.79.61,1.23h-.09l-.09.09c-.09,0-.09.09-.17.09v.09h-.17s-.09,0-.09.09q-.09,0-.17.09s-.09,0-.09.09q-.09,0-.17.09h-.87c-.26.09-.35.09-.43,0ZM89.45,72.3c0-.62.52-1.14,1.13-1.14s1.13.53,1.13,1.14-.52,1.14-1.13,1.14-1.13-.53-1.13-1.14ZM93.35,75.46c-.17-.44-.43-.79-.69-1.14-.26-.26-.52-.44-.78-.53.43-.35.69-.88.69-1.49,0-1.06-.87-1.93-1.91-1.93s-1.91.88-1.91,1.93c0,.62.26,1.14.69,1.49-.69.35-1.21.97-1.47,1.67-.61-.62-.87-1.41-.87-2.2,0-1.93,1.56-3.52,3.47-3.52s3.47,1.58,3.47,3.52c0,.79-.26,1.58-.69,2.2Z"/>
      <path class="cls-2" d="M104.27,69.22h-7.37c-.69,0-1.3.62-1.3,1.32s.61,1.32,1.3,1.32h7.37c.69,0,1.3-.62,1.3-1.32s-.61-1.32-1.3-1.32ZM104.27,71.07h-7.37c-.26,0-.52-.26-.52-.53s.26-.53.52-.53h7.37c.26,0,.52.26.52.53,0,.35-.26.53-.52.53Z"/>
      <path class="cls-2" d="M103.66,73.53h-7.37c-.26,0-.43.18-.43.44s.17.44.43.44h7.37c.26,0,.43-.18.43-.44s-.17-.44-.43-.44Z"/>
      <path class="cls-2" d="M101.84,75.99h-5.55c-.26,0-.43.18-.43.44s.17.44.43.44h5.55c.26,0,.43-.18.43-.44-.09-.26-.26-.44-.43-.44Z"/>
    </g>
  </g>
</svg>