<svg width="105" height="71" viewBox="0 0 105 71" fill="none" xmlns="http://www.w3.org/2000/svg">
<g clip-path="url(#clip0_74_3263)">
<path d="M4.4001 40.6996V30.3996H1.8001C1.5001 30.3996 1.3001 30.2996 1.1001 30.0996V41.2996C1.5001 40.8996 1.9001 40.6996 2.4001 40.6996H4.4001Z" fill="#8B8F91"/>
<path d="M99.8999 31.6V40.8H102.1C102.5 40.8 102.9 41 103.2 41.3V31.5C103 31.6 102.8 31.7 102.6 31.7H99.8999V31.6Z" fill="#8B8F91"/>
<path d="M12.2 28.1996V28.5996C12.2 29.5996 11.5 30.3996 10.8 30.3996H10.2V40.6996H13.6V11.6996H10.9C10.7 11.6996 10.5 11.6996 10.2 11.5996V26.3996H10.8C11.6 26.3996 12.2 27.1996 12.2 28.1996Z" fill="#8B8F91"/>
<path d="M54.7999 11.7002H51.3999V40.7002V40.8002H54.7999V40.7002V11.7002Z" fill="#8B8F91"/>
<path d="M33.7999 11.7002H30.3999V40.7002V40.8002H33.7999V40.7002V11.7002Z" fill="#8B8F91"/>
<path d="M73.7 11.7002H70.3V40.8002H73.7V11.7002Z" fill="#8B8F91"/>
<path d="M83.5001 11.7002H80.1001V40.8002H83.5001V11.7002Z" fill="#8B8F91"/>
<path d="M64.5999 11.7002H61.2V40.8002H64.5999V11.7002Z" fill="#8B8F91"/>
<path d="M44.0001 11.7002H40.6001V40.8002H44.0001V11.7002Z" fill="#8B8F91"/>
<path d="M23.7001 11.7002H20.3V40.8002H23.7001V11.7002Z" fill="#8B8F91"/>
<path d="M90.5 11.7V40.8H93.9V31.6H93.7C92.9 31.6 92.3 30.8 92.3 29.8V29.3C92.3 28.3 92.9 27.5 93.7 27.5H93.9V11.5C93.6 11.6 93.3 11.6 93 11.6H90.5V11.7Z" fill="#8B8F91"/>
<path d="M0.899902 45.8002V69.7002C0.899902 70.3002 4.9999 70.5002 4.9999 69.7002V48.3002H98.9999V70.0002C98.9999 70.6002 103.1 70.8002 103.1 70.0002V48.3002H103.2V45.8002V45.7002H0.899902V45.8002Z" fill="#8B8F91"/>
<path d="M104.4 44.5002C104.4 43.1002 103.9 41.8002 103.2 41.2002C102.9 40.9002 102.5 40.7002 102.1 40.7002H99.9H93.9H90.5H83.4H80H73.6H70.2H64.5H61.1H54.7H51.3H44H40.6H33.8H30.4H23.6H20.2H13.4H10H4.4H2.3C1.8 40.7002 1.4 40.9002 1 41.3002C0.4 42.0002 0 43.1002 0 44.4002C0 44.8002 0 45.3002 0.1 45.7002H0.8H103.1H104.2C104.4 45.4002 104.4 45.0002 104.4 44.5002Z" fill="#CECECE"/>
<path d="M13.5999 11.7H20.3999H23.7999H30.5999H33.9999H40.7999H43.9999H51.3999H54.7999H61.1999H64.5999H70.2999H73.6999H80.0999H83.4999H90.5999H92.9999C93.2999 11.7 93.5999 11.7 93.8999 11.6C95.8999 11.1 97.4999 8.8 97.4999 6.1V5.6C97.4999 2.5 95.4999 0 92.9999 0H10.8999C8.3999 0 6.3999 2.5 6.3999 5.6V6.1C6.3999 8.9 8.0999 11.2 10.1999 11.6C10.3999 11.6 10.5999 11.7 10.8999 11.7H13.5999Z" fill="#CECECE"/>
<path d="M4.3999 30.4004H10.1999H10.7999C11.5999 30.4004 12.1999 29.6004 12.1999 28.6004V28.2004C12.1999 27.2004 11.4999 26.4004 10.7999 26.4004H10.1999H1.7999C0.999902 26.4004 0.399902 27.2004 0.399902 28.2004V28.6004C0.399902 29.3004 0.699902 29.8004 1.0999 30.1004C1.2999 30.3004 1.5999 30.4004 1.7999 30.4004H4.3999Z" fill="#CECECE"/>
<path d="M92.3 29.3V29.8C92.3 30.8 92.9 31.6 93.7 31.6H93.9H99.9H102.6C102.8 31.6 103 31.5 103.2 31.4C103.7 31.1 104 30.5 104 29.8V29.3C104 28.3 103.4 27.5 102.6 27.5H93.9H93.7C92.9 27.5 92.3 28.3 92.3 29.3Z" fill="#CECECE"/>
</g>
<defs>
<clipPath id="clip0_74_3263">
<rect width="104.4" height="70.6" fill="white"/>
</clipPath>
</defs>
</svg>
