<svg width="11" height="14" viewBox="0 0 11 14" fill="none" xmlns="http://www.w3.org/2000/svg">
<g clip-path="url(#clip0_74_3266)">
<path d="M6.54138 10.7745C6.59566 10.6825 6.53874 9.69531 6.53874 9.69531H4.31332C4.31332 9.69531 4.25242 10.6812 4.3067 10.7745C4.36098 10.8665 4.85478 11.5298 4.88126 12.359C4.90773 13.1882 4.87729 13.9707 4.87729 13.9707H5.9655C5.9655 13.9707 5.9377 13.1882 5.96418 12.359C5.99066 11.5298 6.48711 10.8665 6.54138 10.7745Z" fill="#B53939"/>
<g style="mix-blend-mode:multiply" opacity="0.3">
<path d="M5.42404 14.0001C5.42801 13.8809 5.43066 13.7604 5.43463 13.6412C5.48229 12.365 5.61468 11.0798 5.60144 9.7998H4.31332C4.31332 9.7998 4.25242 10.7352 4.3067 10.8272C4.36098 10.9192 4.85478 11.5709 4.88126 12.4013C4.90773 13.2305 4.87729 14.0014 4.87729 14.0014H5.42404V14.0001Z" fill="#B53939"/>
</g>
<path d="M10.2125 6.19346C10.6219 3.71703 8.90235 1.38468 6.37184 0.984033C3.84133 0.583381 1.45806 2.26614 1.04866 4.74258C0.639257 7.21901 2.35876 9.55136 4.88927 9.95201C7.41978 10.3527 9.80305 8.6699 10.2125 6.19346Z" fill="#F2F2F2"/>
<mask id="mask0_74_3266" style="mask-type:luminance" maskUnits="userSpaceOnUse" x="0" y="0" width="11" height="11">
<path d="M10.2125 6.19346C10.6219 3.71703 8.90235 1.38468 6.37184 0.984033C3.84133 0.583381 1.45806 2.26614 1.04866 4.74258C0.639257 7.21901 2.35876 9.55136 4.88927 9.95201C7.41978 10.3527 9.80305 8.6699 10.2125 6.19346Z" fill="white"/>
</mask>
<g mask="url(#mask0_74_3266)">
<g opacity="0.7">
<path d="M2.8846 8.58105C2.64763 8.58105 2.45435 8.76891 2.45435 9.00212C2.45435 9.23532 2.64631 9.42318 2.8846 9.42318C3.1229 9.42318 3.31486 9.23532 3.31486 9.00212C3.31486 8.76891 3.1229 8.58105 2.8846 8.58105Z" fill="#E2E2E2"/>
<path d="M4.03109 8.58105C3.79411 8.58105 3.60083 8.76891 3.60083 9.00212C3.60083 9.23532 3.79279 9.42318 4.03109 9.42318C4.26938 9.42318 4.46134 9.23532 4.46134 9.00212C4.46134 8.76891 4.26938 8.58105 4.03109 8.58105Z" fill="#E2E2E2"/>
<path d="M5.17635 8.58105C4.93938 8.58105 4.74609 8.76891 4.74609 9.00212C4.74609 9.23532 4.93805 9.42318 5.17635 9.42318C5.41465 9.42318 5.60661 9.23532 5.60661 9.00212C5.60661 8.76891 5.41465 8.58105 5.17635 8.58105Z" fill="#E2E2E2"/>
<path d="M3.52938 7.61719C3.29241 7.61719 3.09912 7.80505 3.09912 8.03825C3.09912 8.27145 3.29108 8.45931 3.52938 8.45931C3.76767 8.45931 3.95963 8.27145 3.95963 8.03825C3.95963 7.80505 3.76767 7.61719 3.52938 7.61719Z" fill="#E2E2E2"/>
<path d="M4.67586 7.61719C4.43889 7.61719 4.24561 7.80505 4.24561 8.03825C4.24561 8.27145 4.43757 8.45931 4.67586 8.45931C4.91416 8.45931 5.10612 8.27145 5.10612 8.03825C5.10612 7.80505 4.91416 7.61719 4.67586 7.61719Z" fill="#E2E2E2"/>
<path d="M5.82235 7.61719C5.58537 7.61719 5.39209 7.80505 5.39209 8.03825C5.39209 8.27145 5.58405 8.45931 5.82235 8.45931C6.06064 8.45931 6.2526 8.27145 6.2526 8.03825C6.2526 7.80505 6.06064 7.61719 5.82235 7.61719Z" fill="#E2E2E2"/>
<path d="M3.691 9.54395C3.45403 9.54395 3.26074 9.7318 3.26074 9.96501C3.26074 10.1982 3.4527 10.3861 3.691 10.3861C3.92929 10.3861 4.12125 10.1982 4.12125 9.96501C4.12125 9.7318 3.92929 9.54395 3.691 9.54395Z" fill="#E2E2E2"/>
<path d="M4.83748 9.54395C4.60051 9.54395 4.40723 9.7318 4.40723 9.96501C4.40723 10.1982 4.59919 10.3861 4.83748 10.3861C5.07578 10.3861 5.26774 10.1982 5.26774 9.96501C5.26774 9.7318 5.07578 9.54395 4.83748 9.54395Z" fill="#E2E2E2"/>
<path d="M5.98397 9.54395C5.747 9.54395 5.55371 9.7318 5.55371 9.96501C5.55371 10.1982 5.74567 10.3861 5.98397 10.3861C6.22226 10.3861 6.41422 10.1982 6.41422 9.96501C6.41422 9.7318 6.22226 9.54395 5.98397 9.54395Z" fill="#E2E2E2"/>
<path d="M0.591877 8.58105C0.354905 8.58105 0.161621 8.76891 0.161621 9.00212C0.161621 9.23532 0.353582 9.42318 0.591877 9.42318C0.830173 9.42318 1.02213 9.23532 1.02213 9.00212C1.02213 8.76891 0.830173 8.58105 0.591877 8.58105Z" fill="#E2E2E2"/>
<path d="M1.73812 8.58105C1.50115 8.58105 1.30786 8.76891 1.30786 9.00212C1.30786 9.23532 1.49982 9.42318 1.73812 9.42318C1.97641 9.42318 2.16837 9.23532 2.16837 9.00212C2.16837 8.76891 1.97641 8.58105 1.73812 8.58105Z" fill="#E2E2E2"/>
<path d="M1.23641 7.61719C0.999437 7.61719 0.806152 7.80505 0.806152 8.03825C0.806152 8.27145 0.998113 8.45931 1.23641 8.45931C1.4747 8.45931 1.66667 8.27145 1.66667 8.03825C1.66667 7.80505 1.4747 7.61719 1.23641 7.61719Z" fill="#E2E2E2"/>
<path d="M2.38289 7.61719C2.14592 7.61719 1.95264 7.80505 1.95264 8.03825C1.95264 8.27145 2.1446 8.45931 2.38289 8.45931C2.62119 8.45931 2.81315 8.27145 2.81315 8.03825C2.81315 7.80505 2.62119 7.61719 2.38289 7.61719Z" fill="#E2E2E2"/>
<path d="M1.39803 9.54395C1.16106 9.54395 0.967773 9.7318 0.967773 9.96501C0.967773 10.1982 1.15973 10.3861 1.39803 10.3861C1.63633 10.3861 1.82829 10.1982 1.82829 9.96501C1.82829 9.7318 1.63633 9.54395 1.39803 9.54395Z" fill="#E2E2E2"/>
<path d="M2.54451 9.54395C2.30754 9.54395 2.11426 9.7318 2.11426 9.96501C2.11426 10.1982 2.30622 10.3861 2.54451 10.3861C2.78281 10.3861 2.97477 10.1982 2.97477 9.96501C2.97477 9.7318 2.78281 9.54395 2.54451 9.54395Z" fill="#E2E2E2"/>
<path d="M2.8846 6.65332C2.64763 6.65332 2.45435 6.84118 2.45435 7.07438C2.45435 7.30759 2.64631 7.49545 2.8846 7.49545C3.1229 7.49545 3.31486 7.30759 3.31486 7.07438C3.31486 6.84118 3.1229 6.65332 2.8846 6.65332Z" fill="#E2E2E2"/>
<path d="M4.03109 6.65332C3.79411 6.65332 3.60083 6.84118 3.60083 7.07438C3.60083 7.30759 3.79279 7.49545 4.03109 7.49545C4.26938 7.49545 4.46134 7.30759 4.46134 7.07438C4.46134 6.84118 4.26938 6.65332 4.03109 6.65332Z" fill="#E2E2E2"/>
<path d="M5.17635 6.65332C4.93938 6.65332 4.74609 6.84118 4.74609 7.07438C4.74609 7.30759 4.93805 7.49545 5.17635 7.49545C5.41465 7.49545 5.60661 7.30759 5.60661 7.07438C5.60661 6.84118 5.41465 6.65332 5.17635 6.65332Z" fill="#E2E2E2"/>
<path d="M3.368 5.68945C3.13103 5.68945 2.93774 5.87731 2.93774 6.11052C2.93774 6.34372 3.1297 6.53158 3.368 6.53158C3.6063 6.53158 3.79826 6.34372 3.79826 6.11052C3.79826 5.87731 3.6063 5.68945 3.368 5.68945Z" fill="#E2E2E2"/>
<path d="M4.51448 5.68945C4.27751 5.68945 4.08423 5.87731 4.08423 6.11052C4.08423 6.34372 4.27619 6.53158 4.51448 6.53158C4.75278 6.53158 4.94474 6.34372 4.94474 6.11052C4.94474 5.87731 4.75278 5.68945 4.51448 5.68945Z" fill="#E2E2E2"/>
<path d="M5.66097 5.68945C5.424 5.68945 5.23071 5.87731 5.23071 6.11052C5.23071 6.34372 5.42267 6.53158 5.66097 6.53158C5.89927 6.53158 6.09123 6.34372 6.09123 6.11052C6.09123 5.87731 5.89927 5.68945 5.66097 5.68945Z" fill="#E2E2E2"/>
<path d="M0.591877 6.65332C0.354905 6.65332 0.161621 6.84118 0.161621 7.07438C0.161621 7.30759 0.353582 7.49545 0.591877 7.49545C0.830173 7.49545 1.02213 7.30759 1.02213 7.07438C1.02213 6.84118 0.830173 6.65332 0.591877 6.65332Z" fill="#E2E2E2"/>
<path d="M1.73812 6.65332C1.50115 6.65332 1.30786 6.84118 1.30786 7.07438C1.30786 7.30759 1.49982 7.49545 1.73812 7.49545C1.97641 7.49545 2.16837 7.30759 2.16837 7.07438C2.16837 6.84118 1.97641 6.65332 1.73812 6.65332Z" fill="#E2E2E2"/>
<path d="M1.07503 5.68945C0.83806 5.68945 0.644775 5.87731 0.644775 6.11052C0.644775 6.34372 0.836736 6.53158 1.07503 6.53158C1.31333 6.53158 1.50529 6.34372 1.50529 6.11052C1.50529 5.87731 1.31333 5.68945 1.07503 5.68945Z" fill="#E2E2E2"/>
<path d="M2.22274 5.68945C1.98577 5.68945 1.79248 5.87731 1.79248 6.11052C1.79248 6.34372 1.98444 6.53158 2.22274 6.53158C2.46103 6.53158 2.65299 6.34372 2.65299 6.11052C2.65299 5.87731 2.46103 5.68945 2.22274 5.68945Z" fill="#E2E2E2"/>
<path d="M7.46932 8.58105C7.23235 8.58105 7.03906 8.76891 7.03906 9.00212C7.03906 9.23532 7.23102 9.42318 7.46932 9.42318C7.70761 9.42318 7.89958 9.23532 7.89958 9.00212C7.89958 8.76891 7.70761 8.58105 7.46932 8.58105Z" fill="#E2E2E2"/>
<path d="M8.6158 8.58105C8.37883 8.58105 8.18555 8.76891 8.18555 9.00212C8.18555 9.23532 8.37751 9.42318 8.6158 9.42318C8.8541 9.42318 9.04606 9.23532 9.04606 9.00212C9.04606 8.76891 8.8541 8.58105 8.6158 8.58105Z" fill="#E2E2E2"/>
<path d="M9.76229 8.58105C9.52532 8.58105 9.33203 8.76891 9.33203 9.00212C9.33203 9.23532 9.52399 9.42318 9.76229 9.42318C10.0006 9.42318 10.1925 9.23532 10.1925 9.00212C10.1925 8.76891 10.0006 8.58105 9.76229 8.58105Z" fill="#E2E2E2"/>
<path d="M8.11531 7.61719C7.87834 7.61719 7.68506 7.80505 7.68506 8.03825C7.68506 8.27145 7.87702 8.45931 8.11531 8.45931C8.35361 8.45931 8.54557 8.27145 8.54557 8.03825C8.54557 7.80505 8.35361 7.61719 8.11531 7.61719Z" fill="#E2E2E2"/>
<path d="M9.2618 7.61719C9.02483 7.61719 8.83154 7.80505 8.83154 8.03825C8.83154 8.27145 9.0235 8.45931 9.2618 8.45931C9.5001 8.45931 9.69206 8.27145 9.69206 8.03825C9.69206 7.80505 9.5001 7.61719 9.2618 7.61719Z" fill="#E2E2E2"/>
<path d="M10.4083 7.61719C10.1713 7.61719 9.97803 7.80505 9.97803 8.03825C9.97803 8.27145 10.17 8.45931 10.4083 8.45931C10.6466 8.45931 10.8385 8.27145 10.8385 8.03825C10.8385 7.80505 10.6466 7.61719 10.4083 7.61719Z" fill="#E2E2E2"/>
<path d="M8.27669 9.54395C8.03972 9.54395 7.84644 9.7318 7.84644 9.96501C7.84644 10.1982 8.0384 10.3861 8.27669 10.3861C8.51499 10.3861 8.70695 10.1982 8.70695 9.96501C8.70695 9.7318 8.51499 9.54395 8.27669 9.54395Z" fill="#E2E2E2"/>
<path d="M9.42318 9.54395C9.1862 9.54395 8.99292 9.7318 8.99292 9.96501C8.99292 10.1982 9.18488 10.3861 9.42318 10.3861C9.66147 10.3861 9.85343 10.1982 9.85343 9.96501C9.85343 9.7318 9.66147 9.54395 9.42318 9.54395Z" fill="#E2E2E2"/>
<path d="M10.5697 9.54395C10.3327 9.54395 10.1394 9.7318 10.1394 9.96501C10.1394 10.1982 10.3314 10.3861 10.5697 10.3861C10.808 10.3861 10.9999 10.1982 10.9999 9.96501C10.9999 9.7318 10.808 9.54395 10.5697 9.54395Z" fill="#E2E2E2"/>
<path d="M6.32283 8.58105C6.08586 8.58105 5.89258 8.76891 5.89258 9.00212C5.89258 9.23532 6.08454 9.42318 6.32283 9.42318C6.56113 9.42318 6.75309 9.23532 6.75309 9.00212C6.75309 8.76891 6.56113 8.58105 6.32283 8.58105Z" fill="#E2E2E2"/>
<path d="M6.96883 7.61719C6.73186 7.61719 6.53857 7.80505 6.53857 8.03825C6.53857 8.27145 6.73053 8.45931 6.96883 8.45931C7.20713 8.45931 7.39909 8.27145 7.39909 8.03825C7.39909 7.80505 7.20713 7.61719 6.96883 7.61719Z" fill="#E2E2E2"/>
<path d="M7.13045 9.54395C6.89348 9.54395 6.7002 9.7318 6.7002 9.96501C6.7002 10.1982 6.89216 10.3861 7.13045 10.3861C7.36875 10.3861 7.56071 10.1982 7.56071 9.96501C7.56071 9.7318 7.36875 9.54395 7.13045 9.54395Z" fill="#E2E2E2"/>
<path d="M7.46932 6.65332C7.23235 6.65332 7.03906 6.84118 7.03906 7.07438C7.03906 7.30759 7.23102 7.49545 7.46932 7.49545C7.70761 7.49545 7.89958 7.30759 7.89958 7.07438C7.89958 6.84118 7.70761 6.65332 7.46932 6.65332Z" fill="#E2E2E2"/>
<path d="M8.6158 6.65332C8.37883 6.65332 8.18555 6.84118 8.18555 7.07438C8.18555 7.30759 8.37751 7.49545 8.6158 7.49545C8.8541 7.49545 9.04606 7.30759 9.04606 7.07438C9.04606 6.84118 8.8541 6.65332 8.6158 6.65332Z" fill="#E2E2E2"/>
<path d="M9.76229 6.65332C9.52532 6.65332 9.33203 6.84118 9.33203 7.07438C9.33203 7.30759 9.52399 7.49545 9.76229 7.49545C10.0006 7.49545 10.1925 7.30759 10.1925 7.07438C10.1925 6.84118 10.0006 6.65332 9.76229 6.65332Z" fill="#E2E2E2"/>
<path d="M7.95369 5.68945C7.71672 5.68945 7.52344 5.87731 7.52344 6.11052C7.52344 6.34372 7.7154 6.53158 7.95369 6.53158C8.19199 6.53158 8.38395 6.34372 8.38395 6.11052C8.38395 5.87731 8.19199 5.68945 7.95369 5.68945Z" fill="#E2E2E2"/>
<path d="M9.10018 5.68945C8.86321 5.68945 8.66992 5.87731 8.66992 6.11052C8.66992 6.34372 8.86188 6.53158 9.10018 6.53158C9.33847 6.53158 9.53043 6.34372 9.53043 6.11052C9.53043 5.87731 9.33715 5.68945 9.10018 5.68945Z" fill="#E2E2E2"/>
<path d="M10.2467 5.68945C10.0097 5.68945 9.81641 5.87731 9.81641 6.11052C9.81641 6.34372 10.0084 6.53158 10.2467 6.53158C10.485 6.53158 10.6769 6.34372 10.6769 6.11052C10.6769 5.87731 10.485 5.68945 10.2467 5.68945Z" fill="#E2E2E2"/>
<path d="M6.32283 6.65332C6.08586 6.65332 5.89258 6.84118 5.89258 7.07438C5.89258 7.30759 6.08454 7.49545 6.32283 7.49545C6.56113 7.49545 6.75309 7.30759 6.75309 7.07438C6.75309 6.84118 6.56113 6.65332 6.32283 6.65332Z" fill="#E2E2E2"/>
<path d="M6.80721 5.68945C6.57024 5.68945 6.37695 5.87731 6.37695 6.11052C6.37695 6.34372 6.56891 6.53158 6.80721 6.53158C7.04551 6.53158 7.23747 6.34372 7.23747 6.11052C7.23747 5.87731 7.04551 5.68945 6.80721 5.68945Z" fill="#E2E2E2"/>
<path d="M2.72323 4.78711C2.48625 4.78711 2.29297 4.97497 2.29297 5.20817C2.29297 5.44138 2.48493 5.62923 2.72323 5.62923C2.96152 5.62923 3.15348 5.44138 3.15348 5.20817C3.15348 4.97497 2.96152 4.78711 2.72323 4.78711Z" fill="#E2E2E2"/>
<path d="M3.86971 4.78711C3.63274 4.78711 3.43945 4.97497 3.43945 5.20817C3.43945 5.44138 3.63141 5.62923 3.86971 5.62923C4.10801 5.62923 4.29997 5.44138 4.29997 5.20817C4.29997 4.97497 4.10801 4.78711 3.86971 4.78711Z" fill="#E2E2E2"/>
<path d="M5.01473 4.78711C4.77776 4.78711 4.58447 4.97497 4.58447 5.20817C4.58447 5.44138 4.77643 5.62923 5.01473 5.62923C5.25302 5.62923 5.44499 5.44138 5.44499 5.20817C5.44499 4.97497 5.25302 4.78711 5.01473 4.78711Z" fill="#E2E2E2"/>
<path d="M3.368 3.82324C3.13103 3.82324 2.93774 4.0111 2.93774 4.2443C2.93774 4.47751 3.1297 4.66537 3.368 4.66537C3.6063 4.66537 3.79826 4.47751 3.79826 4.2443C3.79826 4.0111 3.6063 3.82324 3.368 3.82324Z" fill="#E2E2E2"/>
<path d="M4.51448 3.82324C4.27751 3.82324 4.08423 4.0111 4.08423 4.2443C4.08423 4.47751 4.27619 4.66537 4.51448 4.66537C4.75278 4.66537 4.94474 4.47751 4.94474 4.2443C4.94474 4.0111 4.75278 3.82324 4.51448 3.82324Z" fill="#E2E2E2"/>
<path d="M5.66097 3.82324C5.424 3.82324 5.23071 4.0111 5.23071 4.2443C5.23071 4.47751 5.42267 4.66537 5.66097 4.66537C5.89927 4.66537 6.09123 4.47751 6.09123 4.2443C6.09123 4.0111 5.89927 3.82324 5.66097 3.82324Z" fill="#E2E2E2"/>
<path d="M1.57674 4.78711C1.33977 4.78711 1.14648 4.97497 1.14648 5.20817C1.14648 5.44138 1.33844 5.62923 1.57674 5.62923C1.81504 5.62923 2.007 5.44138 2.007 5.20817C2.007 4.97497 1.81504 4.78711 1.57674 4.78711Z" fill="#E2E2E2"/>
<path d="M1.07503 3.82324C0.83806 3.82324 0.644775 4.0111 0.644775 4.2443C0.644775 4.47751 0.836736 4.66537 1.07503 4.66537C1.31333 4.66537 1.50529 4.47751 1.50529 4.2443C1.50529 4.0111 1.31333 3.82324 1.07503 3.82324Z" fill="#E2E2E2"/>
<path d="M2.22274 3.82324C1.98577 3.82324 1.79248 4.0111 1.79248 4.2443C1.79248 4.47751 1.98444 4.66537 2.22274 4.66537C2.46103 4.66537 2.65299 4.47751 2.65299 4.2443C2.65299 4.0111 2.46103 3.82324 2.22274 3.82324Z" fill="#E2E2E2"/>
<path d="M2.72323 2.86133C2.48625 2.86133 2.29297 3.04919 2.29297 3.28239C2.29297 3.51559 2.48493 3.70345 2.72323 3.70345C2.96152 3.70345 3.15348 3.51559 3.15348 3.28239C3.15348 3.04919 2.96152 2.86133 2.72323 2.86133Z" fill="#E2E2E2"/>
<path d="M3.86971 2.86133C3.63274 2.86133 3.43945 3.04919 3.43945 3.28239C3.43945 3.51559 3.63141 3.70345 3.86971 3.70345C4.10801 3.70345 4.29997 3.51559 4.29997 3.28239C4.29997 3.04919 4.10801 2.86133 3.86971 2.86133Z" fill="#E2E2E2"/>
<path d="M5.01473 2.86133C4.77776 2.86133 4.58447 3.04919 4.58447 3.28239C4.58447 3.51559 4.77643 3.70345 5.01473 3.70345C5.25302 3.70345 5.44499 3.51559 5.44499 3.28239C5.44499 3.04919 5.25302 2.86133 5.01473 2.86133Z" fill="#E2E2E2"/>
<path d="M3.368 1.89746C3.13103 1.89746 2.93774 2.08532 2.93774 2.31852C2.93774 2.55173 3.1297 2.73959 3.368 2.73959C3.6063 2.73959 3.79826 2.55173 3.79826 2.31852C3.79826 2.08532 3.6063 1.89746 3.368 1.89746Z" fill="#E2E2E2"/>
<path d="M4.51448 1.89746C4.27751 1.89746 4.08423 2.08532 4.08423 2.31852C4.08423 2.55173 4.27619 2.73959 4.51448 2.73959C4.75278 2.73959 4.94474 2.55173 4.94474 2.31852C4.94474 2.08532 4.75278 1.89746 4.51448 1.89746Z" fill="#E2E2E2"/>
<path d="M5.66097 1.89746C5.424 1.89746 5.23071 2.08532 5.23071 2.31852C5.23071 2.55173 5.42267 2.73959 5.66097 2.73959C5.89927 2.73959 6.09123 2.55173 6.09123 2.31852C6.09123 2.08532 5.89927 1.89746 5.66097 1.89746Z" fill="#E2E2E2"/>
<path d="M1.57674 3.7015C1.81436 3.7015 2.007 3.51298 2.007 3.28044C2.007 3.04789 1.81436 2.85938 1.57674 2.85938C1.33912 2.85938 1.14648 3.04789 1.14648 3.28044C1.14648 3.51298 1.33912 3.7015 1.57674 3.7015Z" fill="#E2E2E2"/>
<path d="M1.07503 1.89746C0.83806 1.89746 0.644775 2.08532 0.644775 2.31852C0.644775 2.55173 0.836736 2.73959 1.07503 2.73959C1.31333 2.73959 1.50529 2.55173 1.50529 2.31852C1.50529 2.08532 1.31333 1.89746 1.07503 1.89746Z" fill="#E2E2E2"/>
<path d="M2.22274 1.89746C1.98577 1.89746 1.79248 2.08532 1.79248 2.31852C1.79248 2.55173 1.98444 2.73959 2.22274 2.73959C2.46103 2.73959 2.65299 2.55173 2.65299 2.31852C2.65299 2.08532 2.46103 1.89746 2.22274 1.89746Z" fill="#E2E2E2"/>
<path d="M7.3077 4.78711C7.07073 4.78711 6.87744 4.97497 6.87744 5.20817C6.87744 5.44138 7.0694 5.62923 7.3077 5.62923C7.54599 5.62923 7.73795 5.44138 7.73795 5.20817C7.73795 4.97497 7.54599 4.78711 7.3077 4.78711Z" fill="#E2E2E2"/>
<path d="M8.45418 4.78711C8.21721 4.78711 8.02393 4.97497 8.02393 5.20817C8.02393 5.44138 8.21589 5.62923 8.45418 5.62923C8.69248 5.62923 8.88444 5.44138 8.88444 5.20817C8.88444 4.97497 8.69248 4.78711 8.45418 4.78711Z" fill="#E2E2E2"/>
<path d="M9.60067 4.78711C9.36369 4.78711 9.17041 4.97497 9.17041 5.20817C9.17041 5.44138 9.36237 5.62923 9.60067 5.62923C9.83896 5.62923 10.0309 5.44138 10.0309 5.20817C10.0309 4.97497 9.83896 4.78711 9.60067 4.78711Z" fill="#E2E2E2"/>
<path d="M7.95369 3.82324C7.71672 3.82324 7.52344 4.0111 7.52344 4.2443C7.52344 4.47751 7.7154 4.66537 7.95369 4.66537C8.19199 4.66537 8.38395 4.47751 8.38395 4.2443C8.38395 4.0111 8.19199 3.82324 7.95369 3.82324Z" fill="#E2E2E2"/>
<path d="M9.10018 3.82324C8.86321 3.82324 8.66992 4.0111 8.66992 4.2443C8.66992 4.47751 8.86188 4.66537 9.10018 4.66537C9.33847 4.66537 9.53043 4.47751 9.53043 4.2443C9.53043 4.0111 9.33715 3.82324 9.10018 3.82324Z" fill="#E2E2E2"/>
<path d="M10.2467 3.82324C10.0097 3.82324 9.81641 4.0111 9.81641 4.2443C9.81641 4.47751 10.0084 4.66537 10.2467 4.66537C10.485 4.66537 10.6769 4.47751 10.6769 4.2443C10.6769 4.0111 10.485 3.82324 10.2467 3.82324Z" fill="#E2E2E2"/>
<path d="M6.16121 4.78711C5.92424 4.78711 5.73096 4.97497 5.73096 5.20817C5.73096 5.44138 5.92292 5.62923 6.16121 5.62923C6.39951 5.62923 6.59147 5.44138 6.59147 5.20817C6.59147 4.97497 6.39951 4.78711 6.16121 4.78711Z" fill="#E2E2E2"/>
<path d="M6.80721 3.82324C6.57024 3.82324 6.37695 4.0111 6.37695 4.2443C6.37695 4.47751 6.56891 4.66537 6.80721 4.66537C7.04551 4.66537 7.23747 4.47751 7.23747 4.2443C7.23747 4.0111 7.04551 3.82324 6.80721 3.82324Z" fill="#E2E2E2"/>
<path d="M7.3077 2.86133C7.07073 2.86133 6.87744 3.04919 6.87744 3.28239C6.87744 3.51559 7.0694 3.70345 7.3077 3.70345C7.54599 3.70345 7.73795 3.51559 7.73795 3.28239C7.73795 3.04919 7.54599 2.86133 7.3077 2.86133Z" fill="#E2E2E2"/>
<path d="M8.45418 2.86133C8.21721 2.86133 8.02393 3.04919 8.02393 3.28239C8.02393 3.51559 8.21589 3.70345 8.45418 3.70345C8.69248 3.70345 8.88444 3.51559 8.88444 3.28239C8.88444 3.04919 8.69248 2.86133 8.45418 2.86133Z" fill="#E2E2E2"/>
<path d="M9.60067 2.86133C9.36369 2.86133 9.17041 3.04919 9.17041 3.28239C9.17041 3.51559 9.36237 3.70345 9.60067 3.70345C9.83896 3.70345 10.0309 3.51559 10.0309 3.28239C10.0309 3.04919 9.83896 2.86133 9.60067 2.86133Z" fill="#E2E2E2"/>
<path d="M7.95369 1.89746C7.71672 1.89746 7.52344 2.08532 7.52344 2.31852C7.52344 2.55173 7.7154 2.73959 7.95369 2.73959C8.19199 2.73959 8.38395 2.55173 8.38395 2.31852C8.38395 2.08532 8.19199 1.89746 7.95369 1.89746Z" fill="#E2E2E2"/>
<path d="M9.10018 1.89746C8.86321 1.89746 8.66992 2.08532 8.66992 2.31852C8.66992 2.55173 8.86188 2.73959 9.10018 2.73959C9.33847 2.73959 9.53043 2.55173 9.53043 2.31852C9.53043 2.08532 9.33715 1.89746 9.10018 1.89746Z" fill="#E2E2E2"/>
<path d="M10.2467 2.73763C10.4836 2.73763 10.6769 2.54977 10.6769 2.31657C10.6769 2.08337 10.485 1.89551 10.2467 1.89551C10.0084 1.89551 9.81641 2.08337 9.81641 2.31657C9.81641 2.54977 10.0084 2.73763 10.2467 2.73763Z" fill="#E2E2E2"/>
<path d="M6.16121 2.86133C5.92424 2.86133 5.73096 3.04919 5.73096 3.28239C5.73096 3.51559 5.92292 3.70345 6.16121 3.70345C6.39951 3.70345 6.59147 3.51559 6.59147 3.28239C6.59147 3.04919 6.39951 2.86133 6.16121 2.86133Z" fill="#E2E2E2"/>
<path d="M6.80721 1.89746C6.57024 1.89746 6.37695 2.08532 6.37695 2.31852C6.37695 2.55173 6.56891 2.73959 6.80721 2.73959C7.04551 2.73959 7.23747 2.55173 7.23747 2.31852C7.23747 2.08532 7.04551 1.89746 6.80721 1.89746Z" fill="#E2E2E2"/>
<path d="M2.72323 0.963867C2.48625 0.963867 2.29297 1.15173 2.29297 1.38493C2.29297 1.61813 2.48493 1.80599 2.72323 1.80599C2.96152 1.80599 3.15348 1.61813 3.15348 1.38493C3.15348 1.15173 2.96152 0.963867 2.72323 0.963867Z" fill="#E2E2E2"/>
<path d="M3.86971 0.963867C3.63274 0.963867 3.43945 1.15173 3.43945 1.38493C3.43945 1.61813 3.63141 1.80599 3.86971 1.80599C4.10801 1.80599 4.29997 1.61813 4.29997 1.38493C4.29997 1.15173 4.10801 0.963867 3.86971 0.963867Z" fill="#E2E2E2"/>
<path d="M5.01473 0.963867C4.77776 0.963867 4.58447 1.15173 4.58447 1.38493C4.58447 1.61813 4.77643 1.80599 5.01473 1.80599C5.25302 1.80599 5.44499 1.61813 5.44499 1.38493C5.44499 1.15173 5.25302 0.963867 5.01473 0.963867Z" fill="#E2E2E2"/>
<path d="M1.57674 0.963867C1.33977 0.963867 1.14648 1.15173 1.14648 1.38493C1.14648 1.61813 1.33844 1.80599 1.57674 1.80599C1.81504 1.80599 2.007 1.61813 2.007 1.38493C2.007 1.15173 1.81504 0.963867 1.57674 0.963867Z" fill="#E2E2E2"/>
<path d="M7.3077 0.963867C7.07073 0.963867 6.87744 1.15173 6.87744 1.38493C6.87744 1.61813 7.0694 1.80599 7.3077 1.80599C7.54599 1.80599 7.73795 1.61813 7.73795 1.38493C7.73795 1.15173 7.54599 0.963867 7.3077 0.963867Z" fill="#E2E2E2"/>
<path d="M8.45418 0.963867C8.21721 0.963867 8.02393 1.15173 8.02393 1.38493C8.02393 1.61813 8.21589 1.80599 8.45418 1.80599C8.69248 1.80599 8.88444 1.61813 8.88444 1.38493C8.88444 1.15173 8.69248 0.963867 8.45418 0.963867Z" fill="#E2E2E2"/>
<path d="M9.60067 0.963867C9.36369 0.963867 9.17041 1.15173 9.17041 1.38493C9.17041 1.61813 9.36237 1.80599 9.60067 1.80599C9.83896 1.80599 10.0309 1.61813 10.0309 1.38493C10.0309 1.15173 9.83896 0.963867 9.60067 0.963867Z" fill="#E2E2E2"/>
<path d="M6.16121 0.963867C5.92424 0.963867 5.73096 1.15173 5.73096 1.38493C5.73096 1.61813 5.92292 1.80599 6.16121 1.80599C6.39951 1.80599 6.59147 1.61813 6.59147 1.38493C6.59147 1.15173 6.39951 0.963867 6.16121 0.963867Z" fill="#E2E2E2"/>
</g>
</g>
<path d="M5.63055 10.1389C2.99738 10.1389 0.856689 8.0427 0.856689 5.46709C0.856689 2.89148 2.9987 0.793945 5.63055 0.793945C8.26239 0.793945 10.4044 2.89019 10.4044 5.46579C10.4044 8.0414 8.26239 10.1376 5.63055 10.1376V10.1389ZM5.63055 1.05306C3.14433 1.05306 1.12146 3.0327 1.12146 5.46579C1.12146 7.89889 3.14433 9.87853 5.63055 9.87853C8.11677 9.87853 10.1396 7.89889 10.1396 5.46579C10.1396 3.0327 8.11809 1.05306 5.63055 1.05306Z" fill="#F2F2F2"/>
<g style="mix-blend-mode:multiply">
<path d="M5.11142 7.06215C3.31891 5.67458 2.78274 3.10416 3.71342 1.1582C2.01622 1.88373 0.827393 3.54206 0.827393 5.46729C0.827393 8.05974 2.98265 10.1676 5.63038 10.1676C7.31169 10.1676 8.79177 9.31774 9.65096 8.03383C8.06762 8.27481 6.40749 8.06363 5.11142 7.06085V7.06215Z" fill="#F2F2F2"/>
</g>
<g style="mix-blend-mode:screen" opacity="0.2">
<path d="M5.83442 1.92191C4.6906 2.61375 6.44076 5.48733 8.68736 5.22174C10.934 4.95615 8.18958 0.496774 5.83442 1.92191Z" fill="white"/>
</g>
</g>
<defs>
<clipPath id="clip0_74_3266">
<rect width="11" height="14" fill="white"/>
</clipPath>
</defs>
</svg>
