<svg width="93" height="177" viewBox="0 0 93 177" fill="none" xmlns="http://www.w3.org/2000/svg">
<g clip-path="url(#clip0_74_3264)">
<path d="M33.8339 110.413L33.4384 111.418L29.4347 121.887L29.1258 121.9L24.1088 121.974L19.4749 116.491V116.318L19.6355 110.636L19.6973 108.168L23.5774 108.788L32.1657 110.153L33.8339 110.413Z" fill="#FF986E"/>
<path d="M29.1256 121.899C29.0515 122.135 28.965 122.395 28.8538 122.668C28.6561 123.164 28.2977 123.971 27.8034 125.025C27.3709 125.931 26.8396 127.035 26.2341 128.275C21.526 137.938 12.2334 156.098 9.87318 160.713C9.51482 161.408 9.31711 161.805 9.31711 161.805L4.83146 163.206L3.79346 159.2C3.79346 159.2 9.16882 142.627 10.1574 138.224C10.8741 135.023 11.7885 131.91 13.049 129.143C13.5185 128.101 14.0375 127.109 14.606 126.166C16.0518 123.81 17.8312 119.989 18.7951 117.843C19.1534 117.049 19.4006 116.478 19.4747 116.317C19.4871 116.28 19.4994 116.268 19.4994 116.268L27.2968 119.48C27.2968 119.48 30.3366 118.116 29.1256 121.899Z" fill="#FF986E"/>
<path d="M3.79358 159.199L9.88566 160.713C9.88566 160.713 12.7154 166.704 13.1356 167.399C13.5557 168.081 16.645 170.239 16.3979 171.753C16.1507 173.266 15.2734 174.643 14.6555 174.655C14.0377 174.668 0.667213 168.862 0.0122833 167.671C-0.271931 167.126 3.79358 159.199 3.79358 159.199Z" fill="#4D2D2D"/>
<path d="M33.4385 111.417L29.4348 121.887H29.1258C29.0517 122.123 28.9652 122.383 28.854 122.656C28.6563 123.152 28.2979 123.958 27.8036 125.013L13.0615 129.131C13.5311 128.089 14.0501 127.097 14.6185 126.154C16.0643 123.797 17.8437 119.977 18.8076 117.831C19.166 117.037 19.4131 116.466 19.4872 116.305L19.6479 110.624C20.8342 109.991 22.2182 109.309 23.5898 108.775C25.8018 107.907 27.9395 107.411 28.9899 108.155C30.1515 108.974 31.3007 109.532 32.1781 110.14C32.7094 110.524 33.1543 110.921 33.4385 111.417Z" fill="#F2794B"/>
<path d="M18.4614 79.1412C18.4491 79.7366 18.4367 80.4188 18.4367 81.1507C18.3379 90.1688 18.4614 108.317 18.6715 112.422C18.9063 116.851 36.3793 121.9 37.8127 114.891C38.8013 110.078 42.1995 94.0762 44.2508 84.4999C44.6833 82.4532 45.0664 80.6917 45.3383 79.4141C45.6595 77.9503 45.8325 77.082 45.8325 77.082L42.941 76.2261L19.8578 69.416C19.8702 69.4036 18.5479 74.4647 18.4614 79.1412Z" fill="#4D2D2D"/>
<path d="M39.4442 129.281C38.5915 141.648 36.3425 166.73 36.3425 166.73L32.7095 169.732L30.2381 166.408C30.2381 166.408 29.0024 149.029 28.2733 144.563C27.5442 140.098 27.223 135.669 27.8779 131.712C28.3351 128.983 28.5452 124.778 28.6317 122.421C28.6687 121.367 28.6935 120.685 28.6935 120.685L37.121 120.722C37.121 120.722 39.716 118.005 39.7655 123.091C39.7778 124.071 39.6543 126.304 39.4442 129.281Z" fill="#FF986E"/>
<path d="M28.6933 120.684L26.605 112.621L40.8034 110.835L39.7654 123.091L34.6742 124.654L28.6933 120.684Z" fill="#FF986E"/>
<path d="M63.3675 93.4811C63.3675 93.4811 64.4673 95.6519 64.492 96.483C64.5167 97.3141 63.5158 97.8599 62.9597 99.0259C62.4036 100.192 61.724 102.313 60.6242 101.656C59.5368 100.998 56.5711 99.733 56.6205 97.5374C56.6699 95.5403 57.0901 94.2254 57.0901 94.2254L60.6613 89.7598L63.3675 93.4811Z" fill="#F2794B"/>
<path d="M45.0418 67.4435C45.0418 67.4435 44.8565 70.2965 48.2423 77.9377C51.6159 85.5913 57.0901 94.2248 57.0901 94.2248L61.6128 92.2897C61.6128 92.2897 55.4589 72.7898 54.5939 70.3462C53.7289 67.9025 53.3706 67.1582 53.3706 67.1582L45.0418 67.4435Z" fill="#F2794B"/>
<path d="M82.8672 169.086L84.177 168.714L66.6422 106.158C66.5804 105.947 66.3703 105.823 66.1603 105.885L65.6042 106.046C65.3941 106.108 65.2706 106.319 65.3323 106.53L82.8672 169.086Z" fill="#CACACA"/>
<path d="M66.3332 107.573C66.8275 107.436 67.1118 106.927 66.9635 106.431L62.2183 89.5115C62.1565 89.3007 61.9465 89.1766 61.7364 89.2387L60.7231 89.524C60.513 89.586 60.3895 89.7969 60.4512 90.0077L65.1964 106.927C65.3323 107.424 65.839 107.709 66.3332 107.573Z" fill="#4D2D2D"/>
<path d="M83.2702 170.557L84.5786 170.188L83.9827 168.062L82.6743 168.432L83.2702 170.557Z" fill="#4D2D2D"/>
<path d="M86.4878 176.938L84.4983 169.855L83.1885 170.228L84.8073 175.983C85.005 176.728 85.7588 177.149 86.4878 176.938Z" fill="#CACACA"/>
<path d="M90.961 170.637L84.906 173.069L86.4877 176.951L90.9116 175.698C92.4439 175.264 93.3336 173.664 92.9011 172.126L92.7281 171.493C92.5057 170.737 91.6777 170.34 90.961 170.637Z" fill="#CACACA"/>
<path d="M30.2502 166.407L36.4659 165.502C36.4659 165.502 41.3346 169.992 41.9772 170.464C42.6198 170.948 46.2898 171.766 46.6358 173.267C46.9818 174.756 46.6853 176.368 46.1045 176.616C45.536 176.864 30.9793 176.542 29.9166 175.674C29.447 175.289 30.2502 166.407 30.2502 166.407Z" fill="#4D2D2D"/>
<path d="M18.5974 81.5848C18.6592 82.1802 18.7457 82.8501 18.8198 83.5819C19.8702 92.538 22.2922 110.525 23.0213 114.568C23.8121 118.935 41.7794 121.713 42.3232 114.568C42.6939 109.669 44.0408 93.3567 44.8564 83.5944C45.0294 81.5104 45.1777 79.7117 45.2889 78.4093C45.4124 76.9083 45.4866 76.0276 45.4866 76.0276L42.5085 75.5562L18.7581 71.748C18.7581 71.748 18.0908 76.9331 18.5974 81.5848Z" fill="#6E4040"/>
<path d="M63.3921 3.6102C63.3921 3.6102 63.5651 1.53864 65.3816 0.744754C67.1981 -0.0491346 69.0146 1.22853 69.7684 1.26574C70.5222 1.30296 72.0668 -0.0863482 74.2417 0.0128879C76.4289 0.0997195 77.1209 2.28291 77.7882 2.87833C78.4555 3.47375 81.0875 3.36211 82.2368 4.94988C84.7082 8.37353 80.5191 10.5815 80.5191 10.5815L63.3921 3.6102Z" fill="#FFE5CC"/>
<path d="M74.4518 21.1875C74.4518 21.1875 73.5251 24.5863 73.0926 25.0453C72.6724 25.5043 69.6943 23.5071 69.6943 23.5071L74.4518 21.1875Z" fill="#F2794B"/>
<path d="M67.7542 21.8331L59.9568 30.0821L57.0405 29.5983L53.0615 23.1728L61.6868 14.0059L64.8132 18.0249L65.2457 18.5707L67.7542 21.8331Z" fill="#FF986E"/>
<path d="M67.7541 21.8333L59.9568 30.0823C59.8703 28.3332 59.7714 25.4182 59.9444 23.6195C60.2163 20.9401 61.6003 16.9707 61.6003 16.9707C61.6003 16.9707 63.3674 17.4917 64.8131 18.0375L65.2333 18.5833L67.7541 21.8333Z" fill="#F2794B"/>
<path d="M79.2216 13.5219C79.2216 13.5219 80.2102 11.6488 80.4697 10.7929C81.5324 7.24519 63.3921 3.49902 63.3921 3.49902C63.3921 3.49902 67.1857 7.95224 67.3835 8.13831C67.5812 8.32438 79.2216 13.5219 79.2216 13.5219Z" fill="#7393BA"/>
<path d="M61.7734 5.83105C61.7734 5.83105 60.1422 7.08391 59.5985 10.2098C59.0918 13.1001 60.377 15.3825 60.377 15.3825L67.0993 6.7862L61.7734 5.83105Z" fill="#FFE5CC"/>
<path d="M77.9365 15.569C77.9365 15.569 75.5145 21.2999 70.5592 25.3065C68.7675 26.7578 65.8264 27.713 63.7752 26.2617C62.5642 25.4057 60.5747 23.2474 60.3152 19.067C60.0804 15.3581 62.7989 10.9917 62.7989 10.9917L66.3702 6.51367L77.3928 14.3533L77.9365 15.569Z" fill="#FF986E"/>
<path d="M70.4729 24.5491C70.4358 24.5491 70.4111 24.5367 70.374 24.5243C70.3122 24.4995 69.7562 24.2266 69.126 23.1102C69.0642 22.9986 69.1012 22.8497 69.2125 22.7877C69.3237 22.7257 69.472 22.7629 69.5337 22.8745C70.0775 23.8545 70.5594 24.0902 70.5594 24.0902C70.6706 24.1522 70.7324 24.2886 70.6706 24.4003C70.6459 24.4995 70.5594 24.5491 70.4729 24.5491Z" fill="#F2794B"/>
<path d="M76.1446 18.3476C76.2187 18.2111 76.2311 18.0126 76.1693 17.8638C76.021 17.4668 75.6009 17.0327 75.3043 16.7474C74.8471 16.3132 74.2416 15.8294 73.599 15.755C73.3024 15.7178 73.1294 15.7674 72.9688 16.0403C72.8452 16.2636 73.08 16.4497 73.2283 16.5737C73.4754 16.7722 73.7349 16.9707 73.9821 17.1691C74.5258 17.6033 75.0819 18.025 75.6256 18.4592C75.8727 18.6205 76.0457 18.5336 76.1446 18.3476Z" fill="#FFE5CC"/>
<path d="M67.0376 11.7477C67.0376 11.7477 68.1745 13.2859 68.8047 13.1246C69.4225 12.9634 71.6839 10.2468 71.6839 10.2468L69.6697 9.19238L67.0376 11.7477Z" fill="#FFE5CC"/>
<path d="M72.3016 19.0792C72.5611 18.7567 73.0307 18.5086 73.2284 18.9303C73.3767 19.2404 73.006 19.625 72.7465 19.7614C72.4746 19.8979 72.0792 19.8483 72.1039 19.4761C72.1286 19.3521 72.2027 19.2032 72.3016 19.0792Z" fill="#4D2D2D"/>
<path d="M66.9881 11.8224C66.9881 11.8224 67.3218 12.0705 65.1346 14.2289C62.935 16.3873 60.3894 15.3949 60.3894 15.3949L61.2791 9.65162C61.2791 9.65162 64.8627 7.23274 65.0357 7.26996C65.2087 7.31957 69.1877 9.98654 69.1136 10.0982C69.0394 10.2098 68.2733 11.3262 68.1744 11.3758C68.0632 11.4379 66.9881 11.8224 66.9881 11.8224Z" fill="#FFE5CC"/>
<path d="M67.7049 12.4921C67.7049 12.4921 66.9882 10.9788 65.2705 11.6362C63.7506 12.2192 63.6764 14.1419 64.1954 15.4692C64.7021 16.7965 67.2971 18.161 67.2971 18.161L67.7049 12.4921Z" fill="#FF986E"/>
<path d="M64.9246 15.5929C64.8134 15.5929 64.7145 15.5185 64.6898 15.4068C64.6651 15.2828 64.7392 15.1463 64.8628 15.1215C64.8752 15.1215 65.7649 14.8982 66.3704 14.2656C66.9512 13.6578 66.7905 12.5538 66.7905 12.5414C66.7658 12.4173 66.8523 12.2933 66.9882 12.2685C67.1118 12.2437 67.2354 12.3429 67.2601 12.4669C67.2724 12.5166 67.4578 13.819 66.7164 14.6005C65.9997 15.3448 65.0111 15.5805 64.974 15.5929C64.9616 15.5929 64.9493 15.5929 64.9246 15.5929Z" fill="#F2794B"/>
<path d="M61.7734 5.83107L77.6895 16.102L79.2217 13.5219L63.3922 3.49902L61.7734 5.83107Z" fill="#7393BA"/>
<path d="M79.2216 13.522C79.2216 13.522 84.3993 18.6202 83.7938 19.8111C83.2006 21.0143 73.2655 13.2367 73.2655 13.2367L72.5735 10.21L79.2216 13.522Z" fill="#7393BA"/>
<path d="M61.5386 28.3701C60.5377 26.6954 56.744 22.0934 53.7659 21.2375C50.5654 20.3071 44.9306 22.1306 36.9849 33.5675C32.9812 39.3356 28.0013 48.2917 26.1106 51.3804C24.2076 54.4816 19.3142 65.7449 18.2762 68.0397C17.2505 70.3469 16.299 72.803 20.97 74.5521C25.641 76.3011 24.2941 74.9242 30.4603 77.1446C36.6266 79.365 44.8564 81.3621 46.4381 80.3202C48.0199 79.2906 54.2602 61.8002 56.0767 59.0216C57.8932 56.243 64.1336 43.0074 64.1583 37.2145C64.1707 32.8357 63.2562 31.2355 61.5386 28.3701Z" fill="#AAD0EA"/>
<path d="M65.6413 94.5479C65.6413 94.5479 66.4198 96.8551 66.3333 97.6738C66.2468 98.4925 65.1717 98.9019 64.4673 99.9811C63.763 101.06 62.7868 103.057 61.7982 102.251C60.8096 101.445 58.054 99.7826 58.4 97.6118C58.7213 95.6395 59.3144 94.399 59.3144 94.399L63.4664 90.4668L65.6413 94.5479Z" fill="#FF986E"/>
<path d="M60.8218 52.5208L59.3637 67.0961L51.1709 67.7535C51.1709 67.7535 50.8249 63.1142 50.8002 59.3556C50.7755 57.3709 51.1709 51.6152 51.1709 51.6152L60.8218 52.5208Z" fill="#FF986E"/>
<path d="M51.072 66.2158C51.072 66.2158 50.4913 69.0192 52.7897 77.0574C55.0881 85.0955 59.3143 94.4113 59.3143 94.4113L64.0594 93.1336C64.0594 93.1336 60.6489 72.9763 60.1299 70.4334C59.6108 67.8904 59.3513 67.1089 59.3513 67.1089L51.072 66.2158Z" fill="#FF986E"/>
<path d="M64.1213 37.9581C64.1213 37.9581 62.6631 59.9016 61.6869 61.1421C60.6983 62.3825 51.3563 62.2089 49.6634 60.3482C47.9581 58.4875 47.6368 51.4542 47.8098 50.1517C47.9828 48.8492 51.9371 38.6527 51.7394 38.0573C51.5293 37.4495 64.1213 37.9581 64.1213 37.9581Z" fill="#AAD0EA"/>
<path d="M49.651 60.5965C49.5769 60.5965 49.5028 60.5593 49.4533 60.4972C49.4163 60.4352 48.4153 59.0335 48.1435 57.21C47.9458 55.8455 49.0455 47.5097 49.8488 41.4315C49.9723 40.5012 50.0835 39.6452 50.1824 38.8886C50.9115 33.3437 55.7678 30.5527 55.8173 30.5279C55.9285 30.4659 56.0768 30.5031 56.1386 30.6148C56.2003 30.7264 56.1633 30.8753 56.0521 30.9373C56.0026 30.9621 51.344 33.6415 50.652 38.9506C50.5531 39.7073 50.4419 40.5632 50.3183 41.4935C49.5645 47.1996 48.4153 55.8331 48.613 57.1356C48.8725 58.8474 49.8364 60.1995 49.8488 60.2119C49.9229 60.3236 49.8982 60.4724 49.7993 60.5468C49.7499 60.5841 49.7005 60.5965 49.651 60.5965Z" fill="white"/>
<path d="M53.0615 21.4478C53.0615 21.4478 55.2982 18.6568 56.2744 18.8429C57.2506 19.029 60.377 22.8371 61.7486 25.6034C62.5395 27.1911 62.7001 30.8753 62.7001 30.8753C62.7001 30.8753 58.6717 28.2455 58.0415 27.7245C57.4112 27.2035 53.0615 21.4478 53.0615 21.4478Z" fill="#AAD0EA"/>
</g>
<defs>
<clipPath id="clip0_74_3264">
<rect width="93" height="177" fill="white"/>
</clipPath>
</defs>
</svg>
