<svg width="218" height="146" viewBox="0 0 218 146" fill="none" xmlns="http://www.w3.org/2000/svg">
<g clip-path="url(#clip0_74_3244)">
<path d="M218 136.655L208.144 144.601C208.144 144.601 206.721 144.113 207.655 142.359C208.189 141.361 208.856 139.874 209.568 138.453C210.102 137.41 210.681 136.389 211.237 135.612C212.038 134.525 215.352 133.393 215.352 133.393L215.597 133.703L218 136.655Z" fill="#DB5A85"/>
<path d="M181.826 79.991C181.515 87.271 189.991 108.712 189.991 108.712L211.037 136.678L215.619 133.703L199.891 102.852C199.891 102.852 197.399 83.0096 197.088 76.4176C196.754 70.0032 182.493 64.7873 181.826 79.991Z" fill="#E88562"/>
<path d="M215.597 133.703C214.151 135.346 211.437 138.253 210.236 138.431C209.991 138.475 209.746 138.475 209.546 138.453C210.08 137.41 210.658 136.389 211.214 135.612C212.015 134.525 215.33 133.393 215.33 133.393L215.597 133.703Z" fill="#E88562"/>
<path d="M208.434 117.857L196.598 123.871L185.719 107.114C185.719 107.114 178.6 79.4366 181.826 75.3971C185.052 71.3576 192.06 67.6732 194.707 70.3144C200.002 75.5747 198.222 97.7921 200.336 100.877C205.186 107.869 208.434 117.857 208.434 117.857Z" fill="#235275"/>
<path d="M176.064 21.7508L178.556 31.561L186.409 29.1196L182.249 19.5312L176.064 21.7508Z" fill="#F69F72"/>
<path d="M187.121 17.9332C186.431 20.3525 183.806 23.9703 183.806 23.9703C183.806 23.9703 178.044 26.3452 175.174 25.1466C172.638 24.1034 172.149 17.9998 172.46 12.8727C172.504 12.1846 172.549 11.4966 172.638 10.8529C172.727 10.0095 173.038 9.32145 173.528 8.76657C175.753 6.16973 181.537 6.34729 184.763 7.65681C188.7 9.23267 187.321 17.2229 187.121 17.9332Z" fill="#F69F72"/>
<path d="M177.821 21.374C176.064 24.5923 174.306 21.5738 174.306 21.4406C174.306 21.4406 175.953 21.5738 177.821 21.374Z" fill="white"/>
<path d="M175.997 20.1753C175.619 20.1753 175.152 20.0866 174.952 19.7536C174.774 19.4651 174.929 19.1766 175.13 18.8436C175.374 18.4219 175.708 17.8226 175.708 16.8017C175.708 16.7573 175.753 16.7129 175.797 16.7129C175.842 16.7129 175.886 16.7573 175.886 16.8017C175.886 17.8892 175.53 18.4885 175.263 18.9324C175.063 19.2875 174.974 19.4651 175.085 19.6427C175.374 20.1531 176.509 19.909 176.509 19.909C176.554 19.909 176.62 19.9312 176.62 19.9756C176.62 20.02 176.598 20.0866 176.553 20.0866C176.576 20.131 176.309 20.1753 175.997 20.1753Z" fill="#A56050"/>
<path d="M179.757 16.0471C179.735 16.0471 179.713 16.0471 179.69 16.0249C178.845 15.3812 178.089 15.3147 177.354 15.8695C177.31 15.8917 177.243 15.8917 177.221 15.8473C177.199 15.803 177.199 15.7364 177.243 15.7142C178.044 15.1149 178.912 15.1815 179.824 15.8917C179.868 15.9139 179.868 15.9805 179.846 16.0249C179.802 16.0249 179.779 16.0471 179.757 16.0471Z" fill="#31150E"/>
<path d="M178.956 15.8694C178.934 16.2689 178.622 16.5575 178.222 16.5575C177.821 16.5353 177.532 16.2245 177.532 15.825C177.554 15.4255 177.866 15.4033 178.244 15.4033C178.645 15.4255 178.956 15.4921 178.956 15.8694Z" fill="#32160F"/>
<path d="M175.441 16.091C175.419 16.091 175.397 16.091 175.374 16.0688C174.529 15.4252 173.773 15.3586 173.038 15.9135C172.994 15.9357 172.927 15.9357 172.905 15.8913C172.883 15.8469 172.883 15.7803 172.927 15.7581C173.728 15.1588 174.596 15.2254 175.508 15.9357C175.552 15.9579 175.552 16.0245 175.53 16.0688C175.508 16.0688 175.463 16.091 175.441 16.091Z" fill="#31150E"/>
<path d="M174.64 15.9134C174.618 16.3129 174.306 16.6014 173.906 16.6014C173.506 16.5792 173.216 16.2685 173.216 15.869C173.239 15.4695 173.55 15.4473 173.928 15.4473C174.329 15.4695 174.662 15.536 174.64 15.9134Z" fill="#32160F"/>
<path d="M180.202 14.7375C180.113 14.8263 179.512 14.5821 178.778 14.5377C178.044 14.4711 177.421 14.5377 177.31 14.3158C177.199 14.0938 177.91 13.7387 178.823 13.9163C179.757 14.116 180.291 14.6709 180.202 14.7375Z" fill="#E7E6E4"/>
<path d="M172.771 14.7375C172.86 14.8263 173.461 14.5821 174.195 14.5377C174.929 14.4711 175.552 14.5377 175.663 14.3158C175.775 14.0938 175.063 13.7387 174.151 13.9163C173.216 14.116 172.682 14.6709 172.771 14.7375Z" fill="#E7E6E4"/>
<path d="M181.893 18.2661C182.315 18.71 182.137 19.5312 181.537 20.1083C180.914 20.6854 180.091 20.7742 179.668 20.3302C179.245 19.8863 179.423 19.0651 180.024 18.488C180.669 17.9332 181.492 17.8222 181.893 18.2661Z" fill="#E88562"/>
<path d="M177.065 25.4799C177.065 25.4799 180.358 25.4577 182.449 23.8818C181.937 25.8572 180.447 26.7006 177.621 27.8104C177.399 26.9226 177.065 25.4799 177.065 25.4799Z" fill="#E88562"/>
<path d="M150.724 141.094L150.635 141.449L149.701 145.178L137.71 144.002C137.71 144.002 137.042 142.67 138.911 142.071C139.912 141.738 141.314 141.205 142.715 140.739C143.939 140.317 145.163 139.962 146.208 139.785C147.565 139.585 150.724 141.094 150.724 141.094Z" fill="#DB5A85"/>
<path d="M145.763 139.895L158.978 101.409C158.978 101.409 168.567 80.2792 174.774 74.6194C178.845 70.9128 183.317 69.5145 188.122 70.0694C192.549 70.5799 194.373 77.305 190.28 82.0326C182.049 91.5543 176.509 98.4126 170.436 106.225C165.808 119.631 150.747 141.072 150.747 141.072L145.763 139.895Z" fill="#F7A072"/>
<path d="M150.725 141.094L150.636 141.449C148.633 141.627 146.075 141.76 144.362 141.449C143.583 141.316 143.072 141.05 142.738 140.739C143.961 140.317 145.185 139.962 146.231 139.785C147.565 139.585 150.725 141.094 150.725 141.094Z" fill="#F7A072"/>
<path d="M186.187 12.6285L183.917 16.4017C183.917 16.4017 183.828 15.8246 181.67 15.1587C180.825 14.8924 180.046 13.1612 179.446 12.5397C178.867 11.896 177.243 12.5397 175.419 12.806C174.151 12.9836 172.994 12.917 172.416 12.8504C172.46 12.1624 172.505 11.4743 172.594 10.8307C172.682 9.98725 172.994 9.2992 173.483 8.74432L174.974 8.67773L182.694 9.60993L186.187 12.6285Z" fill="#E88562"/>
<path d="M194.751 20.0863C193.839 27.3885 188.5 27.4329 185.986 27.9878C183.049 28.4095 183.45 24.6363 183.717 19.5536C183.784 18.5104 183.828 17.4007 183.828 16.2465C183.828 15.7582 183.517 15.4919 183.094 15.2699C182.516 14.9814 181.715 14.8038 181.292 14.3155L181.27 14.2933C180.224 13.0282 179.824 11.297 179.824 11.297C179.824 11.297 172.86 13.1836 171.503 12.1626C171.258 11.985 171.147 11.5633 171.192 11.0306C171.303 8.50038 174.329 3.19573 180.113 5.70379C181.181 3.72842 189.256 4.37208 189.746 9.18844C190.013 11.6521 191.281 13.2724 192.505 14.7594C193.817 16.3575 195.041 17.8224 194.751 20.0863Z" fill="#DBDBDB"/>
<path d="M182.716 17.7776C182.738 16.8675 183.517 16.1795 184.407 16.2017C185.319 16.2239 186.008 17.0007 185.986 17.8885C185.964 18.7985 185.185 19.4866 184.295 19.4644C183.383 19.4422 182.671 18.6876 182.716 17.7776Z" fill="#F69F72"/>
<path d="M185.252 18.2659C185.029 18.732 184.54 18.9762 184.051 18.8874C183.962 18.8652 183.873 18.7764 184.006 18.7764C184.407 18.7542 184.785 18.5323 184.963 18.1328C185.141 17.7333 185.074 17.2894 184.807 16.9786C184.74 16.8898 184.807 16.8676 184.874 16.8898C185.319 17.2006 185.474 17.7777 185.252 18.2659Z" fill="#E88562"/>
<path d="M184.407 17.5557C184.407 17.5557 184.896 18.1549 185.007 18.1105C185.119 18.0662 184.941 18.3547 184.941 18.3547C184.941 18.3547 184.384 18.044 184.407 17.5557Z" fill="#E88562"/>
<path d="M188.166 25.4799L188.055 25.4577C188.545 23.6599 189.012 13.7608 185.23 12.4291C182.849 11.5857 181.492 7.79031 181.448 7.61275L181.559 7.56836C181.581 7.61275 182.938 11.4747 185.274 12.2959C189.123 13.672 188.656 23.6821 188.166 25.4799Z" fill="#C1C5C6"/>
<path d="M176.62 11.6739L176.553 11.5629C176.576 11.5407 179.379 9.89826 179.891 6.70215L180.024 6.72434C179.49 9.98704 176.642 11.6739 176.62 11.6739Z" fill="#C1C5C6"/>
<path d="M172.304 11.319C172.037 6.43609 177.977 5.99219 178.044 5.99219V6.12536C177.977 6.12536 172.171 6.56926 172.415 11.3412L172.304 11.319Z" fill="#C1C5C6"/>
<path d="M191.103 23.9041C191.103 23.7932 190.191 11.7412 187.477 9.23312C184.763 6.72506 182.204 6.56969 182.16 6.56969V6.43652C182.182 6.43652 184.785 6.59189 187.543 9.12214C190.302 11.6746 191.17 23.3937 191.214 23.8819L191.103 23.9041Z" fill="#C1C5C6"/>
<path d="M183.138 69.4043L180.246 78.3934L184.028 80.2799C184.028 80.2799 189.746 70.8914 189.568 70.7582C189.523 70.736 189.167 70.625 188.634 70.5141C186.832 70.1367 183.138 69.4043 183.138 69.4043Z" fill="#F7A072"/>
<path d="M182.538 71.2903L188.545 72.7551L189.012 71.9339L182.961 70.0029L182.538 71.2903Z" fill="#E88562"/>
<path d="M167.41 121.829L152.215 115.06L159.801 99.1013C159.801 99.1013 173.283 70.5582 178.444 70.5139C183.628 70.4695 190.836 68.6717 193.461 71.3573C198.956 76.9948 185.163 91.222 178.444 99.6783C173.417 106.048 167.41 121.829 167.41 121.829Z" fill="#26547C"/>
<path d="M198.712 79.0143C194.373 80.457 189.434 80.4792 185.007 79.9465C179.423 79.2584 174.618 77.6826 172.771 76.8392C172.393 76.6616 172.126 76.5284 172.015 76.4174C171.926 76.3287 171.926 76.2843 172.059 76.2843C172.616 74.7528 172.927 72.9994 173.083 71.1572C173.772 62.3457 170.591 51.0927 170.791 47.5637C170.992 45.1444 172.037 40.1727 174.262 35.9556C175.953 32.7817 178.289 30.0295 181.47 29.0973C183.939 28.1429 185.741 28.4314 187.21 29.519C188.522 30.5178 189.59 32.1602 190.614 34.1134C192.215 37.1541 193.55 41.0161 194.618 45.1666C198.356 59.3937 199.245 77.3053 198.712 79.0143Z" fill="#D6D4D2"/>
<path d="M187.21 29.4972C178.355 32.7155 177.11 35.7119 174.262 35.9338C175.953 32.7599 178.289 30.0077 181.47 29.0755C183.939 28.0989 185.742 28.4096 187.21 29.4972Z" fill="#F69F72"/>
<path d="M198.712 79.0149C194.396 80.5464 189.434 80.5464 185.007 79.9471C179.401 79.1925 174.596 77.5279 172.771 76.8398C172.26 76.64 171.993 76.5291 171.993 76.5291C171.993 76.5291 172.015 76.4847 172.037 76.4181C172.037 76.3737 172.059 76.3293 172.082 76.2849C172.282 75.6191 172.794 73.7103 173.105 71.1578C173.261 69.8261 173.35 68.3168 173.305 66.7188C180.625 63.7002 191.637 57.6632 193.728 48.1858C194.017 46.8763 194.329 45.8775 194.663 45.1895C198.356 59.3944 199.245 77.3059 198.712 79.0149Z" fill="#BFBBB6"/>
<path d="M194.752 20.0863C193.839 27.3886 188.5 27.433 185.986 27.9878C183.05 28.4095 183.45 24.6364 183.717 19.5537C184.184 21.5068 185.141 24.3034 186.409 24.1703C191.17 23.6598 193.328 20.4415 192.482 14.7373C193.817 16.3576 195.041 17.8224 194.752 20.0863Z" fill="#C1C5C6"/>
<path d="M177.05 84.6173C177.569 82.4223 176.207 80.2227 174.007 79.7044C171.807 79.1861 169.602 80.5453 169.082 82.7404C168.563 84.9354 169.925 87.135 172.125 87.6533C174.326 88.1716 176.53 86.8124 177.05 84.6173Z" fill="#999999"/>
<path d="M189.902 40.4834L190.347 61.7243L177.532 83.298L173.35 81.3448L182.16 59.4825C182.16 59.4825 180.758 42.7474 181.159 39.9286C181.537 37.0654 187.855 29.1195 189.902 40.4834Z" fill="#F69F72"/>
<path d="M178.689 41.8596C179.134 44.9669 178.823 50.427 180.402 54.5331C186.743 54.5775 188.122 54.6219 191.704 53.8228C191.192 47.9411 189.501 37.2652 188.7 35.5784C187.321 32.582 176.82 29.1418 178.689 41.8596Z" fill="#D6D4D2"/>
<path d="M191.637 54.1778C191.147 51.137 188.856 36.1109 188.834 35.9555L189.056 35.9111C189.078 36.0665 191.37 51.0704 191.859 54.1334L191.637 54.1778Z" fill="#BFBBB6"/>
<path d="M174.039 80.6348L171.703 83.7865C171.726 83.7421 170.458 85.6509 170.168 86.5165C170.057 86.8494 170.146 87.4043 171.17 87.4265C171.236 87.9814 172.26 88.0036 172.26 88.0036C172.26 88.0036 172.593 88.6916 173.216 88.4919C173.683 89.2465 174.017 89.2687 175.686 87.715C176.086 87.3377 176.954 86.6053 177.221 86.0948C177.643 85.2958 177.844 82.2772 177.844 82.2772L174.039 80.6348Z" fill="#F7A072"/>
<path d="M173.817 81.0345C174.306 80.2799 172.371 81.8113 171.948 82.2996C171.615 82.677 171.303 83.5204 170.747 83.9199C170.191 84.3194 169.434 85.1184 169.279 85.407C169.145 85.6733 168.989 85.9396 169.345 85.9618C169.679 85.9618 171.481 85.185 171.481 85.185L173.528 82.2774L173.817 81.0345Z" fill="#F7A072"/>
<path d="M170.613 85.5843H170.591C170.569 85.5621 170.569 85.5399 170.569 85.5177L171.837 83.6755C171.859 83.6533 171.881 83.6533 171.904 83.6533C171.926 83.6755 171.926 83.6977 171.926 83.7199L170.658 85.5621C170.658 85.5621 170.636 85.5843 170.613 85.5843Z" fill="#A56050"/>
<path d="M171.17 87.4705C171.147 87.4705 171.147 87.4705 171.125 87.4483C171.103 87.4261 171.103 87.4039 171.125 87.3595L172.616 85.4063C172.638 85.3841 172.66 85.3841 172.705 85.4063C172.727 85.4285 172.727 85.4507 172.705 85.4951L171.214 87.4483C171.192 87.4483 171.192 87.4705 171.17 87.4705Z" fill="#A56050"/>
<path d="M172.215 88.0478C172.193 88.0478 172.193 88.0478 172.171 88.0256C172.148 88.0034 172.148 87.959 172.171 87.9368L173.839 86.1612C173.862 86.139 173.906 86.139 173.928 86.1612C173.951 86.1834 173.951 86.2278 173.928 86.25L172.26 88.0256C172.26 88.0478 172.237 88.0478 172.215 88.0478Z" fill="#A56050"/>
<path d="M173.194 88.5144C173.172 88.5144 173.172 88.5144 173.149 88.4922C173.127 88.47 173.127 88.4256 173.149 88.4034L174.84 86.9385C174.863 86.9163 174.907 86.9163 174.929 86.9385C174.952 86.9607 174.952 87.0051 174.929 87.0273L173.238 88.4922C173.238 88.5144 173.216 88.5144 173.194 88.5144Z" fill="#A56050"/>
<path d="M181.848 56.4414L190.213 55.8199L190.191 54.1553L181.759 54.3772L181.848 56.4414Z" fill="#E88562"/>
<path d="M115.352 80.2575C117.834 80.2575 119.846 78.3893 119.846 76.0848C119.846 73.7803 117.834 71.9121 115.352 71.9121C112.87 71.9121 110.858 73.7803 110.858 76.0848C110.858 78.3893 112.87 80.2575 115.352 80.2575Z" fill="#6B473D"/>
<path d="M14.8388 118.433L14.5496 118.211C14.6163 118.1 22.2693 107.668 32.2583 99.0788C38.1316 94.0405 43.6711 90.6002 48.7212 88.8912C55.0617 86.7383 60.6234 87.3153 65.2509 90.578C97.0198 112.884 128.789 96.1046 147.788 86.0724C156.175 81.6556 162.226 78.4373 165.296 79.9465L165.141 80.2795C162.226 78.859 156.242 82.0329 147.966 86.4053C138.489 91.3992 125.518 98.2576 111.214 100.921C103.427 102.364 95.863 102.43 88.7439 101.121C80.4902 99.5893 72.5034 96.1712 65.0284 90.911C60.49 87.7148 55.0394 87.1822 48.8102 89.2685C43.8046 90.9553 38.3095 94.3734 32.4808 99.3673C22.5363 107.912 14.9278 118.322 14.8388 118.433Z" fill="#999999"/>
<path d="M75.6403 126.756C75.6403 126.756 72.6592 132.327 72.4812 132.948C72.3033 133.548 72.0585 140.295 71.5024 141.116C71.1464 141.627 69.9006 140.695 69.4334 141.516C68.7882 142.648 69.2999 143.114 69.9228 143.291C70.5235 143.469 72.0363 143.891 72.0363 143.891C72.0363 143.891 76.5525 136.322 77.0642 133.792C77.3756 132.216 81.3579 129.686 81.9585 129.863C82.5815 129.996 78.221 124.536 75.6403 126.756Z" fill="#CCC2B8"/>
<path d="M55.0394 126.756C55.0394 126.756 53.5044 132.371 53.1039 133.925C52.8369 135.035 51.1907 140.672 51.1907 140.672C50.857 140.961 49.3219 140.273 49.2329 142.159C49.7891 143.447 52.9704 142.981 52.9704 142.981C52.9704 142.981 56.6412 137.987 56.5745 134.613C57.0862 132.749 59.8003 128.065 59.8003 128.065L55.0394 126.756Z" fill="#CCC2B8"/>
<path d="M86.764 142.492C86.586 144.046 82.181 143.846 82.3368 142.581C82.4925 141.338 84.0053 140.783 84.0053 140.783C84.0053 140.783 78.1098 132.615 78.8662 128.798C77.9763 128.842 73.4157 128.487 70.3233 130.351C67.2532 132.194 64.0274 130.396 63.3599 130.64C62.6925 130.884 64.2498 133.636 64.7615 134.635C65.2732 135.656 65.7849 138.431 65.073 139.962C64.1163 142.026 64.4056 144.734 61.7137 144.556C58.8438 144.379 59.6447 141.493 60.8683 141.96C62.0919 142.426 60.935 135.279 60.935 135.279C60.935 135.279 57.5979 131.461 56.7303 130.729C55.8626 129.996 53.371 127.932 53.9049 123.87C54.1496 121.895 51.9027 119.498 50.6346 119.92C45.629 121.584 44.4943 120.142 43.9827 118.677C43.9159 118.455 43.8492 118.233 43.7824 118.011C43.471 116.901 44.0939 116.368 45.1173 115.703C45.8514 115.237 46.8081 114.682 47.7869 113.794C47.2752 111.574 48.2319 109.777 51.5245 108.622C53.1262 108.067 56.9305 107.624 58.3321 111.153C59.1552 113.217 60.1341 118.055 63.8049 118.055C63.8716 118.055 63.9161 118.055 63.9829 118.055C65.4289 117.989 67.9651 117.7 70.7683 117.523C73.1042 117.345 75.6404 117.234 77.8873 117.367C80.1121 117.478 82.0698 117.833 83.2712 118.566C83.3157 118.588 83.3379 118.61 83.3824 118.632C87.1199 121.029 87.0309 126.978 85.3401 130.529C83.6271 134.125 86.9419 140.939 86.764 142.492Z" fill="#DDD6D0"/>
<path d="M85.0288 121.252C85.0288 121.252 93.7052 115.881 89.4559 108.778C90.9688 114.194 82.5593 119.143 82.5593 119.143C82.5593 119.143 83.0043 121.097 85.0288 121.252Z" fill="#DDD6D0"/>
<path d="M70.7682 117.523C70.657 122.295 65.4067 127.578 62.559 127.755C59.7114 127.933 61.1575 124.226 62.7815 123.361C63.9606 122.717 63.9161 119.654 63.8049 118.078C63.8716 118.078 63.9161 118.078 63.9828 118.078C65.4289 118.012 67.9651 117.723 70.7682 117.523Z" fill="#D86B21"/>
<path d="M77.0419 122.184C74.9729 119.698 72.1253 119.432 71.7471 120.985C71.3467 122.539 72.904 123.249 72.5035 124.803C72.1031 126.356 75.8406 127.488 77.1532 126.601C78.4435 125.713 77.7538 123.027 77.0419 122.184Z" fill="#D86B21"/>
<path d="M83.36 118.632C83.0931 119.786 82.6036 121.229 81.7805 121.784C80.7126 122.494 78.5991 118.765 77.865 117.367C80.0897 117.478 82.0475 117.833 83.2488 118.566C83.2933 118.588 83.3378 118.61 83.36 118.632Z" fill="#D86B21"/>
<path d="M50.9683 108.845C50.9683 108.845 49.767 112.019 49.3888 113.262C49.0106 114.505 47.1195 114.416 48.2986 116.036C49.4777 117.679 49.8782 115.792 51.747 116.524C53.6157 117.257 57.064 117.412 58.3544 116.857C59.6669 116.28 59.4222 105.715 50.9683 108.845Z" fill="#D86B21"/>
<path d="M52.1696 108.356C52.1696 108.356 57.6202 106.736 59.044 109.644C60.1564 111.908 62.2476 114.837 58.4211 115.903C55.1952 116.791 57.0418 112.063 54.8393 111.641C53.3042 111.331 51.1685 109.555 52.1696 108.356Z" fill="#C4570C"/>
<path d="M50.9905 112.707C50.9905 112.707 50.3008 113.928 50.6123 113.95C50.9237 113.972 52.5255 113.728 52.5255 113.728L50.9905 112.707Z" fill="#6B473D"/>
<path d="M45.095 117.457C44.65 118.056 44.3386 118.544 44.0049 118.677C43.9381 118.455 43.8714 118.233 43.8047 118.011C43.4932 116.902 44.1161 116.369 45.1395 115.703C45.3175 116.169 45.4954 116.879 45.095 117.457Z" fill="#6B473D"/>
<path d="M8.80988 127.577C8.80988 127.577 7.89775 131.661 6.82988 133.925C6.22921 136.655 5.47281 141.027 5.31708 142.248C5.25033 142.714 6.60741 143.225 6.98561 142.248C8.05348 139.518 9.41055 134.68 9.41055 134.68L12.3027 129.841L8.80988 127.577Z" fill="#663A2F"/>
<path d="M26.7189 125.003C26.7189 125.003 30.3674 125.314 29.611 129.686C29.1439 132.394 28.6767 131.772 29.611 133.015C30.5677 134.281 31.3686 135.701 31.769 136.433C31.947 136.766 31.9692 137.144 31.858 137.499C31.3686 139.008 29.9003 143.092 28.5432 142.848C27.631 142.692 29.4553 138.453 28.9881 137.099C28.5432 135.745 26.6077 135.523 25.5176 133.881C24.4275 132.261 25.8068 125.003 26.7189 125.003Z" fill="#663A2F"/>
<path d="M13.3259 122.029C14.3938 125.203 25.0057 125.802 27.4529 124.559C31.2794 122.628 30.4785 120.164 32.9034 117.146C32.9034 121.385 30.167 126.224 29.4106 126.823C30.167 128.177 29.4106 132.128 26.6742 133.637C25.1169 134.502 18.643 135.745 15.4394 134.858C12.2581 133.948 8.921 133.792 7.40819 126.224C6.96325 124.87 1.13449 127.067 0.0666288 124.337C-0.422809 123.072 3.07 122.584 3.67067 121.074C2.60281 117.146 8.87651 114.926 11.1457 116.591C13.4149 118.256 12.5918 119.831 13.3259 122.029Z" fill="#7F4B3B"/>
<path d="M11.9911 128.487C11.9911 128.487 10.3225 135.146 10.4783 136.5C10.634 137.854 14.416 144.068 14.7275 143.913C15.0389 143.757 16.2403 143.314 15.3282 141.183C14.8165 139.984 13.6596 136.633 13.6596 136.633L16.841 132.549C16.8632 132.571 13.6596 127.733 11.9911 128.487Z" fill="#7F4B3B"/>
<path d="M21.2461 129.553C21.0681 129.997 20.3339 132.727 21.0903 134.702C21.8467 136.678 23.0703 137.277 23.5153 138.342C23.9602 139.408 22.7589 142.892 23.2038 143.336C23.6488 143.78 26.6966 140.451 26.6966 138.786C26.6966 137.122 26.6966 134.547 27.453 132.727C28.2094 130.907 28.0537 129.553 27.2973 128.332C26.5631 127.134 22.0025 127.578 21.2461 129.553Z" fill="#7F4B3B"/>
<path d="M5.31695 121.452C5.31695 121.651 5.13897 121.829 4.93875 121.829C4.73852 121.829 4.56055 121.651 4.56055 121.452C4.56055 121.252 4.73852 121.074 4.93875 121.074C5.16122 121.074 5.31695 121.252 5.31695 121.452Z" fill="#3F1F0A"/>
<path d="M0.622876 125.069C0.622876 125.069 1.2458 124.537 1.2458 124.093C1.2458 123.649 0.778606 123.183 0.778606 123.183C0.778606 123.183 0.20018 123.627 0.0444496 123.937C-0.133528 124.248 0.622876 125.069 0.622876 125.069Z" fill="#3F1F0A"/>
<path d="M6.85205 126.668L13.8154 121.829L14.7275 123.05L7.29699 127.888L6.85205 126.668Z" fill="#3F1F0A"/>
<path d="M7.89758 128.865C7.89758 129.242 7.7641 129.553 7.58612 129.553C7.40814 129.553 7.27466 129.242 7.27466 128.865C7.27466 128.487 7.40814 128.177 7.58612 128.177C7.7641 128.177 7.89758 128.487 7.89758 128.865Z" fill="#E0AB36"/>
<path d="M6.69645 118.966C6.69645 118.966 9.87779 122.14 10.345 123.205C10.7899 124.271 11.7021 125.469 12.7699 124.715C13.8378 123.96 15.0391 120.786 13.5263 119.41C12.0135 118.056 9.07689 116.857 8.67644 116.991C8.20925 117.146 6.38499 117.301 6.69645 118.966Z" fill="#663A2F"/>
<path d="M133.861 73.6438L147.365 108.979L165.296 139.053L172.349 136.456C172.349 136.456 163.65 111.265 158.778 105.694C157.577 104.34 157.065 75.597 154.217 69.9594C151.37 64.3218 138.066 67.3625 133.861 73.6438Z" fill="#E88562"/>
<path d="M132.326 72.5114L146.475 109.533L154.506 123.916L167.032 117.013C167.032 117.013 164.384 111.464 160.446 104.939C159.245 103.585 157.043 75.5744 154.195 69.9368C151.37 64.3214 138.066 67.3622 132.326 72.5114Z" fill="#347055"/>
<path d="M173.127 134.658C174.751 135.679 175.396 141.139 175.396 141.139C175.396 141.139 167.61 146.954 157.932 145.867C157.132 145.778 155.307 143.448 157.443 142.671C164.851 140.03 162.159 136.123 164.073 136.456C171.592 137.743 170.836 133.216 173.127 134.658Z" fill="#E7E6E4"/>
<path d="M171.91 139.65C172.29 139.034 172.098 138.227 171.481 137.848C170.864 137.468 170.056 137.659 169.675 138.275C169.295 138.891 169.486 139.697 170.103 140.077C170.72 140.457 171.529 140.265 171.91 139.65Z" fill="#3E8466"/>
<path d="M107.654 139.03L115.507 139.851C115.507 139.851 125.073 118.322 128.188 106.958C134.951 98.0357 145.763 88.8691 149.567 82.0773C158.466 66.2078 143.227 58.2397 135.885 66.8292C130.924 72.6222 117.687 103.096 117.687 103.096L107.654 139.03Z" fill="#F7A072"/>
<path d="M111.569 119.676L125.719 120.852C125.719 120.852 126.141 118.455 129.968 107.913C136.731 98.9901 145.763 88.8469 149.567 82.0773C158.466 66.2078 143.227 58.2397 135.885 66.8292C130.924 72.6222 116.886 101.809 116.886 101.809L111.569 119.676Z" fill="#3E8466"/>
<path d="M116.597 138.409C117.843 139.852 115.329 145.29 115.329 145.29L96.1743 143.514C96.1743 143.514 95.7294 142.049 97.9096 141.45C104.005 139.763 105.362 136.301 107.098 137.144C113.928 140.562 114.817 136.367 116.597 138.409Z" fill="#E7E6E4"/>
<path d="M113.082 141.228C113.038 141.96 112.415 142.493 111.681 142.449C110.946 142.404 110.412 141.783 110.457 141.05C110.501 140.318 111.124 139.785 111.859 139.83C112.57 139.896 113.127 140.518 113.082 141.228Z" fill="#3E8466"/>
<path d="M156.731 73.976C155.819 75.463 131.214 77.4828 128.589 76.0179C127.699 63.4776 126.942 38.2417 132.838 29.0307C133.305 28.4092 133.772 27.81 134.217 27.2995C137.621 23.3043 140.491 22.1058 142.827 22.2612C144.362 22.3499 145.83 22.9936 147.098 24.2143C148.099 25.1687 148.989 26.4782 149.701 28.1429C152.393 34.3575 153.728 43.8349 154.506 50.893C155.953 61.2803 157.354 73.4211 156.731 73.976Z" fill="#FFD166"/>
<path d="M136.709 18.3548L137.688 26.2119L146.386 23.6151L144.517 16.9121L136.709 18.3548Z" fill="#F69F72"/>
<path d="M133.238 4.01733C133.238 4.01733 131.547 11.5193 133.238 17.8227C134.017 20.7081 134.884 21.8401 139.356 20.6415C145.007 19.1101 149.523 11.8078 146.853 4.68319C145.363 0.710248 136.998 -0.554878 133.238 4.01733Z" fill="#F7A072"/>
<path d="M136.931 21.0409C136.931 21.0409 141.403 20.2641 143.183 18.4219C142.471 21.5736 137.354 23.4824 137.354 23.4824L136.931 21.0409Z" fill="#E88562"/>
<path d="M135.774 15.8917C135.463 15.8917 135.151 15.8251 135.04 15.5366C134.751 14.9151 134.929 14.1605 135.685 12.7178L135.841 12.8066C135.018 14.3824 134.973 14.9817 135.196 15.47C135.374 15.8695 136.264 15.6919 136.597 15.581L136.642 15.7363C136.62 15.7585 136.197 15.8917 135.774 15.8917Z" fill="#A56050"/>
<path d="M139.957 12.3624C139.934 12.3624 139.912 12.3624 139.89 12.3402C139.178 11.6522 138.488 11.519 137.754 11.9407C137.71 11.9629 137.665 11.9407 137.643 11.9185C137.621 11.8741 137.643 11.8297 137.665 11.8075C138.466 11.3414 139.245 11.4968 140.001 12.2292C140.046 12.2736 140.046 12.318 140.001 12.3624C140.001 12.3402 139.979 12.3624 139.957 12.3624Z" fill="#31150E"/>
<path d="M139.223 12.1178C139.178 12.473 138.844 12.7171 138.488 12.6727C138.132 12.6283 137.888 12.2954 137.932 11.9403C137.977 11.5851 138.288 11.5851 138.644 11.6295C139 11.6739 139.289 11.7627 139.223 12.1178Z" fill="#32160F"/>
<path d="M140.335 10.8087C140.246 10.8974 139.645 10.6089 138.911 10.5423C138.177 10.4535 137.554 10.4757 137.465 10.2538C137.376 10.0318 138.088 9.6989 139 9.92085C139.912 10.1428 140.424 10.7421 140.335 10.8087Z" fill="#E7E6E4"/>
<path d="M132.749 10.742C132.838 10.8307 133.438 10.5866 134.195 10.5422C134.929 10.4756 135.574 10.5422 135.663 10.3202C135.774 10.0983 135.062 9.72097 134.15 9.92073C133.216 10.0983 132.66 10.6532 132.749 10.742Z" fill="#E7E6E4"/>
<path d="M135.552 12.3624C135.53 12.3624 135.507 12.3624 135.485 12.3402C134.773 11.6522 134.084 11.519 133.349 11.9407C133.305 11.9629 133.26 11.9407 133.238 11.9185C133.216 11.8741 133.238 11.8297 133.26 11.8075C134.061 11.3414 134.84 11.4968 135.596 12.2292C135.641 12.2736 135.641 12.318 135.596 12.3624C135.596 12.3402 135.574 12.3624 135.552 12.3624Z" fill="#31150E"/>
<path d="M134.818 12.1178C134.773 12.473 134.44 12.7171 134.084 12.6727C133.728 12.6283 133.483 12.2954 133.527 11.9403C133.572 11.5851 133.883 11.5851 134.239 11.6295C134.595 11.6739 134.885 11.7627 134.818 12.1178Z" fill="#32160F"/>
<path d="M148.255 9.5661C148.21 9.92122 148.166 10.2763 148.121 10.6537C147.632 14.0939 146.653 18.311 145.096 18.7993C144.161 19.11 144.028 15.7142 144.718 14.2937C145.407 12.8732 145.763 12.1185 143.472 10.9644C140.669 9.5439 142.671 6.56975 141.447 6.45877C139.401 6.23682 134.551 7.96804 132.793 6.50316C130.457 4.57218 131.414 2.90754 133.105 1.75339C133.839 1.2429 134.729 0.843384 135.53 0.532651C136.887 0.0443568 143.294 -0.688085 144.006 1.50924C147.921 1.17631 148.678 5.99267 148.255 9.5661Z" fill="#C1C5C6"/>
<path d="M142.604 12.8504C142.515 11.896 143.205 11.0525 144.161 10.9638C145.118 10.875 145.963 11.563 146.052 12.5174C146.141 13.4718 145.452 14.3152 144.495 14.404C143.539 14.4928 142.693 13.8047 142.604 12.8504Z" fill="#F69F72"/>
<path d="M145.341 13.0058C145.185 13.5163 144.673 13.8492 144.162 13.827C144.05 13.827 143.961 13.7383 144.095 13.7161C144.518 13.6495 144.873 13.3387 145.007 12.917C145.14 12.4731 145.007 12.007 144.696 11.7185C144.607 11.6297 144.696 11.5853 144.74 11.6297C145.252 11.8739 145.519 12.4509 145.341 13.0058Z" fill="#E88562"/>
<path d="M144.362 12.3838C144.362 12.3838 144.962 12.9387 145.074 12.8943C145.185 12.8499 145.051 13.1606 145.051 13.1606C145.051 13.1606 144.406 12.8721 144.362 12.3838Z" fill="#E88562"/>
<path d="M147.098 24.1929C143.561 25.9907 135.708 27.5443 134.395 27.3224C134.328 27.3224 134.284 27.3002 134.239 27.278C137.643 23.2828 140.513 22.0843 142.849 22.2397C144.362 22.3285 145.83 22.9721 147.098 24.1929Z" fill="#F69F72"/>
<path d="M148.255 9.56583C148.21 9.92095 148.166 10.2761 148.121 10.6534C145.719 10.2983 142.938 7.23534 142.849 5.88143C142.76 4.32776 139.69 5.14899 136.553 5.5485C133.883 5.90362 132.682 3.57313 133.105 1.73093C133.839 1.22044 134.729 0.820923 135.53 0.51019C136.887 0.0218958 143.294 -0.710546 144.006 1.48678C147.921 1.17605 148.678 5.9924 148.255 9.56583Z" fill="#DBDBDB"/>
<path d="M132.793 3.8612L132.682 3.81681C133.928 1.21998 142.382 1.46412 142.76 1.46412V1.5751C142.671 1.5751 134.039 1.33095 132.793 3.8612Z" fill="#CAD5D8"/>
<path d="M146.23 9.89862L146.141 9.83204C147.588 8.03422 145.741 3.15128 145.719 3.10689L145.83 3.0625C145.897 3.28445 147.721 8.07861 146.23 9.89862Z" fill="#CAD5D8"/>
<path d="M139.49 5.83673V5.72575C142.159 5.59258 143.494 2.90696 143.516 2.88477L143.627 2.92916C143.605 2.95135 142.226 5.70356 139.49 5.83673Z" fill="#CAD5D8"/>
<path d="M143.761 8.96658C143.205 7.67925 144.317 4.10583 144.384 3.97266L144.495 4.01705C144.473 4.06144 143.338 7.70145 143.872 8.94438L143.761 8.96658Z" fill="#CAD5D8"/>
<path d="M135.819 5.68173L135.797 5.57075C138.244 5.19343 141.514 2.53001 141.559 2.50781L141.625 2.59659C141.603 2.61879 138.288 5.30441 135.819 5.68173Z" fill="#CAD5D8"/>
<path d="M148.388 34.2688C148.388 34.2688 146.475 54.533 145.229 59.3493C143.605 65.6306 130.902 69.8477 122.404 75.2855C121.225 75.0192 119.044 71.1128 119.044 71.1128C119.044 71.1128 135.196 59.4159 135.062 58.3062C134.929 57.1742 136.953 34.9568 136.953 34.9568C136.953 34.9568 141.915 26.9 148.388 34.2688Z" fill="#F7A072"/>
<path d="M135.196 55.5324C141.269 56.1538 145.163 54.6002 145.163 54.6002L145.363 53.5126L135.418 53.4016C135.418 53.3794 135.24 54.7555 135.196 55.5324Z" fill="#E88562"/>
<path d="M133.794 52.6028C136.531 55.3328 146.498 53.0911 146.498 53.0911C146.498 53.0911 149.634 36.0674 148.967 33.4705C148.122 30.0969 140.068 27.5888 137.688 32.0057C135.329 36.4225 134.618 46.144 133.794 52.6028Z" fill="#FFD166"/>
<path d="M140.113 54.3117C138.266 54.3117 136.197 54.0454 134.061 53.2241L133.995 53.2019V53.1354C134.284 44.4792 135.552 34.2694 135.574 34.1807L135.797 34.2029C135.774 34.3138 134.506 44.4348 134.217 53.0688C140.513 55.4215 146.364 53.0466 146.431 53.0244L146.52 53.2241C146.453 53.2241 143.783 54.3117 140.113 54.3117Z" fill="#F2BE55"/>
<path d="M119.445 70.8242C119.445 70.8242 115.908 70.8242 114.818 71.5345C113.349 72.4445 111.814 77.7713 111.814 77.7713C111.814 77.7713 114.239 79.8577 116.575 78.6813C118.911 77.505 122.849 74.9969 122.849 74.9969L119.445 70.8242Z" fill="#F69F72"/>
<path d="M144.161 10.942C144.161 10.942 143.583 12.9618 143.538 13.8274C143.361 17.3786 142.916 18.8657 142.226 19.5316C141.047 20.6413 138.088 22.4391 136.086 22.3948C135.463 22.3726 134.573 21.9287 133.861 21.1074C133.038 20.1308 132.437 18.6438 132.749 16.735C132.749 16.735 133.26 16.2245 135.663 16.1135C137.287 16.0247 138.288 16.8903 139.223 16.735C141.114 16.4464 143.227 10.8311 143.227 10.8311L143.561 10.8754L144.161 10.942Z" fill="#C1C5C6"/>
<path d="M143.561 10.8752C143.383 11.5188 142.07 17.9333 141.269 18.6213C140.023 19.6645 138.11 21.5511 135.974 21.5511C135.485 21.5511 134.462 21.6177 133.861 21.085C133.038 20.1084 132.437 18.6213 132.749 16.7125C132.749 16.7125 133.26 16.202 135.663 16.0911C137.287 16.0023 138.288 16.8679 139.223 16.7125C141.114 16.424 143.227 10.8086 143.227 10.8086L143.561 10.8752Z" fill="#DBDBDB"/>
<path d="M134.195 17.1346C134.195 17.1346 135.53 17.3566 136.219 17.0902C136.909 16.8017 137.51 17.068 137.421 17.4232C137.332 17.8005 137.51 19.11 135.819 19.11C134.684 19.1322 133.194 17.9115 134.195 17.1346Z" fill="#C1C5C6"/>
<path d="M134.751 17.5787C135.04 17.6896 135.975 17.7118 136.842 17.3789C136.842 17.9116 136.331 18.4887 135.663 18.4665C134.996 18.4665 134.884 18.1113 134.751 17.5787Z" fill="#E88562"/>
<path d="M62.8038 113.817L62.5813 113.528C62.737 113.395 79.2222 100.943 87.0754 88.8247C94.2168 77.7937 100.557 73.9317 104.606 72.6444C109.033 71.2239 111.725 72.4447 111.837 72.4891L111.681 72.822C111.659 72.7998 108.989 71.6235 104.673 72.9996C100.691 74.2869 94.4392 78.1044 87.3646 89.0245C79.5114 101.187 62.9817 113.706 62.8038 113.817Z" fill="#4D4D4D"/>
<path d="M54.5054 120.031L62.6924 114.837L61.6913 113.084L53.2151 118.255L54.5054 120.031Z" fill="#6B473D"/>
<path d="M112.815 77.9713H112.793C112.771 77.9491 112.749 77.9269 112.771 77.9047L114.439 74.1093C114.439 74.1093 114.439 74.0871 114.462 74.0871L116.419 72.6445C116.442 72.6223 116.486 72.6223 116.508 72.6667C116.531 72.6889 116.531 72.7332 116.486 72.7554L114.551 74.1981L112.882 77.9935C112.86 77.9713 112.838 77.9713 112.815 77.9713Z" fill="#A56050"/>
<path d="M113.772 78.8813H113.75C113.727 78.8591 113.705 78.8369 113.727 78.8147L115.285 75.2635C115.285 75.2635 115.285 75.2413 115.307 75.2413L117.287 73.8652C117.309 73.843 117.354 73.843 117.354 73.8874C117.376 73.9096 117.376 73.954 117.332 73.954L115.374 75.33L113.816 78.8591C113.816 78.8591 113.794 78.8813 113.772 78.8813Z" fill="#A56050"/>
<path d="M114.929 79.0815H114.906C114.884 79.0594 114.862 79.0372 114.884 79.015L116.397 76.5069L116.419 76.4847L117.977 75.6635C117.999 75.6413 118.043 75.6635 118.043 75.6857C118.066 75.7079 118.043 75.7523 118.021 75.7523L116.486 76.5735L114.995 79.0594C114.973 79.0594 114.951 79.0815 114.929 79.0815Z" fill="#A56050"/>
<path d="M180.224 74.5088C180.224 74.5088 180.847 81.5225 180.58 81.3671C180.313 81.1895 176.976 81.3671 176.976 81.3671L180.224 74.5088Z" fill="#26547C"/>
</g>
<defs>
<clipPath id="clip0_74_3244">
<rect width="218" height="146" fill="white"/>
</clipPath>
</defs>
</svg>
