<svg width="54" height="79" viewBox="0 0 54 79" fill="none" xmlns="http://www.w3.org/2000/svg">
<g clip-path="url(#clip0_74_3265)">
<path d="M16.2009 28.8477C16.2009 28.8477 21.809 66.8737 23.8413 71.353C25.8736 75.8323 34.9519 72.9992 34.9519 72.9992L34.4821 71.8124C34.4821 71.8124 27.7621 72.6738 25.9982 69.0751C24.2343 65.4763 19.1727 30.3216 19.1727 30.3216L16.2009 28.8477Z" fill="#4D2D2D"/>
<path d="M44.9024 77.9762C44.9024 77.9762 40.1092 79.297 38.7 78.9428C37.588 78.6557 35.9679 76.6841 34.2328 74.0329C30.0915 67.7159 25.2887 57.5131 25.1066 56.9963C23.6974 52.7563 24.6656 49.1097 25.8735 46.6308C26.9184 44.4773 28.1454 43.2139 28.1454 43.2139L41.087 70.0608L44.8928 77.957C44.8928 77.9666 44.9024 77.9666 44.9024 77.9762Z" fill="#F9DECD"/>
<path d="M11.6185 14.6729L10.6982 15.1897L35.1626 58.9776C35.2489 59.1211 35.4311 59.1786 35.5844 59.0924L35.9775 58.8723C36.1213 58.7861 36.1788 58.6043 36.0925 58.4511L11.6185 14.6729Z" fill="#CACACA"/>
<path d="M35.1437 57.8578C34.7985 58.0493 34.6739 58.48 34.8657 58.8245L41.4802 70.6736C41.5665 70.8171 41.7487 70.8746 41.902 70.7884L42.6114 70.396C42.7552 70.3099 42.8128 70.128 42.7265 69.9749L36.1119 58.1258C35.9202 57.7813 35.4888 57.6664 35.1437 57.8578Z" fill="#4D2D2D"/>
<path d="M11.0422 13.6444L10.1213 14.1572L10.9525 15.645L11.8734 15.1322L11.0422 13.6444Z" fill="#4D2D2D"/>
<path d="M7.47729 9.41816L10.2478 14.376L11.168 13.8592L8.91525 9.82972C8.62766 9.32245 7.98537 9.13102 7.47729 9.41816Z" fill="#CACACA"/>
<path d="M5.23408 14.9596L9.36581 12.0405L7.47729 9.41797L4.37131 11.1503C3.28805 11.7533 2.9046 13.1124 3.50854 14.1844L3.75778 14.6247C4.04537 15.1606 4.73559 15.3138 5.23408 14.9596Z" fill="#CACACA"/>
<path d="M10.3534 5.37891L9.43311 5.89575L33.8975 49.6836C33.9838 49.8272 34.1659 49.8846 34.3193 49.7985L34.7124 49.5783C34.8561 49.4922 34.9137 49.3103 34.8274 49.1572L10.3534 5.37891Z" fill="#CACACA"/>
<path d="M33.8688 48.5638C33.5236 48.7552 33.399 49.1859 33.5908 49.5305L40.2053 61.3795C40.2916 61.5231 40.4738 61.5805 40.6271 61.4944L41.3365 61.102C41.4803 61.0158 41.5378 60.834 41.4516 60.6809L34.837 48.8318C34.6453 48.4968 34.2139 48.3724 33.8688 48.5638Z" fill="#4D2D2D"/>
<path d="M9.76904 4.36119L8.84814 4.87402L9.67932 6.36183L10.6002 5.849L9.76904 4.36119Z" fill="#4D2D2D"/>
<path d="M6.20239 0.134015L8.97285 5.09185L9.89314 4.57501L7.64035 0.545573C7.36234 0.0287323 6.71047 -0.153119 6.20239 0.134015Z" fill="#CACACA"/>
<path d="M3.95918 5.67547L8.09091 2.75627L6.20239 0.133789L3.09641 1.86616C2.01315 2.46914 1.62969 3.82824 2.23363 4.90021L2.48288 5.34048C2.77047 5.87646 3.47028 6.0296 3.95918 5.67547Z" fill="#CACACA"/>
<path d="M19.5464 15.1608L20.4763 14.6631L44.2505 58.8242C44.3271 58.9774 44.2792 59.1592 44.1258 59.2358L43.7328 59.4463C43.5794 59.5229 43.3973 59.4751 43.3206 59.3219L19.5464 15.1608Z" fill="#CACACA"/>
<path d="M43.3206 58.2113C43.6657 58.0295 44.0971 58.1539 44.2888 58.4985L50.7117 70.4528C50.7884 70.6059 50.7404 70.7878 50.5871 70.8643L49.8681 71.2472C49.7147 71.3237 49.5326 71.2759 49.4559 71.1228L43.0234 59.178C42.8413 58.8239 42.9659 58.3932 43.3206 58.2113Z" fill="#4D2D2D"/>
<path d="M19.7917 15.6254L20.7205 15.127L19.9127 13.6264L18.9839 14.1248L19.7917 15.6254Z" fill="#4D2D2D"/>
<path d="M17.3416 8.85352L20.0354 13.8496L19.1055 14.3473L16.9198 10.2796C16.6322 9.77234 16.8335 9.13108 17.3416 8.85352Z" fill="#CACACA"/>
<path d="M23.2276 9.95421L18.5398 11.8589L17.3416 8.85353L20.4763 7.16902C21.5691 6.58518 22.9208 6.99673 23.5056 8.07827L23.7452 8.51854C24.0424 9.05452 23.7932 9.7245 23.2276 9.95421Z" fill="#CACACA"/>
<path d="M44.9025 77.9764C44.9025 77.9668 44.893 77.9573 44.8834 77.9573C44.7204 77.6893 42.9565 74.8084 40.3203 70.5014C36.5624 64.3376 31.0311 55.245 25.8736 46.631C22.8443 41.5679 19.9396 36.6675 17.6006 32.638C16.872 31.3842 16.201 30.2165 15.597 29.1446C15.1656 28.3789 14.763 27.6706 14.3987 27.0198C13.9194 26.1488 13.5072 25.3927 13.1813 24.761C12.5677 23.5933 12.2418 22.8659 12.2801 22.7032C12.6348 21.1527 23.084 14.5773 24.2535 16.08C24.3494 16.2044 24.6465 16.6543 25.1067 17.4008C25.4614 17.9655 25.9119 18.7025 26.4584 19.5735C26.8227 20.1669 27.2157 20.789 27.6471 21.4398C28.2031 22.3012 28.807 23.2009 29.4493 24.1484C37.243 35.6242 50.4243 52.6417 53.3769 62.9306C53.6453 63.859 53.8274 64.73 53.9137 65.534C55.0257 75.5166 44.9025 77.9764 44.9025 77.9764Z" fill="#F9DECD"/>
<path d="M0.555882 76.6556C0.488777 76.6556 0.421673 76.646 0.354568 76.6173C0.066977 76.512 -0.0672321 76.1866 0.0382179 75.909L18.2523 28.666C18.3578 28.3789 18.6837 28.2449 18.9617 28.3502C19.2493 28.4555 19.3835 28.7809 19.2781 29.0584L1.06396 76.3015C0.987268 76.512 0.776368 76.6556 0.555882 76.6556Z" fill="#4D2D2D"/>
<path d="M29.4492 24.1481L17.6005 32.6377C16.8719 31.3838 16.2009 30.2162 15.5969 29.1442L27.647 21.4395C28.203 22.3009 28.8069 23.2101 29.4492 24.1481Z" fill="#4D2D2D"/>
<path d="M31.3376 28.8476C31.3376 28.8476 34.4149 26.2156 35.5173 26.4548C36.6101 26.7037 44.0396 37.1171 44.4039 38.0359C44.7681 38.9547 40.2913 42.5056 40.2913 42.5056L31.3376 28.8476Z" fill="#F9DECD"/>
<path d="M39.1603 42.9938C39.0644 42.9938 38.9973 42.9268 38.911 42.8311C38.2688 42.1228 29.8519 30.5801 29.8999 30.0824C29.9286 29.757 30.9831 28.9817 31.8651 28.3883C31.9513 28.3309 32.0664 28.35 32.1239 28.4362C32.1814 28.5223 32.1622 28.6371 32.076 28.6946C31.2995 29.221 30.4271 29.8814 30.2833 30.1111C30.7626 31.0873 38.4317 41.8357 39.2178 42.6205C39.4575 42.5535 40.2436 42.1516 40.8954 41.7879C40.9817 41.74 41.0967 41.7687 41.1447 41.8549C41.1926 41.941 41.1638 42.0558 41.0776 42.1037C40.5982 42.3717 39.4575 42.9938 39.1603 42.9938Z" fill="#E8C6B0"/>
<path d="M33.1401 33.2888C33.0826 33.2888 33.0251 33.26 32.9867 33.2026C32.9292 33.1165 32.958 33.0016 33.0442 32.9442L37.7895 29.8814C37.8758 29.824 37.9908 29.8527 38.0483 29.9389C38.1058 30.025 38.0771 30.1399 37.9908 30.1973L33.2455 33.26C33.2072 33.2792 33.1784 33.2888 33.1401 33.2888Z" fill="#E8C6B0"/>
<path d="M44.9025 77.9765C44.9025 77.9765 40.0998 79.2973 38.7002 78.9431C37.5881 78.656 35.968 76.6844 34.2329 74.0332L40.3203 70.5014L41.0776 70.0611L53.3673 62.9307C53.6357 63.8591 53.8179 64.73 53.9041 65.534C55.0257 75.5167 44.9025 77.9765 44.9025 77.9765Z" fill="#4D2D2D"/>
<path d="M39.7833 69.1229C39.7258 69.1229 39.6587 69.0942 39.6299 69.0368L26.2282 47.5688C26.1706 47.4826 26.1994 47.3678 26.2857 47.3199C26.372 47.2625 26.487 47.2912 26.5349 47.3773L39.9367 68.8454C39.9942 68.9315 39.9654 69.0464 39.8792 69.0942C39.8504 69.1133 39.8216 69.1229 39.7833 69.1229Z" fill="#E8C6B0"/>
</g>
<defs>
<clipPath id="clip0_74_3265">
<rect width="54" height="79" fill="white"/>
</clipPath>
</defs>
</svg>
