<svg width="156" height="172" viewBox="0 0 156 172" fill="none" xmlns="http://www.w3.org/2000/svg">
<g clip-path="url(#clip0_74_3243)">
<path fill-rule="evenodd" clip-rule="evenodd" d="M52.6499 124.298L51.9219 126.662C51.9219 126.662 61.2819 132.872 63.8299 129.312C63.9859 127.104 63.5699 125.623 63.5699 125.623L52.6499 124.298Z" fill="#FFD392"/>
<path fill-rule="evenodd" clip-rule="evenodd" d="M67.8339 125.025L55.7699 121.985L52.5459 124.739L64.5839 127.779L67.8339 125.025Z" fill="#CC6633"/>
<path fill-rule="evenodd" clip-rule="evenodd" d="M51.4799 126.195C51.2719 126.454 51.2459 126.766 51.0899 127.052C49.6599 129.39 49.2699 132.092 50.2579 133.755C59.6699 136.12 68.8479 138.432 78.2599 140.796C79.1179 140.589 80.9899 137.86 79.0919 136.561C75.6339 134.197 69.0559 130.949 65.8059 127.468C64.9479 126.558 63.9859 125.675 62.7379 127.182C58.2399 132.69 51.8699 122.765 51.4799 126.195Z" fill="#CC6633"/>
<path fill-rule="evenodd" clip-rule="evenodd" d="M69.8361 130.949C70.1741 130.767 70.3041 130.351 70.1221 129.988C69.9401 129.65 69.5241 129.52 69.1601 129.702C69.1601 129.702 68.2241 130.196 67.3141 131.625C67.1061 131.962 67.2101 132.378 67.5221 132.586C67.8601 132.794 68.2761 132.69 68.4841 132.378C69.2381 131.261 69.8361 130.949 69.8361 130.949ZM67.6781 129.364C67.6781 129.364 66.8461 129.806 66.1441 130.923C65.9361 131.261 65.4941 131.339 65.1821 131.131C64.8441 130.923 64.7661 130.481 64.9741 130.17C65.8841 128.741 66.9761 128.143 66.9761 128.143C67.3141 127.935 67.7561 128.065 67.9381 128.377C68.1201 128.741 68.0161 129.182 67.6781 129.364ZM72.0201 132.534C72.0201 132.534 71.6301 132.716 70.9281 133.833C70.7201 134.171 70.2781 134.249 69.9661 134.041C69.6281 133.833 69.5501 133.391 69.7581 133.08C70.6681 131.651 71.3961 131.287 71.3961 131.287C71.7341 131.105 72.1761 131.261 72.3321 131.599C72.4881 131.936 72.3581 132.352 72.0201 132.534Z" fill="#99CCCC"/>
<path fill-rule="evenodd" clip-rule="evenodd" d="M51.064 127.026C52.234 127.545 54.236 128.87 55.38 130.871C56.056 132.066 56.446 133.521 56.134 135.236L56.394 135.288L56.836 135.392L57.044 135.444C57.434 133.469 56.992 131.78 56.212 130.403C54.964 128.221 52.78 126.766 51.48 126.194C51.272 126.428 51.246 126.766 51.064 127.026Z" fill="#99CCCC"/>
<path fill-rule="evenodd" clip-rule="evenodd" d="M54.8081 129.884C56.9661 132.144 62.1401 134.508 67.0541 135.912C69.5241 136.613 71.9421 137.107 73.8921 137.237C75.9461 137.366 77.5321 137.055 78.1561 136.197C78.2081 136.145 78.2341 136.093 78.2601 136.015C78.0001 135.86 77.7401 135.678 77.4541 135.522C77.4281 135.574 77.4021 135.6 77.3761 135.652C76.9601 136.223 75.6601 136.405 73.9181 136.301C72.0461 136.197 69.7061 135.73 67.2881 135.028C62.5041 133.651 57.4601 131.443 55.4061 129.286L54.8081 129.884Z" fill="#EBA763"/>
<path fill-rule="evenodd" clip-rule="evenodd" d="M50.622 133.833L77.948 140.718C78.156 140.77 78.286 140.978 78.234 141.186C78.182 141.393 77.974 141.523 77.766 141.471L50.44 134.586C50.232 134.534 50.102 134.326 50.154 134.119C50.206 133.911 50.414 133.781 50.622 133.833Z" fill="#EBA763"/>
<path fill-rule="evenodd" clip-rule="evenodd" d="M57.9281 92.418H44.6941C42.4841 92.418 40.6641 94.2367 40.6641 96.4452C40.6641 98.6536 42.4841 100.472 44.6941 100.472H57.9281C60.1381 100.472 61.9581 98.6536 61.9581 96.4452C61.9581 94.2367 60.1641 92.418 57.9281 92.418Z" fill="#673F33"/>
<path fill-rule="evenodd" clip-rule="evenodd" d="M52.52 91.0151L61.23 79.3232L86.632 98.316C91.286 103.045 89.206 106.942 86.918 109.618C80.496 117.127 69.316 124.116 67.34 126.013C63.726 125.337 60.112 124.662 56.498 123.986C54.652 123.57 54.548 121.726 56.082 120.634L72.592 105.643L52.52 91.0151Z" fill="#D6924F"/>
<path fill-rule="evenodd" clip-rule="evenodd" d="M106.86 103.849C107.874 103.512 108.862 103.148 109.876 102.784C110.162 103.616 112.034 108.708 112.32 109.539C111.306 109.877 109.928 109.929 108.81 109.15C108.524 108.318 107.146 104.655 106.86 103.849Z" fill="#544132"/>
<path fill-rule="evenodd" clip-rule="evenodd" d="M29.7961 109.436C23.7381 109.436 18.0441 111.072 13.1821 113.956L14.6381 115.152C19.1101 112.631 24.2841 111.202 29.7961 111.202C45.5001 111.202 58.4741 122.868 60.5281 138.016L62.2961 137.99C60.2161 121.881 46.4621 109.436 29.7961 109.436Z" fill="#666633"/>
<path fill-rule="evenodd" clip-rule="evenodd" d="M126.152 109.436C132.21 109.436 137.904 111.072 142.766 113.956L141.31 115.152C136.838 112.631 131.664 111.202 126.152 111.202C110.448 111.202 97.4739 122.868 95.4199 138.016L93.6519 137.99C95.7319 121.881 109.486 109.436 126.152 109.436Z" fill="#666633"/>
<path fill-rule="evenodd" clip-rule="evenodd" d="M76.284 139.938C77.74 139.237 79.456 138.042 80.886 136.457C81.068 136.249 81.25 136.041 81.432 135.833C83.148 133.703 84.812 130.611 86.632 127.233C89.414 122.063 92.56 116.243 96.98 111.774C104.442 104.213 108.862 103.252 108.862 103.252L109.564 106.214C109.564 106.214 105.976 106.993 99.164 113.905C95.056 118.062 92.014 123.674 89.336 128.688C87.438 132.196 85.722 135.392 83.824 137.756C83.59 138.042 83.382 138.276 83.174 138.535C81.458 140.406 79.43 141.835 77.662 142.692C75.53 143.732 73.528 143.914 72.54 143.108C72.488 143.056 72.462 143.03 72.436 143.03L72.514 141.835C73.294 140.77 73.216 141.419 76.284 139.938Z" fill="#CCCC33"/>
<path fill-rule="evenodd" clip-rule="evenodd" d="M62.5038 125.622C63.8038 126.22 65.3378 126.843 67.0538 127.285C68.7438 127.727 70.6158 127.961 72.6178 127.831C74.5938 127.701 76.4398 127.285 78.2078 126.246C80.0018 125.181 81.7958 123.414 83.6938 120.608L84.1098 119.984C88.4778 113.411 92.2218 107.825 96.2778 104.291C101.062 100.134 105.82 98.0035 105.846 97.9775L107.094 100.758C107.094 100.758 102.7 102.732 98.2798 106.578C94.5358 109.851 90.8958 115.281 86.6578 121.673L86.2418 122.297C84.0838 125.518 81.9778 127.571 79.7678 128.87C77.5318 130.195 75.2698 130.715 72.8518 130.871C70.4598 131.026 68.2758 130.741 66.3258 130.247C64.4018 129.753 63.2578 129.052 61.8018 128.402L62.5038 125.622Z" fill="#CCCC33"/>
<path fill-rule="evenodd" clip-rule="evenodd" d="M122.668 118.296L124.098 140.926L123.578 140.978L122.148 118.322L122.668 118.296Z" fill="#99CCCC"/>
<path fill-rule="evenodd" clip-rule="evenodd" d="M118.378 118.997L123.89 140.796L123.396 140.926L117.884 119.127L118.378 118.997Z" fill="#99CCCC"/>
<path fill-rule="evenodd" clip-rule="evenodd" d="M114.14 120.66L127.27 140.328L126.854 140.614L113.724 120.946L114.14 120.66Z" fill="#99CCCC"/>
<path fill-rule="evenodd" clip-rule="evenodd" d="M110.89 123.519L126.854 140.017L126.49 140.381L110.552 123.882L110.89 123.519Z" fill="#99CCCC"/>
<path fill-rule="evenodd" clip-rule="evenodd" d="M108.368 126.272L123.864 142.927L123.5 143.265L107.978 126.61L108.368 126.272Z" fill="#99CCCC"/>
<path fill-rule="evenodd" clip-rule="evenodd" d="M105.482 129.494L123.63 142.953L123.318 143.342L105.17 129.91L105.482 129.494Z" fill="#99CCCC"/>
<path fill-rule="evenodd" clip-rule="evenodd" d="M103.272 133.443L125.476 140.173L125.346 140.666L103.142 133.911L103.272 133.443Z" fill="#99CCCC"/>
<path d="M102.561 137.673L102.519 138.19L125.09 140.036L125.133 139.518L102.561 137.673Z" fill="#99CCCC"/>
<path d="M101.968 141.273L101.903 141.763L124.556 144.789L124.621 144.299L101.968 141.273Z" fill="#99CCCC"/>
<path fill-rule="evenodd" clip-rule="evenodd" d="M101.842 145.577L124.462 144.46L124.488 144.954L101.868 146.071L101.842 145.577Z" fill="#99CCCC"/>
<path fill-rule="evenodd" clip-rule="evenodd" d="M102.648 150.02L123.474 140.641L123.682 141.108L102.856 150.462L102.648 150.02Z" fill="#99CCCC"/>
<path fill-rule="evenodd" clip-rule="evenodd" d="M104.858 153.735L123.422 140.874L123.708 141.29L105.144 154.151L104.858 153.735Z" fill="#99CCCC"/>
<path fill-rule="evenodd" clip-rule="evenodd" d="M107.068 156.749L126.568 144.875L126.828 145.317L107.328 157.164L107.068 156.749Z" fill="#99CCCC"/>
<path fill-rule="evenodd" clip-rule="evenodd" d="M109.72 160.178L126.542 145.135L126.88 145.499L110.058 160.542L109.72 160.178Z" fill="#99CCCC"/>
<path fill-rule="evenodd" clip-rule="evenodd" d="M113.152 163.089L123.344 142.797L123.812 143.005L113.62 163.323L113.152 163.089Z" fill="#99CCCC"/>
<path fill-rule="evenodd" clip-rule="evenodd" d="M117.234 164.622L123.448 143.005L123.942 143.135L117.728 164.752L117.234 164.622Z" fill="#99CCCC"/>
<path d="M127.045 118.3L126.525 118.325L127.607 140.982L128.127 140.958L127.045 118.3Z" fill="#99CCCC"/>
<path fill-rule="evenodd" clip-rule="evenodd" d="M131.378 118.634L128.284 140.9L127.79 140.822L130.858 118.556L131.378 118.634Z" fill="#99CCCC"/>
<path fill-rule="evenodd" clip-rule="evenodd" d="M135.694 120.011L124.488 139.783L124.046 139.549L135.252 119.751L135.694 120.011Z" fill="#99CCCC"/>
<path fill-rule="evenodd" clip-rule="evenodd" d="M139.178 122.557L124.67 139.809L124.28 139.497L138.788 122.245L139.178 122.557Z" fill="#99CCCC"/>
<path fill-rule="evenodd" clip-rule="evenodd" d="M141.258 124.142L128.648 143.083L128.232 142.797L140.842 123.856L141.258 124.142Z" fill="#99CCCC"/>
<path fill-rule="evenodd" clip-rule="evenodd" d="M144.56 126.948L128.83 143.109L128.466 142.771L144.196 126.61L144.56 126.948Z" fill="#99CCCC"/>
<path fill-rule="evenodd" clip-rule="evenodd" d="M147.238 130.585L126.516 140.484L126.308 140.016L147.03 130.117L147.238 130.585Z" fill="#99CCCC"/>
<path d="M148.436 134.22L126.451 139.651L126.576 140.156L148.561 134.725L148.436 134.22Z" fill="#99CCCC"/>
<path d="M150.768 137.971L128.579 143.443L128.704 143.948L150.893 138.476L150.768 137.971Z" fill="#99CCCC"/>
<path d="M151.359 142.25L128.754 143.598L128.785 144.116L151.39 142.769L151.359 142.25Z" fill="#99CCCC"/>
<path fill-rule="evenodd" clip-rule="evenodd" d="M150.904 147.213L127.816 141.082L127.972 140.588L151.06 146.746L150.904 147.213Z" fill="#99CCCC"/>
<path fill-rule="evenodd" clip-rule="evenodd" d="M149.032 151.111L128.128 141.42L128.388 140.979L149.292 150.67L149.032 151.111Z" fill="#99CCCC"/>
<path fill-rule="evenodd" clip-rule="evenodd" d="M147.186 154.359L126.49 144.694L126.724 144.252L147.394 153.917L147.186 154.359Z" fill="#99CCCC"/>
<path fill-rule="evenodd" clip-rule="evenodd" d="M144.872 158.022L126.49 144.901L126.776 144.485L145.158 157.606L144.872 158.022Z" fill="#99CCCC"/>
<path fill-rule="evenodd" clip-rule="evenodd" d="M141.622 161.166L129.246 142.069L129.688 141.81L142.064 160.88L141.622 161.166Z" fill="#99CCCC"/>
<path fill-rule="evenodd" clip-rule="evenodd" d="M137.696 163.036L129.142 142.225L129.61 142.043L138.164 162.828L137.696 163.036Z" fill="#99CCCC"/>
<path fill-rule="evenodd" clip-rule="evenodd" d="M121.342 165.245L127.868 143.498L128.336 143.654L121.836 165.401L121.342 165.245Z" fill="#99CCCC"/>
<path fill-rule="evenodd" clip-rule="evenodd" d="M125.606 166.05L127.998 143.706L128.492 143.758L126.1 166.102L125.606 166.05Z" fill="#99CCCC"/>
<path fill-rule="evenodd" clip-rule="evenodd" d="M130.13 165.947L124.046 144.07L124.54 143.94L130.624 165.817L130.13 165.947Z" fill="#99CCCC"/>
<path fill-rule="evenodd" clip-rule="evenodd" d="M134.186 164.388L124.28 144.174L124.722 143.94L134.654 164.154L134.186 164.388Z" fill="#99CCCC"/>
<path fill-rule="evenodd" clip-rule="evenodd" d="M126.152 112.372C142.636 112.372 156 125.727 156 142.199C156 158.672 142.636 172.026 126.152 172.026C109.668 172.026 96.3042 158.672 96.3042 142.199C96.3302 125.727 109.668 112.372 126.152 112.372ZM126.152 117.932C113.1 117.932 101.894 129.13 101.894 142.173C101.894 155.216 113.1 166.414 126.152 166.414C139.204 166.414 150.41 155.19 150.41 142.173C150.41 129.156 139.204 117.932 126.152 117.932Z" fill="#673F33"/>
<path fill-rule="evenodd" clip-rule="evenodd" d="M126.152 116.347C140.426 116.347 152.022 127.909 152.022 142.199C152.022 156.463 140.452 168.051 126.152 168.051C111.878 168.051 100.282 156.489 100.282 142.199C100.282 127.909 111.878 116.347 126.152 116.347ZM126.152 118.581C113.1 118.581 102.544 129.156 102.544 142.173C102.544 155.216 113.126 165.764 126.152 165.764C139.204 165.764 149.76 155.19 149.76 142.173C149.786 129.156 139.204 118.581 126.152 118.581Z" fill="#CCCCCC"/>
<path fill-rule="evenodd" clip-rule="evenodd" d="M26.3384 118.296L27.7684 140.926L27.2484 140.978L25.8184 118.322L26.3384 118.296Z" fill="#99CCCC"/>
<path fill-rule="evenodd" clip-rule="evenodd" d="M22.0482 118.997L27.5602 140.796L27.0662 140.926L21.5542 119.127L22.0482 118.997Z" fill="#99CCCC"/>
<path fill-rule="evenodd" clip-rule="evenodd" d="M17.8364 120.66L31.1484 139.107L30.7324 139.393L17.4204 120.946L17.8364 120.66Z" fill="#99CCCC"/>
<path fill-rule="evenodd" clip-rule="evenodd" d="M14.5862 123.519L30.8882 139.082L30.5502 139.445L14.2222 123.882L14.5862 123.519Z" fill="#99CCCC"/>
<path fill-rule="evenodd" clip-rule="evenodd" d="M12.0383 126.272L27.5603 142.927L27.1703 143.265L11.6743 126.61L12.0383 126.272Z" fill="#99CCCC"/>
<path fill-rule="evenodd" clip-rule="evenodd" d="M9.17821 129.494L27.3002 142.953L27.0142 143.342L8.86621 129.91L9.17821 129.494Z" fill="#99CCCC"/>
<path fill-rule="evenodd" clip-rule="evenodd" d="M6.94201 133.443L29.016 139.393L28.86 139.887L6.81201 133.911L6.94201 133.443Z" fill="#99CCCC"/>
<path d="M6.24016 137.684L6.19775 138.202L28.769 140.047L28.8114 139.53L6.24016 137.684Z" fill="#99CCCC"/>
<path fill-rule="evenodd" clip-rule="evenodd" d="M5.66833 141.264L28.3143 144.304L28.2363 144.797L5.59033 141.757L5.66833 141.264Z" fill="#99CCCC"/>
<path fill-rule="evenodd" clip-rule="evenodd" d="M5.51221 145.577L28.1322 144.46L28.1582 144.954L5.53821 146.071L5.51221 145.577Z" fill="#99CCCC"/>
<path fill-rule="evenodd" clip-rule="evenodd" d="M6.34424 150.02L27.1702 140.641L27.3782 141.108L6.55224 150.462L6.34424 150.02Z" fill="#99CCCC"/>
<path fill-rule="evenodd" clip-rule="evenodd" d="M8.52832 153.735L27.0923 140.874L27.3783 141.29L8.81432 154.151L8.52832 153.735Z" fill="#99CCCC"/>
<path fill-rule="evenodd" clip-rule="evenodd" d="M10.7642 156.749L30.2382 144.875L30.5242 145.317L11.0242 157.164L10.7642 156.749Z" fill="#99CCCC"/>
<path fill-rule="evenodd" clip-rule="evenodd" d="M13.3901 160.178L30.2121 145.135L30.5501 145.499L13.7281 160.542L13.3901 160.178Z" fill="#99CCCC"/>
<path fill-rule="evenodd" clip-rule="evenodd" d="M16.8481 163.089L27.0401 142.797L27.4821 143.005L17.2901 163.323L16.8481 163.089Z" fill="#99CCCC"/>
<path fill-rule="evenodd" clip-rule="evenodd" d="M20.9043 164.622L27.1183 143.005L27.6123 143.135L21.3983 164.752L20.9043 164.622Z" fill="#99CCCC"/>
<path d="M30.7377 118.299L30.2183 118.324L31.3 140.981L31.8194 140.957L30.7377 118.299Z" fill="#99CCCC"/>
<path fill-rule="evenodd" clip-rule="evenodd" d="M35.0484 118.634L31.9804 140.9L31.4604 140.822L34.5544 118.556L35.0484 118.634Z" fill="#99CCCC"/>
<path fill-rule="evenodd" clip-rule="evenodd" d="M39.3643 120.011L28.1843 139.783L27.7163 139.549L38.9223 119.751L39.3643 120.011Z" fill="#99CCCC"/>
<path fill-rule="evenodd" clip-rule="evenodd" d="M42.8741 122.557L28.3661 139.809L27.9761 139.497L42.4841 122.245L42.8741 122.557Z" fill="#99CCCC"/>
<path fill-rule="evenodd" clip-rule="evenodd" d="M44.9543 124.142L32.3443 143.083L31.9023 142.797L44.5123 123.856L44.9543 124.142Z" fill="#99CCCC"/>
<path fill-rule="evenodd" clip-rule="evenodd" d="M48.2561 126.948L32.5261 143.109L32.1621 142.771L47.8661 126.61L48.2561 126.948Z" fill="#99CCCC"/>
<path fill-rule="evenodd" clip-rule="evenodd" d="M50.9084 130.585L30.1084 139.99L29.9004 139.523L50.7004 130.117L50.9084 130.585Z" fill="#99CCCC"/>
<path d="M52.1034 134.221L30.1187 139.652L30.2435 140.157L52.2282 134.726L52.1034 134.221Z" fill="#99CCCC"/>
<path fill-rule="evenodd" clip-rule="evenodd" d="M54.5482 138.458L32.3702 143.94L32.2402 143.446L54.4442 137.964L54.5482 138.458Z" fill="#99CCCC"/>
<path d="M55.0584 142.249L32.4531 143.597L32.4841 144.115L55.0893 142.768L55.0584 142.249Z" fill="#99CCCC"/>
<path fill-rule="evenodd" clip-rule="evenodd" d="M54.5744 147.214L32.8384 140.173L32.9944 139.705L54.7304 146.746L54.5744 147.214Z" fill="#99CCCC"/>
<path fill-rule="evenodd" clip-rule="evenodd" d="M52.7284 151.111L32.8384 140.355L33.0724 139.913L52.9624 150.67L52.7284 151.111Z" fill="#99CCCC"/>
<path fill-rule="evenodd" clip-rule="evenodd" d="M50.856 154.359L30.186 144.694L30.394 144.252L51.09 153.917L50.856 154.359Z" fill="#99CCCC"/>
<path fill-rule="evenodd" clip-rule="evenodd" d="M48.5422 158.022L30.1602 144.901L30.4462 144.485L48.8282 157.606L48.5422 158.022Z" fill="#99CCCC"/>
<path fill-rule="evenodd" clip-rule="evenodd" d="M45.2924 161.166L32.9424 142.069L33.3584 141.81L45.7344 160.88L45.2924 161.166Z" fill="#99CCCC"/>
<path fill-rule="evenodd" clip-rule="evenodd" d="M41.392 163.036L32.812 142.225L33.28 142.043L41.86 162.828L41.392 163.036Z" fill="#99CCCC"/>
<path fill-rule="evenodd" clip-rule="evenodd" d="M25.0122 165.245L31.5382 143.498L32.0322 143.654L25.5062 165.401L25.0122 165.245Z" fill="#99CCCC"/>
<path fill-rule="evenodd" clip-rule="evenodd" d="M29.2764 166.05L31.6684 143.706L32.1884 143.758L29.7964 166.102L29.2764 166.05Z" fill="#99CCCC"/>
<path fill-rule="evenodd" clip-rule="evenodd" d="M33.8262 165.947L27.7422 144.07L28.2102 143.94L34.3202 165.817L33.8262 165.947Z" fill="#99CCCC"/>
<path fill-rule="evenodd" clip-rule="evenodd" d="M37.8562 164.388L27.9502 144.174L28.4182 143.94L38.3242 164.154L37.8562 164.388Z" fill="#99CCCC"/>
<path fill-rule="evenodd" clip-rule="evenodd" d="M29.848 112.372C46.332 112.372 59.696 125.727 59.696 142.199C59.696 158.672 46.332 172.026 29.848 172.026C13.364 172 0 158.646 0 142.173C0 125.727 13.364 112.372 29.848 112.372ZM29.848 117.932C16.796 117.932 5.59 129.13 5.59 142.173C5.59 155.216 16.796 166.414 29.848 166.414C42.9 166.414 54.106 155.19 54.106 142.173C54.106 129.156 42.874 117.932 29.848 117.932Z" fill="#673F33"/>
<path fill-rule="evenodd" clip-rule="evenodd" d="M29.848 116.347C44.122 116.347 55.718 127.909 55.718 142.199C55.718 156.463 44.148 168.051 29.848 168.051C15.574 168.051 3.97803 156.489 3.97803 142.199C3.97803 127.909 15.548 116.347 29.848 116.347ZM29.848 118.581C16.796 118.581 6.24003 129.156 6.24003 142.173C6.24003 155.216 16.822 165.764 29.848 165.764C42.9 165.764 53.456 155.19 53.456 142.173C53.456 129.156 42.874 118.581 29.848 118.581Z" fill="#CCCCCC"/>
<path fill-rule="evenodd" clip-rule="evenodd" d="M110.136 108.942C109.876 108.241 110.266 107.461 110.968 107.227C111.67 106.968 112.45 107.357 112.684 108.059L116.402 118.4L113.88 119.309L110.136 108.942Z" fill="#CCCC33"/>
<path fill-rule="evenodd" clip-rule="evenodd" d="M55.1978 100.473L67.3658 138.094C67.5998 138.796 67.2098 139.549 66.5078 139.783C65.8058 140.017 65.0518 139.627 64.8178 138.926L52.3638 100.499H55.1978V100.473Z" fill="#CCCC33"/>
<path fill-rule="evenodd" clip-rule="evenodd" d="M101.686 89.8977L104.676 88.8584L106.366 93.9768L103.35 95.0161L101.686 89.8977Z" fill="#544132"/>
<path d="M126.797 146.028C128.54 145.745 129.724 144.103 129.441 142.361C129.158 140.619 127.515 139.436 125.772 139.719C124.029 140.001 122.845 141.643 123.128 143.385C123.411 145.127 125.053 146.31 126.797 146.028Z" fill="#544132"/>
<path fill-rule="evenodd" clip-rule="evenodd" d="M123.006 137.548C123.084 137.626 123.188 137.73 123.292 137.834C124.982 139.496 125.554 140.406 127.374 141.211C128.414 141.965 128.57 143.654 127.582 144.485C126.594 145.316 125.112 145.212 124.28 144.225L123.006 142.744V137.548Z" fill="#99CCCC"/>
<path fill-rule="evenodd" clip-rule="evenodd" d="M115.934 117.022L124.722 141.471C124.982 142.199 124.592 143.03 123.864 143.29C123.136 143.55 122.304 143.16 122.044 142.433L113.256 118.01L115.934 117.022Z" fill="#666633"/>
<path fill-rule="evenodd" clip-rule="evenodd" d="M30.3422 143.602C29.8222 144.121 28.9642 144.121 28.4442 143.602C27.9242 143.082 27.9242 142.225 28.4442 141.705L56.8102 113.385C57.3302 112.865 58.1882 112.865 58.7082 113.385C59.2282 113.904 59.2282 114.762 58.7082 115.282L30.3422 143.602Z" fill="#CCCC33"/>
<path fill-rule="evenodd" clip-rule="evenodd" d="M102.96 94.9901C102.934 94.9382 102.934 94.9122 102.908 94.8602L106.73 93.5352V93.5611L111.592 106.63L107.77 107.955L102.96 94.9901Z" fill="#CCCC33"/>
<path fill-rule="evenodd" clip-rule="evenodd" d="M29.8482 146.486C32.2142 146.486 34.1642 144.564 34.1642 142.173C34.1642 139.809 32.2402 137.86 29.8482 137.86C27.4822 137.86 25.5322 139.783 25.5322 142.173C25.5322 144.564 27.4562 146.486 29.8482 146.486Z" fill="#544132"/>
<path fill-rule="evenodd" clip-rule="evenodd" d="M29.3022 143.966C28.5482 143.914 28.0022 143.264 28.0802 142.511C28.1322 141.757 28.7822 141.212 29.5362 141.29L62.0362 144.07C62.7902 144.122 63.3362 144.771 63.2582 145.525C63.2062 146.278 62.5562 146.824 61.8022 146.746L29.3022 143.966Z" fill="#666633"/>
<path fill-rule="evenodd" clip-rule="evenodd" d="M29.458 145.707L70.122 152.332L70.226 152.982L29.562 146.357L29.458 145.707Z" fill="#544132"/>
<path d="M30.3867 138.497L30.3838 139.146L68.3438 139.318L68.3467 138.668L30.3867 138.497Z" fill="#544132"/>
<path fill-rule="evenodd" clip-rule="evenodd" d="M29.8482 144.589C31.1742 144.589 32.2662 143.498 32.2662 142.173C32.2662 140.848 31.1742 139.757 29.8482 139.757C28.5222 139.757 27.4302 140.848 27.4302 142.173C27.4302 143.524 28.5222 144.589 29.8482 144.589Z" fill="white"/>
<path fill-rule="evenodd" clip-rule="evenodd" d="M102.44 91.5084L101.218 90.3911C101.218 90.3911 105.222 85.0649 107.77 84.3634C110.318 83.6359 110.24 85.4806 108.992 86.6238C107.77 87.741 105.508 89.3779 105.3 90.8328C105.118 92.2359 102.44 91.5084 102.44 91.5084Z" fill="#666633"/>
<path fill-rule="evenodd" clip-rule="evenodd" d="M71.708 142.979C72.514 142.979 73.216 143.29 73.736 143.81C74.256 144.33 74.568 145.057 74.568 145.837C74.568 146.642 74.256 147.344 73.736 147.863C73.216 148.383 72.488 148.695 71.708 148.695C71.5 148.695 71.318 148.669 71.136 148.643C71.318 149.032 71.422 149.448 71.422 149.916C71.422 150.721 71.11 151.423 70.59 151.942C70.07 152.462 69.342 152.774 68.562 152.774C67.756 152.774 67.054 152.462 66.534 151.942C66.014 151.423 65.702 150.695 65.702 149.916C65.702 149.708 65.728 149.474 65.78 149.266C65.442 149.396 65.104 149.474 64.714 149.474C63.908 149.474 63.206 149.162 62.686 148.643C62.166 148.123 61.854 147.396 61.854 146.616C61.854 145.811 62.166 145.109 62.686 144.59C63.206 144.07 63.934 143.758 64.714 143.758C65.078 143.758 65.416 143.81 65.728 143.94C65.312 143.446 65.052 142.797 65.052 142.095C65.052 141.29 65.364 140.588 65.884 140.069C66.404 139.549 67.132 139.237 67.912 139.237C68.718 139.237 69.42 139.549 69.94 140.069C70.46 140.588 70.772 141.316 70.772 142.095C70.772 142.511 70.694 142.901 70.538 143.264C70.876 143.083 71.292 142.979 71.708 142.979ZM69.758 148.747C69.446 148.435 69.03 148.253 68.562 148.253C68.094 148.253 67.678 148.435 67.366 148.747C67.054 149.058 66.872 149.474 66.872 149.942C66.872 150.409 67.054 150.825 67.366 151.137C67.678 151.449 68.094 151.631 68.562 151.631C69.03 151.631 69.446 151.449 69.758 151.137C70.07 150.825 70.252 150.409 70.252 149.942C70.252 149.474 70.044 149.058 69.758 148.747ZM65.884 145.447C65.572 145.135 65.156 144.953 64.688 144.953C64.22 144.953 63.804 145.135 63.492 145.447C63.18 145.759 62.998 146.174 62.998 146.642C62.998 147.11 63.18 147.526 63.492 147.837C63.804 148.149 64.22 148.331 64.688 148.331C65.156 148.331 65.572 148.149 65.884 147.837C66.196 147.526 66.378 147.11 66.378 146.642C66.378 146.174 66.196 145.733 65.884 145.447ZM69.082 140.9C68.77 140.588 68.354 140.406 67.886 140.406C67.418 140.406 67.002 140.588 66.69 140.9C66.378 141.212 66.196 141.628 66.196 142.095C66.196 142.563 66.378 142.979 66.69 143.29C67.002 143.602 67.418 143.784 67.886 143.784C68.354 143.784 68.77 143.602 69.082 143.29C69.394 142.979 69.576 142.563 69.576 142.095C69.576 141.628 69.394 141.186 69.082 140.9ZM72.904 144.668C72.592 144.356 72.176 144.174 71.708 144.174C71.24 144.174 70.824 144.356 70.512 144.668C70.2 144.979 70.018 145.395 70.018 145.863C70.018 146.33 70.2 146.746 70.512 147.058C70.824 147.37 71.24 147.552 71.708 147.552C72.176 147.552 72.592 147.37 72.904 147.058C73.216 146.746 73.398 146.33 73.398 145.863C73.398 145.395 73.216 144.979 72.904 144.668Z" fill="#673F33"/>
<path fill-rule="evenodd" clip-rule="evenodd" d="M68.198 138.535C72.332 138.535 75.686 141.887 75.686 146.018C75.686 150.149 72.332 153.501 68.198 153.501C64.064 153.501 60.71 150.149 60.71 146.018C60.71 141.887 64.064 138.535 68.198 138.535ZM68.198 139.73C64.714 139.73 61.906 142.536 61.906 146.018C61.906 149.5 64.714 152.306 68.198 152.306C71.682 152.306 74.49 149.5 74.49 146.018C74.49 142.536 71.682 139.73 68.198 139.73Z" fill="#E87022"/>
<path fill-rule="evenodd" clip-rule="evenodd" d="M67.3658 146.304C67.1838 145.836 67.4178 145.343 67.8598 145.161C68.3278 144.979 68.8218 145.213 69.0038 145.654L73.4758 157.684C73.6578 158.152 73.4238 158.645 72.9818 158.827C72.5138 159.009 72.0198 158.775 71.8378 158.333L67.3658 146.304Z" fill="#4F9884"/>
<path fill-rule="evenodd" clip-rule="evenodd" d="M35.6201 137.86L69.1081 137.133C69.1081 137.133 74.7241 137.211 76.8041 144.096C77.0381 145.213 76.8821 147.552 76.8821 147.552L73.1901 146.019C73.1901 146.019 73.1901 145.993 73.1901 145.967C73.2161 145.759 73.2161 145.577 73.2161 145.369C73.2161 142.537 70.7981 140.251 67.8341 140.251C65.5461 140.251 63.5961 141.602 62.8161 143.498C61.4901 143.109 61.4381 141.238 38.1681 140.017C35.7761 139.705 35.6201 137.86 35.6201 137.86Z" fill="#CCCC33"/>
<path fill-rule="evenodd" clip-rule="evenodd" d="M68.1462 146.823C68.6402 146.823 69.0302 146.434 69.0302 145.94C69.0302 145.446 68.6402 145.057 68.1462 145.057C67.6522 145.057 67.2622 145.446 67.2622 145.94C67.2622 146.434 67.6782 146.823 68.1462 146.823Z" fill="#99CCCC"/>
<path fill-rule="evenodd" clip-rule="evenodd" d="M67.6258 145.914C68.0418 145.369 68.8478 145.265 69.3938 145.68C69.9398 146.096 70.0438 146.902 69.6278 147.447C69.2118 147.993 68.4058 148.097 67.8598 147.681C67.2878 147.265 67.1838 146.486 67.6258 145.914Z" fill="#99CCCC"/>
<path fill-rule="evenodd" clip-rule="evenodd" d="M61.854 146.876L61.75 149.344C61.75 149.344 72.332 153.086 73.944 149.007C73.554 146.824 72.8 145.499 72.8 145.499L61.854 146.876Z" fill="#FFD392"/>
<path d="M74.282 142.979H61.854V147.343H74.282V142.979Z" fill="#CC6633"/>
<path fill-rule="evenodd" clip-rule="evenodd" d="M61.1778 149.006C61.0478 149.292 61.0998 149.63 60.9958 149.916C60.1898 152.514 60.4758 155.242 61.8278 156.619C71.5518 156.619 80.9898 156.619 90.7138 156.619C91.4938 156.203 92.6638 153.111 90.4798 152.306C86.5538 150.877 79.3778 149.318 75.3738 146.746C74.3338 146.07 73.1898 145.447 72.3318 147.239C69.3158 153.657 60.7358 145.577 61.1778 149.006Z" fill="#CC6633"/>
<path fill-rule="evenodd" clip-rule="evenodd" d="M80.1576 149.136C80.4436 148.876 80.4696 148.434 80.2096 148.149C79.9496 147.863 79.5076 147.837 79.2216 148.097C79.2216 148.097 78.4416 148.798 77.8956 150.409C77.7656 150.773 77.9736 151.162 78.3376 151.292C78.7016 151.422 79.0916 151.214 79.2216 150.851C79.6376 149.604 80.1576 149.136 80.1576 149.136ZM77.6616 148.123C77.6616 148.123 76.9596 148.772 76.5436 150.019C76.4136 150.383 76.0236 150.591 75.6596 150.461C75.2956 150.331 75.0876 149.941 75.2176 149.578C75.7636 147.967 76.6736 147.135 76.6736 147.135C76.9596 146.849 77.4016 146.849 77.6616 147.135C77.9476 147.421 77.9476 147.863 77.6616 148.123ZM82.6536 150.123C82.6536 150.123 82.3156 150.409 81.9256 151.63C81.7956 151.994 81.4056 152.202 81.0416 152.072C80.6776 151.942 80.4696 151.552 80.5996 151.188C81.1456 149.578 81.7436 149.058 81.7696 149.058C82.0556 148.798 82.4976 148.85 82.7576 149.136C82.9656 149.448 82.9396 149.889 82.6536 150.123Z" fill="#EBA763"/>
<path fill-rule="evenodd" clip-rule="evenodd" d="M60.9956 149.915C62.2696 150.149 64.5316 150.929 66.1176 152.591C67.0796 153.579 67.8076 154.904 67.9116 156.645H68.1716H68.6136H68.8476C68.7436 154.644 67.9116 153.111 66.7936 151.942C65.0256 150.123 62.5816 149.266 61.1776 149.006C61.0476 149.292 61.0996 149.629 60.9956 149.915Z" fill="#EBA763"/>
<path fill-rule="evenodd" clip-rule="evenodd" d="M65.312 151.786C67.964 153.449 73.554 154.462 78.676 154.644C81.25 154.722 83.72 154.618 85.618 154.254C87.646 153.865 89.102 153.189 89.518 152.202C89.544 152.15 89.57 152.072 89.57 152.02C89.284 151.916 88.972 151.838 88.686 151.734C88.686 151.786 88.66 151.812 88.66 151.864C88.4 152.54 87.204 153.033 85.462 153.345C83.616 153.683 81.224 153.813 78.702 153.735C73.736 153.579 68.302 152.643 65.78 151.059L65.312 151.786Z" fill="#EBA763"/>
<path fill-rule="evenodd" clip-rule="evenodd" d="M62.2176 156.619H90.4016C90.6096 156.619 90.7916 156.801 90.7916 157.009C90.7916 157.217 90.6096 157.399 90.4016 157.399H62.2176C62.0096 157.399 61.8276 157.217 61.8276 157.009C61.8276 156.801 62.0096 156.619 62.2176 156.619Z" fill="#EBA763"/>
<path fill-rule="evenodd" clip-rule="evenodd" d="M64.818 88.624L73.606 115.775L74.464 120.53C74.698 127.259 74.932 135.625 75.166 142.355C75.27 145.602 73.866 145.057 72.488 145.057C69.29 145.057 66.118 145.057 62.92 145.083C62.166 145.083 60.918 145.291 60.892 142.484L60.788 123.258L59.54 118.893L46.592 96.0549C41.548 90.9364 39.728 87.4808 40.482 79.3745L65.104 79.0107C65.052 79.1147 63.856 85.6881 64.818 88.624Z" fill="#EBA763"/>
<path fill-rule="evenodd" clip-rule="evenodd" d="M99.5541 67.8907C99.9701 68.1245 100.282 68.4623 100.412 69.0339C100.542 69.6835 100.62 70.9306 99.2421 71.5022C99.0081 70.9046 99.0341 70.359 98.2541 69.9692C97.5781 69.6575 97.0061 69.5535 96.0701 70.2551C94.8481 72.0998 89.9601 72.8792 88.6601 68.6182C87.9841 67.3711 87.7761 64.9288 88.5041 63.6816L97.1361 64.5131C97.7081 64.565 98.1761 65.0067 98.3321 65.5264L98.5661 65.5523C99.3721 65.6563 99.9441 66.4097 99.8401 67.2152C99.7881 67.449 99.6841 67.6828 99.5541 67.8907Z" fill="#DCAF76"/>
<path fill-rule="evenodd" clip-rule="evenodd" d="M76.2059 61.6036C78.0779 62.2271 88.9979 63.2924 90.5059 63.2924L90.6619 72.542C85.8259 72.542 77.1939 72.0483 72.5919 70.5413C65.3119 68.177 60.4499 60.6423 58.3959 53.6271C56.7839 48.093 53.5079 38.2459 57.2779 34.8942C60.7619 31.7764 65.1039 33.6731 66.7159 37.3625C68.6139 41.7274 68.8739 46.7939 69.9919 52.0163C70.7459 55.6797 72.1499 60.2785 76.2059 61.6036Z" fill="#F7DB6C"/>
<path fill-rule="evenodd" clip-rule="evenodd" d="M104.858 81.4279C104.52 80.5446 104.208 79.6352 103.896 78.7518C103.116 76.4134 102.388 74.2569 100.802 73.2696C99.32 72.3603 97.916 72.3603 96.772 72.3862C96.07 72.3862 95.472 72.4122 94.874 72.2563L95.446 69.918C95.758 69.9959 96.2 69.9959 96.72 69.9699C98.176 69.9439 99.97 69.918 102.05 71.2171C104.364 72.6461 105.222 75.2183 106.132 77.9983C106.418 78.8298 106.678 79.6612 107.042 80.5446L104.858 81.4279Z" fill="#99CCCC"/>
<path fill-rule="evenodd" clip-rule="evenodd" d="M106.808 85.8707C106.808 85.8707 105.326 82.7269 104.702 80.9601C104.416 80.1287 103.948 79.2453 103.298 78.5178C102.804 77.9462 102.18 77.4785 101.4 77.1667C99.3982 76.4133 95.2642 75.9975 95.2642 75.9975L95.4982 73.6592C95.4982 73.6592 99.9702 74.0749 102.258 74.9583C103.402 75.4 104.338 76.1015 105.092 76.9589C105.976 77.9462 106.574 79.1154 106.938 80.1806C107.536 81.8954 108.94 84.8834 108.94 84.8834L106.808 85.8707Z" fill="#99CCCC"/>
<path fill-rule="evenodd" clip-rule="evenodd" d="M93.5479 75.8937C94.3019 75.8937 94.9259 75.2702 94.9259 74.5167C94.9259 73.7632 94.3019 73.1396 93.5479 73.1396C92.7939 73.1396 92.1699 73.7632 92.1699 74.5167C92.1699 75.2702 92.7939 75.8937 93.5479 75.8937Z" fill="#EDBA68"/>
<path fill-rule="evenodd" clip-rule="evenodd" d="M40.0138 83.4796C40.0138 82.4144 40.1438 80.9334 40.0658 79.6863C40.1958 69.0857 38.3758 61.8367 44.7458 44.3509C47.8918 35.7249 58.8378 27.6706 66.0398 33.4125C70.3298 37.128 72.2798 40.9213 70.6678 51.1841C69.8618 56.2766 69.4718 80.7255 69.1598 84.337L40.0138 83.4796Z" fill="#99CCCC"/>
<path fill-rule="evenodd" clip-rule="evenodd" d="M98.1762 71.1387C98.5922 71.3726 98.9042 71.7104 99.0342 72.282C99.1642 72.9315 99.2422 74.1786 97.8642 74.7502C97.6302 74.1526 97.6562 73.607 96.8762 73.2173C96.2002 72.9055 95.6282 72.8016 94.6922 73.5031C93.4702 75.3478 88.5822 76.1273 87.2822 71.8662C86.6062 70.6191 86.3982 68.1768 87.1262 66.9297L95.7582 67.7611C96.3302 67.8131 96.7982 68.2548 96.9542 68.7744L97.1882 68.8004C97.9942 68.9043 98.5662 69.6578 98.4622 70.4632C98.4102 70.723 98.3062 70.9569 98.1762 71.1387Z" fill="#FCD392"/>
<path fill-rule="evenodd" clip-rule="evenodd" d="M95.654 77.2189C96.876 77.2189 97.89 76.2056 97.89 74.9844C97.89 73.7633 96.876 72.75 95.654 72.75C94.432 72.75 93.418 73.7633 93.418 74.9844C93.418 76.2056 94.406 77.2189 95.654 77.2189Z" fill="#CCCC33"/>
<path fill-rule="evenodd" clip-rule="evenodd" d="M74.828 64.877C76.7 65.5006 87.62 66.5658 89.128 66.5658L89.284 75.8154C84.448 75.8154 75.816 75.3217 71.214 73.8148C63.934 71.4504 59.072 63.9157 57.018 56.9006C55.406 51.3664 52.13 41.5193 55.9 38.1677C59.384 35.0498 63.726 36.9465 65.338 40.6359C67.236 45.0009 67.496 50.0674 68.614 55.2897C69.368 58.9532 70.772 63.5519 74.828 64.877Z" fill="#FFFF99"/>
<path fill-rule="evenodd" clip-rule="evenodd" d="M67.834 14.42C57.408 15.7971 49.244 18.8369 49.556 21.2273C49.868 23.6176 58.578 24.449 68.978 23.072C79.404 21.695 87.568 18.6551 87.256 16.2647C86.944 13.8744 78.26 13.043 67.834 14.42Z" fill="#666633"/>
<path fill-rule="evenodd" clip-rule="evenodd" d="M71.5779 39.5447C76.3359 39.0511 80.0279 34.868 81.2239 25.8263C81.5879 23.1242 81.8999 20.2662 81.7179 16.9665C81.5099 13.5888 76.1799 3.27402 72.7479 3.8716C58.6299 6.28792 64.0639 31.4644 71.5779 39.5447Z" fill="#FCD392"/>
<path fill-rule="evenodd" clip-rule="evenodd" d="M72.9303 11.9263C73.9963 13.0175 74.8023 14.4725 74.5683 20.3444C74.5163 21.8774 76.1023 22.4749 76.5703 24.7613C76.7003 25.4109 74.2563 28.165 73.5283 28.6326C73.2683 30.7112 73.1903 32.7638 73.0603 34.5045C74.6463 37.2846 72.6183 39.1553 71.6043 39.545C67.1323 39.3112 63.9343 37.8042 60.7883 35.6218C57.4083 33.2834 55.8743 27.3335 55.5363 24.2417C53.7943 8.83445 57.9543 7.66527 63.1283 6.36617C68.2503 5.0411 71.8123 9.84774 72.9303 11.9263Z" fill="#FFE2A9"/>
<path fill-rule="evenodd" clip-rule="evenodd" d="M75.9721 27.801C78.1561 27.749 77.7401 28.9702 79.8201 26.2161C80.6521 26.1121 81.2761 25.9822 81.2761 25.9822C81.2761 25.9822 85.2801 39.5967 72.5921 40.0384C57.7981 40.5841 55.4321 25.7224 55.4321 25.7224C55.4321 25.7224 58.2661 25.4626 59.0981 25.5665C59.3321 25.8523 59.5661 26.1122 59.8521 26.346C62.1141 28.1907 65.8321 27.723 67.8081 27.775C73.4241 31.7502 70.3301 31.6983 75.9721 27.801Z" fill="#E6E6E6"/>
<path fill-rule="evenodd" clip-rule="evenodd" d="M57.7982 21.2535C57.3562 20.448 56.8362 19.7985 55.7702 19.5646C54.7042 19.3308 52.8062 19.8764 52.8062 22.8643C52.8062 25.8522 55.3022 28.4245 56.8882 28.0607C58.4482 27.7229 57.7982 21.2535 57.7982 21.2535Z" fill="#FFE2A9"/>
<path fill-rule="evenodd" clip-rule="evenodd" d="M81.5881 18.8374H77.6881C77.0381 18.8374 76.5181 18.3178 76.5181 17.6682C76.5181 17.0187 77.0381 16.499 77.6881 16.499H81.5881C82.2381 16.499 82.7581 17.0187 82.7581 17.6682C82.7581 18.3178 82.2121 18.8374 81.5881 18.8374Z" fill="#F0F0F0"/>
<path fill-rule="evenodd" clip-rule="evenodd" d="M69.3942 18.8374H65.4942C64.8442 18.8374 64.3242 18.3178 64.3242 17.6682C64.3242 17.0187 64.8442 16.499 65.4942 16.499H69.3942C70.0442 16.499 70.5642 17.0187 70.5642 17.6682C70.5642 18.3178 70.0442 18.8374 69.3942 18.8374Z" fill="#F0F0F0"/>
<path fill-rule="evenodd" clip-rule="evenodd" d="M69.8882 27.4893C69.8882 29.4639 71.6562 31.0488 73.8402 31.0488C76.0242 31.0488 77.7922 29.4639 77.7922 27.4893H69.8882Z" fill="white"/>
<path fill-rule="evenodd" clip-rule="evenodd" d="M56.7583 21.9548C56.4983 21.4612 56.1603 21.0454 55.5103 20.9155C54.8603 20.7856 53.9243 21.0974 53.9243 22.9421C53.9243 24.7868 55.2243 26.3717 56.1863 26.1379C56.4983 26.0599 56.6543 25.6183 56.7583 25.0467C56.1603 24.8648 55.7963 24.1893 55.9263 23.4358C56.0303 22.8902 56.3683 22.4485 56.7843 22.2666C56.7583 22.0847 56.7583 21.9548 56.7583 21.9548Z" fill="#FCC883"/>
<path fill-rule="evenodd" clip-rule="evenodd" d="M77.6622 30.0615C77.8442 29.9576 77.8962 29.6978 77.7922 29.5159C77.6882 29.334 77.4282 29.282 77.2462 29.386C76.1542 30.0615 75.0622 30.4253 73.9442 30.4253C72.8522 30.4253 71.7342 30.0875 70.5902 29.386C70.4082 29.282 70.1482 29.334 70.0442 29.5159C69.9402 29.6978 69.9922 29.9576 70.1742 30.0615C71.4482 30.841 72.6962 31.2307 73.9442 31.2307C75.2182 31.2047 76.4402 30.815 77.6622 30.0615Z" fill="#E56B45"/>
<path fill-rule="evenodd" clip-rule="evenodd" d="M49.4781 20.916C55.0161 18.9414 68.2241 17.2266 75.0101 16.4731C81.7961 15.7196 84.7081 15.4338 87.2561 15.9275C86.8141 12.6278 70.6681 3.24834 66.4301 3.81994C62.2181 4.39154 49.0361 17.6423 49.4781 20.916Z" fill="#CCCC33"/>
<path fill-rule="evenodd" clip-rule="evenodd" d="M81.8743 12.0039L69.3163 13.6667L66.5863 14.0305L54.0283 15.6933L55.6403 3.9755C55.5103 3.01417 60.1903 1.19544 66.1703 0.390005C72.1503 -0.389451 77.1423 0.156169 77.2723 1.1175L81.8743 12.0039Z" fill="#CCCC33"/>
<path fill-rule="evenodd" clip-rule="evenodd" d="M81.1203 10.1856C74.8023 8.9904 60.1383 10.5233 54.3403 13.3034L55.0423 8.23692C61.3603 6.34025 72.4623 5.04115 79.1183 5.4049L81.1203 10.1856Z" fill="#FFFF99"/>
<path fill-rule="evenodd" clip-rule="evenodd" d="M75.1919 22.0332C75.6599 22.7087 76.2839 23.4622 76.5439 24.7353C76.5439 24.8392 76.5179 24.9692 76.4919 25.0731C76.4139 25.255 76.2839 25.4888 76.1279 25.7226C75.7379 26.1643 75.0619 26.4761 74.3079 26.5021C73.5279 26.4761 72.8519 26.1643 72.4619 25.6966L73.1899 22.5009L75.1919 22.0332Z" fill="#FFE2A9"/>
<path fill-rule="evenodd" clip-rule="evenodd" d="M67.9639 20.708C68.6139 20.708 69.1339 21.2276 69.1339 21.8772C69.1339 22.5267 68.6139 23.0464 67.9639 23.0464C67.3139 23.0464 66.7939 22.5267 66.7939 21.8772C66.7939 21.2276 67.3139 20.708 67.9639 20.708Z" fill="#1A1A1A"/>
<path fill-rule="evenodd" clip-rule="evenodd" d="M79.378 20.708C80.028 20.708 80.548 21.2276 80.548 21.8772C80.548 22.5267 80.028 23.0464 79.378 23.0464C78.728 23.0464 78.208 22.5267 78.208 21.8772C78.208 21.2276 78.728 20.708 79.378 20.708Z" fill="#1A1A1A"/>
<path fill-rule="evenodd" clip-rule="evenodd" d="M75.27 20.8635C76.024 20.7595 81.614 19.9021 84.448 20.8115C85.072 22.2405 83.694 25.0465 83.174 25.3583C82.654 25.6441 77.896 25.7221 76.986 25.5662C76.05 25.5402 75.582 22.3444 75.452 21.9287C75.426 21.7988 75.374 21.6689 75.348 21.539C74.62 21.3831 73.294 21.3311 72.592 21.539C72.566 21.6689 72.54 21.7988 72.488 21.9287C72.358 22.3444 71.864 25.5402 70.954 25.5662C70.018 25.7221 65.26 25.6441 64.766 25.3583C64.246 25.0725 62.894 22.2665 63.492 20.8115C66.274 19.9021 71.708 20.7335 72.618 20.8635C73.372 20.7076 74.516 20.7335 75.27 20.8635ZM71.838 21.2532C71.318 21.1752 66.664 20.4477 64.324 21.2012C63.83 22.3704 64.948 24.6568 65.364 24.9166C65.78 25.1505 69.68 25.2024 70.434 25.0985C71.188 25.0725 71.578 22.4743 71.682 22.1366C71.786 21.7728 71.838 21.2532 71.838 21.2532ZM76.102 21.2532C76.102 21.2532 76.154 21.7728 76.258 22.1106C76.362 22.4484 76.752 25.0725 77.506 25.0725C78.26 25.2024 82.134 25.1505 82.576 24.8906C82.992 24.6568 84.11 22.3444 83.616 21.1752C81.276 20.4477 76.622 21.2012 76.102 21.2532Z" fill="#A62900"/>
<path fill-rule="evenodd" clip-rule="evenodd" d="M82.6281 27.0216C80.7041 26.7098 79.3781 24.6313 76.5441 24.7352C76.5181 25.6965 75.5301 26.45 74.3081 26.502V29.0742C75.3221 31.0488 81.1201 30.0355 82.6281 27.0216Z" fill="#F0F0F0"/>
<path fill-rule="evenodd" clip-rule="evenodd" d="M65.9883 27.0216C67.9123 26.7098 69.2383 24.6313 72.0723 24.7352C72.0983 25.6965 73.0863 26.45 74.3083 26.502V29.0742C73.2943 31.0488 67.5223 30.0355 65.9883 27.0216Z" fill="#F0F0F0"/>
</g>
<defs>
<clipPath id="clip0_74_3243">
<rect width="156" height="172" fill="white"/>
</clipPath>
</defs>
</svg>
