<svg width="18" height="18" viewBox="0 0 18 18" fill="none" xmlns="http://www.w3.org/2000/svg">
<g clip-path="url(#clip0_86_4547)">
<path d="M4.17486 0.416992L6.84038 5.56083L5.31722 7.08953L2.02734 2.57231L4.17486 0.416992Z" fill="#AFB9D2"/>
<path d="M17.5402 13.8652L15.3927 16.0205H15.3584L10.8232 12.6498L12.3464 11.1211L17.5402 13.8652Z" fill="#AFB9D2"/>
<path d="M1.85581 2.70999C1.92442 2.64113 1.95873 2.6067 2.02734 2.57227L5.31722 7.08948L4.10624 8.30486L9.61224 13.8309L10.8232 12.6155L15.3927 15.9862C15.3584 16.0551 15.2898 16.0895 15.2555 16.1583C14.391 16.9915 13.9038 17.3737 12.6586 17.5493C12.487 17.5493 9.05649 18.1071 4.55564 13.5864C1.30006 10.288 0.157697 7.95712 0.469875 5.31634C0.607096 4.10096 1.02219 3.57762 1.85581 2.70999Z" fill="#D7DEED"/>
<path d="M12.1716 17.9998C11.6878 17.9998 10.9263 17.9309 10.024 17.6521C8.08579 17.0599 6.14754 15.7756 4.24016 13.8992C2.54205 12.1949 1.43399 10.773 0.778758 9.41641C0.123527 8.02888 -0.120041 6.7412 0.0549162 5.28137C0.192137 3.95925 0.610662 3.3705 1.54377 2.43056C1.61238 2.3617 1.68099 2.29284 1.75303 2.25841C1.96229 2.12069 2.20243 2.15512 2.34308 2.3617C2.4803 2.57173 2.446 2.81274 2.24016 2.9539C2.20586 2.98833 2.17155 3.02276 2.13725 3.05719C1.34137 3.85596 1.02919 4.27257 0.891966 5.38466C0.579787 7.92215 1.68785 10.1119 4.84051 13.2726C8.89197 17.3387 12.0069 17.201 12.5626 17.1287H12.5969C13.6021 17.0254 14.0515 16.7466 14.7445 16.0855L10.868 13.2347L9.89711 14.2091C9.72558 14.3812 9.44771 14.3812 9.27275 14.2091L3.75989 8.65206C3.69128 8.5832 3.62267 8.44204 3.62267 8.33875C3.62267 8.23546 3.65697 8.12873 3.75989 8.02544L4.97087 6.81006C5.14239 6.63791 5.42027 6.63791 5.59522 6.81006C5.77018 6.98221 5.76675 7.26109 5.59522 7.43668L4.65869 8.37662L9.54034 13.276L10.4769 12.3361C10.6141 12.1984 10.8577 12.1639 11.0326 12.3016L15.6021 15.6723C15.7736 15.8101 15.8113 16.0201 15.7393 16.1922C15.7393 16.2267 15.705 16.2267 15.705 16.2611C15.6364 16.33 15.6021 16.3988 15.5335 16.4711C14.6347 17.3732 14.0446 17.7898 12.693 17.9654C12.5901 17.9998 12.4151 17.9998 12.175 17.9998H12.1716Z" fill="white"/>
<path d="M5.31722 7.54017C5.29435 7.54017 5.29435 7.54017 5.31722 7.54017C5.1457 7.54017 5.03935 7.47131 4.97074 7.36802L1.68086 2.8508C1.54364 2.67865 1.57794 2.4342 1.71517 2.29304L3.86268 0.13772C3.9656 0.03443 4.10625 0 4.24347 0C4.38069 0.03443 4.48704 0.10329 4.55565 0.244453L7.22117 5.35386C7.32409 5.52601 7.28978 5.73604 7.15256 5.87376L5.6294 7.40245C5.52649 7.50574 5.42014 7.54017 5.31722 7.54017ZM2.58309 2.64078L5.35496 6.46251L6.2915 5.52257L4.03421 1.18095L2.57966 2.64078H2.58309Z" fill="white"/>
<path d="M15.3929 16.4369C15.29 16.4369 15.2214 16.4025 15.1493 16.3681H15.115L10.5456 12.9974C10.4426 12.9285 10.374 12.8252 10.374 12.6841C10.374 12.5429 10.4083 12.4396 10.5112 12.3363L12.0344 10.8076C12.1716 10.6699 12.3809 10.6355 12.5524 10.7388L17.7462 13.5207C17.8835 13.5896 17.9555 13.6929 17.9898 13.834C18.0241 13.9717 17.9555 14.1129 17.8526 14.2162L15.7051 16.3715C15.6365 16.4059 15.5335 16.4404 15.3929 16.4404V16.4369ZM11.4821 12.5808L15.3586 15.4316L16.8131 13.9717L12.4152 11.6443L11.4787 12.5842L11.4821 12.5808Z" fill="white"/>
</g>
<defs>
<clipPath id="clip0_86_4547">
<rect width="18" height="18" fill="white"/>
</clipPath>
</defs>
</svg>
