<svg width="40" height="40" viewBox="0 0 40 40" fill="none" xmlns="http://www.w3.org/2000/svg">
<g clip-path="url(#clip0_351_1591)">
<path d="M33.3332 9.68066H7.29346V30.404H33.3332V9.68066Z" fill="white"/>
<path d="M24.5449 19.8309L18.252 16.4072C17.9988 16.2625 17.1067 16.4434 17.1067 16.7447V23.4235C17.1067 23.7128 17.9867 23.9057 18.2399 23.761L24.8222 20.506C25.0874 20.3614 24.8222 19.9756 24.5449 19.8309Z" fill="black"/>
<path d="M20 0C8.9572 0 0 8.9572 0 20C0 31.0428 8.9572 40 20 40C31.0428 40 40 31.0428 40 20C40 8.9572 31.0428 0 20 0ZM33.4418 23.4117C33.4418 26.5823 30.874 29.1501 27.7034 29.1501H13.0319C9.86136 29.1501 7.29355 26.5823 7.29355 23.4117V16.5883C7.29355 13.4177 9.86136 10.8499 13.0319 10.8499H27.7034C30.874 10.8499 33.4418 13.4177 33.4418 16.5883V23.4117Z" fill="black"/>
</g>
<defs>
<clipPath id="clip0_351_1591">
<rect width="40" height="40" fill="white"/>
</clipPath>
</defs>
</svg>
