<svg width="346" height="44" viewBox="0 0 346 44" fill="none" xmlns="http://www.w3.org/2000/svg">
<path d="M14.098 13.5469H10.9872C10.9304 13.1444 10.8144 12.7869 10.6392 12.4744C10.464 12.1572 10.2391 11.8873 9.96449 11.6648C9.68987 11.4422 9.37263 11.2718 9.01278 11.1534C8.65767 11.035 8.27178 10.9759 7.85511 10.9759C7.10227 10.9759 6.4465 11.1629 5.88778 11.5369C5.32907 11.9062 4.89583 12.446 4.58807 13.1562C4.2803 13.8617 4.12642 14.7187 4.12642 15.7273C4.12642 16.7642 4.2803 17.6354 4.58807 18.3409C4.90057 19.0464 5.33617 19.5791 5.89489 19.9389C6.4536 20.2988 7.09991 20.4787 7.83381 20.4787C8.24574 20.4787 8.62689 20.4242 8.97727 20.3153C9.33239 20.2064 9.64725 20.0478 9.92188 19.8395C10.1965 19.6264 10.4238 19.3684 10.6037 19.0653C10.7884 18.7623 10.9162 18.4167 10.9872 18.0284L14.098 18.0426C14.0175 18.7102 13.8163 19.3542 13.4943 19.9744C13.1771 20.59 12.7486 21.1416 12.2088 21.6293C11.6738 22.1122 11.0346 22.4957 10.2912 22.7798C9.55256 23.0592 8.71686 23.1989 7.78409 23.1989C6.48674 23.1989 5.3267 22.9053 4.30398 22.3182C3.28598 21.7311 2.48106 20.8812 1.8892 19.7685C1.30208 18.6558 1.00852 17.3087 1.00852 15.7273C1.00852 14.1411 1.30682 12.7917 1.90341 11.679C2.5 10.5663 3.30966 9.71875 4.33239 9.13636C5.35511 8.54924 6.50568 8.25568 7.78409 8.25568C8.62689 8.25568 9.40814 8.37405 10.1278 8.6108C10.8523 8.84754 11.4938 9.19318 12.0526 9.64773C12.6113 10.0975 13.0658 10.6491 13.4162 11.3026C13.7713 11.956 13.9986 12.7041 14.098 13.5469ZM29.6697 15.7273C29.6697 17.3134 29.3691 18.6629 28.7678 19.7756C28.1712 20.8883 27.3568 21.7382 26.3246 22.3253C25.2971 22.9077 24.1418 23.1989 22.8587 23.1989C21.5661 23.1989 20.406 22.9053 19.3786 22.3182C18.3511 21.7311 17.5391 20.8812 16.9425 19.7685C16.3459 18.6558 16.0476 17.3087 16.0476 15.7273C16.0476 14.1411 16.3459 12.7917 16.9425 11.679C17.5391 10.5663 18.3511 9.71875 19.3786 9.13636C20.406 8.54924 21.5661 8.25568 22.8587 8.25568C24.1418 8.25568 25.2971 8.54924 26.3246 9.13636C27.3568 9.71875 28.1712 10.5663 28.7678 11.679C29.3691 12.7917 29.6697 14.1411 29.6697 15.7273ZM26.5518 15.7273C26.5518 14.6998 26.398 13.8333 26.0902 13.1278C25.7872 12.4223 25.3587 11.8873 24.8047 11.5227C24.2507 11.1581 23.602 10.9759 22.8587 10.9759C22.1153 10.9759 21.4666 11.1581 20.9126 11.5227C20.3587 11.8873 19.9278 12.4223 19.62 13.1278C19.317 13.8333 19.1655 14.6998 19.1655 15.7273C19.1655 16.7547 19.317 17.6212 19.62 18.3267C19.9278 19.0322 20.3587 19.5672 20.9126 19.9318C21.4666 20.2964 22.1153 20.4787 22.8587 20.4787C23.602 20.4787 24.2507 20.2964 24.8047 19.9318C25.3587 19.5672 25.7872 19.0322 26.0902 18.3267C26.398 17.6212 26.5518 16.7547 26.5518 15.7273ZM31.9478 8.45455H35.7404L39.7461 18.2273H39.9165L43.9222 8.45455H47.7148V23H44.7319V13.5327H44.6112L40.8469 22.929H38.8157L35.0515 13.4972H34.9308V23H31.9478V8.45455ZM50.2486 23V8.45455H55.9872C57.0904 8.45455 58.0303 8.66525 58.8068 9.08665C59.5833 9.50331 60.1752 10.0833 60.5824 10.8267C60.9943 11.5653 61.2003 12.4176 61.2003 13.3835C61.2003 14.3494 60.992 15.2017 60.5753 15.9403C60.1586 16.679 59.5549 17.2543 58.7642 17.6662C57.9782 18.0781 57.0265 18.2841 55.9091 18.2841H52.2514V15.8196H55.4119C56.0038 15.8196 56.4915 15.7178 56.875 15.5142C57.2633 15.3059 57.5521 15.0194 57.7415 14.6548C57.9356 14.2855 58.0327 13.8617 58.0327 13.3835C58.0327 12.9006 57.9356 12.4792 57.7415 12.1193C57.5521 11.7547 57.2633 11.473 56.875 11.2741C56.4867 11.0705 55.9943 10.9688 55.3977 10.9688H53.3239V23H50.2486ZM64.0252 23H60.7298L65.7511 8.45455H69.7141L74.7283 23H71.4329L67.7894 11.7784H67.6758L64.0252 23ZM63.8192 17.2827H71.6033V19.6832H63.8192V17.2827ZM88.6452 8.45455V23H85.989L79.6609 13.8452H79.5543V23H76.479V8.45455H79.1779L85.4563 17.6023H85.5842V8.45455H88.6452ZM90.3338 8.45455H93.7784L97.0952 14.7188H97.2372L100.554 8.45455H103.999L98.6932 17.858V23H95.6392V17.858L90.3338 8.45455ZM113.382 8.45455V23H110.307V8.45455H113.382ZM128.079 8.45455V23H125.423L119.094 13.8452H118.988V23H115.913V8.45455H118.612L124.89 17.6023H125.018V8.45455H128.079ZM130.62 23V8.45455H140.25V10.9901H133.695V14.456H139.611V16.9915H133.695V23H130.62ZM155.685 15.7273C155.685 17.3134 155.385 18.6629 154.783 19.7756C154.187 20.8883 153.372 21.7382 152.34 22.3253C151.313 22.9077 150.157 23.1989 148.874 23.1989C147.582 23.1989 146.422 22.9053 145.394 22.3182C144.367 21.7311 143.555 20.8812 142.958 19.7685C142.362 18.6558 142.063 17.3087 142.063 15.7273C142.063 14.1411 142.362 12.7917 142.958 11.679C143.555 10.5663 144.367 9.71875 145.394 9.13636C146.422 8.54924 147.582 8.25568 148.874 8.25568C150.157 8.25568 151.313 8.54924 152.34 9.13636C153.372 9.71875 154.187 10.5663 154.783 11.679C155.385 12.7917 155.685 14.1411 155.685 15.7273ZM152.567 15.7273C152.567 14.6998 152.414 13.8333 152.106 13.1278C151.803 12.4223 151.374 11.8873 150.82 11.5227C150.266 11.1581 149.618 10.9759 148.874 10.9759C148.131 10.9759 147.482 11.1581 146.928 11.5227C146.374 11.8873 145.943 12.4223 145.636 13.1278C145.333 13.8333 145.181 14.6998 145.181 15.7273C145.181 16.7547 145.333 17.6212 145.636 18.3267C145.943 19.0322 146.374 19.5672 146.928 19.9318C147.482 20.2964 148.131 20.4787 148.874 20.4787C149.618 20.4787 150.266 20.2964 150.82 19.9318C151.374 19.5672 151.803 19.0322 152.106 18.3267C152.414 17.6212 152.567 16.7547 152.567 15.7273Z" fill="white"/>
<line y1="35.5" x2="335" y2="35.5" stroke="white"/>
<circle cx="338" cy="36" r="8" fill="#D9D9D9"/>
</svg>
