<svg id="Layer_1" data-name="Layer 1" xmlns="http://www.w3.org/2000/svg" xmlns:xlink="http://www.w3.org/1999/xlink" viewBox="0 0 49.13 34.92"><defs><style>.cls-1{fill:url(#Orange_Yellow);}.cls-2{fill:url(#Orange_Yellow-2);}.cls-3{fill:url(#Orange_Yellow-3);}.cls-4{fill:url(#Orange_Yellow-4);}.cls-5{fill:url(#Orange_Yellow-5);}.cls-6{fill:url(#Orange_Yellow-6);}.cls-7{fill:url(#Orange_Yellow-7);}.cls-8{fill:url(#Orange_Yellow-8);}.cls-9{fill:url(#Orange_Yellow-9);}.cls-10{fill:url(#Orange_Yellow-10);}.cls-11{fill:#ed6b06;}.cls-12{fill:#2f6979;}.cls-13{fill:#6d400d;}</style><linearGradient id="Orange_Yellow" x1="2.86" y1="4.99" x2="7.46" y2="4.99" gradientUnits="userSpaceOnUse"><stop offset="0" stop-color="#ffef26"/><stop offset="0.02" stop-color="#ffea21"/><stop offset="0.1" stop-color="#fed70f"/><stop offset="0.19" stop-color="#fdcc04"/><stop offset="0.28" stop-color="#fdc800"/><stop offset="0.67" stop-color="#f18f34"/><stop offset="0.89" stop-color="#e95f32"/><stop offset="1" stop-color="#e3312d"/></linearGradient><linearGradient id="Orange_Yellow-2" x1="4.82" y1="9.4" x2="5.51" y2="9.4" xlink:href="#Orange_Yellow"/><linearGradient id="Orange_Yellow-3" x1="7.37" y1="15.6" x2="8.88" y2="15.6" gradientTransform="translate(11.93 -1.57) rotate(40)" xlink:href="#Orange_Yellow"/><linearGradient id="Orange_Yellow-4" x1="8.82" y1="12.98" x2="10.45" y2="12.98" gradientTransform="translate(20.75 1.24) rotate(80)" xlink:href="#Orange_Yellow"/><linearGradient id="Orange_Yellow-5" x1="8.27" y1="10.01" x2="9.94" y2="10.01" gradientTransform="translate(22.33 7.12) rotate(120)" xlink:href="#Orange_Yellow"/><linearGradient id="Orange_Yellow-6" x1="6.21" y1="8.07" x2="7.38" y2="8.07" gradientTransform="translate(15.94 13.32) rotate(160)" xlink:href="#Orange_Yellow"/><linearGradient id="Orange_Yellow-7" x1="3.19" y1="8.07" x2="4.36" y2="8.07" gradientTransform="translate(4.56 16.94) rotate(-160)" xlink:href="#Orange_Yellow"/><linearGradient id="Orange_Yellow-8" x1="0.63" y1="10.01" x2="2.3" y2="10.01" gradientTransform="translate(-6.48 16.28) rotate(-120)" xlink:href="#Orange_Yellow"/><linearGradient id="Orange_Yellow-9" x1="0.12" y1="12.98" x2="1.75" y2="12.98" gradientTransform="translate(-12.01 11.65) rotate(-80)" xlink:href="#Orange_Yellow"/><linearGradient id="Orange_Yellow-10" x1="1.69" y1="15.6" x2="3.2" y2="15.6" gradientTransform="translate(-9.45 5.22) rotate(-40)" xlink:href="#Orange_Yellow"/></defs><title>pavicon</title><circle class="cls-1" cx="5.16" cy="4.99" r="2.3"/><rect class="cls-2" x="4.82" y="8.64" width="0.69" height="1.53"/><rect class="cls-3" x="7.78" y="14.83" width="0.69" height="1.53" transform="translate(-8.25 1.64) rotate(-40)"/><rect class="cls-4" x="9.29" y="12.22" width="0.69" height="1.53" transform="matrix(0.17, -0.98, 0.98, 0.17, -4.95, 12.99)"/><rect class="cls-5" x="8.77" y="9.24" width="0.69" height="1.53" transform="translate(4.87 15.67) rotate(-120)"/><rect class="cls-6" x="6.45" y="7.3" width="0.69" height="1.53" transform="translate(10.3 10.74) rotate(-160)"/><rect class="cls-7" x="3.43" y="7.3" width="0.69" height="1.53" transform="translate(9.96 7.13) rotate(160)"/><rect class="cls-8" x="1.12" y="9.24" width="0.69" height="1.53" transform="translate(10.74 6.52) rotate(120)"/><rect class="cls-9" x="0.59" y="12.22" width="0.69" height="1.53" transform="translate(13.44 2.58) rotate(80)"/><rect class="cls-10" x="2.1" y="14.83" width="0.69" height="1.53" transform="translate(10.48 -5.15) rotate(40)"/><path class="cls-11" d="M19.17,35.11V39.8H17V29.33h2.14v4h4v-4h2.12V39.8H23.21V35.11Z" transform="translate(-0.12 -7.23)"/><path class="cls-11" d="M29.19,32.46H27.48V30.83h1.71Zm0,.78V39.8H27.48V33.24Z" transform="translate(-0.12 -7.23)"/><path class="cls-11" d="M33,39.8h-1.7v-9H33Z" transform="translate(-0.12 -7.23)"/><path class="cls-11" d="M36.8,39.8H35.1v-9h1.7Z" transform="translate(-0.12 -7.23)"/><polygon class="cls-12" points="45.29 20.82 48.61 20.82 44.27 13.3 46.81 13.3 40.04 1.61 38.09 1.61 43.88 11.61 41.34 11.61 45.69 19.13 42.37 19.13 46.2 25.77 40.27 25.77 40.27 33.66 16.91 33.66 16.91 34.92 40.27 34.92 41.39 34.92 41.96 34.92 41.96 27.46 49.13 27.46 45.29 20.82"/><rect class="cls-12" x="15.45" y="14.14" width="2.44" height="2.44"/><rect class="cls-12" x="18.39" y="14.14" width="2.44" height="2.44"/><rect class="cls-12" x="15.45" y="17.24" width="2.44" height="2.44"/><rect class="cls-12" x="18.39" y="17.24" width="2.44" height="2.44"/><path class="cls-13" d="M30.23,10.29l-3,.05-.59-1,6.66-.12.59,1.05-2.53,0,1.11,2L35,12.2l.58,1-6.66.12-.58-1,3-.05Z" transform="translate(-0.12 -7.23)"/><path class="cls-13" d="M31.55,17.15A3.29,3.29,0,0,1,30.2,15.9a1.19,1.19,0,0,1-.08-1.31,1.92,1.92,0,0,1,1.64-.6,4.67,4.67,0,0,1,2.3.53,3.35,3.35,0,0,1,1.35,1.28,1.16,1.16,0,0,1,.09,1.28,2,2,0,0,1-1.67.6A4.51,4.51,0,0,1,31.55,17.15Zm2.64-.63c.26-.15.3-.38.13-.7a1.59,1.59,0,0,0-.91-.69A3.26,3.26,0,0,0,32.32,15a2,2,0,0,0-.89.16q-.39.23-.12.72a1.55,1.55,0,0,0,.9.67,3.27,3.27,0,0,0,1.07.14A2,2,0,0,0,34.19,16.52Z" transform="translate(-0.12 -7.23)"/><path class="cls-13" d="M33.59,21.66l-.53-.93.68,0h0a3,3,0,0,1-.87-.45,2.15,2.15,0,0,1-.6-.68c-.22-.38-.24-.69-.07-.91a1.49,1.49,0,0,1,1.18-.38l3.39-.06.54,1-3.19,0c-.35,0-.55.09-.62.23a.52.52,0,0,0,.08.46,1.23,1.23,0,0,0,.51.47,2,2,0,0,0,1,.25l3,0,.54,1Z" transform="translate(-0.12 -7.23)"/><path class="cls-13" d="M38.65,24.52a.58.58,0,0,0,.37-.15c.08-.11,0-.28-.09-.52a1.13,1.13,0,0,0-.44-.49.7.7,0,0,0-.38-.1c-.13,0-.2.09-.19.24a2.58,2.58,0,0,0,.12.57,2.38,2.38,0,0,1,.15,1c0,.35-.32.52-.8.53A2.75,2.75,0,0,1,35.67,25a3.13,3.13,0,0,1-.9-1,1.79,1.79,0,0,1-.3-1.2c.09-.38.43-.59,1-.61l.56,1c-.23,0-.37.06-.43.18s0,.34.14.63a1.34,1.34,0,0,0,.47.5.83.83,0,0,0,.4.12c.16,0,.23-.09.23-.25a4.16,4.16,0,0,0-.13-.59,2.3,2.3,0,0,1-.15-1q.09-.49.81-.51a2.75,2.75,0,0,1,1.28.29,2.87,2.87,0,0,1,1.22,1.17,1.71,1.71,0,0,1,.3,1.07c-.07.36-.41.57-1,.61Z" transform="translate(-0.12 -7.23)"/><path class="cls-13" d="M39.43,29.46a4,4,0,0,1-1.61-.65,2.74,2.74,0,0,1-.88-.92c-.31-.56-.35-1-.13-1.31s.87-.54,1.82-.55a4.6,4.6,0,0,1,1.64.24,3.2,3.2,0,0,1,1.84,1.45,1.09,1.09,0,0,1,.12,1.13c-.24.4-.86.6-1.87.62h-.25L38.72,27h0a1.59,1.59,0,0,0-.63.18q-.33.21-.06.69a1.1,1.1,0,0,0,.35.37,1.86,1.86,0,0,0,.54.24Zm1-1a.81.81,0,0,0,.65-.28.46.46,0,0,0,0-.46,1.21,1.21,0,0,0-.56-.51A2.23,2.23,0,0,0,39.6,27Z" transform="translate(-0.12 -7.23)"/><polygon class="cls-12" points="24.84 1.61 18.5 1.61 7.79 20.19 5.9 20.19 5.16 22.54 6.43 22.54 7.89 22.54 11.63 22.54 11.1 20.19 9.24 20.19 18.5 4.15 29.12 22.53 30.58 22.53 36.92 22.53 24.84 1.61"/></svg>