<svg width="100" height="100" viewBox="0 0 100 100" fill="none" xmlns="http://www.w3.org/2000/svg">
<g clip-path="url(#clip0_138_986)">
<path d="M89.1824 80.9736C88.0051 82.4002 86.7961 83.795 85.5234 85.0948C86.8279 83.795 88.037 82.4319 89.1824 80.9736Z" fill="#F18636"/>
<path d="M35.062 73.783C33.6621 72.6376 32.5167 71.3331 31.6895 69.8695L30.5759 67.8969L37.0029 60.5154L39.3573 63.7289C39.8982 64.4925 40.5663 65.1607 41.3299 65.7334C42.1572 66.3697 43.0162 66.8788 43.9389 67.2924C44.9252 67.7378 45.8797 68.056 46.8661 68.2787C47.8206 68.5014 48.7432 68.5969 49.6341 68.5969C50.875 68.5969 52.0522 68.4378 53.1976 68.1196C54.2475 67.8014 55.1702 67.3878 55.9975 66.8151C56.7292 66.3061 57.2701 65.6697 57.6837 64.9379C58.0655 64.2698 58.2564 63.4107 58.2564 62.4562C58.2564 61.3108 58.0337 60.3563 57.5883 59.6245C57.0792 58.7655 56.4429 58.0655 55.5838 57.461C54.5339 56.7292 53.3567 56.0611 52.0522 55.4884C50.6841 54.8838 49.1887 54.2793 47.4388 53.6112C45.7525 52.943 44.0662 52.2431 42.4753 51.4476C40.7572 50.5886 39.1664 49.5705 37.7346 48.3932L37.7028 48.3614C36.1438 47.0569 34.903 45.4343 33.9803 43.5889C33.0576 41.6481 32.5803 39.4209 32.5485 36.9074C32.5485 34.712 32.9621 32.6758 33.7894 30.7668C34.5848 28.8578 35.8256 27.1715 37.4165 25.7397C38.9437 24.3398 40.8527 23.258 43.048 22.4626C45.1798 21.7308 47.5978 21.349 50.2704 21.3172C52.3703 21.3172 54.4066 21.5717 56.3474 22.049C58.3201 22.5262 60.1018 23.2262 61.6926 24.1171C63.3471 25.0079 64.7789 26.1215 65.9561 27.426L66.0197 27.4896L98.8864 60.3563C99.5864 57.0156 99.9682 53.5475 99.9682 49.9841C100 22.4626 77.5374 0 49.9841 0C22.4626 0 0 22.4626 0 49.9841C0 77.5374 22.4626 99.9682 49.9841 99.9682C53.5158 99.9682 56.952 99.5863 60.2927 98.8864L35.4438 74.0375C35.3166 73.9739 35.1893 73.8784 35.062 73.783Z" fill="#F18636"/>
<path d="M85.5234 85.1094C86.7961 83.7731 88.0369 82.4049 89.1823 80.9732C93.8912 75.0553 97.2638 68.0238 98.8864 60.3559L66.0197 27.4893L67.706 29.3346L61.8517 37.3206L59.211 34.7117C56.9838 32.4845 54.0885 31.4027 50.3977 31.4027C48.6796 31.4027 47.2479 31.6891 46.0706 32.1981C45.0525 32.6754 44.3207 33.2799 43.7798 34.0753C43.2708 34.8389 43.0162 35.7934 43.0162 36.9388C43.0162 38.0524 43.2389 38.9751 43.6526 39.6751C44.1298 40.4705 44.798 41.1705 45.6252 41.7432C46.6752 42.4431 47.8842 43.0795 49.1887 43.6522C50.5886 44.2249 52.084 44.8294 53.7703 45.4657C55.4884 46.102 57.1747 46.8338 58.7655 47.5974C60.4836 48.4247 62.1063 49.4746 63.538 50.7155C65.097 52.0518 66.3379 53.6744 67.2606 55.5834C68.1833 57.5243 68.6605 59.8151 68.6605 62.424V62.4559C68.6605 64.9376 68.1196 67.2284 67.1015 69.2646C66.0834 71.2691 64.6516 73.019 62.8699 74.4508C61.12 75.8189 59.1155 76.8688 56.8565 77.6006C54.6293 78.3006 52.2431 78.6506 49.6977 78.6824C47.9796 78.6824 46.2297 78.4915 44.5116 78.1097C42.8253 77.7597 41.1072 77.2188 39.5164 76.5188C37.9892 75.8189 36.6211 75.0235 35.4438 74.1326L60.2927 98.9815C70.0286 96.8816 78.7464 91.95 85.5234 85.1094Z" fill="#A65415"/>
<path d="M61.6927 24.1173C60.1019 23.2264 58.2883 22.5582 56.3475 22.0492C54.4067 21.5719 52.3704 21.3174 50.2705 21.3174C47.6297 21.3174 45.2116 21.6992 43.0481 22.4628C40.8527 23.2582 38.9437 24.34 37.4165 25.7399C35.8257 27.1717 34.6167 28.8898 33.7894 30.767C32.9622 32.676 32.5486 34.7441 32.5486 36.9076C32.5486 39.4211 33.0258 41.6483 33.9803 43.5891C34.903 45.4345 36.1439 47.0253 37.7029 48.3616L37.7347 48.3935C39.1664 49.5707 40.7573 50.5888 42.4754 51.4479C44.0662 52.2433 45.7525 52.9433 47.4388 53.6114C49.1569 54.2796 50.6523 54.8841 52.0522 55.4886C53.3567 56.0613 54.5339 56.7295 55.5839 57.4612C56.4429 58.0658 57.1111 58.7657 57.5883 59.6248C58.002 60.3247 58.2247 61.2792 58.2565 62.4565C58.2565 63.411 58.0338 64.27 57.6838 64.9382C57.2702 65.67 56.7293 66.2745 55.9975 66.8154C55.2021 67.3881 54.2794 67.8017 53.1976 68.1199C52.084 68.438 50.875 68.5971 49.6342 68.5971C48.7115 68.5971 47.8206 68.5017 46.8661 68.2789C45.9116 68.0562 44.9253 67.7381 43.939 67.2926C43.0163 66.879 42.1572 66.3381 41.33 65.7336C40.5664 65.1609 39.93 64.4927 39.3573 63.7291L37.0029 60.5156L30.5759 67.8971L31.6895 69.8698C32.5167 71.3333 33.6622 72.6378 35.0621 73.7832C35.1894 73.8787 35.3166 73.9741 35.4439 74.0696L34.3303 72.956L43.4617 72.7651L54.1203 73.3378L62.8699 67.9926L62.1699 56.6658L54.5976 51.1933L44.2253 47.2799L38.0847 40.9165L38.721 30.8942L46.5161 26.249H55.7112L65.638 27.0762L66.0516 27.4898L65.988 27.4262C64.8107 26.1535 63.3472 25.0081 61.6927 24.1173Z" fill="#FAF5DC"/>
<path d="M55.7111 26.2803H46.5161L38.721 30.9255L38.0846 40.9478L44.2252 47.3111L54.6293 51.2246L62.2017 56.6971L62.9017 68.0238L54.1521 73.369L43.4935 72.7963L34.3621 72.9872L35.4756 74.1008C36.6529 75.0235 38.021 75.8189 39.5482 76.4871C41.139 77.187 42.8253 77.7279 44.5434 78.0779C46.2933 78.4597 48.0114 78.6506 49.7295 78.6506C52.2431 78.6506 54.6611 78.2688 56.8883 77.5688C59.1473 76.8371 61.1836 75.7871 62.9017 74.419C64.7152 72.9872 66.1152 71.2373 67.1333 69.2329C68.1514 67.1966 68.6923 64.9058 68.6923 62.4241V62.3923C68.6923 59.7833 68.2151 57.4925 67.2924 55.5517C66.3697 53.6427 65.1288 52.02 63.5698 50.6837C62.1381 49.4428 60.5154 48.4247 58.7973 47.5657C57.1747 46.7702 55.5202 46.0703 53.8021 45.4339C52.1158 44.7976 50.6204 44.2249 49.2205 43.6204C47.916 43.0795 46.707 42.4432 45.657 41.7114C44.8298 41.1387 44.1616 40.4387 43.6844 39.6433C43.2707 38.9433 43.048 38.0525 43.048 36.9071C43.048 35.7617 43.3026 34.839 43.8116 34.0436C44.3207 33.2481 45.0843 32.6118 46.1024 32.1664C47.2797 31.6255 48.7432 31.3709 50.4295 31.3709C54.1203 31.3709 57.0156 32.4527 59.2427 34.6799L61.8835 37.2889L67.7378 29.3029L66.0515 27.4575L65.6379 27.0439L55.7111 26.2803Z" fill="#FAF5DC"/>
</g>
<defs>
<clipPath id="clip0_138_986">
<rect width="100" height="100" fill="white"/>
</clipPath>
</defs>
</svg>
