<?xml version="1.0" encoding="UTF-8"?>
<svg id="_레이어_1" data-name="레이어 1" xmlns="http://www.w3.org/2000/svg" xmlns:xlink="http://www.w3.org/1999/xlink" viewBox="0 0 543.3 543.3">
  <defs>
    <style>
      .cls-1 {
        font-family: Pretendard-ExtraBold-KSCpc-EUC-H, Pretendard;
        font-size: 47.88px;
        font-weight: 700;
      }

      .cls-1, .cls-2 {
        fill: #fff;
      }

      .cls-3 {
        fill: url(#linear-gradient);
      }

      .cls-3, .cls-2 {
        stroke-width: 0px;
      }
    </style>
    <linearGradient id="linear-gradient" x1="0" y1="271.65" x2="543.3" y2="271.65" gradientUnits="userSpaceOnUse">
      <stop offset="0" stop-color="#fff8b3"/>
      <stop offset=".04" stop-color="#fdebaa"/>
      <stop offset=".12" stop-color="#fcd99d"/>
      <stop offset=".2" stop-color="#fbcd95"/>
      <stop offset=".28" stop-color="#fbca93"/>
      <stop offset=".67" stop-color="#f29051"/>
      <stop offset=".89" stop-color="#ed683b" stop-opacity=".9"/>
      <stop offset="1" stop-color="#e83e39" stop-opacity=".8"/>
    </linearGradient>
  </defs>
  <circle class="cls-3" cx="271.65" cy="271.65" r="271.65"/>
  <g>
    <path class="cls-2" d="M79.99,328.96c-6.57-1.19-12.14-2.88-16.7-5.05v-27.37c5.1,2.39,10.75,4.34,16.94,5.86,6.19,1.52,11.78,2.28,16.78,2.28,4.56,0,7.95-.46,10.18-1.38,2.22-.92,3.34-2.52,3.34-4.81,0-2.06-1.03-3.67-3.1-4.81-2.06-1.14-5.92-2.63-11.57-4.48-1.63-.43-3.69-1.08-6.19-1.96-7.06-2.39-12.54-4.97-16.45-7.74-3.91-2.77-6.74-6.11-8.47-10.02-1.74-3.91-2.61-8.8-2.61-14.66,0-21.5,14.93-32.26,44.8-32.26,5.32,0,11.18.49,17.59,1.47,6.41.98,11.78,2.12,16.13,3.42v27.53c-10.1-4.02-19.39-6.03-27.86-6.03-4.67,0-8.34.38-11,1.14-2.66.76-3.99,2.23-3.99,4.4,0,1.41.57,2.55,1.71,3.42,1.14.87,2.77,1.63,4.89,2.28,2.12.65,5.84,1.69,11.16,3.1,8.36,2.28,14.77,5.05,19.22,8.31,4.45,3.26,7.49,7.01,9.12,11.24,1.63,4.24,2.44,9.39,2.44,15.48,0,9.99-3.88,17.89-11.65,23.7-7.77,5.81-19.09,8.72-33.97,8.72-7.28,0-14.2-.6-20.77-1.79Z"/>
    <path class="cls-2" d="M152.89,224.21h34.21l9.94,47.89,8.8-31.11v-16.78h28.51l13.85,48.06,10.75-48.06h34.21l-24.27,104.91h-31.12l-14.17-47.73-15.31,47.73h-30.95l-24.44-104.91Z"/>
    <path class="cls-2" d="M302.93,317.96c-9.23-8.52-13.85-22.24-13.85-41.13s4.61-32.93,13.85-41.46c9.23-8.52,22.91-12.79,41.05-12.79s31.82,4.26,41.05,12.79c9.23,8.53,13.85,22.35,13.85,41.46s-4.62,32.61-13.85,41.13c-9.23,8.53-22.92,12.79-41.05,12.79s-31.82-4.26-41.05-12.79ZM358.56,295.4c2.99-3.8,4.48-9.99,4.48-18.57s-1.47-15.2-4.4-18.9c-2.93-3.69-7.82-5.54-14.66-5.54s-11.76,1.85-14.74,5.54c-2.99,3.69-4.48,9.99-4.48,18.9s1.49,14.91,4.48,18.65c2.99,3.75,7.9,5.62,14.74,5.62s11.59-1.9,14.58-5.7Z"/>
    <path class="cls-2" d="M421.2,249.79h-28.02v-25.58h91.23v25.58h-28.18v79.34h-35.03v-79.34Z"/>
  </g>
  <g>
    <path class="cls-2" d="M152.09,365.54h9l17.99,47.49h-8.26l-4.72-12.24h-19.1l-4.72,12.24h-8.33l18.14-47.49ZM164.78,394.59l-8.26-21.75-8.26,21.75h16.52Z"/>
    <path class="cls-2" d="M186.97,378.08h7.37l.37,3.69c1.67-1.33,3.61-2.4,5.83-3.21,2.21-.81,4.57-1.22,7.08-1.22,4.52,0,7.82,1.06,9.88,3.17,2.06,2.11,3.1,5.41,3.1,9.88v22.64h-7.96v-22.27c0-2.7-.57-4.6-1.7-5.68-1.13-1.08-3.2-1.62-6.19-1.62-1.82,0-3.6.37-5.35,1.11-1.75.74-3.21,1.7-4.39,2.88v25.59h-8.04v-34.95Z"/>
    <path class="cls-2" d="M230.55,411c-2.36-1.84-3.54-4.49-3.54-7.93s1.17-6.16,3.5-8.15c2.33-1.99,5.84-2.99,10.51-2.99h11.21v-1.55c0-1.72-.26-3.06-.77-4.02-.52-.96-1.46-1.66-2.84-2.1-1.38-.44-3.34-.66-5.9-.66-4.13,0-7.99.62-11.58,1.84v-5.97c1.67-.64,3.64-1.15,5.9-1.55,2.26-.39,4.65-.59,7.15-.59,5.21,0,9.13,1.06,11.76,3.17,2.63,2.11,3.94,5.46,3.94,10.03v22.49h-6.86l-.52-3.54c-1.47,1.43-3.27,2.5-5.38,3.21-2.11.71-4.69,1.07-7.74,1.07-3.54,0-6.49-.92-8.85-2.76ZM247.73,406.83c1.82-.79,3.32-1.89,4.5-3.32v-6.12h-11.06c-2.36,0-4.07.44-5.12,1.33-1.06.88-1.59,2.29-1.59,4.2,0,1.77.59,3.06,1.77,3.87,1.18.81,2.95,1.22,5.31,1.22s4.37-.39,6.19-1.18Z"/>
    <path class="cls-2" d="M270.95,411.63c-1.43-1.43-2.14-3.74-2.14-6.93v-41.37h8.04v40.63c0,1.33.23,2.25.7,2.76.47.52,1.22.77,2.25.77,1.18,0,2.31-.15,3.39-.44v5.82c-1.62.59-3.52.88-5.68.88-2.95,0-5.14-.71-6.56-2.14Z"/>
    <path class="cls-2" d="M285.77,424.97v-5.97c1.38.49,2.88.74,4.5.74,1.47,0,2.68-.23,3.61-.7.93-.47,1.74-1.19,2.43-2.18.69-.98,1.5-2.41,2.43-4.28l-15.56-34.51h8.33l11.21,25.96,11.35-25.96h8.26l-14.23,32.96c-2.11,5.01-4.31,8.76-6.6,11.24-2.29,2.48-5.27,3.72-8.96,3.72-2.65,0-4.92-.34-6.78-1.03Z"/>
    <path class="cls-2" d="M329.13,413.29c-2.21-.32-4.03-.75-5.46-1.29v-6.78c1.62.64,3.43,1.13,5.42,1.47,1.99.34,3.94.52,5.86.52,2.85,0,4.84-.25,5.97-.74,1.13-.49,1.7-1.45,1.7-2.88,0-1.28-.52-2.22-1.55-2.84-1.03-.61-2.97-1.36-5.82-2.25l-2.21-.74c-3.54-1.18-6.12-2.49-7.74-3.94-1.62-1.45-2.43-3.6-2.43-6.45,0-3.29,1.18-5.79,3.54-7.48,2.36-1.7,6.05-2.54,11.06-2.54,1.92,0,3.8.15,5.64.44,1.84.29,3.43.66,4.76,1.11v6.71c-1.33-.54-2.81-.96-4.46-1.25-1.65-.29-3.21-.44-4.68-.44-2.7,0-4.67.23-5.9.7-1.23.47-1.84,1.34-1.84,2.62,0,1.13.47,1.98,1.4,2.54.93.57,2.78,1.29,5.53,2.18l1.62.52c2.85.88,5.06,1.78,6.64,2.69,1.57.91,2.72,2.02,3.43,3.32.71,1.3,1.07,2.99,1.07,5.05,0,6.83-4.89,10.25-14.67,10.25-2.36,0-4.65-.16-6.86-.48Z"/>
    <path class="cls-2" d="M363.86,384.2h-5.31l.74-6.12h12.61v34.95h-8.04v-28.83ZM363.2,364.14h8.77v6.64h-8.77v-6.64Z"/>
    <path class="cls-2" d="M386.05,413.29c-2.21-.32-4.03-.75-5.46-1.29v-6.78c1.62.64,3.43,1.13,5.42,1.47,1.99.34,3.94.52,5.86.52,2.85,0,4.84-.25,5.97-.74,1.13-.49,1.7-1.45,1.7-2.88,0-1.28-.52-2.22-1.55-2.84-1.03-.61-2.97-1.36-5.82-2.25l-2.21-.74c-3.54-1.18-6.12-2.49-7.74-3.94-1.62-1.45-2.43-3.6-2.43-6.45,0-3.29,1.18-5.79,3.54-7.48,2.36-1.7,6.05-2.54,11.06-2.54,1.92,0,3.8.15,5.64.44,1.84.29,3.43.66,4.76,1.11v6.71c-1.33-.54-2.81-.96-4.46-1.25-1.65-.29-3.21-.44-4.68-.44-2.7,0-4.67.23-5.9.7-1.23.47-1.84,1.34-1.84,2.62,0,1.13.47,1.98,1.4,2.54.93.57,2.78,1.29,5.53,2.18l1.62.52c2.85.88,5.06,1.78,6.64,2.69,1.57.91,2.72,2.02,3.43,3.32.71,1.3,1.07,2.99,1.07,5.05,0,6.83-4.89,10.25-14.67,10.25-2.36,0-4.65-.16-6.86-.48Z"/>
  </g>
  <text class="cls-1" transform="translate(138.97 176.77)"><tspan x="0" y="0">HILL HOUSE</tspan></text>
</svg>