<svg width="40" height="41" viewBox="0 0 40 41" fill="none" xmlns="http://www.w3.org/2000/svg">
<g clip-path="url(#clip0_84_2033)">
<path d="M20 40.2822C31.0457 40.2822 40 31.3279 40 20.2822C40 9.23653 31.0457 0.282227 20 0.282227C8.9543 0.282227 0 9.23653 0 20.2822C0 31.3279 8.9543 40.2822 20 40.2822Z" fill="black"/>
<path d="M11.4902 11.6174C11.9308 11.1768 12.4664 10.9521 13.0884 10.9521C13.7105 10.9521 14.2461 11.1768 14.6867 11.6174C15.1273 12.058 15.3519 12.5936 15.3519 13.2156C15.3519 13.8377 15.1273 14.3733 14.6867 14.8139C14.2461 15.2545 13.7105 15.4791 13.0884 15.4791C12.4664 15.4791 11.9308 15.2545 11.4902 14.8139C11.0496 14.3733 10.825 13.8377 10.825 13.2156C10.825 12.5936 11.0496 12.058 11.4902 11.6174Z" fill="white"/>
<path d="M15.0323 16.9824H11.136V29.6045H15.0323V16.9824Z" fill="white"/>
<path d="M17.0106 16.9819H20.7514V18.6925H20.8032C20.9242 18.4506 21.097 18.2087 21.3216 17.9668C21.5462 17.7249 21.814 17.5089 22.1251 17.3188C22.4361 17.1288 22.7903 16.9733 23.1877 16.8523C23.5851 16.7314 24.0171 16.6709 24.4836 16.6709C25.4685 16.6709 26.2633 16.8264 26.8767 17.1288C27.4814 17.4312 27.9566 17.8545 28.2935 18.3901C28.6305 18.9258 28.8637 19.5564 28.9847 20.2821C29.1056 21.0078 29.1661 21.794 29.1661 22.6493V29.6126H25.2698V23.4268C25.2698 23.064 25.2525 22.6839 25.2266 22.2951C25.2007 21.9063 25.1229 21.5435 24.9933 21.2152C24.8637 20.8869 24.665 20.6191 24.3972 20.4117C24.1294 20.2044 23.7406 20.1007 23.2395 20.1007C22.7385 20.1007 22.3324 20.1957 22.0214 20.3772C21.7104 20.5586 21.4685 20.8005 21.3043 21.1029C21.1402 21.4052 21.0279 21.7508 20.976 22.1309C20.9242 22.5111 20.8983 22.9085 20.8983 23.3232V29.6126H17.002V16.9819H17.0106Z" fill="white"/>
</g>
<defs>
<clipPath id="clip0_84_2033">
<rect width="40" height="40" fill="white" transform="translate(0 0.282227)"/>
</clipPath>
</defs>
</svg>
