<svg width="84" height="58" viewBox="0 0 84 58" fill="none" xmlns="http://www.w3.org/2000/svg">
<path d="M8.79561 11.9623C10.9501 11.9623 12.6967 10.2824 12.6967 8.21015C12.6967 6.1379 10.9501 4.45801 8.79561 4.45801C6.6411 4.45801 4.89453 6.1379 4.89453 8.21015C4.89453 10.2824 6.6411 11.9623 8.79561 11.9623Z" fill="white"/>
<path d="M9.37365 14.1865H8.21777V16.688H9.37365V14.1865Z" fill="white"/>
<path d="M13.2458 12.469L12.3604 13.1836L14.0321 15.0997L14.9175 14.3851L13.2458 12.469Z" fill="white"/>
<path d="M15.0498 8.71082L14.8491 9.80566L17.4103 10.2399L17.611 9.14507L15.0498 8.71082Z" fill="white"/>
<path d="M13.9333 4.69543L14.5112 5.6582L16.7635 4.40749L16.1855 3.44472L13.9333 4.69543Z" fill="white"/>
<path d="M10.4002 2.35904L11.4863 2.73926L12.3758 0.388667L11.2896 0.00845026L10.4002 2.35904Z" fill="white"/>
<path d="M6.15162 2.7308L7.23779 2.35059L6.34835 -4.64478e-06L5.26217 0.380212L6.15162 2.7308Z" fill="white"/>
<path d="M3.08027 5.69812L3.6582 4.73535L1.40598 3.48464L0.828042 4.44741L3.08027 5.69812Z" fill="white"/>
<path d="M2.7617 9.78235L2.56104 8.6875L-0.00015344 9.12175L0.200507 10.2166L2.7617 9.78235Z" fill="white"/>
<path d="M5.23599 13.1687L4.35059 12.4541L2.67884 14.3702L3.56424 15.0848L5.23599 13.1687Z" fill="white"/>
<path d="M32.5637 46.4656V54.1783H28.8794V36.9463H32.5637V43.4778H39.499V36.9463H43.1111V54.1783H39.499V46.4656H32.5637Z" fill="white"/>
<path d="M49.6851 42.0888H46.7954V39.3789H49.6851V42.0888ZM49.6851 43.409V54.179H46.7954V43.409H49.6851Z" fill="white"/>
<path d="M56.1866 54.179H53.2969V39.3789H56.1866V54.179Z" fill="white"/>
<path d="M62.6885 54.179H59.7988V39.3789H62.6885V54.179Z" fill="white"/>
<path d="M77.4262 34.8623H83.0611L75.6924 22.4942H80.0269L68.4681 3.24707H65.0728L74.9699 19.7148H70.6354L78.0764 32.083H72.4415L78.9433 42.992H68.8294V55.916H28.8794V58.0005H68.8294H70.7799H71.719V45.7713H84.0002L77.4262 34.8623Z" fill="white"/>
<path d="M30.6129 23.8838H26.4229V27.9139H30.6129V23.8838Z" fill="white"/>
<path d="M35.5978 23.8838H31.4077V27.9139H35.5978V23.8838Z" fill="white"/>
<path d="M30.6129 28.957H26.4229V32.9871H30.6129V28.957Z" fill="white"/>
<path d="M35.5978 28.957H31.4077V32.9871H35.5978V28.957Z" fill="white"/>
<path d="M51.4189 5.60947L46.2897 5.67895L45.2783 3.94185L56.6926 3.7334L57.7762 5.53998L53.4417 5.60947L55.32 8.87522L59.6545 8.80574L60.6659 10.5428L49.2516 10.7513L48.2403 8.9447L53.3695 8.87522L51.4189 5.60947Z" fill="white"/>
<path d="M53.7306 16.9349C52.647 16.3791 51.9245 15.6842 51.4188 14.8504C50.9131 14.0166 50.8409 13.2523 51.2744 12.6964C51.7078 12.0711 52.647 11.7236 54.0918 11.7236C55.5367 11.7236 56.837 12.0016 57.9929 12.6269C59.0043 13.1828 59.7989 13.8776 60.3046 14.7114C60.8103 15.5453 60.8103 16.2401 60.4491 16.796C60.0157 17.4213 59.0765 17.7687 57.6317 17.7687C56.1868 17.8382 54.8865 17.5603 53.7306 16.9349ZM58.2096 15.8927C58.6431 15.6147 58.7153 15.2673 58.4263 14.7809C58.1374 14.2251 57.6317 13.8776 56.9093 13.6692C56.4036 13.5302 55.7534 13.4607 55.031 13.4607C54.3808 13.4607 53.8751 13.5302 53.5139 13.7387C53.0804 14.0166 53.0082 14.364 53.2971 14.9199C53.5861 15.4063 54.0918 15.8232 54.8142 16.0316C55.3199 16.1706 55.9701 16.2401 56.6203 16.2401C57.3427 16.1706 57.9206 16.0316 58.2096 15.8927Z" fill="white"/>
<path d="M57.1981 24.3011L56.3312 22.7724H57.487C56.9091 22.564 56.4756 22.3555 56.0422 22.0081C55.6087 21.6607 55.2475 21.3132 55.0308 20.8963C54.6696 20.271 54.5973 19.7846 54.8863 19.3677C55.1753 18.9508 55.8977 18.7423 56.9091 18.7423L62.6885 18.6729L63.6276 20.271L58.1372 20.3405C57.5593 20.3405 57.1981 20.4794 57.0536 20.6879C56.9813 20.8963 56.9813 21.1048 57.1981 21.4522C57.4148 21.7996 57.7038 22.0081 58.065 22.2165C58.5707 22.4945 59.1486 22.6334 59.871 22.6334L64.928 22.564L65.8671 24.1621L57.1981 24.3011Z" fill="white"/>
<path d="M65.867 29.0254C66.2282 28.9559 66.4449 28.8865 66.5172 28.7475C66.6617 28.539 66.5894 28.2611 66.3727 27.9137C66.156 27.4968 65.867 27.2188 65.6503 27.0799C65.4335 26.9409 65.2168 26.9409 65.0001 26.9409C64.7834 26.9409 64.6389 27.0799 64.6389 27.3578C64.6389 27.4968 64.7111 27.8442 64.8556 28.2611C65.0723 29.0254 65.2168 29.5813 65.1446 29.9287C65.0723 30.4846 64.5666 30.7625 63.772 30.832C62.6883 30.832 61.6769 30.5541 60.81 29.9287C60.1599 29.4423 59.6542 28.8865 59.2929 28.2611C58.8595 27.4273 58.6428 26.8019 58.7873 26.3156C58.9317 25.6902 59.5097 25.3428 60.5211 25.3428L61.4602 27.0104C61.099 27.0104 60.81 27.1494 60.7378 27.2883C60.5933 27.4968 60.7378 27.8442 60.9545 28.3306C61.1712 28.678 61.4602 28.9559 61.7492 29.1644C61.9659 29.3034 62.2549 29.3729 62.4716 29.3729C62.7606 29.3729 62.8328 29.2339 62.8328 28.9559C62.8328 28.817 62.7606 28.4696 62.6161 27.9832C62.3994 27.2188 62.3271 26.663 62.3271 26.385C62.3994 25.8292 62.9051 25.5512 63.6997 25.5512C64.4221 25.5512 65.2168 25.6902 65.867 26.0376C66.7339 26.4545 67.4563 27.0799 67.962 27.9832C68.3955 28.678 68.54 29.3034 68.4677 29.7203C68.3232 30.3456 67.7453 30.6236 66.7339 30.693L65.867 29.0254Z" fill="white"/>
<path d="M67.1677 37.1556C66.1563 36.9471 65.2171 36.5997 64.4225 36.1133C63.7723 35.6964 63.2666 35.1405 62.9054 34.5846C62.3997 33.6814 62.3274 32.9865 62.6886 32.4306C63.1221 31.8748 64.2057 31.5273 65.7951 31.5273C66.7342 31.5273 67.6734 31.6663 68.6125 31.9442C70.0574 32.4306 71.141 33.195 71.7912 34.3067C72.2246 35.071 72.2969 35.6964 72.0079 36.1828C71.5744 36.8081 70.5631 37.1556 68.8292 37.225H68.3958L66.0118 33.1255H65.9395C65.4339 33.195 65.0726 33.2644 64.8559 33.4034C64.4947 33.6119 64.4225 34.0288 64.7837 34.5152C64.9282 34.7236 65.1449 34.9321 65.3616 35.1405C65.6506 35.349 65.9395 35.4879 66.3008 35.5574L67.1677 37.1556ZM68.9015 35.5574C69.4794 35.4879 69.8406 35.349 69.9851 35.071C70.1296 34.8626 70.0574 34.5846 69.9129 34.3067C69.6961 33.9593 69.4072 33.6813 68.9737 33.4729C68.5403 33.2644 68.0346 33.195 67.4566 33.1255L68.9015 35.5574Z" fill="white"/>
<path d="M42.4608 3.24707H31.6244L13.2749 33.8201H10.0963L8.7959 37.6417H10.9632H13.4916H19.849L18.9821 33.8201H15.8034L31.6244 7.41611L49.7572 37.6417H52.2857H63.1221L42.4608 3.24707Z" fill="white"/>
</svg>
