<svg width="56" height="54" viewBox="0 0 56 54" fill="none" xmlns="http://www.w3.org/2000/svg">
<path d="M42 40.3725C49.732 32.9402 49.732 20.8899 42 13.4575C34.268 6.02516 21.732 6.02516 14 13.4575C6.26801 20.8899 6.26801 32.9402 14 40.3725C21.732 47.8049 34.268 47.8049 42 40.3725Z" fill="black"/>
<path d="M34.1914 34.0931H21.8191C19.4742 34.0931 17.5728 32.2653 17.5728 30.0113V23.823C17.5728 21.569 19.4742 19.7412 21.8191 19.7412H34.1914C36.5363 19.7412 38.4378 21.569 38.4378 23.823V30.0113C38.4378 32.2653 36.5363 34.0931 34.1914 34.0931Z" fill="#FDFFFF"/>
<path d="M25.5029 24.569V29.4376C25.5029 29.8639 25.9719 30.1261 26.3556 29.9212L30.9515 27.4869C31.3523 27.2738 31.3523 26.7247 30.9515 26.5115L26.3641 24.0772C25.9804 23.8805 25.5029 24.1428 25.5029 24.569Z" fill="black"/>
</svg>
