<svg width="258" height="43" viewBox="0 0 258 43" fill="none" xmlns="http://www.w3.org/2000/svg">
<path d="M1.2642 23V8.45455H10.8949V10.9901H4.33949V14.456H10.2557V16.9915H4.33949V23H1.2642ZM26.3299 15.7273C26.3299 17.3134 26.0292 18.6629 25.4279 19.7756C24.8313 20.8883 24.0169 21.7382 22.9847 22.3253C21.9573 22.9077 20.802 23.1989 19.5188 23.1989C18.2262 23.1989 17.0662 22.9053 16.0387 22.3182C15.0112 21.7311 14.1992 20.8812 13.6026 19.7685C13.006 18.6558 12.7077 17.3087 12.7077 15.7273C12.7077 14.1411 13.006 12.7917 13.6026 11.679C14.1992 10.5663 15.0112 9.71875 16.0387 9.13636C17.0662 8.54924 18.2262 8.25568 19.5188 8.25568C20.802 8.25568 21.9573 8.54924 22.9847 9.13636C24.0169 9.71875 24.8313 10.5663 25.4279 11.679C26.0292 12.7917 26.3299 14.1411 26.3299 15.7273ZM23.212 15.7273C23.212 14.6998 23.0581 13.8333 22.7504 13.1278C22.4473 12.4223 22.0188 11.8873 21.4648 11.5227C20.9109 11.1581 20.2622 10.9759 19.5188 10.9759C18.7754 10.9759 18.1268 11.1581 17.5728 11.5227C17.0188 11.8873 16.5879 12.4223 16.2802 13.1278C15.9772 13.8333 15.8256 14.6998 15.8256 15.7273C15.8256 16.7547 15.9772 17.6212 16.2802 18.3267C16.5879 19.0322 17.0188 19.5672 17.5728 19.9318C18.1268 20.2964 18.7754 20.4787 19.5188 20.4787C20.2622 20.4787 20.9109 20.2964 21.4648 19.9318C22.0188 19.5672 22.4473 19.0322 22.7504 18.3267C23.0581 17.6212 23.212 16.7547 23.212 15.7273ZM28.608 23V8.45455H31.6832V20.4645H37.919V23H28.608ZM39.9556 23V8.45455H43.0309V20.4645H49.2667V23H39.9556ZM64.1033 15.7273C64.1033 17.3134 63.8027 18.6629 63.2013 19.7756C62.6048 20.8883 61.7904 21.7382 60.7582 22.3253C59.7307 22.9077 58.5754 23.1989 57.2923 23.1989C55.9996 23.1989 54.8396 22.9053 53.8121 22.3182C52.7847 21.7311 51.9727 20.8812 51.3761 19.7685C50.7795 18.6558 50.4812 17.3087 50.4812 15.7273C50.4812 14.1411 50.7795 12.7917 51.3761 11.679C51.9727 10.5663 52.7847 9.71875 53.8121 9.13636C54.8396 8.54924 55.9996 8.25568 57.2923 8.25568C58.5754 8.25568 59.7307 8.54924 60.7582 9.13636C61.7904 9.71875 62.6048 10.5663 63.2013 11.679C63.8027 12.7917 64.1033 14.1411 64.1033 15.7273ZM60.9854 15.7273C60.9854 14.6998 60.8316 13.8333 60.5238 13.1278C60.2208 12.4223 59.7923 11.8873 59.2383 11.5227C58.6843 11.1581 58.0356 10.9759 57.2923 10.9759C56.5489 10.9759 55.9002 11.1581 55.3462 11.5227C54.7923 11.8873 54.3614 12.4223 54.0536 13.1278C53.7506 13.8333 53.5991 14.6998 53.5991 15.7273C53.5991 16.7547 53.7506 17.6212 54.0536 18.3267C54.3614 19.0322 54.7923 19.5672 55.3462 19.9318C55.9002 20.2964 56.5489 20.4787 57.2923 20.4787C58.0356 20.4787 58.6843 20.2964 59.2383 19.9318C59.7923 19.5672 60.2208 19.0322 60.5238 18.3267C60.8316 17.6212 60.9854 16.7547 60.9854 15.7273ZM69.1087 23L64.9467 8.45455H68.3061L70.7138 18.5611H70.8345L73.4908 8.45455H76.3672L79.0163 18.5824H79.1442L81.5518 8.45455H84.9112L80.7493 23H77.7521L74.9822 13.4901H74.8686L72.1058 23H69.1087ZM94.3111 12.6378C94.2543 12.0649 94.0104 11.6198 93.5795 11.3026C93.1487 10.9853 92.5639 10.8267 91.8253 10.8267C91.3234 10.8267 90.8996 10.8977 90.554 11.0398C90.2083 11.1771 89.9432 11.3688 89.7585 11.6151C89.5786 11.8613 89.4886 12.1406 89.4886 12.4531C89.4792 12.7135 89.5336 12.9408 89.652 13.1349C89.7751 13.3291 89.9432 13.4972 90.1562 13.6392C90.3693 13.7765 90.6155 13.8973 90.8949 14.0014C91.1742 14.1009 91.4725 14.1861 91.7898 14.2571L93.0966 14.5696C93.7311 14.7116 94.3134 14.901 94.8438 15.1378C95.3741 15.3745 95.8333 15.6657 96.2216 16.0114C96.6098 16.357 96.9105 16.7642 97.1236 17.233C97.3414 17.7017 97.4527 18.2391 97.4574 18.8452C97.4527 19.7353 97.2254 20.5071 96.7756 21.1605C96.3305 21.8092 95.6866 22.3134 94.8438 22.6733C94.0057 23.0284 92.9948 23.206 91.8111 23.206C90.6368 23.206 89.6141 23.026 88.7429 22.6662C87.8764 22.3063 87.1993 21.7737 86.7116 21.0682C86.2287 20.358 85.9754 19.4796 85.9517 18.4332H88.9276C88.9607 18.9209 89.1004 19.3281 89.3466 19.6548C89.5975 19.9768 89.9313 20.2206 90.348 20.3864C90.7694 20.5473 91.2453 20.6278 91.7756 20.6278C92.2964 20.6278 92.7486 20.5521 93.1321 20.4006C93.5204 20.2491 93.821 20.0384 94.0341 19.7685C94.2472 19.4986 94.3537 19.1884 94.3537 18.8381C94.3537 18.5114 94.2566 18.2367 94.0625 18.0142C93.8731 17.7917 93.5938 17.6023 93.2244 17.446C92.8598 17.2898 92.4124 17.1477 91.8821 17.0199L90.2983 16.6222C89.072 16.3239 88.1037 15.8575 87.3935 15.223C86.6832 14.5885 86.3305 13.7339 86.3352 12.6591C86.3305 11.7784 86.5649 11.009 87.0384 10.3509C87.5166 9.69271 88.1723 9.17898 89.0057 8.80966C89.839 8.44034 90.786 8.25568 91.8466 8.25568C92.9261 8.25568 93.8684 8.44034 94.6733 8.80966C95.483 9.17898 96.1127 9.69271 96.5625 10.3509C97.0123 11.009 97.2443 11.7713 97.2585 12.6378H94.3111ZM113.139 8.45455H116.214V17.9006C116.214 18.9612 115.961 19.8892 115.455 20.6847C114.953 21.4801 114.25 22.1004 113.345 22.5455C112.441 22.9858 111.387 23.206 110.185 23.206C108.977 23.206 107.921 22.9858 107.017 22.5455C106.113 22.1004 105.41 21.4801 104.908 20.6847C104.406 19.8892 104.155 18.9612 104.155 17.9006V8.45455H107.23V17.6378C107.23 18.1918 107.351 18.6842 107.592 19.1151C107.839 19.5459 108.184 19.8845 108.629 20.1307C109.074 20.3769 109.593 20.5 110.185 20.5C110.781 20.5 111.3 20.3769 111.74 20.1307C112.185 19.8845 112.528 19.5459 112.77 19.1151C113.016 18.6842 113.139 18.1918 113.139 17.6378V8.45455ZM126.635 12.6378C126.578 12.0649 126.335 11.6198 125.904 11.3026C125.473 10.9853 124.888 10.8267 124.15 10.8267C123.648 10.8267 123.224 10.8977 122.878 11.0398C122.533 11.1771 122.267 11.3688 122.083 11.6151C121.903 11.8613 121.813 12.1406 121.813 12.4531C121.803 12.7135 121.858 12.9408 121.976 13.1349C122.099 13.3291 122.267 13.4972 122.48 13.6392C122.694 13.7765 122.94 13.8973 123.219 14.0014C123.498 14.1009 123.797 14.1861 124.114 14.2571L125.421 14.5696C126.055 14.7116 126.638 14.901 127.168 15.1378C127.698 15.3745 128.158 15.6657 128.546 16.0114C128.934 16.357 129.235 16.7642 129.448 17.233C129.666 17.7017 129.777 18.2391 129.782 18.8452C129.777 19.7353 129.55 20.5071 129.1 21.1605C128.655 21.8092 128.011 22.3134 127.168 22.6733C126.33 23.0284 125.319 23.206 124.135 23.206C122.961 23.206 121.938 23.026 121.067 22.6662C120.201 22.3063 119.524 21.7737 119.036 21.0682C118.553 20.358 118.3 19.4796 118.276 18.4332H121.252C121.285 18.9209 121.425 19.3281 121.671 19.6548C121.922 19.9768 122.256 20.2206 122.672 20.3864C123.094 20.5473 123.569 20.6278 124.1 20.6278C124.621 20.6278 125.073 20.5521 125.456 20.4006C125.845 20.2491 126.145 20.0384 126.358 19.7685C126.571 19.4986 126.678 19.1884 126.678 18.8381C126.678 18.5114 126.581 18.2367 126.387 18.0142C126.197 17.7917 125.918 17.6023 125.549 17.446C125.184 17.2898 124.737 17.1477 124.206 17.0199L122.623 16.6222C121.396 16.3239 120.428 15.8575 119.718 15.223C119.007 14.5885 118.655 13.7339 118.659 12.6591C118.655 11.7784 118.889 11.009 119.363 10.3509C119.841 9.69271 120.497 9.17898 121.33 8.80966C122.163 8.44034 123.11 8.25568 124.171 8.25568C125.25 8.25568 126.193 8.44034 126.998 8.80966C127.807 9.17898 128.437 9.69271 128.887 10.3509C129.337 11.009 129.569 11.7713 129.583 12.6378H126.635Z" fill="white"/>
<circle cx="250" cy="35" r="8" fill="#D9D9D9"/>
<line x1="4.37114e-08" y1="34.5" x2="253" y2="34.5" stroke="white"/>
</svg>
