<svg width="40" height="40" viewBox="0 0 40 40" fill="none" xmlns="http://www.w3.org/2000/svg">
<g clip-path="url(#clip0_84_2032)">
<path d="M20 40C31.0457 40 40 31.0457 40 20C40 8.9543 31.0457 0 20 0C8.9543 0 0 8.9543 0 20C0 31.0457 8.9543 40 20 40Z" fill="black"/>
<path d="M28.8898 15.4734C28.9243 15.8449 28.9416 16.225 28.9416 16.6052C28.9416 23.3525 23.4729 28.8298 16.717 28.8298C13.7278 28.8298 10.9805 27.7585 8.85522 25.9702C9.67596 26.3503 10.5917 26.5663 11.5593 26.5663C13.1576 26.5663 14.6263 25.9788 15.7408 25.0026C13.8747 24.5015 12.3541 23.1797 11.5766 21.4432C12.4492 22.0134 13.46 22.3676 14.5572 22.454C13.0367 21.9097 11.784 20.8125 11.0496 19.4043C10.6349 18.6095 10.3757 17.711 10.3325 16.7607C10.5831 17.0371 10.8595 17.2963 11.1619 17.5296C11.4989 17.7888 11.8703 18.022 12.2591 18.2121C11.9049 17.7801 11.6025 17.2963 11.3693 16.778C11.0151 15.9831 10.8163 15.1106 10.8163 14.1862C10.8163 14.1171 10.8163 14.0479 10.8163 13.9788C10.8163 13.9443 10.8163 13.9097 10.8163 13.8752C10.8509 13.1754 10.9978 12.5101 11.2397 11.8881C11.3952 12.0868 11.5507 12.2855 11.7235 12.4669C12.2073 13.0112 12.7343 13.5123 13.3045 13.9702C13.3822 14.0307 13.4686 14.0911 13.5464 14.1602C14.2634 14.7045 15.0496 15.171 15.879 15.5425C17.1317 16.1041 18.4881 16.4669 19.9222 16.5793C20.0863 16.5879 20.2418 16.5965 20.406 16.6052C20.3541 16.441 20.3196 16.2682 20.285 16.0955C20.2505 15.8795 20.2332 15.6549 20.2332 15.4302C20.2332 14.7132 20.4233 14.0393 20.7429 13.4518C20.7602 13.4259 20.7688 13.4 20.7861 13.3741C20.9589 13.0803 21.1662 12.8039 21.3995 12.5706C21.46 12.5101 21.5118 12.4583 21.5723 12.3978C21.8747 12.13 22.2116 11.9054 22.5744 11.7326C22.704 11.6721 22.8336 11.6203 22.9719 11.5685C22.9978 11.5598 23.0237 11.5512 23.041 11.5425C23.3779 11.4302 23.7321 11.3698 24.095 11.3438C24.1036 11.3438 24.1209 11.3438 24.1295 11.3438C24.19 11.3438 24.2505 11.3438 24.3109 11.3438C25.5809 11.3438 26.7213 11.9227 27.4729 12.8384C27.7408 12.8212 28.0086 12.7866 28.2591 12.7175C29.1922 12.4842 29.9956 11.9313 30.5485 11.1797C30.4967 11.5512 30.393 11.914 30.2375 12.251C29.9006 13.0112 29.339 13.6505 28.6306 14.0825C28.5788 14.1171 28.5269 14.143 28.4751 14.1689C28.5356 14.1602 28.5874 14.1602 28.6392 14.1516C29.5982 14.0047 30.4535 13.5209 31.0755 12.8298C30.8163 13.9961 29.987 14.9723 28.8898 15.4734Z" fill="white"/>
</g>
<defs>
<clipPath id="clip0_84_2032">
<rect width="40" height="40" fill="white"/>
</clipPath>
</defs>
</svg>
