<svg width="343" height="44" viewBox="0 0 343 44" fill="none" xmlns="http://www.w3.org/2000/svg">
<path d="M9.15483 12.6378C9.09801 12.0649 8.85417 11.6198 8.4233 11.3026C7.99242 10.9853 7.40767 10.8267 6.66903 10.8267C6.16714 10.8267 5.74337 10.8977 5.39773 11.0398C5.05208 11.1771 4.78693 11.3688 4.60227 11.6151C4.42235 11.8613 4.33239 12.1406 4.33239 12.4531C4.32292 12.7135 4.37737 12.9408 4.49574 13.1349C4.61884 13.3291 4.78693 13.4972 5 13.6392C5.21307 13.7765 5.45928 13.8973 5.73864 14.0014C6.01799 14.1009 6.31629 14.1861 6.63352 14.2571L7.94034 14.5696C8.57481 14.7116 9.1572 14.901 9.6875 15.1378C10.2178 15.3745 10.6771 15.6657 11.0653 16.0114C11.4536 16.357 11.7543 16.7642 11.9673 17.233C12.1851 17.7017 12.2964 18.2391 12.3011 18.8452C12.2964 19.7353 12.0691 20.5071 11.6193 21.1605C11.1742 21.8092 10.5303 22.3134 9.6875 22.6733C8.84943 23.0284 7.83854 23.206 6.65483 23.206C5.48059 23.206 4.45786 23.026 3.58665 22.6662C2.72017 22.3063 2.04309 21.7737 1.5554 21.0682C1.07244 20.358 0.819129 19.4796 0.795455 18.4332H3.77131C3.80445 18.9209 3.94413 19.3281 4.19034 19.6548C4.44129 19.9768 4.77509 20.2206 5.19176 20.3864C5.61316 20.5473 6.08902 20.6278 6.61932 20.6278C7.14015 20.6278 7.59233 20.5521 7.97585 20.4006C8.36411 20.2491 8.66477 20.0384 8.87784 19.7685C9.09091 19.4986 9.19744 19.1884 9.19744 18.8381C9.19744 18.5114 9.10038 18.2367 8.90625 18.0142C8.71686 17.7917 8.4375 17.6023 8.06818 17.446C7.7036 17.2898 7.25616 17.1477 6.72585 17.0199L5.14205 16.6222C3.91572 16.3239 2.94744 15.8575 2.23722 15.223C1.52699 14.5885 1.17424 13.7339 1.17898 12.6591C1.17424 11.7784 1.40862 11.009 1.8821 10.3509C2.36032 9.69271 3.0161 9.17898 3.84943 8.80966C4.68277 8.44034 5.62973 8.25568 6.69034 8.25568C7.76989 8.25568 8.71212 8.44034 9.51705 8.80966C10.3267 9.17898 10.9564 9.69271 11.4062 10.3509C11.8561 11.009 12.0881 11.7713 12.1023 12.6378H9.15483ZM23.354 8.45455H26.4293V17.9006C26.4293 18.9612 26.176 19.8892 25.6694 20.6847C25.1675 21.4801 24.4644 22.1004 23.56 22.5455C22.6557 22.9858 21.6022 23.206 20.3995 23.206C19.1921 23.206 18.1362 22.9858 17.2319 22.5455C16.3275 22.1004 15.6244 21.4801 15.1225 20.6847C14.6206 19.8892 14.3697 18.9612 14.3697 17.9006V8.45455H17.445V17.6378C17.445 18.1918 17.5657 18.6842 17.8072 19.1151C18.0534 19.5459 18.399 19.8845 18.8441 20.1307C19.2892 20.3769 19.8076 20.5 20.3995 20.5C20.9961 20.5 21.5146 20.3769 21.9549 20.1307C22.4 19.8845 22.7433 19.5459 22.9847 19.1151C23.2309 18.6842 23.354 18.1918 23.354 17.6378V8.45455ZM28.9595 23V8.45455H34.6982C35.8014 8.45455 36.7412 8.66525 37.5178 9.08665C38.2943 9.50331 38.8861 10.0833 39.2933 10.8267C39.7053 11.5653 39.9112 12.4176 39.9112 13.3835C39.9112 14.3494 39.7029 15.2017 39.2862 15.9403C38.8696 16.679 38.2659 17.2543 37.4751 17.6662C36.6892 18.0781 35.7375 18.2841 34.62 18.2841H30.9624V15.8196H34.1229C34.7147 15.8196 35.2024 15.7178 35.5859 15.5142C35.9742 15.3059 36.263 15.0194 36.4524 14.6548C36.6465 14.2855 36.7436 13.8617 36.7436 13.3835C36.7436 12.9006 36.6465 12.4792 36.4524 12.1193C36.263 11.7547 35.9742 11.473 35.5859 11.2741C35.1977 11.0705 34.7053 10.9688 34.1087 10.9688H32.0348V23H28.9595ZM41.9087 23V8.45455H47.6474C48.7506 8.45455 49.6905 8.66525 50.467 9.08665C51.2435 9.50331 51.8353 10.0833 52.2425 10.8267C52.6545 11.5653 52.8604 12.4176 52.8604 13.3835C52.8604 14.3494 52.6521 15.2017 52.2354 15.9403C51.8188 16.679 51.2151 17.2543 50.4244 17.6662C49.6384 18.0781 48.6867 18.2841 47.5692 18.2841H43.9116V15.8196H47.0721C47.6639 15.8196 48.1516 15.7178 48.5352 15.5142C48.9234 15.3059 49.2122 15.0194 49.4016 14.6548C49.5958 14.2855 49.6928 13.8617 49.6928 13.3835C49.6928 12.9006 49.5958 12.4792 49.4016 12.1193C49.2122 11.7547 48.9234 11.473 48.5352 11.2741C48.1469 11.0705 47.6545 10.9688 47.0579 10.9688H44.984V23H41.9087ZM68.2244 15.7273C68.2244 17.3134 67.9238 18.6629 67.3224 19.7756C66.7259 20.8883 65.9115 21.7382 64.8793 22.3253C63.8518 22.9077 62.6965 23.1989 61.4134 23.1989C60.1207 23.1989 58.9607 22.9053 57.9332 22.3182C56.9058 21.7311 56.0938 20.8812 55.4972 19.7685C54.9006 18.6558 54.6023 17.3087 54.6023 15.7273C54.6023 14.1411 54.9006 12.7917 55.4972 11.679C56.0938 10.5663 56.9058 9.71875 57.9332 9.13636C58.9607 8.54924 60.1207 8.25568 61.4134 8.25568C62.6965 8.25568 63.8518 8.54924 64.8793 9.13636C65.9115 9.71875 66.7259 10.5663 67.3224 11.679C67.9238 12.7917 68.2244 14.1411 68.2244 15.7273ZM65.1065 15.7273C65.1065 14.6998 64.9527 13.8333 64.6449 13.1278C64.3419 12.4223 63.9134 11.8873 63.3594 11.5227C62.8054 11.1581 62.1567 10.9759 61.4134 10.9759C60.67 10.9759 60.0213 11.1581 59.4673 11.5227C58.9134 11.8873 58.4825 12.4223 58.1747 13.1278C57.8717 13.8333 57.7202 14.6998 57.7202 15.7273C57.7202 16.7547 57.8717 17.6212 58.1747 18.3267C58.4825 19.0322 58.9134 19.5672 59.4673 19.9318C60.0213 20.2964 60.67 20.4787 61.4134 20.4787C62.1567 20.4787 62.8054 20.2964 63.3594 19.9318C63.9134 19.5672 64.3419 19.0322 64.6449 18.3267C64.9527 17.6212 65.1065 16.7547 65.1065 15.7273ZM70.5025 23V8.45455H76.2411C77.3396 8.45455 78.2771 8.65104 79.0536 9.04403C79.8349 9.43229 80.4291 9.9839 80.8363 10.6989C81.2482 11.4091 81.4542 12.2448 81.4542 13.206C81.4542 14.1719 81.2459 15.0028 80.8292 15.6989C80.4125 16.3902 79.8088 16.9205 79.0181 17.2898C78.2321 17.6591 77.2804 17.8438 76.163 17.8438H72.3207V15.3722H75.6658C76.253 15.3722 76.7406 15.2917 77.1289 15.1307C77.5172 14.9697 77.806 14.7282 77.9954 14.4062C78.1895 14.0843 78.2866 13.6842 78.2866 13.206C78.2866 12.723 78.1895 12.3158 77.9954 11.9844C77.806 11.6529 77.5148 11.402 77.1218 11.2315C76.7335 11.0563 76.2435 10.9688 75.6516 10.9688H73.5778V23H70.5025ZM78.3576 16.3807L81.9727 23H78.5778L75.0408 16.3807H78.3576ZM83.0735 10.9901V8.45455H95.0195V10.9901H90.5664V23H87.5266V10.9901H83.0735Z" fill="white"/>
<line y1="35.5" x2="335" y2="35.5" stroke="white"/>
<circle cx="335" cy="36" r="8" fill="#D9D9D9"/>
</svg>
