<svg width="40" height="40" viewBox="0 0 40 40" fill="none" xmlns="http://www.w3.org/2000/svg">
<g clip-path="url(#clip0_84_2034)">
<path d="M34.1411 34.144C41.9515 26.3335 41.9515 13.6704 34.1411 5.85995C26.3307 -1.95046 13.6675 -1.95046 5.85709 5.85995C-1.95332 13.6704 -1.95332 26.3335 5.85709 34.144C13.6675 41.9544 26.3307 41.9544 34.1411 34.144Z" fill="black"/>
<path d="M27.821 27.2781C27.8468 27.2437 27.8813 27.2179 27.9071 27.1834C27.9502 27.1317 28.0019 27.08 28.045 27.0284C28.0708 26.9939 28.1052 26.9595 28.1311 26.9336C28.1742 26.8819 28.2172 26.8216 28.2689 26.77C28.2947 26.7355 28.3206 26.7011 28.355 26.6666C28.3981 26.6149 28.4412 26.5546 28.4842 26.503C28.5101 26.4685 28.5359 26.434 28.5618 26.3996C28.6048 26.3393 28.6479 26.2876 28.6823 26.2273C28.7082 26.1929 28.734 26.1584 28.7599 26.124C28.8029 26.0637 28.8374 26.012 28.8804 25.9517C28.9063 25.9172 28.9321 25.8828 28.958 25.8397C28.9924 25.7794 29.0355 25.7191 29.0699 25.6675C29.0958 25.633 29.1216 25.5899 29.1388 25.5555C29.1733 25.4952 29.2077 25.4349 29.2422 25.3746C29.268 25.3402 29.2853 25.2971 29.3111 25.2626C29.3456 25.2023 29.38 25.1421 29.4145 25.0818C29.4317 25.0387 29.4575 25.0042 29.4748 24.9612C29.5092 24.9009 29.535 24.8406 29.5695 24.7803C29.5867 24.7372 29.6126 24.7028 29.6298 24.6597C29.6556 24.5994 29.6901 24.5391 29.7159 24.4702C29.7332 24.4272 29.7504 24.3927 29.7762 24.3496C29.8021 24.2893 29.8279 24.2204 29.8537 24.1601C29.871 24.1171 29.8882 24.074 29.9054 24.0396C29.9313 23.9793 29.9571 23.9104 29.9829 23.8501C30.0002 23.807 30.0174 23.7639 30.0346 23.7209C30.0605 23.652 30.0777 23.5917 30.1035 23.5228C30.1208 23.4797 30.138 23.4366 30.1466 23.3936C30.1724 23.3247 30.1897 23.2644 30.2069 23.1955C30.2241 23.1524 30.2327 23.1093 30.25 23.0663C30.2672 22.9974 30.2844 22.9371 30.3102 22.8682C30.3189 22.8251 30.3361 22.782 30.3447 22.739C30.3619 22.6701 30.3791 22.6011 30.3964 22.5409C30.405 22.4978 30.4222 22.4547 30.4308 22.4117C30.4481 22.3427 30.4567 22.2738 30.4739 22.2135C30.4825 22.1705 30.4911 22.1274 30.4997 22.0757C30.517 22.0068 30.5256 21.9465 30.5342 21.8776C30.5428 21.8346 30.5514 21.7829 30.56 21.7398C30.5686 21.6709 30.5773 21.6106 30.5859 21.5417C30.5945 21.49 30.6031 21.447 30.6031 21.3953C30.6117 21.3264 30.6203 21.2661 30.6289 21.1972C30.6375 21.1455 30.6375 21.0938 30.6462 21.0421C30.6548 20.9819 30.6548 20.9129 30.6634 20.8527C30.6634 20.8096 30.672 20.7579 30.672 20.7148L30.7151 20.1033L30.6978 20.0947C30.6978 20.0516 30.6978 20.0086 30.6978 19.9569C30.6892 17.7605 29.9916 15.6158 28.7254 13.8328L28.7512 13.8156L28.2603 13.2213C26.2017 10.7235 23.1785 9.30226 19.9485 9.31949C18.8632 9.3281 17.8038 9.49176 16.7874 9.81045L16.7788 9.79322L16.2534 9.99133C16.2448 9.99133 16.2362 9.99994 16.2276 9.99994C16.2189 9.99994 16.2103 10.0086 16.2103 10.0086C16.1673 10.0258 16.1242 10.043 16.0725 10.0602C16.0122 10.0861 15.9519 10.1033 15.8916 10.1291C15.883 10.1291 15.8744 10.1378 15.8658 10.1378C15.8227 10.155 15.7797 10.1808 15.728 10.198C15.6677 10.2239 15.616 10.2497 15.5557 10.2756C15.504 10.3014 15.4524 10.3272 15.4007 10.3531C15.349 10.3789 15.2887 10.4048 15.237 10.4306C15.1853 10.4564 15.1337 10.4823 15.082 10.5081C15.0303 10.534 14.9786 10.5598 14.9183 10.5943C14.8667 10.6201 14.815 10.6545 14.7633 10.6804C14.7116 10.7062 14.6599 10.7407 14.6083 10.7665C14.5566 10.7924 14.5049 10.8268 14.4532 10.8613C14.4015 10.8957 14.3499 10.9216 14.3068 10.956C14.2551 10.9905 14.2034 11.0249 14.1604 11.0508C14.1087 11.0852 14.0656 11.111 14.0139 11.1455C13.9623 11.18 13.9106 11.2144 13.8675 11.2489C13.8245 11.2833 13.7728 11.3178 13.7297 11.3436C13.678 11.3781 13.635 11.4125 13.5833 11.4556C13.5402 11.49 13.4972 11.5245 13.4455 11.5589C13.3938 11.5934 13.3507 11.6365 13.299 11.6709C13.256 11.7054 13.2129 11.7398 13.1698 11.7743C13.1268 11.8173 13.0751 11.8518 13.032 11.8949C12.989 11.9293 12.9459 11.9638 12.9028 12.0068C12.8598 12.0499 12.8081 12.093 12.765 12.1274C12.722 12.1619 12.6789 12.2049 12.6444 12.2394C12.6014 12.2825 12.5583 12.3255 12.5152 12.3686C12.4722 12.403 12.4377 12.4461 12.3947 12.4892C12.3516 12.5322 12.3085 12.5753 12.2655 12.6184C12.231 12.6614 12.1879 12.6959 12.1535 12.739C12.1104 12.782 12.0673 12.8337 12.0329 12.8768C11.9984 12.9198 11.9554 12.9629 11.9209 12.9974C11.8779 13.0404 11.8434 13.0921 11.8003 13.1352C11.7659 13.1782 11.7314 13.2213 11.697 13.2644C11.6625 13.3074 11.6195 13.3591 11.585 13.4108C11.5506 13.4539 11.5161 13.4969 11.4816 13.54C11.4472 13.5917 11.4127 13.6347 11.3783 13.6864C11.3438 13.7295 11.3094 13.7725 11.2749 13.8242C11.2405 13.8759 11.206 13.9276 11.1716 13.9707C11.1371 14.0137 11.1113 14.0654 11.0768 14.1085C11.0424 14.1601 11.0079 14.2118 10.9821 14.2635C10.9476 14.3152 10.9218 14.3583 10.8873 14.4099C10.8529 14.4616 10.827 14.5133 10.7926 14.565C10.7667 14.6166 10.7323 14.6597 10.7065 14.7114C10.6806 14.7631 10.6462 14.8148 10.6203 14.8664C10.5945 14.9181 10.5686 14.9698 10.5428 15.0129C10.517 15.0645 10.4911 15.1162 10.4567 15.1765C10.4308 15.2282 10.405 15.2799 10.3791 15.3315C10.3533 15.3832 10.3275 15.4435 10.3016 15.4952C10.2758 15.5469 10.2499 15.5986 10.2327 15.6502C10.2069 15.7019 10.181 15.7622 10.1638 15.8139C10.138 15.8656 10.1208 15.9173 10.0949 15.9689C10.0691 16.0292 10.0518 16.0809 10.026 16.1412C10.0088 16.1929 9.98294 16.2446 9.96571 16.2962C9.94848 16.3565 9.92265 16.4082 9.90542 16.4685C9.88819 16.5202 9.87097 16.5719 9.84513 16.6322C9.8279 16.6924 9.81067 16.7527 9.79345 16.8044C9.77622 16.8561 9.75899 16.9164 9.74177 16.9681C9.74177 16.9767 9.73315 16.9853 9.73315 16.9939C9.71593 17.0456 9.70731 17.0973 9.69009 17.1489C9.67286 17.2006 9.65563 17.2609 9.64702 17.3126C9.62979 17.3729 9.62118 17.4332 9.60395 17.4935C9.58673 17.5452 9.57811 17.6055 9.56089 17.6571C9.54366 17.7174 9.53505 17.7777 9.51782 17.8466C9.50921 17.8983 9.49198 17.9586 9.48337 18.0103C9.47476 18.0706 9.45753 18.1395 9.44892 18.1998C9.4403 18.2428 9.43169 18.2945 9.42308 18.3376C9.42308 18.3462 9.42308 18.3548 9.42308 18.3634C9.42308 18.372 9.42308 18.3806 9.41446 18.3893L9.30249 19.1472L9.32833 19.1558C9.32833 19.1645 9.32833 19.1817 9.32833 19.1903C9.31972 19.2592 9.31972 19.3367 9.31972 19.4056C9.31972 19.4745 9.3111 19.5348 9.3111 19.6037C9.3111 19.6726 9.3111 19.7502 9.3111 19.8191C9.3111 19.8794 9.3111 19.9396 9.3111 19.9999C9.3111 20.0086 9.3111 20.0172 9.3111 20.0344C9.3111 20.043 9.3111 20.0516 9.3111 20.0516C9.3111 20.0947 9.3111 20.1291 9.3111 20.1722C9.3111 20.2153 9.3111 20.2583 9.3111 20.3014C9.3111 20.3531 9.3111 20.4048 9.31972 20.4478C9.31972 20.4909 9.31972 20.534 9.32833 20.5684C9.32833 20.6201 9.33694 20.6718 9.33694 20.7235C9.33694 20.7665 9.34556 20.801 9.34556 20.844C9.34556 20.8957 9.35417 20.9474 9.36278 20.9991C9.36278 21.0421 9.3714 21.0766 9.3714 21.1197C9.38001 21.1713 9.38001 21.223 9.38862 21.2747C9.39724 21.3178 9.39724 21.3522 9.40585 21.3953C9.41446 21.447 9.42308 21.4986 9.43169 21.5503C9.4403 21.5934 9.4403 21.6278 9.44892 21.6709C9.45753 21.7226 9.46614 21.7743 9.47476 21.8259C9.48337 21.8604 9.49198 21.9035 9.49198 21.9379C9.5006 21.9896 9.50921 22.0413 9.51782 22.093C9.52644 22.1274 9.53505 22.1705 9.54366 22.2049C9.55228 22.2566 9.5695 22.3083 9.57811 22.36C9.58673 22.3944 9.59534 22.4375 9.60395 22.4719C9.61257 22.5236 9.62979 22.5753 9.63841 22.6184C9.64702 22.6528 9.65563 22.6959 9.66425 22.7303C9.68147 22.782 9.69009 22.8251 9.70731 22.8768C9.71593 22.9198 9.73315 22.9543 9.74177 22.9974C9.75899 23.049 9.76761 23.0921 9.78483 23.1438C9.79345 23.1868 9.81067 23.2213 9.81929 23.2644C9.83651 23.3074 9.85374 23.3591 9.86235 23.4022C9.87958 23.4452 9.88819 23.4797 9.90542 23.5228C9.92265 23.5658 9.93987 23.6175 9.9571 23.6606C9.97432 23.7036 9.98294 23.7381 10.0002 23.7812C10.0174 23.8242 10.0346 23.8673 10.0518 23.9104C10.0691 23.9534 10.0863 23.9879 10.1035 24.0309C10.1208 24.074 10.138 24.1171 10.1552 24.1601C10.1724 24.2032 10.1897 24.2463 10.2069 24.2807C10.2241 24.3238 10.2413 24.3669 10.2586 24.4013C10.2758 24.4444 10.293 24.4874 10.3189 24.5219C10.3361 24.565 10.3533 24.5994 10.3791 24.6425C10.3964 24.6856 10.4222 24.7286 10.4394 24.7717C10.4567 24.8148 10.4825 24.8492 10.4997 24.8837C10.5256 24.9267 10.5428 24.9698 10.5686 25.0129C10.5859 25.0473 10.6117 25.0904 10.6289 25.1248C10.6548 25.1679 10.672 25.211 10.6978 25.254C10.7151 25.2885 10.7409 25.3229 10.7581 25.366C10.784 25.4091 10.8098 25.4521 10.8357 25.4952C10.8529 25.5297 10.8787 25.5641 10.8959 25.5986C10.9218 25.6416 10.9476 25.6847 10.9735 25.7278C10.9993 25.7622 11.0165 25.7967 11.0424 25.8311C11.0682 25.8742 11.094 25.9172 11.1285 25.9603C11.1543 25.9948 11.1716 26.0292 11.1974 26.0551C11.2232 26.0981 11.2577 26.1412 11.2835 26.1843C11.3094 26.2187 11.3266 26.2446 11.3524 26.279C11.3869 26.3221 11.4127 26.3651 11.4472 26.4082C11.473 26.4427 11.4903 26.4685 11.5161 26.503C11.5506 26.546 11.5764 26.5891 11.6108 26.6235C11.6367 26.658 11.6625 26.6838 11.6798 26.7183C11.7142 26.7614 11.7487 26.7958 11.7831 26.8389C11.809 26.8647 11.8348 26.8992 11.8606 26.925C11.8951 26.9681 11.9295 27.0025 11.964 27.0456C11.9898 27.0714 12.0157 27.1059 12.0415 27.1317C12.076 27.1748 12.1104 27.2092 12.1449 27.2523C12.1707 27.2781 12.1965 27.3126 12.2224 27.3384C12.2396 27.3557 12.2482 27.3643 12.2655 27.3815L12.2568 27.3987L12.7047 27.8208C12.7133 27.8294 12.722 27.838 12.7306 27.838C12.7392 27.8466 12.7392 27.8466 12.7478 27.8552C12.765 27.8725 12.7909 27.8897 12.8081 27.9069C12.8425 27.9414 12.8856 27.9758 12.9201 28.0103C12.9459 28.0361 12.9717 28.0533 12.9976 28.0792C13.032 28.1136 13.0751 28.1481 13.1182 28.1825C13.144 28.1998 13.1698 28.2256 13.1871 28.2428C13.2301 28.2773 13.2732 28.3117 13.3077 28.3462C13.3335 28.3634 13.3507 28.3806 13.3766 28.3979C13.4196 28.4323 13.4627 28.4668 13.5058 28.5012C13.523 28.5185 13.5488 28.5357 13.5661 28.5443C13.6091 28.5787 13.6608 28.6132 13.7039 28.6477C13.7211 28.6649 13.7383 28.6735 13.7555 28.6907C13.8072 28.7252 13.8589 28.7596 13.9106 28.8027C13.9278 28.8113 13.945 28.8199 13.9537 28.8371C14.0053 28.8716 14.0656 28.9147 14.1173 28.9491C14.1259 28.9577 14.1431 28.9663 14.1518 28.975C14.2121 29.0094 14.2637 29.0525 14.324 29.0869C14.3326 29.0955 14.3413 29.0955 14.3499 29.1042C14.4102 29.1386 14.4704 29.1817 14.5394 29.2161C14.548 29.2161 14.548 29.2247 14.5566 29.2247C14.6255 29.2678 14.6858 29.3023 14.7547 29.3367C14.7547 29.3367 14.7633 29.3367 14.7633 29.3453C15.9175 29.9913 17.175 30.422 18.4928 30.6115C18.5704 30.6201 18.6565 30.6373 18.7426 30.6459C18.7512 30.6459 18.7599 30.6459 18.7599 30.6459C18.8374 30.6545 18.9149 30.6632 18.9924 30.6718C19.001 30.6718 19.0096 30.6718 19.0183 30.6718C19.0958 30.6804 19.1647 30.689 19.2422 30.689C19.2508 30.689 19.268 30.689 19.2767 30.689C19.5178 30.7062 19.759 30.7148 20.0002 30.7148H20.0518C20.0949 30.7148 20.138 30.7148 20.181 30.7148C20.2327 30.7148 20.293 30.7148 20.3447 30.7148C20.3964 30.7148 20.4481 30.7062 20.4997 30.7062C20.5514 30.7062 20.6117 30.6976 20.6634 30.6976C20.7151 30.6976 20.7667 30.689 20.8184 30.689C20.8701 30.689 20.9218 30.6804 20.9821 30.6804C21.0338 30.6718 21.0854 30.6718 21.1371 30.6632C21.1888 30.6545 21.2405 30.6545 21.3008 30.6459C21.3524 30.6373 21.4041 30.6287 21.4558 30.6287C21.5075 30.6201 21.5678 30.6115 21.6195 30.6029C21.6711 30.5943 21.7228 30.5856 21.7745 30.577C21.8262 30.5684 21.8865 30.5598 21.9381 30.5512C21.9898 30.5426 22.0415 30.534 22.0932 30.5253C22.1449 30.5167 22.2052 30.5081 22.2568 30.4909C22.3085 30.4823 22.3602 30.4651 22.4033 30.4564C22.4549 30.4478 22.5152 30.4306 22.5669 30.422C22.6186 30.4134 22.6617 30.3961 22.7133 30.3875C22.765 30.3703 22.8253 30.3617 22.877 30.3445C22.9287 30.3272 22.9717 30.3186 23.0234 30.3014C23.0751 30.2842 23.1268 30.267 23.1871 30.2497C23.2388 30.2325 23.2818 30.2153 23.3335 30.2067C23.3852 30.1894 23.4369 30.1722 23.4885 30.155C23.5402 30.1378 23.5833 30.1205 23.635 30.1033C23.6866 30.0861 23.7383 30.0688 23.79 30.043C23.8417 30.0258 23.8847 30.0086 23.9364 29.9827C23.9881 29.9655 24.0398 29.9396 24.0915 29.9224C24.1431 29.9052 24.1862 29.8794 24.2379 29.8621C24.281 29.8449 24.3154 29.8277 24.3585 29.8104C24.3671 29.8104 24.3757 29.8018 24.3843 29.8018C24.436 29.776 24.4877 29.7588 24.5307 29.7329C24.5738 29.7157 24.6255 29.6899 24.6686 29.664C24.7202 29.6382 24.7719 29.6123 24.815 29.5865C24.8494 29.5693 24.8925 29.552 24.927 29.5262L25.4265 29.2678V29.2506C25.4696 29.2247 25.5127 29.1989 25.5557 29.1731C25.616 29.1386 25.6677 29.1042 25.7194 29.0697C25.7624 29.0439 25.8055 29.018 25.8486 28.9922C25.9089 28.9577 25.9605 28.9147 26.0122 28.8802C26.0553 28.8544 26.0897 28.8285 26.1328 28.8027C26.1845 28.7596 26.2448 28.7252 26.2965 28.6821C26.3309 28.6563 26.374 28.6304 26.4084 28.596C26.4601 28.5529 26.5204 28.5098 26.5721 28.4668C26.6065 28.4409 26.641 28.4151 26.6754 28.3806C26.7271 28.3376 26.7874 28.2945 26.8391 28.2514C26.8736 28.2256 26.908 28.1912 26.9425 28.1653C26.9941 28.1222 27.0458 28.0706 27.0975 28.0275C27.1319 28.0017 27.1664 27.9672 27.2009 27.9414C27.2525 27.8897 27.3042 27.8466 27.3559 27.7949C27.3903 27.7605 27.4162 27.7346 27.4506 27.7088C27.5023 27.6571 27.554 27.6054 27.5971 27.5624C27.6315 27.5279 27.6574 27.5021 27.6918 27.4676C27.7263 27.3815 27.7779 27.3298 27.821 27.2781ZM29.0269 21.3436C29.0183 21.3867 29.0183 21.4211 29.0096 21.4642C29.001 21.5159 28.9924 21.5762 28.9838 21.6278C28.9752 21.6623 28.9666 21.7054 28.9666 21.7398C28.958 21.8001 28.9407 21.8518 28.9321 21.9121C28.9235 21.9465 28.9149 21.981 28.9063 22.0241C28.8891 22.093 28.8718 22.1619 28.8546 22.2222C28.8374 22.2825 28.8201 22.3514 28.8029 22.4117C28.7857 22.4633 28.7771 22.515 28.7599 22.5581C28.7426 22.6098 28.7254 22.6614 28.7168 22.7045C28.7082 22.7476 28.6909 22.782 28.6823 22.8251C28.6651 22.8768 28.6479 22.9284 28.6307 22.9801C28.622 23.0146 28.6048 23.049 28.5962 23.0835C28.579 23.1352 28.5531 23.1868 28.5359 23.2471C28.5273 23.2816 28.5101 23.316 28.5015 23.3505C28.4756 23.4022 28.4584 23.4625 28.4326 23.5141C28.4153 23.5486 28.4067 23.5744 28.3895 23.6089C28.3636 23.6606 28.3378 23.7209 28.312 23.7725C28.2947 23.7984 28.2861 23.8328 28.2689 23.8587C28.2431 23.919 28.2172 23.9707 28.1914 24.0309C28.1742 24.0568 28.1655 24.0826 28.1483 24.1085C28.1225 24.1688 28.088 24.2204 28.0622 24.2807C28.045 24.3066 28.0363 24.3324 28.0191 24.3496C27.9847 24.4099 27.9588 24.4616 27.9244 24.5219C27.9158 24.5477 27.8985 24.565 27.8899 24.5822C27.8555 24.6425 27.821 24.7028 27.7866 24.7631C27.7779 24.7803 27.7607 24.7975 27.7521 24.8148C27.7177 24.875 27.6746 24.9353 27.6315 24.9956C27.6229 25.0129 27.6143 25.0215 27.6057 25.0387C27.5626 25.099 27.5195 25.1679 27.4765 25.2282C27.4679 25.2368 27.4679 25.2368 27.4593 25.2454C27.1578 25.6761 26.8133 26.0809 26.4429 26.4513C26.4343 26.4599 26.4257 26.4685 26.417 26.4771C26.3654 26.5288 26.3137 26.5719 26.262 26.6235C26.2448 26.6408 26.2276 26.658 26.2103 26.6752C26.1673 26.7183 26.1156 26.7614 26.0725 26.8044C26.0467 26.8216 26.0294 26.8475 26.0036 26.8647C25.9605 26.9078 25.9089 26.9422 25.8658 26.9767C25.84 27.0025 25.8141 27.0197 25.7797 27.0456C25.7366 27.08 25.6935 27.1145 25.6505 27.1489C25.616 27.1748 25.5902 27.2006 25.5557 27.2179C25.5127 27.2523 25.4696 27.2868 25.4265 27.3126C25.3921 27.3384 25.3576 27.3643 25.3232 27.3901C25.2801 27.416 25.237 27.4504 25.2026 27.4763C25.1854 27.4849 25.1681 27.5021 25.1509 27.5107C24.7375 25.2713 24.1259 23.0663 23.3335 20.9474C24.0915 20.8182 24.8667 20.7493 25.6419 20.7493C26.8046 20.7493 27.9502 20.8957 29.0613 21.1886C29.0355 21.2661 29.0269 21.3092 29.0269 21.3436ZM12.9717 25.8311C12.9459 25.7967 12.9114 25.7622 12.8856 25.7278C12.8684 25.7019 12.8425 25.6761 12.8253 25.6502C12.7995 25.6158 12.7736 25.5813 12.7392 25.5469C12.722 25.521 12.6961 25.4952 12.6789 25.4694C12.653 25.4349 12.6272 25.4005 12.6014 25.3574C12.5841 25.3315 12.5669 25.3057 12.5411 25.2799C12.5152 25.2454 12.4894 25.2024 12.4636 25.1679C12.4463 25.1421 12.4291 25.1162 12.4033 25.0818C12.3774 25.0473 12.3516 25.0042 12.3344 24.9698C12.3171 24.944 12.2999 24.9095 12.2827 24.8837C12.2568 24.8492 12.2396 24.8061 12.2138 24.7717C12.1965 24.7458 12.1793 24.7114 12.1621 24.6856C12.1363 24.6511 12.119 24.608 12.0932 24.5736C12.076 24.5477 12.0587 24.5133 12.0415 24.4788C12.0243 24.4444 11.9984 24.4013 11.9812 24.3669C11.964 24.3324 11.9468 24.3066 11.9295 24.2721C11.9123 24.2377 11.8951 24.1946 11.8692 24.1601C11.852 24.1257 11.8348 24.0999 11.8176 24.0654C11.8003 24.0309 11.7831 23.9965 11.7659 23.9534C11.7487 23.919 11.7314 23.8845 11.7142 23.8501C11.697 23.8156 11.6798 23.7812 11.6625 23.7467C11.6453 23.7123 11.6281 23.6778 11.6195 23.6433C11.6022 23.6089 11.5936 23.5744 11.5764 23.54C11.5592 23.5055 11.5419 23.4711 11.5333 23.428C11.5161 23.3936 11.5075 23.3591 11.4903 23.3247C11.473 23.2902 11.4644 23.2471 11.4472 23.2127C11.4386 23.1782 11.4214 23.1438 11.4127 23.1093C11.3955 23.0663 11.3869 23.0318 11.3697 22.9887C11.3611 22.9543 11.3438 22.9198 11.3352 22.8854C11.318 22.8423 11.3094 22.8079 11.2922 22.7648C11.2835 22.7303 11.2749 22.6959 11.2577 22.6614C11.2491 22.6184 11.2319 22.5753 11.2232 22.5409C11.2146 22.5064 11.206 22.4719 11.1974 22.4461C11.1888 22.403 11.1716 22.36 11.163 22.3169C11.1543 22.2825 11.1457 22.248 11.1371 22.2222C11.1285 22.1791 11.1113 22.136 11.1027 22.093C11.094 22.0585 11.0854 22.0241 11.0768 21.9982C11.0682 21.9551 11.0596 21.9121 11.051 21.869C11.0424 21.8346 11.0338 21.8001 11.0338 21.7743C11.0251 21.7312 11.0165 21.6881 11.0079 21.6451C10.9993 21.6106 10.9993 21.5762 10.9907 21.5503C10.9821 21.5073 10.9735 21.4642 10.9649 21.4211C10.9562 21.3867 10.9562 21.3522 10.9476 21.3264C10.939 21.2833 10.9304 21.2402 10.9304 21.1972C10.9218 21.1627 10.9218 21.1283 10.9218 21.0938C10.9132 21.0508 10.9132 21.0077 10.9046 20.9646C10.9046 20.9302 10.8959 20.8957 10.8959 20.8613C10.8959 20.8182 10.8873 20.7751 10.8873 20.7321C10.8873 20.6976 10.8787 20.6632 10.8787 20.6287C10.8787 20.5856 10.8701 20.5426 10.8701 20.4995C10.8701 20.4651 10.8701 20.4306 10.8615 20.3875C10.8615 20.3445 10.8615 20.3014 10.8529 20.2583C10.8529 20.2239 10.8529 20.1808 10.8529 20.1464C10.8529 20.1033 10.8529 20.0688 10.8529 20.0258C10.8529 19.9655 10.8529 19.9052 10.8529 19.8449C10.8529 19.7846 10.8529 19.7243 10.8529 19.664C10.8529 19.6037 10.8615 19.552 10.8615 19.4918C10.8615 19.4573 10.8615 19.4228 10.8701 19.397C11.8176 19.5176 12.7736 19.5779 13.7297 19.5779H13.8417C16.1328 19.5693 18.3895 19.2075 20.5514 18.5185C20.7667 18.9663 20.9735 19.4315 21.1802 19.888C17.8727 20.9129 14.9959 23.0749 13.0837 25.9689C13.0665 25.9517 13.0493 25.9259 13.032 25.9086C13.0148 25.8828 12.989 25.857 12.9717 25.8311ZM13.8417 18.0189C12.9287 18.0275 12.0157 17.9672 11.1199 17.8552C11.1285 17.838 11.1285 17.8122 11.1371 17.7949C11.1457 17.7519 11.163 17.7088 11.1716 17.6657C11.1802 17.6399 11.1888 17.6055 11.1974 17.5796C11.206 17.5624 11.206 17.5365 11.2146 17.5193C11.2232 17.4763 11.2405 17.4332 11.2491 17.3901C11.2577 17.3557 11.2663 17.3212 11.2835 17.2868C11.2922 17.2695 11.2922 17.2523 11.3008 17.2437C11.318 17.2006 11.3266 17.1576 11.3438 17.1231C11.3524 17.0887 11.3697 17.0456 11.3869 17.0111C11.3869 17.0025 11.3955 16.9939 11.3955 16.9767C11.4127 16.9336 11.4214 16.8906 11.4386 16.8561C11.4558 16.813 11.473 16.77 11.4816 16.7355V16.7269C11.4989 16.6838 11.5161 16.6408 11.5333 16.5977C11.5506 16.5546 11.5678 16.5116 11.585 16.4771C11.6022 16.434 11.6195 16.391 11.6453 16.3393C11.6625 16.2962 11.6798 16.2618 11.697 16.2187C11.7142 16.1756 11.74 16.124 11.7573 16.0809C11.7745 16.0465 11.7917 16.0034 11.8176 15.9689C11.8434 15.9259 11.8606 15.8742 11.8865 15.8311C11.9037 15.7967 11.9209 15.7536 11.9468 15.7191C11.9726 15.6761 11.9984 15.6244 12.0243 15.5813C12.0415 15.5469 12.0673 15.5124 12.0846 15.478C12.1104 15.4349 12.1363 15.3832 12.1621 15.3402C12.1793 15.3057 12.2052 15.2713 12.2224 15.2368C12.2482 15.1937 12.2827 15.1421 12.3085 15.099C12.3257 15.0645 12.3516 15.0387 12.3688 15.0042C12.3947 14.9612 12.4291 14.9095 12.4636 14.8664C12.4808 14.832 12.5066 14.8061 12.5239 14.7717C12.5583 14.7286 12.5841 14.6769 12.6186 14.6339C12.6358 14.608 12.6617 14.5736 12.6875 14.5477C12.722 14.5047 12.7564 14.4616 12.7909 14.4099C12.8167 14.3841 12.8339 14.3583 12.8598 14.3238C12.8942 14.2807 12.9287 14.2377 12.9631 14.186C12.989 14.1601 13.0062 14.1343 13.032 14.1085C13.0665 14.0654 13.1096 14.0223 13.144 13.9793C13.1698 13.9534 13.1871 13.9276 13.2129 13.9017C13.256 13.8587 13.2904 13.8156 13.3335 13.7725C13.3593 13.7467 13.3766 13.7295 13.4024 13.7036C13.4455 13.6606 13.4885 13.6175 13.5316 13.5744C13.5574 13.5486 13.5747 13.5314 13.6005 13.5055C13.6436 13.4625 13.6866 13.4194 13.7297 13.3763C13.7469 13.3591 13.7728 13.3333 13.79 13.316C13.8331 13.273 13.8847 13.2299 13.9278 13.1868C13.945 13.1696 13.9709 13.1524 13.9881 13.1352C14.0398 13.0921 14.0915 13.049 14.1431 13.006C14.1604 12.9887 14.1776 12.9801 14.1948 12.9629C14.2465 12.9198 14.2982 12.8768 14.3499 12.8423C14.3585 12.8337 14.3671 12.8337 14.3671 12.8251C14.4274 12.782 14.4791 12.739 14.5394 12.6873C14.5566 12.6701 14.5738 12.6614 14.591 12.6442C14.6427 12.6011 14.6944 12.5667 14.7547 12.5322C14.7805 12.515 14.8064 12.4978 14.8322 12.4806C14.8753 12.4547 14.9097 12.4289 14.9528 12.403C14.9614 12.3944 14.9786 12.3858 14.9872 12.3772C15.0131 12.36 15.0475 12.3341 15.0734 12.3169C15.0992 12.2997 15.1337 12.2825 15.1595 12.2652C15.1767 12.248 15.2026 12.2394 15.2198 12.2222C15.2543 12.2049 15.2887 12.1791 15.3145 12.1619C15.3404 12.1446 15.3662 12.136 15.3835 12.1188C15.4093 12.1016 15.4351 12.0843 15.461 12.0757C15.4954 12.0585 15.5299 12.0327 15.5643 12.0154C15.5816 12.0068 15.5988 11.9982 15.616 11.981C15.6505 11.9638 15.6763 11.9465 15.7108 11.9293C15.7452 11.9121 15.7883 11.8862 15.8227 11.869C15.84 11.8604 15.8486 11.8518 15.8658 11.8518C15.9003 11.8346 15.9347 11.8173 15.9692 11.8001C16.0122 11.7829 16.0553 11.757 16.0984 11.7398C16.107 11.7398 16.1156 11.7312 16.1156 11.7312C16.1586 11.714 16.1931 11.6968 16.2362 11.6795C16.2534 11.6709 16.262 11.6709 16.2792 11.6623C17.6229 13.3677 18.8201 15.1937 19.8451 17.1059C17.9071 17.7002 15.8916 18.0103 13.8417 18.0189ZM19.4403 29.1128C19.3456 29.1042 19.2594 29.1042 19.1647 29.0955C19.1044 29.0869 19.0527 29.0869 19.001 29.0783C18.9235 29.0697 18.8374 29.0611 18.7599 29.0525C18.6996 29.0439 18.6393 29.0353 18.579 29.0266C18.5015 29.018 18.4239 29.0008 18.355 28.9922C18.2947 28.9836 18.2344 28.9663 18.1742 28.9577C18.1052 28.9405 18.0277 28.9233 17.9588 28.9147C17.8985 28.8974 17.8382 28.8888 17.7693 28.8716C17.7004 28.8544 17.6315 28.8371 17.554 28.8199C17.4937 28.8027 17.4334 28.7855 17.3731 28.7682C17.3042 28.751 17.2353 28.7252 17.1664 28.6993C17.1061 28.6821 17.0458 28.6563 16.9855 28.639C16.9166 28.6132 16.8477 28.5874 16.7788 28.5615C16.7185 28.5357 16.6668 28.5185 16.6065 28.4926C16.5376 28.4668 16.4601 28.4323 16.3912 28.3979C16.3395 28.372 16.2878 28.3548 16.2362 28.329C16.1414 28.2859 16.0553 28.2428 15.9605 28.1998C15.9347 28.1825 15.9003 28.1739 15.8744 28.1567C15.8658 28.1481 15.8572 28.1481 15.84 28.1395L15.8313 28.1309C15.728 28.0792 15.6246 28.0189 15.5213 27.9672C15.4782 27.9414 15.4351 27.9155 15.3921 27.8897C15.3145 27.8466 15.2456 27.8036 15.1767 27.7605C15.1337 27.7346 15.082 27.7002 15.0389 27.6744C15.0303 27.6744 15.0303 27.6657 15.0217 27.6657C14.9614 27.6227 14.8925 27.5796 14.8322 27.5365C14.7891 27.5107 14.7461 27.4763 14.703 27.4418C14.6858 27.4246 14.6599 27.416 14.6427 27.3987C14.591 27.3643 14.548 27.3298 14.4963 27.2868C14.4532 27.2523 14.4188 27.2265 14.3757 27.192C14.3499 27.1662 14.3154 27.1489 14.2896 27.1231C14.281 27.1145 14.2637 27.1059 14.2551 27.0973C15.995 24.341 18.6909 22.2825 21.8003 21.3608C22.6617 23.6175 23.3077 25.9775 23.7125 28.372C23.678 28.3893 23.6436 28.3979 23.6091 28.4151C23.5747 28.4323 23.5316 28.4496 23.4971 28.4668C23.4541 28.484 23.4024 28.5012 23.3593 28.5185C23.3249 28.5357 23.2818 28.5443 23.2474 28.5615H23.2388C23.1957 28.5788 23.1526 28.596 23.1009 28.6132C23.0665 28.6218 23.0406 28.639 23.0062 28.6477C22.989 28.6563 22.9631 28.6649 22.9459 28.6649C22.9114 28.6735 22.877 28.6907 22.8425 28.6993C22.8167 28.7079 22.7909 28.7166 22.765 28.7252C22.7392 28.7338 22.7133 28.7424 22.6875 28.751C22.653 28.7596 22.6186 28.7682 22.5841 28.7855C22.5583 28.7941 22.5411 28.8027 22.5152 28.8027C22.4894 28.8113 22.4636 28.8199 22.4377 28.8285C22.4033 28.8371 22.3602 28.8458 22.3257 28.863C22.3085 28.8716 22.2827 28.8716 22.2655 28.8802C22.2396 28.8888 22.2138 28.8888 22.1965 28.8974C22.1535 28.9061 22.1104 28.9147 22.0673 28.9233C22.0415 28.9319 22.0157 28.9319 21.9898 28.9405C21.9726 28.9405 21.964 28.9491 21.9468 28.9491C21.8951 28.9577 21.852 28.9663 21.8003 28.975C21.7573 28.9836 21.7228 28.9922 21.6798 29.0008C21.6281 29.0094 21.5764 29.018 21.5333 29.0266C21.4989 29.0353 21.4558 29.0439 21.4214 29.0439C21.4041 29.0439 21.3955 29.0439 21.3783 29.0525C21.3438 29.0611 21.3008 29.0611 21.2663 29.0697C21.2319 29.0783 21.1974 29.0783 21.163 29.0869C21.1371 29.0869 21.1199 29.0955 21.094 29.0955C21.0596 29.0955 21.0251 29.1042 20.9907 29.1042C20.9649 29.1042 20.9304 29.1128 20.9046 29.1128C20.8787 29.1128 20.8529 29.1214 20.827 29.1214C20.7926 29.1214 20.7581 29.13 20.7237 29.13C20.6978 29.13 20.672 29.13 20.6462 29.1386C20.6203 29.1386 20.5945 29.1386 20.5773 29.1472C20.5342 29.1472 20.4997 29.1472 20.4567 29.1558C20.4308 29.1558 20.405 29.1558 20.3791 29.1558C20.3619 29.1558 20.3361 29.1558 20.3189 29.1558C20.2758 29.1558 20.2327 29.1558 20.1897 29.1558C20.138 29.1558 20.0949 29.1558 20.0432 29.1558C19.9054 29.1558 19.7676 29.1558 19.6298 29.1472C19.535 29.1214 19.4834 29.1214 19.4403 29.1128ZM25.616 19.2161C24.6427 19.2161 23.6694 19.3109 22.7133 19.5004C22.498 18.9922 22.2741 18.484 22.0329 17.9844C23.9967 17.2006 25.84 16.1326 27.5109 14.8234C28.4842 16.2359 29.0441 17.9069 29.113 19.6296C27.976 19.3626 26.8046 19.2161 25.616 19.2161ZM19.9916 10.8699C20.0691 10.8699 20.1552 10.8699 20.2327 10.8699C20.2586 10.8699 20.293 10.8699 20.3189 10.8699C20.3705 10.8699 20.4222 10.8699 20.4739 10.8785C20.5083 10.8785 20.5428 10.8785 20.5773 10.8871C20.6203 10.8871 20.672 10.8957 20.7151 10.8957C20.7495 10.8957 20.784 10.9043 20.827 10.9043C20.8701 10.9043 20.9132 10.9129 20.9562 10.9129C20.9907 10.9129 21.0338 10.9216 21.0682 10.9302C21.1113 10.9388 21.1543 10.9388 21.1888 10.9474C21.2319 10.956 21.2663 10.956 21.3094 10.9646C21.3438 10.9732 21.3869 10.9732 21.4214 10.9819C21.4644 10.9905 21.5075 10.9991 21.5419 10.9991C21.5764 11.0077 21.6108 11.0077 21.6453 11.0163C21.6884 11.0249 21.7314 11.0335 21.7745 11.0421C21.809 11.0508 21.8348 11.0594 21.8692 11.0594C21.9123 11.068 21.964 11.0766 22.0071 11.0938C22.0243 11.1024 22.0501 11.1024 22.0673 11.111C22.2568 11.1541 22.4463 11.2058 22.6272 11.2661C22.6444 11.2747 22.6531 11.2747 22.6703 11.2833C22.722 11.3005 22.7822 11.3178 22.8339 11.335C22.8512 11.3436 22.877 11.3522 22.8942 11.3522C22.9459 11.3694 22.9976 11.3867 23.0493 11.4039C23.0751 11.4125 23.0923 11.4211 23.1182 11.4297C23.1698 11.447 23.2215 11.4642 23.2646 11.49C23.2904 11.4986 23.3077 11.5073 23.3335 11.5159C23.3852 11.5331 23.4282 11.5589 23.4799 11.5762C23.5058 11.5848 23.523 11.5934 23.5488 11.602C23.6005 11.6192 23.6522 11.6451 23.6953 11.6709C23.7125 11.6795 23.7383 11.6881 23.7555 11.6968C23.8072 11.7226 23.8589 11.7398 23.902 11.7657C23.9192 11.7743 23.9364 11.7829 23.9537 11.7915C24.0053 11.8173 24.057 11.8432 24.1087 11.869C24.1173 11.8776 24.1259 11.8776 24.1345 11.8862C24.324 11.981 24.5049 12.0843 24.6858 12.1963C24.6944 12.1963 24.6944 12.2049 24.703 12.2049C24.7461 12.2308 24.7978 12.2652 24.8408 12.2911C24.858 12.3083 24.8839 12.3169 24.9011 12.3341C24.9442 12.36 24.9786 12.3858 25.0217 12.4117C25.0475 12.4289 25.0734 12.4461 25.0992 12.4633C25.1337 12.4892 25.1767 12.515 25.2112 12.5409C25.237 12.5581 25.2629 12.5839 25.2973 12.6011C25.3318 12.627 25.3662 12.6528 25.4007 12.6787C25.4265 12.7045 25.461 12.7217 25.4868 12.7476C25.5213 12.7734 25.5557 12.7992 25.5902 12.8251C25.6246 12.8509 25.6505 12.8768 25.6849 12.9026C25.7194 12.9284 25.7452 12.9543 25.7797 12.9801C25.8141 13.006 25.84 13.0318 25.8744 13.0663C25.9003 13.0921 25.9347 13.1179 25.9605 13.1352C25.995 13.1696 26.0295 13.1955 26.0639 13.2299C26.0897 13.2558 26.1156 13.273 26.1328 13.2902C26.1845 13.3333 26.2362 13.385 26.2792 13.4366C26.2878 13.4452 26.2965 13.4539 26.3051 13.4625C26.3568 13.5142 26.417 13.5744 26.4687 13.6261C24.8839 14.8664 23.144 15.857 21.2835 16.5977C20.2758 14.6856 19.1044 12.8595 17.7866 11.1455C18.4756 10.9819 19.1819 10.8957 19.8968 10.8871L19.9916 10.8699Z" fill="white"/>
<mask id="mask0_84_2034" style="mask-type:luminance" maskUnits="userSpaceOnUse" x="9" y="9" width="22" height="22">
<path d="M27.821 27.2781C27.8468 27.2437 27.8813 27.2179 27.9071 27.1834C27.9502 27.1317 28.0019 27.08 28.045 27.0284C28.0708 26.9939 28.1052 26.9595 28.1311 26.9336C28.1742 26.8819 28.2172 26.8216 28.2689 26.77C28.2947 26.7355 28.3206 26.7011 28.355 26.6666C28.3981 26.6149 28.4412 26.5546 28.4842 26.503C28.5101 26.4685 28.5359 26.434 28.5618 26.3996C28.6048 26.3393 28.6479 26.2876 28.6823 26.2273C28.7082 26.1929 28.734 26.1584 28.7599 26.124C28.8029 26.0637 28.8374 26.012 28.8804 25.9517C28.9063 25.9172 28.9321 25.8828 28.958 25.8397C28.9924 25.7794 29.0355 25.7191 29.0699 25.6675C29.0958 25.633 29.1216 25.5899 29.1388 25.5555C29.1733 25.4952 29.2077 25.4349 29.2422 25.3746C29.268 25.3402 29.2853 25.2971 29.3111 25.2626C29.3456 25.2023 29.38 25.1421 29.4145 25.0818C29.4317 25.0387 29.4575 25.0042 29.4748 24.9612C29.5092 24.9009 29.535 24.8406 29.5695 24.7803C29.5867 24.7372 29.6126 24.7028 29.6298 24.6597C29.6556 24.5994 29.6901 24.5391 29.7159 24.4702C29.7332 24.4272 29.7504 24.3927 29.7762 24.3496C29.8021 24.2893 29.8279 24.2204 29.8537 24.1601C29.871 24.1171 29.8882 24.074 29.9054 24.0396C29.9313 23.9793 29.9571 23.9104 29.9829 23.8501C30.0002 23.807 30.0174 23.7639 30.0346 23.7209C30.0605 23.652 30.0777 23.5917 30.1035 23.5228C30.1208 23.4797 30.138 23.4366 30.1466 23.3936C30.1724 23.3247 30.1897 23.2644 30.2069 23.1955C30.2241 23.1524 30.2327 23.1093 30.25 23.0663C30.2672 22.9974 30.2844 22.9371 30.3102 22.8682C30.3189 22.8251 30.3361 22.782 30.3447 22.739C30.3619 22.6701 30.3791 22.6011 30.3964 22.5409C30.405 22.4978 30.4222 22.4547 30.4308 22.4117C30.4481 22.3427 30.4567 22.2738 30.4739 22.2135C30.4825 22.1705 30.4911 22.1274 30.4997 22.0757C30.517 22.0068 30.5256 21.9465 30.5342 21.8776C30.5428 21.8346 30.5514 21.7829 30.56 21.7398C30.5686 21.6709 30.5773 21.6106 30.5859 21.5417C30.5945 21.49 30.6031 21.447 30.6031 21.3953C30.6117 21.3264 30.6203 21.2661 30.6289 21.1972C30.6375 21.1455 30.6375 21.0938 30.6462 21.0421C30.6548 20.9819 30.6548 20.9129 30.6634 20.8527C30.6634 20.8096 30.672 20.7579 30.672 20.7148L30.7151 20.1033L30.6978 20.0947C30.6978 20.0516 30.6978 20.0086 30.6978 19.9569C30.6892 17.7605 29.9916 15.6158 28.7254 13.8328L28.7512 13.8156L28.2603 13.2213C26.2017 10.7235 23.1785 9.30226 19.9485 9.31949C18.8632 9.3281 17.8038 9.49176 16.7874 9.81045L16.7788 9.79322L16.2534 9.99133C16.2448 9.99133 16.2362 9.99994 16.2276 9.99994C16.2189 9.99994 16.2103 10.0086 16.2103 10.0086C16.1673 10.0258 16.1242 10.043 16.0725 10.0602C16.0122 10.0861 15.9519 10.1033 15.8916 10.1291C15.883 10.1291 15.8744 10.1378 15.8658 10.1378C15.8227 10.155 15.7797 10.1808 15.728 10.198C15.6677 10.2239 15.616 10.2497 15.5557 10.2756C15.504 10.3014 15.4524 10.3272 15.4007 10.3531C15.349 10.3789 15.2887 10.4048 15.237 10.4306C15.1853 10.4564 15.1337 10.4823 15.082 10.5081C15.0303 10.534 14.9786 10.5598 14.9183 10.5943C14.8667 10.6201 14.815 10.6545 14.7633 10.6804C14.7116 10.7062 14.6599 10.7407 14.6083 10.7665C14.5566 10.7924 14.5049 10.8268 14.4532 10.8613C14.4015 10.8957 14.3499 10.9216 14.3068 10.956C14.2551 10.9905 14.2034 11.0249 14.1604 11.0508C14.1087 11.0852 14.0656 11.111 14.0139 11.1455C13.9623 11.18 13.9106 11.2144 13.8675 11.2489C13.8245 11.2833 13.7728 11.3178 13.7297 11.3436C13.678 11.3781 13.635 11.4125 13.5833 11.4556C13.5402 11.49 13.4972 11.5245 13.4455 11.5589C13.3938 11.5934 13.3507 11.6365 13.299 11.6709C13.256 11.7054 13.2129 11.7398 13.1698 11.7743C13.1268 11.8173 13.0751 11.8518 13.032 11.8949C12.989 11.9293 12.9459 11.9638 12.9028 12.0068C12.8598 12.0499 12.8081 12.093 12.765 12.1274C12.722 12.1619 12.6789 12.2049 12.6444 12.2394C12.6014 12.2825 12.5583 12.3255 12.5152 12.3686C12.4722 12.403 12.4377 12.4461 12.3947 12.4892C12.3516 12.5322 12.3085 12.5753 12.2655 12.6184C12.231 12.6614 12.1879 12.6959 12.1535 12.739C12.1104 12.782 12.0673 12.8337 12.0329 12.8768C11.9984 12.9198 11.9554 12.9629 11.9209 12.9974C11.8779 13.0404 11.8434 13.0921 11.8003 13.1352C11.7659 13.1782 11.7314 13.2213 11.697 13.2644C11.6625 13.3074 11.6195 13.3591 11.585 13.4108C11.5506 13.4539 11.5161 13.4969 11.4816 13.54C11.4472 13.5917 11.4127 13.6347 11.3783 13.6864C11.3438 13.7295 11.3094 13.7725 11.2749 13.8242C11.2405 13.8759 11.206 13.9276 11.1716 13.9707C11.1371 14.0137 11.1113 14.0654 11.0768 14.1085C11.0424 14.1601 11.0079 14.2118 10.9821 14.2635C10.9476 14.3152 10.9218 14.3583 10.8873 14.4099C10.8529 14.4616 10.827 14.5133 10.7926 14.565C10.7667 14.6166 10.7323 14.6597 10.7065 14.7114C10.6806 14.7631 10.6462 14.8148 10.6203 14.8664C10.5945 14.9181 10.5686 14.9698 10.5428 15.0129C10.517 15.0645 10.4911 15.1162 10.4567 15.1765C10.4308 15.2282 10.405 15.2799 10.3791 15.3315C10.3533 15.3832 10.3275 15.4435 10.3016 15.4952C10.2758 15.5469 10.2499 15.5986 10.2327 15.6502C10.2069 15.7019 10.181 15.7622 10.1638 15.8139C10.138 15.8656 10.1208 15.9173 10.0949 15.9689C10.0691 16.0292 10.0518 16.0809 10.026 16.1412C10.0088 16.1929 9.98294 16.2446 9.96571 16.2962C9.94848 16.3565 9.92265 16.4082 9.90542 16.4685C9.88819 16.5202 9.87097 16.5719 9.84513 16.6322C9.8279 16.6924 9.81067 16.7527 9.79345 16.8044C9.77622 16.8561 9.75899 16.9164 9.74177 16.9681C9.74177 16.9767 9.73315 16.9853 9.73315 16.9939C9.71593 17.0456 9.70731 17.0973 9.69009 17.1489C9.67286 17.2006 9.65563 17.2609 9.64702 17.3126C9.62979 17.3729 9.62118 17.4332 9.60395 17.4935C9.58673 17.5452 9.57811 17.6055 9.56089 17.6571C9.54366 17.7174 9.53505 17.7777 9.51782 17.8466C9.50921 17.8983 9.49198 17.9586 9.48337 18.0103C9.47476 18.0706 9.45753 18.1395 9.44892 18.1998C9.4403 18.2428 9.43169 18.2945 9.42308 18.3376C9.42308 18.3462 9.42308 18.3548 9.42308 18.3634C9.42308 18.372 9.42308 18.3806 9.41446 18.3893L9.30249 19.1472L9.32833 19.1558C9.32833 19.1645 9.32833 19.1817 9.32833 19.1903C9.31972 19.2592 9.31972 19.3367 9.31972 19.4056C9.31972 19.4745 9.3111 19.5348 9.3111 19.6037C9.3111 19.6726 9.3111 19.7502 9.3111 19.8191C9.3111 19.8794 9.3111 19.9396 9.3111 19.9999C9.3111 20.0086 9.3111 20.0172 9.3111 20.0344C9.3111 20.043 9.3111 20.0516 9.3111 20.0516C9.3111 20.0947 9.3111 20.1291 9.3111 20.1722C9.3111 20.2153 9.3111 20.2583 9.3111 20.3014C9.3111 20.3531 9.3111 20.4048 9.31972 20.4478C9.31972 20.4909 9.31972 20.534 9.32833 20.5684C9.32833 20.6201 9.33694 20.6718 9.33694 20.7235C9.33694 20.7665 9.34556 20.801 9.34556 20.844C9.34556 20.8957 9.35417 20.9474 9.36278 20.9991C9.36278 21.0421 9.3714 21.0766 9.3714 21.1197C9.38001 21.1713 9.38001 21.223 9.38862 21.2747C9.39724 21.3178 9.39724 21.3522 9.40585 21.3953C9.41446 21.447 9.42308 21.4986 9.43169 21.5503C9.4403 21.5934 9.4403 21.6278 9.44892 21.6709C9.45753 21.7226 9.46614 21.7743 9.47476 21.8259C9.48337 21.8604 9.49198 21.9035 9.49198 21.9379C9.5006 21.9896 9.50921 22.0413 9.51782 22.093C9.52644 22.1274 9.53505 22.1705 9.54366 22.2049C9.55228 22.2566 9.5695 22.3083 9.57811 22.36C9.58673 22.3944 9.59534 22.4375 9.60395 22.4719C9.61257 22.5236 9.62979 22.5753 9.63841 22.6184C9.64702 22.6528 9.65563 22.6959 9.66425 22.7303C9.68147 22.782 9.69009 22.8251 9.70731 22.8768C9.71593 22.9198 9.73315 22.9543 9.74177 22.9974C9.75899 23.049 9.76761 23.0921 9.78483 23.1438C9.79345 23.1868 9.81067 23.2213 9.81929 23.2644C9.83651 23.3074 9.85374 23.3591 9.86235 23.4022C9.87958 23.4452 9.88819 23.4797 9.90542 23.5228C9.92265 23.5658 9.93987 23.6175 9.9571 23.6606C9.97432 23.7036 9.98294 23.7381 10.0002 23.7812C10.0174 23.8242 10.0346 23.8673 10.0518 23.9104C10.0691 23.9534 10.0863 23.9879 10.1035 24.0309C10.1208 24.074 10.138 24.1171 10.1552 24.1601C10.1724 24.2032 10.1897 24.2463 10.2069 24.2807C10.2241 24.3238 10.2413 24.3669 10.2586 24.4013C10.2758 24.4444 10.293 24.4874 10.3189 24.5219C10.3361 24.565 10.3533 24.5994 10.3791 24.6425C10.3964 24.6856 10.4222 24.7286 10.4394 24.7717C10.4567 24.8148 10.4825 24.8492 10.4997 24.8837C10.5256 24.9267 10.5428 24.9698 10.5686 25.0129C10.5859 25.0473 10.6117 25.0904 10.6289 25.1248C10.6548 25.1679 10.672 25.211 10.6978 25.254C10.7151 25.2885 10.7409 25.3229 10.7581 25.366C10.784 25.4091 10.8098 25.4521 10.8357 25.4952C10.8529 25.5297 10.8787 25.5641 10.8959 25.5986C10.9218 25.6416 10.9476 25.6847 10.9735 25.7278C10.9993 25.7622 11.0165 25.7967 11.0424 25.8311C11.0682 25.8742 11.094 25.9172 11.1285 25.9603C11.1543 25.9948 11.1716 26.0292 11.1974 26.0551C11.2232 26.0981 11.2577 26.1412 11.2835 26.1843C11.3094 26.2187 11.3266 26.2446 11.3524 26.279C11.3869 26.3221 11.4127 26.3651 11.4472 26.4082C11.473 26.4427 11.4903 26.4685 11.5161 26.503C11.5506 26.546 11.5764 26.5891 11.6108 26.6235C11.6367 26.658 11.6625 26.6838 11.6798 26.7183C11.7142 26.7614 11.7487 26.7958 11.7831 26.8389C11.809 26.8647 11.8348 26.8992 11.8606 26.925C11.8951 26.9681 11.9295 27.0025 11.964 27.0456C11.9898 27.0714 12.0157 27.1059 12.0415 27.1317C12.076 27.1748 12.1104 27.2092 12.1449 27.2523C12.1707 27.2781 12.1965 27.3126 12.2224 27.3384C12.2396 27.3557 12.2482 27.3643 12.2655 27.3815L12.2568 27.3987L12.7047 27.8208C12.7133 27.8294 12.722 27.838 12.7306 27.838C12.7392 27.8466 12.7392 27.8466 12.7478 27.8552C12.765 27.8725 12.7909 27.8897 12.8081 27.9069C12.8425 27.9414 12.8856 27.9758 12.9201 28.0103C12.9459 28.0361 12.9717 28.0533 12.9976 28.0792C13.032 28.1136 13.0751 28.1481 13.1182 28.1825C13.144 28.1998 13.1698 28.2256 13.1871 28.2428C13.2301 28.2773 13.2732 28.3117 13.3077 28.3462C13.3335 28.3634 13.3507 28.3806 13.3766 28.3979C13.4196 28.4323 13.4627 28.4668 13.5058 28.5012C13.523 28.5185 13.5488 28.5357 13.5661 28.5443C13.6091 28.5787 13.6608 28.6132 13.7039 28.6477C13.7211 28.6649 13.7383 28.6735 13.7555 28.6907C13.8072 28.7252 13.8589 28.7596 13.9106 28.8027C13.9278 28.8113 13.945 28.8199 13.9537 28.8371C14.0053 28.8716 14.0656 28.9147 14.1173 28.9491C14.1259 28.9577 14.1431 28.9663 14.1518 28.975C14.2121 29.0094 14.2637 29.0525 14.324 29.0869C14.3326 29.0955 14.3413 29.0955 14.3499 29.1042C14.4102 29.1386 14.4704 29.1817 14.5394 29.2161C14.548 29.2161 14.548 29.2247 14.5566 29.2247C14.6255 29.2678 14.6858 29.3023 14.7547 29.3367C14.7547 29.3367 14.7633 29.3367 14.7633 29.3453C15.9175 29.9913 17.175 30.422 18.4928 30.6115C18.5704 30.6201 18.6565 30.6373 18.7426 30.6459C18.7512 30.6459 18.7599 30.6459 18.7599 30.6459C18.8374 30.6545 18.9149 30.6632 18.9924 30.6718C19.001 30.6718 19.0096 30.6718 19.0183 30.6718C19.0958 30.6804 19.1647 30.689 19.2422 30.689C19.2508 30.689 19.268 30.689 19.2767 30.689C19.5178 30.7062 19.759 30.7148 20.0002 30.7148H20.0518C20.0949 30.7148 20.138 30.7148 20.181 30.7148C20.2327 30.7148 20.293 30.7148 20.3447 30.7148C20.3964 30.7148 20.4481 30.7062 20.4997 30.7062C20.5514 30.7062 20.6117 30.6976 20.6634 30.6976C20.7151 30.6976 20.7667 30.689 20.8184 30.689C20.8701 30.689 20.9218 30.6804 20.9821 30.6804C21.0338 30.6718 21.0854 30.6718 21.1371 30.6632C21.1888 30.6545 21.2405 30.6545 21.3008 30.6459C21.3524 30.6373 21.4041 30.6287 21.4558 30.6287C21.5075 30.6201 21.5678 30.6115 21.6195 30.6029C21.6711 30.5943 21.7228 30.5856 21.7745 30.577C21.8262 30.5684 21.8865 30.5598 21.9381 30.5512C21.9898 30.5426 22.0415 30.534 22.0932 30.5253C22.1449 30.5167 22.2052 30.5081 22.2568 30.4909C22.3085 30.4823 22.3602 30.4651 22.4033 30.4564C22.4549 30.4478 22.5152 30.4306 22.5669 30.422C22.6186 30.4134 22.6617 30.3961 22.7133 30.3875C22.765 30.3703 22.8253 30.3617 22.877 30.3445C22.9287 30.3272 22.9717 30.3186 23.0234 30.3014C23.0751 30.2842 23.1268 30.267 23.1871 30.2497C23.2388 30.2325 23.2818 30.2153 23.3335 30.2067C23.3852 30.1894 23.4369 30.1722 23.4885 30.155C23.5402 30.1378 23.5833 30.1205 23.635 30.1033C23.6866 30.0861 23.7383 30.0688 23.79 30.043C23.8417 30.0258 23.8847 30.0086 23.9364 29.9827C23.9881 29.9655 24.0398 29.9396 24.0915 29.9224C24.1431 29.9052 24.1862 29.8794 24.2379 29.8621C24.281 29.8449 24.3154 29.8277 24.3585 29.8104C24.3671 29.8104 24.3757 29.8018 24.3843 29.8018C24.436 29.776 24.4877 29.7588 24.5307 29.7329C24.5738 29.7157 24.6255 29.6899 24.6686 29.664C24.7202 29.6382 24.7719 29.6123 24.815 29.5865C24.8494 29.5693 24.8925 29.552 24.927 29.5262L25.4265 29.2678V29.2506C25.4696 29.2247 25.5127 29.1989 25.5557 29.1731C25.616 29.1386 25.6677 29.1042 25.7194 29.0697C25.7624 29.0439 25.8055 29.018 25.8486 28.9922C25.9089 28.9577 25.9605 28.9147 26.0122 28.8802C26.0553 28.8544 26.0897 28.8285 26.1328 28.8027C26.1845 28.7596 26.2448 28.7252 26.2965 28.6821C26.3309 28.6563 26.374 28.6304 26.4084 28.596C26.4601 28.5529 26.5204 28.5098 26.5721 28.4668C26.6065 28.4409 26.641 28.4151 26.6754 28.3806C26.7271 28.3376 26.7874 28.2945 26.8391 28.2514C26.8736 28.2256 26.908 28.1912 26.9425 28.1653C26.9941 28.1222 27.0458 28.0706 27.0975 28.0275C27.1319 28.0017 27.1664 27.9672 27.2009 27.9414C27.2525 27.8897 27.3042 27.8466 27.3559 27.7949C27.3903 27.7605 27.4162 27.7346 27.4506 27.7088C27.5023 27.6571 27.554 27.6054 27.5971 27.5624C27.6315 27.5279 27.6574 27.5021 27.6918 27.4676C27.7263 27.3815 27.7779 27.3298 27.821 27.2781ZM29.0269 21.3436C29.0183 21.3867 29.0183 21.4211 29.0096 21.4642C29.001 21.5159 28.9924 21.5762 28.9838 21.6278C28.9752 21.6623 28.9666 21.7054 28.9666 21.7398C28.958 21.8001 28.9407 21.8518 28.9321 21.9121C28.9235 21.9465 28.9149 21.981 28.9063 22.0241C28.8891 22.093 28.8718 22.1619 28.8546 22.2222C28.8374 22.2825 28.8201 22.3514 28.8029 22.4117C28.7857 22.4633 28.7771 22.515 28.7599 22.5581C28.7426 22.6098 28.7254 22.6614 28.7168 22.7045C28.7082 22.7476 28.6909 22.782 28.6823 22.8251C28.6651 22.8768 28.6479 22.9284 28.6307 22.9801C28.622 23.0146 28.6048 23.049 28.5962 23.0835C28.579 23.1352 28.5531 23.1868 28.5359 23.2471C28.5273 23.2816 28.5101 23.316 28.5015 23.3505C28.4756 23.4022 28.4584 23.4625 28.4326 23.5141C28.4153 23.5486 28.4067 23.5744 28.3895 23.6089C28.3636 23.6606 28.3378 23.7209 28.312 23.7725C28.2947 23.7984 28.2861 23.8328 28.2689 23.8587C28.2431 23.919 28.2172 23.9707 28.1914 24.0309C28.1742 24.0568 28.1655 24.0826 28.1483 24.1085C28.1225 24.1688 28.088 24.2204 28.0622 24.2807C28.045 24.3066 28.0363 24.3324 28.0191 24.3496C27.9847 24.4099 27.9588 24.4616 27.9244 24.5219C27.9158 24.5477 27.8985 24.565 27.8899 24.5822C27.8555 24.6425 27.821 24.7028 27.7866 24.7631C27.7779 24.7803 27.7607 24.7975 27.7521 24.8148C27.7177 24.875 27.6746 24.9353 27.6315 24.9956C27.6229 25.0129 27.6143 25.0215 27.6057 25.0387C27.5626 25.099 27.5195 25.1679 27.4765 25.2282C27.4679 25.2368 27.4679 25.2368 27.4593 25.2454C27.1578 25.6761 26.8133 26.0809 26.4429 26.4513C26.4343 26.4599 26.4257 26.4685 26.417 26.4771C26.3654 26.5288 26.3137 26.5719 26.262 26.6235C26.2448 26.6408 26.2276 26.658 26.2103 26.6752C26.1673 26.7183 26.1156 26.7614 26.0725 26.8044C26.0467 26.8216 26.0294 26.8475 26.0036 26.8647C25.9605 26.9078 25.9089 26.9422 25.8658 26.9767C25.84 27.0025 25.8141 27.0197 25.7797 27.0456C25.7366 27.08 25.6935 27.1145 25.6505 27.1489C25.616 27.1748 25.5902 27.2006 25.5557 27.2179C25.5127 27.2523 25.4696 27.2868 25.4265 27.3126C25.3921 27.3384 25.3576 27.3643 25.3232 27.3901C25.2801 27.416 25.237 27.4504 25.2026 27.4763C25.1854 27.4849 25.1681 27.5021 25.1509 27.5107C24.7375 25.2713 24.1259 23.0663 23.3335 20.9474C24.0915 20.8182 24.8667 20.7493 25.6419 20.7493C26.8046 20.7493 27.9502 20.8957 29.0613 21.1886C29.0355 21.2661 29.0269 21.3092 29.0269 21.3436ZM12.9717 25.8311C12.9459 25.7967 12.9114 25.7622 12.8856 25.7278C12.8684 25.7019 12.8425 25.6761 12.8253 25.6502C12.7995 25.6158 12.7736 25.5813 12.7392 25.5469C12.722 25.521 12.6961 25.4952 12.6789 25.4694C12.653 25.4349 12.6272 25.4005 12.6014 25.3574C12.5841 25.3315 12.5669 25.3057 12.5411 25.2799C12.5152 25.2454 12.4894 25.2024 12.4636 25.1679C12.4463 25.1421 12.4291 25.1162 12.4033 25.0818C12.3774 25.0473 12.3516 25.0042 12.3344 24.9698C12.3171 24.944 12.2999 24.9095 12.2827 24.8837C12.2568 24.8492 12.2396 24.8061 12.2138 24.7717C12.1965 24.7458 12.1793 24.7114 12.1621 24.6856C12.1363 24.6511 12.119 24.608 12.0932 24.5736C12.076 24.5477 12.0587 24.5133 12.0415 24.4788C12.0243 24.4444 11.9984 24.4013 11.9812 24.3669C11.964 24.3324 11.9468 24.3066 11.9295 24.2721C11.9123 24.2377 11.8951 24.1946 11.8692 24.1601C11.852 24.1257 11.8348 24.0999 11.8176 24.0654C11.8003 24.0309 11.7831 23.9965 11.7659 23.9534C11.7487 23.919 11.7314 23.8845 11.7142 23.8501C11.697 23.8156 11.6798 23.7812 11.6625 23.7467C11.6453 23.7123 11.6281 23.6778 11.6195 23.6433C11.6022 23.6089 11.5936 23.5744 11.5764 23.54C11.5592 23.5055 11.5419 23.4711 11.5333 23.428C11.5161 23.3936 11.5075 23.3591 11.4903 23.3247C11.473 23.2902 11.4644 23.2471 11.4472 23.2127C11.4386 23.1782 11.4214 23.1438 11.4127 23.1093C11.3955 23.0663 11.3869 23.0318 11.3697 22.9887C11.3611 22.9543 11.3438 22.9198 11.3352 22.8854C11.318 22.8423 11.3094 22.8079 11.2922 22.7648C11.2835 22.7303 11.2749 22.6959 11.2577 22.6614C11.2491 22.6184 11.2319 22.5753 11.2232 22.5409C11.2146 22.5064 11.206 22.4719 11.1974 22.4461C11.1888 22.403 11.1716 22.36 11.163 22.3169C11.1543 22.2825 11.1457 22.248 11.1371 22.2222C11.1285 22.1791 11.1113 22.136 11.1027 22.093C11.094 22.0585 11.0854 22.0241 11.0768 21.9982C11.0682 21.9551 11.0596 21.9121 11.051 21.869C11.0424 21.8346 11.0338 21.8001 11.0338 21.7743C11.0251 21.7312 11.0165 21.6881 11.0079 21.6451C10.9993 21.6106 10.9993 21.5762 10.9907 21.5503C10.9821 21.5073 10.9735 21.4642 10.9649 21.4211C10.9562 21.3867 10.9562 21.3522 10.9476 21.3264C10.939 21.2833 10.9304 21.2402 10.9304 21.1972C10.9218 21.1627 10.9218 21.1283 10.9218 21.0938C10.9132 21.0508 10.9132 21.0077 10.9046 20.9646C10.9046 20.9302 10.8959 20.8957 10.8959 20.8613C10.8959 20.8182 10.8873 20.7751 10.8873 20.7321C10.8873 20.6976 10.8787 20.6632 10.8787 20.6287C10.8787 20.5856 10.8701 20.5426 10.8701 20.4995C10.8701 20.4651 10.8701 20.4306 10.8615 20.3875C10.8615 20.3445 10.8615 20.3014 10.8529 20.2583C10.8529 20.2239 10.8529 20.1808 10.8529 20.1464C10.8529 20.1033 10.8529 20.0688 10.8529 20.0258C10.8529 19.9655 10.8529 19.9052 10.8529 19.8449C10.8529 19.7846 10.8529 19.7243 10.8529 19.664C10.8529 19.6037 10.8615 19.552 10.8615 19.4918C10.8615 19.4573 10.8615 19.4228 10.8701 19.397C11.8176 19.5176 12.7736 19.5779 13.7297 19.5779H13.8417C16.1328 19.5693 18.3895 19.2075 20.5514 18.5185C20.7667 18.9663 20.9735 19.4315 21.1802 19.888C17.8727 20.9129 14.9959 23.0749 13.0837 25.9689C13.0665 25.9517 13.0493 25.9259 13.032 25.9086C13.0148 25.8828 12.989 25.857 12.9717 25.8311ZM13.8417 18.0189C12.9287 18.0275 12.0157 17.9672 11.1199 17.8552C11.1285 17.838 11.1285 17.8122 11.1371 17.7949C11.1457 17.7519 11.163 17.7088 11.1716 17.6657C11.1802 17.6399 11.1888 17.6055 11.1974 17.5796C11.206 17.5624 11.206 17.5365 11.2146 17.5193C11.2232 17.4763 11.2405 17.4332 11.2491 17.3901C11.2577 17.3557 11.2663 17.3212 11.2835 17.2868C11.2922 17.2695 11.2922 17.2523 11.3008 17.2437C11.318 17.2006 11.3266 17.1576 11.3438 17.1231C11.3524 17.0887 11.3697 17.0456 11.3869 17.0111C11.3869 17.0025 11.3955 16.9939 11.3955 16.9767C11.4127 16.9336 11.4214 16.8906 11.4386 16.8561C11.4558 16.813 11.473 16.77 11.4816 16.7355V16.7269C11.4989 16.6838 11.5161 16.6408 11.5333 16.5977C11.5506 16.5546 11.5678 16.5116 11.585 16.4771C11.6022 16.434 11.6195 16.391 11.6453 16.3393C11.6625 16.2962 11.6798 16.2618 11.697 16.2187C11.7142 16.1756 11.74 16.124 11.7573 16.0809C11.7745 16.0465 11.7917 16.0034 11.8176 15.9689C11.8434 15.9259 11.8606 15.8742 11.8865 15.8311C11.9037 15.7967 11.9209 15.7536 11.9468 15.7191C11.9726 15.6761 11.9984 15.6244 12.0243 15.5813C12.0415 15.5469 12.0673 15.5124 12.0846 15.478C12.1104 15.4349 12.1363 15.3832 12.1621 15.3402C12.1793 15.3057 12.2052 15.2713 12.2224 15.2368C12.2482 15.1937 12.2827 15.1421 12.3085 15.099C12.3257 15.0645 12.3516 15.0387 12.3688 15.0042C12.3947 14.9612 12.4291 14.9095 12.4636 14.8664C12.4808 14.832 12.5066 14.8061 12.5239 14.7717C12.5583 14.7286 12.5841 14.6769 12.6186 14.6339C12.6358 14.608 12.6617 14.5736 12.6875 14.5477C12.722 14.5047 12.7564 14.4616 12.7909 14.4099C12.8167 14.3841 12.8339 14.3583 12.8598 14.3238C12.8942 14.2807 12.9287 14.2377 12.9631 14.186C12.989 14.1601 13.0062 14.1343 13.032 14.1085C13.0665 14.0654 13.1096 14.0223 13.144 13.9793C13.1698 13.9534 13.1871 13.9276 13.2129 13.9017C13.256 13.8587 13.2904 13.8156 13.3335 13.7725C13.3593 13.7467 13.3766 13.7295 13.4024 13.7036C13.4455 13.6606 13.4885 13.6175 13.5316 13.5744C13.5574 13.5486 13.5747 13.5314 13.6005 13.5055C13.6436 13.4625 13.6866 13.4194 13.7297 13.3763C13.7469 13.3591 13.7728 13.3333 13.79 13.316C13.8331 13.273 13.8847 13.2299 13.9278 13.1868C13.945 13.1696 13.9709 13.1524 13.9881 13.1352C14.0398 13.0921 14.0915 13.049 14.1431 13.006C14.1604 12.9887 14.1776 12.9801 14.1948 12.9629C14.2465 12.9198 14.2982 12.8768 14.3499 12.8423C14.3585 12.8337 14.3671 12.8337 14.3671 12.8251C14.4274 12.782 14.4791 12.739 14.5394 12.6873C14.5566 12.6701 14.5738 12.6614 14.591 12.6442C14.6427 12.6011 14.6944 12.5667 14.7547 12.5322C14.7805 12.515 14.8064 12.4978 14.8322 12.4806C14.8753 12.4547 14.9097 12.4289 14.9528 12.403C14.9614 12.3944 14.9786 12.3858 14.9872 12.3772C15.0131 12.36 15.0475 12.3341 15.0734 12.3169C15.0992 12.2997 15.1337 12.2825 15.1595 12.2652C15.1767 12.248 15.2026 12.2394 15.2198 12.2222C15.2543 12.2049 15.2887 12.1791 15.3145 12.1619C15.3404 12.1446 15.3662 12.136 15.3835 12.1188C15.4093 12.1016 15.4351 12.0843 15.461 12.0757C15.4954 12.0585 15.5299 12.0327 15.5643 12.0154C15.5816 12.0068 15.5988 11.9982 15.616 11.981C15.6505 11.9638 15.6763 11.9465 15.7108 11.9293C15.7452 11.9121 15.7883 11.8862 15.8227 11.869C15.84 11.8604 15.8486 11.8518 15.8658 11.8518C15.9003 11.8346 15.9347 11.8173 15.9692 11.8001C16.0122 11.7829 16.0553 11.757 16.0984 11.7398C16.107 11.7398 16.1156 11.7312 16.1156 11.7312C16.1586 11.714 16.1931 11.6968 16.2362 11.6795C16.2534 11.6709 16.262 11.6709 16.2792 11.6623C17.6229 13.3677 18.8201 15.1937 19.8451 17.1059C17.9071 17.7002 15.8916 18.0103 13.8417 18.0189ZM19.4403 29.1128C19.3456 29.1042 19.2594 29.1042 19.1647 29.0955C19.1044 29.0869 19.0527 29.0869 19.001 29.0783C18.9235 29.0697 18.8374 29.0611 18.7599 29.0525C18.6996 29.0439 18.6393 29.0353 18.579 29.0266C18.5015 29.018 18.4239 29.0008 18.355 28.9922C18.2947 28.9836 18.2344 28.9663 18.1742 28.9577C18.1052 28.9405 18.0277 28.9233 17.9588 28.9147C17.8985 28.8974 17.8382 28.8888 17.7693 28.8716C17.7004 28.8544 17.6315 28.8371 17.554 28.8199C17.4937 28.8027 17.4334 28.7855 17.3731 28.7682C17.3042 28.751 17.2353 28.7252 17.1664 28.6993C17.1061 28.6821 17.0458 28.6563 16.9855 28.639C16.9166 28.6132 16.8477 28.5874 16.7788 28.5615C16.7185 28.5357 16.6668 28.5185 16.6065 28.4926C16.5376 28.4668 16.4601 28.4323 16.3912 28.3979C16.3395 28.372 16.2878 28.3548 16.2362 28.329C16.1414 28.2859 16.0553 28.2428 15.9605 28.1998C15.9347 28.1825 15.9003 28.1739 15.8744 28.1567C15.8658 28.1481 15.8572 28.1481 15.84 28.1395L15.8313 28.1309C15.728 28.0792 15.6246 28.0189 15.5213 27.9672C15.4782 27.9414 15.4351 27.9155 15.3921 27.8897C15.3145 27.8466 15.2456 27.8036 15.1767 27.7605C15.1337 27.7346 15.082 27.7002 15.0389 27.6744C15.0303 27.6744 15.0303 27.6657 15.0217 27.6657C14.9614 27.6227 14.8925 27.5796 14.8322 27.5365C14.7891 27.5107 14.7461 27.4763 14.703 27.4418C14.6858 27.4246 14.6599 27.416 14.6427 27.3987C14.591 27.3643 14.548 27.3298 14.4963 27.2868C14.4532 27.2523 14.4188 27.2265 14.3757 27.192C14.3499 27.1662 14.3154 27.1489 14.2896 27.1231C14.281 27.1145 14.2637 27.1059 14.2551 27.0973C15.995 24.341 18.6909 22.2825 21.8003 21.3608C22.6617 23.6175 23.3077 25.9775 23.7125 28.372C23.678 28.3893 23.6436 28.3979 23.6091 28.4151C23.5747 28.4323 23.5316 28.4496 23.4971 28.4668C23.4541 28.484 23.4024 28.5012 23.3593 28.5185C23.3249 28.5357 23.2818 28.5443 23.2474 28.5615H23.2388C23.1957 28.5788 23.1526 28.596 23.1009 28.6132C23.0665 28.6218 23.0406 28.639 23.0062 28.6477C22.989 28.6563 22.9631 28.6649 22.9459 28.6649C22.9114 28.6735 22.877 28.6907 22.8425 28.6993C22.8167 28.7079 22.7909 28.7166 22.765 28.7252C22.7392 28.7338 22.7133 28.7424 22.6875 28.751C22.653 28.7596 22.6186 28.7682 22.5841 28.7855C22.5583 28.7941 22.5411 28.8027 22.5152 28.8027C22.4894 28.8113 22.4636 28.8199 22.4377 28.8285C22.4033 28.8371 22.3602 28.8458 22.3257 28.863C22.3085 28.8716 22.2827 28.8716 22.2655 28.8802C22.2396 28.8888 22.2138 28.8888 22.1965 28.8974C22.1535 28.9061 22.1104 28.9147 22.0673 28.9233C22.0415 28.9319 22.0157 28.9319 21.9898 28.9405C21.9726 28.9405 21.964 28.9491 21.9468 28.9491C21.8951 28.9577 21.852 28.9663 21.8003 28.975C21.7573 28.9836 21.7228 28.9922 21.6798 29.0008C21.6281 29.0094 21.5764 29.018 21.5333 29.0266C21.4989 29.0353 21.4558 29.0439 21.4214 29.0439C21.4041 29.0439 21.3955 29.0439 21.3783 29.0525C21.3438 29.0611 21.3008 29.0611 21.2663 29.0697C21.2319 29.0783 21.1974 29.0783 21.163 29.0869C21.1371 29.0869 21.1199 29.0955 21.094 29.0955C21.0596 29.0955 21.0251 29.1042 20.9907 29.1042C20.9649 29.1042 20.9304 29.1128 20.9046 29.1128C20.8787 29.1128 20.8529 29.1214 20.827 29.1214C20.7926 29.1214 20.7581 29.13 20.7237 29.13C20.6978 29.13 20.672 29.13 20.6462 29.1386C20.6203 29.1386 20.5945 29.1386 20.5773 29.1472C20.5342 29.1472 20.4997 29.1472 20.4567 29.1558C20.4308 29.1558 20.405 29.1558 20.3791 29.1558C20.3619 29.1558 20.3361 29.1558 20.3189 29.1558C20.2758 29.1558 20.2327 29.1558 20.1897 29.1558C20.138 29.1558 20.0949 29.1558 20.0432 29.1558C19.9054 29.1558 19.7676 29.1558 19.6298 29.1472C19.535 29.1214 19.4834 29.1214 19.4403 29.1128ZM25.616 19.2161C24.6427 19.2161 23.6694 19.3109 22.7133 19.5004C22.498 18.9922 22.2741 18.484 22.0329 17.9844C23.9967 17.2006 25.84 16.1326 27.5109 14.8234C28.4842 16.2359 29.0441 17.9069 29.113 19.6296C27.976 19.3626 26.8046 19.2161 25.616 19.2161ZM19.9916 10.8699C20.0691 10.8699 20.1552 10.8699 20.2327 10.8699C20.2586 10.8699 20.293 10.8699 20.3189 10.8699C20.3705 10.8699 20.4222 10.8699 20.4739 10.8785C20.5083 10.8785 20.5428 10.8785 20.5773 10.8871C20.6203 10.8871 20.672 10.8957 20.7151 10.8957C20.7495 10.8957 20.784 10.9043 20.827 10.9043C20.8701 10.9043 20.9132 10.9129 20.9562 10.9129C20.9907 10.9129 21.0338 10.9216 21.0682 10.9302C21.1113 10.9388 21.1543 10.9388 21.1888 10.9474C21.2319 10.956 21.2663 10.956 21.3094 10.9646C21.3438 10.9732 21.3869 10.9732 21.4214 10.9819C21.4644 10.9905 21.5075 10.9991 21.5419 10.9991C21.5764 11.0077 21.6108 11.0077 21.6453 11.0163C21.6884 11.0249 21.7314 11.0335 21.7745 11.0421C21.809 11.0508 21.8348 11.0594 21.8692 11.0594C21.9123 11.068 21.964 11.0766 22.0071 11.0938C22.0243 11.1024 22.0501 11.1024 22.0673 11.111C22.2568 11.1541 22.4463 11.2058 22.6272 11.2661C22.6444 11.2747 22.6531 11.2747 22.6703 11.2833C22.722 11.3005 22.7822 11.3178 22.8339 11.335C22.8512 11.3436 22.877 11.3522 22.8942 11.3522C22.9459 11.3694 22.9976 11.3867 23.0493 11.4039C23.0751 11.4125 23.0923 11.4211 23.1182 11.4297C23.1698 11.447 23.2215 11.4642 23.2646 11.49C23.2904 11.4986 23.3077 11.5073 23.3335 11.5159C23.3852 11.5331 23.4282 11.5589 23.4799 11.5762C23.5058 11.5848 23.523 11.5934 23.5488 11.602C23.6005 11.6192 23.6522 11.6451 23.6953 11.6709C23.7125 11.6795 23.7383 11.6881 23.7555 11.6968C23.8072 11.7226 23.8589 11.7398 23.902 11.7657C23.9192 11.7743 23.9364 11.7829 23.9537 11.7915C24.0053 11.8173 24.057 11.8432 24.1087 11.869C24.1173 11.8776 24.1259 11.8776 24.1345 11.8862C24.324 11.981 24.5049 12.0843 24.6858 12.1963C24.6944 12.1963 24.6944 12.2049 24.703 12.2049C24.7461 12.2308 24.7978 12.2652 24.8408 12.2911C24.858 12.3083 24.8839 12.3169 24.9011 12.3341C24.9442 12.36 24.9786 12.3858 25.0217 12.4117C25.0475 12.4289 25.0734 12.4461 25.0992 12.4633C25.1337 12.4892 25.1767 12.515 25.2112 12.5409C25.237 12.5581 25.2629 12.5839 25.2973 12.6011C25.3318 12.627 25.3662 12.6528 25.4007 12.6787C25.4265 12.7045 25.461 12.7217 25.4868 12.7476C25.5213 12.7734 25.5557 12.7992 25.5902 12.8251C25.6246 12.8509 25.6505 12.8768 25.6849 12.9026C25.7194 12.9284 25.7452 12.9543 25.7797 12.9801C25.8141 13.006 25.84 13.0318 25.8744 13.0663C25.9003 13.0921 25.9347 13.1179 25.9605 13.1352C25.995 13.1696 26.0295 13.1955 26.0639 13.2299C26.0897 13.2558 26.1156 13.273 26.1328 13.2902C26.1845 13.3333 26.2362 13.385 26.2792 13.4366C26.2878 13.4452 26.2965 13.4539 26.3051 13.4625C26.3568 13.5142 26.417 13.5744 26.4687 13.6261C24.8839 14.8664 23.144 15.857 21.2835 16.5977C20.2758 14.6856 19.1044 12.8595 17.7866 11.1455C18.4756 10.9819 19.1819 10.8957 19.8968 10.8871L19.9916 10.8699Z" fill="white"/>
</mask>
<g mask="url(#mask0_84_2034)">
<path d="M20.0001 30.6634C25.8893 30.6634 30.6634 25.8893 30.6634 20.0001C30.6634 14.111 25.8893 9.33691 20.0001 9.33691C14.111 9.33691 9.33691 14.111 9.33691 20.0001C9.33691 25.8893 14.111 30.6634 20.0001 30.6634Z" fill="white"/>
</g>
</g>
<defs>
<clipPath id="clip0_84_2034">
<rect width="40" height="40" fill="white"/>
</clipPath>
</defs>
</svg>
