<svg width="20" height="20" viewBox="0 0 20 20" fill="none" xmlns="http://www.w3.org/2000/svg">
<g clip-path="url(#clip0_256_1609)">
<path d="M9.37384 17.3434C14.0957 17.3434 17.9235 13.5156 17.9235 8.79376C17.9235 4.07194 14.0957 0.244141 9.37384 0.244141C4.65201 0.244141 0.824219 4.07194 0.824219 8.79376C0.824219 13.5156 4.65201 17.3434 9.37384 17.3434Z" fill="white"/>
<path d="M3.2975 6.96168C3.2975 4.70214 4.15246 2.68687 5.58758 1.16016C2.77842 2.5342 0.824219 5.43497 0.824219 8.79374C0.824219 13.5266 4.64101 17.3434 9.37384 17.3434C11.8471 17.3434 14.0761 16.3052 15.6334 14.5953C14.4731 15.1754 13.1906 15.5113 11.8166 15.5113C7.1143 15.5113 3.2975 11.664 3.2975 6.96168Z" fill="#C7E5FF"/>
<path d="M9.40424 17.5573C4.54928 17.5573 0.610352 13.6183 0.610352 8.79389C0.610352 3.93893 4.54928 0 9.40424 0C14.2592 0 18.1981 3.93893 18.1981 8.79389C18.1676 13.6183 14.2287 17.5573 9.40424 17.5573ZM9.40424 0.458015C4.82409 0.458015 1.06837 4.18321 1.06837 8.79389C1.06837 13.374 4.79356 17.1298 9.40424 17.1298C14.0149 17.1298 17.7096 13.374 17.7096 8.79389C17.7096 4.18321 13.9844 0.458015 9.40424 0.458015Z" fill="#4CA3D7"/>
<path d="M19.7862 0.244141C15.4198 1.0991 12.0305 2.13727 9.40452 3.29758V4.73269L7.93887 3.99987C6.16787 4.9159 4.79383 5.893 3.78619 6.87009L4.33581 8.61055L2.68696 8.122C-0.671821 12.5495 2.10681 16.7938 2.10681 16.7938C2.10681 16.7938 4.09154 18.748 8.18314 15.7556L7.35871 14.2899L9.61826 14.5648C10.5648 13.7098 11.9083 12.1831 13.0381 10.7785L11.9389 9.52658L14.0457 9.46552C15.7862 7.08384 17.6793 4.09147 19.7862 0.244141Z" fill="#C7E5FF"/>
<path d="M19.7858 0.244141C3.69423 5.28231 2.10645 16.7632 2.10645 16.7632C2.10645 16.7632 4.09118 18.7174 8.18278 15.7251L7.35835 14.2594L9.6179 14.5342C10.5645 13.6793 11.908 12.1525 13.0377 10.748L11.9385 9.49605L14.0454 9.43498C15.7858 7.08384 17.679 4.09147 19.7858 0.244141Z" fill="white"/>
<path d="M4.03033 17.6492C2.68682 17.6492 1.98453 17.0079 1.954 16.9469L1.92346 16.9163C1.89293 16.8553 -0.91623 12.4889 2.50362 7.96977C2.56469 7.90871 2.65629 7.84764 2.74789 7.87817L3.9998 8.24458L3.57232 6.90107C3.54179 6.80947 3.57232 6.71787 3.63339 6.6568C4.73262 5.5881 6.13721 4.611 7.84713 3.75603C7.9082 3.7255 7.9998 3.7255 8.06087 3.75603L9.19064 4.33619V3.26748C9.19064 3.17588 9.25171 3.08428 9.31278 3.05374C12.1219 1.8629 15.6334 0.824737 19.725 0.00030922C19.8166 -0.0302251 19.9082 0.0308436 19.9387 0.0919123C19.9998 0.152981 19.9998 0.244584 19.9693 0.336187C18.0151 3.96977 16.0914 7.05374 14.2593 9.55756C14.2288 9.61863 14.1372 9.64916 14.0761 9.64916L12.4578 9.71023L13.2212 10.5957C13.2822 10.6873 13.3128 10.8095 13.2212 10.9011C12.2441 12.1224 10.809 13.7713 9.77079 14.7179C9.70972 14.7484 9.64866 14.7789 9.58759 14.7789L7.75553 14.5652L8.36621 15.6339C8.42728 15.7255 8.39675 15.8476 8.30514 15.9392C6.50362 17.2522 5.0685 17.6492 4.03033 17.6492ZM2.28988 16.611C2.47308 16.7942 4.27461 18.2293 7.9082 15.6644L7.17537 14.382C7.14484 14.3209 7.14484 14.2293 7.17537 14.1377C7.23644 14.0766 7.29751 14.0156 7.38911 14.0461L9.55705 14.3209C10.3815 13.527 11.6029 12.2141 12.7632 10.7484L11.7861 9.64916C11.725 9.5881 11.725 9.49649 11.7555 9.40489C11.7861 9.31329 11.8777 9.28275 11.9693 9.25222L13.954 9.19115C15.6639 6.80947 17.496 3.90871 19.328 0.519393C15.5113 1.28275 12.2746 2.25985 9.64866 3.42016V4.7026C9.64866 4.7942 9.61812 4.85527 9.52652 4.88581C9.46545 4.91634 9.37385 4.91634 9.31278 4.88581L7.96927 4.18352C6.41201 5.00794 5.09904 5.89344 4.0914 6.87054L4.57995 8.54993C4.61049 8.64153 4.57995 8.73313 4.51888 8.7942C4.45782 8.85527 4.36621 8.88581 4.30514 8.85527L2.80896 8.39726C-0.21394 12.4583 2.07614 16.2751 2.28988 16.611Z" fill="#4CA3D7"/>
<path d="M0.213513 20.0003C0.182979 20.0003 0.12191 20.0003 0.0913757 19.9697C-0.0307617 19.9087 -0.0612961 19.756 -0.000227368 19.6644C0.0913757 19.5117 8.64099 4.61095 19.6639 0.0307935C19.786 -0.0302752 19.9082 0.0307935 19.9692 0.152931C20.0303 0.275068 19.9692 0.397206 19.8471 0.458274C9.00741 4.94682 0.518857 19.7255 0.427254 19.8781C0.396719 19.9697 0.305116 20.0003 0.213513 20.0003Z" fill="#4CA3D7"/>
<path d="M19.1449 5.74091C19.4821 5.74091 19.7556 5.46749 19.7556 5.13022C19.7556 4.79294 19.4821 4.51953 19.1449 4.51953C18.8076 4.51953 18.5342 4.79294 18.5342 5.13022C18.5342 5.46749 18.8076 5.74091 19.1449 5.74091Z" fill="white"/>
<path d="M19.1753 5.95406C18.7173 5.95406 18.3203 5.58765 18.3203 5.0991C18.3203 4.64109 18.6867 4.24414 19.1753 4.24414C19.6333 4.24414 19.9997 4.61055 19.9997 5.0991C19.9997 5.58765 19.6333 5.95406 19.1753 5.95406ZM19.1753 4.73269C18.9615 4.73269 18.7783 4.9159 18.7783 5.12964C18.7783 5.34338 18.9615 5.52658 19.1753 5.52658C19.389 5.52658 19.5417 5.34338 19.5417 5.12964C19.5417 4.9159 19.3585 4.73269 19.1753 4.73269Z" fill="#4CA3D7"/>
<path d="M7.84702 2.68719C8.18429 2.68719 8.4577 2.41378 8.4577 2.07651C8.4577 1.73923 8.18429 1.46582 7.84702 1.46582C7.50974 1.46582 7.23633 1.73923 7.23633 2.07651C7.23633 2.41378 7.50974 2.68719 7.84702 2.68719Z" fill="white"/>
<path d="M7.84715 2.90107C7.38913 2.90107 6.99219 2.53466 6.99219 2.07664C7.02272 1.58809 7.38913 1.22168 7.84715 1.22168C8.30516 1.22168 8.70211 1.58809 8.70211 2.07664C8.70211 2.53466 8.3357 2.90107 7.84715 2.90107ZM7.84715 1.67969C7.63341 1.67969 7.4502 1.8629 7.4502 2.07664C7.4502 2.29038 7.63341 2.44305 7.84715 2.44305C8.06089 2.44305 8.2441 2.25985 8.2441 2.07664C8.2441 1.8629 8.06089 1.67969 7.84715 1.67969Z" fill="#4CA3D7"/>
<path d="M2.04575 4.82489C2.38302 4.82489 2.65643 4.55148 2.65643 4.2142C2.65643 3.87693 2.38302 3.60352 2.04575 3.60352C1.70847 3.60352 1.43506 3.87693 1.43506 4.2142C1.43506 4.55148 1.70847 4.82489 2.04575 4.82489Z" fill="white"/>
<path d="M2.04539 5.03876C1.58738 5.03876 1.19043 4.67235 1.19043 4.1838C1.19043 3.69525 1.58738 3.35938 2.04539 3.35938C2.50341 3.35938 2.86982 3.72579 2.86982 4.21434C2.86982 4.70289 2.53394 5.03876 2.04539 5.03876ZM2.04539 3.81739C1.83165 3.81739 1.64844 4.0006 1.64844 4.21434C1.64844 4.42808 1.83165 4.61128 2.04539 4.61128C2.25913 4.58075 2.44234 4.39754 2.44234 4.21434C2.44234 4.0006 2.25913 3.81739 2.04539 3.81739Z" fill="#4CA3D7"/>
<path d="M15.1751 15.8171C15.5124 15.8171 15.7858 15.5437 15.7858 15.2064C15.7858 14.8691 15.5124 14.5957 15.1751 14.5957C14.8379 14.5957 14.5645 14.8691 14.5645 15.2064C14.5645 15.5437 14.8379 15.8171 15.1751 15.8171Z" fill="white"/>
<path d="M15.1753 16.0312C14.7173 16.0312 14.3203 15.6648 14.3203 15.1763C14.3203 14.7182 14.6867 14.3213 15.1753 14.3213C15.6333 14.3213 16.0302 14.6877 16.0302 15.1763C16.0302 15.6648 15.6638 16.0312 15.1753 16.0312ZM15.1753 14.8098C14.9615 14.8098 14.7783 14.993 14.7783 15.2068C14.7783 15.4205 14.9615 15.6037 15.1753 15.6037C15.389 15.6037 15.5722 15.4205 15.5722 15.2068C15.5722 14.993 15.389 14.8098 15.1753 14.8098Z" fill="#4CA3D7"/>
<path d="M18.2289 18.2595C18.5661 18.2595 18.8395 17.986 18.8395 17.6488C18.8395 17.3115 18.5661 17.0381 18.2289 17.0381C17.8916 17.0381 17.6182 17.3115 17.6182 17.6488C17.6182 17.986 17.8916 18.2595 18.2289 18.2595Z" fill="white"/>
<path d="M18.229 18.4736C17.771 18.4736 17.374 18.1072 17.374 17.6186C17.374 17.1606 17.7404 16.7637 18.229 16.7637C18.687 16.7637 19.0839 17.1301 19.0839 17.6186C19.0839 18.1072 18.7175 18.4736 18.229 18.4736ZM18.229 17.2522C18.0152 17.2522 17.832 17.4354 17.832 17.6492C17.832 17.8629 18.0152 18.0461 18.229 18.0461C18.4427 18.0461 18.6259 17.8629 18.6259 17.6492C18.6259 17.4354 18.4427 17.2522 18.229 17.2522Z" fill="#4CA3D7"/>
<path d="M11.5111 19.7868C11.8484 19.7868 12.1218 19.5134 12.1218 19.1761C12.1218 18.8388 11.8484 18.5654 11.5111 18.5654C11.1738 18.5654 10.9004 18.8388 10.9004 19.1761C10.9004 19.5134 11.1738 19.7868 11.5111 19.7868Z" fill="white"/>
<path d="M11.5112 20.0007C11.0532 20.0007 10.6562 19.6343 10.6562 19.1763C10.6562 18.7182 11.0227 18.3213 11.5112 18.3213C11.9692 18.3213 12.3662 18.6877 12.3662 19.1763C12.3662 19.6343 11.9998 20.0007 11.5112 20.0007ZM11.5112 18.7793C11.2975 18.7793 11.1143 18.9625 11.1143 19.1763C11.1143 19.39 11.2975 19.5427 11.5112 19.5427C11.725 19.5427 11.9082 19.3595 11.9082 19.1763C11.9082 18.9625 11.725 18.7793 11.5112 18.7793Z" fill="#4CA3D7"/>
<path d="M15.786 11.237C16.1233 11.237 16.3967 10.9636 16.3967 10.6263C16.3967 10.289 16.1233 10.0156 15.786 10.0156C15.4487 10.0156 15.1753 10.289 15.1753 10.6263C15.1753 10.9636 15.4487 11.237 15.786 11.237Z" fill="white"/>
<path d="M15.7861 11.4511C15.3281 11.4511 14.9312 11.0847 14.9312 10.5962C14.9312 10.1382 15.2976 9.74121 15.7861 9.74121C16.2441 9.74121 16.6411 10.1076 16.6411 10.5962C16.6411 11.0847 16.2747 11.4511 15.7861 11.4511ZM15.7861 10.2298C15.5724 10.2298 15.3892 10.413 15.3892 10.6267C15.3892 10.8404 15.5724 11.0237 15.7861 11.0237C15.9999 11.0237 16.1831 10.8404 16.1831 10.6267C16.1831 10.413 15.9999 10.2298 15.7861 10.2298Z" fill="#4CA3D7"/>
</g>
<defs>
<clipPath id="clip0_256_1609">
<rect width="20" height="20" fill="white"/>
</clipPath>
</defs>
</svg>
