<svg width="84" height="58" viewBox="0 0 84 58" fill="none" xmlns="http://www.w3.org/2000/svg">
<path d="M8.81139 12.1288C10.9654 12.1288 12.7116 10.4427 12.7116 8.36274C12.7116 6.2828 10.9654 4.59668 8.81139 4.59668C6.65734 4.59668 4.91113 6.2828 4.91113 8.36274C4.91113 10.4427 6.65734 12.1288 8.81139 12.1288Z" fill="url(#paint0_linear_86_4505)"/>
<path d="M9.38952 14.3604H8.23389V16.8711H9.38952V14.3604Z" fill="url(#paint1_linear_86_4505)"/>
<path d="M14.9508 14.57L14.084 15.2674L12.3506 13.3146L13.2895 12.6172L14.9508 14.57Z" fill="url(#paint2_linear_86_4505)"/>
<path d="M17.6235 9.26904L17.4791 10.3849L14.8789 9.96646L15.0956 8.85059L17.6235 9.26904Z" fill="url(#paint3_linear_86_4505)"/>
<path d="M16.179 3.62012L16.7568 4.5965L14.5178 5.85186L13.9399 4.87547L16.179 3.62012Z" fill="url(#paint4_linear_86_4505)"/>
<path d="M11.2676 0.132812L12.4232 0.551263L11.4843 2.92249L10.4009 2.50403L11.2676 0.132812Z" fill="url(#paint5_linear_86_4505)"/>
<path d="M5.27246 0.551263L6.35587 0.132812L7.22259 2.50403L6.13918 2.92249L5.27246 0.551263Z" fill="url(#paint6_linear_86_4505)"/>
<path d="M0.866699 4.5965L1.44452 3.62012L3.68355 4.87547L3.10574 5.85186L0.866699 4.5965Z" fill="url(#paint7_linear_86_4505)"/>
<path d="M0.216681 10.3849L0 9.26904L2.60017 8.85059L2.81685 9.96646L0.216681 10.3849Z" fill="url(#paint8_linear_86_4505)"/>
<path d="M3.61131 15.2664L2.67236 14.569L4.33358 12.6162L5.27254 13.3136L3.61131 15.2664Z" fill="url(#paint9_linear_86_4505)"/>
<path d="M32.5742 46.163V53.9044H28.8906V36.6084H32.5742V43.1641H39.508V36.6084H43.1193V53.9044H39.508V46.163H32.5742Z" fill="#ED6B06"/>
<path d="M49.6918 41.7688H46.8027V39.0488H49.6918V41.7688ZM49.6918 43.0939V53.9038H46.8027V43.0939H49.6918Z" fill="#ED6B06"/>
<path d="M56.1928 53.9038H53.3037V39.0488H56.1928V53.9038Z" fill="#ED6B06"/>
<path d="M62.6928 53.9038H59.8037V39.0488H62.6928V53.9038Z" fill="#ED6B06"/>
<path d="M77.4272 34.5167H83.0609L75.6937 22.1027H80.0273L68.471 2.78418H65.0764L74.9715 19.313H70.6378L78.0772 31.727H72.4435L78.9439 42.6765H68.8322V55.6485H28.8906V57.7407H68.8322H70.7823H71.7212V45.4662H83.9998L77.4272 34.5167Z" fill="#2F6979"/>
<path d="M30.6237 23.4971H26.4346V27.5421H30.6237V23.4971Z" fill="#2F6979"/>
<path d="M35.6081 23.4971H31.4189V27.5421H35.6081V23.4971Z" fill="#2F6979"/>
<path d="M30.6237 28.5889H26.4346V32.6339H30.6237V28.5889Z" fill="#2F6979"/>
<path d="M35.6081 28.5889H31.4189V32.6339H35.6081V28.5889Z" fill="#2F6979"/>
<path d="M51.4254 5.15549L46.2973 5.22523L45.2861 3.48169L56.698 3.27246L57.7814 5.08575L53.4478 5.15549L55.3257 8.43335L59.6593 8.36361L60.6705 10.1072L49.2586 10.3164L48.2474 8.5031L53.3756 8.43335L51.4254 5.15549Z" fill="#6D400D"/>
<path d="M53.7364 16.5236C52.653 15.9657 51.9307 15.2683 51.4251 14.4314C50.9195 13.5944 50.8473 12.8273 51.2806 12.2694C51.714 11.6417 52.653 11.293 54.0975 11.293C55.542 11.293 56.8421 11.5719 57.9978 12.1996C59.0089 12.7575 59.8034 13.455 60.309 14.2919C60.8146 15.1288 60.8146 15.8262 60.4535 16.3841C60.0201 17.0118 59.0812 17.3605 57.6366 17.3605C56.1921 17.4302 54.892 17.1513 53.7364 16.5236ZM58.2144 15.4775C58.6478 15.1985 58.72 14.8498 58.4311 14.3616C58.1422 13.8037 57.6366 13.455 56.9144 13.2457C56.4088 13.1063 55.7587 13.0365 55.0364 13.0365C54.3864 13.0365 53.8808 13.1063 53.5197 13.3155C53.0863 13.5944 53.0141 13.9432 53.303 14.5011C53.5919 14.9893 54.0975 15.4077 54.8198 15.617C55.3254 15.7564 55.9754 15.8262 56.6254 15.8262C57.3477 15.7564 57.9255 15.617 58.2144 15.4775Z" fill="#6D400D"/>
<path d="M57.2034 23.9157L56.3367 22.3814H57.4923C56.9145 22.1721 56.4811 21.9629 56.0478 21.6142C55.6144 21.2655 55.2533 20.9168 55.0366 20.4983C54.6755 19.8707 54.6032 19.3825 54.8921 18.964C55.181 18.5456 55.9033 18.3363 56.9145 18.3363L62.6927 18.2666L63.6316 19.8707L58.1424 19.9404C57.5645 19.9404 57.2034 20.0799 57.0589 20.2891C56.9867 20.4983 56.9867 20.7076 57.2034 21.0563C57.4201 21.405 57.709 21.6142 58.0701 21.8234C58.5757 22.1024 59.1535 22.2419 59.8758 22.2419L64.9317 22.1721L65.8706 23.7762L57.2034 23.9157Z" fill="#6D400D"/>
<path d="M65.8709 28.6582C66.232 28.5885 66.4487 28.5187 66.5209 28.3793C66.6654 28.17 66.5931 27.8911 66.3764 27.5424C66.1598 27.1239 65.8709 26.8449 65.6542 26.7055C65.4375 26.566 65.2208 26.566 65.0041 26.566C64.7875 26.566 64.643 26.7055 64.643 26.9844C64.643 27.1239 64.7152 27.4726 64.8597 27.8911C65.0764 28.6582 65.2208 29.2162 65.1486 29.5649C65.0764 30.1228 64.5708 30.4018 63.7763 30.4715C62.6929 30.4715 61.6817 30.1926 60.815 29.5649C60.1649 29.0767 59.6593 28.5187 59.2982 27.8911C58.8648 27.0542 58.6482 26.4265 58.7926 25.9383C58.9371 25.3106 59.5149 24.9619 60.5261 24.9619L61.465 26.6357C61.1039 26.6357 60.815 26.7752 60.7427 26.9147C60.5983 27.1239 60.7427 27.4726 60.9594 27.9608C61.1761 28.3095 61.465 28.5885 61.7539 28.7977C61.9706 28.9372 62.2595 29.0069 62.4762 29.0069C62.7651 29.0069 62.8373 28.8675 62.8373 28.5885C62.8373 28.449 62.7651 28.1003 62.6206 27.6121C62.404 26.8449 62.3317 26.287 62.3317 26.008C62.404 25.4501 62.9095 25.1711 63.704 25.1711C64.4263 25.1711 65.2208 25.3106 65.8709 25.6593C66.7376 26.0778 67.4599 26.7055 67.9654 27.6121C68.3988 28.3095 68.5433 28.9372 68.471 29.3557C68.3266 29.9833 67.7488 30.2623 66.7376 30.332L65.8709 28.6582Z" fill="#6D400D"/>
<path d="M67.1706 36.818C66.1594 36.6088 65.2204 36.2601 64.426 35.7719C63.7759 35.3535 63.2703 34.7955 62.9092 34.2376C62.4036 33.3309 62.3314 32.6335 62.6925 32.0756C63.1259 31.5177 64.2093 31.1689 65.7983 31.1689C66.7372 31.1689 67.6762 31.3084 68.6151 31.5874C70.0597 32.0756 71.1431 32.8427 71.7931 33.9586C72.2265 34.7258 72.2987 35.3535 72.0098 35.8416C71.5764 36.4693 70.5653 36.818 68.8318 36.8878H68.3984L66.0149 32.773H65.9427C65.4371 32.8427 65.076 32.9125 64.8593 33.052C64.4982 33.2612 64.426 33.6797 64.7871 34.1678C64.9315 34.3771 65.1482 34.5863 65.3649 34.7955C65.6538 35.0047 65.9427 35.1442 66.3039 35.214L67.1706 36.818ZM68.904 35.214C69.4818 35.1442 69.843 35.0047 69.9874 34.7258C70.1319 34.5166 70.0597 34.2376 69.9152 33.9586C69.6985 33.6099 69.4096 33.3309 68.9763 33.1217C68.5429 32.9125 68.0373 32.8427 67.4595 32.773L68.904 35.214Z" fill="#6D400D"/>
<path d="M42.4693 2.78418H31.6353L13.2896 33.4706H10.1116L8.81152 37.3064H10.9783H13.5063H19.8623L18.9955 33.4706H15.8175L31.6353 6.96869L49.7642 37.3064H52.2922H63.1262L42.4693 2.78418Z" fill="#2F6979"/>
<defs>
<linearGradient id="paint0_linear_86_4505" x1="4.89149" y1="8.36288" x2="12.7553" y2="8.36288" gradientUnits="userSpaceOnUse">
<stop stop-color="#FFEF26"/>
<stop offset="0.0594872" stop-color="#FFE000"/>
<stop offset="0.1303" stop-color="#FFD300"/>
<stop offset="0.2032" stop-color="#FECB00"/>
<stop offset="0.2809" stop-color="#FDC800"/>
<stop offset="0.6685" stop-color="#F18F34"/>
<stop offset="0.8876" stop-color="#E95F32"/>
<stop offset="1" stop-color="#E3312D"/>
</linearGradient>
<linearGradient id="paint1_linear_86_4505" x1="8.23685" y1="15.6502" x2="9.41054" y2="15.6502" gradientUnits="userSpaceOnUse">
<stop stop-color="#FFEF26"/>
<stop offset="0.0594872" stop-color="#FFE000"/>
<stop offset="0.1303" stop-color="#FFD300"/>
<stop offset="0.2032" stop-color="#FECB00"/>
<stop offset="0.2809" stop-color="#FDC800"/>
<stop offset="0.6685" stop-color="#F18F34"/>
<stop offset="0.8876" stop-color="#E95F32"/>
<stop offset="1" stop-color="#E3312D"/>
</linearGradient>
<linearGradient id="paint2_linear_86_4505" x1="12.3837" y1="13.9457" x2="14.9658" y2="13.9457" gradientUnits="userSpaceOnUse">
<stop stop-color="#FFEF26"/>
<stop offset="0.0594872" stop-color="#FFE000"/>
<stop offset="0.1303" stop-color="#FFD300"/>
<stop offset="0.2032" stop-color="#FECB00"/>
<stop offset="0.2809" stop-color="#FDC800"/>
<stop offset="0.6685" stop-color="#F18F34"/>
<stop offset="0.8876" stop-color="#E95F32"/>
<stop offset="1" stop-color="#E3312D"/>
</linearGradient>
<linearGradient id="paint3_linear_86_4505" x1="14.8653" y1="9.628" x2="17.6475" y2="9.628" gradientUnits="userSpaceOnUse">
<stop stop-color="#FFEF26"/>
<stop offset="0.0594872" stop-color="#FFE000"/>
<stop offset="0.1303" stop-color="#FFD300"/>
<stop offset="0.2032" stop-color="#FECB00"/>
<stop offset="0.2809" stop-color="#FDC800"/>
<stop offset="0.6685" stop-color="#F18F34"/>
<stop offset="0.8876" stop-color="#E95F32"/>
<stop offset="1" stop-color="#E3312D"/>
</linearGradient>
<linearGradient id="paint4_linear_86_4505" x1="13.9328" y1="4.71897" x2="16.7871" y2="4.71897" gradientUnits="userSpaceOnUse">
<stop stop-color="#FFEF26"/>
<stop offset="0.0594872" stop-color="#FFE000"/>
<stop offset="0.1303" stop-color="#FFD300"/>
<stop offset="0.2032" stop-color="#FECB00"/>
<stop offset="0.2809" stop-color="#FDC800"/>
<stop offset="0.6685" stop-color="#F18F34"/>
<stop offset="0.8876" stop-color="#E95F32"/>
<stop offset="1" stop-color="#E3312D"/>
</linearGradient>
<linearGradient id="paint5_linear_86_4505" x1="10.406" y1="1.51447" x2="12.4044" y2="1.51447" gradientUnits="userSpaceOnUse">
<stop stop-color="#FFEF26"/>
<stop offset="0.0594872" stop-color="#FFE000"/>
<stop offset="0.1303" stop-color="#FFD300"/>
<stop offset="0.2032" stop-color="#FECB00"/>
<stop offset="0.2809" stop-color="#FDC800"/>
<stop offset="0.6685" stop-color="#F18F34"/>
<stop offset="0.8876" stop-color="#E95F32"/>
<stop offset="1" stop-color="#E3312D"/>
</linearGradient>
<linearGradient id="paint6_linear_86_4505" x1="5.24306" y1="1.51447" x2="7.24151" y2="1.51447" gradientUnits="userSpaceOnUse">
<stop stop-color="#FFEF26"/>
<stop offset="0.0594872" stop-color="#FFE000"/>
<stop offset="0.1303" stop-color="#FFD300"/>
<stop offset="0.2032" stop-color="#FECB00"/>
<stop offset="0.2809" stop-color="#FDC800"/>
<stop offset="0.6685" stop-color="#F18F34"/>
<stop offset="0.8876" stop-color="#E95F32"/>
<stop offset="1" stop-color="#E3312D"/>
</linearGradient>
<linearGradient id="paint7_linear_86_4505" x1="0.860415" y1="4.71897" x2="3.71475" y2="4.71897" gradientUnits="userSpaceOnUse">
<stop stop-color="#FFEF26"/>
<stop offset="0.0594872" stop-color="#FFE000"/>
<stop offset="0.1303" stop-color="#FFD300"/>
<stop offset="0.2032" stop-color="#FECB00"/>
<stop offset="0.2809" stop-color="#FDC800"/>
<stop offset="0.6685" stop-color="#F18F34"/>
<stop offset="0.8876" stop-color="#E95F32"/>
<stop offset="1" stop-color="#E3312D"/>
</linearGradient>
<linearGradient id="paint8_linear_86_4505" x1="0" y1="9.628" x2="2.78226" y2="9.628" gradientUnits="userSpaceOnUse">
<stop stop-color="#FFEF26"/>
<stop offset="0.0594872" stop-color="#FFE000"/>
<stop offset="0.1303" stop-color="#FFD300"/>
<stop offset="0.2032" stop-color="#FECB00"/>
<stop offset="0.2809" stop-color="#FDC800"/>
<stop offset="0.6685" stop-color="#F18F34"/>
<stop offset="0.8876" stop-color="#E95F32"/>
<stop offset="1" stop-color="#E3312D"/>
</linearGradient>
<linearGradient id="paint9_linear_86_4505" x1="2.68139" y1="13.9447" x2="5.26343" y2="13.9447" gradientUnits="userSpaceOnUse">
<stop stop-color="#FFEF26"/>
<stop offset="0.0594872" stop-color="#FFE000"/>
<stop offset="0.1303" stop-color="#FFD300"/>
<stop offset="0.2032" stop-color="#FECB00"/>
<stop offset="0.2809" stop-color="#FDC800"/>
<stop offset="0.6685" stop-color="#F18F34"/>
<stop offset="0.8876" stop-color="#E95F32"/>
<stop offset="1" stop-color="#E3312D"/>
</linearGradient>
</defs>
</svg>
